<svg width="121" height="123" viewBox="0 0 121 123" fill="none" xmlns="http://www.w3.org/2000/svg">
<g clip-path="url(#clip0_580_2398)">
<path d="M34.6212 65.5106C49.3829 62.1672 58.6392 47.4901 55.2958 32.7284C51.9523 17.9667 37.2752 8.71041 22.5136 12.0538C7.75187 15.3973 -1.50445 30.0744 1.83899 44.8361C5.18243 59.5978 19.8595 68.8541 34.6212 65.5106Z" fill="#7DA7BB"/>
<path d="M28.5679 66.142C36.6174 66.142 43.8293 62.6989 48.8079 57.162L35.5007 49.95L34.1979 43.3895L24.7991 41.0631L24.4734 49.95L8.83984 57.7203C13.7719 62.9315 20.7977 66.142 28.5679 66.142Z" fill="#F8F9FE" stroke="#262E63" stroke-miterlimit="10"/>
<path d="M24.5664 47.9028L33.0346 46.3673L30.8012 42.552L24.799 41.0631L24.5664 47.9028Z" fill="#262E63" stroke="#262E63" stroke-miterlimit="10"/>
<path d="M38.0119 22.6843C38.0119 22.6843 28.4735 17.4266 23.9137 17.7988C19.4004 18.1711 12.5142 27.6163 11.6767 32.1296C10.8392 36.6429 15.2129 39.1089 15.492 39.4811C15.7247 39.8534 11.8163 39.6207 12.1885 42.552C12.5607 45.4833 17.2136 45.9951 19.9123 45.4833C22.6109 44.9715 24.4255 41.5749 24.4255 41.0631C24.4255 40.5513 23.2158 37.2478 23.2158 37.2478C23.2158 37.2478 25.7748 37.4804 26.1471 35.2936C26.5193 33.1067 28.6131 28.1747 31.4048 28.0816C34.243 27.942 36.4299 28.3143 36.6625 28.9191C36.8952 29.524 37.1743 31.8504 37.1743 31.8504C37.1743 31.8504 40.3383 32.5949 42.9439 30.3615C45.5029 28.1747 46.48 22.1725 43.0835 20.9162C39.5938 19.753 38.0119 22.6843 38.0119 22.6843Z" fill="#262E63" stroke="#262E63" stroke-miterlimit="10" stroke-linecap="round" stroke-linejoin="round"/>
<path d="M22.0531 35.2005L17.1211 37.9922C17.1211 37.9922 18.9822 40.2721 19.7732 40.5048C20.5642 40.7839 21.9135 40.3652 21.9135 40.3652C21.9135 40.3652 24.1934 43.0173 25.915 44.227C27.6365 45.4368 31.7776 47.6701 34.011 46.8792C36.2908 46.0882 39.5944 40.086 39.3152 38.0853C39.036 36.0845 37.8728 32.8741 37.9659 31.2921C38.1055 29.7101 38.3846 27.1511 38.3846 27.1511C38.3846 27.1511 32.9408 24.4989 28.5206 27.0115C24.1934 29.6171 24.4261 34.2699 22.0531 35.2005Z" fill="#F8F9FE" stroke="#262E63" stroke-miterlimit="10" stroke-linecap="round" stroke-linejoin="round"/>
<path d="M34.0106 32.8275L34.1502 34.4095C34.1502 34.4095 37.5933 34.8283 36.2905 35.9915C34.9412 37.2012 33.0801 37.4339 33.0801 37.4339" stroke="#262E63" stroke-width="0.5" stroke-miterlimit="10" stroke-linecap="round" stroke-linejoin="round"/>
<path d="M27.6367 31.7574C27.6367 31.7574 28.986 30.408 30.568 30.5476" stroke="#262E63" stroke-miterlimit="10" stroke-linecap="round" stroke-linejoin="round"/>
<path d="M34.5684 30.1754C34.5684 30.1754 35.9177 29.6636 37.2205 30.6872" stroke="#262E63" stroke-miterlimit="10" stroke-linecap="round" stroke-linejoin="round"/>
<path d="M30.0544 35.0144C30.3628 35.0144 30.6128 34.5561 30.6128 33.9908C30.6128 33.4254 30.3628 32.9671 30.0544 32.9671C29.7461 32.9671 29.4961 33.4254 29.4961 33.9908C29.4961 34.5561 29.7461 35.0144 30.0544 35.0144Z" fill="#262E63"/>
<path d="M36.6167 33.3394C36.6167 33.8977 36.3375 34.363 36.0583 34.363C35.7326 34.363 35.5 33.8977 35.5 33.3394C35.5 32.781 35.7792 32.3157 36.0583 32.3157C36.3375 32.3623 36.6167 32.781 36.6167 33.3394Z" fill="#262E63"/>
<path d="M36.1978 39.1089C36.1978 39.1089 33.0804 40.9235 30.2422 38.9228" stroke="#262E63" stroke-width="0.5" stroke-miterlimit="10" stroke-linecap="round" stroke-linejoin="round"/>
<path d="M28.5679 66.142C36.6174 66.142 43.8293 62.6989 48.8079 57.162L39.8278 51.9508L36.6639 60.8377L25.7762 61.0238L18.7039 52.9279H18.5178L8.83984 57.7203C13.7719 62.9315 20.7977 66.142 28.5679 66.142Z" fill="#E1B17F" stroke="#262E63" stroke-miterlimit="10"/>
<path d="M34.6212 65.5106C49.3829 62.1672 58.6392 47.4901 55.2958 32.7284C51.9523 17.9667 37.2752 8.71041 22.5136 12.0538C7.75187 15.3973 -1.50445 30.0744 1.83899 44.8361C5.18243 59.5978 19.8595 68.8541 34.6212 65.5106Z" stroke="#262E63" stroke-miterlimit="10"/>
</g>
<g clip-path="url(#clip1_580_2398)">
<path d="M92.0225 59.6435C107.158 59.6435 119.428 47.3737 119.428 32.2382C119.428 17.1027 107.158 4.83289 92.0225 4.83289C76.887 4.83289 64.6172 17.1027 64.6172 32.2382C64.6172 47.3737 76.887 59.6435 92.0225 59.6435Z" stroke="#262E63" stroke-miterlimit="10"/>
<path d="M97.094 13.6268C97.094 13.6268 98.9086 14.6504 100.63 13.5337C102.352 12.417 101.142 11.9052 100.816 11.2073C100.491 10.5094 101.328 10.3232 101.514 9.39268C101.7 8.46211 101.095 7.67112 100.723 7.57806C100.398 7.48501 100.444 6.55444 100.444 5.57734C100.444 4.60024 99.3274 3.80925 98.8156 3.80925C98.3037 3.80925 97.9315 3.11132 97.6058 2.27381C97.2801 1.38977 96.5822 0.645312 95.3724 1.15713C94.1627 1.66894 93.5578 1.66894 92.953 0.831427C92.3481 -0.0526155 90.8592 -0.192201 90.3474 0.226556C89.8355 0.645312 89.5564 1.52935 88.5327 0.645312C87.5091 -0.23873 86.2063 -0.0526156 85.6014 0.552255C84.9966 1.15713 85.0896 1.85505 84.1125 1.48283C83.182 1.15713 81.6 1.66894 81.2743 2.69257C80.9486 3.7162 79.0409 4.83288 78.343 4.60024C77.6451 4.32107 76.4353 4.60024 77.0402 5.90304C77.6451 7.20584 76.9471 8.04335 76.4353 8.04335C75.9235 8.04335 74.8068 8.36905 75.4117 9.53226C76.0166 10.6489 76.4353 11.533 75.7374 11.8587C75.0395 12.1844 73.9228 12.2774 74.8068 13.7664C75.6909 15.2553 76.3423 15.1622 76.1096 15.9997C75.8305 16.8838 75.3186 17.1164 76.1096 17.7213C76.9006 18.3262 77.8312 18.6053 77.8312 19.1171C77.8312 19.629 76.8076 19.9081 78.0173 20.3269C79.227 20.7456 80.1576 20.8387 80.1576 20.8387C80.1576 20.8387 81.8792 16.1858 86.8112 14.6039C91.7432 13.0684 94.5815 13.208 95.6981 13.8129C96.8148 14.4178 97.094 13.6268 97.094 13.6268Z" fill="#262E63" stroke="#262E63" stroke-miterlimit="10" stroke-linecap="round" stroke-linejoin="round"/>
<path d="M92.022 59.6435C89.8817 59.6435 87.8344 59.4109 85.8337 58.9456C84.7635 53.2691 83.6934 47.5461 83.6934 47.5461C83.6934 47.5461 88.3462 46.2433 89.7886 46.0106C91.1845 45.778 95.4185 45.3127 95.4185 45.3127L101.746 48.244C101.746 48.244 102.491 52.385 103.235 57.2705C99.7457 58.7595 95.9769 59.6435 92.022 59.6435Z" fill="#F8F9FE" stroke="#262E63" stroke-miterlimit="10"/>
<path d="M84.0664 49.6864L101.561 48.1975L101.654 48.244C101.654 48.244 101.794 49.0815 102.026 50.4309L84.4852 51.9663C84.3456 51.0823 84.206 50.2913 84.0664 49.6864Z" fill="#262E63"/>
<path d="M85.1367 55.2698L102.631 53.7809C102.771 54.4788 102.864 55.2698 103.004 56.0143L85.602 57.5032C85.4159 56.7587 85.2763 55.9677 85.1367 55.2698Z" fill="#FFDB5E"/>
<path d="M96.3019 42.0092C96.3019 42.0092 97.6047 46.8947 97.6978 49.5003C97.8373 52.0593 95.1387 54.1531 91.2768 53.8274C87.4149 53.4552 86.717 49.2676 86.717 48.1975C86.717 47.1273 86.4844 38.2869 86.4844 38.2869C86.4844 38.2869 88.3455 39.9154 90.5789 41.3113C92.7657 42.7071 96.3019 42.0092 96.3019 42.0092Z" fill="#F8F9FE" stroke="#262E63" stroke-miterlimit="10"/>
<path d="M92.7657 46.1967C89.1365 44.4287 87.2754 41.0321 86.4844 38.8452C86.4844 38.473 86.4844 38.2869 86.4844 38.2869C86.4844 38.2869 88.3455 39.9154 90.5789 41.3113C92.8123 42.7071 96.3019 42.0092 96.3019 42.0092C96.3019 42.0092 97.0929 45.0801 97.5116 47.6391C96.1623 47.4995 94.5803 47.0808 92.7657 46.1967Z" fill="#262E63" stroke="#262E63" stroke-miterlimit="10"/>
<path d="M101.559 26.7478C101.559 26.7478 103.421 24.3284 103.793 27.6784C104.165 31.0285 100.629 34.3785 100.629 34.3785V26.7478" fill="#F8F9FE"/>
<path d="M101.559 26.7478C101.559 26.7478 103.421 24.3284 103.793 27.6784C104.165 31.0285 100.629 34.3785 100.629 34.3785V26.7478" stroke="#262E63" stroke-miterlimit="10" stroke-linecap="round" stroke-linejoin="round"/>
<path d="M80.25 23.2582C80.25 23.2582 80.3896 18.0935 82.3438 15.1157C84.298 12.1379 88.346 10.3233 92.8592 11.1142C98.4892 12.0913 101.002 16.2789 101.886 19.8616C102.77 23.3978 101.746 28.609 101.746 32.1451C101.746 35.6813 97.6051 42.0557 96.3954 43.0793C95.2322 44.103 93.371 44.4752 91.2773 43.405C89.3696 42.4279 86.2057 39.1244 84.298 37.1702C82.3903 35.2625 81.2271 29.5395 80.9479 28.1902C80.6688 26.8874 80.25 23.2582 80.25 23.2582Z" fill="#F8F9FE" stroke="#262E63" stroke-miterlimit="10" stroke-linecap="round" stroke-linejoin="round"/>
<path d="M95.9761 33.3083C95.9761 33.3083 96.1622 34.425 93.5566 34.2389" stroke="#262E63" stroke-width="0.5" stroke-miterlimit="10" stroke-linecap="round" stroke-linejoin="round"/>
<path d="M96.7675 36.2397C96.7675 36.2397 93.7431 38.3334 90.7188 36.3327" stroke="#262E63" stroke-width="0.5" stroke-miterlimit="10" stroke-linecap="round" stroke-linejoin="round"/>
<path d="M96.7676 28.5624C96.7676 29.1673 97.0468 29.6791 97.419 29.6791C97.7912 29.6791 98.0704 29.1673 98.0704 28.5624C98.0704 27.9576 97.7912 27.4458 97.419 27.4458C97.0468 27.4458 96.7676 27.9576 96.7676 28.5624Z" fill="#262E63"/>
<path d="M90.0195 29.1208C90.0195 29.7256 90.2987 30.2375 90.6709 30.2375C91.0432 30.2375 91.3223 29.7256 91.3223 29.1208C91.3223 28.5159 91.0432 28.0041 90.6709 28.0041C90.2987 28.0041 90.0195 28.5159 90.0195 29.1208Z" fill="#262E63"/>
<path d="M99.5141 25.0263C99.5141 25.0263 98.7231 23.3047 96.1641 24.1422" stroke="#262E63" stroke-miterlimit="10" stroke-linecap="round" stroke-linejoin="round"/>
<path d="M91.8353 24.8402C91.8353 24.8402 89.4158 23.5374 86.7637 25.5381" stroke="#262E63" stroke-miterlimit="10" stroke-linecap="round" stroke-linejoin="round"/>
<path d="M72.9453 51.9198C72.9918 51.1288 72.8988 49.7794 73.8759 49.2676C74.5273 48.8954 78.994 47.8718 82.4371 47.1273C84.6705 46.6155 86.4851 46.2433 86.4851 46.2433C86.4851 46.2433 86.9039 52.8969 87.4157 59.2713C81.8323 58.2942 76.8537 55.6886 72.9453 51.9198Z" fill="#7DA7BB" stroke="#262E63" stroke-miterlimit="10"/>
<path d="M103.654 57.0379C103.049 53.083 102.072 49.1746 101.514 47.0808C104.957 47.8252 109.424 48.8954 110.075 49.2211C111.052 49.7794 110.912 51.1753 111.005 51.9663C108.865 54.0601 106.399 55.7351 103.654 57.0379Z" fill="#7DA7BB" stroke="#262E63" stroke-width="0.5" stroke-miterlimit="10"/>
<path d="M82.6241 57.9685C82.2984 52.1524 82.4379 47.0808 82.4379 47.0808C84.6713 46.569 86.4859 46.1967 86.4859 46.1967C86.4859 46.1967 86.9047 52.8503 87.4165 59.2247C85.7415 58.9456 84.1595 58.5268 82.6241 57.9685Z" fill="#7DA7BB" stroke="#262E63" stroke-miterlimit="10"/>
<path d="M92.8592 11.1142C98.4892 12.0913 101.002 16.2789 101.886 19.8616C102.025 20.513 102.118 21.1644 102.211 21.9089C101.979 21.5832 101.746 21.2109 101.374 20.8387C98.7684 17.8609 96.7211 16.5581 96.7211 16.5581C96.7211 16.5581 95.9766 18.4192 91.696 20.6526C87.4154 22.886 81.6459 22.6998 81.6459 22.6998C81.6459 22.6998 82.7625 23.0721 81.832 25.1193C81.4132 26.0034 81.041 26.7478 80.7618 27.3062C80.5292 25.6777 80.25 23.3047 80.25 23.3047C80.25 23.3047 80.3896 18.14 82.3438 15.1622C84.2515 12.1379 88.346 10.3233 92.8592 11.1142Z" fill="#262E63" stroke="#262E63" stroke-miterlimit="10" stroke-linecap="round" stroke-linejoin="round"/>
<path d="M82.2044 30.284C82.2044 30.284 81.0877 26.0034 79.2266 28.0506C77.3655 30.0979 79.5988 33.0757 80.7155 34.5646C81.8322 36.0535 83.6933 34.9368 83.6933 34.9368" fill="#F8F9FE"/>
<path d="M82.2044 30.284C82.2044 30.284 81.0877 26.0034 79.2266 28.0506C77.3655 30.0979 79.5988 33.0757 80.7155 34.5646C81.8322 36.0535 83.6933 34.9368 83.6933 34.9368" stroke="#262E63" stroke-miterlimit="10" stroke-linecap="round" stroke-linejoin="round"/>
<path d="M97.4668 46.1502L99.3279 58.6199C99.3279 58.6199 103.236 57.5032 104.539 56.5726L102.073 46.9877C102.027 46.9412 100.398 46.1968 97.4668 46.1502Z" fill="#E1B17F" stroke="#262E63" stroke-width="0.5" stroke-miterlimit="10"/>
</g>
<g clip-path="url(#clip2_580_2398)">
<path d="M70.8829 95.56C85.634 92.1681 94.8424 77.4603 91.4506 62.7092C88.0587 47.9581 73.3509 38.7497 58.5998 42.1415C43.8487 45.5334 34.6403 60.2412 38.0322 74.9923C41.424 89.7434 56.1318 98.9518 70.8829 95.56Z" fill="#7DA7BB"/>
<path d="M64.7315 96.2132C73.3393 96.2132 81.0165 92.2583 85.995 86.07L75.1539 77.6018L67.244 75.3684V75.0427L65.2898 75.1823L63.3356 75.0427V75.3684L55.4258 75.9733L43.0957 85.6047C48.0743 92.0722 55.8911 96.2132 64.7315 96.2132Z" fill="#F8F9FE" stroke="#262E63" stroke-width="0.5" stroke-miterlimit="10"/>
<path d="M57.4745 74.3448C57.4745 74.3448 55.3807 74.8101 54.6828 74.8101C53.9849 74.8101 51.4258 86.2096 51.4258 86.2096L60.2662 83.4179L63.9885 87.1401L67.0128 83.6505L75.8533 87.6054C75.8533 87.6054 75.1553 76.9039 75.1553 75.508C75.1553 74.1122 67.0128 72.251 67.0128 72.251L57.4745 74.3448Z" fill="#FFDB5E" stroke="#262E63" stroke-width="0.5" stroke-miterlimit="10"/>
<path d="M56.3086 69.692L57.2392 77.8344L63.5205 84.1158L70.7324 76.9039L71.1977 67.5982L56.3086 69.692Z" fill="#F8F9FE" stroke="#262E63" stroke-miterlimit="10"/>
<path d="M70.8722 73.9726L71.1979 67.5982L70.3604 67.6912L61.0547 74.3913L70.8722 73.9726Z" fill="#262E63" stroke="#262E63" stroke-miterlimit="10"/>
<path d="M66.1271 46.0089C66.1271 46.0089 73.1064 47.777 73.5716 50.9409C74.0369 54.1049 73.6647 60.6189 73.6647 60.6189C73.6647 60.6189 75.1536 57.7806 76.0842 60.3862C77.0148 62.9918 75.2932 64.7134 74.6883 64.8995C74.0835 65.0856 73.2925 65.0856 73.2925 65.0856C73.2925 65.0856 71.3848 69.5058 70.3146 70.3433C69.2445 71.1809 65.3361 74.624 63.7541 75.1358C62.1722 75.6011 59.4735 75.7872 58.729 74.9962C57.9381 74.2052 54.7741 68.5753 54.6811 67.4586C54.588 66.2954 53.8901 55.873 53.9831 54.5236C54.0762 53.1743 53.4248 50.6153 56.3096 48.0097C59.2409 45.3575 66.1271 46.0089 66.1271 46.0089Z" fill="#F8F9FE" stroke="#262E63" stroke-width="0.5" stroke-miterlimit="10"/>
<path d="M56.3555 47.9631C59.2402 45.3575 66.1265 46.0089 66.1265 46.0089C66.1265 46.0089 73.1057 47.777 73.571 50.9409C74.0363 54.1049 73.6641 60.6189 73.6641 60.6189C73.6641 60.6189 72.9196 62.0147 72.1286 61.596C71.3377 61.1772 72.6405 57.7341 72.6405 57.7341C72.6405 57.7341 72.1752 56.7105 71.8029 55.5007C71.4307 54.291 71.6168 52.8021 72.0821 51.3597C72.5474 49.9173 69.0112 46.9395 67.1036 47.1256C65.1959 47.3117 62.7299 48.7541 61.0549 48.4749C59.3798 48.1958 59.1006 47.2187 59.1006 47.2187C59.1006 47.2187 58.6819 47.0791 57.0999 47.5909C56.9138 47.6374 56.6346 47.8235 56.3555 47.9631Z" fill="#262E63" stroke="#262E63" stroke-miterlimit="10"/>
<path d="M62.2638 57.1758L70.5459 57.9668C70.5459 57.9668 70.7786 60.8981 70.3598 61.6425C69.8945 62.387 69.1966 63.1314 67.0097 63.3175C64.8694 63.5037 62.5895 62.8057 62.3104 61.8286C62.0777 60.8515 62.2638 57.1758 62.2638 57.1758Z" stroke="#262E63" stroke-width="0.5" stroke-miterlimit="10" stroke-linecap="round"/>
<path d="M59.938 57.1292H51.6559C51.6559 57.1292 51.1441 60.014 51.4698 60.805C51.842 61.596 52.4934 62.387 54.6337 62.7592C56.774 63.1314 59.1004 62.6661 59.4261 61.7356C59.7984 60.805 59.938 57.1292 59.938 57.1292Z" stroke="#262E63" stroke-width="0.5" stroke-miterlimit="10" stroke-linecap="round"/>
<path d="M62.2639 57.1758C62.2639 57.1758 60.9146 56.5709 59.9375 57.1292" stroke="#262E63" stroke-width="0.5" stroke-miterlimit="10" stroke-linecap="round"/>
<path d="M62.1705 58.432C62.1705 58.432 60.8212 57.4549 59.8906 58.2925" stroke="#262E63" stroke-width="0.5" stroke-miterlimit="10" stroke-linecap="round"/>
<path d="M70.5469 57.9668L73.8504 60.4793" stroke="#262E63" stroke-miterlimit="10" stroke-linecap="round"/>
<path d="M51.6562 57.1292L54.0292 58.0598" stroke="#262E63" stroke-miterlimit="10" stroke-linecap="round"/>
<path d="M64.3582 61.1307C64.4512 61.4099 64.7304 61.596 65.0561 61.5029C65.3353 61.4099 65.5214 61.1307 65.4283 60.805C65.3353 60.5258 65.0561 60.3397 64.7304 60.4328C64.4512 60.5258 64.2651 60.8515 64.3582 61.1307Z" fill="#262E63"/>
<path d="M55.8896 60.805C55.9827 61.0842 56.2619 61.2703 56.5876 61.1772C56.8667 61.0842 57.0529 60.805 56.9598 60.4793C56.8667 60.2001 56.5876 60.014 56.2619 60.1071C55.9362 60.2001 55.7966 60.4793 55.8896 60.805Z" fill="#262E63"/>
<path d="M63.9863 55.175C63.9863 55.175 66.3593 53.5931 67.9878 56.0591" stroke="#262E63" stroke-miterlimit="10" stroke-linecap="round"/>
<path d="M58.7272 55.966C58.7272 55.966 57.7036 54.5236 55.1445 56.1521" stroke="#262E63" stroke-miterlimit="10" stroke-linecap="round"/>
<path d="M59.9852 60.3397C59.9852 60.3397 59.706 62.3404 59.1477 62.8523C58.5894 63.3175 57.147 64.3412 58.1241 64.6669C59.1477 65.0391 61.1484 65.3648 61.9394 65.1322C62.7304 64.8995 62.7769 64.2016 62.7769 64.2016" stroke="#262E63" stroke-width="0.5" stroke-miterlimit="10"/>
<path d="M60.0312 67.7377C60.0312 67.7377 61.9389 68.2961 64.0327 67.4586C66.1265 66.6211 66.2196 65.5044 66.2196 65.5044" stroke="#262E63" stroke-width="0.5" stroke-miterlimit="10"/>
<path d="M65.6152 65.1787L67.0576 65.8766" stroke="#262E63" stroke-width="0.5" stroke-miterlimit="10"/>
<path d="M70.8829 95.56C85.634 92.1681 94.8424 77.4603 91.4506 62.7092C88.0587 47.9581 73.3509 38.7497 58.5998 42.1415C43.8487 45.5334 34.6403 60.2412 38.0322 74.9923C41.424 89.7434 56.1318 98.9518 70.8829 95.56Z" stroke="#262E63" stroke-miterlimit="10"/>
</g>
<defs>
<clipPath id="clip0_580_2398">
<rect width="56.7648" height="86.4548" fill="white" transform="translate(0 5.71605)"/>
</clipPath>
<clipPath id="clip1_580_2398">
<rect width="55.8342" height="92.1708" fill="white" transform="translate(64.3848)"/>
</clipPath>
<clipPath id="clip2_580_2398">
<rect width="56.381" height="86.5798" fill="white" transform="translate(36.5723 36.2699)"/>
</clipPath>
</defs>
</svg>
