<svg width="61" height="81" viewBox="0 0 61 81" fill="none" xmlns="http://www.w3.org/2000/svg">
<path d="M52.931 63.0941C52.7298 63.396 52.3273 63.4966 51.9248 63.4966H36.4279C35.9248 63.4966 35.6229 63.2954 35.4216 63.0941C35.321 62.8928 35.2203 62.6916 35.321 62.3897L36.6292 57.8614L36.7298 57.4589V57.2576L37.1323 55.9494H51.2204L51.6229 57.5595L52.4279 60.4777C52.4279 60.4777 52.4279 60.4777 52.4279 60.5784L52.931 62.3897C53.1323 62.6916 53.0317 62.8928 52.931 63.0941Z" fill="#FFDB5E"/>
<path d="M58.3635 1.40857C59.1685 1.40857 59.8729 2.11297 59.8729 2.918V79.8991H0.703125V2.918C0.703125 2.01234 1.40753 1.40857 2.21256 1.40857H58.3635ZM35.9233 57.8614L34.7157 62.2891C34.6151 62.7922 34.7157 63.1947 34.917 63.5972C35.2189 63.9998 35.8226 64.3016 36.527 64.3016H51.9233C52.6277 64.3016 53.2314 64.1004 53.5333 63.5972C53.8352 63.1947 53.9358 62.7922 53.7346 62.2891L53.2314 60.4777L52.527 57.962H53.0302C53.2314 57.962 53.4327 57.7608 53.4327 57.6601V54.3394C53.4327 54.1381 53.2314 54.0375 53.0302 54.0375H35.3195C35.1182 54.0375 35.0176 54.2388 35.0176 54.3394V57.6601C35.0176 57.8614 35.2188 57.962 35.3195 57.962H35.9233V57.8614ZM8.85407 71.5469C8.9547 71.6476 9.05533 71.6476 9.15596 71.6476H28.0742C28.1748 71.6476 28.2755 71.6476 28.3761 71.5469C28.4767 71.4463 28.4767 71.3457 28.4767 71.245L28.3761 70.8425L26.5648 58.0627H28.2755C28.4767 58.0627 28.678 57.8614 28.678 57.6601V53.8362C28.678 53.635 28.4767 53.4337 28.2755 53.4337H8.65281C8.45155 53.4337 8.2503 53.635 8.2503 53.8362V57.6601C8.2503 57.8614 8.45155 58.0627 8.65281 58.0627H10.5648L8.75344 71.245C8.75344 71.3457 8.75344 71.4463 8.85407 71.5469ZM6.5396 49.006H6.64023H54.6402H54.7409C54.7409 49.006 54.7409 49.006 54.8415 49.006C54.8415 49.006 54.8415 49.0061 54.9421 48.9054V4.82995C54.9421 4.62869 54.7409 4.52807 54.6402 4.52807H6.64023C6.43897 4.52807 6.23772 4.72932 6.23772 4.82995V48.7042V48.8048C6.23772 48.8048 6.23772 48.8048 6.23772 48.9054C6.23772 48.9054 6.23772 49.006 6.33835 49.006C6.33835 48.9054 6.43897 49.006 6.5396 49.006Z" fill="#7DA7BB"/>
<path d="M18.5165 63.6979C17.309 63.6979 16.4033 64.201 16.4033 64.9054C16.4033 65.6098 17.309 66.113 18.5165 66.113C19.7241 66.113 20.6297 65.6098 20.6297 64.9054C20.6297 64.201 19.7241 63.6979 18.5165 63.6979ZM25.3593 68.9306H11.875L13.0825 60.2765C13.9882 61.1821 16.3027 61.5847 18.7178 61.5847C20.9316 61.5847 23.2461 61.1821 24.1517 60.3771L25.3593 68.9306Z" fill="#63C57B"/>
<path d="M8.35301 46.4903L14.0889 37.1318L14.1895 37.0312L14.2901 37.1318C14.3907 37.2325 14.3907 37.3331 14.4914 37.3331C14.592 37.4337 14.6926 37.5344 14.7933 37.635C14.7933 37.635 14.7933 37.635 14.8939 37.635L14.9945 37.7356C15.0952 37.8362 15.1958 37.8362 15.1958 37.9369C15.2964 38.0375 15.4977 38.1381 15.5983 38.1381C15.6989 38.1381 15.6989 38.1381 15.7996 38.2388C15.9002 38.2388 16.0008 38.3394 16.1014 38.3394H16.2021C16.3027 38.3394 16.4033 38.44 16.6046 38.44C16.8058 38.44 17.0071 38.5406 17.2084 38.5406H43.2713C43.4725 38.5406 43.6738 38.5406 43.875 38.5406C43.9757 38.5406 44.0763 38.5406 44.0763 38.44C44.1769 38.44 44.2775 38.44 44.3782 38.3394C44.5794 38.3394 44.6801 38.2388 44.8813 38.1381C45.0826 38.0375 45.1832 37.9369 45.3845 37.8362C45.4851 37.7356 45.5857 37.635 45.787 37.5344C45.8876 37.4337 46.0889 37.3331 46.1895 37.1318C46.2901 37.0312 46.3907 36.83 46.4914 36.7293C46.4914 36.6287 46.592 36.6287 46.592 36.5281C46.592 36.4274 46.6926 36.3268 46.6926 36.3268L54.0385 48.201H7.24609L8.35301 46.4903Z" fill="#FFDB5E"/>
<path d="M23.8492 58.3645C21.6354 56.9557 15.1952 57.0564 13.2832 58.4652L13.6857 55.6476H23.4467L23.8492 58.3645Z" fill="#63C57B"/>
<path d="M13.6855 36.0249C13.6855 36.1255 13.7861 36.1256 13.7861 36.2262V36.3268L6.94336 47.4966V5.23247H54.239V47.4966L46.893 35.6224V35.5218V35.4211C46.893 35.3205 46.893 35.1193 46.893 35.0186V13.2828C46.893 11.1696 45.1823 9.45888 43.0691 9.45888H17.4088C15.2956 9.45888 13.5849 11.1696 13.5849 13.2828V34.918C13.5849 35.2199 13.5849 35.6224 13.6855 36.0249Z" fill="#E1B17F"/>
<path d="M26.3635 13.9872H43.1685C43.3697 13.9872 43.4704 13.7859 43.4704 13.5847C43.4704 13.3834 43.2691 13.1822 43.1685 13.1822H26.3635C26.1622 13.1822 25.9609 13.3834 25.9609 13.5847C25.9609 13.7859 26.1622 13.9872 26.3635 13.9872Z" fill="#262E63"/>
<path d="M26.3635 34.7167H43.1685C43.3697 34.7167 43.4704 34.6161 43.4704 34.4149C43.4704 34.2136 43.2691 34.113 43.1685 34.113H26.3635C26.1622 34.113 25.9609 34.2136 25.9609 34.4149C25.9609 34.6161 26.1622 34.7167 26.3635 34.7167Z" fill="#262E63"/>
<path d="M26.3635 17.4086H43.1685C43.3697 17.4086 43.4704 17.2073 43.4704 17.006C43.4704 16.8048 43.2691 16.6035 43.1685 16.6035H26.3635C26.1622 16.6035 25.9609 16.7042 25.9609 17.006C25.9609 17.3079 26.1622 17.4086 26.3635 17.4086Z" fill="#262E63"/>
<path d="M26.3635 20.8299H43.1685C43.3697 20.8299 43.4704 20.7293 43.4704 20.5281C43.4704 20.3268 43.2691 20.2262 43.1685 20.2262H26.3635C26.1622 20.2262 25.9609 20.3268 25.9609 20.5281C25.9609 20.7293 26.1622 20.8299 26.3635 20.8299Z" fill="#262E63"/>
<path d="M26.3635 24.352H43.1685C43.3697 24.352 43.4704 24.2513 43.4704 23.9494C43.4704 23.7482 43.2691 23.6476 43.1685 23.6476H26.3635C26.1622 23.6476 25.9609 23.8488 25.9609 23.9494C25.9609 24.1507 26.1622 24.352 26.3635 24.352Z" fill="#262E63"/>
<path d="M26.3635 27.7734H43.1685C43.3697 27.7734 43.4704 27.5721 43.4704 27.3708C43.4704 27.1696 43.2691 26.9683 43.1685 26.9683H26.3635C26.1622 26.9683 25.9609 27.1696 25.9609 27.3708C25.9609 27.5721 26.1622 27.7734 26.3635 27.7734Z" fill="#262E63"/>
<path d="M26.3635 31.2954H43.1685C43.3697 31.2954 43.4704 31.0941 43.4704 30.8928C43.4704 30.6916 43.2691 30.4903 43.1685 30.4903H26.3635C26.1622 30.4903 25.9609 30.591 25.9609 30.8928C25.9609 31.0941 26.1622 31.2954 26.3635 31.2954Z" fill="#262E63"/>
<path d="M53.234 60.3771L52.5295 57.7608H53.0327C53.234 57.7608 53.4352 57.5595 53.4352 57.4589V54.1381C53.4352 53.9369 53.234 53.8362 53.0327 53.8362H35.322C35.1207 53.8362 35.0201 54.0375 35.0201 54.1381V57.4589C35.0201 57.6601 35.2214 57.7608 35.322 57.7608H35.8251L34.6176 62.1884C34.517 62.6916 34.6176 63.0941 34.8189 63.4966C35.1207 63.8991 35.7245 64.201 36.4289 64.201H51.8251C52.5295 64.201 53.1333 63.9998 53.4352 63.4966C53.7371 63.0941 53.8377 62.6916 53.6365 62.1884L53.234 60.3771ZM35.7245 57.0564V54.44H52.6302V57.0564H52.2277L51.8251 55.5469C51.8251 55.3457 51.6239 55.245 51.5233 55.245H36.8314C36.6302 55.245 36.5296 55.3457 36.5296 55.5469L36.4289 55.7482L36.2277 56.7545L36.0264 57.0564H35.7245ZM52.9321 63.0941C52.7308 63.396 52.3283 63.4966 51.9258 63.4966H36.4289C35.9258 63.4966 35.6239 63.2954 35.4226 63.0941C35.322 62.8928 35.2214 62.6916 35.322 62.3897L36.6302 57.8614L36.7308 57.4589V57.2576L37.1333 55.9495H51.2214L51.6239 57.5595L52.4289 60.4778C52.4289 60.4778 52.4289 60.4778 52.4289 60.5784L52.9321 62.3897C53.1333 62.6916 53.0327 62.8928 52.9321 63.0941Z" fill="#262E63"/>
<path d="M22.3392 26.0627V33.2073L21.4335 31.6979C21.3329 31.4966 21.1317 31.4966 20.9304 31.5972C20.7291 31.6979 20.7291 31.8991 20.8298 32.1004L22.4398 34.7167H22.5405C22.5405 34.7167 22.5405 34.7167 22.6411 34.7167H22.7417C22.7417 34.7167 22.7417 34.7167 22.7417 34.6161L24.3518 31.9998C24.4524 31.7985 24.4524 31.5972 24.2512 31.4966C24.0499 31.396 23.8486 31.396 23.748 31.5972L22.8423 33.1067V25.962C22.8423 25.7608 22.6411 25.6601 22.4398 25.6601C22.2386 25.6601 22.3392 25.8614 22.3392 26.0627Z" fill="#262E63"/>
<path d="M18.4153 21.635C18.6165 21.7356 18.9184 21.8362 19.2203 21.9369C19.5222 22.0375 19.8241 22.0375 20.2266 22.0375V22.44C20.2266 22.5406 20.2266 22.5406 20.3272 22.6413C20.3272 22.6413 20.4278 22.7419 20.5285 22.7419C20.6291 22.7419 20.6291 22.7419 20.7297 22.6413C20.8303 22.6413 20.8303 22.5406 20.8303 22.44V21.9369C21.4341 21.8362 21.9373 21.635 22.3398 21.2325C22.7423 20.83 22.9436 20.3268 22.9436 19.6224C22.9436 19.2199 22.8429 18.8174 22.7423 18.6161C22.6417 18.3142 22.4404 18.113 22.2392 17.9117C22.0379 17.7105 21.8366 17.6098 21.5348 17.4086C21.3335 17.3079 21.0316 17.2073 20.8303 17.1067V14.0878C21.0316 14.0878 21.2329 14.0878 21.4341 14.1884C21.6354 14.2891 21.736 14.2891 21.8366 14.2891C21.9373 14.3897 22.0379 14.3897 22.1385 14.3897C22.2392 14.3897 22.2392 14.4903 22.3398 14.4903C22.4404 14.4903 22.541 14.3897 22.541 14.2891C22.6417 14.1884 22.6417 14.0878 22.6417 13.9872C22.6417 13.8866 22.6417 13.7859 22.4404 13.6853C22.3398 13.5847 22.2392 13.484 22.0379 13.484C21.8366 13.3834 21.6354 13.3834 21.4341 13.2828C21.2329 13.2828 21.0316 13.1822 20.8303 13.1822V12.7796C20.8303 12.679 20.8303 12.679 20.7297 12.5784C20.6291 12.4778 20.6291 12.4778 20.5285 12.4778C20.4278 12.4778 20.4278 12.4778 20.3272 12.5784C20.2266 12.5784 20.2266 12.679 20.2266 12.7796V13.1822C19.9247 13.1822 19.7234 13.1822 19.4215 13.2828C19.1197 13.3834 18.9184 13.484 18.7171 13.6853C18.5159 13.8866 18.3146 14.0878 18.214 14.2891C18.1134 14.591 18.0127 14.8928 18.0127 15.2954C18.0127 15.6979 18.1134 15.9998 18.214 16.201C18.3146 16.5029 18.5159 16.7042 18.7171 16.8048C18.9184 17.0061 19.1197 17.1067 19.4215 17.2073C19.7234 17.3079 19.9247 17.4086 20.2266 17.5092V20.9306C19.8241 20.9306 19.5222 20.83 19.3209 20.83C19.1197 20.7293 18.9184 20.6287 18.7171 20.5281C18.6165 20.4274 18.5159 20.3268 18.4153 20.2262C18.3146 20.1256 18.214 20.1256 18.214 20.1256C18.1134 20.1256 18.0127 20.1256 18.0127 20.2262C17.9121 20.3268 17.9121 20.4274 17.9121 20.5281C17.9121 20.6287 17.9121 20.7293 18.1134 20.9306C18.1134 21.3331 18.214 21.4337 18.4153 21.635ZM20.7297 18.113C20.931 18.2136 21.0316 18.2136 21.2329 18.3142C21.4341 18.4149 21.5348 18.5155 21.6354 18.6161C21.736 18.7167 21.8366 18.918 21.9373 19.1193C22.0379 19.3205 22.0379 19.5218 22.0379 19.8237C22.0379 20.2262 21.9373 20.6287 21.736 20.83C21.5348 21.1318 21.2329 21.2325 20.7297 21.3331V18.113ZM19.7234 16.8048C19.5222 16.7042 19.4215 16.6035 19.2203 16.5029C19.1197 16.4023 19.019 16.201 18.9184 16.1004C18.8178 15.8991 18.8178 15.6979 18.8178 15.4966C18.8178 15.2954 18.8178 15.0941 18.9184 14.8928C19.019 14.6916 19.1197 14.591 19.2203 14.4903C19.3209 14.3897 19.5222 14.2891 19.7234 14.2891C19.9247 14.1884 20.1259 14.1884 20.2266 14.1884V17.0061C20.0253 17.0061 19.9247 16.9054 19.7234 16.8048Z" fill="#262E63"/>
<path d="M16.9053 28.9809C17.0059 28.9809 17.1066 28.8803 17.2072 28.7796L18.1129 27.2702V34.4148C18.1129 34.6161 18.2135 34.7167 18.5154 34.7167C18.7166 34.7167 18.8173 34.5155 18.8173 34.4148V27.2702L19.7229 28.7796C19.8236 28.8803 19.9242 28.9809 20.0248 28.9809C20.1254 28.9809 20.1254 28.9809 20.2261 28.9809C20.4273 28.8803 20.4273 28.679 20.3267 28.4777L18.8173 25.8614C18.8173 25.8614 18.8173 25.8614 18.7166 25.8614H18.616H18.5154L16.9053 28.4777C16.8047 28.679 16.9053 28.8803 17.0059 28.9809C16.7041 28.9809 16.8047 28.9809 16.9053 28.9809Z" fill="#262E63"/>
<path d="M18.5166 66.113C19.7242 66.113 20.6298 65.6098 20.6298 64.9054C20.6298 64.201 19.7242 63.6979 18.5166 63.6979C17.3091 63.6979 16.4034 64.201 16.4034 64.9054C16.3028 65.6098 17.3091 66.113 18.5166 66.113ZM18.5166 64.4023C19.4223 64.4023 19.9254 64.7042 19.9254 64.9054C19.9254 65.1067 19.4223 65.4086 18.5166 65.4086C17.611 65.4086 17.1078 65.1067 17.1078 64.9054C17.1078 64.7042 17.611 64.4023 18.5166 64.4023Z" fill="#262E63"/>
<path d="M28.2771 53.5343H8.65447C8.45321 53.5343 8.25195 53.7356 8.25195 53.9369V57.7608C8.25195 57.962 8.45321 58.1633 8.65447 58.1633H10.5664L8.7551 71.245C8.7551 71.3457 8.7551 71.4463 8.85573 71.5469C8.95636 71.6476 9.05699 71.6476 9.15761 71.6476H28.0759C28.1765 71.6476 28.2771 71.6476 28.3777 71.5469C28.4784 71.4463 28.4784 71.3457 28.4784 71.245L28.3777 70.8425L26.5664 58.0626H28.2771C28.4784 58.0626 28.6796 57.8614 28.6796 57.6601V53.8362C28.6796 53.635 28.4784 53.5343 28.2771 53.5343ZM9.56013 70.9432L11.3715 57.7608V57.4589L11.5727 55.6476H12.8809L11.0696 69.2325C11.0696 69.3331 11.0696 69.4337 11.1702 69.5343C11.2708 69.635 11.3714 69.635 11.4721 69.635H25.7614C25.862 69.635 25.9626 69.635 26.0633 69.5343C26.1639 69.4337 26.1639 69.3331 26.1639 69.2325L24.1513 55.6476H25.4595L25.7614 57.6601L27.5727 70.8425H9.56013V70.9432ZM23.4469 55.6476L23.8494 58.3645C21.6356 56.9557 15.1953 57.0564 13.2834 58.4652L13.6859 55.6476H23.4469ZM13.0821 60.2765C13.9878 61.1821 16.3023 61.5847 18.7174 61.5847C20.9312 61.5847 23.2457 61.1821 24.1513 60.3771L25.3589 68.8299H11.8746L13.0821 60.2765ZM23.9501 59.4715C23.9501 60.0752 21.9375 60.8803 18.6167 60.8803C15.3966 60.8803 13.384 59.9746 13.384 59.4715C13.384 58.8677 15.3966 58.0626 18.6167 58.0626C21.9375 58.0626 23.9501 58.9683 23.9501 59.4715ZM27.9752 57.3582H26.4658L26.2645 55.5469V55.245C26.2645 55.0438 26.0633 54.9432 25.862 54.9432H11.3715C11.1702 54.9432 11.0696 55.0438 11.0696 55.245L10.7677 57.3582H9.05698V54.2388H27.9752V57.3582Z" fill="#262E63"/>
<path d="M54.6408 4.42743H6.6408C6.43954 4.42743 6.23828 4.62869 6.23828 4.72932V48.6035V48.7042C6.23828 48.7042 6.23828 48.7042 6.23828 48.8048C6.23828 48.8048 6.23828 48.9054 6.33891 48.9054C6.33891 48.9054 6.33891 48.9054 6.43954 48.9054H6.54017H54.5402H54.6408C54.6408 48.9054 54.6408 48.9054 54.7414 48.9054C54.7414 48.9054 54.7414 48.9054 54.8421 48.8048V4.82994C55.0433 4.62869 54.8421 4.42743 54.6408 4.42743ZM6.94268 5.13183H54.2383V47.396L46.8924 35.5218V35.4211V35.3205C46.8924 35.2199 46.8924 35.0186 46.8924 34.918V13.2828C46.8924 11.1696 45.1817 9.45888 43.0685 9.45888H17.4081C15.2949 9.45888 13.5842 11.1696 13.5842 13.2828V34.918C13.5842 35.3205 13.6848 35.6224 13.7855 36.0249C13.7855 36.1255 13.8861 36.1255 13.8861 36.2262V36.3268L6.94268 47.4966V5.13183ZM14.5905 36.2262C14.3892 35.8237 14.2886 35.3205 14.2886 34.918V13.2828C14.2886 11.5721 15.6974 10.1633 17.4081 10.1633H43.2697C44.9804 10.1633 46.3892 11.5721 46.3892 13.2828V34.918C46.3892 35.1193 46.3892 35.3205 46.2886 35.6224C45.9867 37.0312 44.6785 38.0375 43.2697 38.0375H17.4081C16.2005 38.0375 15.0936 37.3331 14.5905 36.2262ZM7.24457 48.3016L8.35149 46.4903L14.0873 37.1318L14.188 37.0312L14.2886 37.1318C14.3892 37.2325 14.3892 37.3331 14.4899 37.3331C14.5905 37.4337 14.6911 37.5343 14.7917 37.635C14.7917 37.635 14.7917 37.635 14.8924 37.635L14.993 37.7356C15.0936 37.8362 15.1943 37.8362 15.1943 37.9369C15.2949 38.0375 15.4961 38.1381 15.5968 38.1381C15.6974 38.1381 15.6974 38.1381 15.798 38.2388C15.8987 38.2388 15.9993 38.3394 16.0999 38.3394H16.2005C16.3012 38.3394 16.4018 38.44 16.6031 38.44C16.8043 38.44 17.0056 38.5406 17.2068 38.5406H43.2697C43.471 38.5406 43.6722 38.5406 43.8735 38.5406C43.9741 38.5406 44.0748 38.5406 44.0748 38.44C44.1754 38.44 44.276 38.44 44.3766 38.3394C44.5779 38.3394 44.6785 38.2388 44.8798 38.1381C45.081 38.0375 45.1817 37.9369 45.3829 37.8362C45.4836 37.7356 45.5842 37.635 45.7855 37.5343C45.8861 37.4337 46.0873 37.3331 46.188 37.1318C46.2886 37.0312 46.3892 36.8299 46.4899 36.7293C46.4899 36.6287 46.5905 36.6287 46.5905 36.5281C46.5905 36.4274 46.6911 36.3268 46.6911 36.3268L54.037 48.201H7.24457V48.3016Z" fill="#262E63"/>
<path d="M60.5786 80.3016V2.918C60.5786 1.71045 59.5723 0.704163 58.3648 0.704163H2.21384C1.00629 0.704163 0 1.71045 0 2.918V80.3016C0 80.5029 0.201258 80.7042 0.301887 80.7042H60.1761C60.3774 80.7042 60.5786 80.5029 60.5786 80.3016ZM59.8742 79.9998H0.704403V2.918C0.704403 2.01234 1.40881 1.40857 2.21384 1.40857H58.3648C59.1698 1.40857 59.8742 2.11297 59.8742 2.918V79.9998Z" fill="#262E63"/>
</svg>
