<svg width="79" height="80" viewBox="0 0 79 80" fill="none" xmlns="http://www.w3.org/2000/svg">
<path d="M77.7321 79.0137H0.691406V76.153H2.2697H76.0552H77.7321V79.0137Z" fill="#E1B17F"/>
<path d="M75.3634 75.4625H2.95898V72.6018H4.34H74.0811H75.3634V75.4625Z" fill="#FFDB5E"/>
<path d="M72.8971 20.8139V24.5624H70.431H7.89089H5.52344V20.8139L39.1609 0.493317L72.8971 20.8139ZM14.5 20.3207H63.8218L39.3582 5.52414L39.1609 5.4255L14.5 20.3207Z" fill="#E1B17F"/>
<path d="M69.8397 25.2529V29.0013H67.275H53.4649H46.0666H32.3551H24.8582H11.0481H8.58203V25.2529H69.8397Z" fill="#FFDB5E"/>
<path d="M54.2539 29.6918H66.5844V31.4674H65.8939H54.9444H54.2539V29.6918Z" fill="#7DA7BB"/>
<path d="M66.5844 68.3601H54.2539V66.5846H54.9444H65.8939H66.5844V68.3601Z" fill="#7DA7BB"/>
<path d="M33.7374 31.4674H33.0469V29.6918H45.3773V31.4674H44.6868H33.7374Z" fill="#7DA7BB"/>
<path d="M45.3773 68.3601H33.0469V66.5846H33.7374H44.6868H45.3773V68.3601Z" fill="#7DA7BB"/>
<path d="M73.3913 71.9113H5.03125V69.0507H11.0485H24.8586H32.3555H46.067H53.4653H67.2754H73.3913V71.9113Z" fill="#E1B17F"/>
<path d="M11.7383 29.6918H24.1674V31.4674H23.4769H12.5274H11.7383V29.6918Z" fill="#7DA7BB"/>
<path d="M12.5274 66.5846H23.4769H24.1674V68.3601H11.7383V66.5846H12.5274Z" fill="#7DA7BB"/>
<path d="M39.1609 5.42549L14.5 20.3207H63.8218L39.3582 5.52413L39.1609 5.42549ZM61.3557 19.6302H39.3582H16.9661L39.1609 6.31328L42.0216 7.99023L61.3557 19.6302Z" fill="#262E63"/>
<path d="M39.0637 8.87801V9.27259C38.7678 9.27259 38.5705 9.27259 38.2746 9.37123C37.9786 9.46987 37.7814 9.56852 37.5841 9.7658C37.3868 9.96309 37.1895 10.1604 37.0909 10.3577C36.9922 10.6536 36.8936 10.9495 36.8936 11.3441C36.8936 11.7387 36.9922 12.0346 37.0909 12.2319C37.1895 12.5278 37.3868 12.7251 37.5841 12.8238C37.7814 13.021 37.9786 13.1197 38.2746 13.2183C38.5705 13.317 38.7678 13.4156 39.0637 13.5143V16.8681C38.6692 16.8681 38.3732 16.8681 38.1759 16.7695C37.9786 16.6709 37.7814 16.5722 37.5841 16.4736C37.4854 16.3749 37.3868 16.2763 37.2881 16.1776C37.1895 16.079 37.0909 16.079 37.0909 16.079C36.9922 16.079 36.8936 16.079 36.8936 16.1776C36.7949 16.2763 36.7949 16.3749 36.7949 16.4736C36.7949 16.5722 36.7949 16.6709 36.9922 16.8681C37.0909 16.9668 37.2881 17.1641 37.4854 17.2627C37.6827 17.3614 37.9786 17.46 38.2746 17.6573C38.5705 17.7559 38.8664 17.7559 39.261 17.7559V18.1505C39.261 18.2492 39.261 18.2492 39.3597 18.3478C39.3597 18.3478 39.4583 18.4464 39.5569 18.4464C39.6556 18.4464 39.6556 18.4464 39.7542 18.3478C39.8529 18.3478 39.8529 18.2492 39.8529 18.1505V17.6573C40.4447 17.5587 40.938 17.3614 41.3325 16.9668C41.7271 16.5722 41.9244 16.079 41.9244 15.3885C41.9244 14.9939 41.8257 14.5993 41.7271 14.4021C41.6285 14.1061 41.4312 13.9088 41.2339 13.7116C41.0366 13.5143 40.8393 13.4156 40.5434 13.2183C40.3461 13.1197 40.0502 13.021 39.8529 12.9224V9.96309C40.0502 9.96309 40.2475 9.96309 40.4447 10.0617C40.642 10.1604 40.7407 10.1604 40.8393 10.1604C40.938 10.259 41.0366 10.259 41.1352 10.259C41.2339 10.259 41.2339 10.3577 41.3325 10.3577C41.4312 10.3577 41.5298 10.259 41.6285 10.1604C41.7271 10.0617 41.7271 9.96309 41.7271 9.86445C41.7271 9.76581 41.6285 9.66716 41.5298 9.56852C41.5298 9.56852 41.4312 9.46987 41.3325 9.46987C41.2339 9.46987 41.1352 9.37123 41.1352 9.37123C40.938 9.27259 40.7407 9.27259 40.5434 9.17394C40.3461 9.17394 40.1488 9.0753 39.8529 9.0753V8.87801C39.8529 8.77937 39.8529 8.77937 39.7542 8.68073C39.4583 8.68073 39.4583 8.68073 39.3597 8.68073C39.261 8.68073 39.1624 8.68072 39.1624 8.77937C39.1624 8.87801 39.0637 8.77937 39.0637 8.87801ZM39.1624 12.7251C38.9651 12.6265 38.7678 12.6265 38.5705 12.5278C38.3732 12.4292 38.2746 12.3305 38.0773 12.2319C37.9786 12.1333 37.88 11.936 37.7814 11.8373C37.6827 11.64 37.6827 11.4427 37.6827 11.2455C37.6827 11.0482 37.6827 10.8509 37.7814 10.6536C37.88 10.4563 37.9786 10.3577 38.0773 10.259C38.1759 10.1604 38.3732 10.0617 38.5705 10.0617C38.7678 9.96309 38.8664 9.96309 39.0637 9.96309V12.7251H39.1624ZM39.6556 13.7116C39.8529 13.8102 39.9515 13.8102 40.1488 13.9088C40.3461 14.0075 40.4447 14.1061 40.5434 14.2048C40.642 14.3034 40.7407 14.5007 40.8393 14.698C40.938 14.8953 40.938 15.0926 40.938 15.3885C40.938 15.7831 40.8393 16.1776 40.642 16.3749C40.4447 16.6709 40.1488 16.7695 39.6556 16.8681V13.7116Z" fill="#262E63"/>
<path d="M78.3231 75.4625H76.0543V71.9113H74.0814V68.3601H67.275V65.8941H65.9926C67.1763 54.7473 67.1763 43.4033 65.9926 32.1579H67.275V29.6918H70.4316V25.2529H73.5882V20.4193L39.1615 -0.295837L4.7349 20.4193V25.2529H7.89149V29.6918H11.0481V32.1579H12.3305C11.1467 43.3047 11.1467 54.6487 12.3305 65.8941H11.0481V68.3601H4.34032V71.9113H2.36745V75.4625H0V79.7042H78.3231V75.4625ZM66.5845 66.5846V68.3601H54.254V66.5846H54.9445H65.894H66.5845ZM23.5758 65.8941C24.7596 54.7473 24.7596 43.4033 23.5758 32.1579H24.8582V29.6918H32.2565V32.1579H33.5388C32.3551 43.3047 32.3551 54.6487 33.5388 65.8941H32.2565V68.3601H24.8582V65.8941H23.5758ZM44.6856 31.4674H33.7361H33.0456V29.6918H45.3761V31.4674H44.6856ZM44.0937 32.1579C45.2774 43.3047 45.2774 54.6487 44.0937 65.8941H34.328C33.1443 54.7473 33.1443 43.4033 34.328 32.1579H44.0937ZM33.0456 66.5846H33.7361H44.6856H45.3761V68.3601H33.0456V66.5846ZM44.7842 65.8941C45.9679 54.7473 45.9679 43.4033 44.7842 32.1579H46.0666V29.6918H53.4649V32.1579H54.7472C53.5635 43.3047 53.5635 54.6487 54.7472 65.8941H53.4649V68.3601H46.0666V65.8941H44.7842ZM65.3021 65.8941H55.5364C54.3526 54.7473 54.3526 43.4033 55.5364 32.1579H65.3021C66.4858 43.3047 66.4858 54.6487 65.3021 65.8941ZM66.5845 31.4674H65.894H54.9445H54.254V29.6918H66.5845V31.4674ZM5.52404 24.5624V20.8139L39.1615 0.493312L72.8977 20.8139V24.5624H70.4316H7.89149H5.52404ZM8.582 29.0013V25.2529H69.7411V29.0013H67.1763H53.4649H46.0666H32.2565H24.8582H11.0481H8.582ZM11.7386 31.4674V29.6918H24.1677V31.4674H23.4772H12.5277H11.7386ZM13.1196 32.1579H22.8853C24.0691 43.3047 24.0691 54.6487 22.8853 65.8941H13.1196C11.9359 54.6487 11.9359 43.3047 13.1196 32.1579ZM11.7386 66.5846H12.4291H23.3785H24.069V68.3601H11.7386V66.5846ZM5.03083 69.0507H11.1467H24.9568H32.3551H46.1652H53.5635H67.275H73.3909V71.9113H5.03083V69.0507ZM2.95931 72.6018H4.24168H73.9827H75.2651V75.4625H2.95931V72.6018ZM77.7312 79.0137H0.690506V76.153H2.2688H76.0543H77.6325V79.0137H77.7312Z" fill="#262E63"/>
</svg>
