<svg width="18" height="18" viewBox="0 0 18 18" fill="none" xmlns="http://www.w3.org/2000/svg">
<path d="M8.4375 9.75C8.4375 10.0607 8.68934 10.3125 9 10.3125C9.31066 10.3125 9.5625 10.0607 9.5625 9.75C9.5625 9.43934 9.31066 9.1875 9 9.1875C8.68934 9.1875 8.4375 9.43934 8.4375 9.75Z" fill="#28303F"/>
<path d="M5.81805 6.56802C6.63239 5.75368 7.75739 5.25 9.00003 5.25C10.2427 5.25 11.3677 5.75368 12.182 6.56802M10.591 8.15901C10.1838 7.75184 9.62135 7.5 9.00003 7.5C8.37871 7.5 7.81621 7.75184 7.40904 8.15901M12.75 15.75C9.92439 14.7565 8.30302 14.7435 5.25 15.75M9 15V12.75M16.5 5.25L16.5 9.75C16.5 11.4069 15.1569 12.75 13.5 12.75L4.5 12.75C2.84315 12.75 1.5 11.4069 1.5 9.75V5.25C1.5 3.59315 2.84315 2.25 4.5 2.25L13.5 2.25C15.1569 2.25 16.5 3.59315 16.5 5.25Z" stroke="#2668EC" stroke-width="1.5" stroke-linecap="round" stroke-linejoin="round"/>
</svg>
