<svg width="18" height="18" viewBox="0 0 18 18" fill="none" xmlns="http://www.w3.org/2000/svg">
<path fill-rule="evenodd" clip-rule="evenodd" d="M16.3125 12.75C16.3125 14.7175 14.7175 16.3125 12.75 16.3125L5.25 16.3125C3.28249 16.3125 1.6875 14.7175 1.6875 12.75L1.6875 9.75C1.6875 7.78249 3.28249 6.1875 5.25 6.1875H5.625C5.93566 6.1875 6.1875 6.43934 6.1875 6.75C6.1875 7.06066 5.93566 7.3125 5.625 7.3125H5.25C3.90381 7.3125 2.8125 8.40381 2.8125 9.75L2.8125 12.75C2.8125 14.0962 3.90381 15.1875 5.25 15.1875L12.75 15.1875C14.0962 15.1875 15.1875 14.0962 15.1875 12.75L15.1875 9.75C15.1875 8.40381 14.0962 7.3125 12.75 7.3125H12.375C12.0643 7.3125 11.8125 7.06066 11.8125 6.75C11.8125 6.43934 12.0643 6.1875 12.375 6.1875H12.75C14.7175 6.1875 16.3125 7.78249 16.3125 9.75V12.75ZM11.6477 9.39775C11.8674 9.17808 11.8674 8.82192 11.6477 8.60225C11.4281 8.38258 11.0719 8.38258 10.8523 8.60225L9.5625 9.892L9.5625 2.25C9.5625 1.93934 9.31066 1.6875 9 1.6875C8.68934 1.6875 8.4375 1.93934 8.4375 2.25L8.4375 9.892L7.14775 8.60225C6.92808 8.38258 6.57192 8.38258 6.35225 8.60225C6.13258 8.82192 6.13258 9.17808 6.35225 9.39775L8.60225 11.6477C8.82192 11.8674 9.17808 11.8674 9.39775 11.6477L11.6477 9.39775Z" fill="#2668EC"/>
</svg>
