<svg width="92" height="93" viewBox="0 0 92 93" fill="none" xmlns="http://www.w3.org/2000/svg">
<g clip-path="url(#clip0_334_3074)">
<path d="M47.4232 87.4002V88.1045C47.4318 88.2958 47.4015 88.4869 47.3343 88.6662C47.267 88.8455 47.1641 89.0093 47.0318 89.1478C46.8994 89.2862 46.7404 89.3964 46.5643 89.4716C46.3882 89.5469 46.1987 89.5857 46.0072 89.5857C45.8157 89.5857 45.6262 89.5469 45.4501 89.4716C45.274 89.3964 45.115 89.2862 44.9827 89.1478C44.8503 89.0093 44.7474 88.8455 44.6802 88.6662C44.6129 88.4869 44.5827 88.2958 44.5913 88.1045V87.4002H47.4232Z" fill="#53BF9F"/>
<path d="M54.3954 82.5558C54.3954 83.6914 53.4754 84.6114 52.3398 84.6114H39.6611C39.1159 84.6114 38.593 84.3948 38.2075 84.0093C37.822 83.6238 37.6054 83.101 37.6054 82.5558C37.6054 82.0106 37.822 81.4877 38.2075 81.1022C38.593 80.7167 39.1159 80.5002 39.6611 80.5002H52.3398C53.4754 80.5002 54.3954 81.4202 54.3954 82.5558ZM57.6298 68.7414C57.6298 69.877 56.7098 70.8114 55.5742 70.8114H36.4267C35.8929 70.7915 35.3877 70.5654 35.0171 70.1807C34.6465 69.7961 34.4395 69.2827 34.4395 68.7486C34.4395 68.2145 34.6465 67.7011 35.0171 67.3164C35.3877 66.9318 35.8929 66.7057 36.4267 66.6858H55.5742C56.7098 66.6858 57.6298 67.6202 57.6298 68.7414Z" fill="#E1B17F"/>
<path d="M56.0202 75.6558C56.0202 76.7914 55.0858 77.7114 53.9645 77.7114H38.037C36.9158 77.7114 35.9814 76.7914 35.9814 75.6558C35.9814 74.5202 36.9158 73.6002 38.037 73.6002H53.9645C55.0858 73.6002 56.0202 74.5202 56.0202 75.6558ZM40.9408 27.0683V29.6702H38.3389C36.9014 29.6702 35.7227 28.5058 35.7227 27.0683C35.7227 25.6308 36.9014 24.452 38.3389 24.452C39.7764 24.452 40.9408 25.6308 40.9408 27.0683ZM56.2789 27.0683C56.2789 28.5058 55.1002 29.6702 53.6627 29.6702H51.0608V27.0683C51.0608 25.6308 52.2252 24.452 53.6627 24.452C55.1002 24.452 56.2789 25.6308 56.2789 27.0683ZM43.7295 32.4589H48.272V63.897H43.7295V32.4589Z" fill="#FFDB5E"/>
<path d="M61.9127 52.3252C59.1383 54.3233 57.0108 56.8389 55.7458 59.5845C55.027 61.1083 54.6245 62.5602 54.5095 63.897H51.0595V32.4589H53.6614C55.0924 32.4589 56.465 31.8914 57.4782 30.8809C58.4915 29.8704 59.0626 28.4993 59.0664 27.0683C59.0664 24.0927 56.637 21.6633 53.6614 21.6633C52.2304 21.6671 50.8593 22.2382 49.8488 23.2514C48.8383 24.2647 48.2708 25.6373 48.2708 27.0683V29.6702H43.7283V27.0683C43.7283 24.0927 41.3133 21.6633 38.3377 21.6633C35.362 21.6633 32.9327 24.0927 32.9327 27.0683C32.9365 28.4993 33.5076 29.8704 34.5208 30.8809C35.534 31.8914 36.9066 32.4589 38.3377 32.4589H40.9395V63.897H37.4895C37.3458 62.4595 36.857 60.8639 35.9945 59.1389C34.7008 56.5227 32.6595 54.2083 29.9714 52.2245C26.5204 49.7006 23.7123 46.3995 21.7743 42.5885C19.8363 38.7775 18.823 34.5637 18.8164 30.2883C18.8164 22.5689 22.1227 15.1802 27.887 10.0195C33.7233 4.8014 41.2702 2.40078 49.1189 3.27765C61.7833 4.6864 72.0902 15.3527 73.0964 28.0745C73.8439 37.6483 69.6608 46.7189 61.9127 52.3252Z" fill="#FFDB5E"/>
<path opacity="0.07" d="M63.538 54.582C61.1661 56.307 59.3405 58.4345 58.2767 60.7489C57.673 62.0283 57.3423 63.1927 57.2705 64.2277C59.0961 64.9177 60.4186 66.6714 60.4186 68.7414C60.4186 70.5383 59.4267 72.0908 57.9605 72.9389C58.4923 73.7152 58.8086 74.6495 58.8086 75.6558C58.8086 77.4527 57.8023 79.0052 56.3505 79.8389C56.8429 80.5676 57.1278 81.4165 57.1746 82.2947C57.2215 83.1729 57.0285 84.0473 56.6164 84.8242C56.2043 85.6012 55.5886 86.2513 54.8353 86.7051C54.0819 87.1589 53.2193 87.3991 52.3398 87.4002H50.2123V88.1045C50.227 88.6659 50.1291 89.2246 49.9244 89.7476C49.7197 90.2706 49.4124 90.7473 49.0205 91.1495C48.6286 91.5518 48.1601 91.8715 47.6426 92.0898C47.1252 92.3081 46.5693 92.4206 46.0077 92.4206C45.446 92.4206 44.8901 92.3081 44.3727 92.0898C43.8552 91.8715 43.3867 91.5518 42.9949 91.1495C42.603 90.7473 42.2956 90.2706 42.0909 89.7476C41.8862 89.2246 41.7883 88.6659 41.803 88.1045V87.4002H39.6611C38.7816 87.3991 37.919 87.1589 37.1657 86.7051C36.4123 86.2513 35.7966 85.6012 35.3845 84.8242C34.9724 84.0473 34.7795 83.1729 34.8263 82.2947C34.8732 81.4165 35.1581 80.5676 35.6505 79.8389C34.1986 79.0052 33.1923 77.4527 33.1923 75.6558C33.1923 74.6495 33.5086 73.7152 34.0405 72.9389C32.5742 72.0908 31.5823 70.5383 31.5823 68.7414C31.5823 66.6858 32.8905 64.932 34.7161 64.2277C34.6155 63.1208 34.213 61.8127 33.5086 60.3895C32.4017 58.1758 30.6623 56.192 28.3192 54.4814C27.543 53.9208 26.8098 53.317 26.1055 52.6845C27.0255 52.2533 27.9455 51.8077 28.8511 51.3477C33.0773 49.2345 37.1023 46.8052 40.9405 44.1027C41.8892 43.427 42.8092 42.7514 43.7292 42.047C45.2817 40.8683 46.7911 39.6464 48.2717 38.367C49.2205 37.5764 50.1405 36.7427 51.0605 35.9089C52.3111 34.7445 53.533 33.5658 54.7261 32.3439C56.214 30.8581 57.6476 29.319 59.0242 27.7295C62.4167 23.877 65.608 19.737 68.6123 15.3095C69.2017 14.4614 69.7623 13.5989 70.323 12.722C73.4423 17.0489 75.4261 22.2383 75.8717 27.8589C76.7055 38.4102 72.0911 48.4008 63.538 54.582Z" fill="#262E63"/>
<path d="M75.8705 27.8589C75.4248 22.2383 73.4411 17.0489 70.3217 12.722C65.5061 6.06641 58.0311 1.46641 49.4205 0.503283C40.7667 -0.459842 32.458 2.18516 26.018 7.94953C22.8764 10.7619 20.3629 14.2049 18.6415 18.054C16.92 21.9031 16.0293 26.0718 16.0273 30.2883C16.0273 38.8702 19.7505 47.0495 26.1042 52.6845C26.8086 53.317 27.5417 53.9208 28.318 54.4814C30.6611 56.192 32.4005 58.1758 33.5073 60.3895C34.2117 61.8127 34.6142 63.1208 34.7148 64.2277C32.8892 64.932 31.5811 66.6858 31.5811 68.7414C31.5811 70.5383 32.573 72.0908 34.0392 72.9389C33.5073 73.7152 33.1911 74.6495 33.1911 75.6558C33.1911 77.4527 34.1973 79.0052 35.6492 79.8389C35.1568 80.5676 34.8719 81.4165 34.8251 82.2947C34.7782 83.1729 34.9712 84.0473 35.3833 84.8242C35.7954 85.6012 36.4111 86.2514 37.1644 86.7051C37.9178 87.1589 38.7804 87.3991 39.6598 87.4002H41.8017V88.1045C41.787 88.6659 41.8849 89.2246 42.0896 89.7476C42.2943 90.2706 42.6017 90.7473 42.9936 91.1495C43.3855 91.5518 43.854 91.8715 44.3714 92.0898C44.8889 92.3081 45.4448 92.4206 46.0064 92.4206C46.568 92.4206 47.1239 92.3081 47.6414 92.0898C48.1588 91.8715 48.6273 91.5518 49.0192 91.1495C49.4111 90.7473 49.7185 90.2706 49.9232 89.7476C50.1279 89.2246 50.2258 88.6659 50.2111 88.1045V87.4002H52.3386C53.218 87.3991 54.0807 87.1589 54.834 86.7051C55.5874 86.2514 56.2031 85.6012 56.6152 84.8242C57.0273 84.0473 57.2202 83.1729 57.1734 82.2947C57.1265 81.4165 56.8416 80.5676 56.3492 79.8389C57.8011 79.0052 58.8073 77.4527 58.8073 75.6558C58.8073 74.6495 58.4911 73.7152 57.9592 72.9389C59.4255 72.0908 60.4173 70.5383 60.4173 68.7414C60.4173 66.6714 59.0948 64.9177 57.2692 64.2277C57.3411 63.1927 57.6717 62.0283 58.2755 60.7489C59.3392 58.4345 61.1648 56.307 63.5367 54.582C72.0898 48.4008 76.7042 38.4102 75.8705 27.8589ZM47.4223 88.1045C47.431 88.2958 47.4007 88.4869 47.3335 88.6662C47.2662 88.8455 47.1633 89.0093 47.031 89.1478C46.8986 89.2862 46.7396 89.3964 46.5635 89.4716C46.3874 89.5469 46.1979 89.5857 46.0064 89.5857C45.8149 89.5857 45.6254 89.5469 45.4493 89.4716C45.2732 89.3964 45.1142 89.2862 44.9819 89.1478C44.8495 89.0093 44.7466 88.8455 44.6794 88.6662C44.6121 88.4869 44.5818 88.2958 44.5905 88.1045V87.4002H47.4223V88.1045ZM52.3386 84.6114H39.6598C39.1147 84.6114 38.5918 84.3948 38.2063 84.0093C37.8208 83.6238 37.6042 83.101 37.6042 82.5558C37.6042 82.0106 37.8208 81.4877 38.2063 81.1022C38.5918 80.7167 39.1147 80.5002 39.6598 80.5002H52.3386C52.8838 80.5002 53.4066 80.7167 53.7921 81.1022C54.1776 81.4877 54.3942 82.0106 54.3942 82.5558C54.3942 83.101 54.1776 83.6238 53.7921 84.0093C53.4066 84.3948 52.8838 84.6114 52.3386 84.6114ZM53.963 77.7114H38.0355C36.9142 77.7114 35.9798 76.7914 35.9798 75.6558C35.9798 74.5202 36.9142 73.6002 38.0355 73.6002H53.963C55.0842 73.6002 56.0186 74.5202 56.0186 75.6558C56.0186 76.7914 55.0842 77.7114 53.963 77.7114ZM57.6286 68.7414C57.6286 69.877 56.7086 70.8114 55.573 70.8114H36.4255C35.8917 70.7915 35.3864 70.5654 35.0159 70.1807C34.6453 69.7961 34.4382 69.2827 34.4382 68.7486C34.4382 68.2145 34.6453 67.7011 35.0159 67.3164C35.3864 66.9318 35.8917 66.7057 36.4255 66.6858H55.573C56.7086 66.6858 57.6286 67.6202 57.6286 68.7414ZM40.9392 29.6702H38.3373C36.8998 29.6702 35.7211 28.5058 35.7211 27.0683C35.7211 25.6308 36.8998 24.452 38.3373 24.452C39.7748 24.452 40.9392 25.6308 40.9392 27.0683V29.6702ZM43.728 32.4589H48.2705V63.897H43.728V32.4589ZM61.9123 52.3252C59.138 54.3233 57.0105 56.8389 55.7455 59.5845C55.0267 61.1083 54.6242 62.5602 54.5092 63.897H51.0592V32.4589H53.6611C54.0205 32.4589 54.3798 32.4158 54.7248 32.3439C55.9465 32.1015 57.0466 31.4434 57.838 30.4817C58.6294 29.5199 59.0634 28.3138 59.0661 27.0683C59.0661 24.0927 56.6367 21.6633 53.6611 21.6633C52.2301 21.6671 50.859 22.2382 49.8485 23.2514C48.8379 24.2647 48.2705 25.6373 48.2705 27.0683V29.6702H43.728V27.0683C43.728 24.0927 41.313 21.6633 38.3373 21.6633C35.3617 21.6633 32.9323 24.0927 32.9323 27.0683C32.9361 28.4993 33.5073 29.8704 34.5205 30.8809C35.5337 31.8914 36.9063 32.4589 38.3373 32.4589H40.9392V63.897H37.4892C37.3455 62.4595 36.8567 60.8639 35.9942 59.1389C34.7005 56.5227 32.6592 54.2083 29.9711 52.2245C29.583 51.9514 29.2092 51.6639 28.8498 51.3477C25.72 48.8014 23.1959 45.5908 21.4605 41.9483C19.7251 38.3059 18.8218 34.323 18.8161 30.2883C18.8161 22.5689 22.1223 15.1802 27.8867 10.0195C33.723 4.80141 41.2698 2.40078 49.1186 3.27766C57.1542 4.16891 64.2411 8.79766 68.6111 15.3095C71.1123 19.0614 72.7223 23.417 73.0961 28.0745C73.8436 37.6483 69.6605 46.7189 61.9123 52.3252ZM53.6611 29.6702H51.0592V27.0683C51.0592 25.6308 52.2236 24.452 53.6611 24.452C55.0986 24.452 56.2773 25.6308 56.2773 27.0683C56.2773 28.5058 55.0986 29.6702 53.6611 29.6702Z" fill="#262E63"/>
</g>
<defs>
<clipPath id="clip0_334_3074">
<rect width="92" height="92" fill="white" transform="translate(0 0.316406)"/>
</clipPath>
</defs>
</svg>
