<svg width="97" height="97" viewBox="0 0 97 97" fill="none" xmlns="http://www.w3.org/2000/svg">
<path d="M84.875 76.7917V70.1393C84.875 66.834 82.8626 63.8617 79.7937 62.6342L71.5724 59.3456C67.6691 57.7843 63.2205 59.4756 61.3404 63.2358L60.625 64.6667C60.625 64.6667 50.5208 62.6458 42.4375 54.5625C34.3542 46.4792 32.3333 36.375 32.3333 36.375L33.7642 35.6596C37.5244 33.7795 39.2157 29.3309 37.6544 25.4276L34.3658 17.2063C33.1383 14.1374 30.166 12.125 26.8607 12.125H20.2083C15.744 12.125 12.125 15.744 12.125 20.2083C12.125 55.9227 41.0773 84.875 76.7917 84.875C81.256 84.875 84.875 81.256 84.875 76.7917Z" stroke="white" stroke-width="2" stroke-linejoin="round"/>
</svg>
