<svg width="77" height="41" viewBox="0 0 77 41" fill="none" xmlns="http://www.w3.org/2000/svg">
<path d="M25.1025 27.0538H21.7871V40.1925H25.1025V27.0538Z" fill="#C4122E"/>
<path d="M51.8361 30.8188C51.7027 30.7495 50.6368 30.1173 49.051 30.1173C46.9034 30.1173 45.4174 31.6096 45.4174 33.6217C45.4174 35.5739 46.8415 37.1293 49.051 37.1293C50.6095 37.1293 51.6932 36.5107 51.8361 36.4319V39.9584C51.4244 40.075 50.2934 40.4257 48.8126 40.4257C45.0856 40.4257 41.8164 37.8549 41.8164 33.6217C41.8164 29.6983 44.7779 26.8208 48.8126 26.8208C50.3732 26.8208 51.5242 27.1999 51.8361 27.2923V30.8188Z" fill="#C4122E"/>
<path d="M17.2286 30.8188C17.0953 30.7495 16.0293 30.1173 14.4436 30.1173C12.296 30.1173 10.81 31.6096 10.81 33.6217C10.81 35.5739 12.234 37.1293 14.4436 37.1293C16.002 37.1293 17.0858 36.5107 17.2286 36.4319V39.9584C16.817 40.075 15.6859 40.4257 14.2052 40.4257C10.4782 40.4257 7.20898 37.8549 7.20898 33.6217C7.20898 29.6983 10.1705 26.8208 14.2052 26.8208C15.7658 26.8208 16.9167 27.1999 17.2286 27.2923V30.8188Z" fill="#C4122E"/>
<path d="M62.2666 30.1664C60.2996 30.1664 58.8388 31.7143 58.8388 33.6214C58.8388 35.5327 60.2996 37.0796 62.2666 37.0796C64.2315 37.0796 65.6964 35.5327 65.6964 33.6214C65.6964 31.7143 64.2315 30.1664 62.2666 30.1664ZM69.2092 33.6214C69.2092 37.38 66.3076 40.4255 62.2666 40.4255C58.2255 40.4255 55.3281 37.38 55.3281 33.6214C55.3281 29.8692 58.2255 26.8206 62.2666 26.8206C66.3076 26.8206 69.2092 29.8692 69.2092 33.6214Z" fill="#C4122E"/>
<path d="M37.6761 30.0402C37.6267 30.0245 36.231 29.6391 35.0843 29.6391C33.7558 29.6391 33.0333 30.0843 33.0333 30.7155C33.0333 31.5157 34.0078 31.7951 34.5529 31.9673L35.4676 32.2582C37.6194 32.9429 38.6002 34.4163 38.6002 36.0167C38.6002 39.3174 35.6976 40.4264 33.1604 40.4264C31.3971 40.4264 29.7452 40.1019 29.5824 40.0672V37.0438C29.8744 37.1173 31.2648 37.5321 32.713 37.5321C34.3628 37.5321 35.121 37.0501 35.121 36.3055C35.121 35.6397 34.4647 35.2554 33.6424 34.997C33.4418 34.9298 33.1404 34.8353 32.9346 34.7681C31.0884 34.1842 29.5488 33.0994 29.5488 30.9245C29.5488 28.4671 31.3887 26.8173 34.4447 26.8173C36.0588 26.8173 37.5774 27.209 37.6761 27.2352V30.0402Z" fill="#C4122E"/>
<path d="M3.69267 12.9341C3.69267 12.0289 2.95335 11.2948 2.04705 11.2948C1.14076 11.2948 0.400391 12.0289 0.400391 12.9341V16.3829C0.400391 17.2934 1.14076 18.0285 2.04705 18.0285C2.95335 18.0285 3.69267 17.2934 3.69267 16.3829V12.9341Z" fill="#15495D"/>
<path d="M12.7337 8.4074C12.7337 7.50216 11.9944 6.76599 11.0881 6.76599C10.1807 6.76599 9.44141 7.50216 9.44141 8.4074V16.3834C9.44141 17.2939 10.1807 18.028 11.0881 18.028C11.9944 18.028 12.7337 17.2939 12.7337 16.3834V8.4074Z" fill="#15495D"/>
<path d="M21.7767 2.21397C21.7767 1.30873 21.0373 0.573608 20.131 0.573608C19.2237 0.573608 18.4844 1.30873 18.4844 2.21397V19.6604C18.4844 20.5709 19.2237 21.306 20.131 21.306C21.0373 21.306 21.7767 20.5709 21.7767 19.6604V2.21397Z" fill="#15495D"/>
<path d="M30.8157 8.4074C30.8157 7.50216 30.0764 6.76599 29.1701 6.76599C28.2628 6.76599 27.5234 7.50216 27.5234 8.4074V16.3834C27.5234 17.2939 28.2628 18.028 29.1701 18.028C30.0764 18.028 30.8157 17.2939 30.8157 16.3834V8.4074Z" fill="#15495D"/>
<path d="M39.8462 12.9341C39.8462 12.0289 39.1122 11.2948 38.2101 11.2948C37.3038 11.2948 36.5645 12.0289 36.5645 12.9341V16.3829C36.5645 17.2934 37.3038 18.0285 38.2101 18.0285C39.1122 18.0285 39.8462 17.2934 39.8462 16.3829V12.9341Z" fill="#15495D"/>
<path d="M39.8548 12.934C39.8548 12.0287 39.1155 11.2947 38.2092 11.2947C37.3029 11.2947 36.5625 12.0287 36.5625 12.934V16.3827C36.5625 17.2932 37.3029 18.0284 38.2092 18.0284C39.1155 18.0284 39.8548 17.2932 39.8548 16.3827V12.934Z" fill="#15495D"/>
<path d="M48.8977 8.4074C48.8977 7.50216 48.1584 6.76599 47.2521 6.76599C46.3448 6.76599 45.6055 7.50216 45.6055 8.4074V16.3834C45.6055 17.2939 46.3448 18.028 47.2521 18.028C48.1584 18.028 48.8977 17.2939 48.8977 16.3834V8.4074Z" fill="#15495D"/>
<path d="M57.9368 2.21397C57.9368 1.30873 57.1975 0.573608 56.2912 0.573608C55.3838 0.573608 54.6445 1.30873 54.6445 2.21397V19.6604C54.6445 20.5709 55.3838 21.306 56.2912 21.306C57.1975 21.306 57.9368 20.5709 57.9368 19.6604V2.21397Z" fill="#15495D"/>
<path d="M66.9778 8.4074C66.9778 7.50216 66.2385 6.76599 65.3322 6.76599C64.4249 6.76599 63.6855 7.50216 63.6855 8.4074V16.3834C63.6855 17.2939 64.4249 18.028 65.3322 18.028C66.2385 18.028 66.9778 17.2939 66.9778 16.3834V8.4074Z" fill="#15495D"/>
<path d="M76.0103 12.934C76.0103 12.0287 75.2762 11.2947 74.3741 11.2947C73.4678 11.2947 72.7285 12.0287 72.7285 12.934V16.3827C72.7285 17.2932 73.4678 18.0284 74.3741 18.0284C75.2762 18.0284 76.0103 17.2932 76.0103 16.3827V12.934Z" fill="#15495D"/>
<path d="M74.1168 38.4623V38.6681H73.5308V40.1919H73.2903V38.6681H72.7012V38.4623H74.1168Z" fill="#C4122E"/>
<path d="M74.2402 38.4623H74.6172L75.135 39.8811H75.1434L75.6443 38.4623H76.014V40.1919H75.7672V38.7742H75.7588L75.2337 40.1919H75.0058L74.4933 38.7742H74.4818V40.1919H74.2402V38.4623Z" fill="#C4122E"/>
</svg>
