<svg width="25" height="25" viewBox="0 0 25 25" fill="none" xmlns="http://www.w3.org/2000/svg">
<circle cx="6.62891" cy="4.59631" r="2" fill="white"/>
<ellipse opacity="0.4" cx="6.62891" cy="8.59631" rx="3" ry="2" fill="white"/>
<circle cx="18.6289" cy="16.5963" r="2" fill="white"/>
<path fill-rule="evenodd" clip-rule="evenodd" d="M11.8789 2.59631C11.8789 2.1821 12.2147 1.84631 12.6289 1.84631C18.566 1.84631 23.3789 6.65925 23.3789 12.5963C23.3789 13.0105 23.0431 13.3463 22.6289 13.3463C22.2147 13.3463 21.8789 13.0105 21.8789 12.5963C21.8789 7.48768 17.7375 3.34631 12.6289 3.34631C12.2147 3.34631 11.8789 3.01053 11.8789 2.59631ZM2.62891 11.8463C3.04312 11.8463 3.37891 12.1821 3.37891 12.5963C3.37891 17.7049 7.52027 21.8463 12.6289 21.8463C13.0431 21.8463 13.3789 22.1821 13.3789 22.5963C13.3789 23.0105 13.0431 23.3463 12.6289 23.3463C6.69184 23.3463 1.87891 18.5334 1.87891 12.5963C1.87891 12.1821 2.21469 11.8463 2.62891 11.8463Z" fill="white"/>
<ellipse opacity="0.4" cx="18.6289" cy="20.5963" rx="3" ry="2" fill="white"/>
</svg>
