<svg width="25" height="25" viewBox="0 0 25 25" fill="none" xmlns="http://www.w3.org/2000/svg">
<path fill-rule="evenodd" clip-rule="evenodd" d="M19.4512 5.92041C19.4512 4.26356 18.108 2.92041 16.4512 2.92041H8.45117C6.79432 2.92041 5.45117 4.26355 5.45117 5.92041V19.9204C5.45117 21.5773 6.79432 22.9204 8.45117 22.9204H16.4512C18.108 22.9204 19.4512 21.5773 19.4512 19.9204L19.4512 5.92041ZM12.4512 15.6704C12.8654 15.6704 13.2012 15.3346 13.2012 14.9204C13.2012 14.5062 12.8654 14.1704 12.4512 14.1704C12.037 14.1704 11.7012 14.5062 11.7012 14.9204C11.7012 15.3346 12.037 15.6704 12.4512 15.6704ZM12.4511 9.67041C11.0012 9.67041 9.68971 10.2572 8.73883 11.2081C8.44593 11.501 7.97106 11.501 7.67817 11.2081C7.38527 10.9152 7.38527 10.4403 7.67817 10.1474C8.89885 8.92675 10.5874 8.17041 12.4511 8.17041C14.3149 8.17041 16.0034 8.92675 17.2241 10.1474C17.517 10.4403 17.517 10.9152 17.2241 11.2081C16.9312 11.501 16.4563 11.501 16.1634 11.2081C15.2126 10.2572 13.9011 9.67041 12.4511 9.67041ZM12.4511 12.6704C11.8296 12.6704 11.2681 12.9214 10.8601 13.3294C10.5673 13.6223 10.0924 13.6223 9.79949 13.3294C9.50659 13.0365 9.50659 12.5617 9.79949 12.2688C10.4773 11.591 11.4158 11.1704 12.4511 11.1704C13.4865 11.1704 14.425 11.591 15.1028 12.2688C15.3957 12.5617 15.3957 13.0365 15.1028 13.3294C14.8099 13.6223 14.335 13.6223 14.0421 13.3294C13.6341 12.9214 13.0727 12.6704 12.4511 12.6704ZM11.4512 19.1704C11.037 19.1704 10.7012 19.5062 10.7012 19.9204C10.7012 20.3346 11.037 20.6704 11.4512 20.6704H13.4512C13.8654 20.6704 14.2012 20.3346 14.2012 19.9204C14.2012 19.5062 13.8654 19.1704 13.4512 19.1704H11.4512Z" fill="#262E63"/>
</svg>
