<svg width="84" height="69" viewBox="0 0 84 69" fill="none" xmlns="http://www.w3.org/2000/svg">
<path d="M27.9684 49.3621C29.3413 49.3397 30.7141 49.3147 32.0806 49.2948C32.2423 49.2935 32.404 49.301 32.5649 49.3172C32.6194 49.322 32.67 49.3473 32.7064 49.3882C32.7428 49.429 32.7623 49.4822 32.7608 49.5369C32.7621 49.5911 32.7596 49.6453 32.7533 49.6991C32.7505 49.7444 32.7348 49.788 32.708 49.8247C32.6813 49.8614 32.6446 49.8897 32.6023 49.9063C32.4675 49.9574 32.3302 50.0011 32.193 50.0423C31.917 50.1259 31.6479 50.2307 31.388 50.3556C30.8613 50.6052 30.613 51.027 30.5855 51.6036C30.5731 52.0186 30.6262 52.4331 30.7428 52.8316C30.9 53.4057 31.061 53.9785 31.2495 54.5414C32.1006 57.0873 32.9588 59.6312 33.8241 62.173C33.8672 62.3105 33.9181 62.4455 33.9764 62.5773C34.0145 62.6372 34.0636 62.6893 34.1211 62.7308C34.1452 62.7421 34.1719 62.7466 34.1983 62.7437C34.2247 62.7409 34.2498 62.7308 34.2709 62.7146C34.307 62.6766 34.3388 62.6348 34.3658 62.5898C34.4331 62.4426 34.4968 62.2928 34.5542 62.1418C35.6633 59.2298 36.7715 56.3156 37.8789 53.3995C37.9238 53.2809 37.9675 53.1623 38.0037 53.0425C38.0689 52.8333 38.0574 52.6076 37.9713 52.406C37.7755 51.9176 37.5139 51.4583 37.1937 51.0407C36.7918 50.5223 36.2152 50.1675 35.5713 50.0423C35.3429 49.9961 35.1171 49.935 34.8924 49.8713C34.704 49.8177 34.694 49.5606 34.7676 49.4108C34.7867 49.3797 34.8171 49.3574 34.8525 49.3484C34.9387 49.3232 35.0274 49.3077 35.1171 49.3022C35.333 49.3022 35.5501 49.3022 35.766 49.3022C37.8768 49.3563 39.9872 49.3663 42.0972 49.3322C42.549 49.3247 42.9995 49.3072 43.45 49.2972C43.6123 49.2972 43.7745 49.2972 43.9368 49.3035C44.2263 49.3247 44.2675 49.5606 44.1739 49.7777C44.1383 49.8406 44.0804 49.8878 44.0116 49.91C43.8419 49.9674 43.6647 50.0049 43.4912 50.0535C43.2666 50.1184 43.0444 50.1908 42.8185 50.2545C42.6305 50.3174 42.4545 50.412 42.2981 50.534C42.1644 50.6277 42.0544 50.7513 41.9769 50.8949C41.8993 51.0385 41.8563 51.1983 41.8513 51.3615C41.8376 51.5778 41.8514 51.7951 41.8925 52.0079C42.0285 52.7344 42.2166 53.4501 42.4554 54.1495C43.0245 55.821 43.5956 57.4921 44.1689 59.1628C44.5059 60.1525 44.8478 61.1409 45.1873 62.1293C45.2358 62.3025 45.3085 62.468 45.4032 62.621C45.4195 62.6425 45.4405 62.6599 45.4646 62.6719C45.4888 62.6838 45.5154 62.6901 45.5423 62.6901C45.5693 62.6901 45.5959 62.6838 45.62 62.6719C45.6441 62.6599 45.6652 62.6425 45.6815 62.621C45.7155 62.5794 45.7456 62.5347 45.7713 62.4875C45.8163 62.3889 45.8562 62.289 45.8961 62.1867C46.7947 59.7132 47.6758 57.2346 48.4708 54.7261C48.7054 53.9873 48.9038 53.2385 49.0823 52.4797C49.14 52.2156 49.1693 51.9462 49.1697 51.676C49.1717 51.514 49.1413 51.3532 49.0802 51.2032C49.0191 51.0531 48.9286 50.9168 48.814 50.8023C48.6653 50.6444 48.49 50.5138 48.2961 50.4167C47.9428 50.2358 47.5641 50.1095 47.1729 50.0423C46.9594 50.0074 46.7485 49.9624 46.5376 49.9175C46.4573 49.8995 46.3871 49.8511 46.3418 49.7825C46.2964 49.7138 46.2794 49.6303 46.2943 49.5493C46.2942 49.485 46.3189 49.4232 46.3633 49.3767C46.4077 49.3302 46.4684 49.3026 46.5326 49.2997C46.6936 49.2923 46.8559 49.291 47.0181 49.2997C47.9379 49.3135 48.8577 49.3372 49.7787 49.3422C50.7883 49.3484 51.798 49.3422 52.8089 49.3334C53.0797 49.3334 53.3493 49.311 53.6201 49.301C53.8901 49.2814 54.1615 49.2932 54.4288 49.3359C54.4826 49.3448 54.5311 49.3737 54.5646 49.4167C54.5981 49.4597 54.6142 49.5137 54.6098 49.5681C54.6222 49.6398 54.6096 49.7136 54.5739 49.7771C54.5382 49.8405 54.4816 49.8897 54.4138 49.9163C54.3302 49.9487 54.2428 49.9737 54.1567 49.9999C53.692 50.1503 53.2642 50.3969 52.9012 50.7237C52.5887 50.9971 52.3025 51.2992 52.0463 51.626C51.5029 52.3236 51.025 53.0697 50.6186 53.855C50.0833 54.8569 49.6086 55.89 49.1971 56.9488C48.5831 58.5296 47.9749 60.1104 47.3725 61.6912C46.6079 63.6939 45.845 65.6978 45.0837 67.7029C45.0188 67.8714 44.9514 68.0386 44.879 68.2021C44.7779 68.4293 44.6768 68.4804 44.4559 68.418C44.235 68.3556 44.0403 68.2932 43.8319 68.2333C43.7017 68.196 43.583 68.1263 43.487 68.0307C43.391 67.9351 43.3207 67.8168 43.2828 67.6867C42.7054 65.9395 42.123 64.1964 41.5356 62.4575C40.8292 60.3567 40.1199 58.2567 39.4077 56.1576C39.2829 55.7832 39.1332 55.4088 38.9896 55.0443C38.9599 54.9797 38.9217 54.9193 38.8761 54.8646C38.84 54.8369 38.7954 54.8225 38.7499 54.8238C38.7044 54.8252 38.6608 54.8423 38.6265 54.8721C38.5836 54.9298 38.546 54.9912 38.5141 55.0556C38.428 55.254 38.3444 55.4524 38.2645 55.6546C36.8268 59.4461 35.3883 63.2363 33.9489 67.0253L33.6169 67.8889C33.577 67.99 33.5396 68.0911 33.4921 68.1896C33.3836 68.4392 33.28 68.4954 33.0304 68.4155C32.9056 68.3768 32.792 68.3344 32.6735 68.2907C32.5549 68.2471 32.4039 68.1909 32.2666 68.146C32.2065 68.1256 32.1514 68.0928 32.1048 68.0498C32.0581 68.0069 32.021 67.9546 31.9958 67.8964C31.9284 67.7491 31.871 67.5981 31.8136 67.4458C30.306 63.1801 28.7963 58.9182 27.2845 54.66C27.121 54.2007 26.9401 53.7489 26.7554 53.2996C26.5585 52.8342 26.3227 52.3862 26.0503 51.9605C25.795 51.5453 25.4875 51.1644 25.1355 50.8273C24.7469 50.4475 24.2706 50.1693 23.7489 50.0173C23.6241 49.9837 23.4993 49.9475 23.3882 49.9038C23.3454 49.8807 23.3082 49.8485 23.2793 49.8094C23.2504 49.7702 23.2305 49.7252 23.2211 49.6775C23.2117 49.6297 23.2129 49.5805 23.2248 49.5333C23.2366 49.4861 23.2588 49.4422 23.2897 49.4046C23.3247 49.365 23.3723 49.3386 23.4244 49.3297C23.6038 49.3082 23.7842 49.2962 23.9648 49.2935C24.7773 49.306 25.5872 49.3272 26.3997 49.3384C26.9226 49.3447 27.4468 49.3384 27.9697 49.3384L27.9684 49.3621Z" fill="#262E63"/>
<path d="M72.182 59.2316L76.4489 59.1692C76.5388 59.1692 76.6287 59.1692 76.7185 59.1692C76.782 59.1678 76.844 59.1882 76.8942 59.2271C76.9444 59.2659 76.9797 59.3208 76.9943 59.3826C77.013 59.4522 77.0093 59.5259 76.9835 59.5932C76.9577 59.6604 76.9112 59.7178 76.8508 59.757C76.7372 59.8094 76.6162 59.8481 76.4989 59.893C76.2967 59.9692 76.0933 60.0428 75.8936 60.1252C75.794 60.1667 75.6979 60.2163 75.6065 60.2737C75.4437 60.3718 75.3031 60.5027 75.1936 60.658C75.084 60.8133 75.0079 60.9897 74.97 61.176C74.863 61.6511 74.8028 62.1356 74.7903 62.6224C74.7778 63.5073 74.7903 64.3909 74.7903 65.2745C74.791 65.3827 74.7998 65.4908 74.8165 65.5977C74.8268 65.679 74.8655 65.7541 74.9258 65.8096C74.9861 65.8651 75.0641 65.8975 75.146 65.901C75.3444 65.9122 75.5429 65.9109 75.7413 65.9147C75.8848 65.9147 76.0296 65.9147 76.1731 65.9297C76.2364 65.9383 76.2942 65.9702 76.3353 66.0191C76.3763 66.068 76.3977 66.1304 76.3953 66.1942C76.3957 66.2485 76.3923 66.3027 76.3853 66.3565C76.3827 66.3925 76.371 66.4273 76.3514 66.4576C76.3317 66.488 76.3048 66.5128 76.273 66.53C76.147 66.5997 76.017 66.6618 75.8836 66.7159C74.7738 67.1426 73.6399 67.5039 72.4877 67.7979C71.6853 68.0039 70.8753 68.1786 70.0566 68.3046C69.6142 68.3913 69.1656 68.4427 68.715 68.4581C68.6244 68.4577 68.534 68.4636 68.4442 68.4756C67.8168 68.5486 67.1845 68.5711 66.5535 68.543C66.2839 68.543 66.0143 68.5118 65.7447 68.4931C65.6 68.4844 65.4564 68.4694 65.3129 68.4594C63.5253 68.3604 61.7801 67.8773 60.1961 67.0429C58.991 66.4178 57.9286 65.5496 57.076 64.4932C56.2499 63.4611 55.6806 62.2476 55.4149 60.9526C55.2149 59.9979 55.1511 59.0198 55.2252 58.0472C55.3257 56.5275 55.8311 55.0624 56.6892 53.804C57.8029 52.1664 59.3618 50.8815 61.182 50.1011C62.2586 49.638 63.387 49.3061 64.5429 49.1127C65.4853 48.9526 66.4401 48.8774 67.3959 48.8881C67.9375 48.8881 68.4804 48.8881 69.0183 48.9255C69.5175 48.9605 70.0167 49.0191 70.5159 49.094C71.282 49.2079 72.0415 49.3628 72.791 49.5583C73.2902 49.6905 73.7982 49.8353 74.2999 49.9801C74.8016 50.1249 74.839 50.2297 74.8403 50.7064C74.8403 52.15 74.8403 53.5931 74.8403 55.0358C74.8403 55.072 74.8402 55.1082 74.834 55.1444C74.8289 55.2076 74.8043 55.2678 74.7637 55.3165C74.723 55.3652 74.6682 55.4001 74.6069 55.4164C74.5124 55.4494 74.4095 55.4491 74.3153 55.4155C74.2211 55.3819 74.1412 55.317 74.0889 55.2317C74.0003 55.0545 73.9217 54.8723 73.8468 54.6888C73.6185 54.1203 73.3324 53.5766 72.9932 53.0664C72.4396 52.2165 71.7043 51.4999 70.8404 50.9685C70.1546 50.5671 69.4028 50.2911 68.6202 50.1536C67.9796 50.0421 67.3278 50.0106 66.6795 50.06C63.0965 50.2771 60.9873 52.6109 60.1898 54.7737C59.995 55.3165 59.8598 55.8789 59.7867 56.451C59.7001 57.0769 59.6738 57.7096 59.7081 58.3405C59.8179 60.4284 60.4382 62.3342 61.7623 63.9865C62.9739 65.5101 64.6466 66.6 66.5297 67.0928C67.2992 67.308 68.0945 67.4163 68.8935 67.4148C69.2542 67.4053 69.6134 67.3635 69.9668 67.29C70.4797 67.1964 70.7867 66.8607 70.894 66.3527C70.9236 66.2111 70.9382 66.0668 70.9377 65.9222C70.9377 64.8231 70.9352 63.7228 70.9302 62.6212C70.9137 62.1875 70.8119 61.7613 70.6307 61.3669C70.5312 61.1338 70.3864 60.9228 70.2047 60.7461C70.0231 60.5693 69.8081 60.4304 69.5724 60.3373C69.2401 60.1971 68.8959 60.0868 68.544 60.0079C68.1222 59.9105 67.6929 59.8581 67.2661 59.7919C67.1942 59.7869 67.1228 59.7761 67.0527 59.7595C67.0081 59.7499 66.9662 59.7305 66.9301 59.7027C66.894 59.6748 66.8646 59.6393 66.844 59.5986C66.8235 59.5579 66.8122 59.5131 66.8112 59.4676C66.8101 59.422 66.8193 59.3768 66.838 59.3352C66.8468 59.2998 66.8655 59.2676 66.8921 59.2426C66.9187 59.2176 66.9519 59.2008 66.9878 59.1942C67.0942 59.1765 67.2018 59.1669 67.3097 59.1654C67.6155 59.1654 67.9225 59.1792 68.2295 59.1829L72.182 59.2316Z" fill="#262E63"/>
<path d="M18.9828 52.8654C18.974 53.5692 18.9666 54.2719 18.9541 54.9758C18.9496 55.1012 18.9371 55.2263 18.9166 55.3502C18.9077 55.4038 18.8816 55.453 18.8422 55.4904C18.8028 55.5278 18.7522 55.5513 18.6982 55.5573C18.3176 55.5873 18.1841 55.5736 18.0605 55.1567C17.9619 54.8297 17.8508 54.5053 17.7285 54.1858C17.4469 53.4035 17.0364 52.6737 16.5142 52.0267C15.6968 51.026 14.5437 50.3563 13.2694 50.1422C12.4794 49.9999 11.6894 50.0336 10.8982 50.0623C9.58276 50.2264 8.34592 50.7781 7.34507 51.6473C6.10776 52.7182 5.23163 54.1453 4.83657 55.7333C4.56083 56.7661 4.45046 57.836 4.50959 58.9033C4.58137 60.422 4.98612 61.9064 5.6952 63.2513C6.28331 64.3539 7.10796 65.3128 8.1101 66.0594C9.01131 66.729 10.0628 67.1678 11.1727 67.3373C11.5644 67.4 11.9604 67.4318 12.3571 67.4322C13.4644 67.431 14.5483 67.1132 15.4809 66.5161C16.2469 66.0324 16.9226 65.4188 17.4777 64.7028C17.9359 64.1219 18.3407 63.5008 18.687 62.847C18.8492 62.545 18.9978 62.2367 19.155 61.9309C19.2124 61.8199 19.2698 61.7075 19.3347 61.599C19.3607 61.5506 19.402 61.5121 19.4521 61.4895C19.5022 61.467 19.5583 61.4616 19.6118 61.4742C19.7366 61.5054 19.8514 61.5478 19.9712 61.5877C20.0054 61.6 20.035 61.6225 20.056 61.6522C20.077 61.6819 20.0884 61.7174 20.0885 61.7537C20.0946 61.8439 20.0887 61.9346 20.071 62.0233C19.7453 63.5034 19.3647 64.9673 18.7968 66.3763C18.702 66.6097 18.5922 66.8381 18.506 67.0752C18.4638 67.1947 18.3929 67.302 18.2996 67.3878C18.2062 67.4735 18.0933 67.535 17.9706 67.5669C17.8159 67.6156 17.6624 67.6643 17.5089 67.7192C16.6246 68.0295 15.7095 68.2442 14.7795 68.3594C13.6356 68.5169 12.4801 68.5737 11.3262 68.5292C10.1905 68.4981 9.06005 68.3628 7.94911 68.1248C6.44747 67.7997 5.02196 67.1901 3.74955 66.3289C2.94537 65.7756 2.23642 65.0953 1.65039 64.3146C0.910657 63.3298 0.412633 62.185 0.196459 60.9725C0.0477823 60.1913 -0.0133318 59.396 0.0142493 58.6012C0.0966181 56.7217 0.600815 54.982 1.72028 53.4407C2.76603 52.0029 4.17 50.864 5.79254 50.1372C6.86251 49.6575 7.98819 49.3133 9.14345 49.1126C9.99452 48.9553 10.8589 48.8818 11.7243 48.893C12.0314 48.8979 12.3384 48.8979 12.6454 48.893C13.9159 48.8817 15.1564 49.0926 16.3894 49.3922C17.0373 49.5499 17.675 49.747 18.2989 49.9825C18.4337 50.0336 18.5672 50.0885 18.6995 50.1447C18.767 50.1715 18.8253 50.2175 18.8672 50.2769C18.909 50.3363 18.9327 50.4065 18.9354 50.4792C18.9453 50.5865 18.9553 50.6951 18.9566 50.8024C18.9653 51.4876 18.9703 52.1752 18.9778 52.8591L18.9828 52.8654Z" fill="#262E63"/>
<path d="M76.8822 20.6504C76.8382 19.6289 76.7041 18.6132 76.4815 17.6152C76.0715 15.7111 75.3729 13.8807 74.4098 12.1876C72.8828 9.51384 70.7871 7.2081 68.2709 5.4334C66.29 4.03163 64.1025 2.94739 61.7875 2.21977C60.409 1.77123 58.9973 1.43238 57.5654 1.20639C56.7863 1.06987 56.0007 0.973641 55.2117 0.918097C55.1455 0.916591 55.0795 0.909494 55.0145 0.89688C54.7377 0.851467 54.4576 0.828512 54.1771 0.82824C53.7815 0.813264 53.3858 0.804528 52.9902 0.780815C51.721 0.707183 50.4518 0.789551 49.185 0.849456C48.8106 0.870672 48.4362 0.914353 48.0531 0.959281C47.6699 1.00421 47.3043 1.06911 46.9299 1.11403C46.095 1.21762 45.2688 1.37237 44.4513 1.55458C42.6157 1.95523 40.8169 2.50879 39.0736 3.20945C38.9364 3.26685 38.8003 3.32302 38.6605 3.37668C38.5359 3.42407 38.3983 3.42407 38.2737 3.37668C38.1663 3.3355 38.0627 3.29057 37.9554 3.24564C36.7325 2.7537 35.4824 2.33202 34.2114 1.98265C32.8137 1.59901 31.3926 1.30678 29.9569 1.10779C29.6799 1.06911 29.4003 1.04539 29.1245 0.997969C28.6515 0.920593 28.1723 0.89064 27.6968 0.851952C27.0141 0.793295 26.319 0.784559 25.6263 0.757103C24.4869 0.712175 23.3549 0.810768 22.2155 0.849456C22.183 0.849671 22.1505 0.851754 22.1182 0.855696C21.4168 0.950545 20.7091 0.995473 20.0103 1.12027C19.5111 1.20639 18.9969 1.26255 18.4977 1.36114C16.978 1.65595 15.4846 2.07332 14.0323 2.60915C11.4536 3.54959 9.0682 4.9529 6.9935 6.75006C4.58314 8.82273 2.69 11.4295 1.46481 14.3629C0.642434 16.348 0.161011 18.4577 0.0408246 20.603C-0.037625 21.9035 -0.00296639 23.2085 0.14441 24.503C0.243818 25.4036 0.398447 26.2972 0.607422 27.1788C1.33842 30.2954 2.9151 33.1499 5.16391 35.4281C6.76172 37.0539 8.60453 38.4192 10.6252 39.4742C12.4051 40.4101 14.2848 41.1423 16.2288 41.6569C17.5011 41.9947 18.7932 42.2527 20.0976 42.4295C20.5219 42.4894 20.95 42.5156 21.3756 42.5605C21.6377 42.5842 21.9022 42.6254 22.1631 42.6379C23.647 42.6978 25.1309 42.7028 26.6135 42.6379C26.7128 42.6383 26.812 42.6325 26.9105 42.6204C27.381 42.5368 27.8628 42.5306 28.3345 42.4682C28.9061 42.3945 29.4789 42.3196 30.0468 42.2273C31.1026 42.0551 32.148 41.8312 33.183 41.5559C34.4886 41.208 35.7715 40.78 37.0244 40.2742C37.1982 40.2221 37.355 40.1248 37.4787 39.9921C37.5179 39.9491 37.5663 39.9155 37.6204 39.8939C37.6744 39.8723 37.7326 39.8632 37.7907 39.8673C38.1863 39.8673 38.5819 39.8673 38.9775 39.8673C39.0841 39.858 39.1915 39.8727 39.2917 39.9103C39.3919 39.9479 39.4824 40.0074 39.5566 40.0844C39.6297 40.1493 39.7144 40.1997 39.8062 40.233C39.9248 40.2891 40.0496 40.3341 40.1719 40.3815C42.4299 41.2698 44.7805 41.9019 47.1795 42.266C47.9932 42.3908 48.8019 42.5093 49.6318 42.5605C49.7117 42.5667 49.7953 42.5805 49.8752 42.5905C50.0387 42.6042 50.2059 42.6291 50.3744 42.6341C51.8071 42.6853 53.2448 42.6915 54.675 42.6341C54.8098 42.6341 54.9396 42.6192 55.0707 42.6042C55.5611 42.5543 56.0553 42.5043 56.5458 42.4507C56.9052 42.4082 57.2672 42.3758 57.6241 42.3159C58.5314 42.1624 59.4349 41.9839 60.3298 41.7543C62.2005 41.2862 64.0161 40.6206 65.7461 39.7687C68.0039 38.6696 70.057 37.1923 71.8165 35.4007C73.6125 33.5701 74.9799 31.3639 75.8201 28.941C76.1982 27.8328 76.4801 26.6942 76.6625 25.5376C76.7037 25.278 76.7336 25.0172 76.7686 24.7551C76.7773 24.6902 76.7811 24.6241 76.7836 24.5567C76.7923 24.4019 76.7511 24.3483 76.6201 24.3445V24.3832H73.3266C73.2492 24.3832 73.1693 24.3832 73.0894 24.3832C72.2832 24.3832 71.2936 24.3832 70.3039 24.3832C70.2465 24.3832 70.1928 24.3832 70.1367 24.3832C70.0268 24.3832 69.917 24.3832 69.8097 24.3832C69.7606 24.3842 69.7119 24.3739 69.6674 24.3533C69.6345 24.3378 69.6052 24.3157 69.5813 24.2884C69.4227 24.2335 69.2762 24.1488 69.1495 24.0388C69.0237 23.9347 68.922 23.8046 68.8513 23.6575C68.7806 23.5103 68.7427 23.3496 68.7401 23.1864C68.7401 22.5237 69.3641 21.982 70.1367 21.982H72.5803C72.8186 21.982 73.0595 21.982 73.2966 21.982L76.4166 21.9671C76.5477 21.9685 76.6786 21.9606 76.8085 21.9433C76.8312 21.9363 76.852 21.9241 76.8691 21.9076C76.8862 21.8912 76.8992 21.8709 76.9071 21.8485C76.9289 21.7693 76.939 21.6873 76.9371 21.6051C76.9208 21.2757 76.8971 20.9637 76.8822 20.6504ZM69.2094 24.2696C69.2742 24.2735 69.3373 24.2918 69.3941 24.3233C69.4353 24.347 69.4839 24.3944 69.4839 24.4331C69.4933 24.581 69.4883 24.7293 69.469 24.8762C68.7938 28.9185 67.0977 32.4566 64.2697 35.4406C63.1848 36.5961 61.9484 37.5994 60.5944 38.4233C59.1251 39.3078 57.5364 39.9765 55.8769 40.4089C54.2204 40.8555 52.509 41.0656 50.7937 41.0329C50.6128 41.0329 50.4305 41.018 50.2496 41.0205C49.7721 41.0119 49.296 40.9664 48.8256 40.8844C46.5963 40.5551 44.5042 39.6064 42.7877 38.1463C42.749 38.1138 42.7141 38.0776 42.6754 38.0477C42.5934 37.9801 42.5272 37.8953 42.4815 37.7994C42.4358 37.7034 42.4117 37.5986 42.4108 37.4923C42.3359 36.5201 42.3297 35.5479 42.3097 34.4971C42.2236 33.6148 42.301 32.66 42.3484 31.7065C42.3969 30.6036 42.5938 29.5121 42.9337 28.4617C43.1091 27.911 43.3527 27.3844 43.6588 26.8942C44.3623 25.7617 45.483 24.9512 46.7789 24.6378C47.3864 24.4873 48.01 24.4115 48.6359 24.4119C49.7903 24.4032 50.9435 24.3795 52.0991 24.3707C56.1689 24.3495 60.2387 24.3383 64.3122 24.3146C65.7599 24.3058 67.2101 24.2784 68.6615 24.2609C68.85 24.2534 69.0309 24.2572 69.2119 24.2659L69.2094 24.2696ZM69.6824 21.8647C69.6746 21.8968 69.6584 21.9261 69.6353 21.9496C69.6122 21.9731 69.5832 21.9899 69.5513 21.9983C69.4028 22.0107 69.2581 22.0257 69.1083 22.0257C68.4156 22.0257 67.723 22.0257 67.0303 22.0257H52.788V22.0132C48.7328 22.0008 44.6768 21.9879 40.6199 21.9746C39.2683 21.9746 37.918 21.9483 36.5651 21.9334C36.4166 21.9334 36.2681 21.9334 36.1221 21.9483C36.0724 21.9523 36.0258 21.9739 35.9906 22.0091C35.9554 22.0443 35.9339 22.0909 35.9299 22.1405C35.9199 22.2242 35.9112 22.304 35.9087 22.3901C35.9087 22.5711 35.9087 22.7533 35.9087 22.9343V35.5891C35.9087 35.7701 35.9087 35.9523 35.9024 36.1332C35.9009 36.3007 35.8357 36.4613 35.7202 36.5825C35.4032 36.9145 35.0962 37.2627 34.763 37.5809C33.4877 38.8335 31.9465 39.7826 30.2539 40.3578C29.4421 40.6252 28.6061 40.8133 27.7579 40.9194C26.7096 41.0495 25.6507 41.0712 24.598 40.9843C21.8084 40.8113 19.0958 40.0001 16.6693 38.613C15.0126 37.6522 13.522 36.4301 12.2551 34.9938C10.0349 32.5112 8.48206 29.5051 7.7423 26.2577C7.58755 25.6013 7.48397 24.9323 7.39411 24.2609C7.24058 23.0505 7.18217 21.83 7.21939 20.6105C7.23686 19.8617 7.3055 19.1291 7.38537 18.3928C7.44153 17.8661 7.51017 17.3457 7.61126 16.8253C8.31889 12.919 10.0074 9.52064 12.8666 6.73633C14.9215 4.71023 17.4988 3.29478 20.311 2.64784C21.7222 2.30943 23.1693 2.14472 24.6204 2.15737C24.9948 2.16361 25.3792 2.16361 25.7599 2.17609C25.9882 2.17609 26.2204 2.20854 26.4488 2.23225C26.8232 2.26845 27.1976 2.30339 27.572 2.36329C29.224 2.59691 30.8134 3.15555 32.2483 4.00693C33.5337 4.79069 34.6421 5.83322 35.5031 7.0683C36.2958 8.20707 36.9126 9.45871 37.3327 10.7811C37.5734 11.5168 37.7668 12.2672 37.9117 13.0276C37.9779 13.3807 38.079 13.4382 38.4109 13.4319C38.527 13.4319 38.6431 13.4319 38.7554 13.4232C38.8053 13.4199 38.853 13.4012 38.8919 13.3697C38.9308 13.3382 38.959 13.2954 38.9725 13.2472C39.0112 13.1224 39.0374 12.9914 39.0649 12.8641C39.3582 11.3411 39.8631 9.8666 40.565 8.48354C41.0788 7.48584 41.7332 6.56709 42.5082 5.75539C43.7246 4.48991 45.2274 3.5354 46.8899 2.97232C47.7173 2.69465 48.567 2.4888 49.4296 2.35705C50.7508 2.15584 52.0897 2.0981 53.4233 2.18483C55.5009 2.2812 57.5431 2.75793 59.4487 3.59134C61.0644 4.30858 62.5462 5.29572 63.8304 6.51044C66.2978 8.823 67.9601 11.6273 68.8787 14.8721C69.1576 15.8878 69.3661 16.9215 69.5027 17.9659C69.6523 19.1111 69.7198 20.2656 69.7048 21.4204C69.7123 21.5665 69.6973 21.7125 69.6849 21.861L69.6824 21.8647Z" fill="#262E63"/>
<path d="M82.5804 24.4429H76.6211L76.9181 21.8733H82.5804C82.9209 21.8733 83.2476 22.0086 83.4884 22.2494C83.7293 22.4903 83.8646 22.8169 83.8646 23.1575C83.8646 23.4982 83.7293 23.825 83.4885 24.066C83.2477 24.307 82.9211 24.4426 82.5804 24.4429Z" fill="#262E63"/>
</svg>
