<svg width="66" height="65" viewBox="0 0 66 65" fill="none" xmlns="http://www.w3.org/2000/svg">
<g clip-path="url(#clip0_412_7222)">
<path d="M32.8595 3.70568C24.911 3.70568 17.7127 6.92974 12.501 12.1454C7.2873 17.3492 4.06522 24.5515 4.06522 32.504C4.06522 40.4505 7.2873 47.6478 12.501 52.8536C17.7127 58.0623 24.911 61.2923 32.8595 61.2923C40.8101 61.2923 48.0123 58.0623 53.2161 52.8536C58.4278 47.6478 61.6429 40.4505 61.6429 32.504C61.6429 24.5515 58.4278 17.3492 53.2161 12.1454C48.0123 6.92974 40.8101 3.70568 32.8595 3.70568ZM32.8595 0.21666C50.6867 0.21666 65.1409 14.6729 65.1409 32.504C65.1409 50.3291 50.6867 64.7833 32.8595 64.7833C15.0344 64.7833 0.574219 50.3291 0.574219 32.504C0.574219 14.6729 15.0344 0.21666 32.8595 0.21666Z" fill="#007DB8"/>
<path d="M17.5903 32.2409C17.5903 30.3594 16.342 29.2907 14.5746 29.2907H13.493V35.193H14.5439C16.1872 35.193 17.5903 34.2999 17.5903 32.2409ZM36.8305 34.3644L28.8621 40.6389L21.5794 34.9053C20.5286 37.4297 17.9892 39.1832 15.0648 39.1832H8.83203V25.2986H15.0648C18.3326 25.2986 20.6873 27.3765 21.5775 29.5904L28.8621 23.8627L31.5603 25.9862L24.8839 31.2337L26.167 32.2379L32.8414 26.9934L35.5435 29.1111L28.8681 34.3644L30.1492 35.3707L36.8305 30.1163V25.2986H41.674V35.1305H46.5057V39.2H36.8305V34.3644ZM52.6412 35.1325H57.4709V39.2H47.7927V25.2986H52.6412V35.1325Z" fill="#007DB8"/>
</g>
<defs>
<clipPath id="clip0_412_7222">
<rect width="65" height="65" fill="white" transform="translate(0.357422)"/>
</clipPath>
</defs>
</svg>
