<svg width="24" height="25" viewBox="0 0 24 25" fill="none" xmlns="http://www.w3.org/2000/svg">
<path opacity="0.4" d="M3 18.5L3 6.5C3 4.29086 4.79086 2.5 7 2.5L13 2.5L21 10.5V18.5C21 20.7091 19.2091 22.5 17 22.5H7C4.79086 22.5 3 20.7091 3 18.5Z" fill="#7DA7BB"/>
<path d="M13 6.5L13 2.5L21 10.5L17 10.5C14.7909 10.5 13 8.70914 13 6.5Z" fill="#7DA7BB"/>
<path fill-rule="evenodd" clip-rule="evenodd" d="M11.25 13.5C11.25 12.5335 12.0335 11.75 13 11.75C14.5188 11.75 15.75 12.9812 15.75 14.5V14.55C15.75 14.9642 15.4142 15.3 15 15.3C14.5858 15.3 14.25 14.9642 14.25 14.55V14.5C14.25 13.8096 13.6904 13.25 13 13.25C12.8619 13.25 12.75 13.3619 12.75 13.5V17C12.75 18.2426 11.7426 19.25 10.5 19.25C9.25736 19.25 8.25 18.2426 8.25 17C8.25 15.7574 9.25736 14.75 10.5 14.75C10.763 14.75 11.0154 14.7951 11.25 14.878V13.5Z" fill="#7DA7BB"/>
</svg>
