<svg width="24" height="25" viewBox="0 0 24 25" fill="none" xmlns="http://www.w3.org/2000/svg">
<path opacity="0.4" d="M3 18.5L3 6.5C3 4.29086 4.79086 2.5 7 2.5L13 2.5L21 10.5V18.5C21 20.7091 19.2091 22.5 17 22.5H7C4.79086 22.5 3 20.7091 3 18.5Z" fill="#262E63"/>
<path d="M13 6.5L13 2.5L21 10.5L17 10.5C14.7909 10.5 13 8.70914 13 6.5Z" fill="#262E63"/>
<path d="M10 17.6315V13.3685C10 12.5698 10.8901 12.0934 11.5547 12.5365L14.7519 14.6679C15.3457 15.0638 15.3457 15.9362 14.7519 16.3321L11.5547 18.4635C10.8901 18.9066 10 18.4302 10 17.6315Z" fill="#262E63"/>
</svg>
