<svg width="24" height="25" viewBox="0 0 24 25" fill="none" xmlns="http://www.w3.org/2000/svg">
<path opacity="0.4" d="M3 18.5L3 6.5C3 4.29086 4.79086 2.5 7 2.5L13 2.5C15.6681 5.16808 18.3682 7.80757 21 10.5116V18.5C21 20.7091 19.2091 22.5 17 22.5H7C4.79086 22.5 3 20.7091 3 18.5Z" fill="#A31924"/>
<path d="M13 6.5L13 2.5L21 10.5L17 10.5C14.7909 10.5 13 8.70914 13 6.5Z" fill="#A31924"/>
<path d="M6.43652 18.5V14.2051H7.82812C8.35547 14.2051 8.69922 14.2266 8.85938 14.2695C9.10547 14.334 9.31152 14.4746 9.47754 14.6914C9.64355 14.9062 9.72656 15.1846 9.72656 15.5264C9.72656 15.79 9.67871 16.0117 9.58301 16.1914C9.4873 16.3711 9.36523 16.5127 9.2168 16.6162C9.07031 16.7178 8.9209 16.7852 8.76855 16.8184C8.56152 16.8594 8.26172 16.8799 7.86914 16.8799H7.30371V18.5H6.43652ZM7.30371 14.9316V16.1504H7.77832C8.12012 16.1504 8.34863 16.1279 8.46387 16.083C8.5791 16.0381 8.66895 15.9678 8.7334 15.8721C8.7998 15.7764 8.83301 15.665 8.83301 15.5381C8.83301 15.3818 8.78711 15.2529 8.69531 15.1514C8.60352 15.0498 8.4873 14.9863 8.34668 14.9609C8.24316 14.9414 8.03516 14.9316 7.72266 14.9316H7.30371Z" fill="#A31924"/>
<path d="M10.4355 14.2051H12.0205C12.3779 14.2051 12.6504 14.2324 12.8379 14.2871C13.0898 14.3613 13.3057 14.4932 13.4854 14.6826C13.665 14.8721 13.8018 15.1045 13.8955 15.3799C13.9893 15.6533 14.0361 15.9912 14.0361 16.3936C14.0361 16.7471 13.9922 17.0518 13.9043 17.3076C13.7969 17.6201 13.6436 17.873 13.4443 18.0664C13.2939 18.2129 13.0908 18.3271 12.835 18.4092C12.6436 18.4697 12.3877 18.5 12.0674 18.5H10.4355V14.2051ZM11.3027 14.9316V17.7764H11.9502C12.1924 17.7764 12.3672 17.7627 12.4746 17.7354C12.6152 17.7002 12.7314 17.6406 12.8232 17.5566C12.917 17.4727 12.9932 17.335 13.0518 17.1436C13.1104 16.9502 13.1396 16.6875 13.1396 16.3555C13.1396 16.0234 13.1104 15.7686 13.0518 15.5908C12.9932 15.4131 12.9111 15.2744 12.8057 15.1748C12.7002 15.0752 12.5664 15.0078 12.4043 14.9727C12.2832 14.9453 12.0459 14.9316 11.6924 14.9316H11.3027Z" fill="#A31924"/>
<path d="M14.7803 18.5V14.2051H17.7246V14.9316H15.6475V15.9482H17.4404V16.6748H15.6475V18.5H14.7803Z" fill="#A31924"/>
</svg>
