<svg width="93" height="93" viewBox="0 0 93 93" fill="none" xmlns="http://www.w3.org/2000/svg">
<path d="M58.1245 62H62.4897C67.0898 62 71.4522 64.0433 74.3971 67.5771L78.5316 72.5386C82.7381 77.5864 79.1487 85.25 72.5779 85.25H20.4211C13.8503 85.25 10.2609 77.5864 14.4673 72.5386L18.6019 67.5771C21.5468 64.0433 25.9092 62 30.5093 62H34.8745" stroke="white" stroke-width="2" stroke-linecap="round" stroke-linejoin="round"/>
<path d="M46.5 73.625V38.75M46.5 38.75V15.5C46.5 11.2198 49.9698 7.75 54.25 7.75H75.1051C77.9857 7.75 79.8593 10.7815 78.571 13.358L74.4915 21.517C73.946 22.608 73.946 23.892 74.4915 24.983L78.571 33.142C79.8593 35.7185 77.9857 38.75 75.1051 38.75H46.5Z" stroke="white" stroke-width="2" stroke-linecap="round"/>
</svg>
