<svg width="64" height="65" viewBox="0 0 64 65" fill="none" xmlns="http://www.w3.org/2000/svg">
<path fill-rule="evenodd" clip-rule="evenodd" d="M27.2323 47.7751C20.4163 47.7751 14.9123 42.2391 14.9123 35.4551C14.9123 28.6391 20.4163 23.1351 27.2323 23.1351C34.0163 23.1351 39.5523 28.6391 39.5523 35.4551C39.5523 42.2391 34.0163 47.7751 27.2323 47.7751ZM48.0963 41.0231H46.0483C44.6723 41.0231 43.4883 40.0311 43.2323 38.7191H42.2083C41.9203 38.7191 41.6643 38.4951 41.6643 38.1751V36.4151H40.7363C40.4483 36.4151 40.2243 36.1591 40.2243 35.8711V33.5671C40.2243 33.2791 40.4483 33.0231 40.7363 33.0231H41.8883C41.7923 30.6871 40.8963 28.4791 39.3283 26.7831C37.2483 24.5431 36.1923 21.5991 36.2883 18.5591C36.3203 17.6951 36.4483 16.8311 36.6723 16.0311L31.2003 14.0471C30.5923 13.8231 29.9203 14.1431 29.6963 14.7831L28.5763 18.0151C28.5123 18.2391 28.2883 18.3991 28.0643 18.3671C26.8163 18.3031 25.5683 18.3991 24.3523 18.5911C24.1283 18.6231 23.8723 18.5271 23.7763 18.3031L22.2723 15.2311C22.1443 14.9431 21.8883 14.7191 21.6003 14.6231C21.3123 14.5271 20.9923 14.5271 20.7043 14.6871L14.9123 17.5031C14.3043 17.7911 14.0803 18.4951 14.3683 19.0711L15.8723 22.1751C15.9683 22.3671 15.9043 22.6231 15.7443 22.7831C14.8163 23.6151 14.0163 24.5431 13.2803 25.5671C13.1523 25.7591 12.8963 25.8551 12.6723 25.7591L9.44026 24.6391C9.12026 24.5431 8.80026 24.5751 8.54426 24.7031C8.25626 24.8311 8.03226 25.0871 7.93626 25.3751L5.82426 31.4871C5.72826 31.7751 5.72826 32.0951 5.88826 32.3831C6.01626 32.6391 6.27226 32.8631 6.56026 32.9591L9.79226 34.0791C10.0163 34.1751 10.1763 34.3671 10.1763 34.6231C10.1123 35.8711 10.1763 37.1191 10.3683 38.3351C10.4323 38.5591 10.3043 38.7831 10.0803 38.8791L7.00826 40.3831C6.72026 40.5431 6.49626 40.7671 6.40026 41.0551C6.30426 41.3751 6.33626 41.6951 6.46426 41.9511L9.28026 47.7751C9.56826 48.3511 10.2723 48.6071 10.8483 48.3191L13.9523 46.8151C14.1443 46.7191 14.4003 46.7511 14.5603 46.9431C15.3923 47.8391 16.3203 48.6711 17.3443 49.3751C17.5363 49.5351 17.6323 49.7591 17.5363 49.9831L16.4163 53.2471C16.2243 53.8551 16.5443 54.5271 17.1523 54.7511L23.2643 56.8311C23.5523 56.9591 23.8723 56.9271 24.1603 56.7991C24.4483 56.6391 24.6403 56.4151 24.7683 56.1271L25.8883 52.8631C25.9523 52.6391 26.1763 52.5111 26.4003 52.5111C27.6483 52.5751 28.8963 52.5111 30.1123 52.2871C30.3363 52.2551 30.5603 52.3511 30.6883 52.5751L32.1923 55.6791C32.4483 56.2551 33.1523 56.4791 33.7603 56.2231L39.5523 53.3751C40.1283 53.0871 40.3843 52.3831 40.0963 51.8071L38.5923 48.7351C38.4963 48.5111 38.5283 48.2551 38.7203 48.0951C39.6163 47.2631 40.4483 46.3351 41.1843 45.3111C41.3123 45.1191 41.5683 45.0551 41.7923 45.1191L45.0243 46.2391C45.3123 46.3351 45.6323 46.3351 45.9203 46.1751C46.2083 46.0471 46.4323 45.8231 46.5283 45.5031L48.0963 41.0231ZM43.7123 37.6631H43.7443H51.3923H52.3843V36.4151H42.7523V37.6631H43.7123ZM51.8723 38.7191C51.6483 39.9991 50.5603 40.9591 49.2483 41.0231L47.5203 45.8551C47.3283 46.4311 46.9443 46.8791 46.4003 47.1351C45.8563 47.4231 45.2483 47.4551 44.6723 47.2631L41.7923 46.2711C41.1843 47.1031 40.4803 47.9031 39.7123 48.6071L41.0563 51.3591C41.6003 52.4471 41.1203 53.7911 40.0323 54.3351L34.2083 57.1831C33.6643 57.4391 33.0563 57.4711 32.5123 57.2791C31.9363 57.0871 31.4883 56.6711 31.2323 56.1271L29.8883 53.4071C28.8643 53.5671 27.8083 53.6311 26.7523 53.5991L25.7603 56.4791C25.5683 57.0231 25.1523 57.4711 24.6083 57.7591C24.3203 57.8871 23.9683 57.9831 23.6483 57.9831C23.3923 57.9831 23.1363 57.9191 22.9123 57.8551L16.8003 55.7431C15.6483 55.3591 15.0083 54.0791 15.4243 52.8951L16.4163 50.0151C15.5523 49.4071 14.7843 48.7031 14.0483 47.9351L11.3283 49.2791C10.2083 49.8231 8.86426 49.3431 8.32026 48.2231L5.50426 42.4311C5.24826 41.8871 5.21626 41.2791 5.40826 40.7351C5.60026 40.1591 5.98426 39.7111 6.52826 39.4231L9.28026 38.1111C9.12026 37.0871 9.05626 36.0311 9.08826 34.9751L6.20826 33.9831C5.63226 33.7911 5.18426 33.3751 4.92826 32.8311C4.67226 32.2871 4.60826 31.6791 4.83226 31.1351L6.91226 25.0231C7.10426 24.4471 7.52026 23.9991 8.06426 23.7431C8.60826 23.4871 9.21626 23.4551 9.76026 23.6471L12.6403 24.6391C13.2803 23.7751 13.9843 23.0071 14.7203 22.2711L13.4083 19.5511C12.8643 18.4311 13.3123 17.0871 14.4323 16.5431L20.2243 13.7271C20.7683 13.4711 21.3763 13.4071 21.9523 13.6311C22.5283 13.8231 22.9763 14.2071 23.2323 14.7511L24.5763 17.4711C25.6003 17.3431 26.6563 17.2791 27.7123 17.3111L28.7043 14.4311C29.0883 13.2471 30.3683 12.6391 31.5523 13.0231L36.9923 15.0071C37.6003 13.4071 38.5603 11.9671 39.8083 10.7511C41.9523 8.67112 44.7683 7.51912 47.7123 7.48712H47.8083C54.1443 7.48712 59.2963 12.6711 59.2963 19.0071C59.2963 21.8551 58.2403 24.6071 56.3523 26.7191C54.7203 28.4791 53.7923 30.7191 53.6963 33.0231H54.3683C54.6563 33.0231 54.9123 33.2791 54.9123 33.5671V35.8711C54.9123 36.1591 54.6563 36.4151 54.3683 36.4151H53.4403V38.1751C53.4403 38.4951 53.2163 38.7191 52.9283 38.7191H51.8723ZM44.3523 38.7191C44.5763 39.4551 45.2483 39.9671 46.0483 39.9671H49.0883C49.8883 39.9671 50.5603 39.4551 50.7843 38.7191H44.3523ZM41.2803 35.3271H42.2083H52.9283H53.8243V34.0791H53.1523H42.4643H41.2803V35.3271ZM39.6483 19.5831C39.3923 19.5831 39.1683 19.4231 39.1363 19.1351C39.0403 18.6871 39.0403 18.2071 39.0403 17.7271C39.1043 15.9351 39.8723 14.2711 41.1523 13.0231C42.4643 11.7751 44.1603 11.0711 45.9523 11.0391C46.2403 11.0391 46.4963 11.2951 46.4963 11.5831C46.4963 11.8711 46.2723 12.1271 45.9523 12.1271C42.8163 12.1271 40.2243 14.6231 40.0963 17.7911C40.0963 18.1751 40.1283 18.5911 40.1923 18.9751C40.2243 19.2631 40.0323 19.5511 39.7443 19.5831C39.7123 19.5831 39.6803 19.5831 39.6483 19.5831ZM42.9763 33.0231H52.6403C52.7363 30.4631 53.7603 27.9671 55.5523 26.0151C57.2803 24.0631 58.2403 21.5991 58.2403 19.0071C58.2403 13.2471 53.5683 8.57512 47.8083 8.57512H47.7123C43.1043 8.60712 39.2003 11.6151 37.8563 15.8071C37.8563 15.8391 37.8563 15.8391 37.8243 15.8711V15.9031C37.5683 16.7671 37.4083 17.6631 37.3763 18.5911C37.2483 21.3751 38.2403 24.0311 40.1283 26.0791C41.8563 27.9671 42.8483 30.3991 42.9763 33.0231ZM27.2323 24.1911C21.0243 24.1911 15.9683 29.2471 15.9683 35.4551C15.9683 41.6631 21.0243 46.6871 27.2323 46.6871C33.4403 46.6871 38.4963 41.6631 38.4963 35.4551C38.4963 29.2471 33.4403 24.1911 27.2323 24.1911Z" fill="#262E63"/>
<path fill-rule="evenodd" clip-rule="evenodd" d="M37.3762 18.5911C37.2482 21.3751 38.2402 24.0311 40.1282 26.0791C41.8562 27.9671 42.8482 30.3991 42.9762 33.0231H52.6402C52.7362 30.4631 53.7602 27.9671 55.5522 26.0151C57.2802 24.0631 58.2402 21.5991 58.2402 19.0071C58.2402 13.2151 53.5362 8.54311 47.7122 8.57511C43.1042 8.60711 39.2002 11.6151 37.8562 15.8071L37.8242 15.9031C37.5682 16.7671 37.4082 17.6631 37.3762 18.5911ZM39.6482 19.5831C39.3922 19.5831 39.1682 19.4231 39.1362 19.1351C38.4322 14.8791 41.7602 11.0391 45.9522 11.0391C46.6562 11.0391 46.6562 12.0951 45.9522 12.1271C42.3042 12.1271 39.5842 15.3911 40.1922 18.9751C40.2242 19.2951 39.9682 19.5831 39.6482 19.5831Z" fill="#A31924"/>
<path fill-rule="evenodd" clip-rule="evenodd" d="M27.2318 23.1351C34.0158 23.1351 39.5518 28.6391 39.5518 35.4551C39.5518 42.2391 34.0158 47.7751 27.2318 47.7751C20.4158 47.7751 14.9118 42.2391 14.9118 35.4551C14.9118 28.6391 20.4158 23.1351 27.2318 23.1351ZM41.8878 33.0231C41.7918 30.6871 40.8958 28.4791 39.3278 26.7831C36.6718 23.9031 35.6798 19.8071 36.6718 16.0311L31.1998 14.0471C30.5918 13.8231 29.9198 14.1431 29.6958 14.7831L28.5758 18.0151C28.5118 18.2391 28.2878 18.3991 28.0638 18.3671C26.8158 18.3031 25.5678 18.3991 24.3518 18.5911C24.1278 18.6231 23.8718 18.5271 23.7758 18.3031L22.2718 15.2311C21.9838 14.6551 21.2798 14.3991 20.7038 14.6871L14.9118 17.5031C14.3038 17.7911 14.0798 18.4951 14.3678 19.0711L15.8718 22.1751C15.9678 22.3671 15.9038 22.6231 15.7438 22.7831C14.8158 23.6151 14.0158 24.5431 13.2798 25.5671C13.1518 25.7591 12.8958 25.8551 12.6718 25.7591L9.43976 24.6391C8.79976 24.4471 8.12776 24.7671 7.93576 25.3751L5.82376 31.4871C5.59976 32.0951 5.95176 32.7671 6.55976 32.9591L9.79176 34.0791C10.0158 34.1751 10.1758 34.3671 10.1758 34.6231C10.1118 35.8711 10.1758 37.1191 10.3678 38.3351C10.4318 38.5591 10.3038 38.7831 10.0798 38.8791L7.00776 40.3831C6.43176 40.6711 6.17576 41.3751 6.46376 41.9511L9.27976 47.7751C9.56776 48.3511 10.2718 48.6071 10.8478 48.3191L13.9518 46.8151C14.1438 46.7191 14.3998 46.7511 14.5598 46.9431C15.3918 47.8391 16.3198 48.6711 17.3438 49.3751C17.5358 49.5351 17.6318 49.7591 17.5358 49.9831L16.4158 53.2471C16.2238 53.8551 16.5438 54.5271 17.1518 54.7511L23.2638 56.8311C23.8718 57.0551 24.5438 56.7351 24.7678 56.1271L25.8878 52.8631C25.9518 52.6391 26.1758 52.5111 26.3998 52.5111C27.6478 52.5751 28.8958 52.5111 30.1118 52.2871C30.3358 52.2551 30.5598 52.3511 30.6878 52.5751L32.1918 55.6791C32.4478 56.2551 33.1518 56.4791 33.7598 56.2231L39.5518 53.3751C40.1278 53.0871 40.3838 52.3831 40.0958 51.8071L38.5918 48.7351C38.4958 48.5111 38.5278 48.2551 38.7198 48.0951C39.6158 47.2631 40.4478 46.3351 41.1838 45.3111C41.3118 45.1191 41.5678 45.0551 41.7918 45.1191L45.0238 46.2391C45.6318 46.4631 46.3038 46.1111 46.5278 45.5031L48.0958 41.0231H46.0478C44.6718 41.0231 43.4878 40.0311 43.2318 38.7191H42.2078C41.9198 38.7191 41.6638 38.4951 41.6638 38.1751V36.4151H40.7358C40.4478 36.4151 40.2238 36.1591 40.2238 35.8711V33.5671C40.2238 33.2791 40.4478 33.0231 40.7358 33.0231H41.8878Z" fill="#7DA7BB"/>
<path fill-rule="evenodd" clip-rule="evenodd" d="M53.8233 34.0791H41.2793V35.3271H53.8233V34.0791Z" fill="#A31924"/>
<path fill-rule="evenodd" clip-rule="evenodd" d="M52.384 36.4151H42.752V37.6631H43.712H52.384V36.4151Z" fill="#A31924"/>
<path fill-rule="evenodd" clip-rule="evenodd" d="M50.7836 38.7191H44.3516C44.5756 39.4551 45.2476 39.9671 46.0476 39.9671H49.0876C49.8876 39.9671 50.5596 39.4551 50.7836 38.7191Z" fill="#A31924"/>
</svg>
