<svg width="25" height="25" viewBox="0 0 25 25" fill="none" xmlns="http://www.w3.org/2000/svg">
<path fill-rule="evenodd" clip-rule="evenodd" d="M2.62891 1.84631C3.04312 1.84631 3.37891 2.1821 3.37891 2.59631V18.5963C3.37891 20.3912 4.83398 21.8463 6.62891 21.8463H22.6289C23.0431 21.8463 23.3789 22.1821 23.3789 22.5963C23.3789 23.0105 23.0431 23.3463 22.6289 23.3463H6.62891C4.00555 23.3463 1.87891 21.2197 1.87891 18.5963V2.59631C1.87891 2.1821 2.21469 1.84631 2.62891 1.84631Z" fill="white"/>
<path opacity="0.4" fill-rule="evenodd" clip-rule="evenodd" d="M15.379 9.59631C15.379 9.1821 15.7148 8.84631 16.129 8.84631L18.011 8.84631C18.6739 8.84631 19.2798 9.22082 19.5763 9.81369L20.2999 11.2609C20.4851 11.6314 20.3349 12.0819 19.9645 12.2671C19.594 12.4524 19.1435 12.3022 18.9582 11.9317L18.4669 10.949L16.0207 14.6804C15.3148 15.7572 13.7268 15.7286 13.0601 14.6271L11.1519 11.4748C11.052 11.3097 10.8106 11.3152 10.7184 11.4848L8.28794 15.9546C8.09007 16.3185 7.63467 16.4531 7.27078 16.2552C6.90688 16.0573 6.77229 15.6019 6.97016 15.238L9.4006 10.7682C10.0459 9.58143 11.7355 9.54231 12.4351 10.698L14.3433 13.8504C14.4385 14.0077 14.6654 14.0118 14.7662 13.858L17.0684 10.3463H16.129C15.7148 10.3463 15.379 10.0105 15.379 9.59631Z" fill="white"/>
</svg>
