<svg width="71" height="123" viewBox="0 0 71 123" fill="none" xmlns="http://www.w3.org/2000/svg">
<g clip-path="url(#clip0_580_2475)">
<path d="M65.6292 56.3871L88.1312 78.8891L66.7481 100.148L44.2461 77.7702L45.1163 76.9L64.7589 57.2574L65.6292 56.3871Z" fill="#262E63"/>
<path d="M12.543 13.4966C12.4187 13.4966 12.2944 13.4966 12.2944 13.3723L10.0566 8.39948C10.0566 8.27516 10.0566 8.15084 10.181 8.15084L13.5376 6.659C13.6619 6.659 13.6619 6.659 13.7862 6.78332L16.024 11.7561C16.024 11.8804 16.024 11.8804 16.024 12.0048L15.8997 12.1291L12.543 13.4966Z" fill="#FFDB5E"/>
<path d="M9.80865 7.2806C9.18705 7.52924 8.93841 8.15084 9.18705 8.77245L11.3005 13.7453C11.4248 14.1182 11.9221 14.3669 12.2951 14.3669C12.4194 14.3669 12.5437 14.3669 12.668 14.2425L16.0247 12.7507C16.2733 12.6264 16.5219 12.3777 16.6463 12.1291C16.7706 11.8805 16.7706 11.5075 16.6463 11.2589L14.4085 6.28604C14.2842 5.91308 13.6626 5.54012 13.041 5.78876L9.80865 7.2806ZM1.97647 8.15084L19.0084 0.691625C20.0029 0.318664 21.1218 0.691625 21.4948 1.68619L26.0946 12.2534C26.0946 12.3777 26.0946 12.5021 25.9703 12.6264V12.7507C25.9703 12.875 25.9703 12.9993 25.9703 13.248C25.9703 13.8696 26.0946 14.4912 26.3433 15.1128C26.8405 16.356 27.4621 17.4749 27.9594 18.7181C29.0783 20.9558 30.1972 23.3179 31.5647 25.68C32.062 26.5502 32.5593 27.4205 33.0565 28.2907L33.3052 28.6637C33.3052 28.788 33.3052 28.788 33.3052 28.9123C33.3052 29.161 33.3052 29.4096 33.1809 29.6583C33.0566 30.1555 32.6836 30.5285 32.1863 30.6528L15.4031 38.2364C15.2787 38.2364 15.1544 38.2364 14.9058 38.2364H14.0355C15.0301 37.3661 15.6517 36.2472 15.6517 35.004C15.6517 33.8851 15.1544 32.7663 14.2842 32.0203C13.4139 31.2744 12.2951 30.7771 10.9275 30.7771H9.93297L9.80865 30.5285L9.43569 29.7826L9.06273 29.0367C9.06273 29.0367 9.06273 29.0367 9.06273 28.9123C9.06273 28.788 9.18705 28.6637 9.18705 28.4151C9.18705 28.0421 9.18705 27.6691 9.18705 27.2962C9.18705 27.2962 9.18705 27.2962 9.18705 27.1719C9.18705 26.7989 9.06273 26.4259 8.93841 26.053C8.81409 25.9286 8.81409 25.68 8.68977 25.5557C8.44113 24.8098 7.94385 24.1882 7.44657 23.6909C7.32225 23.5666 7.19793 23.4422 7.07361 23.4422L6.94929 23.3179L6.82497 23.1936C6.82497 23.1936 6.70065 23.1936 6.70065 23.0693C6.57633 23.0693 6.57633 22.945 6.45201 22.945L0.981912 10.6372C0.857592 10.2643 0.857592 9.64269 0.981912 9.26973C1.23055 8.77244 1.47919 8.39948 1.97647 8.15084Z" fill="#7DA7BB"/>
<path d="M11.4248 13.7452C11.5492 14.1182 12.0464 14.3668 12.4194 14.3668C12.5437 14.3668 12.668 14.3668 12.7924 14.2425L16.149 12.7507C16.3977 12.6264 16.6463 12.3777 16.7706 12.1291C16.8949 11.8804 16.8949 11.5075 16.7706 11.2588L14.5328 6.28603C14.2842 5.91306 13.6626 5.5401 13.041 5.78874L9.80868 7.28059C9.18708 7.52923 8.93844 8.15083 9.18708 8.77243L11.4248 13.7452ZM10.1816 8.02651L13.5383 6.53467C13.6626 6.53467 13.6626 6.53467 13.7869 6.65899L16.0247 11.6318C16.0247 11.7561 16.0247 11.7561 16.0247 11.8804L15.9004 12.0048L12.5437 13.4966C12.4194 13.4966 12.2951 13.4966 12.2951 13.3723L10.0573 8.39947C9.933 8.27515 10.0573 8.15083 10.1816 8.02651Z" fill="#262E63"/>
<path d="M6.69996 39.3552C5.7054 40.2255 5.0838 41.593 5.33244 43.0848C5.45676 44.701 6.69996 46.6901 9.55933 46.9388H10.0566C9.31069 47.5604 8.93773 48.4306 8.81341 49.5495C8.68909 51.0413 9.55933 53.0305 11.5485 53.6521L11.6728 53.7764C12.0457 54.025 13.0403 54.5223 14.2835 55.2682C16.7699 56.6357 19.0077 57.8789 21.2454 58.9978C21.4941 59.1221 22.1157 59.4951 22.8616 60.1167C25.8453 62.1058 31.4397 65.9598 35.7909 65.7111L37.1584 67.203L36.1639 68.1975C36.0396 68.0732 36.0396 68.1975 36.0396 68.3218C36.0396 68.4462 36.0396 68.5705 36.1639 68.5705L44.2447 76.6513L43.3745 77.5215C43.2501 77.6459 43.2501 77.6459 43.2501 77.7702C43.2501 77.8945 43.2501 78.0188 43.3745 78.0188L66.3737 101.018C66.498 101.142 66.6224 101.142 66.6224 101.142C66.7467 101.142 66.871 101.142 66.871 101.018L88.8757 79.0134C89 78.8891 89 78.7647 89 78.7647C89 78.7647 89 78.5161 88.8757 78.5161L66.0007 55.5169C65.8764 55.3925 65.5035 55.3925 65.3792 55.5169L64.5089 56.3871L56.4281 48.3063C56.3038 48.182 55.9308 48.182 55.8065 48.3063L54.9362 49.1765C53.9417 48.182 53.3201 47.436 53.0714 47.1874C53.8174 39.1066 46.6068 30.0312 45.2393 28.6637L42.3799 25.8043C42.3799 25.8043 40.6394 23.6909 39.2719 20.9558C38.7746 19.9613 38.2773 18.9667 37.78 18.0964C36.6612 15.8587 35.5423 13.6209 34.5477 11.3832C33.8018 9.64267 32.1856 8.6481 30.3208 8.6481C29.8235 8.6481 29.2019 8.77242 28.5803 9.02106C27.5858 9.39402 26.8399 10.1399 26.3426 11.0102L22.3643 1.31321C21.7427 -0.0543181 20.1266 -0.675919 18.759 -0.054318L1.72715 7.4049C0.98123 7.65354 0.483949 8.27514 0.235309 8.89674C-0.013332 9.64267 -0.013332 10.3886 0.235309 11.0102L5.20812 22.4477C4.4622 22.3233 3.71628 22.3233 2.97036 22.572C1.97579 23.0693 1.22987 23.9395 0.85691 25.0584C0.608269 26.1773 0.608269 27.4205 1.22987 28.6637C1.85147 30.1555 3.09468 31.2744 4.4622 31.6474C2.84604 32.6419 2.34875 34.3824 2.47307 35.7499C2.84604 37.4904 4.21356 39.1066 6.69996 39.3552ZM37.78 66.3327L36.2882 64.7166C36.1639 64.5922 36.1639 64.5922 36.0396 64.5922C31.937 64.9652 26.4669 61.2356 23.4832 59.2465C22.7373 58.7492 22.1157 58.2519 21.7427 58.1276C19.6293 57.0087 17.3915 55.7655 14.9051 54.398C14.5321 54.1493 14.1592 53.9007 13.7862 53.7764H17.2672C18.2618 53.7764 19.2563 53.4034 20.0022 52.6575C20.7482 51.9116 21.1211 50.917 21.1211 49.7981C21.1211 47.9333 19.7536 46.4415 17.8888 46.0685C19.0077 45.3226 19.7536 43.9551 19.7536 42.4632C19.7536 42.3389 19.7536 42.2146 19.7536 42.0903C19.7536 41.9659 19.7536 41.8416 19.6293 41.7173C19.6293 41.593 19.505 41.4687 19.505 41.3443C19.3806 40.8471 19.132 40.4741 18.8834 40.1011C18.759 39.9768 18.6347 39.8525 18.5104 39.7282C18.3861 39.6039 18.2618 39.4795 18.2618 39.4795C18.2618 39.4795 18.2618 39.4795 18.1374 39.3552C18.0131 39.3552 18.0131 39.2309 17.8888 39.2309C17.6402 39.1066 17.3915 38.9823 17.1429 38.8579C17.1429 38.8579 17.0185 38.8579 17.0185 38.7336H16.8942L32.6829 31.896C32.8072 31.896 32.9315 31.7717 32.9315 31.7717C32.9315 31.7717 32.9315 31.7717 32.9315 31.896C32.9315 32.0203 32.9315 32.0203 32.8072 32.0203C32.8072 32.0203 32.8072 32.1446 32.6829 32.1446C32.5586 32.269 32.5586 32.3933 32.4343 32.6419C32.4343 32.7662 32.4343 32.7662 32.3099 32.8906C32.1856 33.1392 32.0613 33.5122 32.0613 33.7608C31.937 34.1338 31.8127 34.3824 31.8127 34.7554C31.6883 35.004 31.6883 35.2526 31.6883 35.5013C31.6883 35.6256 31.6883 35.8743 31.564 35.9986C31.564 36.1229 31.564 36.1229 31.564 36.2472C31.564 36.4958 31.564 36.7445 31.4397 36.9931C31.4397 37.2418 31.4397 37.6147 31.3154 37.8634C31.3154 38.2363 31.3154 38.485 31.3154 38.8579C31.3154 41.0957 31.6883 43.3335 32.5586 45.5712C32.6829 45.9442 32.8072 46.1928 32.9315 46.5658C35.045 51.29 38.8989 55.0196 43.4988 56.6357C43.7474 56.7601 44.1204 56.7601 44.369 56.8844C44.369 56.8844 44.4933 56.8844 44.6177 56.8844C44.8663 57.0087 45.2393 57.0087 45.4879 57.133C45.7365 57.133 45.8609 57.2573 46.1095 57.2573H46.2338C46.4825 57.2573 46.7311 57.3817 46.9797 57.3817L45.7365 58.6249L37.78 66.3327ZM64.7575 57.2573L65.6278 56.3871L88.0054 78.8891L66.7467 100.148L44.369 77.7702L45.2393 76.8999L64.7575 57.2573ZM56.0551 49.3008L63.763 57.0087L44.8663 76.0297L37.1584 68.3218L38.153 67.3273L48.0986 57.3817L55.1849 50.2954L56.0551 49.3008ZM29.2019 9.89131C29.5749 9.64267 30.0722 9.64267 30.4451 9.64267C31.937 9.64267 33.3045 10.5129 33.8018 11.8804C34.7964 14.1182 35.9152 16.4803 37.0341 18.5937C37.5314 19.5883 38.0287 20.4585 38.4016 21.4531C39.7692 24.3125 41.5097 26.4259 41.634 26.4259L44.4933 29.2853C44.6177 29.4096 52.9471 38.7336 52.0769 47.3117C52.0769 47.436 52.0769 47.5604 54.1903 49.7981L47.6013 56.3871L47.477 56.5114C47.2284 56.5114 46.8554 56.5114 46.6068 56.3871C46.2338 56.3871 45.9852 56.2628 45.6122 56.2628C44.8663 56.1385 44.2447 55.8898 43.4988 55.6412C39.1476 54.1493 35.418 50.6684 33.5532 46.0685C33.4288 45.6956 33.3045 45.4469 33.1802 45.074C31.4397 40.2255 31.6883 35.1283 33.9261 30.9014C34.2991 30.1555 34.4234 29.161 34.0504 28.415C34.0504 28.415 34.0504 28.2907 33.9261 28.2907L33.6775 27.9178C33.1802 27.0475 32.6829 26.1773 32.1856 25.307C30.9424 22.9449 29.6992 20.5829 28.7047 18.3451C28.2074 17.2262 27.5858 15.983 27.0885 14.7398C26.8399 13.9939 26.7155 13.248 26.8399 12.3777C26.8399 12.3777 26.8399 12.3777 26.8399 12.2534C27.3371 11.1345 28.0831 10.2643 29.2019 9.89131ZM0.98123 10.6372C0.85691 10.2643 0.85691 9.64266 0.98123 9.2697C1.22987 8.77242 1.47851 8.39946 1.97579 8.15082L19.0077 0.691604C20.0022 0.318643 21.1211 0.691604 21.4941 1.68617L26.0939 12.2534C26.0939 12.3777 26.0939 12.502 25.9696 12.6264V12.7507C25.9696 12.875 25.9696 12.9993 25.9696 13.248C25.9696 13.8696 26.0939 14.4912 26.3426 15.1128C26.8399 16.356 27.4615 17.4748 27.9587 18.718C29.0776 20.9558 30.1965 23.3179 31.564 25.68C32.0613 26.5502 32.5586 27.4205 33.0559 28.2907L33.3045 28.6637C33.3045 28.788 33.3045 28.788 33.3045 28.9123C33.3045 29.161 33.3045 29.4096 33.1802 29.6582C33.0559 30.1555 32.6829 30.5285 32.1856 30.6528L15.4024 38.2363C15.2781 38.2363 15.1537 38.2363 14.9051 38.2363H14.0349C15.0294 37.3661 15.651 36.2472 15.651 35.004C15.651 33.8851 15.1537 32.7662 14.2835 32.0203C13.4133 31.2744 12.2944 30.7771 10.9269 30.7771H9.93229L9.80797 30.5285L9.43501 29.7826L9.06205 29.0366C9.06205 29.0366 9.06205 29.0366 9.06205 28.9123C9.06205 28.788 9.18637 28.6637 9.18637 28.415C9.18637 28.0421 9.18637 27.6691 9.18637 27.2962C9.18637 27.2962 9.18637 27.2962 9.18637 27.1718C9.18637 26.7989 9.06205 26.4259 8.93773 26.0529C8.81341 25.9286 8.81341 25.68 8.68909 25.5557C8.44045 24.8097 7.94317 24.1881 7.44589 23.6909C7.32157 23.5665 7.19725 23.4422 7.07292 23.4422L6.9486 23.3179L6.82428 23.1936C6.82428 23.1936 6.69996 23.1936 6.69996 23.0693C6.57564 23.0693 6.57564 22.9449 6.45132 22.9449L0.98123 10.6372ZM8.31613 30.4042C8.44045 30.2798 8.44045 30.1555 8.56477 30.0312L8.81341 30.7771H8.06749C8.19181 30.6528 8.31613 30.5285 8.31613 30.4042ZM2.10011 28.415C1.60283 27.4205 1.60283 26.3016 1.85147 25.4313C2.10011 24.5611 2.59739 23.8152 3.34332 23.4422C3.71628 23.3179 4.08924 23.3179 4.4622 23.3179C4.95948 23.3179 5.45676 23.4422 5.82972 23.6909C6.69996 24.1881 7.44589 24.9341 7.81885 25.9286C8.19181 26.9232 8.31613 28.0421 8.06749 28.9123C7.81885 29.7826 7.19725 30.5285 6.57564 30.7771C6.327 30.9014 6.07836 30.9014 5.7054 30.9014C4.33788 31.1501 2.84604 30.0312 2.10011 28.415ZM6.07836 32.0203C6.57564 31.7717 7.07293 31.7717 7.57021 31.7717H9.18637H9.93229H10.8025C12.916 31.7717 14.6565 33.2635 14.6565 35.1283C14.6565 36.3715 13.9105 37.4904 12.6673 38.112C12.4187 38.2363 12.1701 38.3607 11.9214 38.3607C11.6728 38.3607 11.5485 38.6093 11.6728 38.8579C11.6728 39.1066 11.9214 39.2309 12.0457 39.2309H13.2889H14.7808C14.9051 39.2309 15.0294 39.2309 15.2781 39.2309C17.1429 39.4795 18.6347 40.8471 18.6347 42.5875C18.6347 44.328 17.1429 45.8199 15.1537 46.0685C14.9051 46.0685 14.7808 46.3172 14.7808 46.5658C14.7808 46.8144 15.0294 46.9388 15.2781 46.9388H17.0185C18.6347 46.9388 20.0022 48.3063 20.0022 49.9224C20.0022 50.6684 19.7536 51.4143 19.132 52.0359C18.6347 52.6575 17.8888 52.9061 17.0185 52.9061H12.6673C12.4187 52.9061 12.1701 52.7818 11.7971 52.7818C10.0566 52.2845 9.55933 50.7927 9.68365 49.5495C9.80797 48.4306 10.4296 47.1874 12.0457 46.9388H12.1701C12.4187 46.9388 12.543 46.6901 12.543 46.4415C12.543 46.1928 12.2944 46.0685 12.0457 46.0685H11.9214H9.55933C7.19725 45.8199 6.327 44.328 6.07836 42.9605C5.95404 41.593 6.57564 39.9768 8.31613 39.3552C8.56477 39.3552 8.68909 39.1066 8.56477 38.8579C8.56477 38.6093 8.31613 38.485 8.19181 38.485C7.94317 38.485 7.69453 38.485 7.57021 38.485C4.95948 38.6093 3.59196 36.9931 3.46764 35.6256C3.219 34.3824 3.96492 32.6419 6.07836 32.0203Z" fill="#262E63"/>
</g>
<defs>
<clipPath id="clip0_580_2475">
<rect width="70.2081" height="122.85" fill="white"/>
</clipPath>
</defs>
</svg>
