<svg width="77" height="29" viewBox="0 0 77 29" fill="none" xmlns="http://www.w3.org/2000/svg">
<path fill-rule="evenodd" clip-rule="evenodd" d="M74.09 0.46936C72.8367 0.46936 71.803 1.49119 71.803 2.75635C71.803 4.03249 72.8367 5.06621 74.09 5.06621C75.356 5.06621 76.3998 4.03249 76.3998 2.75635C76.3998 1.49119 75.356 0.46936 74.09 0.46936ZM74.09 0.812409C75.1657 0.812409 76.0568 1.68146 76.0568 2.75635C76.0568 3.83123 75.1657 4.72316 74.09 4.72316C73.0151 4.72316 72.146 3.83123 72.146 2.75635C72.146 1.68146 73.0151 0.812409 74.09 0.812409ZM26.1547 0.972498C23.3106 0.972498 21.2321 2.86155 20.9403 6.18683H18.7448V7.83347H20.9175V23.6594H23.3874V7.83347H28.899C26.8499 9.49016 25.5372 12.197 25.5372 15.2204C25.5372 20.2363 29.1543 24.2897 33.6331 24.3455C33.6551 24.3565 33.6907 24.3684 33.7246 24.3684C38.2483 24.3684 41.8891 20.2701 41.8891 15.2204C41.8891 14.6267 41.8297 14.0312 41.7291 13.4595C42.546 14.7585 44.1066 15.4107 46.1887 16.3182C48.6632 17.3592 50.0308 18.2603 50.0308 19.8173C50.0308 21.6871 48.2845 22.6413 46.303 22.6303C44.3655 22.6303 42.8369 21.8436 41.1573 20.3204V23.2478C42.1874 23.9092 43.7782 24.2998 45.5026 24.2998C46.8236 24.2879 49.0108 23.9869 50.5111 22.7218C51.4625 21.9268 52.1349 20.7284 52.1349 18.9711C52.123 17.5266 51.4853 16.5304 50.5111 15.7464C49.6603 15.064 48.5653 14.5353 47.4237 14.0541C44.4451 12.5758 43.319 12.2684 43.3528 10.5779C43.3528 8.32654 45.2949 7.65051 46.829 7.65051C47.4895 7.65051 48.0521 7.75754 48.59 7.94782C49.5972 8.31739 49.9238 9.05197 50.2824 9.86889C50.394 10.1159 50.4663 10.2714 50.5111 10.372C50.533 10.4059 50.5459 10.4415 50.5568 10.4635C50.5733 10.5074 50.566 10.5102 50.5568 10.4864L55.1994 21.6469C54.4154 23.4271 53.54 25.3079 52.9353 26.4953L52.9124 26.5182C52.8228 26.6975 52.7395 26.864 52.6609 26.9984C52.5602 27.1887 52.477 27.3442 52.4093 27.4558L51.8375 28.5307H54.2389C55.2918 26.2017 59.7707 15.3083 60.7339 12.9792C61.3606 14.6588 62.8993 15.3458 65.2622 16.3639C67.7257 17.4059 69.1272 18.307 69.1272 19.863C69.1272 21.7219 67.3589 22.6989 65.3765 22.676C63.3722 22.676 61.8171 21.8408 60.0478 20.2061L59.8877 20.0689V23.0419C60.873 23.8698 62.6385 24.3455 64.5761 24.3455C66.7368 24.3455 71.2083 23.5634 71.2083 19.0397C71.1974 16.3301 68.9378 15.1409 66.4971 14.0998C63.5186 12.6224 62.5068 12.326 62.5407 10.6465C62.5407 8.39607 64.3794 7.71912 65.9025 7.71912C67.6489 7.71912 68.7366 8.36039 70.2707 9.4801V6.85006C69.0284 6.41279 67.9773 6.25544 66.5658 6.25544C63.7445 6.25544 61.2005 7.27819 60.551 9.66306L57.0519 18.3079L56.686 19.4056L56.3658 18.3079L51.6546 6.82719C51.3298 6.73754 50.9365 6.61953 50.5111 6.52988C49.6375 6.33961 48.6312 6.19873 47.8582 6.2097C47.7466 6.19873 47.6386 6.18683 47.5151 6.18683C44.2466 6.18683 41.0887 7.55903 41.0887 10.8066C41.0887 10.9968 41.0997 11.188 41.1116 11.3554C39.8016 8.24238 37.0051 6.09535 33.7246 6.09535H33.6331C33.2635 6.10725 32.9049 6.13103 32.5582 6.18683H23.3417C22.9721 3.86966 24.0396 2.52765 25.6744 2.52765C27.7235 2.52765 28.6091 3.15063 29.4937 3.96845H29.5851C29.5851 3.96845 29.597 3.86234 29.608 3.69402V1.45277C29.0143 1.18382 28.0126 0.972498 26.1547 0.972498ZM0.357422 1.04111V23.6594H3.07894V1.04111H0.357422ZM73.2438 1.49851V3.92271H73.6783V2.93931H74.1814L74.5702 3.92271H75.0734L74.616 2.8707C74.7724 2.79203 75.0276 2.71244 75.0276 2.27608C75.0276 1.60371 74.5382 1.49851 74.09 1.49851H73.2438ZM73.6783 1.91016H74.1586C74.4156 1.91016 74.5702 2.01719 74.5702 2.23034C74.5702 2.44257 74.4056 2.55052 74.2043 2.55052H73.6783V1.91016ZM13.5762 6.11822C10.5867 6.11822 9.33523 7.19311 8.33901 8.26799C8.29419 8.31282 8.25851 8.38417 8.22466 8.47382H8.17892L8.15605 6.34692H5.75472V8.63391V23.6594H8.22466V11.0124C8.29144 9.46729 10.5016 7.92495 12.204 7.92495C14.2532 7.92495 15.9318 9.31452 15.9318 11.2182V23.6594H18.3789V10.0976C18.3121 8.56347 16.4432 6.11822 13.5762 6.11822ZM33.4959 7.90208H33.6331C36.6565 7.93592 39.1237 11.1789 39.1905 15.2204C39.2582 19.3297 36.8376 22.7117 33.7475 22.7675H33.6331C30.5987 22.7337 28.1087 19.4797 28.03 15.4263C27.9623 11.328 30.4167 7.95788 33.4959 7.90208Z" fill="#2A7CC9"/>
</svg>
