<svg width="25" height="24" viewBox="0 0 25 24" fill="none" xmlns="http://www.w3.org/2000/svg">
<path fill-rule="evenodd" clip-rule="evenodd" d="M7.73633 2C4.9749 2 2.73633 4.23858 2.73633 7V17C2.73633 19.7614 4.9749 22 7.73633 22H17.7363C20.4978 22 22.7363 19.7614 22.7363 17V7C22.7363 4.23858 20.4978 2 17.7363 2H7.73633ZM18.7363 7C19.2886 7 19.7363 6.55228 19.7363 6C19.7363 5.44772 19.2886 5 18.7363 5C18.184 5 17.7363 5.44772 17.7363 6C17.7363 6.55228 18.184 7 18.7363 7ZM17.7363 12C17.7363 14.7614 15.4978 17 12.7363 17C9.9749 17 7.73633 14.7614 7.73633 12C7.73633 9.23858 9.9749 7 12.7363 7C15.4978 7 17.7363 9.23858 17.7363 12ZM12.7363 15C14.3932 15 15.7363 13.6569 15.7363 12C15.7363 10.3431 14.3932 9 12.7363 9C11.0795 9 9.73633 10.3431 9.73633 12C9.73633 13.6569 11.0795 15 12.7363 15Z" fill="#7DA7BB"/>
</svg>
