<svg width="145" height="46" viewBox="0 0 145 46" fill="none" xmlns="http://www.w3.org/2000/svg">
<path d="M17.8716 10.8596C11.1653 10.8596 5.73047 16.2961 5.73047 23.0008C5.73047 29.7055 11.1653 35.1403 17.8716 35.1403C24.578 35.1403 30.0078 29.7039 30.0078 23.0008C30.0078 16.2978 24.573 10.8596 17.8716 10.8596ZM19.0685 17.4066C19.1299 17.3153 19.1946 17.2307 19.3009 17.2307H22.669C22.8483 17.2307 22.9711 17.4199 22.8931 17.5793C21.8241 19.7937 19.6412 20.3266 17.1678 20.7731C16.9752 20.808 16.8375 20.5905 16.9537 20.4328C17.5695 19.5928 18.3248 18.5172 19.0668 17.4066H19.0685ZM22.8931 29.2889H19.5897C19.5051 29.2889 19.4237 29.244 19.3806 29.1727L15.6937 22.4082C15.5825 22.2289 15.3119 22.2621 15.2488 22.4646L14.3143 25.4344C14.2827 25.5356 14.1864 25.607 14.0819 25.607H13.3614C13.2253 25.607 13.1157 25.4958 13.1157 25.3613V17.4764C13.1157 17.3402 13.227 17.2307 13.3614 17.2307H16.3926C16.5553 17.2307 16.6731 17.3884 16.63 17.5444L15.5111 21.55C15.4314 21.7542 15.7336 21.9832 15.8896 21.8206C16.0008 21.6778 16.1071 21.5417 16.2083 21.4105C16.3096 21.2794 16.4988 21.2777 16.6051 21.4006L23.0608 28.8622C23.2235 29.0133 23.1172 29.2905 22.8915 29.2905L22.8931 29.2889Z" fill="#034A78"/>
<path d="M59.2478 22.7997C59.0089 25.4804 57.151 28.4243 54.4459 28.4243C52.8534 28.4243 51.6613 27.575 51.6613 25.0823V16.1399H48.9982L42.177 22.7466V10.8604H40.7969V29.4329H42.177V24.4187L43.6899 22.9589L49.0757 29.4329H50.6682L44.537 22.1096L50.3054 16.4916V25.1619C50.3054 28.2651 51.7652 29.6187 53.9394 29.6187C56.4609 29.6187 58.3166 27.8139 59.2455 25.6109V29.4329H60.5992V16.1399H59.2455V22.7997H59.2478Z" fill="#034A78"/>
<path d="M63.1926 10.8604H61.8125V29.4329H63.1926V10.8604Z" fill="#034A78"/>
<path d="M76.2597 21.738C76.2597 18.449 74.0037 15.9541 70.582 15.9541C66.8396 15.9541 64.4531 18.8471 64.4531 22.7731C64.4531 27.0198 67.1073 29.6187 70.7147 29.6187C73.8466 29.6187 75.6227 27.628 76.2597 25.6109L75.0123 25.2658C74.4284 26.8583 73.1809 28.4486 70.7678 28.4486C68.034 28.4486 65.9129 26.4049 65.9129 22.7178H76.1823C76.2354 22.3993 76.2619 22.0543 76.2619 21.7358L76.2597 21.738ZM65.9903 21.6318C66.3354 18.9268 68.0075 17.0954 70.5267 17.0954C73.1809 17.0954 74.7977 19.1126 74.8508 21.6318H65.9881H65.9903Z" fill="#034A78"/>
<path d="M83.3628 15.9541C80.4697 15.9541 78.5875 17.4935 77.9505 19.535L79.2245 19.9066C79.8084 18.1814 81.1885 17.1197 83.2831 17.1197C85.6453 17.1197 86.7579 18.4468 86.7579 20.5436C86.7579 21.6318 85.1919 21.8972 82.9646 22.083C80.0185 22.3219 77.4727 23.1181 77.4727 26.0621C77.4727 28.3446 79.3306 29.6164 81.6906 29.6164C83.814 29.6164 85.882 28.4486 86.7579 26.4845V29.4306H88.138V20.5193C88.138 17.6262 86.519 15.9563 83.3628 15.9563V15.9541ZM86.7601 23.649C86.7601 26.6725 84.5571 28.5039 82.1175 28.5039C80.5515 28.5039 78.959 27.7873 78.959 25.905C78.959 23.7817 80.7373 23.3039 83.3119 23.0916C84.8778 22.9589 86.1518 22.6669 86.7601 21.9769V23.649Z" fill="#034A78"/>
<path d="M96.0075 15.9541C93.4882 15.9541 91.6303 17.7589 90.7013 19.9597V16.1399H89.3477V29.4329H90.7013V22.7731C90.9402 20.0946 92.7981 17.1485 95.5032 17.1485C97.0957 17.1485 98.2901 17.9978 98.2901 20.4927V29.4351H99.6437V20.4131C99.6437 17.3077 98.1839 15.9563 96.0097 15.9563L96.0075 15.9541Z" fill="#034A78"/>
<path d="M108.181 16.0075C106.084 15.981 104.467 16.7507 103.509 18.4493V16.1667H100.855L100.908 34.7393H103.509V27.1506C104.465 28.8493 106.084 29.5924 108.181 29.5924C111.682 29.5924 113.965 27.3895 113.965 22.8C113.965 18.2105 111.682 16.034 108.181 16.0075ZM107.491 27.5222C105.367 27.5222 103.509 26.3543 103.509 22.8C103.509 19.2456 105.367 18.0512 107.491 18.0778C109.853 18.1043 111.364 19.6968 111.364 22.8C111.364 25.9031 109.851 27.5222 107.491 27.5222Z" fill="#034A78"/>
<path d="M120.673 16.0869C118.098 16.0604 115.552 17.069 115.101 20.1987L117.49 20.6499C117.835 18.5531 119.348 18.2611 120.673 18.2611C122.106 18.2611 123.645 18.9247 123.645 20.5437C123.645 23.0386 114.57 19.5351 114.57 25.6641C114.57 30.2005 121.522 31.0233 123.645 27.1504V29.433H126.324V21.2891C126.324 17.3101 123.51 16.1157 120.673 16.0891V16.0869ZM123.645 23.7022C123.645 28.8756 117.384 29.0083 117.384 25.6663C117.384 22.3242 121.973 23.6226 123.645 22.5078V23.7022Z" fill="#034A78"/>
<path d="M136.428 16.1667L133.111 25.8788L129.819 16.1667H126.926L131.887 29.4066L131.224 31.3176C130.746 32.5651 130.481 32.8305 129.233 32.8305H128.517V35.1396H129.233C131.542 35.1396 132.496 34.7415 133.637 31.3198L139.315 16.169H136.422L136.428 16.1667Z" fill="#034A78"/>
</svg>
