<svg width="25" height="24" viewBox="0 0 25 24" fill="none" xmlns="http://www.w3.org/2000/svg">
<path fill-rule="evenodd" clip-rule="evenodd" d="M6.73633 4C6.73633 5.10457 5.8409 6 4.73633 6C3.63176 6 2.73633 5.10457 2.73633 4C2.73633 2.89543 3.63176 2 4.73633 2C5.8409 2 6.73633 2.89543 6.73633 4ZM6.73633 8.5V22H2.73633V8.5H6.73633ZM9.73633 8.5H13.7363V9.34141C14.3619 9.12031 15.0351 9 15.7363 9C19.05 9 21.7363 11.6863 21.7363 15V22H17.7363V15C17.7363 13.8954 16.8409 13 15.7363 13C14.6318 13 13.7363 13.8954 13.7363 15V22H9.73633V15V8.5Z" fill="#7DA7BB"/>
</svg>
