<svg width="64" height="65" viewBox="0 0 64 65" fill="none" xmlns="http://www.w3.org/2000/svg">
<path opacity="0.15" d="M28.5326 62.8684C38.1055 62.8684 45.8659 61.973 45.8659 60.8684C45.8659 59.7639 38.1055 58.8684 28.5326 58.8684C18.9596 58.8684 11.1992 59.7639 11.1992 60.8684C11.1992 61.973 18.9596 62.8684 28.5326 62.8684Z" fill="#262E63"/>
<path d="M38.0007 51.8018H9.33398C7.06732 51.8018 5.33398 50.0684 5.33398 47.8018V26.4684C5.33398 24.2018 7.06732 22.4684 9.33398 22.4684H38.0007C40.2673 22.4684 42.0007 24.2018 42.0007 26.4684V47.8018C42.0007 49.9351 40.134 51.8018 38.0007 51.8018Z" fill="#FFDB5E"/>
<path d="M38.0007 22.4684H9.33398C7.06732 22.4684 5.33398 24.2018 5.33398 26.4684V31.8018C5.33398 29.5351 7.06732 27.8018 9.33398 27.8018H38.0007C40.2673 27.8018 42.0007 29.5351 42.0007 31.8018V26.4684C42.0007 24.2018 40.134 22.4684 38.0007 22.4684Z" fill="#FFDB5E"/>
<path d="M38.0007 51.8018H9.33398C7.06732 51.8018 5.33398 50.0684 5.33398 47.8018V26.4684C5.33398 24.2018 7.06732 22.4684 9.33398 22.4684H38.0007C40.2673 22.4684 42.0007 24.2018 42.0007 26.4684V47.8018C42.0007 49.9351 40.134 51.8018 38.0007 51.8018Z" stroke="#262E63" stroke-miterlimit="10" stroke-linecap="round" stroke-linejoin="round"/>
<path d="M23.6007 2.46844C15.734 2.46844 9.33398 8.86844 9.33398 16.7351V22.3351H15.334V16.7351C15.334 12.0684 19.0673 8.46844 23.734 8.46844C28.4006 8.46844 32.0007 12.2018 32.0007 16.7351V22.3351H38.0006V16.7351C38.0006 8.86844 31.6007 2.46844 23.6007 2.46844Z" fill="#7DA7BB"/>
<path d="M23.6007 2.46844C15.734 2.46844 9.33398 8.86844 9.33398 16.7351V20.0684C9.33398 12.2018 15.734 5.80178 23.6007 5.80178C31.4673 5.80178 38.0006 12.2018 38.0006 20.2018V16.7351C38.0006 8.86844 31.6007 2.46844 23.6007 2.46844Z" fill="white"/>
<path d="M23.6007 2.46844C15.734 2.46844 9.33398 8.86844 9.33398 16.7351V22.3351H15.334V16.7351C15.334 12.0684 19.0673 8.46844 23.734 8.46844C28.4006 8.46844 32.0006 12.2018 32.0006 16.7351V22.3351H38.0006V16.7351C38.0006 8.86844 31.6007 2.46844 23.6007 2.46844Z" stroke="#262E63" stroke-miterlimit="10" stroke-linecap="round" stroke-linejoin="round"/>
<path d="M55.7332 32.6018C51.8665 28.7351 45.4665 28.7351 41.5999 32.6018C38.5332 35.6684 37.8665 40.2018 39.5999 43.9351L26.9332 56.7351C26.6665 57.0018 26.5332 57.4018 26.5332 57.8018L26.7999 60.3351C26.9332 61.0018 27.3332 61.4018 27.9999 61.5351L30.5332 61.8018C30.9332 61.8018 31.3332 61.6684 31.5999 61.4018L33.0665 59.9351C33.3332 59.6685 33.4665 59.4018 33.4665 59.0018V57.6684H34.7999C35.1999 57.6684 35.4665 57.5351 35.7332 57.2685L36.9332 56.0684C37.1999 55.8018 37.3332 55.5351 37.3332 55.1351V54.3351C37.3332 53.9351 37.4665 53.6684 37.7332 53.4018L39.3332 51.8018C39.5999 51.5351 39.8665 51.4018 40.2665 51.4018H41.0665C41.4665 51.4018 41.7332 51.2685 41.9999 51.0018L44.2665 48.7351C47.9999 50.4685 52.5332 49.8018 55.5999 46.7351C59.5999 42.8685 59.5999 36.4684 55.7332 32.6018ZM51.0665 37.2684C50.2665 36.4684 50.2665 35.2684 51.0665 34.4684C51.8665 33.6684 53.0665 33.6684 53.8665 34.4684C54.6665 35.2684 54.6665 36.4684 53.8665 37.2684C53.0665 38.0684 51.8665 38.0684 51.0665 37.2684Z" fill="#E1B17F"/>
<path d="M41.5999 36.8685C44.2665 34.2018 47.9999 33.4018 51.3332 34.3351C52.1332 33.8018 53.1999 33.8018 53.8665 34.6018C54.2665 35.0018 54.3999 35.4018 54.3999 35.8018C54.9332 36.0684 55.3332 36.4685 55.7332 36.8685C57.1999 38.3351 57.9999 40.0684 58.3999 41.8018C59.0665 38.6018 58.1332 35.1351 55.7332 32.6018C51.8665 28.7351 45.4665 28.7351 41.5999 32.6018C39.0665 35.1351 38.2665 38.6018 38.9332 41.8018C39.3332 39.9351 40.2665 38.2018 41.5999 36.8685ZM27.0665 60.8684L39.7332 48.2018C39.1999 47.1351 38.9332 46.0684 38.7999 44.8684L26.9332 56.7351C26.6665 57.0018 26.5332 57.4018 26.5332 57.8018L26.7999 60.3351C26.9332 60.4685 26.9332 60.6018 27.0665 60.8684Z" fill="#E1B17F"/>
<path d="M27.0665 60.4684L39.1999 48.2018M55.7332 32.6018C51.8665 28.7351 45.4665 28.7351 41.5999 32.6018C38.5332 35.6684 37.8665 40.2018 39.5999 43.9351L26.9332 56.7351C26.6665 57.0018 26.5332 57.4018 26.5332 57.8018L26.7999 60.3351C26.9332 61.0018 27.3332 61.4018 27.9999 61.5351L30.5332 61.8018C30.9332 61.8018 31.3332 61.6684 31.5999 61.4018L33.0665 59.9351C33.3332 59.6685 33.4665 59.4018 33.4665 59.0018V57.6685H34.7999C35.1999 57.6685 35.4665 57.5351 35.7332 57.2685L36.9332 56.0684C37.1999 55.8018 37.3332 55.5351 37.3332 55.1351V54.3351C37.3332 53.9351 37.4665 53.6684 37.7332 53.4018L39.3332 51.8018C39.5999 51.5351 39.8665 51.4018 40.2665 51.4018H41.0665C41.4665 51.4018 41.7332 51.2685 41.9999 51.0018L44.2665 48.7351C47.9999 50.4685 52.5332 49.8018 55.5999 46.7351C59.5999 42.8684 59.5999 36.4684 55.7332 32.6018ZM51.0665 37.2684C50.2665 36.4684 50.2665 35.2684 51.0665 34.4684C51.8665 33.6684 53.0665 33.6684 53.8665 34.4684C54.6665 35.2684 54.6665 36.4684 53.8665 37.2684C53.0665 38.0684 51.8665 38.0684 51.0665 37.2684Z" stroke="#262E63" stroke-miterlimit="10" stroke-linecap="round" stroke-linejoin="round"/>
</svg>
