<svg width="154" height="21" viewBox="0 0 154 21" fill="none" xmlns="http://www.w3.org/2000/svg">
<g clip-path="url(#clip0_412_7220)">
<path d="M66.197 13.498H76.3051L70.9659 4.87553L61.1495 20.449H56.6857L68.6245 1.76482C68.8848 1.39198 69.2306 1.08694 69.633 0.875262C70.0354 0.663579 70.4827 0.551416 70.9374 0.548168C71.3921 0.544921 71.8409 0.650683 72.2463 0.856596C72.6517 1.06251 73.0018 1.36257 73.2674 1.73166L85.2393 20.449H80.7755L78.673 16.9669H68.4454L66.2169 13.498M112.599 16.9669V0.736757H108.805V18.5653C108.804 18.8131 108.854 19.0584 108.951 19.2864C109.048 19.5144 109.19 19.7204 109.369 19.8919C109.548 20.0756 109.763 20.2213 110 20.3205C110.237 20.4196 110.492 20.4701 110.748 20.4689H127.993L130.242 16.9868H112.579M49.874 14.0684C51.6419 14.0684 53.3374 13.3661 54.5875 12.116C55.8375 10.8659 56.5398 9.17046 56.5398 7.40257C56.5398 5.63469 55.8375 3.93921 54.5875 2.68913C53.3374 1.43905 51.6419 0.736757 49.874 0.736757H33.2924V20.449H37.0796V4.22553H49.6419C50.488 4.22553 51.2995 4.56165 51.8978 5.15995C52.4961 5.75825 52.8322 6.56972 52.8322 7.41584C52.8322 8.26196 52.4961 9.07343 51.8978 9.67173C51.2995 10.27 50.488 10.6061 49.6419 10.6061H38.9567L50.272 20.449H55.7704L48.1694 14.0684H49.874ZM9.9985 20.449H21.4531C24.022 20.3823 26.4632 19.315 28.2566 17.4745C30.0499 15.6341 31.0536 13.1659 31.0536 10.5962C31.0536 8.02646 30.0499 5.55834 28.2566 3.71785C26.4632 1.87736 24.022 0.810046 21.4531 0.74339H9.9985C8.6831 0.709258 7.37418 0.938865 6.14894 1.41867C4.92369 1.89847 3.80692 2.61876 2.86449 3.53705C1.92206 4.45535 1.17305 5.55306 0.661624 6.76544C0.1502 7.97783 -0.113281 9.28035 -0.113281 10.5962C-0.113281 11.912 0.1502 13.2146 0.661624 14.4269C1.17305 15.6393 1.92206 16.737 2.86449 17.6553C3.80692 18.5736 4.92369 19.2939 6.14894 19.7737C7.37418 20.2535 8.6831 20.4831 9.9985 20.449ZM21.1944 16.9801H10.2505C8.59477 16.9267 7.02469 16.2314 5.87231 15.0413C4.71994 13.8511 4.07562 12.2595 4.07562 10.6028C4.07562 8.9462 4.71994 7.35452 5.87231 6.16437C7.02469 4.97423 8.59477 4.27894 10.2505 4.22553H21.1944C22.0492 4.19796 22.9008 4.34251 23.6986 4.65059C24.4964 4.95867 25.2242 5.424 25.8386 6.01891C26.453 6.61382 26.9415 7.32617 27.2752 8.11364C27.6088 8.9011 27.7807 9.7476 27.7807 10.6028C27.7807 11.4581 27.6088 12.3046 27.2752 13.092C26.9415 13.8795 26.453 14.5918 25.8386 15.1867C25.2242 15.7817 24.4964 16.247 23.6986 16.5551C22.9008 16.8631 22.0492 17.0077 21.1944 16.9801ZM93.1521 20.449H104.845L107.061 16.9801H93.4107C92.556 17.0077 91.7044 16.8631 90.9065 16.5551C90.1087 16.247 89.381 15.7817 88.7666 15.1867C88.1522 14.5918 87.6636 13.8795 87.33 13.092C86.9964 12.3046 86.8244 11.4581 86.8244 10.6028C86.8244 9.7476 86.9964 8.9011 87.33 8.11364C87.6636 7.32617 88.1522 6.61382 88.7666 6.01891C89.381 5.424 90.1087 4.95867 90.9065 4.65059C91.7044 4.34251 92.556 4.19796 93.4107 4.22553H104.52L106.762 0.74339H93.1521C91.8367 0.709258 90.5277 0.938865 89.3025 1.41867C88.0773 1.89847 86.9605 2.61876 86.0181 3.53705C85.0756 4.45535 84.3266 5.55306 83.8152 6.76544C83.3038 7.97783 83.0403 9.28035 83.0403 10.5962C83.0403 11.912 83.3038 13.2146 83.8152 14.4269C84.3266 15.6393 85.0756 16.737 86.0181 17.6553C86.9605 18.5736 88.0773 19.2939 89.3025 19.7737C90.5277 20.2535 91.8367 20.4831 93.1521 20.449ZM139.494 16.9801C138.105 16.9807 136.753 16.5275 135.644 15.6895C134.536 14.8514 133.731 13.6744 133.353 12.3373H149.55L151.778 8.86176H133.353C133.73 7.52405 134.535 6.3464 135.643 5.50822C136.752 4.67004 138.104 4.21728 139.494 4.2189H150.611L152.833 0.736757H139.236C136.667 0.803414 134.226 1.87072 132.432 3.71122C130.639 5.55171 129.635 8.01983 129.635 10.5896C129.635 13.1593 130.639 15.6274 132.432 17.4679C134.226 19.3084 136.667 20.3757 139.236 20.4424H150.929L153.151 16.9735H139.488" fill="#C74634"/>
</g>
<defs>
<clipPath id="clip0_412_7220">
<rect width="153.214" height="19.898" fill="white" transform="translate(0.142578 0.551025)"/>
</clipPath>
</defs>
</svg>
