<svg width="64" height="65" viewBox="0 0 64 65" fill="none" xmlns="http://www.w3.org/2000/svg">
<g clip-path="url(#clip0_245_932)">
<path d="M61.2 42.1351C60.2 40.8351 58.4 40.6351 57.1 41.6351L44.7 50.7351C44.9 49.3351 43.9 48.1351 42.5 47.9351C42.5 47.9351 33.2 46.7351 30.2 45.8351C27.1 45.0351 21.6 41.6351 18.4 41.3351C14.8 40.9351 4 41.3351 4 41.3351V55.2351C4 55.2351 12.8 55.8351 16.1 56.7351C21.6 58.3351 32.5 64.6351 38.2 63.6351C45.2 62.4351 60.8 46.4351 60.8 46.4351C62 45.4351 62.3 43.4351 61.2 42.1351Z" fill="#F8F9FE"/>
<path d="M10.1992 61.3351H4.89922C3.39922 61.3351 2.19922 60.1351 2.19922 58.6351V38.1351C2.19922 36.6351 3.39922 35.4351 4.89922 35.4351H10.1992C11.6992 35.4351 12.8992 36.6351 12.8992 38.1351V58.6351C12.8992 60.1351 11.6992 61.3351 10.1992 61.3351Z" fill="white"/>
<path d="M30.7004 51.6351L41.9004 52.9351C43.3004 53.1351 44.5004 52.1351 44.7004 50.7351C44.9004 49.3351 43.9004 48.1351 42.5004 47.9351C42.5004 47.9351 33.2004 46.7351 30.2004 45.8351C27.1004 45.0351 21.6004 41.6351 18.4004 41.3351C17.8004 41.2351 16.9004 41.2351 15.9004 41.1351" stroke="#262E63" stroke-width="1.5" stroke-miterlimit="10" stroke-linecap="round" stroke-linejoin="round"/>
<path d="M47.5992 48.6351L56.9992 41.6351C58.2992 40.6351 60.0992 40.9351 61.0992 42.1351C62.0992 43.4351 61.8992 45.3351 60.5992 46.3351C60.5992 46.3351 44.9992 62.3351 37.9992 63.5351C32.2992 64.5351 21.4992 58.2351 15.8992 56.6351M10.1992 61.3351H4.89922C3.39922 61.3351 2.19922 60.1351 2.19922 58.6351V38.1351C2.19922 36.6351 3.39922 35.4351 4.89922 35.4351H10.1992C11.6992 35.4351 12.8992 36.6351 12.8992 38.1351V58.6351C12.8992 60.1351 11.6992 61.3351 10.1992 61.3351Z" stroke="#262E63" stroke-width="1.5" stroke-miterlimit="10" stroke-linecap="round" stroke-linejoin="round"/>
<path d="M52.4003 26.1351L53.9003 12.2351C54.1003 10.7351 52.4003 9.83511 51.2003 10.8351L43.7003 17.0351C42.9003 17.6351 41.7003 17.4351 41.2003 16.5351L37.9003 10.7351C37.3003 9.73511 35.7003 9.73511 35.0003 10.8351L31.7003 16.6351C31.2003 17.5351 30.0003 17.7351 29.2003 17.1351L21.7003 10.9351C20.6003 10.0351 18.9003 10.9351 19.0003 12.3351L20.5003 26.2351C20.6003 27.0351 21.3003 27.7351 22.1003 27.7351H50.6003C51.6003 27.6351 52.3003 27.0351 52.4003 26.1351ZM21.1003 33.7351V35.5351C21.1003 36.4351 21.8003 37.1351 22.7003 37.1351H50.0003C50.9003 37.1351 51.6003 36.4351 51.6003 35.5351V33.7351C51.6003 32.8351 50.9003 32.1351 50.0003 32.1351H22.8003C21.9003 32.0351 21.1003 32.8351 21.1003 33.7351Z" fill="#FFDB5E" stroke="#262E63" stroke-width="1.5" stroke-miterlimit="10"/>
<path d="M55.0004 5.93511C56.1602 5.93511 57.1004 4.99491 57.1004 3.83511C57.1004 2.67531 56.1602 1.73511 55.0004 1.73511C53.8406 1.73511 52.9004 2.67531 52.9004 3.83511C52.9004 4.99491 53.8406 5.93511 55.0004 5.93511Z" fill="#FFDB5E" stroke="#262E63" stroke-width="1.5" stroke-miterlimit="10"/>
<path d="M36.5004 5.93511C37.6602 5.93511 38.6004 4.99491 38.6004 3.83511C38.6004 2.67531 37.6602 1.73511 36.5004 1.73511C35.3406 1.73511 34.4004 2.67531 34.4004 3.83511C34.4004 4.99491 35.3406 5.93511 36.5004 5.93511Z" fill="#FFDB5E" stroke="#262E63" stroke-width="1.5" stroke-miterlimit="10"/>
<path d="M17.9008 5.93511C19.0606 5.93511 20.0008 4.99491 20.0008 3.83511C20.0008 2.67531 19.0606 1.73511 17.9008 1.73511C16.741 1.73511 15.8008 2.67531 15.8008 3.83511C15.8008 4.99491 16.741 5.93511 17.9008 5.93511Z" fill="#FFDB5E" stroke="#262E63" stroke-width="1.5" stroke-miterlimit="10"/>
</g>
<defs>
<clipPath id="clip0_245_932">
<rect width="64" height="64" fill="white" transform="translate(0 0.735107)"/>
</clipPath>
</defs>
</svg>
