<svg width="166" height="126" viewBox="0 0 166 126" fill="none" xmlns="http://www.w3.org/2000/svg">
<g clip-path="url(#clip0_1494_3126)">
<path d="M165.114 54.0506H105.057V38.6101H165.114V54.0506Z" fill="#E669A2"/>
<path d="M157.313 54.0507H105.057V15.4326H157.313V54.0507Z" fill="#F3BE26"/>
<path d="M135.724 54.0506H105.057V0H135.724V54.0506Z" fill="#EE9C34"/>
<path d="M141.757 54.0506H105.057V6.03125H141.757V54.0506Z" fill="#F3BC87"/>
<path d="M105.047 6.04028V54.0456H135.719V6.04028H105.047Z" fill="#E3721C"/>
<path d="M74.3027 54.0505H105.055V61.7716H74.3027V54.0505Z" fill="#AD1B02"/>
<path d="M105.047 15.4238V54.0456H141.773V15.4238H105.047Z" fill="#E88D14"/>
<path d="M105.047 15.4238V54.0456H135.719V15.4238H105.047Z" fill="#D85604"/>
<path d="M124.234 54.0506H105.057V30.8713H124.234V54.0506Z" fill="#C14303"/>
<path d="M105.047 38.6211V54.0456H157.33V38.6211H105.047Z" fill="#DB4E18"/>
<path d="M105.047 38.6211V54.0456H141.773V38.6211H105.047Z" fill="#D1390D"/>
<path d="M105.047 38.6211V54.0456H135.719V38.6211H105.047Z" fill="#C22303"/>
<path d="M105.047 38.6211V54.0456H124.252V38.6211H105.047Z" fill="#AD1B02"/>
<path d="M111.743 83.1313C106.511 84.0656 103.72 88.0367 103.72 94.9276C103.72 101.935 107.441 106.607 112.906 106.607C115.581 106.607 117.906 105.673 122.79 103.22C122.79 108.943 122.79 108.943 122.79 108.943C116.86 111.746 113.371 112.447 108.72 112.447C103.488 112.447 99.767 111.162 96.8601 108.009C93.8369 104.972 92.209 101.001 92.209 96.4459C92.209 86.5183 99.6507 79.6274 110.464 79.6274C117.557 79.6274 122.557 83.0145 122.557 87.8031C122.557 90.9565 120.232 93.1756 116.86 93.1756C115.116 93.1756 113.72 92.5917 111.743 91.5405" fill="white"/>
<path d="M85.5791 96.4459C90.3464 90.4894 92.0906 88.0367 92.0906 85.1168C92.0906 82.1969 89.765 79.6274 86.5093 79.6274C84.6489 79.6274 82.9047 80.6786 82.0908 81.613C82.0908 93.8764 82.0908 93.8764 82.0908 93.8764C74.3002 104.388 74.3002 104.388 74.3002 104.388C74.3002 80.5618 74.3002 80.5618 74.3002 80.5618C66.8585 80.5618 66.8585 80.5618 66.8585 80.5618C54.5332 101.001 54.5332 101.001 54.5332 101.001C54.5332 80.5618 54.5332 80.5618 54.5332 80.5618C50.3472 80.5618 50.3472 80.5618 50.3472 80.5618C39.0684 83.1313 39.0684 83.1313 39.0684 83.1313C39.0684 86.0512 39.0684 86.0512 39.0684 86.0512C45.231 86.6351 45.231 86.6351 45.231 86.6351C45.231 111.98 45.231 111.98 45.231 111.98C53.0216 111.98 53.0216 111.98 53.0216 111.98C64.8818 92.3581 64.8818 92.3581 64.8818 92.3581C64.8818 111.98 64.8818 111.98 64.8818 111.98C73.6026 111.98 73.6026 111.98 73.6026 111.98" fill="white"/>
<path d="M15.4648 108.009C16.395 108.009 16.6276 108.009 17.209 108.009C23.4879 108.009 26.9762 104.154 26.9762 96.446C26.9762 90.0222 24.1856 86.5184 18.9531 86.5184C18.2555 86.5184 17.209 86.6352 15.4648 86.9856V108.009ZM15.4648 121.79C20.581 122.958 20.581 122.958 20.581 122.958C20.581 125.878 20.581 125.878 20.581 125.878C0.465106 125.878 0.465109 125.878 0.465109 125.878C0.465109 122.958 0.465109 122.958 0.465109 122.958C5.11618 121.79 5.11618 121.79 5.11618 121.79C5.11618 86.5184 5.11618 86.5184 5.11618 86.5184C-6.29856e-07 86.5184 0 86.5184 0 86.5184C0 83.5985 0 83.5985 0 83.5985C12.2091 79.8611 12.2091 79.8611 12.2091 79.8611C15.4648 79.8611 15.4648 79.8611 15.4648 79.8611C15.4648 84.0657 15.4648 84.0657 15.4648 84.0657C21.1624 80.5619 23.1391 79.9779 26.1623 79.9779C32.9063 79.9779 38.0225 86.2848 38.0225 95.0444C38.0225 105.089 31.1622 111.98 20.6973 111.98C19.5345 111.98 17.5578 111.863 15.4648 111.746" fill="white"/>
</g>
<defs>
<clipPath id="clip0_1494_3126">
<rect width="165.113" height="125.878" fill="white"/>
</clipPath>
</defs>
</svg>
