<svg width="166" height="127" viewBox="0 0 166 127" fill="none" xmlns="http://www.w3.org/2000/svg">
<g clip-path="url(#clip0_538_1746)">
<path d="M166.001 54.8419H105.943V39.4014H166.001V54.8419Z" fill="#E669A2"/>
<path d="M158.2 54.8419H105.943V16.2238H158.2V54.8419Z" fill="#F3BE26"/>
<path d="M136.61 54.8418H105.943V0.79126H136.61V54.8418Z" fill="#EE9C34"/>
<path d="M142.644 54.8419H105.943V6.82251H142.644V54.8419Z" fill="#F3BC87"/>
<path d="M105.934 6.83154V54.8369H136.606V6.83154H105.934Z" fill="#E3721C"/>
<path d="M75.1895 54.8418H105.941V62.5629H75.1895V54.8418Z" fill="#AD1B02"/>
<path d="M105.934 16.2151V54.8368H142.66V16.2151H105.934Z" fill="#E88D14"/>
<path d="M105.934 16.2151V54.8368H136.606V16.2151H105.934Z" fill="#D85604"/>
<path d="M125.121 54.8419H105.943V31.6626H125.121V54.8419Z" fill="#C14303"/>
<path d="M105.934 39.4124V54.8369H158.217V39.4124H105.934Z" fill="#DB4E18"/>
<path d="M105.934 39.4124V54.8369H142.66V39.4124H105.934Z" fill="#D1390D"/>
<path d="M105.934 39.4124V54.8369H136.606V39.4124H105.934Z" fill="#C22303"/>
<path d="M105.934 39.4124V54.8369H125.139V39.4124H105.934Z" fill="#AD1B02"/>
<path d="M112.63 83.9225C107.398 84.8569 104.607 88.8279 104.607 95.7188C104.607 102.727 108.328 107.398 113.793 107.398C116.467 107.398 118.793 106.464 123.676 104.011C123.676 109.734 123.676 109.734 123.676 109.734C117.746 112.537 114.258 113.238 109.607 113.238C104.375 113.238 100.654 111.953 97.7468 108.8C94.7236 105.763 93.0957 101.792 93.0957 97.2372C93.0957 87.3096 100.537 80.4187 111.351 80.4187C118.444 80.4187 123.444 83.8058 123.444 88.5943C123.444 91.7478 121.118 93.9669 117.746 93.9669C116.002 93.9669 114.607 93.3829 112.63 92.3318" fill="black"/>
<path d="M86.4658 97.2372C91.2331 91.2806 92.9773 88.8279 92.9773 85.9081C92.9773 82.9882 90.6517 80.4187 87.396 80.4187C85.5356 80.4187 83.7914 81.4699 82.9775 82.4042C82.9775 94.6677 82.9775 94.6677 82.9775 94.6677C75.1869 105.179 75.1869 105.179 75.1869 105.179C75.1869 81.3531 75.1869 81.3531 75.1869 81.3531C67.7452 81.3531 67.7452 81.3531 67.7452 81.3531C55.4199 101.792 55.4199 101.792 55.4199 101.792C55.4199 81.3531 55.4199 81.3531 55.4199 81.3531C51.2339 81.3531 51.2339 81.3531 51.2339 81.3531C39.9551 83.9225 39.9551 83.9225 39.9551 83.9225C39.9551 86.8424 39.9551 86.8424 39.9551 86.8424C46.1177 87.4264 46.1177 87.4264 46.1177 87.4264C46.1177 112.771 46.1177 112.771 46.1177 112.771C53.9083 112.771 53.9083 112.771 53.9083 112.771C65.7685 93.1493 65.7685 93.1493 65.7685 93.1493C65.7685 112.771 65.7685 112.771 65.7685 112.771C74.4893 112.771 74.4893 112.771 74.4893 112.771" fill="black"/>
<path d="M16.3515 108.8C17.2817 108.8 17.5143 108.8 18.0957 108.8C24.3746 108.8 27.8629 104.946 27.8629 97.2372C27.8629 90.8135 25.0723 87.3096 19.8398 87.3096C19.1422 87.3096 18.0957 87.4264 16.3515 87.7768V108.8ZM16.3515 122.582C21.4677 123.75 21.4677 123.75 21.4677 123.75C21.4677 126.67 21.4677 126.67 21.4677 126.67C1.35182 126.67 1.35183 126.67 1.35183 126.67C1.35183 123.75 1.35183 123.75 1.35183 123.75C6.0029 122.582 6.0029 122.582 6.0029 122.582C6.0029 87.3096 6.0029 87.3096 6.0029 87.3096C0.886718 87.3096 0.886719 87.3096 0.886719 87.3096C0.886719 84.3898 0.886719 84.3898 0.886719 84.3898C13.0958 80.6523 13.0958 80.6523 13.0958 80.6523C16.3515 80.6523 16.3515 80.6523 16.3515 80.6523C16.3515 84.857 16.3515 84.857 16.3515 84.857C22.0491 81.3531 24.0258 80.7691 27.049 80.7691C33.793 80.7691 38.9092 87.0761 38.9092 95.8357C38.9092 105.88 32.0489 112.771 21.584 112.771C20.4212 112.771 18.4445 112.654 16.3515 112.537" fill="black"/>
</g>
<defs>
<clipPath id="clip0_538_1746">
<rect width="165.113" height="125.878" fill="white" transform="translate(0.886719 0.79126)"/>
</clipPath>
</defs>
</svg>
