<svg width="60" height="57" viewBox="0 0 60 57" fill="none" xmlns="http://www.w3.org/2000/svg">
<path opacity="0.5" d="M6.11338 56.4396C4.00281 52.9463 2.43808 49.4529 1.41918 45.9595C0.473059 42.3934 0 38.8637 0 35.3703C0 28.8202 1.60112 22.5613 4.80337 16.5935C8.0784 10.5529 12.627 5.02171 18.4493 0L24.4535 3.71169C25.0358 4.07558 25.3997 4.47586 25.5452 4.91254C25.7635 5.34921 25.8727 5.78588 25.8727 6.22254C25.8727 7.24144 25.5088 8.11479 24.781 8.84257C23.6166 10.2981 22.4885 11.8265 21.3968 13.4276C20.3052 15.0287 19.3227 16.739 18.4493 18.5585C17.576 20.3052 16.8846 22.161 16.3751 24.126C15.8657 26.091 15.611 28.1652 15.611 30.3486C15.611 32.6775 15.9385 35.0792 16.5935 37.5536C17.3213 40.0281 18.5221 42.6481 20.196 45.4137C20.7054 46.2143 20.9602 47.0512 20.9602 47.9246C20.9602 49.6712 19.9777 50.9085 18.0126 51.6363L6.11338 56.4396ZM39.3003 56.4396C37.1898 52.9463 35.625 49.4529 34.6061 45.9595C33.66 42.3934 33.1869 38.8637 33.1869 35.3703C33.1869 28.8202 34.7881 22.5613 37.9903 16.5935C41.2653 10.5529 45.814 5.02171 51.6363 0L57.6405 3.71169C58.2227 4.07558 58.5866 4.47586 58.7321 4.91254C58.9505 5.34921 59.0597 5.78588 59.0597 6.22254C59.0597 7.24144 58.6958 8.11479 57.968 8.84257C56.8035 10.2981 55.6755 11.8265 54.5838 13.4276C53.4921 15.0287 52.5096 16.739 51.6363 18.5585C50.7629 20.3052 50.0715 22.161 49.5621 24.126C49.0526 26.091 48.7979 28.1652 48.7979 30.3486C48.7979 32.6775 49.1254 35.0792 49.7804 37.5536C50.5082 40.0281 51.709 42.6481 53.3829 45.4137C53.8924 46.2143 54.1471 47.0512 54.1471 47.9246C54.1471 49.6712 53.1646 50.9085 51.1996 51.6363L39.3003 56.4396Z" fill="#7DA7BB"/>
</svg>
