<svg width="25" height="25" viewBox="0 0 25 25" fill="none" xmlns="http://www.w3.org/2000/svg">
<path opacity="0.4" d="M13.7469 4.59631H12.0499C11.1127 4.59631 10.353 5.31266 10.353 6.19631C10.353 7.20752 9.27103 7.85042 8.38288 7.36695L8.29267 7.31785C7.48102 6.87602 6.44317 7.13822 5.97456 7.90349L5.12607 9.28913C4.65747 10.0544 4.93556 11.0329 5.74721 11.4748C6.63578 11.9585 6.63578 13.2342 5.74721 13.7179C4.93556 14.1597 4.65747 15.1382 5.12607 15.9035L5.97456 17.2891C6.44317 18.0544 7.48102 18.3166 8.29267 17.8748L8.38288 17.8257C9.27103 17.3422 10.353 17.9851 10.353 18.9963C10.353 19.88 11.1127 20.5963 12.0499 20.5963H13.7469C14.6841 20.5963 15.4439 19.88 15.4439 18.9963C15.4439 17.9851 16.5259 17.3422 17.414 17.8257L17.5042 17.8748C18.3159 18.3166 19.3537 18.0544 19.8223 17.2891L20.6708 15.9035C21.1394 15.1382 20.8613 14.1597 20.0497 13.7178C19.1611 13.2342 19.1611 11.9585 20.0497 11.4748C20.8613 11.033 21.1394 10.0544 20.6708 9.28914L19.8223 7.9035C19.3537 7.13823 18.3159 6.87603 17.5042 7.31786L17.414 7.36696C16.5259 7.85043 15.4439 7.20753 15.4439 6.19631C15.4439 5.31266 14.6841 4.59631 13.7469 4.59631Z" fill="#F8F9FE"/>
<path d="M15.8984 12.5963C15.8984 14.2532 14.5553 15.5963 12.8984 15.5963C11.2416 15.5963 9.89844 14.2532 9.89844 12.5963C9.89844 10.9395 11.2416 9.59631 12.8984 9.59631C14.5553 9.59631 15.8984 10.9395 15.8984 12.5963Z" fill="#F8F9FE"/>
</svg>
