<svg width="14" height="15" viewBox="0 0 14 15" fill="none" xmlns="http://www.w3.org/2000/svg">
<path fill-rule="evenodd" clip-rule="evenodd" d="M0 2.09681C0 1.39873 0.49185 0.896118 1.20069 0.896118C1.90953 0.896118 2.40138 1.39873 2.40138 2.09681C2.40138 2.79489 1.90953 3.2975 1.20069 3.2975C0.49185 3.2975 0 2.79489 0 2.09681ZM0 14.1037V4.49819H2.40138V14.1037H0ZM4.80324 4.60423V14.1038H7.21357V9.42466C7.21357 8.02974 7.93353 7.00562 9.1387 6.98796C10.1717 6.98796 10.7978 7.72956 10.7978 8.93025V14.1038H13.2081V8.13568C13.2081 5.91087 12.0029 4.49829 10.1247 4.49829C8.81002 4.51595 7.80832 5.08098 7.21357 6.26401V4.60423H4.80324Z" fill="#7DA7BB"/>
</svg>
