<svg width="97" height="97" viewBox="0 0 97 97" fill="none" xmlns="http://www.w3.org/2000/svg">
<path d="M34.883 42.1724C32.5606 37.5366 27.7659 34.3542 22.2279 34.3542C14.4153 34.3542 8.08203 40.6875 8.08203 48.5C8.08203 56.3125 14.4153 62.6458 22.2279 62.6458C27.7659 62.6458 32.5606 59.4634 34.883 54.8276M34.883 42.1724C35.8369 44.0764 36.3737 46.2255 36.3737 48.5C36.3737 50.7745 35.8369 52.9236 34.883 54.8276M34.883 42.1724L62.1143 28.5568M34.883 54.8276L62.1143 68.4432M62.1143 28.5568C64.4368 33.1926 69.2315 36.375 74.7695 36.375C82.5821 36.375 88.9154 30.0417 88.9154 22.2292C88.9154 14.4166 82.5821 8.08334 74.7695 8.08334C66.957 8.08334 60.6237 14.4166 60.6237 22.2292C60.6237 24.5037 61.1605 26.6528 62.1143 28.5568ZM62.1143 68.4432C61.1605 70.3472 60.6237 72.4963 60.6237 74.7708C60.6237 82.5834 66.957 88.9167 74.7695 88.9167C82.5821 88.9167 88.9154 82.5834 88.9154 74.7708C88.9154 66.9583 82.5821 60.625 74.7695 60.625C69.2315 60.625 64.4368 63.8074 62.1143 68.4432Z" stroke="white" stroke-width="2" stroke-linecap="round"/>
</svg>
