<svg width="18" height="14" viewBox="0 0 18 14" fill="none" xmlns="http://www.w3.org/2000/svg">
<path fill-rule="evenodd" clip-rule="evenodd" d="M1.53711 1.39943C3.22334 3.41674 5.72495 4.68398 8.44336 4.89792C8.19543 3.91613 8.44656 2.8817 9.12296 2.09851C9.79936 1.31533 10.8242 0.872325 11.8965 0.899651C12.8939 0.855889 13.8626 1.22042 14.5527 1.89922C15.3306 1.8817 16.0794 1.61753 16.6777 1.14954C16.4589 1.85752 15.9905 2.47439 15.3496 2.89878C16.0073 2.90219 16.6524 2.72879 17.209 2.399C16.8587 3.18996 16.1904 3.81868 15.3496 4.14824C15.494 6.643 14.5591 9.08655 12.7578 10.9224C10.9564 12.7583 8.442 13.8302 5.78711 13.894C3.80973 13.9337 1.86564 13.4111 0.208984 12.3947C1.98022 12.4137 3.72399 11.982 5.25586 11.1452C3.8625 10.9395 2.66836 10.097 2.06836 8.89618C2.61171 8.90953 3.15273 8.8247 3.66211 8.64629C2.10562 8.18147 0.969887 6.91874 0.740234 5.3977C1.23084 5.6624 1.77268 5.83231 2.33398 5.89748C0.923485 4.78932 0.584886 2.87806 1.53711 1.39943Z" fill="#7DA7BB"/>
</svg>
