<svg width="25" height="25" viewBox="0 0 25 25" fill="none" xmlns="http://www.w3.org/2000/svg">
<path opacity="0.4" d="M11.0049 3.31839L6.0071 5.53964C4.56148 6.18214 3.60749 7.62098 3.69947 9.20027C4.05911 15.3745 5.86715 18.0926 10.5653 21.2733C11.8099 22.1159 13.4504 22.118 14.6941 21.274C19.4067 18.076 21.15 15.3195 21.5413 9.22166C21.6433 7.63193 20.6877 6.17781 19.232 5.53083L14.254 3.31839C13.2198 2.85871 12.0392 2.85872 11.0049 3.31839Z" fill="#F8F9FE"/>
<path fill-rule="evenodd" clip-rule="evenodd" d="M16.1228 9.03189C16.4345 9.30465 16.4661 9.77847 16.1934 10.0902L13.3235 13.3701C12.7068 14.0749 11.6445 14.1693 10.9132 13.5842L9.16041 12.182C8.83697 11.9232 8.78453 11.4512 9.04328 11.1278C9.30204 10.8044 9.77401 10.7519 10.0975 11.0107L11.8503 12.4129C11.9547 12.4965 12.1065 12.483 12.1946 12.3823L15.0645 9.10245C15.3373 8.79072 15.8111 8.75913 16.1228 9.03189Z" fill="#F8F9FE"/>
</svg>
