<svg width="18" height="19" viewBox="0 0 18 19" fill="none" xmlns="http://www.w3.org/2000/svg">
<path d="M8.4375 10.25C8.4375 10.5607 8.68934 10.8125 9 10.8125C9.31066 10.8125 9.5625 10.5607 9.5625 10.25C9.5625 9.93934 9.31066 9.6875 9 9.6875C8.68934 9.6875 8.4375 9.93934 8.4375 10.25Z" fill="#28303F"/>
<path d="M5.81805 7.06802C6.63239 6.25368 7.75739 5.75 9.00003 5.75C10.2427 5.75 11.3677 6.25368 12.182 7.06802M10.591 8.65901C10.1838 8.25184 9.62135 8 9.00003 8C8.37871 8 7.81621 8.25184 7.40904 8.65901M12.75 16.25C9.92439 15.2565 8.30302 15.2435 5.25 16.25M9 15.5V13.25M16.5 5.75L16.5 10.25C16.5 11.9069 15.1569 13.25 13.5 13.25L4.5 13.25C2.84315 13.25 1.5 11.9069 1.5 10.25V5.75C1.5 4.09315 2.84315 2.75 4.5 2.75L13.5 2.75C15.1569 2.75 16.5 4.09315 16.5 5.75Z" stroke="#2668EC" stroke-width="1.5" stroke-linecap="round" stroke-linejoin="round"/>
</svg>
