<svg width="25" height="24" viewBox="0 0 25 24" fill="none" xmlns="http://www.w3.org/2000/svg">
<path d="M16.0226 4C13.9188 4 12.2133 5.79086 12.2133 8C12.2133 8.33382 12.2522 8.65809 12.3256 8.96808C10.3027 8.96808 7.25571 8.55908 4.71101 6.00961C4.37263 5.67059 3.74866 5.89726 3.77213 6.37567C4.14925 14.0627 7.44134 16.3049 9.13667 16.4444C8.04192 17.5257 6.45167 18.3791 4.85146 18.7622C4.42914 18.8633 4.32481 19.3256 4.73777 19.4599C5.8828 19.8323 7.52174 19.9758 8.40392 20C14.6448 20 19.7172 14.7471 19.8301 8.22229C20.6494 7.68945 21.1743 6.5325 21.4692 5.71291C21.541 5.5133 21.2139 5.28073 21.018 5.36226C20.406 5.61708 19.6289 5.67749 18.967 5.46181C18.2683 4.56927 17.2088 4 16.0226 4Z" fill="#7DA7BB"/>
</svg>
