<svg width="25" height="25" viewBox="0 0 25 25" fill="none" xmlns="http://www.w3.org/2000/svg">
<ellipse opacity="0.4" cx="10.6289" cy="17.5963" rx="7" ry="4" fill="#F8F9FE"/>
<circle cx="10.6289" cy="7.59631" r="4" fill="#F8F9FE"/>
<path fill-rule="evenodd" clip-rule="evenodd" d="M18.8789 13.5963C18.8789 14.0105 19.2147 14.3463 19.6289 14.3463C20.0431 14.3463 20.3789 14.0105 20.3789 13.5963V12.3463H21.6289C22.0431 12.3463 22.3789 12.0105 22.3789 11.5963C22.3789 11.1821 22.0431 10.8463 21.6289 10.8463H20.3789V9.59631C20.3789 9.1821 20.0431 8.84631 19.6289 8.84631C19.2147 8.84631 18.8789 9.1821 18.8789 9.59631L18.8789 10.8463H17.6289C17.2147 10.8463 16.8789 11.1821 16.8789 11.5963C16.8789 12.0105 17.2147 12.3463 17.6289 12.3463H18.8789L18.8789 13.5963Z" fill="#F8F9FE"/>
</svg>
