<svg width="71" height="45" viewBox="0 0 71 45" fill="none" xmlns="http://www.w3.org/2000/svg">
<mask id="mask0_412_7160" style="mask-type:luminance" maskUnits="userSpaceOnUse" x="0" y="0" width="71" height="45">
<path fill-rule="evenodd" clip-rule="evenodd" d="M0.5 0.94397H70.1429V44.0562H0.5V0.94397Z" fill="white"/>
</mask>
<g mask="url(#mask0_412_7160)">
<path fill-rule="evenodd" clip-rule="evenodd" d="M56.4801 38.0255C56.473 38.0313 56.4659 38.0365 56.4587 38.0422L56.2693 37.8142C52.3651 41.0411 47.4057 42.7865 42.2879 42.7865C36.4315 42.7865 30.9444 40.5649 26.8293 36.4915C22.7143 32.4715 20.4452 27.0759 20.4452 21.3626C20.4452 16.9723 21.7644 12.6875 24.3494 9.09032C26.8822 5.54606 30.3643 2.90123 34.4794 1.3672L34.3214 0.94397C30.153 2.53096 26.5657 5.22876 24.033 8.82598C21.3951 12.5286 19.9707 16.8664 19.9707 21.3626C19.9707 27.1814 22.2921 32.6829 26.5129 36.8088C26.9098 37.1972 27.3228 37.5632 27.7431 37.9182L27.1986 38.5547C31.3665 42.099 36.748 44.0562 42.2879 44.0562C47.7222 44.0562 52.9452 42.1519 57.1136 38.7665L56.4801 38.0255Z" fill="#004B86"/>
</g>
<path fill-rule="evenodd" clip-rule="evenodd" d="M24.5592 8.13819C24.454 7.76792 24.4012 7.45062 24.4012 7.08035C24.4012 5.49336 25.4563 4.06478 27.3556 4.06478C27.7777 4.06478 28.147 4.11774 28.4635 4.22367C28.78 3.95933 29.1492 3.69451 29.5185 3.48313C28.8856 3.11287 28.147 2.90149 27.3556 2.90149C25.0342 2.90149 23.082 4.75282 23.082 7.08035C23.082 7.87385 23.3462 8.66735 23.715 9.30195C23.8206 9.14354 23.9263 8.98465 24.0314 8.87872C24.1899 8.61391 24.4012 8.35004 24.5592 8.13819Z" fill="#141414"/>
<path fill-rule="evenodd" clip-rule="evenodd" d="M30.257 4.01221C29.8877 4.22358 29.5712 4.43544 29.2547 4.69978C29.9405 5.22894 30.3098 6.12788 30.3098 7.08027C30.3098 8.66726 29.1491 10.0424 27.3554 10.0424C26.3527 10.0424 25.5613 9.61917 25.034 8.9316C24.9283 9.09049 24.8227 9.19642 24.717 9.35483C24.559 9.56669 24.401 9.77807 24.2949 9.98944C25.0868 10.7305 26.1419 11.2066 27.3554 11.2066C29.7292 11.2066 31.629 9.4078 31.629 7.08027C31.629 5.86354 31.1012 4.75274 30.257 4.01221Z" fill="#141414"/>
<path fill-rule="evenodd" clip-rule="evenodd" d="M22.7137 17.8714C22.7137 19.1411 21.9751 20.2519 20.8672 20.6751V21.3627V21.9448C22.6608 21.4686 24.0324 19.8816 24.0324 17.8714C24.0324 16.4433 23.2414 15.1736 22.0807 14.3801C21.9223 14.8034 21.8166 15.1736 21.6586 15.5439C22.3444 16.126 22.7137 16.9725 22.7137 17.8714Z" fill="#141414"/>
<path fill-rule="evenodd" clip-rule="evenodd" d="M20.0235 20.8867H19.7599C17.9662 20.8867 16.7522 19.5116 16.7522 17.8716C16.7522 16.3376 17.8078 14.9095 19.7599 14.9095C20.182 14.9095 20.6041 14.962 20.9201 15.1209C21.0263 14.7501 21.1314 14.3803 21.2899 14.0101C20.815 13.8512 20.2872 13.7452 19.7599 13.7452C17.3856 13.7452 15.4863 15.5971 15.4863 17.8716C15.4863 20.2521 17.3856 22.0505 19.7599 22.0505H20.0235C20.0235 21.8391 19.9707 21.5743 19.9707 21.3629C19.9707 21.204 20.0235 21.0456 20.0235 20.8867Z" fill="#141414"/>
<path fill-rule="evenodd" clip-rule="evenodd" d="M22.8188 25.8062C24.7181 25.8062 25.7732 27.2343 25.7732 28.7684C25.7732 30.1435 24.9294 31.3602 23.6102 31.678C23.821 32.0483 24.0323 32.3656 24.2431 32.7358C25.8788 32.1542 27.0923 30.6727 27.0923 28.7684C27.0923 26.4938 25.1402 24.6425 22.8188 24.6425C22.2387 24.6425 21.6581 24.7484 21.1836 24.9598C21.2359 25.33 21.2888 25.7533 21.3944 26.1235C21.8165 25.9121 22.291 25.8062 22.8188 25.8062Z" fill="#141414"/>
<path fill-rule="evenodd" clip-rule="evenodd" d="M19.8636 28.7683C19.8636 27.9748 20.1278 27.2343 20.6551 26.6526C20.5494 26.2294 20.4442 25.8062 20.3914 25.3829C19.2835 26.1235 18.5449 27.3932 18.5449 28.7683C18.5449 31.1493 20.4442 32.9472 22.8185 32.9472C22.9765 32.9472 23.1878 32.9472 23.3463 32.8947C23.135 32.5244 22.8713 32.1541 22.66 31.7839C20.972 31.678 19.8636 30.4083 19.8636 28.7683Z" fill="#141414"/>
<path fill-rule="evenodd" clip-rule="evenodd" d="M43.553 24.8013V29.6152C43.553 30.726 43.1837 31.7839 41.7593 31.7839C40.3345 31.7839 39.9652 30.726 39.9652 29.6152V24.8013H38.6465V29.8796C38.6465 31.625 39.7544 32.9476 41.7593 32.9476C43.7643 32.9476 44.8717 31.625 44.8717 29.8796V24.8013H43.553Z" fill="#141414"/>
<path fill-rule="evenodd" clip-rule="evenodd" d="M44.6083 9.93684H48.196V11.0476H43.2891V3.06018H44.6083V9.93684Z" fill="#141414"/>
<path fill-rule="evenodd" clip-rule="evenodd" d="M0.501953 13.9042H5.14481V15.0675H1.82067V16.9722H5.09199V18.136H1.82067V20.7279H5.14481V21.8916H0.501953V13.9042Z" fill="#141414"/>
<path fill-rule="evenodd" clip-rule="evenodd" d="M26.7227 13.481L32.2098 19.1409V13.9042H33.5285V22.209L28.0414 16.6549V21.8916H26.7227V13.481Z" fill="#141414"/>
<mask id="mask1_412_7160" style="mask-type:luminance" maskUnits="userSpaceOnUse" x="0" y="0" width="71" height="45">
<path fill-rule="evenodd" clip-rule="evenodd" d="M0.5 0.94397H70.1429V44.0562H0.5V0.94397Z" fill="white"/>
</mask>
<g mask="url(#mask1_412_7160)">
<path fill-rule="evenodd" clip-rule="evenodd" d="M59.4336 13.9043H60.7528V21.8918H59.4336V13.9043Z" fill="#141414"/>
</g>
<mask id="mask2_412_7160" style="mask-type:luminance" maskUnits="userSpaceOnUse" x="0" y="0" width="71" height="45">
<path fill-rule="evenodd" clip-rule="evenodd" d="M0.5 0.94397H70.1429V44.0562H0.5V0.94397Z" fill="white"/>
</mask>
<g mask="url(#mask2_412_7160)">
<path fill-rule="evenodd" clip-rule="evenodd" d="M13.3207 25.9649V27.8692H16.1694V28.9805H13.3207V32.7886H12.002V24.8011H16.2755V25.9649H13.3207Z" fill="#141414"/>
</g>
<mask id="mask3_412_7160" style="mask-type:luminance" maskUnits="userSpaceOnUse" x="0" y="0" width="71" height="45">
<path fill-rule="evenodd" clip-rule="evenodd" d="M0.5 0.94397H70.1429V44.0562H0.5V0.94397Z" fill="white"/>
</mask>
<g mask="url(#mask3_412_7160)">
<path fill-rule="evenodd" clip-rule="evenodd" d="M18.597 8.0325H18.6499L19.9158 3.06014H21.1826L18.9663 11.3654L16.17 5.38766L13.3741 11.3654L11.1055 3.06014H12.4242L13.6905 8.0325L16.17 2.90125L18.597 8.0325Z" fill="#141414"/>
</g>
<mask id="mask4_412_7160" style="mask-type:luminance" maskUnits="userSpaceOnUse" x="0" y="0" width="71" height="45">
<path fill-rule="evenodd" clip-rule="evenodd" d="M0.5 0.94397H70.1429V44.0562H0.5V0.94397Z" fill="white"/>
</mask>
<g mask="url(#mask4_412_7160)">
<path fill-rule="evenodd" clip-rule="evenodd" d="M49.0929 16.9193H49.0401L47.7737 21.8917H46.5078L48.7236 13.5869L51.52 19.6171L54.3163 13.5869L56.5849 21.8917H55.2658L53.9994 16.9193H53.9466L51.52 22.1035L49.0929 16.9193Z" fill="#141414"/>
</g>
<mask id="mask5_412_7160" style="mask-type:luminance" maskUnits="userSpaceOnUse" x="0" y="0" width="71" height="45">
<path fill-rule="evenodd" clip-rule="evenodd" d="M0.5 0.94397H70.1429V44.0562H0.5V0.94397Z" fill="white"/>
</mask>
<g mask="url(#mask5_412_7160)">
<path fill-rule="evenodd" clip-rule="evenodd" d="M49.7784 27.8163L48.5121 32.7886H47.1934L49.4091 24.4834L52.2583 30.4611L55.0547 24.4834L57.27 32.7886H55.9513L54.6849 27.8163L52.2583 32.9475L49.7784 27.8163Z" fill="#141414"/>
</g>
<mask id="mask6_412_7160" style="mask-type:luminance" maskUnits="userSpaceOnUse" x="0" y="0" width="71" height="45">
<path fill-rule="evenodd" clip-rule="evenodd" d="M0.5 0.94397H70.1429V44.0562H0.5V0.94397Z" fill="white"/>
</mask>
<g mask="url(#mask6_412_7160)">
<path fill-rule="evenodd" clip-rule="evenodd" d="M32.0497 24.8013C32.7883 24.8013 33.6325 24.8013 34.2655 25.1715C34.9517 25.5418 35.3733 26.3353 35.3733 27.0758C35.3733 28.2396 34.5824 29.192 33.4212 29.2974L35.9539 32.7887H34.4768L32.1025 29.4034H31.2054V32.7887H29.8867V24.8013H32.0497ZM31.2054 28.3455H31.786C32.8411 28.3455 34.1075 28.398 34.1075 27.1288C34.1075 25.8591 32.7883 25.9121 31.7332 25.9121H31.2054V28.3455Z" fill="#141414"/>
</g>
<mask id="mask7_412_7160" style="mask-type:luminance" maskUnits="userSpaceOnUse" x="0" y="0" width="71" height="45">
<path fill-rule="evenodd" clip-rule="evenodd" d="M0.5 0.94397H70.1429V44.0562H0.5V0.94397Z" fill="white"/>
</mask>
<g mask="url(#mask7_412_7160)">
<path fill-rule="evenodd" clip-rule="evenodd" d="M36.536 3.05994C37.2746 3.05994 38.1188 3.05994 38.7518 3.4302C39.438 3.80047 39.8068 4.59397 39.8068 5.3345C39.8068 6.49874 39.0687 7.45065 37.8552 7.5561L40.4403 11.0474H38.9631L36.536 7.66203H35.6918V11.0474H34.373V3.05994H36.536ZM35.6918 6.60419H36.2724C37.3274 6.60419 38.541 6.65716 38.541 5.38747C38.541 4.11777 37.2218 4.17121 36.2195 4.17121H35.6918V6.60419Z" fill="#141414"/>
</g>
<mask id="mask8_412_7160" style="mask-type:luminance" maskUnits="userSpaceOnUse" x="0" y="0" width="71" height="45">
<path fill-rule="evenodd" clip-rule="evenodd" d="M0.5 0.94397H70.1429V44.0562H0.5V0.94397Z" fill="white"/>
</mask>
<g mask="url(#mask8_412_7160)">
<path fill-rule="evenodd" clip-rule="evenodd" d="M51.8368 9.93684H52.5754C54.3167 9.93684 55.9519 9.30176 55.9519 7.02719C55.9519 4.69966 54.3167 4.17098 52.5754 4.17098H51.8368V9.93684ZM50.5176 3.06018H52.6805C55.2133 3.06018 57.271 4.27643 57.271 7.02719C57.271 9.77795 55.2661 11.0476 52.6805 11.0476H50.5176V3.06018Z" fill="#141414"/>
</g>
<mask id="mask9_412_7160" style="mask-type:luminance" maskUnits="userSpaceOnUse" x="0" y="0" width="71" height="45">
<path fill-rule="evenodd" clip-rule="evenodd" d="M0.5 0.94397H70.1429V44.0562H0.5V0.94397Z" fill="white"/>
</mask>
<g mask="url(#mask9_412_7160)">
<path fill-rule="evenodd" clip-rule="evenodd" d="M69.4578 20.5166C69.0357 20.7809 68.5607 20.8868 67.9806 20.8868C66.2393 20.8868 65.0262 19.5642 65.0262 17.9242C65.0262 16.3377 66.0813 14.9091 67.9806 14.9091C68.5607 14.9091 69.0357 15.0151 69.4578 15.2264L70.0907 14.2745C69.5106 13.9572 68.772 13.7454 67.9806 13.7454C65.6592 13.7454 63.707 15.5972 63.707 17.9242C63.707 20.2522 65.6592 22.0506 67.9806 22.0506C68.772 22.0506 69.5106 21.8917 70.1435 21.5214L69.4578 20.5166Z" fill="#141414"/>
</g>
<mask id="mask10_412_7160" style="mask-type:luminance" maskUnits="userSpaceOnUse" x="0" y="0" width="71" height="45">
<path fill-rule="evenodd" clip-rule="evenodd" d="M0.5 0.94397H70.1429V44.0562H0.5V0.94397Z" fill="white"/>
</mask>
<g mask="url(#mask10_412_7160)">
<path fill-rule="evenodd" clip-rule="evenodd" d="M13.3757 20.5166C12.9535 20.7809 12.4786 20.8868 11.9513 20.8868C10.1572 20.8868 8.94362 19.5642 8.94362 17.9242C8.94362 16.3377 9.99869 14.9091 11.9513 14.9091C12.4786 14.9091 12.9535 15.0151 13.3757 15.2264L14.0614 14.2745C13.4285 13.9572 12.6894 13.7454 11.9513 13.7454C9.57704 13.7454 7.67773 15.5972 7.67773 17.9242C7.67773 20.2522 9.57704 22.0506 11.9513 22.0506C12.6894 22.0506 13.4285 21.8917 14.0614 21.5214L13.3757 20.5166Z" fill="#141414"/>
</g>
<mask id="mask11_412_7160" style="mask-type:luminance" maskUnits="userSpaceOnUse" x="0" y="0" width="71" height="45">
<path fill-rule="evenodd" clip-rule="evenodd" d="M0.5 0.94397H70.1429V44.0562H0.5V0.94397Z" fill="white"/>
</mask>
<g mask="url(#mask11_412_7160)">
<path fill-rule="evenodd" clip-rule="evenodd" d="M43.5014 17.9243C43.5014 16.3374 42.4463 14.9092 40.547 14.9092C38.5949 14.9092 37.5393 16.3374 37.5393 17.9243C37.5393 19.5643 38.7529 20.8865 40.547 20.8865C42.2878 20.8865 43.5014 19.5643 43.5014 17.9243ZM44.8206 17.9243C44.8206 20.2519 42.868 22.0507 40.547 22.0507C38.1727 22.0507 36.2734 20.2519 36.2734 17.9243C36.2734 15.5968 38.1727 13.7455 40.547 13.7455C42.868 13.7455 44.8206 15.5968 44.8206 17.9243Z" fill="#141414"/>
</g>
</svg>
