<svg width="64" height="65" viewBox="0 0 64 65" fill="none" xmlns="http://www.w3.org/2000/svg">
<path d="M40.0004 32.7374C40.0004 38.8044 36.3457 44.274 30.7405 46.5956C25.1352 48.9172 18.6834 47.6338 14.3935 43.3436C10.1037 39.0534 8.82053 32.6017 11.1424 26.9967C13.4644 21.3917 18.9342 17.737 25.0012 17.7374H60.0004V26.7374L40.0004 32.7374Z" fill="#7DA7BB"/>
<path d="M24.9987 16.7352C18.5299 16.7348 12.6932 20.6381 10.2174 26.6141C7.74182 32.5901 9.11237 39.4774 13.6862 44.0516C18.26 48.6258 25.1436 49.9956 31.1198 47.5204C36.8472 45.1482 40.5731 39.6609 40.8815 33.5165L60.2877 27.6962C60.4939 27.6339 60.6745 27.5068 60.8026 27.3336C60.9307 27.1605 60.9994 26.9506 60.9987 26.7352V17.7352C60.9986 17.47 60.8935 17.2157 60.7059 17.0282C60.5184 16.8407 60.2639 16.7353 59.9987 16.7352H41.987H24.9987Z" fill="#262E63"/>
<path d="M24.9987 18.7352H41.1315C41.4137 20.1209 42.2455 21.3502 43.4987 22.0712C45.0439 22.9604 46.9533 22.9604 48.4987 22.0712C49.7517 21.3502 50.5876 20.121 50.8698 18.7352H58.9987V25.993L39.7096 31.7782C39.5041 31.8403 39.324 31.9669 39.196 32.1393C39.068 32.3116 38.9988 32.5205 38.9987 32.7352C38.9985 38.4006 35.5884 43.5047 30.3542 45.6727C25.12 47.8405 19.1063 46.6438 15.1003 42.6376C11.0945 38.6314 9.89671 32.6138 12.0651 27.3798C14.2333 22.1458 19.3333 18.7348 24.9987 18.7352Z" fill="#7DA7BB"/>
<path d="M43.1914 18.7352H48.8125C48.5785 19.3972 48.1308 19.9738 47.5 20.3368C46.57 20.8718 45.4298 20.8718 44.5 20.3368C43.869 19.9738 43.4254 19.3972 43.1914 18.7352Z" fill="#FFDB5E"/>
<path d="M25 24.7357C20.5936 24.7357 17 28.3293 17 32.7357C17 37.1421 20.5936 40.7357 25 40.7357C29.4064 40.7357 33 37.1421 33 32.7357C33 28.3293 29.4064 24.7357 25 24.7357Z" fill="#262E63"/>
<path d="M25 26.7357C28.3256 26.7357 31 29.4103 31 32.7357C31 36.0613 28.3256 38.7357 25 38.7357C21.6744 38.7357 19 36.0613 19 32.7357C19 29.4103 21.6744 26.7357 25 26.7357Z" fill="white"/>
<path d="M35.7076 21.224C35.5088 21.2226 35.314 21.2805 35.1482 21.3903C34.9824 21.5001 34.8531 21.6569 34.7767 21.8405C34.7004 22.0241 34.6806 22.2263 34.7198 22.4213C34.7589 22.6162 34.8553 22.7951 34.9967 22.935C38.0618 26.0604 39.4869 30.4358 38.8521 34.767C38.8332 34.897 38.84 35.0297 38.8722 35.1571C38.9044 35.2845 38.9615 35.4043 39.04 35.5097C39.1185 35.615 39.217 35.7038 39.3299 35.7711C39.4428 35.8384 39.5678 35.8828 39.6979 35.9018C39.8279 35.9207 39.9604 35.914 40.0878 35.8817C40.2152 35.8495 40.335 35.7926 40.4404 35.714C40.5458 35.6355 40.6346 35.5369 40.7019 35.424C40.7692 35.3111 40.8136 35.1861 40.8326 35.0561C41.5578 30.1079 39.9242 25.103 36.4224 21.5326C36.33 21.436 36.2191 21.3591 36.0963 21.3061C35.9735 21.2531 35.8413 21.2251 35.7076 21.224ZM6.88729 28.8647C5.7411 29.1255 4.68698 29.788 3.9537 30.7982C2.48706 32.8184 2.73991 35.6312 4.54354 37.3568C6.34712 39.0822 9.16631 39.2069 11.1139 37.6459C11.2164 37.5638 11.3019 37.4624 11.3652 37.3473C11.4286 37.2322 11.4687 37.1058 11.4832 36.9752C11.4977 36.8447 11.4864 36.7123 11.4498 36.5861C11.4132 36.4599 11.3522 36.3422 11.2701 36.2397C11.188 36.1371 11.0865 36.0516 10.9714 35.9882C10.8563 35.9248 10.7299 35.8848 10.5993 35.8703C10.4687 35.8558 10.3366 35.8671 10.2104 35.9037C10.0842 35.9403 9.96644 36.0013 9.86385 36.0834C8.6862 37.0272 7.01722 36.9551 5.92635 35.9115C4.83545 34.8679 4.68337 33.1927 5.57088 31.9701C6.45836 30.7477 8.08799 30.3775 9.41463 31.0951C9.53031 31.1616 9.65813 31.2043 9.79056 31.2206C9.92299 31.237 10.0574 31.2267 10.1857 31.1903C10.3141 31.154 10.4339 31.0923 10.5381 31.0089C10.6423 30.9256 10.7287 30.822 10.7923 30.7047C10.8559 30.5874 10.8954 30.4586 10.9084 30.3258C10.9215 30.193 10.9078 30.059 10.8683 29.9315C10.8287 29.8041 10.764 29.6859 10.6781 29.5839C10.5921 29.4818 10.4866 29.398 10.3678 29.3373C9.27028 28.7435 8.03348 28.6037 6.88729 28.8647Z" fill="#262E63"/>
<path d="M25 28.7357C27.217 28.7357 29 30.5187 29 32.7357C29 34.9527 27.217 36.7357 25 36.7357C22.783 36.7357 21 34.9527 21 32.7357C21 30.5187 22.783 28.7357 25 28.7357Z" fill="#E1B17F"/>
</svg>
