<svg width="109" height="45" viewBox="0 0 109 45" fill="none" xmlns="http://www.w3.org/2000/svg">
<path d="M108.2 19.8688H1.81445V24.7265H108.2V19.8688Z" fill="#CC0000"/>
<path d="M105.563 38.0871V34.8717H100.396V31.8349H108.199V28.5876H95.6456V44.4838H100.396V38.0871H105.563ZM83.7183 31.9707H85.6879C86.1515 31.9707 86.6612 31.9707 87.0783 32.1793C87.5649 32.4342 87.843 32.9439 87.843 33.4769C87.843 34.8441 86.5685 35.0063 85.5026 35.0063H83.7183V31.9707ZM83.7183 38.4127H85.2477L87.5649 44.4838H92.9873L90.1139 37.5553C91.9909 36.6979 92.9177 35.4466 92.9177 33.361C92.9177 31.8085 92.292 30.395 90.9713 29.5608C89.7895 28.7729 88.2601 28.5876 86.8698 28.5876H78.7826V44.4838H83.7183V38.4127ZM68.2357 31.9476C70.3907 31.9476 70.6225 35.0527 70.6225 36.6052C70.6225 38.1346 70.4603 41.0775 68.2357 41.0775C66.0112 41.0775 65.849 38.1346 65.849 36.6052C65.849 35.0527 66.0807 31.9476 68.2357 31.9476ZM68.2357 28.3558C63.3927 28.3558 60.6352 31.8317 60.6352 36.582C60.6352 41.1006 63.4159 44.7194 68.2357 44.7194C73.0556 44.7194 75.8363 41.1006 75.8363 36.582C75.8363 31.8317 73.0787 28.3558 68.2357 28.3558ZM49.0148 40.8226V32.2025H49.5822C50.7171 32.2025 51.4737 32.1561 52.2539 33.1062C52.9395 33.9867 53.2469 35.3771 53.2469 36.443C53.2469 37.5089 53.0578 38.5749 52.4904 39.5018C52.2303 39.942 51.8756 40.2896 51.4264 40.5445C50.8117 40.8689 50.3861 40.8226 49.724 40.8226H49.0148ZM44.0259 44.4838H50.3387C52.585 44.4838 54.5946 43.974 56.2024 42.3288C57.692 40.8226 58.4486 38.6444 58.4486 36.5589C58.4486 34.2879 57.6683 32.1098 55.966 30.534C54.2164 28.8888 52.3485 28.5876 50.0077 28.5876H44.0259V44.4838ZM41.4802 28.5876H37.1007L34.5517 32.8744L32.0722 28.5876H26.395L31.3076 36.2576L26.1865 44.4838H30.6588L33.6016 39.4786L36.5445 44.4838H42.1985L36.8689 35.9795L41.4802 28.5876ZM23.8945 28.5876H18.982V44.4838H23.8945V28.5876ZM15.4155 44.4838V28.5876H11.453V33.0135L11.8006 37.4163L11.7543 37.4626L6.42467 28.5876H1.81333V44.4838H5.77582V37.0686C5.77582 35.9795 5.68312 35.4234 5.45139 34.4038L5.40508 34.2184L5.45139 34.1721L6.86495 37.0455L11.4298 44.4838H15.4155ZM98.6824 3.89554H100.652C101.116 3.89554 101.625 3.89554 102.042 4.10412C102.529 4.35901 102.807 4.86879 102.807 5.40176C102.807 6.76893 101.533 6.93112 100.467 6.93112H98.6824V3.89554ZM98.6824 10.3375H100.212L102.529 16.4087H107.951L105.078 9.48008C106.955 8.62273 107.882 7.37144 107.882 5.28591C107.882 3.73335 107.256 2.31983 105.935 1.48562C104.754 0.697764 103.224 0.512375 101.834 0.512375H93.7467V16.4087H98.6824V10.3375ZM81.3458 3.87235C83.5008 3.87235 83.7325 6.97747 83.7325 8.53003C83.7325 10.0594 83.5703 13.0023 81.3458 13.0023C79.1212 13.0023 78.9591 10.0594 78.9591 8.53003C78.9591 6.97747 79.1907 3.87235 81.3458 3.87235ZM81.3458 0.28064C76.5028 0.28064 73.7453 3.7565 73.7453 8.50688C73.7453 13.0254 76.5259 16.6442 81.3458 16.6442C86.1656 16.6442 88.9463 13.0254 88.9463 8.50688C88.9463 3.7565 86.1888 0.28064 81.3458 0.28064ZM65.3875 10.6906C65.3179 12.0114 64.7386 12.9791 63.2324 12.9791C61.0311 12.9791 60.5852 10.2679 60.5852 8.66908C60.5852 7.16286 60.678 3.84919 62.8329 3.84919C64.4782 3.84919 64.988 4.83451 64.9416 6.17853L69.4834 5.9468C69.159 1.98432 66.8418 0.28064 62.7866 0.28064C57.7814 0.28064 55.58 4.08093 55.58 8.66908C55.58 13.1876 58.0826 16.6442 62.8561 16.6442C66.5173 16.6442 69.1822 14.6299 69.4834 10.9687L65.3875 10.6906ZM50.5942 16.4087V0.512375H46.6318V4.93833L46.9793 9.34104L46.933 9.38739L41.6034 0.512375H36.992V16.4087H40.9545V8.9935C40.9545 7.90437 40.8618 7.3482 40.6301 6.32865L40.5838 6.14331L40.6301 6.09692L42.0437 8.97031L46.6086 16.4087H50.5942ZM30.4934 0.512375H25.5809V16.4087H30.4934V0.512375ZM21.1468 0.512375H17.4161L15.2147 9.68862H15.1684L12.828 0.512375H9.00449L6.84946 9.68862H6.80315L4.60173 0.512375H0.0136719L4.25419 16.4087H8.51787L10.5802 7.64948H10.6266L12.828 16.4087H16.9294L21.1468 0.512375Z" fill="black"/>
</svg>
