<svg width="19" height="19" viewBox="0 0 19 19" fill="none" xmlns="http://www.w3.org/2000/svg">
<path fill-rule="evenodd" clip-rule="evenodd" d="M12.6797 2.42749L5.67969 2.42749C3.47055 2.42749 1.67969 4.21835 1.67969 6.42749L1.67969 13.4275C1.67969 15.6366 3.47055 17.4275 5.67969 17.4275H12.6797C14.8888 17.4275 16.6797 15.6366 16.6797 13.4275V6.42749C16.6797 4.21835 14.8888 2.42749 12.6797 2.42749ZM9.36719 6.92749C9.36719 7.23815 9.61903 7.48999 9.92969 7.48999H10.8217L6.74219 11.5695V10.6775C6.74219 10.3668 6.49035 10.115 6.17969 10.115C5.86903 10.115 5.61719 10.3668 5.61719 10.6775V12.9275C5.61719 13.2381 5.86903 13.49 6.17969 13.49H8.42969C8.74035 13.49 8.99219 13.2381 8.99219 12.9275C8.99219 12.6168 8.74035 12.365 8.42969 12.365H7.53768L11.6172 8.28549V9.17749C11.6172 9.48815 11.869 9.73999 12.1797 9.73999C12.4903 9.73999 12.7422 9.48815 12.7422 9.17749V6.92749C12.7422 6.61683 12.4903 6.36499 12.1797 6.36499H9.92969C9.61903 6.36499 9.36719 6.61683 9.36719 6.92749Z" fill="white"/>
</svg>
