<svg width="223" height="50" viewBox="0 0 223 50" fill="none" xmlns="http://www.w3.org/2000/svg">
<g clip-path="url(#clip0_580_4412)">
<path d="M67.6496 14.873C68.2918 12.9308 68.9007 11.0952 69.4963 9.2752C69.5696 9.05298 69.7185 9.00187 69.9118 8.96632C73.1274 8.36632 76.3563 7.8552 79.6407 8.01742C81.9585 8.12631 84.1874 8.59965 86.183 9.84409C88.8896 11.5285 90.1274 14.0663 90.303 17.1774C90.4052 18.9663 90.1141 20.733 89.8585 22.4841C89.3274 26.053 88.7807 29.6174 88.2674 33.1863C88.2534 33.336 88.1994 33.4791 88.111 33.6007C88.0226 33.7223 87.9032 33.8179 87.7652 33.8774C85.6718 35.0263 83.4007 35.6552 81.0674 36.0374C78.1798 36.5378 75.2345 36.6126 72.3252 36.2596C69.9007 35.9552 67.6407 35.2019 65.8807 33.4197C65.1169 32.6376 64.524 31.7053 64.1396 30.6819C63.7552 29.6586 63.5877 28.5665 63.6476 27.475C63.7076 26.3835 63.9938 25.3163 64.488 24.3413C64.9822 23.3662 65.6736 22.5045 66.5185 21.8108C68.323 20.3263 70.4563 19.5885 72.703 19.1108C76.1052 18.3908 79.5385 18.4885 82.9741 18.7508C83.403 18.7819 83.4963 18.6508 83.5163 18.2685C83.6696 15.5885 82.0607 13.6641 79.2363 13.1463C77.2763 12.7863 75.3518 13.0974 73.4274 13.413C71.4638 13.7361 69.531 14.2245 67.6496 14.873ZM79.6674 22.9574C78.4444 22.9495 77.2227 23.0394 76.0141 23.2263C74.7074 23.4485 73.4385 23.793 72.3852 24.6596C71.1941 25.6397 70.8763 26.9552 71.1118 28.4041C71.3341 29.7263 72.2585 30.4508 73.4563 30.8774C74.0053 31.0706 74.5765 31.1937 75.1563 31.2441C77.2985 31.4508 79.3785 31.0774 81.4452 30.5663C81.5854 30.5478 81.7139 30.4786 81.8065 30.3717C81.899 30.2648 81.9492 30.1277 81.9474 29.9863C82.2296 27.8863 82.5096 25.7841 82.8207 23.6885C82.8741 23.3263 82.7541 23.2574 82.4518 23.1996C81.5313 23.0477 80.6004 22.9667 79.6674 22.9574Z" fill="#114185"/>
<path d="M166.857 29.5085C166.502 30.5885 166.19 31.5552 165.862 32.5219C165.599 33.3152 165.319 34.1019 165.07 34.9019C165.047 35.0243 164.987 35.1369 164.899 35.2255C164.811 35.3141 164.699 35.3747 164.577 35.3997C161.177 36.3063 157.733 36.7974 154.222 36.3552C150.222 35.8508 146.915 34.133 144.888 30.4641C143.642 28.193 143.246 25.7197 143.415 23.1708C143.737 18.3219 145.757 14.3019 149.513 11.1886C151.795 9.29522 154.457 8.32188 157.386 8.03299C159.406 7.83522 161.415 7.87299 163.386 8.42188C167.399 9.53299 170.075 12.6552 170.588 16.7885C170.884 19.1641 170.588 21.4974 170.204 23.833C170.157 24.1241 170.01 24.133 169.788 24.133C168.71 24.133 167.63 24.133 166.553 24.133C161.368 24.133 156.182 24.133 150.997 24.133C150.579 24.133 150.457 24.2352 150.45 24.6641C150.393 28.1574 152.322 30.4641 155.755 31.053C158.293 31.4974 160.762 31.113 163.226 30.5752C164.458 30.2996 165.671 29.9433 166.857 29.5085ZM157.79 19.5974H162.768C164.288 19.5974 164.288 19.5974 164.339 18.0774C164.444 14.9997 162.562 12.993 159.502 12.8219C155.842 12.6152 152.39 15.2663 151.502 19.1997C151.428 19.5263 151.502 19.6063 151.835 19.6041C153.815 19.5885 155.79 19.5974 157.79 19.5974Z" fill="#114185"/>
<path d="M179.635 36.444C176.372 36.4223 173.133 35.8822 170.039 34.844C169.73 34.7373 169.648 34.6484 169.759 34.3129C170.267 32.7736 170.754 31.2269 171.219 29.6729C171.335 29.2906 171.47 29.3217 171.777 29.4684C174.748 30.9218 178.104 31.3949 181.361 30.8195C182.125 30.7031 182.851 30.406 183.477 29.9529C183.766 29.7521 184.007 29.4889 184.182 29.1826C184.357 28.8764 184.46 28.535 184.485 28.1834C184.51 27.8319 184.457 27.4791 184.327 27.1512C184.198 26.8232 183.997 26.5284 183.739 26.2884C183.174 25.7655 182.54 25.3229 181.855 24.9729C180.155 24.0218 178.426 23.1306 176.81 22.0284C172.47 19.0573 172.999 12.8729 177.272 10.1595C179.166 8.95731 181.239 8.35509 183.441 8.1262C187.112 7.7462 190.661 8.37508 194.159 9.42842C194.479 9.52397 194.561 9.61064 194.439 9.95064C193.912 11.4106 193.403 12.8795 192.926 14.3573C192.799 14.7462 192.648 14.7173 192.348 14.5795C190.16 13.5472 187.765 13.0303 185.346 13.0684C184.172 13.0973 183.028 13.2906 182.035 13.984C181.612 14.2532 181.29 14.6537 181.118 15.1238C180.945 15.5939 180.931 16.1077 181.079 16.5862C181.27 17.1228 181.632 17.5824 182.108 17.8951C183.137 18.6684 184.315 19.1906 185.441 19.8084C186.82 20.5282 188.135 21.3622 189.375 22.3017C193.037 25.2084 192.666 30.7462 189.152 33.5595C186.886 35.3706 184.232 36.0951 181.41 36.3529C180.701 36.4151 179.997 36.4262 179.635 36.444Z" fill="#114185"/>
<path d="M203.608 36.4441C200.388 36.413 197.193 35.8784 194.139 34.8597C193.786 34.7419 193.694 34.6374 193.826 34.2641C194.328 32.7574 194.803 31.2419 195.266 29.7219C195.377 29.353 195.488 29.2997 195.848 29.473C198.807 30.9129 202.143 31.3871 205.386 30.8285C206.08 30.7194 206.746 30.4716 207.343 30.0997C208.817 29.1597 208.997 27.433 207.752 26.2241C207.23 25.7551 206.65 25.3555 206.026 25.0352C204.248 24.0263 202.401 23.1241 200.728 21.9241C196.868 19.1352 197.348 14.0885 199.708 11.5552C201.299 9.85077 203.308 8.93521 205.537 8.4441C208.494 7.77744 211.45 7.93744 214.403 8.4841C215.648 8.70632 216.866 9.0441 218.083 9.37299C218.488 9.48632 218.634 9.60633 218.463 10.0685C217.95 11.4619 217.483 12.8708 217.03 14.2908C216.903 14.6797 216.777 14.7352 216.394 14.5685C214.236 13.555 211.877 13.0393 209.492 13.0597C208.381 13.0797 207.308 13.2441 206.339 13.8263C205.421 14.3752 204.957 15.173 205.094 16.2708C205.181 16.9685 205.601 17.4552 206.13 17.8552C207.241 18.6974 208.519 19.253 209.728 19.9197C211.106 20.6819 212.466 21.4752 213.668 22.4997C217.037 25.3885 216.657 30.7441 213.277 33.4997C211.461 34.9819 209.354 35.7508 207.081 36.1485C205.933 36.3351 204.771 36.434 203.608 36.4441Z" fill="#114185"/>
<path d="M115.57 29.9019C115.457 30.5685 115.17 31.1663 114.959 31.7952C114.557 32.993 114.128 34.1797 113.73 35.3797C113.701 35.4997 113.634 35.6073 113.54 35.6871C113.446 35.767 113.329 35.8149 113.205 35.8241C110.539 36.2686 107.843 36.5508 105.134 36.3463C101.092 36.0419 97.6254 34.5685 95.2432 31.1241C93.5632 28.6974 92.9699 25.9397 93.1187 23.0352C93.3676 18.1908 95.421 14.2263 99.2054 11.1908C101.374 9.45299 103.925 8.59966 106.643 8.2441C110.007 7.76727 113.433 7.97208 116.717 8.84632C117.343 9.01743 117.948 9.25743 118.563 9.45743C118.785 9.52855 118.843 9.6241 118.761 9.86632C118.237 11.3997 117.717 12.9374 117.225 14.4819C117.117 14.8219 116.963 14.753 116.743 14.6663C115.174 14.0229 113.513 13.6336 111.821 13.513C108.161 13.3063 104.979 14.313 102.694 17.3597C100.554 20.2152 100.223 24.9574 102.514 27.8241C103.939 29.6019 105.819 30.5441 108.05 30.8041C110.457 31.0841 112.783 30.6197 115.081 29.9597C115.228 29.9174 115.377 29.8886 115.525 29.853L115.57 29.9019Z" fill="#114185"/>
<path d="M140.902 29.8708C140.391 31.3419 139.804 32.7974 139.384 34.2997C139.08 35.3952 138.566 35.9152 137.371 36.0352C134.038 36.3685 130.704 36.7419 127.371 35.8597C122.129 34.4663 118.704 30.2841 118.42 24.8485C118.109 18.9419 120.371 14.2219 125.129 10.7308C127.129 9.26632 129.462 8.57299 131.898 8.25521C135.261 7.77996 138.686 7.98398 141.969 8.85521C142.578 9.02188 143.162 9.27077 143.769 9.44632C144.086 9.53966 144.095 9.6841 143.991 9.96187C143.482 11.4485 142.978 12.9352 142.504 14.433C142.391 14.7908 142.255 14.7774 141.964 14.6663C139.635 13.7774 137.253 13.2952 134.74 13.5552C130.471 14.013 127.222 16.8352 126.402 20.9885C125.811 23.9863 126.353 26.7285 128.742 28.8508C130.646 30.5397 132.964 31.0108 135.433 30.8663C137.175 30.7516 138.896 30.4232 140.558 29.8885C140.658 29.8708 140.746 29.7885 140.902 29.8708Z" fill="#114185"/>
<path d="M56.2454 23.7556L28.5631 -3.92661V0.322289L51.9965 23.7556L52.0054 23.7645L31.7076 44.0623L31.6831 44.0378L11.3987 23.7556L11.3809 23.7378L21.3387 13.7801H17.0165L7.0498 23.7467L7.05869 23.7556L31.6742 48.3712L31.6831 48.3623L56.2676 23.7778L56.2454 23.7556Z" fill="#FE6309"/>
<path d="M28.5535 3.2464V7.49529L44.8224 23.7642L31.7157 36.8708L18.5979 23.7553L18.5801 23.7375L28.5379 13.7797H24.2157L14.249 23.7464L14.2579 23.7553L29.5446 39.042L31.6824 41.1797L33.8557 39.0086L49.0846 23.7775L28.5535 3.2464Z" fill="#FE6309"/>
<path d="M41.9089 23.7558L33.7911 15.6291L31.6311 13.4691L29.5067 15.5936L21.3467 23.7469L29.5111 31.9113L31.6489 34.0491L33.8178 31.878L41.9311 23.778L41.9089 23.7558ZM31.6867 29.7558L25.6867 23.7558L25.6689 23.738L31.6533 17.7536L37.6533 23.7536L31.6867 29.7558Z" fill="#FE6309"/>
</g>
<defs>
<clipPath id="clip0_580_4412">
<rect width="222.222" height="50" fill="white" transform="translate(0.680664)"/>
</clipPath>
</defs>
</svg>
