<svg width="77" height="76" viewBox="0 0 77 76" fill="none" xmlns="http://www.w3.org/2000/svg">
<path d="M10.0027 69.7596H7.05917L7.09717 68.3453V59.508C7.09291 59.111 7.06754 58.7144 7.02117 58.3201C7.00218 58.1319 6.96059 57.9466 6.89729 57.7684C6.82107 57.6192 6.73261 57.4766 6.63281 57.342L6.78481 56.9369H10.0437L13.6355 56.8799C13.8611 57.2158 13.9972 57.6037 14.0307 58.007C14.0737 58.4168 14.0233 58.831 13.8832 59.2184H13.4356C13.3778 58.9418 13.165 58.7062 12.7972 58.5116C12.4354 58.3184 12.035 58.2088 11.6253 58.1909L9.90993 58.1149C9.82684 59.5984 9.78555 61.0723 9.78605 62.5366H12.2249C12.4215 62.5366 12.5735 62.5336 12.6809 62.5275C12.8166 62.5144 12.9498 62.4827 13.0769 62.4332C13.2248 62.381 13.3597 62.2973 13.4721 62.1878C13.514 62.4052 13.5361 62.626 13.5382 62.8474C13.5382 63.6459 12.9444 64.0452 11.7567 64.0452C11.5151 64.0452 11.172 64.0389 10.7277 64.0262C10.2833 64.0135 9.96263 64.0072 9.76553 64.0072C9.75945 64.8432 9.76908 65.761 9.79441 66.7607L9.82253 68.2693L9.87041 68.8727C9.88003 69.1725 9.92441 69.4701 10.0027 69.7596Z" fill="#11237D"/>
<path d="M18.7133 65.5546C18.7133 67.3522 18.7832 68.7539 18.9231 69.7596H16.1871L16.2919 63.1788C16.2959 62.8194 16.2608 62.4605 16.1871 62.1087C16.142 61.8672 16.0616 61.6337 15.9484 61.4156C15.8695 61.2771 15.7698 61.1515 15.6528 61.0432C15.5815 60.9706 15.4979 60.9114 15.4058 60.8684C15.3689 60.8542 15.3303 60.8448 15.291 60.8403V60.4914C16.0353 60.0385 16.7378 59.812 17.3985 59.812C18.3389 59.812 18.8088 60.4248 18.8083 61.6504C18.8083 61.8389 18.7926 62.1579 18.7612 62.6073C18.7293 63.0572 18.7133 63.4068 18.7133 63.6584V65.5546ZM15.9598 57.342C15.9567 57.1633 15.9909 56.986 16.0601 56.8212C16.1293 56.6565 16.2321 56.508 16.3619 56.3852C16.4878 56.2585 16.638 56.1586 16.8034 56.0914C16.9689 56.0241 17.1462 55.9909 17.3248 55.9938C17.4966 55.9921 17.667 56.026 17.8251 56.0933C17.9833 56.1607 18.1258 56.2601 18.2436 56.3852C18.3694 56.5102 18.4685 56.6595 18.5349 56.824C18.6012 56.9884 18.6335 57.1647 18.6297 57.342C18.632 57.5125 18.5989 57.6816 18.5325 57.8386C18.466 57.9955 18.3676 58.137 18.2436 58.254C18.124 58.376 17.9809 58.4725 17.823 58.5378C17.6651 58.6031 17.4956 58.6359 17.3248 58.634C16.9661 58.64 16.6198 58.5033 16.3619 58.254C16.234 58.1392 16.132 57.9985 16.0626 57.8413C15.9933 57.684 15.9583 57.5138 15.9598 57.342Z" fill="#11237D"/>
<path d="M31.0045 69.008V69.4321C30.2358 69.8212 29.5214 70.016 28.8613 70.0165C28.5279 70.0084 28.2025 69.9124 27.9181 69.7383C27.6006 69.5605 27.3495 69.2841 27.2029 68.951C26.3588 69.6603 25.4823 70.015 24.5733 70.015C24.0706 70.0181 23.5716 69.9287 23.1012 69.7513C22.6313 69.5692 22.2009 69.2983 21.8335 68.9533C21.449 68.5986 21.145 68.1147 20.9215 67.5017C20.6981 66.8886 20.5869 66.1793 20.5879 65.3737C20.5888 64.8398 20.6544 64.308 20.7832 63.7898C20.9161 63.258 21.1206 62.7466 21.3912 62.2698C21.6544 61.7944 21.9823 61.3578 22.3655 60.9725C22.759 60.5849 23.2252 60.2788 23.7373 60.0719C24.2865 59.8456 24.8754 59.7314 25.4694 59.736C25.7803 59.7421 26.0898 59.7788 26.3935 59.8454C26.7482 59.9174 26.9255 59.966 26.9255 59.9913C26.9255 59.5951 26.9222 59.2291 26.9157 58.8931C26.9091 58.5572 26.8997 58.2507 26.8875 57.9735C26.8776 57.7255 26.8505 57.4784 26.8062 57.2341C26.7716 57.0398 26.7158 56.8499 26.6398 56.6679C26.5745 56.5122 26.4758 56.3729 26.3506 56.2597C26.2254 56.1464 26.0769 56.0621 25.9155 56.0127V55.6639L26.1823 55.5225C26.4215 55.3976 26.6738 55.2995 26.9347 55.2299C27.2377 55.1389 27.5522 55.0913 27.8687 55.0886C28.1061 55.0834 28.3432 55.1089 28.574 55.1646C28.7627 55.2182 28.9348 55.3189 29.0741 55.4572C29.24 55.6332 29.3537 55.8518 29.4024 56.0887C29.4806 56.4376 29.5165 56.7946 29.5095 57.152V57.3975C29.5095 57.511 29.4938 57.9383 29.4624 58.6796C29.431 59.4208 29.3973 60.3303 29.3613 61.408C29.3264 62.4831 29.3089 63.4858 29.3089 64.4161C29.3089 64.9506 29.3119 65.3889 29.318 65.7309C29.3241 66.0729 29.337 66.4156 29.3568 66.7591C29.3685 67.0288 29.3939 67.2977 29.4328 67.5647C29.4647 67.7611 29.511 67.955 29.5711 68.1446C29.6109 68.2966 29.6804 68.4391 29.7755 68.5641C29.8622 68.6611 29.9635 68.744 30.0757 68.8096C30.1999 68.8855 30.3374 68.937 30.4808 68.9616C30.6541 68.9887 30.8291 69.0042 31.0045 69.008ZM25.5834 68.6211C26.0982 68.6211 26.5205 68.5049 26.8503 68.2723L26.8701 66.0561V61.2453C26.1709 61.0756 25.65 60.9907 25.3075 60.9907C24.9252 60.9845 24.5533 61.115 24.2587 61.3586C23.953 61.6145 23.7196 61.946 23.5815 62.32C23.4315 62.7055 23.32 63.1049 23.2487 63.5124C23.1791 63.911 23.144 64.3147 23.1438 64.7193C23.1438 65.9449 23.3692 66.9018 23.8202 67.5898C24.2711 68.2779 24.8588 68.6209 25.5834 68.6189V68.6211Z" fill="#11237D"/>
<path d="M39.5613 64.3758L39.3888 64.448C39.0651 64.5742 38.6268 64.6372 38.074 64.6372L33.7489 64.5802C33.761 64.7246 33.7679 64.964 33.7679 65.2969C33.7927 66.2332 34.0769 66.9679 34.6206 67.5009C35.1642 68.0339 35.7692 68.3012 36.4355 68.3027C37.0358 68.2975 37.6282 68.1641 38.1728 67.9113C38.7605 67.6473 39.2766 67.1886 39.7209 66.535C39.8289 66.9189 39.8289 67.3252 39.7209 67.7091C39.6172 68.0757 39.4221 68.4099 39.154 68.6804C38.8664 68.9669 38.5371 69.2083 38.1774 69.3963C37.7867 69.6045 37.3701 69.7599 36.9386 69.8584C36.4983 69.9606 36.0477 70.0116 35.5957 70.0104C35.0458 70.0152 34.4993 69.9242 33.9807 69.7414C33.4807 69.5616 33.0203 69.2867 32.6248 68.932C32.2195 68.5712 31.8972 68.0859 31.6581 67.4758C31.4189 66.8658 31.2966 66.1648 31.291 65.3729C31.291 64.3363 31.4704 63.3967 31.8291 62.5541C32.1878 61.7115 32.7064 61.0442 33.3848 60.5522C34.0567 60.0605 34.8703 59.8007 35.7028 59.812C36.1681 59.8059 36.6318 59.8679 37.0792 59.9959C37.4383 60.0948 37.7793 60.2505 38.0892 60.4572C38.3542 60.645 38.5855 60.8762 38.7732 61.1412C38.9477 61.377 39.0946 61.632 39.211 61.9012C39.3147 62.158 39.3911 62.425 39.439 62.6977C39.4843 62.9284 39.5177 63.1613 39.5393 63.3954C39.5522 63.5687 39.5583 63.7458 39.5583 63.9274L39.5613 64.3758ZM35.5789 60.9908C35.3311 60.9869 35.0881 61.0594 34.8828 61.1982C34.6637 61.3551 34.4872 61.5641 34.369 61.8062C34.2286 62.0741 34.1121 62.3538 34.0209 62.6422C33.9173 62.9812 33.833 63.3258 33.7686 63.6743C34.1435 63.6682 34.7087 63.6495 35.4642 63.6181C36.2196 63.5867 36.8041 63.5677 37.2175 63.5611C37.2116 63.2582 37.1765 62.9566 37.1126 62.6605C37.0512 62.375 36.9552 62.0981 36.8269 61.8359C36.7097 61.5901 36.5328 61.3777 36.3123 61.218C36.0982 61.0663 35.8413 60.9867 35.5789 60.9908Z" fill="#11237D"/>
<path d="M44.5458 69.7596H41.8098C41.8478 67.7836 41.8668 65.9546 41.8668 64.2724L41.9147 58.2099C41.9147 57.5745 41.8115 57.0679 41.6053 56.6899C41.3991 56.3119 41.1693 56.086 40.916 56.012V55.6631L41.1828 55.5218C41.4288 55.3973 41.6874 55.2992 41.9542 55.2292C42.2637 55.138 42.5845 55.0904 42.9072 55.0878C43.5152 55.0878 43.9345 55.2451 44.165 55.5598C44.3955 55.8744 44.5098 56.3583 44.5078 57.0114C44.5078 57.4076 44.4888 57.8603 44.4508 58.3695C44.3697 59.7466 44.3292 61.4376 44.3292 63.4425V65.9034C44.3292 66.6072 44.3451 67.2891 44.3771 67.9493C44.4027 68.5552 44.459 69.1594 44.5458 69.7596Z" fill="#11237D"/>
<path d="M49.7692 65.5546C49.7692 67.3522 49.8391 68.7539 49.9789 69.7596H47.2429L47.3486 63.1788C47.3527 62.8193 47.3173 62.4604 47.2429 62.1087C47.1984 61.8672 47.1182 61.6336 47.0051 61.4156C46.9261 61.2771 46.8264 61.1515 46.7094 61.0432C46.6381 60.9704 46.5541 60.9112 46.4617 60.8684C46.425 60.8541 46.3867 60.8447 46.3477 60.8403V60.4914C47.0914 60.0385 47.7937 59.812 48.4544 59.812C49.3948 59.812 49.8647 60.4248 49.8642 61.6504C49.8642 61.8389 49.8485 62.1579 49.8171 62.6073C49.7851 63.0572 49.7692 63.4068 49.7692 63.6583V65.5546ZM47.0157 57.342C47.0123 57.1635 47.0461 56.9862 47.1149 56.8215C47.1837 56.6568 47.2861 56.5082 47.4155 56.3851C47.5413 56.2586 47.6914 56.1587 47.8567 56.0915C48.022 56.0242 48.1992 55.991 48.3776 55.9938C48.5496 55.9921 48.7201 56.0259 48.8783 56.0933C49.0366 56.1607 49.1792 56.26 49.2972 56.3851C49.423 56.5102 49.5221 56.6595 49.5885 56.8239C49.6548 56.9884 49.6871 57.1647 49.6833 57.342C49.6856 57.5125 49.6525 57.6816 49.5861 57.8385C49.5196 57.9955 49.4212 58.137 49.2972 58.254C49.1774 58.376 49.0342 58.4726 48.8762 58.5379C48.7182 58.6032 48.5486 58.6359 48.3776 58.634C48.0192 58.6399 47.6731 58.5032 47.4155 58.254C47.288 58.139 47.1864 57.9982 47.1175 57.841C47.0486 57.6838 47.0139 57.5137 47.0157 57.342Z" fill="#11237D"/>
<path d="M55.6957 58.4075L55.476 60.0104H57.3C57.5066 60.0086 57.7125 59.9849 57.9141 59.9397C58.134 59.8926 58.2723 59.8125 58.3291 59.6995C58.3694 59.8502 58.3886 60.0057 58.3861 60.1616C58.3861 60.9343 57.8272 61.3209 56.7095 61.3214C56.6082 61.3214 56.3969 61.3117 56.0757 61.2925C55.7544 61.2732 55.5368 61.2639 55.4228 61.2644V65.6108C55.4167 65.7932 55.4167 65.9855 55.4228 66.1861C55.4289 66.3868 55.4373 66.5866 55.4464 66.785C55.4552 66.9767 55.4873 67.1666 55.5421 67.3504C55.5901 67.5158 55.6588 67.6743 55.7466 67.8224C55.8338 67.9613 55.9573 68.0738 56.1038 68.1477C56.2738 68.2324 56.4619 68.2744 56.6517 68.27C57.0689 68.2664 57.4833 68.2011 57.8814 68.0762C58.3063 67.9478 58.5738 67.7768 58.6817 67.5625C58.7636 67.753 58.7969 67.9608 58.7786 68.1674C58.7603 68.3739 58.6909 68.5727 58.5768 68.7458C58.3422 69.1324 57.9754 69.4405 57.4763 69.67C56.9726 69.9006 56.4245 70.0181 55.8705 70.0142C55.2741 70.0142 54.7804 69.9451 54.3892 69.8068C54.032 69.6929 53.7201 69.4685 53.4985 69.1661C53.2933 68.873 53.1505 68.5408 53.079 68.1902C52.9957 67.7474 52.9575 67.2972 52.965 66.8466C52.965 66.3688 52.9966 65.6594 53.06 64.7186C53.1233 63.7777 53.155 63.0894 53.155 62.6537C53.155 61.9119 53.098 61.4688 52.984 61.3244C52.7313 61.0023 52.392 60.7589 52.0059 60.6229L52.1009 60.0484C52.1781 60.045 52.2547 60.0323 52.3289 60.0104C52.4808 59.9638 52.6289 59.9056 52.7719 59.8363C53.0218 59.7079 53.2476 59.5372 53.4392 59.3317C53.7091 59.0544 53.9425 58.7439 54.1339 58.4075H55.6957Z" fill="#11237D"/>
<path d="M64.781 69.7407L64.553 69.6464C64.3615 69.5636 64.1884 69.4435 64.0438 69.293C63.8631 69.1246 63.7299 68.9115 63.6578 68.6751L61.9516 63.308C61.8424 62.9427 61.7039 62.5869 61.5373 62.244C61.4164 61.988 61.2726 61.7433 61.108 61.5129C60.9929 61.3569 60.864 61.2116 60.7226 61.0789C60.634 60.9947 60.5381 60.9184 60.4361 60.8509C60.3921 60.8223 60.3442 60.8001 60.294 60.7848L60.2742 60.436C60.5381 60.2545 60.8248 60.1089 61.127 60.0028C61.4293 59.8833 61.7504 59.8188 62.0754 59.812C62.6221 59.812 63.0221 59.9407 63.2755 60.1981C63.5288 60.4555 63.7315 60.8671 63.8835 61.4331C64.0101 62.1627 64.5183 63.7587 65.408 66.2211L65.6414 66.6969C65.7842 66.9892 65.862 67.1544 65.8747 67.1924L65.9697 66.7964C66.0205 66.5687 66.0875 66.345 66.1703 66.1269L67.3992 62.6476C67.5771 62.1515 67.666 61.7462 67.666 61.4316C67.666 61.1169 67.5581 60.9001 67.3422 60.781L67.3035 60.4322C67.7435 60.0543 68.298 59.8359 68.8774 59.812C69.3334 59.812 69.5614 60.0509 69.5614 60.5287C69.5614 60.8616 69.3993 61.4273 69.075 62.2258L65.1907 71.6923C65.0508 72.0318 64.9333 72.3069 64.838 72.5177C64.7428 72.7285 64.6199 72.9772 64.4694 73.264C64.3445 73.5102 64.1895 73.7399 64.0081 73.948C63.8384 74.1312 63.6553 74.3014 63.4601 74.4572C63.2523 74.6262 63.0124 74.7513 62.7549 74.825C62.4748 74.9024 62.1851 74.9398 61.8946 74.936C61.3099 74.936 60.8508 74.7161 60.5174 74.2763C60.184 73.8365 60.0827 73.2896 60.2134 72.6355C60.3406 72.7926 60.5456 72.9215 60.8283 73.0223C61.1017 73.1216 61.3901 73.173 61.681 73.1743C62.1633 73.1743 62.5745 73.0849 62.9145 72.906C63.2384 72.7437 63.4936 72.4709 63.6342 72.1369L64.5462 70.148L64.781 69.7407Z" fill="#11237D"/>
<path d="M58.7359 1.19852C58.2501 1.10881 57.7571 1.06378 57.2631 1.064H11.2162C11.1066 1.0642 11.0015 1.10782 10.9241 1.18531C10.8466 1.2628 10.8029 1.36785 10.8027 1.47744V40.0908C10.8021 41.9238 11.4222 43.7031 12.5621 45.1387C25.8545 39.9935 49.2192 22.0225 59.7581 1.45388C59.4234 1.34632 59.0819 1.26101 58.7359 1.19852Z" fill="#11237D"/>
<path d="M65.3936 9.19598V47.8078C65.3934 47.9174 65.3498 48.0224 65.2723 48.0999C65.1948 48.1774 65.0898 48.221 64.9802 48.2212H18.9333C17.7108 48.2223 16.5038 47.9474 15.4023 47.4171C28.941 41.9976 52.3801 23.7713 62.6128 3.07343C63.4876 3.83538 64.1886 4.77631 64.6684 5.83259C65.1481 6.88887 65.3955 8.03586 65.3936 9.19598Z" fill="#4DC247"/>
</svg>
