<svg width="79" height="78" viewBox="0 0 79 78" fill="none" xmlns="http://www.w3.org/2000/svg">
<g clip-path="url(#clip0_580_4008)">
<path d="M0.232422 78H78.2324V0H0.232422V78Z" fill="#DE4A09"/>
<path d="M17.2194 56.5232C16.829 56.6208 14.6813 57.2065 12.8264 57.2065C10.4835 57.2065 8.04297 56.5232 8.04297 50.8611C8.04297 45.2966 11.2645 44.3204 13.705 44.3204C15.4622 44.3204 16.829 45.0038 16.829 45.0038V46.6634C16.829 46.6634 15.267 46.0776 13.705 46.0776C12.1431 46.0776 10.2883 46.761 10.2883 50.7635C10.2883 54.8636 11.7526 55.4493 13.0217 55.4493C13.9003 55.4493 15.0718 55.1565 15.0718 55.1565V50.9587H13.1193L12.9241 49.3968H17.2194V56.5232ZM18.5861 44.3204H27.7626L27.4698 46.2729H24.4435V57.1089H22.0029V46.3705H18.4885V44.3204H18.5861ZM29.7151 44.4181L34.0104 44.3204C39.3796 44.3204 39.282 50.0801 36.1581 50.373C39.5749 50.8611 39.3796 55.9375 36.1581 57.1089H29.8127V44.4181H29.7151ZM32.058 46.3705V49.6896H34.3033C35.5724 49.592 36.2557 46.761 34.4009 46.3705H32.058ZM32.058 51.4468V55.1565H34.3033C36.8415 55.1565 36.2557 51.5445 34.4009 51.4468H32.058ZM40.9416 47.9324C44.1631 46.4681 47.8728 46.761 48.4585 49.2015V57.1089H46.2132V55.8398C44.2607 57.9875 39.5749 57.597 40.1606 53.204C40.5511 51.154 42.6988 50.5682 46.0179 50.8611C46.3108 48.0301 42.6988 49.3968 40.9416 49.8849V47.9324ZM42.7964 52.9112C41.3321 55.3517 44.2607 56.1327 46.0179 54.2779V52.6183C44.9441 52.2278 43.2845 52.2278 42.7964 52.9112ZM53.1443 50.2754V57.2065H50.6062V47.1515H52.9491V48.3229C56.4635 46.2729 59.2945 46.8586 59.7826 49.7873V57.1089H57.2445V50.1778C56.7564 48.4206 53.7301 49.592 53.1443 50.2754ZM61.6375 57.2065V44.3204H64.078V57.1089H61.6375V57.2065ZM67.4948 47.1515H70.4234L67.0067 51.6421L70.7163 57.2065H67.9829L64.3709 51.5445L67.4948 47.1515ZM44.7489 30.6533H64.2733V11.2266H44.7489V30.6533Z" fill="#FEFEFE"/>
</g>
<defs>
<clipPath id="clip0_580_4008">
<rect width="78" height="78" fill="white" transform="translate(0.232422)"/>
</clipPath>
</defs>
</svg>
