<svg width="192" height="48" viewBox="0 0 192 48" fill="none" xmlns="http://www.w3.org/2000/svg">
<path d="M8.34161 13.9658C10.9566 15.7687 13.2933 17.1127 16.6821 18.2301L19.4757 1.841L9.92177 1.91972L8.34161 13.9658ZM6.58289 24.0957L3.00977 46.3984H12.2699L14.933 29.5869C11.644 28.0413 9.63953 27.4788 6.58289 24.0957Z" fill="#68AC48"/>
<path d="M36.4287 2.18494L33.6523 19.8393L43.0891 18.5645L45.0533 5.54301L45.0552 5.5315L45.1493 4.9075H45.1551L45.5967 2.18494H36.4287Z" fill="url(#paint0_linear_580_4276)"/>
<path d="M54.4081 2.18494H48.2103L47.7227 4.93053L53.9531 4.99198C54.5291 4.95358 59.9051 5.7139 59.3118 11.8521C59.21 12.9081 57.9582 17.3933 57.3707 18.0653C60.3851 18.6297 62.5412 19.0253 64.5265 20.2137C66.9054 18.4608 68.7735 15.5635 69.2247 12.4877C70.6571 2.97022 62.4567 2.18494 54.4081 2.18494Z" fill="url(#paint1_linear_580_4276)"/>
<path d="M57.9846 28.9922C58.5241 32.0104 58.839 34.0629 57.3299 37.7916C55.8783 41.3723 51.2377 43.8242 48.9951 43.6917L41.4188 43.6725L41.0156 45.9131H49.6076C61.0777 46.6562 65.2806 42.4955 68.1375 35.5202C67.0182 33.3487 66.1695 30.2363 57.9846 28.9922Z" fill="url(#paint2_linear_580_4276)"/>
<path d="M31.7939 31.3288L29.582 45.9112H38.8096L39.2703 42.9621L39.3126 42.6895L41.1923 30.1922L31.7939 31.3288Z" fill="url(#paint3_linear_580_4276)"/>
<path d="M2.38086 12.941C2.38086 12.941 13.8221 21.9938 26.4327 21.9938C39.0433 21.9938 40.8135 19.5094 52.2183 19.5094C63.9188 19.5094 69.8017 22.9404 68.7553 32.9494C68.7553 32.9494 66.8353 26.6748 54.6701 26.6748C42.505 26.6748 40.1261 29.7065 28.1991 29.7065C16.2721 29.7065 6.17094 25.1638 2.38086 12.941Z" fill="url(#paint4_linear_580_4276)"/>
<path d="M87.3885 1.15176H90.6851L89.6387 8.52841H98.3018L99.3443 1.15176H102.641L100.03 19.6663H96.7293L97.8813 11.5025H89.2202L88.0682 19.6663H84.7734L87.3885 1.15176Z" fill="#68AC48"/>
<path d="M107.118 14.4863C107.067 16.343 108.322 17.4681 110.075 17.4681C111.644 17.4681 112.763 16.7366 113.685 15.7689L115.699 17.4719C113.971 19.2767 112.011 19.9833 110.021 19.9833C106.228 19.9833 103.586 17.3414 104.135 13.39C104.684 9.43864 108.086 6.79865 111.88 6.79865C115.386 6.79865 117.425 9.25816 116.797 13.6262L116.693 14.4902L107.118 14.4863ZM113.867 12.1305C114.103 10.3007 113.084 9.14872 111.122 9.14872C109.263 9.14872 107.929 10.3257 107.431 12.1305H113.867Z" fill="#68AC48"/>
<path d="M120.644 7.10376H123.783L123.522 9.09288H123.574C123.99 8.39358 124.58 7.81388 125.286 7.41014C125.993 7.00641 126.792 6.79238 127.606 6.78888C127.979 6.79452 128.349 6.85601 128.704 6.97128L128.285 10.0068C127.801 9.86457 127.3 9.78521 126.795 9.77065C123.838 9.77065 123.08 12.257 122.974 12.9367L122.034 19.6567H118.891L120.644 7.10376Z" fill="#68AC48"/>
<path d="M130.874 7.10378H134.015L132.262 19.6625H129.121L130.874 7.10378ZM133.28 0.959778C134.432 0.959778 135.217 1.77194 135.06 2.8433C134.902 3.91466 133.908 4.72682 132.756 4.72682C131.604 4.72682 130.897 3.83786 131.028 2.8433C131.125 2.31643 131.404 1.84013 131.815 1.49636C132.226 1.15258 132.744 0.962837 133.28 0.959778Z" fill="#68AC48"/>
<path d="M135.787 9.77641L136.154 7.10761H138.744L139.268 3.47113H142.407L141.883 7.10377H145.339L144.972 9.77257H141.516L140.748 15.2676C140.566 16.5233 140.827 17.3067 142.213 17.3067C142.764 17.3067 143.523 17.203 143.966 16.9227L143.611 19.5607C142.905 19.8756 141.779 19.9793 141.046 19.9793C137.724 19.9793 137.148 18.4894 137.567 15.5326L138.377 9.77257L135.787 9.77641Z" fill="#68AC48"/>
<path d="M154.129 17.9382H154.052C152.979 19.3514 151.408 19.9792 149.734 19.9792C147.407 19.9792 145.339 18.6986 145.702 16.2122C146.251 12.1302 151.064 11.8442 154.203 11.8442H154.989L155.041 11.5024C155.25 9.96639 154.179 9.14847 152.504 9.14847C151.205 9.17182 149.95 9.63244 148.945 10.456L147.533 8.80863C149.129 7.39551 151.17 6.79456 153.157 6.79456C158.522 6.79456 157.971 10.6653 157.736 12.4451L156.715 19.6662H153.894L154.129 17.9382ZM154.495 14.0406H153.841C152.113 14.0406 149.133 14.1712 148.872 15.976C148.714 17.128 149.812 17.6253 150.832 17.6253C152.979 17.6253 154.156 16.5001 154.392 14.7453L154.495 14.0406Z" fill="#68AC48"/>
<path d="M174.773 7.10376L173.181 18.5412C172.553 23.0666 169.938 25.9447 165.046 25.9447C162.717 25.9447 160.676 25.4474 159.107 23.8788L161.35 21.3118C162.45 22.4638 163.654 23.1166 165.405 23.1166C168.441 23.1166 169.644 21.3886 169.984 18.906L170.115 17.9902H170.063C168.965 19.219 167.264 19.8218 165.693 19.8218C161.926 19.8218 159.86 16.9418 160.357 13.3841C160.88 9.6708 163.6 6.79272 167.473 6.79272C169.226 6.79272 170.769 7.47241 171.476 8.98921H171.528L171.789 7.10569L174.773 7.10376ZM163.497 13.3572C163.209 15.3444 164.543 16.9937 166.661 16.9937C168.99 16.9937 170.639 15.3982 170.927 13.3054C171.24 11.1338 170.011 9.61512 167.734 9.61512C165.538 9.61896 163.809 11.1358 163.497 13.361V13.3572Z" fill="#68AC48"/>
<path d="M179.822 14.4863C179.768 16.343 181.023 17.4719 182.78 17.4719C184.351 17.4719 185.468 16.7404 186.392 15.7727L188.402 17.4719C186.674 19.2767 184.714 19.9833 182.725 19.9833C178.931 19.9833 176.289 17.3414 176.838 13.39C177.387 9.43864 180.789 6.79865 184.583 6.79865C188.089 6.79865 190.128 9.25816 189.5 13.6262L189.397 14.4902L179.822 14.4863ZM186.57 12.1305C186.806 10.3007 185.785 9.14872 183.823 9.14872C181.966 9.14872 180.632 10.3257 180.134 12.1305H186.57Z" fill="#68AC48"/>
<path d="M87.3885 28.2026H94.6096C97.409 28.2026 100.105 29.4852 99.6016 32.8606C99.3136 34.9534 97.8218 36.3396 95.8346 36.9156L95.8077 36.9674C98.1117 37.2285 99.5229 39.0602 99.183 41.441C98.6339 45.473 94.9437 46.7249 91.4378 46.7249H84.7734L87.3885 28.2026ZM88.4618 43.9006H91.4973C93.1965 43.9006 95.6042 43.6126 95.944 41.1799C96.2051 39.2426 95.055 38.5629 92.3862 38.5629H89.2202L88.4618 43.9006ZM89.6138 35.7367H92.6224C94.8208 35.7367 96.0515 34.7959 96.2589 33.4097C96.4682 31.8142 95.4755 31.0289 92.9949 31.0289H90.2666L89.6138 35.7367Z" fill="#68AC48"/>
<path d="M109.523 44.9988H109.439C108.367 46.4119 106.797 47.0398 105.122 47.0398C102.793 47.0398 100.728 45.7572 101.09 43.2727C101.64 39.1908 106.453 38.9028 109.592 38.9028H110.377L110.429 38.563C110.639 37.027 109.567 36.2091 107.891 36.2091C106.592 36.2318 105.338 36.6925 104.333 37.5166L102.92 35.8692C104.518 34.4561 106.559 33.8532 108.546 33.8532C113.91 33.8532 113.359 37.7259 113.125 39.5057L112.104 46.7249H109.289L109.523 44.9988ZM109.89 41.1012H109.235C107.507 41.1012 104.527 41.2318 104.266 43.0366C104.109 44.1886 105.207 44.6858 106.226 44.6858C108.373 44.6858 109.55 43.5607 109.786 41.8058L109.89 41.1012Z" fill="#68AC48"/>
<path d="M117.239 34.1757H120.223L119.96 36.1897H120.014C120.745 34.9341 122.08 33.8608 124.172 33.8608C127.548 33.8608 128.412 36.2416 128.07 38.8067L126.945 46.7325H123.806L124.697 40.3753C124.906 38.9891 125.115 36.687 122.917 36.687C120.851 36.687 119.829 38.2038 119.595 39.8781L118.635 46.7325H115.486L117.239 34.1757Z" fill="#68AC48"/>
<path d="M133.276 26.9467H136.416L134.663 39.3749L140.231 34.1678H144.263L138.088 39.8702L142.85 46.7246H138.693L134.588 40.3195H134.536L133.647 46.7285H130.504L133.276 26.9467Z" fill="#68AC48"/>
<defs>
<linearGradient id="paint0_linear_580_4276" x1="37.7919" y1="8.59774" x2="46.9311" y2="20.6457" gradientUnits="userSpaceOnUse">
<stop offset="0.76" stop-color="#68AC48"/>
<stop offset="0.78" stop-color="#6EAF4F"/>
<stop offset="0.81" stop-color="#7FB863"/>
<stop offset="0.84" stop-color="#9CC784"/>
<stop offset="0.88" stop-color="#C3DBB1"/>
<stop offset="0.89" stop-color="#CFE1BF"/>
<stop offset="0.91" stop-color="#A4C6A2"/>
<stop offset="0.93" stop-color="#4E9066"/>
<stop offset="0.95" stop-color="#176D41"/>
<stop offset="0.96" stop-color="#026032"/>
</linearGradient>
<linearGradient id="paint1_linear_580_4276" x1="57.7854" y1="5.4835" x2="70.7511" y2="22.5753" gradientUnits="userSpaceOnUse">
<stop offset="0.76" stop-color="#68AC48"/>
<stop offset="0.78" stop-color="#6EAF4F"/>
<stop offset="0.81" stop-color="#7FB863"/>
<stop offset="0.84" stop-color="#9CC784"/>
<stop offset="0.88" stop-color="#C3DBB1"/>
<stop offset="0.89" stop-color="#CFE1BF"/>
<stop offset="0.91" stop-color="#A4C6A2"/>
<stop offset="0.93" stop-color="#4E9066"/>
<stop offset="0.95" stop-color="#176D41"/>
<stop offset="0.96" stop-color="#026032"/>
</linearGradient>
<linearGradient id="paint2_linear_580_4276" x1="50.9785" y1="50.9839" x2="58.263" y2="29.1304" gradientUnits="userSpaceOnUse">
<stop offset="0.22" stop-color="#68AC48"/>
<stop offset="0.33" stop-color="#63A847"/>
<stop offset="0.46" stop-color="#559E44"/>
<stop offset="0.59" stop-color="#3E8C3F"/>
<stop offset="0.73" stop-color="#1D7438"/>
<stop offset="0.83" stop-color="#026032"/>
</linearGradient>
<linearGradient id="paint3_linear_580_4276" x1="34.167" y1="36.4437" x2="42.6553" y2="47.6335" gradientUnits="userSpaceOnUse">
<stop offset="0.76" stop-color="#68AC48"/>
<stop offset="0.78" stop-color="#6EAF4F"/>
<stop offset="0.81" stop-color="#7FB863"/>
<stop offset="0.84" stop-color="#9CC784"/>
<stop offset="0.88" stop-color="#C3DBB1"/>
<stop offset="0.89" stop-color="#CFE1BF"/>
<stop offset="0.91" stop-color="#A4C6A2"/>
<stop offset="0.93" stop-color="#4E9066"/>
<stop offset="0.95" stop-color="#176D41"/>
<stop offset="0.96" stop-color="#026032"/>
</linearGradient>
<linearGradient id="paint4_linear_580_4276" x1="2.38086" y1="22.9404" x2="68.8743" y2="22.9404" gradientUnits="userSpaceOnUse">
<stop offset="0.76" stop-color="#68AC48"/>
<stop offset="0.78" stop-color="#6EAF4F"/>
<stop offset="0.81" stop-color="#7FB863"/>
<stop offset="0.84" stop-color="#9CC784"/>
<stop offset="0.88" stop-color="#C3DBB1"/>
<stop offset="0.89" stop-color="#CFE1BF"/>
<stop offset="0.91" stop-color="#A4C6A2"/>
<stop offset="0.93" stop-color="#4E9066"/>
<stop offset="0.95" stop-color="#176D41"/>
<stop offset="0.96" stop-color="#026032"/>
</linearGradient>
</defs>
</svg>
