<svg width="119" height="66" viewBox="0 0 119 66" fill="none" xmlns="http://www.w3.org/2000/svg">
<g clip-path="url(#clip0_580_4324)">
<path d="M103.251 13.7072H97.7622V19.1961H103.251V13.7072Z" fill="#1A5035"/>
<path d="M96.0764 12.1784H104.939V20.7355H96.0764V12.1784ZM96.0764 24.1393H108.26V12.1784H115.424V29.0145H96.0764V24.1393ZM85.5892 3.89736H104.939V8.78107H92.7533V20.7355H85.5892V3.89736ZM82.2661 0.5V24.1308H92.7533V32.4118H118.745V8.78107H108.26V0.5H82.2661Z" fill="#C69328"/>
<path d="M59.8053 56.4057C62.6803 51.0676 65.0393 46.4004 66.9143 42.4425C68.3454 39.4252 69.8997 35.9366 71.5389 31.9723C68.7856 31.9723 66.6347 32.1237 65.0861 32.4267C63.5374 32.7296 62.308 33.2498 61.3978 33.9873L61.952 31.0146L62.521 28.042H79.0832C76.5352 33.4947 74.3375 38.1916 72.5624 42.1728L67.9632 52.4817H68.2329C71.1185 52.4817 73.3926 52.3118 75.0403 51.9742C76.5455 51.6986 77.9719 51.0963 79.2191 50.2097L78.4334 53.3098L77.6244 56.4184H59.7883L59.8053 56.4057ZM50.1992 48.1097V36.34C50.2098 34.9604 50.1233 33.5818 49.9402 32.2143C49.7232 30.8011 49.4075 29.4047 48.9953 28.0356H57.0938C56.6107 29.0405 56.2897 30.1154 56.1425 31.2206C55.931 32.9199 55.8388 34.632 55.8665 36.3442V48.114C55.8382 49.829 55.9304 51.544 56.1425 53.2461C56.2911 54.3463 56.6121 55.4161 57.0938 56.4163H48.9953C49.4852 55.4318 49.8046 54.3714 49.9402 53.2801C50.1402 51.5656 50.2267 49.8398 50.1992 48.114M37.6906 52.0974V44.2941H30.3735C30.2058 44.2941 29.9765 44.8207 29.7068 45.8717C29.4644 46.7373 29.3296 47.6295 29.3055 48.528C29.3055 49.8643 29.7422 50.868 30.6156 51.5389C31.4798 52.2057 32.7899 52.5454 34.5268 52.5454C35.5792 52.5467 36.6262 52.3958 37.6354 52.0974H37.6906ZM32.1359 57.0363C29.3755 57.1658 27.2352 56.4481 25.7382 55.2654C24.2413 54.0827 23.4854 52.3862 23.4854 50.1864C23.4854 48.7255 24.0113 47.3503 25.063 46.0607C26.2086 44.7008 27.6767 43.6496 29.3331 43.0031L37.6906 39.5696V36.9897C37.6906 35.4397 37.2065 34.2082 36.2552 33.3015C35.3039 32.3948 34.0087 31.9256 32.3865 31.9256C31.3535 31.9243 30.3285 32.1054 29.3586 32.4606C28.2197 32.9078 27.1423 33.4978 26.1523 34.2167L27.7193 28.7639C28.7616 28.3183 29.8446 27.9749 30.9532 27.7383C32.0008 27.5196 33.0681 27.4093 34.1382 27.4092C37.2043 27.4092 39.5089 28.2111 41.0518 29.8149C42.5948 31.4188 43.3642 33.8097 43.3599 36.9876V48.1076C43.3319 49.898 43.4028 51.6886 43.5723 53.4712C43.6644 54.4894 43.9331 55.4839 44.3664 56.4099H37.6906V53.6963L33.2783 56.9811L32.1359 57.0363ZM10.2293 19.9456C8.8385 19.9796 7.60908 20.0603 6.54953 20.1771C4.86541 20.3808 3.19388 20.6778 1.54267 21.0667L3.57259 15.5078H17.799C17.4105 16.5143 17.0898 18.1025 16.8308 20.2471C16.5738 22.3793 16.4434 24.5248 16.4401 26.6724V48.9994C16.4401 54.489 15.3232 58.6118 13.0894 61.3679C10.8769 64.0915 7.59988 65.4688 3.25834 65.5H3.01203C2.08772 65.4881 1.16976 65.3452 0.285645 65.0753L0.311125 65.0498C2.46053 64.2534 4.37355 62.9262 5.87218 61.1917C8.78117 57.8382 10.2335 52.9885 10.2293 46.6425V19.9456Z" fill="#1A5035"/>
<path d="M112.878 53.4776C112.868 54.0228 112.9 54.568 112.974 55.1083C113.024 55.4613 113.134 55.8031 113.299 56.119H110.539C110.704 55.8079 110.813 55.4701 110.861 55.1211C110.93 54.5761 110.96 54.0268 110.95 53.4776V46.3368C110.957 45.8476 110.927 45.3586 110.861 44.8738C110.8 44.4883 110.698 44.1104 110.558 43.7463H112.951C112.951 46.2731 112.889 48.8041 112.889 51.333L114.516 48.9973C114.769 48.6553 114.987 48.289 115.167 47.9038C115.281 47.6495 115.336 47.3731 115.329 47.0948H118.486C118.001 47.4748 117.541 47.8854 117.108 48.3242C116.686 48.7669 116.296 49.2388 115.94 49.7363L114.879 51.2226L116.433 53.4776C116.934 54.208 117.345 54.7672 117.667 55.155C117.953 55.5085 118.276 55.8315 118.629 56.119H115.781C115.788 55.9371 115.748 55.7565 115.664 55.5946C115.525 55.3142 115.364 55.0451 115.182 54.7898L112.883 51.333L112.878 53.4776ZM101.2 53.4776V49.732C101.204 49.2901 101.174 48.8487 101.111 48.4113C101.037 47.9635 100.929 47.522 100.788 47.0906H103.141V48.6618L104.612 47.0799C105.02 46.9677 105.44 46.9043 105.863 46.891C107.861 46.891 108.562 48.2159 108.562 49.8997V53.4776C108.552 54.0449 108.577 54.6122 108.638 55.1763C108.669 55.5025 108.76 55.8201 108.908 56.1127H106.211C106.375 55.801 106.483 55.4634 106.532 55.1147C106.601 54.5697 106.63 54.0205 106.621 53.4712V50.1482C106.621 49.1353 106.143 48.5854 105.024 48.5854C104.404 48.5854 103.708 48.9145 103.141 49.1502V53.4776C103.13 54.0228 103.161 54.5679 103.234 55.1083C103.285 55.461 103.395 55.8027 103.559 56.119H100.792C100.959 55.8083 101.068 55.4703 101.115 55.1211C101.184 54.5761 101.214 54.0268 101.204 53.4776M96.9045 54.7516V52.2673H94.4011C94.3438 52.2673 94.2673 52.435 94.1739 52.7684C94.0916 53.0444 94.0452 53.3299 94.0359 53.6177C94.0359 54.6285 94.8852 54.8917 95.8237 54.8917C96.1822 54.8917 96.5392 54.8446 96.8854 54.7516H96.9045ZM94.9935 56.3208C94.0444 56.3208 93.3161 56.136 92.8065 55.756C92.5542 55.5725 92.3516 55.3291 92.2171 55.0477C92.0825 54.7663 92.0201 54.4558 92.0357 54.1443C92.0454 53.6545 92.2387 53.1863 92.5771 52.8321C92.9774 52.3946 93.478 52.0608 94.0359 51.8596L96.8982 50.7618V49.938C96.8982 48.9145 96.1571 48.3285 95.0848 48.3285C94.2588 48.3285 93.6133 48.6279 92.9508 49.0568L93.4881 47.322C94.1862 47.0419 94.9314 46.8978 95.6836 46.8973C97.843 46.8973 98.8389 47.9781 98.8389 49.9443V53.4776C98.8295 54.0448 98.8543 54.6121 98.9132 55.1763C98.944 55.503 99.037 55.8208 99.1871 56.1127H96.8982V55.2463L95.3885 56.2932L94.9935 56.3208ZM84.8991 49.6938V54.8578C85.8036 54.8578 86.7422 54.7134 87.479 54.1932C87.7757 53.9971 88.0178 53.7287 88.1823 53.4134C88.3468 53.098 88.4285 52.746 88.4196 52.3904C88.431 52.0076 88.3481 51.6278 88.1781 51.2846C88.0082 50.9413 87.7564 50.6451 87.445 50.4221C86.8151 49.9507 85.9657 49.7065 84.897 49.6895M84.897 44.3663V48.751H85.0074C85.8567 48.751 86.5447 48.5387 87.0479 48.1268C87.2969 47.9242 87.4951 47.6663 87.6267 47.3736C87.7583 47.0809 87.8197 46.7615 87.806 46.4408C87.8148 46.1472 87.7519 45.8559 87.6228 45.5921C87.4937 45.3283 87.3022 45.1 87.0649 44.9269C86.5681 44.5532 85.9034 44.3663 85.0626 44.3663H84.897ZM82.7736 52.348V46.874C82.7736 46.3446 82.7588 45.8696 82.729 45.4492V43.1029H85.311C86.7592 43.1029 87.9072 43.4108 88.7551 44.0266C89.159 44.3014 89.4873 44.6733 89.7099 45.1082C89.9325 45.543 90.0423 46.0268 90.0291 46.5151C90.0291 47.4706 89.5287 48.2492 88.5279 48.8508C88.3235 48.9765 88.1107 49.0879 87.8909 49.1842C88.323 49.32 88.7345 49.5144 89.114 49.7617C90.1501 50.4412 90.6682 51.3613 90.6682 52.5221C90.6827 53.0622 90.5485 53.596 90.2804 54.0651C90.0123 54.5343 89.6206 54.9208 89.1479 55.1826C88.1315 55.8041 86.6848 56.1162 84.8078 56.119H82.3022C82.4752 55.5646 82.6003 54.9962 82.676 54.4204C82.7541 53.731 82.7895 53.0375 82.7821 52.3437" fill="#1A5035"/>
<path d="M52.83 16.474C53.3444 16.4712 53.8527 16.5842 54.3173 16.8048C54.782 17.0253 55.191 17.3477 55.514 17.748C56.2551 18.6109 56.6473 19.7195 56.6138 20.8565C56.6493 21.9913 56.2567 23.098 55.514 23.9566C55.1851 24.35 54.774 24.6665 54.3095 24.8836C53.845 25.1007 53.3385 25.2133 52.8258 25.2133C52.3131 25.2133 51.8066 25.1007 51.3421 24.8836C50.8776 24.6665 50.4664 24.35 50.1376 23.9566C49.3958 23.0974 49.0033 21.9912 49.0377 20.8565C49.0043 19.7195 49.3965 18.6109 50.1376 17.748C50.4619 17.3471 50.8724 17.0243 51.3385 16.8038C51.8046 16.5832 52.3144 16.4705 52.83 16.474Z" fill="#1D5033"/>
</g>
<defs>
<clipPath id="clip0_580_4324">
<rect width="118.46" height="65" fill="white" transform="translate(0.285645 0.5)"/>
</clipPath>
</defs>
</svg>
