<svg width="123" height="56" viewBox="0 0 123 56" fill="none" xmlns="http://www.w3.org/2000/svg">
<path d="M117.833 2.85156H4.38761C2.36459 2.85156 0.724609 4.49154 0.724609 6.51456V49.4854C0.724609 51.5085 2.36459 53.1484 4.38761 53.1484H117.833C119.856 53.1484 121.496 51.5085 121.496 49.4854V6.51456C121.496 4.49154 119.856 2.85156 117.833 2.85156Z" fill="#133F77"/>
<path d="M15.437 19.8748H24.6832C24.6934 19.8748 24.7035 19.8771 24.7127 19.8817C24.7219 19.8862 24.7298 19.8929 24.736 19.9011C24.7422 19.9092 24.7464 19.9187 24.7482 19.9288C24.7501 19.9389 24.7496 19.9493 24.7467 19.9591L22.6017 27.3108C22.5977 27.3245 22.5894 27.3366 22.5779 27.3452C22.5664 27.3538 22.5525 27.3585 22.5382 27.3584H12.3204C12.3058 27.3587 12.2915 27.3553 12.2787 27.3484C12.2659 27.3415 12.2551 27.3314 12.2474 27.3191C12.2396 27.3068 12.2352 27.2927 12.2345 27.2782C12.2338 27.2637 12.2368 27.2492 12.2434 27.2362L15.3759 19.9102C15.3818 19.8992 15.3907 19.8901 15.4015 19.8838C15.4122 19.8776 15.4246 19.8744 15.437 19.8748Z" fill="#78C2ED" stroke="white" stroke-width="1.18823" stroke-miterlimit="10"/>
<path d="M22.6462 27.4549L24.79 20.0739C24.7917 20.0685 24.7951 20.0637 24.7998 20.0603C24.8044 20.0569 24.81 20.0551 24.8157 20.0551C24.8214 20.0551 24.827 20.0569 24.8316 20.0603C24.8362 20.0637 24.8397 20.0685 24.8414 20.0739L27.0414 27.9292C27.0425 27.9314 27.0432 27.9339 27.0432 27.9365C27.0432 27.939 27.0425 27.9416 27.0414 27.9438L24.9025 35.3236C24.9012 35.3296 24.8979 35.335 24.8931 35.3388C24.8883 35.3427 24.8823 35.3448 24.8762 35.3448C24.8701 35.3448 24.8641 35.3427 24.8593 35.3388C24.8545 35.335 24.8512 35.3296 24.8499 35.3236L22.6426 27.4696C22.6425 27.4645 22.6438 27.4594 22.6462 27.4549Z" fill="#123F76" stroke="white" stroke-width="1.19456" stroke-miterlimit="10"/>
<path d="M22.5275 27.4318L12.2609 27.3878C12.2538 27.3877 12.2469 27.3894 12.2406 27.3927C12.2344 27.3959 12.229 27.4006 12.2249 27.4063C12.2208 27.4121 12.2182 27.4187 12.2172 27.4257C12.2162 27.4327 12.217 27.4398 12.2193 27.4464L15.1575 35.5632C15.1608 35.5719 15.1666 35.5794 15.1743 35.5846C15.182 35.5899 15.191 35.5926 15.2003 35.5925L24.741 35.4055C24.7478 35.4054 24.7544 35.4037 24.7605 35.4006C24.7665 35.3975 24.7718 35.3931 24.7759 35.3877C24.78 35.3823 24.7828 35.3761 24.7842 35.3694C24.7856 35.3628 24.7854 35.3559 24.7838 35.3493L22.5666 27.4635C22.5643 27.4548 22.5593 27.447 22.5523 27.4413C22.5452 27.4356 22.5366 27.4322 22.5275 27.4318Z" fill="#0F9CDA" stroke="white" stroke-width="1.18823" stroke-miterlimit="10"/>
<path d="M26.2088 27.4756H35.4561C35.4664 27.4758 35.4765 27.4783 35.4857 27.483C35.4948 27.4877 35.5028 27.4944 35.5089 27.5027C35.5151 27.511 35.5192 27.5205 35.5211 27.5307C35.5229 27.5408 35.5225 27.5512 35.5196 27.5611L33.3746 34.9128C33.3705 34.9265 33.3621 34.9385 33.3507 34.947C33.3392 34.9556 33.3254 34.9603 33.3111 34.9605H23.0982C23.0837 34.9606 23.0694 34.9571 23.0566 34.9502C23.0438 34.9433 23.033 34.9333 23.0252 34.921C23.0174 34.9088 23.0128 34.8948 23.0119 34.8803C23.011 34.8658 23.0138 34.8514 23.02 34.8383L26.1538 27.511C26.1592 27.501 26.1671 27.4925 26.1767 27.4863C26.1863 27.4801 26.1974 27.4764 26.2088 27.4756Z" fill="#78C2ED" stroke="white" stroke-width="1.18823" stroke-miterlimit="10"/>
<path d="M33.421 35.0559L35.566 27.6749C35.5673 27.6689 35.5706 27.6635 35.5754 27.6596C35.5802 27.6558 35.5861 27.6537 35.5923 27.6537C35.5984 27.6537 35.6044 27.6558 35.6092 27.6596C35.6139 27.6635 35.6173 27.6689 35.6186 27.6749L37.8186 35.5301C37.8198 35.5349 37.8198 35.54 37.8186 35.5448L35.6784 42.9258C35.6767 42.9312 35.6733 42.936 35.6687 42.9394C35.6641 42.9428 35.6585 42.9446 35.6528 42.9446C35.647 42.9446 35.6415 42.9428 35.6369 42.9394C35.6322 42.936 35.6288 42.9312 35.6271 42.9258L33.4186 35.073C33.4173 35.0672 33.4181 35.0611 33.421 35.0559Z" fill="#123F76" stroke="white" stroke-width="1.19456" stroke-miterlimit="10"/>
<path d="M33.3034 35.0326L23.0367 34.9886C23.0295 34.9885 23.0224 34.9902 23.016 34.9935C23.0096 34.9968 23.0041 35.0016 23 35.0075C22.9959 35.0134 22.9933 35.0202 22.9925 35.0274C22.9916 35.0345 22.9926 35.0418 22.9952 35.0485L25.9358 43.164C25.9392 43.1726 25.9451 43.18 25.9527 43.1852C25.9604 43.1905 25.9694 43.1933 25.9786 43.1934L35.5205 43.0064C35.5273 43.0063 35.5339 43.0046 35.5399 43.0015C35.5459 42.9984 35.5511 42.994 35.5552 42.9885C35.5592 42.9831 35.5619 42.9768 35.5631 42.9701C35.5643 42.9635 35.5639 42.9566 35.562 42.9501L33.3449 35.0644C33.3425 35.0552 33.3371 35.0471 33.3296 35.0414C33.3221 35.0356 33.3128 35.0325 33.3034 35.0326Z" fill="#0F9CDA" stroke="white" stroke-width="1.18823" stroke-miterlimit="10"/>
<path d="M26.2827 12.1954H35.5289C35.5391 12.1954 35.5492 12.1977 35.5584 12.2023C35.5676 12.2068 35.5755 12.2135 35.5817 12.2217C35.5879 12.2298 35.5921 12.2394 35.5939 12.2494C35.5958 12.2595 35.5953 12.2699 35.5924 12.2797L33.4474 19.6314C33.4433 19.6451 33.4349 19.657 33.4234 19.6656C33.412 19.6742 33.3981 19.6789 33.3839 19.6791H23.1661C23.1515 19.6793 23.1372 19.6759 23.1244 19.669C23.1116 19.6621 23.1008 19.652 23.0931 19.6397C23.0853 19.6274 23.0809 19.6133 23.0802 19.5988C23.0795 19.5843 23.0825 19.5698 23.0891 19.5568L26.2216 12.2333C26.2271 12.2217 26.2357 12.212 26.2466 12.2053C26.2574 12.1986 26.27 12.1951 26.2827 12.1954Z" fill="#78C2ED" stroke="white" stroke-width="1.18823" stroke-miterlimit="10"/>
<path d="M33.4892 19.7756L35.6318 12.3934C35.6331 12.3874 35.6364 12.382 35.6412 12.3781C35.6459 12.3743 35.6519 12.3722 35.658 12.3722C35.6642 12.3722 35.6701 12.3743 35.6749 12.3781C35.6797 12.382 35.683 12.3874 35.6843 12.3934L37.8843 20.2474C37.8855 20.2526 37.8855 20.258 37.8843 20.2633L35.7454 27.643C35.7441 27.649 35.7408 27.6544 35.736 27.6583C35.7313 27.6621 35.7253 27.6642 35.7192 27.6642C35.713 27.6642 35.7071 27.6621 35.7023 27.6583C35.6975 27.6544 35.6942 27.649 35.6929 27.643L33.4892 19.7903C33.488 19.7855 33.488 19.7804 33.4892 19.7756Z" fill="#123F76" stroke="white" stroke-width="1.19456" stroke-miterlimit="10"/>
<path d="M33.3737 19.7513L23.107 19.7073C23.0998 19.7072 23.0927 19.7089 23.0863 19.7122C23.0799 19.7155 23.0745 19.7203 23.0704 19.7262C23.0662 19.7321 23.0637 19.7389 23.0628 19.7461C23.062 19.7532 23.0629 19.7605 23.0655 19.7672L26.0074 27.8839C26.0105 27.8926 26.0164 27.9 26.0241 27.9051C26.0318 27.9102 26.0409 27.9126 26.0501 27.9121L35.5908 27.7251C35.5977 27.7252 35.6044 27.7237 35.6106 27.7207C35.6167 27.7177 35.6221 27.7132 35.6262 27.7077C35.6302 27.7022 35.6329 27.6958 35.634 27.689C35.6351 27.6823 35.6345 27.6753 35.6324 27.6688L33.4165 19.7843C33.414 19.7748 33.4085 19.7664 33.4007 19.7604C33.393 19.7545 33.3835 19.7512 33.3737 19.7513Z" fill="#0F9CDA" stroke="white" stroke-width="1.18823" stroke-miterlimit="10"/>
<path d="M48.9453 28.8873C49.268 28.6367 49.4806 28.4106 49.5809 28.2077C49.6852 27.991 49.7371 27.7528 49.7324 27.5123V19.0508C49.7427 18.8123 49.7083 18.574 49.631 18.3481C49.5021 18.0874 49.3376 17.8459 49.1421 17.6306H52.4421C52.2205 17.8415 52.0304 18.0831 51.8774 18.3481C51.7712 18.5672 51.7157 18.8074 51.7149 19.0508V27.5111C51.7138 27.6266 51.7261 27.7418 51.7515 27.8545C51.7804 27.9733 51.8214 28.0888 51.8738 28.1992C51.933 28.3226 52.0082 28.4376 52.0974 28.5414C52.2086 28.6675 52.3314 28.7829 52.4641 28.8861L48.9453 28.8873ZM51.8212 22.9693L54.7338 19.0508C54.9051 18.8375 55.004 18.575 55.0161 18.3016C55.0161 18.1036 54.9012 17.8799 54.6739 17.6306H57.9861L53.8868 22.7041C54.5899 23.7633 55.1892 24.6168 55.6846 25.2646C56.1801 25.9124 56.6995 26.5264 57.243 27.1065C57.5588 27.4408 57.8913 27.759 58.2391 28.0598C58.4241 28.2261 58.6201 28.3796 58.8258 28.5194C59.0227 28.6526 59.2267 28.775 59.4369 28.8861H56.9545C56.7398 28.8794 56.53 28.8203 56.3434 28.7137C55.848 28.5157 55.1147 27.7245 54.1434 26.3402L52.3761 23.8114L51.8212 22.9693Z" fill="white"/>
<path d="M65.8171 25.0153H60.1313C60.1479 25.2941 60.1888 25.571 60.2536 25.8427C60.3205 26.0599 60.4107 26.2693 60.5225 26.4673C61.0578 27.3831 61.9133 27.841 63.0891 27.841C63.5779 27.8402 64.0625 27.7503 64.5191 27.5758C64.7174 27.5061 64.9113 27.4245 65.0997 27.3314C65.2798 27.2418 65.5279 27.1036 65.844 26.917L64.6866 28.8848C64.4024 28.9898 64.109 29.068 63.8102 29.1183C63.5051 29.1625 63.197 29.1833 62.8887 29.1806C61.4628 29.1806 60.3192 28.7903 59.4579 28.0097C58.5966 27.2291 58.166 26.1935 58.166 24.9028C58.166 23.7059 58.5522 22.7122 59.3247 21.9218C60.0971 21.1315 61.0672 20.7359 62.2348 20.735C63.3935 20.735 64.2824 21.0993 64.9017 21.8277C65.5209 22.5562 65.8261 23.6187 65.8171 25.0153ZM62.1419 21.9243C61.6856 21.9051 61.2403 22.0678 60.9038 22.3765C60.586 22.678 60.3774 23.1151 60.278 23.6879H63.842C63.8528 23.4534 63.816 23.2192 63.7339 22.9993C63.6517 22.7793 63.526 22.5783 63.3641 22.4083C63.2047 22.2478 63.0139 22.122 62.8035 22.0387C62.5932 21.9554 62.368 21.9164 62.1419 21.9243Z" fill="white"/>
<path d="M64.8223 32.7739L66.218 31.1655C66.4542 31.3967 66.7678 31.5317 67.098 31.5444C67.2404 31.552 67.3829 31.5295 67.516 31.4783C67.6491 31.4272 67.7699 31.3485 67.8705 31.2474C67.9964 31.0963 68.1061 30.9324 68.198 30.7585C68.3208 30.5483 68.4204 30.3254 68.495 30.0936L68.8959 28.9679L66.4112 22.9888C66.1146 22.2694 65.9019 21.8159 65.7732 21.6285C65.6436 21.4403 65.3869 21.2166 65.0007 20.9563L65.7878 21.0186C65.9104 21.0172 66.0327 21.0094 66.1545 20.9954C66.2938 20.9795 66.4295 20.9612 66.5639 20.9404C66.6928 20.9206 66.8196 20.8891 66.9428 20.8463C67.1506 20.7648 67.329 20.6919 67.4782 20.6275L69.8554 26.5687L71.4308 22.4559C71.5456 22.1874 71.6194 21.9031 71.6496 21.6126C71.6499 21.4979 71.6218 21.385 71.5677 21.2838C71.4838 21.1435 71.3777 21.0176 71.2536 20.9111H73.9425L69.8725 30.5422C69.7289 30.894 69.5602 31.2351 69.3677 31.5627C68.7623 32.5405 67.747 33.0294 66.3219 33.0294C65.8126 33.014 65.3079 32.9281 64.8223 32.7739Z" fill="white"/>
<path d="M73.3633 26.8889L73.7642 27.1334C73.9328 27.2377 74.1015 27.3314 74.2702 27.4145C74.642 27.5762 75.0267 27.7066 75.4203 27.8044C75.7913 27.9031 76.1731 27.9556 76.5569 27.9608C77.0458 27.9608 77.4272 27.8671 77.7009 27.6797C77.8309 27.5995 77.9376 27.4866 78.0105 27.3524C78.0834 27.2182 78.1199 27.0673 78.1165 26.9146C78.122 26.7557 78.085 26.5983 78.0094 26.4584C77.9337 26.3186 77.8222 26.2014 77.6863 26.1189C77.5535 26.0393 77.4141 25.9714 77.2695 25.9161C77.1118 25.8525 76.8344 25.7596 76.4384 25.6349C75.7458 25.4158 75.305 25.2646 75.116 25.1815C74.8697 25.0608 74.6401 24.9088 74.4327 24.7293C74.2093 24.5453 74.0295 24.3141 73.9063 24.0522C73.783 23.7903 73.7195 23.5044 73.7202 23.2149C73.7202 22.4449 74.0098 21.8436 74.5892 21.4109C75.1685 20.9783 75.9833 20.7624 77.0336 20.7632C77.3411 20.7588 77.6486 20.7747 77.9539 20.8108L78.7569 20.9661V22.5488C78.6347 22.4853 78.4722 22.4022 78.2595 22.3044C78.0344 22.1963 77.8005 22.1076 77.5604 22.0392C77.317 21.9681 77.0648 21.9315 76.8112 21.9304C76.394 21.9304 76.0681 22.0029 75.8334 22.1479C75.7241 22.2107 75.6338 22.3019 75.5723 22.4119C75.5107 22.5219 75.4802 22.6465 75.4838 22.7725C75.483 22.9062 75.5163 23.0378 75.5804 23.1551C75.6482 23.2781 75.7421 23.3849 75.8554 23.4679C75.9786 23.5585 76.1135 23.632 76.2563 23.6867C76.4054 23.7429 76.6523 23.8187 76.9994 23.9128C77.5341 24.0516 78.0569 24.2331 78.5626 24.4555C78.8708 24.6184 79.1433 24.8411 79.3644 25.1106C79.6512 25.4447 79.7946 25.8928 79.7946 26.4551C79.8061 26.8236 79.7369 27.1903 79.5919 27.5294C79.4468 27.8684 79.2294 28.1717 78.9549 28.4179C78.3903 28.9272 77.6569 29.1822 76.7549 29.1831C76.2675 29.1897 75.7804 29.1533 75.2993 29.0743L74.4682 28.9019L74.1015 28.8555L73.3633 26.8889Z" fill="white"/>
<path d="M79.7363 22.0489V21.362C80.4094 21.2805 80.8946 21.0202 81.192 20.581C81.4894 20.1418 81.6377 19.4603 81.6369 18.5363V18.3444H82.5132V20.911H84.5482V22.5977L84.4126 22.4755C84.3259 22.3924 84.2327 22.3163 84.1339 22.2481C84.0381 22.1867 83.9339 22.1394 83.8247 22.1076C83.6772 22.0686 83.525 22.0505 83.3724 22.0538H82.5169V26.3462C82.5129 26.5094 82.5182 26.6726 82.5328 26.8351C82.5546 26.936 82.5961 27.0315 82.655 27.1162C82.7929 27.315 82.9876 27.4674 83.2136 27.5538C83.4803 27.6698 83.7684 27.7285 84.0593 27.7261L84.3759 27.7102L83.315 29.0999C82.864 29.0654 82.4197 28.9709 81.9938 28.8188C81.6729 28.6835 81.3916 28.469 81.1761 28.1955C81.0087 27.9992 80.8839 27.7703 80.8094 27.5232C80.7339 27.1906 80.7015 26.8497 80.7129 26.5088V22.0489H79.7363Z" fill="white"/>
<path d="M84.4121 24.8429C84.4121 23.6052 84.8379 22.5802 85.6893 21.7678C86.5408 20.9554 87.6103 20.548 88.8977 20.5456C90.1647 20.5456 91.1897 20.9408 91.9728 21.7311C92.7558 22.5215 93.1469 23.5677 93.1461 24.8698C93.1461 26.1189 92.7253 27.1493 91.8836 27.9608C91.0419 28.7724 89.9724 29.1798 88.6752 29.183C87.3886 29.183 86.3563 28.785 85.5781 27.9889C84.8 27.1929 84.4113 26.1442 84.4121 24.8429ZM86.2992 24.7341V24.8747C86.2992 25.7384 86.5543 26.4591 87.0643 27.0368C87.2934 27.3118 87.5808 27.5322 87.9058 27.6821C88.2308 27.832 88.585 27.9076 88.9429 27.9034C89.2682 27.9091 89.59 27.8361 89.8809 27.6905C90.1719 27.5449 90.4233 27.3311 90.6137 27.0674C91.0439 26.5109 91.2594 25.7954 91.2602 24.9211C91.2602 24.0151 91.0223 23.276 90.5464 22.704C90.3262 22.4291 90.0453 22.2087 89.7258 22.0603C89.4063 21.9119 89.0568 21.8394 88.7046 21.8485C88.3734 21.839 88.0446 21.9059 87.7434 22.0438C87.4423 22.1818 87.1769 22.3872 86.9678 22.6441C86.5213 23.173 86.2984 23.8696 86.2992 24.7341Z" fill="white"/>
<path d="M93.6211 20.9868L94.2004 21.0027L94.913 20.9575C95.0857 20.9336 95.2567 20.8989 95.4251 20.8536C95.5693 20.8129 95.7799 20.7481 96.057 20.6593V21.7519C96.343 21.4001 96.706 21.1187 97.1179 20.9293C97.5298 20.7398 97.9797 20.6474 98.433 20.6593C100.364 20.6593 101.33 21.6187 101.33 23.5376V27.7286C101.329 27.8078 101.339 27.8867 101.359 27.9633L101.404 28.1356C101.492 28.4317 101.668 28.6939 101.909 28.8873H98.8766C99.0837 28.7465 99.2482 28.5516 99.3521 28.3238C99.4474 28.015 99.4887 27.6921 99.4743 27.3693V23.2541C99.3839 22.4498 98.8567 22.0481 97.8928 22.0489C97.2458 22.0489 96.7634 22.2156 96.4456 22.5488C96.297 22.6787 96.1884 22.8483 96.1328 23.0377C96.0704 23.3597 96.0454 23.6878 96.0582 24.0155V27.3644C96.0477 27.669 96.089 27.9732 96.1804 28.2639C96.2824 28.508 96.4463 28.7211 96.6559 28.8824H93.6663C93.7502 28.8058 93.8294 28.7241 93.9034 28.6379C93.9398 28.5962 93.9729 28.5516 94.0024 28.5047C94.0791 28.4016 94.1359 28.2852 94.1699 28.1613L94.2163 27.7555V22.5953C94.2306 22.2616 94.1956 21.9275 94.1124 21.6041C94.0084 21.3571 93.8384 21.1436 93.6211 20.9868Z" fill="white"/>
<path d="M110.064 25.0153H104.377C104.394 25.2941 104.435 25.571 104.5 25.8427C104.567 26.0599 104.657 26.2693 104.769 26.4673C105.304 27.3831 106.159 27.841 107.335 27.841C107.824 27.8402 108.309 27.7503 108.765 27.5758C108.963 27.5061 109.157 27.4245 109.346 27.3314C109.524 27.2418 109.772 27.1036 110.09 26.917L108.933 28.8848C108.648 28.9898 108.355 29.068 108.056 29.1183C107.751 29.1625 107.443 29.1833 107.135 29.1806C105.708 29.1806 104.564 28.7903 103.704 28.0097C102.844 27.2291 102.413 26.1935 102.412 24.9028C102.412 23.7059 102.798 22.7122 103.571 21.9218C104.343 21.1315 105.313 20.7359 106.481 20.735C107.64 20.735 108.529 21.0993 109.148 21.8277C109.767 22.5562 110.073 23.6187 110.064 25.0153ZM106.389 21.9243C105.933 21.9051 105.488 22.0678 105.151 22.3765C104.833 22.678 104.624 23.1151 104.524 23.6879H108.089C108.1 23.4534 108.063 23.2192 107.981 22.9993C107.899 22.7793 107.773 22.5783 107.611 22.4083C107.452 22.2478 107.261 22.122 107.051 22.0387C106.841 21.9554 106.615 21.9164 106.389 21.9243Z" fill="white"/>
<path d="M48.9902 43.6273C49.1317 43.5224 49.2634 43.405 49.3838 43.2765C49.4708 43.179 49.5459 43.0715 49.6075 42.9563C49.713 42.7372 49.7662 42.4966 49.7627 42.2535V33.7762C49.7689 33.5377 49.723 33.3008 49.6282 33.0819C49.488 32.8187 49.3078 32.5787 49.0941 32.3706H52.3758C53.5247 32.3706 54.4507 32.5217 55.1539 32.824C55.5701 33.0054 55.9256 33.3023 56.1781 33.6796C56.4274 34.0654 56.5551 34.5172 56.5448 34.9764C56.5541 35.2403 56.5103 35.5034 56.4161 35.7501C56.3218 35.9968 56.179 36.222 55.996 36.4125C55.862 36.564 55.7068 36.6953 55.5352 36.8024C55.3141 36.9307 55.0802 37.0355 54.8373 37.1153C55.1505 37.1573 55.4588 37.2301 55.7577 37.3328C55.9948 37.4281 56.2155 37.5601 56.4116 37.7239C57.0944 38.265 57.4358 39.0089 57.4358 39.9557C57.4356 40.344 57.3704 40.7294 57.2427 41.0961C57.1159 41.4666 56.9307 41.8145 56.6939 42.1264C56.2559 42.672 55.6666 43.0763 54.9999 43.2887C54.3163 43.5136 53.3609 43.6256 52.1338 43.6248L48.9902 43.6273ZM51.6791 33.6197V36.9613C51.8372 36.9873 51.9969 37.0028 52.157 37.0077C53.0036 37.0077 53.6009 36.8448 53.9488 36.5188C54.1163 36.3605 54.2493 36.1692 54.3394 35.9569C54.4294 35.7447 54.4745 35.5161 54.4719 35.2856C54.4719 34.7446 54.2975 34.3229 53.9488 34.0206C53.6 33.7183 53.1026 33.5676 52.4565 33.5684L51.6791 33.6197ZM51.6791 38.1004V42.1337C51.9162 42.2001 52.157 42.2524 52.4002 42.2902C52.5999 42.3127 52.8007 42.3229 53.0016 42.3207C53.7048 42.3207 54.2841 42.117 54.7396 41.7096C55.1113 41.3631 55.348 40.896 55.4078 40.3913C55.4675 39.8867 55.3464 39.3772 55.0659 38.9535C54.8183 38.609 54.4589 38.3611 54.049 38.2519C53.568 38.1159 53.0699 38.0501 52.5701 38.0564L51.6791 38.1004Z" fill="white"/>
<path d="M58.8234 37.5333L60.0713 35.6608C60.4086 35.5777 60.6531 35.5251 60.8046 35.5044C61.0388 35.4793 61.2744 35.4687 61.5099 35.4726C62.5096 35.4726 63.2719 35.6967 63.7966 36.1448C64.0085 36.3124 64.1725 36.5329 64.2721 36.784C64.3417 36.993 64.376 37.367 64.376 37.9085V41.2024C64.3636 41.452 64.3888 41.7021 64.4505 41.9443C64.5111 42.0998 64.6281 42.2268 64.7781 42.2999C65.0149 42.4081 65.2747 42.4563 65.5346 42.4405H65.8622L64.9003 43.7959C64.7418 43.8449 64.5773 43.8721 64.4114 43.8766C63.9394 43.8795 63.4836 43.705 63.1342 43.3877C62.7577 43.0561 62.5695 42.6853 62.5695 42.2755V39.611L62.1381 39.7516L61.4402 39.908C60.9816 40.0169 60.538 40.1811 60.119 40.3969C59.7914 40.5949 59.6301 40.9115 59.6301 41.349C59.6223 41.5222 59.6559 41.6947 59.7282 41.8522C59.8005 42.0097 59.9093 42.1477 60.0456 42.2547C60.3227 42.4731 60.6987 42.5823 61.1737 42.5823C61.351 42.5828 61.5278 42.566 61.7017 42.5321C61.9455 42.4802 62.1859 42.4137 62.4216 42.3329L61.527 43.6566C61.2695 43.7299 61.0442 43.7849 60.8511 43.8216C60.6776 43.8562 60.5012 43.8747 60.3243 43.8766C59.9869 43.8774 59.6529 43.8083 59.3435 43.6736C59.0341 43.539 58.7559 43.3418 58.5264 43.0944C58.28 42.8571 58.0845 42.5723 57.9517 42.2571C57.8189 41.9419 57.7517 41.603 57.754 41.261C57.754 40.073 58.6095 39.3169 60.3206 38.9926L61.197 38.8056C61.6916 38.7119 62.0354 38.5941 62.2285 38.4524C62.3231 38.3842 62.3992 38.2935 62.4498 38.1885C62.5003 38.0835 62.5239 37.9675 62.5182 37.851C62.5246 37.7153 62.4976 37.5801 62.4394 37.4573C62.3812 37.3345 62.2937 37.228 62.1845 37.147C61.9156 36.9664 61.595 36.8784 61.2715 36.8965C61.0173 36.9027 60.7639 36.9289 60.5137 36.9747C60.1373 37.0676 59.8721 37.1385 59.7193 37.1849C59.5665 37.2314 59.2695 37.3511 58.8234 37.5333Z" fill="white"/>
<path d="M65.4785 35.7281L66.0566 35.7427L66.7704 35.6987C66.943 35.6738 67.114 35.6387 67.2825 35.5936C67.4255 35.5545 67.637 35.4897 67.9144 35.3993V36.4993C68.1998 36.1462 68.5624 35.8634 68.9744 35.6727C69.3863 35.482 69.8366 35.3884 70.2904 35.3993C72.2215 35.3993 73.1871 36.3587 73.1871 38.2776V42.4698C73.1866 42.549 73.1964 42.6279 73.2164 42.7045C73.236 42.7778 73.2506 42.8353 73.2604 42.8768C73.3493 43.1724 73.5257 43.4341 73.7664 43.6273H70.7353C70.9429 43.4871 71.1075 43.2921 71.2107 43.0638C71.3069 42.7552 71.3483 42.4322 71.333 42.1093V37.9941C71.2425 37.1915 70.7153 36.7898 69.7514 36.789C69.1053 36.789 68.6229 36.956 68.3043 37.2901C68.1555 37.4201 68.0466 37.5896 67.9902 37.779C67.9292 38.1011 67.9046 38.4291 67.9169 38.7567V42.1056C67.9061 42.4102 67.9474 42.7145 68.0391 43.0052C68.1403 43.2496 68.3043 43.463 68.5145 43.6236H65.5225C65.6067 43.5477 65.6855 43.466 65.7584 43.3792C65.7952 43.3379 65.8287 43.2937 65.8586 43.2472C65.9346 43.1437 65.9913 43.0273 66.0261 42.9037L66.0725 42.4967V37.3353C66.0868 37.0016 66.0518 36.6676 65.9686 36.3441C65.8652 36.0975 65.6956 35.8843 65.4785 35.7281Z" fill="white"/>
<path d="M74.373 32.3865L74.9524 32.4023C75.5758 32.3894 76.1928 32.2734 76.7784 32.0589V42.4722C76.7871 42.6094 76.8097 42.7453 76.8456 42.878C76.8738 43.0225 76.9241 43.1619 76.9947 43.2911C77.087 43.4205 77.1997 43.534 77.3284 43.6272H74.3877C74.5669 43.4676 74.7045 43.2666 74.7886 43.0418C74.8699 42.7392 74.9049 42.426 74.8925 42.1129V33.8226C74.907 33.5208 74.877 33.2185 74.8033 32.9255C74.7108 32.7105 74.5622 32.5243 74.373 32.3865ZM76.8322 39.1087L78.6655 36.9612C78.9539 36.6402 79.0982 36.355 79.0982 36.1057C79.0982 35.9835 79.0138 35.8307 78.8464 35.6535H81.6379L78.7987 38.9755L81.8433 42.7533C82.1405 43.1104 82.5036 43.4071 82.9127 43.6272H80.9352C80.6562 43.644 80.3775 43.5902 80.1248 43.4708C79.9415 43.3673 79.7309 43.1485 79.4929 42.8145L76.8322 39.1087Z" fill="white"/>
<path d="M34.8325 20.2205H44.0799C44.0902 20.2207 44.1003 20.2232 44.1095 20.2279C44.1186 20.2326 44.1266 20.2394 44.1327 20.2477C44.1389 20.2559 44.143 20.2655 44.1449 20.2756C44.1467 20.2858 44.1462 20.2962 44.1434 20.3061L41.9948 27.6578C41.9906 27.6714 41.9822 27.6834 41.9708 27.692C41.9594 27.7006 41.9455 27.7053 41.9312 27.7054H31.7134C31.6989 27.7056 31.6846 27.702 31.6718 27.6951C31.6591 27.6883 31.6483 27.6782 31.6404 27.666C31.6326 27.6538 31.628 27.6398 31.6271 27.6253C31.6262 27.6108 31.629 27.5963 31.6352 27.5832L34.769 20.2572C34.7746 20.2454 34.7837 20.2356 34.7951 20.229C34.8064 20.2225 34.8195 20.2195 34.8325 20.2205Z" fill="#78C2ED" stroke="white" stroke-width="1.18823" stroke-miterlimit="10"/>
<path d="M42.0439 27.8007L44.1828 20.4222C44.1841 20.4162 44.1874 20.4108 44.1922 20.407C44.1969 20.4031 44.2029 20.401 44.209 20.401C44.2152 20.401 44.2211 20.4031 44.2259 20.407C44.2307 20.4108 44.234 20.4162 44.2353 20.4222L46.4353 28.2774C46.4366 28.2822 46.4366 28.2873 46.4353 28.2921L44.2964 35.6731C44.2951 35.6791 44.2918 35.6845 44.287 35.6883C44.2822 35.6922 44.2763 35.6943 44.2701 35.6943C44.264 35.6943 44.2581 35.6922 44.2533 35.6883C44.2485 35.6845 44.2452 35.6791 44.2439 35.6731L42.0439 27.8166C42.0427 27.8114 42.0427 27.806 42.0439 27.8007Z" fill="#123F76" stroke="white" stroke-width="1.19456" stroke-miterlimit="10"/>
<path d="M41.9225 27.7775L31.6559 27.7335C31.6487 27.7334 31.6416 27.7351 31.6352 27.7384C31.6288 27.7417 31.6233 27.7465 31.6192 27.7524C31.6151 27.7583 31.6125 27.7652 31.6116 27.7723C31.6108 27.7795 31.6117 27.7867 31.6143 27.7934L34.5562 35.909C34.5591 35.9177 34.5647 35.9252 34.5721 35.9305C34.5796 35.9358 34.5886 35.9385 34.5977 35.9383L44.1396 35.7513C44.1465 35.7515 44.1533 35.75 44.1594 35.7469C44.1656 35.7439 44.1709 35.7395 44.175 35.734C44.1791 35.7285 44.1817 35.722 44.1828 35.7153C44.1839 35.7085 44.1833 35.7016 44.1812 35.6951L41.9653 27.8093C41.9623 27.8003 41.9566 27.7924 41.9489 27.7867C41.9413 27.781 41.9321 27.7778 41.9225 27.7775Z" fill="#0F9CDA" stroke="white" stroke-width="1.18823" stroke-miterlimit="10"/>
</svg>
