<svg width="79" height="78" viewBox="0 0 79 78" fill="none" xmlns="http://www.w3.org/2000/svg">
<g clip-path="url(#clip0_580_3986)">
<mask id="mask0_580_3986" style="mask-type:luminance" maskUnits="userSpaceOnUse" x="0" y="0" width="79" height="78">
<path d="M0.492676 0H78.4927V78H0.492676V0Z" fill="white"/>
</mask>
<g mask="url(#mask0_580_3986)">
<path d="M0.492676 0H78.4927V78H0.492676V0Z" fill="#8934AD"/>
<path d="M15.4301 51.658C15.4301 52.2176 15.2106 52.6867 14.7717 53.0652C14.3329 53.4435 13.82 53.6328 13.2331 53.6328C12.9698 53.6328 12.7147 53.589 12.4679 53.5012C12.605 53.5012 12.7284 53.4847 12.8382 53.4519C12.86 53.4464 12.9807 53.3998 13.2002 53.3119C13.5184 53.1913 13.7653 53.0295 13.9407 52.8265C14.1602 52.5742 14.2698 52.2697 14.2698 51.9131C14.2698 51.7925 14.2588 51.6801 14.237 51.5758C14.1876 51.2686 14.0368 51.0383 13.7844 50.8846C13.5376 50.7311 13.2249 50.6543 12.8464 50.6543C12.7147 50.6543 12.5749 50.6625 12.4267 50.6789L12.1141 50.7201V55.5747C12.1141 55.7339 12.1223 55.8737 12.1388 55.9944C12.1552 56.1095 12.199 56.2165 12.2704 56.3153C12.3142 56.3811 12.3663 56.4442 12.4267 56.5046C12.4955 56.5614 12.57 56.611 12.6489 56.6526H10.6165C10.7263 56.5978 10.7921 56.5622 10.814 56.5456C10.8687 56.5073 10.9183 56.436 10.962 56.3317C11.0114 56.2275 11.0444 56.1095 11.0608 55.9779C11.0773 55.8407 11.0855 55.7036 11.0855 55.5665V50.9504V50.8435C11.0855 50.6953 11.0773 50.5801 11.0608 50.4979C11.0499 50.4102 11.0116 50.3168 10.9456 50.2182C10.9062 50.1576 10.8592 50.1023 10.8058 50.0536C10.7565 50.0096 10.6878 49.9658 10.6001 49.9219H13.1262C13.7461 49.9219 14.2727 50.0672 14.7059 50.358C15.1887 50.6817 15.4301 51.115 15.4301 51.658ZM26.1395 53.4683C26.1395 54.357 25.8241 55.1277 25.1932 55.7804C24.513 56.4825 23.6436 56.8337 22.5849 56.8337C21.422 56.8337 20.4785 56.4991 19.7543 55.8298C19.0303 55.155 18.6682 54.313 18.6682 53.3037C18.6682 52.3602 18.9781 51.5484 19.598 50.8682C20.2728 50.1276 21.1476 49.7573 22.2228 49.7573C23.5229 49.7573 24.5241 50.1469 25.2262 50.9258C25.835 51.606 26.1395 52.4535 26.1395 53.4683ZM24.9958 53.3285C24.9958 52.5494 24.7928 51.9049 24.3868 51.3947C23.9151 50.8024 23.2431 50.5061 22.371 50.5061C21.5865 50.5061 20.9584 50.8024 20.4867 51.3947C20.0588 51.9324 19.8449 52.5906 19.8449 53.3695C19.8449 54.165 20.0917 54.8259 20.5855 55.3526C21.0845 55.8737 21.7181 56.1343 22.4861 56.1343C23.2321 56.1343 23.8465 55.838 24.3293 55.2456C24.7735 54.697 24.9958 54.058 24.9958 53.3285ZM34.1832 55.2785L33.6648 56.6526H29.3698C29.43 56.6253 29.4931 56.5978 29.559 56.5704C29.6515 56.5163 29.7259 56.4362 29.7729 56.3399C29.828 56.2405 29.8643 56.1317 29.8799 56.0191C29.9018 55.9038 29.9128 55.7777 29.9128 55.6405V51.008V50.8928C29.9128 50.7229 29.9046 50.5912 29.8881 50.4979C29.8772 50.4047 29.8387 50.3059 29.7729 50.2016C29.729 50.1249 29.6823 50.07 29.6331 50.0371C29.5891 50.0042 29.5151 49.9658 29.4108 49.9219H31.4762C31.3774 49.9658 31.3034 50.0069 31.254 50.0453C31.2045 50.0783 31.1553 50.1331 31.1059 50.21C31.0401 50.3196 30.9989 50.4321 30.9825 50.5473C30.966 50.6625 30.9578 50.8297 30.9578 51.0492V55.7804C31.0071 55.797 31.1827 55.8243 31.4844 55.8628C31.7916 55.9011 32.0905 55.9203 32.3813 55.9203C32.7158 55.9203 32.9791 55.8847 33.1711 55.8134C33.3223 55.754 33.4732 55.6937 33.6236 55.6323C33.7773 55.5665 33.9638 55.4486 34.1832 55.2785ZM44.7707 56.6526H42.549C42.6641 56.6417 42.7875 56.5649 42.9193 56.4222C42.9631 56.3729 42.9851 56.3126 42.9851 56.2413C42.9851 56.1753 42.9659 56.0903 42.9275 55.9862L42.1869 54.1347H39.6444L39.0273 55.8134C38.9838 55.932 38.9615 56.0573 38.9614 56.1837C38.9614 56.3153 38.9917 56.4112 39.052 56.4716C39.1562 56.5704 39.2632 56.6307 39.3729 56.6526H37.4064C37.4801 56.6189 37.5515 56.5804 37.6203 56.5374C37.6806 56.4935 37.741 56.4442 37.8013 56.3893C37.889 56.3016 37.9637 56.2018 38.0234 56.0931C38.0618 56.0218 38.114 55.9066 38.1798 55.7476L40.2286 50.6377C40.2506 50.5829 40.2671 50.5363 40.278 50.4979C40.289 50.454 40.2944 50.4074 40.2944 50.358C40.2944 50.3196 40.2862 50.2703 40.2698 50.21C40.2204 50.0508 40.1052 49.9549 39.9241 49.9219H41.5863L43.8244 55.4431C43.8627 55.5528 43.9066 55.6652 43.956 55.7804C44.0054 55.8901 44.0713 56.0026 44.1535 56.1179C44.2341 56.2252 44.325 56.3244 44.425 56.414C44.5183 56.4964 44.6334 56.5759 44.7707 56.6526ZM41.9483 53.4107L40.9444 50.86L39.9241 53.4107H41.9483ZM54.428 56.6526C54.4116 56.6581 54.321 56.6636 54.1565 56.6691C53.9974 56.6745 53.8054 56.6773 53.5806 56.6773H53.4571C53.1169 56.6773 52.8701 56.6608 52.7165 56.628C52.5685 56.5895 52.382 56.4606 52.157 56.2413C51.9759 56.0657 51.7593 55.8161 51.507 55.4925C51.2835 55.2027 51.0613 54.912 50.8404 54.6203C50.6869 54.4283 50.4867 54.1375 50.2398 53.748C50.0533 53.4519 49.9326 53.2572 49.8777 53.1638C49.9765 53.1638 50.1027 53.1474 50.2563 53.1144C50.4138 53.0748 50.5679 53.0225 50.717 52.9582C50.9914 52.8375 51.2053 52.6867 51.3589 52.5056C51.5509 52.2807 51.6468 52.0174 51.6468 51.7156C51.6468 51.6828 51.6441 51.6443 51.6386 51.6004C51.6332 51.5512 51.6304 51.5127 51.6304 51.4853C51.5865 51.211 51.4439 50.9916 51.2025 50.827C50.9611 50.657 50.6623 50.5719 50.3057 50.5719C50.1576 50.5719 49.9902 50.5939 49.8037 50.6377L49.6474 50.6789V55.7228C49.6474 55.871 49.6502 55.9862 49.6557 56.0685C49.6666 56.1452 49.694 56.2275 49.7379 56.3153C49.7818 56.403 49.8256 56.4689 49.8695 56.5128C49.9135 56.5511 49.982 56.5978 50.0752 56.6526H48.117C48.2102 56.6087 48.2842 56.5649 48.3391 56.521C48.3994 56.4771 48.4488 56.4112 48.4872 56.3235C48.5296 56.2353 48.5574 56.1408 48.5695 56.0437C48.586 55.945 48.5942 55.8353 48.5942 55.7146V50.9422C48.5942 50.7393 48.5805 50.5912 48.553 50.4979C48.5309 50.3988 48.4919 50.3042 48.4379 50.2182C48.361 50.092 48.2459 49.9932 48.0922 49.9219H50.6595C51.23 49.9219 51.7017 50.0563 52.0748 50.3251C52.4972 50.6268 52.7083 51.0547 52.7083 51.6088C52.7083 51.9652 52.5603 52.3191 52.264 52.6701C51.9677 53.0158 51.6029 53.2461 51.1697 53.3613L51.0709 53.3861L52.7165 55.4677C52.8263 55.5994 52.9743 55.7476 53.1609 55.912C53.3144 56.0437 53.4571 56.1507 53.5888 56.2329C53.7204 56.3098 53.8603 56.3893 54.0083 56.4716C54.129 56.5374 54.2689 56.5978 54.428 56.6526ZM60.0074 56.6526H57.9502C58.0215 56.6142 58.0764 56.5841 58.1148 56.5622C58.2025 56.5073 58.2656 56.4387 58.3041 56.3564C58.3479 56.2687 58.3808 56.1726 58.4027 56.0685C58.4302 55.9587 58.4439 55.838 58.4439 55.7064V50.9504V50.8435C58.4439 50.6899 58.4357 50.5719 58.4193 50.4897C58.4027 50.4074 58.3589 50.3086 58.2875 50.1934C58.2162 50.0783 58.1039 49.9877 57.9502 49.9219H59.999C59.9113 49.9604 59.84 50.0014 59.7851 50.0453C59.7262 50.094 59.6761 50.1525 59.6371 50.2182C59.5986 50.2895 59.5658 50.4047 59.5383 50.5637C59.5109 50.7174 59.4971 50.8572 59.4971 50.9834V55.731C59.4971 55.8628 59.5054 55.9724 59.5218 56.0602C59.5383 56.1425 59.5767 56.244 59.6371 56.3646C59.6754 56.436 59.722 56.4935 59.7769 56.5374C59.8373 56.5759 59.914 56.6142 60.0074 56.6526ZM68.3866 54.7025C68.3866 55.3663 68.0876 55.8956 67.4896 56.2905C66.9466 56.6472 66.2911 56.8255 65.523 56.8255C65.3037 56.8255 65.1062 56.8173 64.9307 56.8007C64.75 56.7824 64.5712 56.7494 64.3959 56.702L63.7787 56.5456L63.5072 55.2538L63.6471 55.3526C64.3328 55.8353 64.991 56.0767 65.6218 56.0767C66.0935 56.0767 66.472 55.9862 66.7574 55.8052C67.048 55.6187 67.1935 55.3855 67.1935 55.1058C67.1935 54.7546 67.0618 54.4695 66.7985 54.25C66.5407 54.0251 66.0168 53.7425 65.2269 53.4025C64.6564 53.1556 64.2449 52.8594 63.9926 52.5138C63.7897 52.234 63.6883 51.9186 63.6883 51.5676C63.6883 50.9422 63.935 50.476 64.4287 50.1688C64.8621 49.9 65.4601 49.7656 66.2226 49.7656C66.5078 49.7656 66.7628 49.7821 66.9878 49.8149C67.2126 49.8424 67.4485 49.8945 67.6954 49.9713L67.8023 50.0042V51.1561L67.6789 51.041C67.4923 50.8709 67.2538 50.7311 66.963 50.6213C66.685 50.5129 66.3892 50.4571 66.0908 50.4567C65.7562 50.4567 65.4683 50.5363 65.2269 50.6953C64.9855 50.849 64.8648 51.0574 64.8648 51.3207C64.8648 51.6719 65.0185 51.968 65.3256 52.2094C65.5451 52.3849 65.9509 52.6016 66.5435 52.8594C67.1413 53.1117 67.5884 53.3777 67.8847 53.6576C68.2192 53.9757 68.3866 54.324 68.3866 54.7025ZM27.1064 65.0831C27.1064 65.6371 26.865 66.1198 26.3822 66.5313C25.8666 66.9701 25.2194 67.1895 24.4404 67.1895H21.8321C21.9143 67.1565 21.9774 67.1237 22.0213 67.0907C22.0707 67.0578 22.1173 67.0112 22.1612 66.9508C22.227 66.8576 22.271 66.7643 22.2928 66.6711C22.3147 66.5778 22.3258 66.4654 22.3258 66.3338V61.5367V61.4214V61.3228C22.3258 61.1857 22.3147 61.0732 22.2928 60.9853C22.2779 60.8955 22.2411 60.8108 22.1858 60.7385C22.1366 60.6617 22.0817 60.6041 22.0213 60.5658C21.9511 60.5226 21.8767 60.4867 21.7991 60.4588H24.424C25.0109 60.4588 25.4965 60.5931 25.8804 60.8619C26.2644 61.1308 26.4564 61.4599 26.4564 61.8493C26.4564 62.2663 26.374 62.5734 26.2095 62.7708C26.1272 62.8696 25.927 63.0095 25.6088 63.1905L25.4937 63.2564L25.617 63.3058C26.1217 63.5087 26.481 63.7198 26.6949 63.9393C26.9693 64.2245 27.1064 64.6058 27.1064 65.0831ZM25.3291 62.0056C25.2742 61.6601 25.1234 61.4078 24.8766 61.2486C24.6846 61.1226 24.4432 61.0595 24.1524 61.0595C23.944 61.0595 23.7795 61.0869 23.6588 61.1417L23.3872 61.257V63.1577L23.7904 63.1659C24.169 63.1659 24.5063 63.089 24.8025 62.9355C25.1645 62.7489 25.3455 62.4911 25.3455 62.162C25.3455 62.1345 25.34 62.0825 25.3291 62.0056ZM25.9545 65.1241C25.9545 64.6854 25.7734 64.3452 25.4113 64.1038C25.0932 63.8899 24.7037 63.7829 24.243 63.7829C24.1223 63.7829 23.9989 63.7913 23.8727 63.8077L23.3954 63.8817V66.3172L23.56 66.3913C23.8233 66.512 24.1168 66.5723 24.4404 66.5723C24.8629 66.5723 25.2111 66.46 25.4854 66.235C25.7981 65.9772 25.9545 65.6069 25.9545 65.1241ZM37.7043 67.1895H35.4826C35.5979 67.1785 35.7213 67.1018 35.8529 66.959C35.8969 66.9098 35.9188 66.8494 35.9188 66.7781C35.9188 66.7122 35.8996 66.6272 35.8612 66.5231L35.1207 64.6716H32.5782L31.961 66.3502C31.9175 66.4688 31.8952 66.5942 31.8952 66.7205C31.8952 66.8522 31.9254 66.9481 31.9856 67.0084C32.0899 67.1072 32.1969 67.1676 32.3067 67.1895H30.3401C30.4138 67.1557 30.4853 67.1172 30.554 67.0743C30.6143 67.0303 30.6747 66.9811 30.735 66.9262C30.8227 66.8384 30.8975 66.7387 30.9571 66.6299C30.9956 66.5586 31.0477 66.4434 31.1136 66.2844L33.1623 61.1746C33.1842 61.1197 33.2008 61.0732 33.2118 61.0347C33.2227 60.9908 33.2282 60.9443 33.2282 60.8949C33.2282 60.8564 33.22 60.8072 33.2035 60.7468C33.1541 60.5877 33.0389 60.4917 32.8579 60.4588H34.52L36.7582 65.9799C36.7965 66.0897 36.8404 66.202 36.8898 66.3172C36.9391 66.427 37.0049 66.5395 37.0873 66.6547C37.1679 66.762 37.2588 66.8612 37.3588 66.9508C37.4519 67.0332 37.5672 67.1127 37.7043 67.1895ZM34.882 63.9475L33.8782 61.3968L32.8579 63.9475H34.882ZM47.913 60.4588C47.6936 60.5465 47.5345 60.6837 47.4358 60.8702C47.3944 60.9431 47.3612 61.0203 47.337 61.1005C47.3151 61.1828 47.3042 61.2843 47.3042 61.405V61.5531L47.3124 67.5268C47.1532 67.4775 47.0161 67.4227 46.9009 67.3623C46.7858 67.3074 46.6569 67.2252 46.5142 67.1154C46.4202 67.049 46.3322 66.9747 46.2509 66.8932C46.2126 66.8549 46.0946 66.7094 45.8971 66.4571L42.2931 61.907L42.3013 66.1116V66.2186C42.3013 66.3502 42.315 66.4709 42.3425 66.5805C42.3754 66.6903 42.4467 66.8192 42.5564 66.9674C42.5839 67.0002 42.6387 67.0441 42.721 67.099C42.8033 67.1483 42.8636 67.1785 42.9021 67.1895H40.9355C41.0133 67.1587 41.0877 67.1201 41.1576 67.0743C41.2564 67.0084 41.3332 66.9317 41.3881 66.844C41.4491 66.7487 41.491 66.6425 41.5115 66.5313C41.5389 66.4106 41.5526 66.3063 41.5526 66.2186V61.4955C41.5526 61.3638 41.5443 61.2459 41.5279 61.1417C41.517 61.0375 41.4867 60.947 41.4373 60.8702C41.3606 60.7605 41.2893 60.6783 41.2234 60.6234C41.1631 60.563 41.0726 60.5082 40.952 60.4588H42.5894C42.6003 60.541 42.6113 60.5931 42.6222 60.6152C42.6552 60.6754 42.6771 60.7138 42.6881 60.7303C42.7265 60.7906 42.773 60.8592 42.8279 60.9361L46.5389 65.6178V61.5367C46.5389 61.3611 46.528 61.2212 46.506 61.117C46.4895 61.0128 46.4429 60.9003 46.3661 60.7797C46.3245 60.711 46.2717 60.6498 46.2098 60.5986C46.1495 60.5492 46.0726 60.5027 45.9794 60.4588H47.913ZM53.1797 67.1895H51.1474C51.2351 67.1401 51.3036 67.0934 51.353 67.0496C51.4079 67.0057 51.4517 66.9453 51.4847 66.8686C51.523 66.7918 51.5532 66.6957 51.5751 66.5805C51.6026 66.4654 51.6163 66.3393 51.6163 66.202V61.4791V61.372C51.6163 61.2185 51.6081 61.1006 51.5917 61.0183C51.5751 60.9361 51.5341 60.8427 51.4683 60.7385C51.4243 60.6672 51.3777 60.6123 51.3283 60.574C51.2845 60.5355 51.2187 60.4972 51.1308 60.4588H53.1797C53.0919 60.4917 53.0206 60.5301 52.9657 60.574C52.9109 60.6123 52.8589 60.6699 52.8095 60.7468C52.7436 60.8455 52.7024 60.9388 52.686 61.0265C52.6751 61.1142 52.6696 61.2404 52.6696 61.405V66.1198C52.6696 66.2954 52.6751 66.4379 52.686 66.5477C52.7024 66.652 52.7436 66.7698 52.8095 66.9014C52.8478 66.9674 52.8972 67.0249 52.9575 67.0743C53.0274 67.1203 53.1019 67.1589 53.1797 67.1895ZM57.2197 67.1895H57.0223C56.951 67.1895 56.8604 67.1922 56.7508 67.1977C56.482 67.1977 56.2324 67.1895 56.002 67.1731C55.7715 67.151 55.6098 67.1154 55.5165 67.066C55.3793 67.0002 55.3026 66.9618 55.2862 66.9508C55.1819 66.8905 55.0667 66.7725 54.9405 66.5971L52.7929 63.7089L54.5538 61.3886C54.5868 61.3392 54.6196 61.2706 54.6526 61.1828C54.6854 61.0951 54.702 61.0128 54.702 60.9361C54.702 60.8537 54.6882 60.7879 54.6608 60.7385C54.6004 60.6013 54.4907 60.5082 54.3317 60.4588H56.2735L53.8791 63.495L55.9856 66.2678C56.0514 66.3557 56.1172 66.4352 56.183 66.5065C56.2668 66.5825 56.3547 66.654 56.4463 66.7205C56.6383 66.8631 56.7754 66.959 56.8577 67.0084C56.94 67.0578 57.0607 67.1182 57.2197 67.1895Z" fill="white"/>
<path d="M41.477 10.9474L28.5454 24.2895H34.9086L47.977 10.9474H41.477ZM42.2296 18.6105L29.298 31.9526H35.6612L48.7296 18.6105H42.2296ZM43.8717 25.3158L30.9401 38.6579H37.3033L50.3717 25.3158H43.8717Z" fill="#F2A809"/>
</g>
</g>
<defs>
<clipPath id="clip0_580_3986">
<rect width="78" height="78" fill="white" transform="translate(0.492676)"/>
</clipPath>
</defs>
</svg>
