<svg width="162" height="66" viewBox="0 0 162 66" fill="none" xmlns="http://www.w3.org/2000/svg">
<g clip-path="url(#clip0_580_3995)">
<path fill-rule="evenodd" clip-rule="evenodd" d="M36.6046 58.5082L12.2416 42.5102C12.2416 42.5102 9.19627 40.7434 8.47689 37.4276C7.49374 32.8049 10.7309 28.8114 10.7309 28.8114L42.3596 49.5774C44.8055 51.1747 45.4769 54.4663 43.8943 56.935C42.2877 59.4763 38.9786 60.0571 36.6046 58.5082Z" fill="#38D200"/>
<path fill-rule="evenodd" clip-rule="evenodd" d="M13.5376 25.3799C13.5376 25.3799 9.79688 23.1048 9.79688 17.8528C9.79688 12.625 13.5376 10.3742 13.5376 10.3742L26.8701 1.58861C29.316 -0.00876492 32.5772 0.693114 34.1598 3.13759C35.7425 5.60626 35.0471 8.89783 32.6012 10.4952L21.3789 17.877L40.5144 30.4382C40.5144 30.4382 43.9674 32.4229 44.6388 35.787C45.574 40.4824 42.3847 44.3306 42.3847 44.3306L13.5376 25.3799Z" fill="#0473EA"/>
<path fill-rule="evenodd" clip-rule="evenodd" d="M38.596 12.6219C37.349 12.6219 36.4618 13.0092 35.5746 13.5901L29.0762 17.8497L35.5746 22.1094C36.4618 22.6903 37.373 23.0775 38.596 23.0775C41.4735 23.0775 43.7995 20.7299 43.7995 17.8497C43.7995 14.9696 41.4735 12.6219 38.596 12.6219Z" fill="#38D200"/>
<path fill-rule="evenodd" clip-rule="evenodd" d="M13.4652 59.3332C14.7121 59.3332 15.5994 58.9459 16.4866 58.3651L22.985 54.1054L16.4866 49.8457C15.5994 49.2648 14.6882 48.8776 13.4652 48.8776C10.5877 48.8776 8.26172 51.2253 8.26172 54.1054C8.26172 57.0097 10.5877 59.3332 13.4652 59.3332Z" fill="#0473EA"/>
<path fill-rule="evenodd" clip-rule="evenodd" d="M154.511 29.0556L156.43 30.2415V44.3275H154.511V42.3429C153.576 43.7224 152.09 44.5695 150.291 44.5695C146.934 44.5695 144.536 42.0524 144.536 38.6157C144.536 35.1063 146.934 32.5408 150.291 32.5408C152.09 32.5408 153.576 33.4121 154.511 34.8158V29.0556ZM105.786 29.0556L107.68 30.2415V40.4793C107.68 42.1008 108.663 42.7301 109.886 42.7301C110.821 42.7301 111.756 42.4639 112.572 41.883V43.7466C111.78 44.3275 110.677 44.5695 109.718 44.5695C107.272 44.5695 105.786 43.4562 105.786 40.334V29.0556ZM137.774 32.5166C141.083 32.5166 143.241 34.9852 143.241 38.301C143.241 38.6399 143.217 38.9545 143.169 39.2691H134.105C134.393 41.3506 136.023 42.7543 138.301 42.7543C139.764 42.7543 141.203 42.3429 142.402 41.4716V43.311C141.155 44.1581 139.764 44.5453 138.301 44.5453C134.681 44.5453 132.091 42.1977 132.091 38.6399C132.091 35.1547 134.297 32.5166 137.774 32.5166ZM89.2398 32.5166C91.0383 32.5166 92.501 33.3637 93.4602 34.7432V32.7102H95.3785V44.3033H93.4602V42.3429C92.501 43.6982 91.0383 44.5211 89.2398 44.5211C85.8827 44.5211 83.4848 42.004 83.4848 38.5672C83.4608 35.0821 85.8827 32.5166 89.2398 32.5166ZM65.5243 32.5166C66.8911 32.5166 68.186 32.928 69.2171 33.7025V35.8323C68.3059 34.84 67.059 34.3318 65.6442 34.3318C63.1983 34.3318 61.4718 36.0502 61.4718 38.5188C61.4718 40.9875 63.2223 42.7301 65.6682 42.7301C67.035 42.7301 68.3299 42.3429 69.337 41.4958V43.4562C68.21 44.2307 66.8911 44.5695 65.5003 44.5695C61.9754 44.5695 59.5295 42.1008 59.5295 38.543C59.5055 34.9852 62.0233 32.5166 65.5243 32.5166ZM118.327 32.5166C121.636 32.5166 123.794 34.9852 123.794 38.301C123.794 38.6399 123.77 38.9545 123.722 39.2691H114.658C114.946 41.3506 116.576 42.7543 118.854 42.7543C120.317 42.7543 121.756 42.3429 122.955 41.4716V43.311C121.708 44.1581 120.317 44.5453 118.854 44.5453C115.233 44.5453 112.644 42.1977 112.644 38.6399C112.668 35.1547 114.85 32.5166 118.327 32.5166ZM71.4232 29.0556L73.3176 30.2415V34.719C74.1808 33.3879 75.5476 32.5408 77.2981 32.5408C80.1996 32.5408 81.7343 34.6706 81.7343 37.5265V44.3517H79.8159V37.8654C79.8159 35.6145 78.8328 34.4044 76.8425 34.4044C74.7323 34.4044 73.3176 36.2438 73.3176 38.543V44.3517H71.4232V29.0556ZM104.371 32.5166V34.6948C102.093 34.356 100.174 35.9291 100.174 38.7851V44.3033H98.28V32.7102H100.174V35.1789C101.086 33.4847 102.572 32.5166 104.371 32.5166ZM131.947 32.5166V34.6948C129.669 34.356 127.751 35.9291 127.751 38.7851V44.3033H125.856V32.7102H127.751V35.1789C128.662 33.4847 130.148 32.5166 131.947 32.5166ZM150.483 34.356C148.157 34.356 146.502 36.147 146.502 38.5914C146.502 40.9875 148.157 42.7543 150.483 42.7543C152.833 42.7543 154.511 40.9875 154.511 38.5914C154.511 36.147 152.833 34.356 150.483 34.356ZM89.4077 34.3318C87.0817 34.3318 85.4271 36.1228 85.4271 38.5672C85.4271 40.9633 87.0817 42.7301 89.4077 42.7301C91.7576 42.7301 93.4362 40.9633 93.4362 38.5672C93.4362 36.0986 91.7576 34.3318 89.4077 34.3318ZM118.351 34.2834C116.264 34.2834 114.994 35.7597 114.682 37.7201H121.804C121.612 35.7355 120.365 34.2834 118.351 34.2834ZM137.798 34.2834C135.712 34.2834 134.441 35.7597 134.129 37.7201H141.251C141.059 35.7355 139.812 34.2834 137.798 34.2834ZM109.143 32.565C109.622 32.2503 110.246 32.2503 110.725 32.5892L112.62 33.8719L110.749 35.0821C110.27 35.3967 109.646 35.3967 109.167 35.0821L109.119 35.0578C108.255 34.4528 108.255 33.1458 109.143 32.565ZM82.5256 15.5747C84.3241 15.5747 85.7868 16.4218 86.746 17.8013V15.7683H88.6643V27.3614H86.746V25.401C85.7868 26.7563 84.3241 27.5792 82.5256 27.5792C79.1685 27.5792 76.7706 25.0621 76.7706 21.6253C76.7466 18.116 79.1685 15.5747 82.5256 15.5747ZM71.2793 12.0653V23.489C71.2793 25.1105 72.2625 25.7398 73.4854 25.7398C74.4206 25.7398 75.3558 25.4736 76.1711 24.8927V26.7563C75.3798 27.3372 74.2767 27.5792 73.3176 27.5792C70.8717 27.5792 69.385 26.4659 69.385 23.3437V13.2512L71.2793 12.0653ZM150.483 12.0653V27.3614H148.565V25.3284C147.629 26.7079 146.143 27.555 144.344 27.555C140.987 27.555 138.589 25.0379 138.589 21.6011C138.589 18.0918 140.987 15.5263 144.344 15.5263C146.143 15.5263 147.629 16.3976 148.565 17.8013V13.2028L150.483 12.0653ZM123.338 15.5747C125.137 15.5747 126.6 16.4218 127.559 17.8013V15.7683H129.477V27.3614H127.559V25.401C126.6 26.7563 125.137 27.5792 123.338 27.5792C119.981 27.5792 117.583 25.0621 117.583 21.6253C117.583 18.116 119.981 15.5747 123.338 15.5747ZM63.6299 15.5747C64.9728 15.5747 66.2437 15.9619 67.1309 16.6396V18.6484C66.0758 17.7045 64.8049 17.172 63.6539 17.172C62.431 17.172 61.5677 17.7287 61.5677 18.6726C61.5677 19.3745 61.9034 19.8101 62.8146 20.149L65.5483 21.2623C67.011 21.8916 67.6824 22.7871 67.6824 24.0456C67.6824 26.2481 65.908 27.6276 63.4141 27.6276C61.9034 27.6276 60.5126 27.2162 59.5295 26.4417V24.3845C60.7524 25.5462 62.0952 26.0544 63.4381 26.0544C64.7809 26.0544 65.7641 25.4736 65.7641 24.4087C65.7641 23.7794 65.4284 23.2711 64.5651 22.9323L61.8315 21.819C60.4407 21.2139 59.6733 20.4152 59.6733 18.9146C59.6973 16.8332 61.3039 15.5747 63.6299 15.5747ZM115.521 12.0653V27.3614H113.603V25.3284C112.668 26.7079 111.181 27.555 109.382 27.555C106.025 27.555 103.627 25.0379 103.627 21.6011C103.627 18.0918 106.025 15.5263 109.382 15.5263C111.181 15.5263 112.668 16.3976 113.603 17.8013V13.2028L115.521 12.0653ZM138.493 15.5747V17.7529C136.215 17.4141 134.297 18.9873 134.297 21.8432V27.3614H132.403V15.7683H134.297V18.237C135.208 16.5186 136.671 15.5747 138.493 15.5747ZM97.4647 15.5747C100.366 15.5747 101.901 17.7045 101.901 20.5604V27.3856H99.9825V20.8993C99.9825 18.6484 98.9994 17.4383 97.0091 17.4383C94.8989 17.4383 93.4841 19.2777 93.4841 21.5769V27.3856H91.5898V15.7925H93.4841V17.7771C94.3234 16.4218 95.7142 15.5747 97.4647 15.5747ZM82.6935 17.3657C80.3675 17.3657 78.7129 19.1567 78.7129 21.6011C78.7129 23.9972 80.3675 25.764 82.6935 25.764C85.0434 25.764 86.722 23.9972 86.722 21.6011C86.722 19.1567 85.0674 17.3657 82.6935 17.3657ZM109.574 17.3657C107.248 17.3657 105.594 19.1567 105.594 21.6011C105.594 23.9972 107.248 25.764 109.574 25.764C111.924 25.764 113.603 23.9972 113.603 21.6011C113.603 19.1567 111.924 17.3657 109.574 17.3657ZM144.536 17.3657C142.21 17.3657 140.556 19.1567 140.556 21.6011C140.556 23.9972 142.21 25.764 144.536 25.764C146.886 25.764 148.565 23.9972 148.565 21.6011C148.589 19.1567 146.91 17.3657 144.536 17.3657ZM123.53 17.3657C121.204 17.3657 119.55 19.1567 119.55 21.6011C119.55 23.9972 121.204 25.764 123.53 25.764C125.88 25.764 127.559 23.9972 127.559 21.6011C127.559 19.1567 125.88 17.3657 123.53 17.3657ZM73.917 15.7441C74.3966 15.4295 75.0201 15.4295 75.4997 15.7441L75.5476 15.7683C76.4588 16.3492 76.4588 17.6803 75.5476 18.2612C75.068 18.5758 74.4446 18.5758 73.965 18.2612L72.0706 16.9784L73.917 15.7441Z" fill="#525355"/>
</g>
<defs>
<clipPath id="clip0_580_3995">
<rect width="161" height="65" fill="white" transform="translate(0.689453 0.5)"/>
</clipPath>
</defs>
</svg>
