<svg width="130" height="76" viewBox="0 0 130 76" fill="none" xmlns="http://www.w3.org/2000/svg">
<path d="M10.7325 50.676C5.15942 50.676 2.42126 53.6736 2.43807 57.4859C2.46001 61.4982 5.14396 63.0163 9.2479 64.0375C13.5391 65.1064 15.1554 65.7622 15.1863 68.0718C15.2044 69.9269 13.9328 72.088 10.1516 72.0415C7.60579 72.0053 6.11218 71.1275 5.11681 69.8791C4.75405 69.3976 4.56169 68.7908 4.47133 68.2331C4.3758 67.638 4.37449 67.0829 4.34224 66.4581H2.59944V71.9447C3.85683 72.878 7.08684 73.8488 10.1838 73.8488C15.8396 73.8488 18.3531 70.8796 18.7042 67.6199C18.9469 65.362 18.721 63.4901 17.2196 61.972C16.0952 60.8669 14.2659 60.1827 10.8293 59.4223C6.71374 58.5251 5.95463 57.6098 5.98822 55.6462C6.02307 53.684 7.90533 52.5415 10.2484 52.4511C11.9241 52.3775 13.2473 52.5931 14.6377 53.5484C15.0585 53.8363 15.4355 54.4392 15.5736 55.1299C15.6963 55.7017 15.7118 56.4092 15.735 56.9049H17.3487V52.0315C15.868 51.3151 14.08 50.676 10.7325 50.676ZM50.7847 51.0633V56.9049H46.4922V57.97H46.9118C48.124 57.97 48.2673 58.3043 48.2673 59.0996V69.2982L41.3606 56.9049H30.4843V57.97H30.9038C32.1276 57.97 32.2593 58.1817 32.2593 58.9705V67.7167C32.2593 69.6751 31.9921 72.5398 28.5478 72.4288C25.4766 72.3423 25.3204 70.0469 25.3204 68.0072V58.9705C25.3204 58.1817 25.8161 57.97 27.0309 57.97V56.9049H19.5756V57.97C20.7891 57.97 21.2861 58.1817 21.2861 58.9705V67.4586C21.2861 69.8029 21.756 71.3611 22.6739 72.3319C24.2218 73.8669 26.7572 73.8488 27.9346 73.8488C33.5464 73.8489 33.8408 69.8494 33.8408 66.4258V57.97C33.8408 58.2127 33.9208 57.97 35.1317 57.97H36.0999C37.3108 57.97 37.3909 58.1817 37.3909 58.9705V71.2669C37.3909 72.0428 37.2489 72.3642 36.0354 72.3642H35.6158V73.397H40.7797V72.3642H40.3601C39.1466 72.3642 39.0046 72.0428 39.0046 71.2669V60.9392L45.9758 73.397H49.881V59.0996C49.881 58.3121 50.014 57.97 51.2365 57.97H52.4306V56.1303C52.4306 54.5605 52.5365 52.7416 54.8512 52.7416H57.4331V70.4278C57.4331 71.9137 57.1026 72.3642 55.3999 72.3642H54.8189V73.397H64.6948V72.3642H64.1461C62.4279 72.3642 62.0483 71.9137 62.0483 70.4278V52.7416H64.6302C66.9088 52.7416 67.0185 54.5605 67.0185 56.1303V57.97H68.6322C69.8677 57.97 69.9555 58.2475 69.9555 59.035V71.2992C69.9555 72.0841 69.4326 72.3642 68.1804 72.3642V73.397H75.8294V72.3642C74.5887 72.3642 74.0543 72.0841 74.0543 71.2992V58.1959H76.0553C77.6445 58.1959 78.8308 58.7678 78.8308 61.1974C78.8308 62.7233 78.2215 64.4571 76.023 64.4571H74.7966C74.7966 64.4571 77.8316 70.5607 78.379 71.6865C79.0877 73.1014 79.963 73.397 81.7032 73.397H84.7047V72.3642C84.2852 72.3642 83.4577 72.2932 82.9942 71.5574L79.4118 65.3285C81.4153 64.9089 82.8651 63.3701 82.8651 61.1651C82.8651 57.1141 78.827 56.9049 76.1844 56.9049H68.6645V51.0633H50.7847ZM106.006 56.4208C102.203 56.6706 100.403 59.0116 100.39 61.5847C100.374 64.5255 101.832 65.8784 105.425 66.7163C109.036 67.5386 110.04 67.8626 110.072 69.75C110.092 71.0655 108.9 72.5075 106.296 72.461C104.243 72.4262 103.138 71.6671 102.552 70.9764C102.244 70.6111 102.119 70.2187 102.036 69.7823C101.946 69.2181 101.96 68.7986 101.939 68.33H100.454V72.3965C101.414 73.0859 103.901 73.8489 106.264 73.8488C110.558 73.8488 112.671 71.5238 112.912 68.8141C113.071 67.1281 112.706 65.6835 111.718 64.6507C110.778 63.6915 109.645 63.3133 106.845 62.7465C103.745 62.1114 103.122 61.5885 103.133 60.1001C103.133 58.5574 104.915 57.8602 106.264 57.8086C107.263 57.766 108.735 57.7867 109.846 58.7123C110.231 59.035 110.361 59.4791 110.395 59.9387C110.447 60.4267 110.475 60.9043 110.492 61.2942H111.944V57.4536C110.737 56.8817 109.396 56.4492 106.812 56.4208C106.541 56.4182 106.259 56.4042 106.006 56.4208ZM83.7365 56.9049V57.97C84.9526 57.97 85.447 58.1817 85.447 58.9705V67.4586C85.447 69.8029 85.9053 71.3611 86.8671 72.3319C88.384 73.8669 90.9065 73.8489 92.0955 73.8488C97.7409 73.8488 98.0339 69.8688 98.0339 67.4586V59.035C98.0339 58.2462 98.1695 57.97 99.3572 57.97H99.7767V56.9049H94.6451V57.97H95.0647C96.2795 57.97 96.4202 58.2462 96.4202 59.035V67.7167C96.4202 69.6751 96.153 72.5398 92.7087 72.4288C89.6388 72.3423 89.4813 70.0469 89.4813 68.0072V58.9705C89.4813 58.1817 89.9822 57.97 91.1918 57.97V56.9049H83.7365ZM113.235 56.9049V61.2942H114.655C114.674 60.5054 114.669 59.381 114.978 58.9382C115.259 58.5264 115.605 58.325 116.462 58.325H118.076V71.041C118.076 71.8246 117.751 72.3642 116.495 72.3642H115.946V73.397H124.208V72.3642H123.66C122.406 72.3642 122.11 71.8246 122.11 71.041V58.325H123.724C124.57 58.325 124.927 58.5264 125.209 58.9382C125.521 59.381 125.513 60.5054 125.531 61.2942H126.984V56.9049H113.235Z" fill="#003366"/>
<mask id="mask0_580_4426" style="mask-type:luminance" maskUnits="userSpaceOnUse" x="17" y="28" width="4" height="17">
<path d="M17.9478 29.4282L17.5927 30.4144C17.2881 31.242 17.2455 32.7176 17.4727 33.5025L19.2981 42.9419C19.4401 43.7604 19.6996 44.1012 19.9746 44.0535C20.2715 43.9773 20.2392 43.3551 20.065 41.9338L18.6862 29.4217C18.5907 28.6381 18.246 28.6226 17.9478 29.4282Z" fill="white"/>
</mask>
<g mask="url(#mask0_580_4426)">
<path d="M17.2446 28.6226H20.2706V44.1025H17.2446V28.6226Z" fill="url(#paint0_linear_580_4426)"/>
</g>
<mask id="mask1_580_4426" style="mask-type:luminance" maskUnits="userSpaceOnUse" x="20" y="30" width="2" height="12">
<path d="M21.8181 39.3414C21.8517 40.156 21.9408 41.1346 21.6593 41.2017C21.4037 41.2572 21.2449 40.937 21.1094 39.8887L20.5169 34.3157C20.4097 33.5153 20.5491 31.8228 20.8461 31.2315C21.1481 30.639 21.4257 30.7913 21.458 31.5853L21.8181 39.3414Z" fill="white"/>
</mask>
<g mask="url(#mask1_580_4426)">
<path d="M20.4106 30.6391H21.9404V41.2572H20.4106V30.6391Z" fill="url(#paint1_linear_580_4426)"/>
</g>
<mask id="mask2_580_4426" style="mask-type:luminance" maskUnits="userSpaceOnUse" x="22" y="20" width="3" height="19">
<path d="M24.2986 20.5901L23.5886 36.8279C23.5757 37.5663 23.5266 38.5074 23.2542 38.4442C23.0993 38.408 22.9147 37.9781 22.8979 37.2397L22.5855 23.9105C22.5661 23.2457 22.8205 22.1496 23.1742 21.4874L23.6661 20.5656C24.0211 19.9201 24.3528 19.9291 24.2986 20.5901Z" fill="white"/>
</mask>
<g mask="url(#mask2_580_4426)">
<path d="M22.5669 19.9202H24.3549V38.5074H22.5669V19.9202Z" fill="url(#paint2_linear_580_4426)"/>
</g>
<mask id="mask3_580_4426" style="mask-type:luminance" maskUnits="userSpaceOnUse" x="24" y="23" width="3" height="16">
<path d="M26.7354 23.9118L25.6317 36.2947C25.5206 37.1661 25.3916 38.0685 25.1334 38.0556C24.9565 38.0504 24.8042 37.5056 24.8907 36.6872L25.3489 26.0574C25.4238 25.2879 25.9441 24.1351 26.2707 23.5464C26.6064 22.9694 26.8581 23.234 26.7354 23.9118Z" fill="white"/>
</mask>
<g mask="url(#mask3_580_4426)">
<path d="M24.8032 22.9695H26.8572V38.0686H24.8032V22.9695Z" fill="url(#paint3_linear_580_4426)"/>
</g>
<mask id="mask4_580_4426" style="mask-type:luminance" maskUnits="userSpaceOnUse" x="26" y="13" width="5" height="23">
<path d="M27.1559 35.4156C26.9416 35.3885 26.9339 34.512 26.9933 33.9156L28.7283 16.7767C28.8239 16.1442 29.2822 15.1694 29.7417 14.604L29.9096 14.3975C30.3846 13.8256 30.7332 13.8785 30.6015 14.4943L27.6775 33.9323C27.5226 34.7715 27.418 35.4156 27.1559 35.4156Z" fill="white"/>
</mask>
<g mask="url(#mask4_580_4426)">
<path d="M26.9341 13.8256H30.7347V35.4156H26.9341V13.8256Z" fill="url(#paint4_linear_580_4426)"/>
</g>
<mask id="mask5_580_4426" style="mask-type:luminance" maskUnits="userSpaceOnUse" x="28" y="17" width="6" height="20">
<path d="M32.3269 17.3318C32.7078 16.8981 33.3429 17.1433 33.2061 17.7604L29.4119 35.0735C29.2764 35.6945 29.004 36.6511 28.7226 36.6188C28.4902 36.5995 28.5044 35.6919 28.6748 34.9548L31.4039 19.2966C31.5382 18.6667 31.9371 17.7579 32.3269 17.3318Z" fill="white"/>
</mask>
<g mask="url(#mask5_580_4426)">
<path d="M28.4888 16.898H33.3415V36.651H28.4888V16.898Z" fill="url(#paint5_linear_580_4426)"/>
</g>
<mask id="mask6_580_4426" style="mask-type:luminance" maskUnits="userSpaceOnUse" x="31" y="10" width="13" height="27">
<path d="M32.7183 34.8747C32.442 35.4711 32.1025 36.3309 31.7178 36.1682C31.4415 36.0559 32.0005 34.7042 32.0005 34.7042L41.4104 11.7496C41.715 11.0796 42.3863 10.225 43.1196 10.5813C43.7754 10.8976 43.0705 12.1925 42.8123 12.7734C37.105 25.6056 35.4797 28.9169 32.7183 34.8747Z" fill="white"/>
</mask>
<g mask="url(#mask6_580_4426)">
<path d="M31.4419 10.2251H43.7771V36.3309H31.4419V10.2251Z" fill="url(#paint6_linear_580_4426)"/>
</g>
<mask id="mask7_580_4426" style="mask-type:luminance" maskUnits="userSpaceOnUse" x="34" y="2" width="20" height="32">
<path d="M34.8313 33.7451C35.0546 33.9168 35.5839 33.2868 35.9983 32.5729L53.2249 3.87217C53.5309 3.35449 53.7039 2.5244 53.0855 2.21457C52.604 1.97445 51.77 2.44436 51.375 3.14277L35.3619 32.0513C34.8919 32.9227 34.6144 33.5695 34.8313 33.7451Z" fill="white"/>
</mask>
<g mask="url(#mask7_580_4426)">
<path d="M34.6138 1.97446H53.702V33.9167H34.6138V1.97446Z" fill="url(#paint7_linear_580_4426)"/>
</g>
<mask id="mask8_580_4426" style="mask-type:luminance" maskUnits="userSpaceOnUse" x="35" y="7" width="22" height="30">
<path d="M35.2308 36.837C35.0061 36.6163 35.3882 35.9049 35.8491 35.191L54.2479 8.48742C54.7449 7.7322 55.8436 6.89567 56.5174 7.28683C57.1242 7.63926 57.1332 8.39961 56.6233 9.11351L36.5398 35.6984C36.0402 36.4148 35.4644 37.0733 35.2308 36.837Z" fill="white"/>
</mask>
<g mask="url(#mask8_580_4426)">
<path d="M35.0063 6.89562H57.1347V37.0732H35.0063V6.89562Z" fill="url(#paint8_linear_580_4426)"/>
</g>
<mask id="mask9_580_4426" style="mask-type:luminance" maskUnits="userSpaceOnUse" x="39" y="2" width="30" height="33">
<path d="M40.6719 33.7425C40.6719 33.7425 39.4571 35.0141 39.2015 34.7314C38.9394 34.4551 39.4364 33.922 39.9735 33.2365L40.5751 32.511L66.2872 3.01886C66.699 2.51151 67.2697 2.4883 67.8119 2.88979L68.589 3.84635C69.0124 4.32917 68.984 5.16573 68.5154 5.63435L40.6719 33.7425Z" fill="white"/>
</mask>
<g mask="url(#mask9_580_4426)">
<path d="M38.938 2.48825H69.0123V35.0141H38.938V2.48825Z" fill="url(#paint9_linear_580_4426)"/>
</g>
<mask id="mask10_580_4426" style="mask-type:luminance" maskUnits="userSpaceOnUse" x="38" y="11" width="32" height="28">
<path d="M38.5885 38.47C38.3897 38.2712 38.8364 37.6761 39.651 36.957L66.951 11.8697C67.4428 11.3662 68.1271 11.3804 68.5673 11.8064C69.1405 12.3525 69.3354 12.8598 69.4271 13.344C69.5807 14.1353 69.1378 14.4878 68.5789 14.99L40.1454 37.6296C39.4444 38.2454 38.8209 38.6856 38.5885 38.47Z" fill="white"/>
</mask>
<g mask="url(#mask10_580_4426)">
<path d="M38.3911 11.3662H69.5834V38.6856H38.3911V11.3662Z" fill="url(#paint10_linear_580_4426)"/>
</g>
<mask id="mask11_580_4426" style="mask-type:luminance" maskUnits="userSpaceOnUse" x="42" y="13" width="37" height="25">
<path d="M44.2482 36.2264L76.0098 13.5261C76.6153 13.0484 77.1703 13.1581 77.3239 13.7571L78.0611 16.3016C78.229 16.929 77.7836 17.772 77.1381 18.2278L44.7943 36.9687C44.0003 37.4761 43.1741 37.9214 42.9714 37.6426C42.7145 37.2901 43.5149 36.8189 44.2482 36.2264Z" fill="white"/>
</mask>
<g mask="url(#mask11_580_4426)">
<path d="M42.7153 13.0484H78.231V37.9214H42.7153V13.0484Z" fill="url(#paint11_linear_580_4426)"/>
</g>
<mask id="mask12_580_4426" style="mask-type:luminance" maskUnits="userSpaceOnUse" x="40" y="25" width="33" height="17">
<path d="M40.865 40.99C40.772 40.6182 41.6099 40.2748 42.4968 39.8152L70.9186 25.4855C71.6906 25.0621 72.2974 25.2777 72.2922 25.9425L72.4174 29.099C72.4071 29.7883 71.679 30.6378 70.7973 30.9928L42.7821 40.7395C41.8022 41.123 40.9515 41.3438 40.865 40.99Z" fill="white"/>
</mask>
<g mask="url(#mask12_580_4426)">
<path d="M40.772 25.0621H72.4186V41.3437H40.772V25.0621Z" fill="url(#paint12_linear_580_4426)"/>
</g>
<mask id="mask13_580_4426" style="mask-type:luminance" maskUnits="userSpaceOnUse" x="44" y="32" width="33" height="11">
<path d="M74.1744 38.2738L46.7272 42.1983C45.6519 42.3661 44.8631 42.5365 44.7804 42.2215C44.6875 41.8433 45.6041 41.611 46.6098 41.2714L75.0833 32.6271C76.0011 32.3211 76.7163 32.6568 76.6311 33.3643L76.2258 36.6227C76.1432 37.3753 75.2279 38.1228 74.1744 38.2738Z" fill="white"/>
</mask>
<g mask="url(#mask13_580_4426)">
<path d="M44.688 32.3211H76.7168V42.5366H44.688V32.3211Z" fill="url(#paint13_linear_580_4426)"/>
</g>
<mask id="mask14_580_4426" style="mask-type:luminance" maskUnits="userSpaceOnUse" x="42" y="41" width="30" height="5">
<path d="M42.9469 44.8655C42.8707 44.4614 44.2353 44.2329 45.2913 44.1232L69.5653 41.2766C70.6497 41.1656 71.5378 41.7452 71.1867 42.685L70.6949 43.9657C70.4057 44.7842 69.5085 45.3548 68.3853 45.2799L45.117 45.2876C44.0971 45.3018 43.0218 45.2709 42.9469 44.8655Z" fill="white"/>
</mask>
<g mask="url(#mask14_580_4426)">
<path d="M42.8716 41.1656H71.5388V45.3547H42.8716V41.1656Z" fill="url(#paint14_linear_580_4426)"/>
</g>
<mask id="mask15_580_4426" style="mask-type:luminance" maskUnits="userSpaceOnUse" x="30" y="6" width="10" height="28">
<path d="M39.5859 8.86816C39.5859 8.86816 32.5553 30.4685 32.1512 31.6291C31.7187 32.8762 31.3005 33.9825 30.9325 33.8883C30.6976 33.8186 30.8822 33.0259 31.1456 32.0693L37.8005 8.63194C38.1155 7.68824 39.1082 6.87104 39.4942 6.9485C40.1952 7.08663 39.7911 8.27044 39.5859 8.86816Z" fill="white"/>
</mask>
<g mask="url(#mask15_580_4426)">
<path d="M30.6978 6.87111H40.1954V33.9826H30.6978V6.87111Z" fill="url(#paint15_linear_580_4426)"/>
</g>
<defs>
<linearGradient id="paint0_linear_580_4426" x1="63.0721" y1="-3.31462" x2="25.4307" y2="30.7678" gradientUnits="userSpaceOnUse">
<stop stop-color="#F15D22"/>
<stop offset="1" stop-color="#FDB913"/>
</linearGradient>
<linearGradient id="paint1_linear_580_4426" x1="63.4079" y1="-1.99643" x2="26.3746" y2="31.5356" gradientUnits="userSpaceOnUse">
<stop stop-color="#F15D22"/>
<stop offset="1" stop-color="#FDB913"/>
</linearGradient>
<linearGradient id="paint2_linear_580_4426" x1="59.2562" y1="-2.94003" x2="24.3152" y2="28.6978" gradientUnits="userSpaceOnUse">
<stop stop-color="#F15D22"/>
<stop offset="1" stop-color="#FDB913"/>
</linearGradient>
<linearGradient id="paint3_linear_580_4426" x1="62.1483" y1="-2.2155" x2="25.8537" y2="30.6477" gradientUnits="userSpaceOnUse">
<stop stop-color="#F15D22"/>
<stop offset="1" stop-color="#FDB913"/>
</linearGradient>
<linearGradient id="paint4_linear_580_4426" x1="60.413" y1="-3.94657" x2="24.5015" y2="28.5696" gradientUnits="userSpaceOnUse">
<stop stop-color="#F15D22"/>
<stop offset="1" stop-color="#FDB913"/>
</linearGradient>
<linearGradient id="paint5_linear_580_4426" x1="63.3645" y1="-2.73163" x2="26.1934" y2="30.9252" gradientUnits="userSpaceOnUse">
<stop stop-color="#F15D22"/>
<stop offset="1" stop-color="#FDB913"/>
</linearGradient>
<linearGradient id="paint6_linear_580_4426" x1="54.721" y1="7.45152" x2="26.6181" y2="32.8975" gradientUnits="userSpaceOnUse">
<stop stop-color="#F15D22"/>
<stop offset="1" stop-color="#FDB913"/>
</linearGradient>
<linearGradient id="paint7_linear_580_4426" x1="58.8607" y1="4.21291" x2="26.8276" y2="33.2175" gradientUnits="userSpaceOnUse">
<stop stop-color="#F15D22"/>
<stop offset="1" stop-color="#FDB913"/>
</linearGradient>
<linearGradient id="paint8_linear_580_4426" x1="62.1845" y1="6.94291" x2="30.0096" y2="36.0757" gradientUnits="userSpaceOnUse">
<stop stop-color="#F15D22"/>
<stop offset="1" stop-color="#FDB913"/>
</linearGradient>
<linearGradient id="paint9_linear_580_4426" x1="67.1274" y1="6.02462" x2="31.4673" y2="38.3131" gradientUnits="userSpaceOnUse">
<stop stop-color="#F15D22"/>
<stop offset="1" stop-color="#FDB913"/>
</linearGradient>
<linearGradient id="paint10_linear_580_4426" x1="72.1545" y1="9.45538" x2="35.5712" y2="42.58" gradientUnits="userSpaceOnUse">
<stop stop-color="#F15D22"/>
<stop offset="1" stop-color="#FDB913"/>
</linearGradient>
<linearGradient id="paint11_linear_580_4426" x1="76.4632" y1="12.9016" x2="38.9837" y2="46.8375" gradientUnits="userSpaceOnUse">
<stop stop-color="#F15D22"/>
<stop offset="1" stop-color="#FDB913"/>
</linearGradient>
<linearGradient id="paint12_linear_580_4426" x1="77.9809" y1="15.9547" x2="41.2352" y2="49.2262" gradientUnits="userSpaceOnUse">
<stop stop-color="#F15D22"/>
<stop offset="1" stop-color="#FDB913"/>
</linearGradient>
<linearGradient id="paint13_linear_580_4426" x1="81.7936" y1="20.291" x2="45.3387" y2="53.2992" gradientUnits="userSpaceOnUse">
<stop stop-color="#F15D22"/>
<stop offset="1" stop-color="#FDB913"/>
</linearGradient>
<linearGradient id="paint14_linear_580_4426" x1="82.7872" y1="20.9876" x2="45.9553" y2="54.3373" gradientUnits="userSpaceOnUse">
<stop stop-color="#F15D22"/>
<stop offset="1" stop-color="#FDB913"/>
</linearGradient>
<linearGradient id="paint15_linear_580_4426" x1="52.2813" y1="4.86089" x2="23.879" y2="30.578" gradientUnits="userSpaceOnUse">
<stop stop-color="#F15D22"/>
<stop offset="1" stop-color="#FDB913"/>
</linearGradient>
</defs>
</svg>
