<svg width="151" height="60" viewBox="0 0 151 60" fill="none" xmlns="http://www.w3.org/2000/svg">
<path d="M138.058 0.670258C138.075 0.758921 138.058 0.847585 138.04 0.918516C137.437 3.75573 136.816 6.59294 136.214 9.41243C135.646 12.09 135.061 14.7677 134.493 17.4453C133.873 20.3357 133.252 23.2261 132.632 26.1165C132.153 28.3508 131.674 30.5851 131.195 32.8194C131 33.7238 130.805 34.6104 130.628 35.5148C130.628 35.5503 130.61 35.568 130.61 35.6035C130.61 35.6389 130.592 35.6389 130.575 35.6389C130.557 35.6389 130.539 35.6389 130.521 35.6212C130.486 35.5503 130.433 35.4793 130.397 35.3907C128.535 31.7378 126.673 28.0848 124.811 24.4319C123.499 21.8607 122.223 19.2895 120.91 16.7183C120.343 15.5834 119.758 14.4662 119.173 13.3313C118.782 12.5511 118.481 11.7531 118.233 10.9197C118.002 10.1749 117.807 9.43016 117.665 8.64992C117.612 8.3662 117.577 8.06475 117.577 7.76329C117.577 7.5505 117.577 7.35544 117.577 7.14265C117.559 5.70631 118.109 4.32317 119.102 3.29468C119.651 2.72724 120.29 2.26619 120.999 1.947C121.815 1.55689 122.666 1.27317 123.552 1.11357C124.386 0.936247 125.237 0.829851 126.088 0.758921C126.336 0.741188 126.567 0.723457 126.815 0.687991C126.851 0.687991 126.886 0.670259 126.922 0.652527L138.058 0.670258Z" fill="#E81300"/>
<path d="M13.1663 34.9297C13.2018 34.912 13.2373 34.8588 13.255 34.8233C13.2727 34.7878 13.2727 34.7524 13.2727 34.7169C13.2727 34.0431 13.4678 33.4047 13.5919 32.7486C13.8756 31.33 14.1771 29.9114 14.4608 28.5105C14.78 27.0032 15.0814 25.496 15.4006 23.9887C15.6666 22.6765 15.9503 21.3643 16.2163 20.0521C16.5001 18.6512 16.8015 17.2503 17.0852 15.8317C17.0852 15.814 17.0852 15.814 17.0852 15.7962C17.103 15.6544 17.1384 15.5125 17.2094 15.3707C17.3512 15.3529 17.5108 15.3352 17.6527 15.3529H22.5291C22.6887 15.3529 22.6887 15.3707 22.671 15.5125C22.3873 16.9134 22.1036 18.3143 21.8198 19.7151C21.5006 21.3111 21.1637 22.8893 20.8268 24.4852C20.5785 25.7265 20.348 26.9855 20.0998 28.2268C19.9224 29.0957 19.7451 29.9469 19.5678 30.8157C19.355 31.8088 19.2309 32.8195 19.1599 33.8303C19.089 34.6992 19.1422 35.5681 19.3018 36.4015C19.3727 36.7916 19.4969 37.1817 19.6742 37.5541C20.1175 38.5472 20.9864 39.2919 22.0504 39.5402C22.7065 39.6998 23.3626 39.753 24.0364 39.6998C24.9585 39.6466 25.8806 39.3983 26.714 39.0082C28.1149 38.3521 29.2675 37.2881 30.0655 35.9759C30.6507 35.0361 31.0585 33.9899 31.3068 32.9082C31.9097 30.337 32.4771 27.7657 33.0091 25.1945C33.5056 22.8538 33.9844 20.5131 34.4632 18.1724C34.6405 17.3035 34.8356 16.4346 35.0129 15.548C35.0129 15.5125 35.0306 15.4771 35.0306 15.4416C35.0306 15.3884 35.0838 15.3352 35.1547 15.3529H35.3321C36.8216 15.3529 38.3111 15.3529 39.8007 15.3529C40.1376 15.3529 40.1199 15.3529 40.0489 15.6544C39.8184 16.7183 39.5879 17.7823 39.3574 18.8462C39.0027 20.4599 38.6481 22.0913 38.3111 23.705C37.8678 25.7442 37.4245 27.7835 36.9812 29.8405C36.6443 31.3832 36.2896 32.9082 35.9527 34.4509C35.9172 34.646 35.8463 34.841 35.7754 35.0184C35.6513 35.3021 35.5449 35.5681 35.4207 35.8518C35.1547 36.4724 34.8001 37.0576 34.3922 37.5896C34.0553 38.0152 33.7539 38.4408 33.3992 38.8486C31.821 40.6751 29.7286 42.005 27.4056 42.6434C26.5367 42.8916 25.6501 43.0512 24.7634 43.1576C24.6216 43.1754 24.462 43.1931 24.3201 43.2108C24.0009 43.264 23.664 43.2818 23.3448 43.264C22.7419 43.264 22.139 43.2463 21.5361 43.264C20.9864 43.264 20.4544 43.2108 19.9047 43.1222C19.1954 42.998 18.4861 42.8384 17.7945 42.6434C16.4469 42.2887 15.2765 41.4553 14.4963 40.3027C13.8756 39.4161 13.4678 38.3876 13.3082 37.3236C13.2727 37.164 13.2727 36.9867 13.2373 36.8271C13.2195 36.7384 13.2195 36.6498 13.1309 36.6143L13.1663 34.9297Z" fill="#E21001"/>
<path d="M17.9002 59.312C17.7229 59.2765 17.5456 59.241 17.386 59.1878C16.8363 59.0637 16.3397 58.7445 16.0028 58.2835C15.861 58.0884 15.7546 57.8579 15.6836 57.6274C15.6127 57.3614 15.5772 57.0954 15.5772 56.8294C15.5772 54.932 15.5772 53.0169 15.5772 51.1195C15.5772 50.7826 15.5418 50.8181 15.8787 50.8181H16.4993C16.6944 50.8181 16.6944 50.8181 16.6944 51.0308C16.6944 51.1018 16.6944 51.155 16.6944 51.2259C16.6944 52.9105 16.6944 54.5951 16.6944 56.2974C16.6944 56.6698 16.7831 57.0422 16.9427 57.3791C17.1909 57.9466 17.7406 58.3189 18.3613 58.3189C18.6095 58.3367 18.8578 58.3012 19.0883 58.2303C19.5671 58.0707 19.9395 57.7338 20.1523 57.2727C20.2409 57.0954 20.2941 56.9003 20.2941 56.7053C20.2941 54.8611 20.2941 52.9992 20.2941 51.155C20.2941 50.7649 20.2586 50.8181 20.6488 50.8181H21.2339C21.4645 50.8181 21.4645 50.8181 21.4645 51.0486V56.7939C21.4999 57.8934 20.7906 58.8687 19.7444 59.1524C19.6025 59.2056 19.4607 59.2233 19.3011 59.2588C19.2656 59.2588 19.2302 59.2765 19.2124 59.312H17.9002Z" fill="#D90E04"/>
<path d="M39.3569 59.312C39.3392 59.2943 39.3214 59.2765 39.286 59.2765C38.3639 59.0992 37.6014 58.4431 37.2999 57.5387C36.8743 56.4925 36.963 55.3222 37.5304 54.3469C37.8674 53.7085 38.4525 53.2297 39.1618 53.0524C39.8712 52.8573 40.6159 52.9105 41.2898 53.212C41.9636 53.4957 42.4601 54.0809 42.6197 54.7902C42.7084 55.2335 42.7438 55.6768 42.6906 56.1379C42.6906 56.2265 42.6552 56.2443 42.5665 56.2443C42.4778 56.2443 42.4069 56.2443 42.336 56.2443H38.5767C38.5057 56.2443 38.4348 56.2443 38.3461 56.2443C38.2398 56.2443 38.222 56.262 38.222 56.3861C38.2043 56.6344 38.2398 56.8826 38.3107 57.1131C38.5057 57.787 39.0732 58.2658 39.747 58.3899C40.3145 58.4963 40.8819 58.3899 41.3607 58.0884C41.4494 58.0352 41.538 57.9111 41.6444 57.9466C41.7508 57.982 41.804 58.1239 41.8749 58.2126C41.9636 58.3544 42.0523 58.4963 42.1409 58.6382C42.0523 58.78 41.9104 58.8864 41.7508 58.9396C41.4671 59.0637 41.1834 59.1701 40.8819 59.2411C40.7755 59.2588 40.6691 59.2765 40.545 59.312C40.5273 59.3297 40.4918 59.3475 40.4741 59.3652L39.3569 59.312ZM39.9598 55.3754H41.343C41.6089 55.3754 41.6267 55.3399 41.5912 55.0916C41.5735 54.9852 41.538 54.8966 41.4848 54.8079C41.3252 54.5419 41.1124 54.3114 40.8642 54.1341C40.7755 54.0631 40.6691 54.0099 40.5627 53.9922C40.1726 53.9035 39.7825 53.9213 39.3924 54.0454C38.7895 54.2582 38.488 54.7015 38.3284 55.2867C38.3107 55.3576 38.3461 55.3931 38.4171 55.3931L39.9598 55.3754Z" fill="#D90E04"/>
<path d="M126.568 59.3119C126.551 59.2587 126.497 59.2587 126.462 59.241C125.77 59.0105 125.309 58.3721 125.274 57.645C125.185 56.918 125.522 56.2264 126.125 55.8363C126.515 55.5703 126.941 55.393 127.384 55.3221C127.774 55.2334 128.182 55.2334 128.59 55.3221C128.661 55.3398 128.714 55.3575 128.785 55.3575C128.82 55.3753 128.874 55.3398 128.874 55.3043V55.2866C128.962 54.7901 128.714 54.2936 128.253 54.0631C128.022 53.9567 127.774 53.9035 127.508 53.9035C127.153 53.9035 126.799 53.9744 126.48 54.134C126.355 54.1872 126.231 54.2759 126.125 54.3645C126.054 54.4177 126.036 54.4177 125.983 54.3645C125.824 54.134 125.682 53.9035 125.575 53.6552C125.54 53.5665 125.54 53.5133 125.628 53.4602C125.717 53.407 125.806 53.336 125.894 53.3006C126.551 52.9814 127.278 52.8572 128.005 52.9814C128.324 53.0346 128.625 53.1055 128.927 53.2119C129.14 53.2828 129.317 53.407 129.441 53.5843C129.796 54.0453 129.991 54.595 130.008 55.1802C130.008 56.0491 130.008 56.918 130.008 57.8046C130.008 57.982 130.044 58.1416 130.097 58.3012C130.15 58.4607 130.257 58.6026 130.399 58.6913C130.469 58.7445 130.505 58.8154 130.505 58.9041C130.505 59.0459 130.505 59.1878 130.505 59.3296H129.937C129.867 59.2587 129.76 59.2587 129.689 59.2232C129.441 59.1168 129.228 58.9573 129.051 58.7445C129.015 58.709 129.015 58.6381 128.944 58.6381C128.732 58.8686 128.483 59.0282 128.182 59.1346C128.005 59.2055 127.81 59.2587 127.614 59.2942C127.561 59.2942 127.508 59.3119 127.455 59.3474L126.568 59.3119ZM128.838 56.9535C128.838 56.7407 128.838 56.5279 128.838 56.2974C128.838 56.2087 128.82 56.191 128.714 56.1732C128.519 56.1555 128.324 56.1378 128.129 56.1378C127.739 56.12 127.349 56.2264 126.994 56.4215C126.533 56.652 126.285 57.1663 126.391 57.6628C126.409 57.982 126.639 58.248 126.958 58.3189C127.402 58.443 127.863 58.3898 128.253 58.1416C128.43 58.0174 128.59 57.8933 128.749 57.7514C128.82 57.6982 128.856 57.6096 128.856 57.5386C128.838 57.3613 128.838 57.1485 128.838 56.9535Z" fill="#D90E04"/>
<path d="M61.5601 59.312C61.5424 59.2588 61.4892 59.2588 61.4537 59.2411C60.4607 58.8509 59.9819 57.7338 60.372 56.7408C60.4784 56.457 60.6735 56.1911 60.904 55.996C61.2232 55.73 61.6133 55.5172 62.0211 55.4108C62.2871 55.3399 62.5531 55.2867 62.8191 55.2512C63.1028 55.2335 63.3866 55.269 63.6525 55.3399C63.7057 55.3399 63.7589 55.3576 63.8121 55.3754C63.8653 55.3931 63.9008 55.3576 63.9185 55.3044C63.9185 55.3044 63.9185 55.3044 63.9185 55.2867C63.9895 54.7902 63.7412 54.3291 63.2979 54.0809C63.156 54.0099 62.9964 53.9567 62.8368 53.939C62.2517 53.8326 61.6665 53.9745 61.2054 54.3469C61.17 54.3646 61.1522 54.4001 61.1168 54.4178L61.099 54.4355C61.0104 54.4001 60.9217 54.3114 60.8863 54.2227C60.7799 54.0454 60.6735 53.8503 60.6025 53.6553C60.5671 53.6021 60.5848 53.5489 60.638 53.5134C60.6912 53.478 60.7444 53.4425 60.7976 53.407C61.6665 52.9105 62.695 52.8219 63.6525 53.1233C63.8476 53.1765 64.0249 53.2652 64.1845 53.3716C64.486 53.5489 64.6988 53.8503 64.7874 54.1873C64.8052 54.2582 64.8229 54.3114 64.8406 54.3823C64.9648 54.6838 65.018 55.003 65.0002 55.3044C65.0002 56.0492 65.0002 56.794 65.0002 57.521C65.0002 57.7692 65.0534 58.0175 65.1243 58.2658C65.1598 58.4254 65.2485 58.5672 65.3726 58.6559C65.4613 58.7091 65.4967 58.8155 65.4967 58.9219C65.479 59.046 65.479 59.1879 65.5145 59.312H65.0002C64.9825 59.2943 64.947 59.2943 64.9293 59.2765C64.5392 59.2056 64.2023 58.9573 64.0072 58.5849C63.7589 58.8332 63.4575 59.0283 63.1206 59.1169C62.9432 59.1701 62.7836 59.2056 62.6063 59.2588C62.5531 59.2588 62.5177 59.2765 62.4822 59.312H61.5601ZM63.8653 56.2442C63.8653 56.2442 63.8476 56.2265 63.8299 56.2265C63.422 56.1201 63.0142 56.1201 62.6063 56.2088C62.3581 56.262 62.1098 56.3684 61.897 56.5102C61.4892 56.8117 61.3118 57.3259 61.436 57.8047C61.4892 58.053 61.6842 58.2658 61.9325 58.3367C62.1453 58.4076 62.3581 58.4254 62.5709 58.3899C63.0319 58.3367 63.4752 58.1062 63.7944 57.7515C63.8653 57.6806 63.9008 57.5919 63.8831 57.5033C63.8831 57.1131 63.8831 56.7408 63.8831 56.3506C63.8831 56.3152 63.8653 56.2797 63.8653 56.2442Z" fill="#D90E04"/>
<path d="M88.6558 59.3119C88.6381 59.2942 88.6203 59.2765 88.5849 59.2765C87.7514 59.1169 87.0599 58.514 86.7584 57.716C86.3683 56.7762 86.3328 55.73 86.6697 54.7724C86.7939 54.3823 87.0244 54.0276 87.3081 53.7262C87.7514 53.2651 88.3721 52.9814 89.0104 52.9637C89.3651 52.9282 89.702 52.9637 90.0389 53.0346C90.766 53.1942 91.3689 53.7085 91.6703 54.3823C91.8122 54.6837 91.9009 55.0207 91.9541 55.3576C92.0605 56.0137 92.025 56.6698 91.8654 57.3082C91.7945 57.6274 91.6703 57.9111 91.493 58.1948C91.1916 58.6913 90.7128 59.0637 90.1453 59.241C90.0567 59.2588 89.9503 59.241 89.8971 59.3297L88.6558 59.3119ZM87.6628 56.2265C87.6805 56.4215 87.6805 56.5811 87.6982 56.723C87.716 57.0067 87.7869 57.2727 87.911 57.5387C88.0884 57.982 88.5139 58.2835 88.975 58.3367C89.1168 58.3544 89.2587 58.3544 89.4006 58.3367C89.8439 58.3012 90.2517 58.0529 90.4823 57.6628C90.5709 57.521 90.6418 57.3614 90.695 57.2018C90.8901 56.5457 90.9078 55.8718 90.766 55.198C90.7128 54.9675 90.6418 54.7547 90.5177 54.5419C90.3581 54.2404 90.0567 54.0099 89.7197 53.9212C88.9927 53.7439 88.3189 53.939 87.9465 54.7192C87.911 54.8079 87.8756 54.8965 87.8401 54.9852C87.716 55.393 87.6628 55.8186 87.6628 56.2265Z" fill="#D90E04"/>
<path d="M121.653 59.312C121.635 59.2765 121.6 59.2765 121.564 59.2588C120.447 58.9751 119.756 58.248 119.419 57.1486C119.366 56.9536 119.33 56.7585 119.33 56.5634C119.33 56.3329 119.33 56.0847 119.33 55.8541C119.33 55.2867 119.507 54.7192 119.809 54.2227C120.11 53.7262 120.571 53.3538 121.121 53.1588C122.22 52.7332 123.249 52.8928 124.242 53.478C124.331 53.5312 124.348 53.5666 124.277 53.6553C124.153 53.8503 124.029 54.0277 123.905 54.2227C123.887 54.2759 123.834 54.2937 123.781 54.2759H123.763C123.639 54.205 123.533 54.1518 123.409 54.0986C122.912 53.8681 122.345 53.8149 121.813 53.9567C121.369 54.0631 121.015 54.3469 120.802 54.737C120.66 54.9852 120.571 55.269 120.518 55.5527C120.447 56.0137 120.447 56.4925 120.554 56.9536C120.589 57.1486 120.678 57.3259 120.766 57.5033C121.015 57.9643 121.476 58.2835 121.99 58.3544C122.398 58.4254 122.806 58.3722 123.178 58.2126C123.426 58.1062 123.675 57.982 123.887 57.8402C123.958 57.8579 123.976 57.9111 123.994 57.9643C124.1 58.1594 124.207 58.3722 124.295 58.5672C124.366 58.7091 124.366 58.7268 124.207 58.8155C124.1 58.8687 123.976 58.9396 123.852 58.9751C123.533 59.0992 123.196 59.1879 122.841 59.2588C122.806 59.2588 122.752 59.2588 122.717 59.312H121.653Z" fill="#D90E04"/>
<path d="M34.5157 59.3119C34.4979 59.2233 34.4093 59.241 34.3561 59.2233C33.9305 59.0459 33.5936 58.7268 33.3808 58.3189C33.2566 58.0707 33.2034 57.8047 33.2034 57.5387C33.2034 56.457 33.2034 55.3753 33.2034 54.2936C33.2034 54.205 33.2034 54.1163 33.2034 54.0454C33.2034 53.9744 33.1857 53.9212 33.0616 53.9212C32.902 53.9212 32.7601 53.9212 32.6183 53.9212C32.5119 53.9212 32.4941 53.9035 32.4941 53.8148C32.4941 53.602 32.4941 53.407 32.4941 53.1942C32.4941 53.1055 32.5119 53.0701 32.6005 53.0701C32.7601 53.0701 32.9197 53.0701 33.0793 53.0701C33.168 53.0701 33.2034 53.0523 33.2034 52.9637C33.2034 52.6799 33.2034 52.3785 33.2034 52.0948C33.2034 52.0238 33.2034 51.9352 33.2034 51.8642C33.2034 51.8288 33.2212 51.7933 33.2566 51.7756C33.5581 51.6337 33.8773 51.5273 34.2142 51.4209C34.2674 51.4032 34.3029 51.4387 34.3029 51.4919C34.3029 51.6692 34.3029 51.8288 34.3029 52.0061C34.3029 52.3253 34.3029 52.6267 34.3029 52.9282C34.3029 53.0346 34.3206 53.0701 34.427 53.0701H35.8633C35.952 53.0701 35.9875 53.0878 35.9875 53.1765C36.0052 53.407 35.9875 53.6375 35.9697 53.8858C35.7569 53.9744 35.5264 53.9035 35.3136 53.9212C35.0299 53.939 34.7284 53.9212 34.4447 53.9212C34.3383 53.9212 34.3206 53.939 34.3029 54.0454C34.3029 54.0986 34.3029 54.1518 34.3029 54.2227C34.3029 55.198 34.3029 56.1555 34.3029 57.1308C34.3029 57.45 34.4093 57.7692 34.5866 58.0352C34.7816 58.3366 35.1363 58.4785 35.4732 58.3898C35.7215 58.3544 35.9875 58.2657 36.2357 58.2125C36.3066 58.2657 36.2889 58.3544 36.3066 58.4253C36.3421 58.6381 36.3953 58.8509 36.4308 59.0637C36.4485 59.1523 36.413 59.1878 36.3421 59.2055C36.1825 59.241 36.0229 59.2587 35.8633 59.2765C35.6683 59.2942 35.4555 59.3119 35.2427 59.3474L34.5157 59.3119Z" fill="#D90E04"/>
<path d="M101.457 42.803C101.439 42.7675 101.439 42.7143 101.457 42.6611C103.921 31.0817 106.386 19.5024 108.869 7.92298C108.869 7.90525 108.904 7.90524 108.922 7.88751C108.975 7.97618 109.011 8.04711 109.064 8.13577C110.589 11.1503 112.132 14.1471 113.657 17.1617C115.288 20.389 116.919 23.5986 118.533 26.8259C119.083 27.9076 119.615 29.007 120.182 30.0887C120.501 30.6916 120.767 31.33 120.98 31.9684C121.299 32.8195 121.548 33.7062 121.707 34.5928C121.885 35.5149 121.902 36.437 121.743 37.3591C121.53 38.689 120.803 39.8771 119.721 40.6928C119.012 41.2248 118.214 41.6326 117.381 41.8986C116.405 42.2355 115.412 42.4661 114.401 42.5902C113.887 42.6611 113.355 42.7321 112.841 42.7853C112.699 42.803 112.54 42.803 112.398 42.803H101.705C101.616 42.8385 101.528 42.8207 101.457 42.803Z" fill="#E20F00"/>
<path d="M46.8604 15.3883C46.9491 15.3528 47.0378 15.3351 47.1264 15.3528C50.9389 15.3528 54.7692 15.3528 58.5817 15.3528C58.9718 15.3706 59.3442 15.406 59.7343 15.4947C60.4613 15.6188 61.1706 15.8494 61.8445 16.1508C62.341 16.3813 62.802 16.6828 63.1922 17.0552C63.866 17.6758 64.3093 18.4915 64.4689 19.3781C64.9122 21.7543 64.3093 23.7936 62.5538 25.4959C61.9331 26.0811 61.2416 26.5776 60.4791 26.9854C59.8584 27.3223 59.2023 27.5883 58.5462 27.8189L58.3866 27.8721C58.3689 27.8721 58.3689 27.8898 58.3512 27.9252C58.6526 27.9784 58.9363 28.0316 59.2378 28.1026C59.9471 28.2622 60.6209 28.5282 61.2238 28.9005C61.9686 29.3261 62.5715 29.929 62.9971 30.6738C63.2808 31.188 63.4581 31.7732 63.5113 32.3584C63.5823 33.4046 63.4759 34.4508 63.1922 35.4439C62.5715 37.7136 61.2416 39.4514 59.2733 40.7282C58.1561 41.4552 56.9148 41.9872 55.6203 42.3064C54.9465 42.4837 54.2549 42.5724 53.5811 42.6965C52.9959 42.7852 52.393 42.8384 51.8078 42.8206C48.3677 42.8206 44.9276 42.8206 41.4697 42.8206C41.3633 42.8384 41.2392 42.8206 41.1328 42.8029C41.1328 42.7674 41.1328 42.732 41.1328 42.6788C43.0657 33.5819 44.9631 24.4851 46.8604 15.3883ZM47.3924 39.416C47.4988 39.4514 47.6052 39.4514 47.7116 39.4514C49.0415 39.4514 50.3538 39.4514 51.6837 39.4514C52.1448 39.4514 52.6235 39.3805 53.0668 39.2386C54.1131 38.9017 55.0884 38.3697 55.9395 37.6782C56.5602 37.1817 57.0921 36.6142 57.5355 35.9581C57.7837 35.6035 57.961 35.1779 58.0497 34.7523C58.0674 34.6282 58.0852 34.504 58.1029 34.3976C58.1738 33.8834 58.1738 33.3514 58.0674 32.8194C57.9433 32.1279 57.6064 31.4718 57.1099 30.9753C56.8262 30.6915 56.507 30.461 56.1701 30.266C55.6558 29.9822 55.0884 29.7694 54.5209 29.663C53.8471 29.5212 53.1555 29.4503 52.4639 29.468C51.5773 29.5035 50.6907 29.5212 49.7863 29.5389H49.609C49.5381 29.5389 49.4671 29.5921 49.4494 29.663C49.4317 29.6985 49.4317 29.734 49.4317 29.7694C49.1125 31.3122 48.7933 32.8549 48.4741 34.3976C48.1727 35.8163 47.8889 37.2349 47.5875 38.6357C47.4988 38.884 47.4456 39.15 47.3924 39.416ZM52.0561 27.4287C52.6413 27.4287 53.2264 27.4287 53.7939 27.4287C53.9357 27.4287 54.0953 27.3933 54.2372 27.3401C54.3081 27.3046 54.3968 27.2691 54.4677 27.2337C55.1416 26.8968 55.7799 26.5244 56.436 26.1343C57.234 25.6555 57.8901 24.9639 58.3157 24.1305C58.493 23.8113 58.6171 23.4566 58.6703 23.102C58.7235 22.6587 58.8122 22.2331 58.8831 21.7898C58.9009 21.7011 58.9009 21.5947 58.9009 21.5061C58.8654 20.9918 58.6703 20.4776 58.3334 20.0874C58.032 19.7505 57.6773 19.4845 57.2695 19.3072C56.6134 18.988 55.8686 18.8462 55.1416 18.8639L51.8433 18.9348C51.7901 18.9348 51.7546 18.9348 51.7014 18.9348C51.6128 18.9348 51.5418 19.0058 51.5241 19.0944C51.5064 19.2008 51.4886 19.2895 51.4709 19.3959C51.3823 20.247 51.2227 21.0982 51.0631 21.9494C51.0276 22.109 50.9921 22.2863 50.9567 22.4459C50.8325 23.102 50.7261 23.7581 50.5843 24.4142C50.407 25.2122 50.2651 26.0279 50.1055 26.8436C50.07 26.9854 50.0523 27.145 50.0346 27.2869C50.0168 27.3755 50.0523 27.3933 50.141 27.3933C50.2119 27.3933 50.2651 27.3933 50.336 27.3933L52.0561 27.4287Z" fill="#E21001"/>
<path d="M64.8047 42.7321C64.8224 42.6434 64.8756 42.537 64.9466 42.4661C65.78 41.2248 66.6134 40.0012 67.4468 38.76L82.3777 16.7183C82.6437 16.3282 82.9274 15.9204 83.1757 15.5303C83.2466 15.4061 83.3884 15.3175 83.548 15.3352C84.0446 15.3529 84.5411 15.3352 85.0376 15.3352C85.2858 15.3352 85.2681 15.3352 85.3213 15.548C85.4454 16.0268 85.5518 16.5233 85.676 17.0021L87.3073 23.8114C87.8748 26.1698 88.46 28.5283 89.0274 30.8867C89.5771 33.1565 90.1268 35.444 90.6943 37.7137C91.0844 39.2919 91.4568 40.8701 91.8469 42.4483C91.8646 42.5193 91.8824 42.5902 91.9001 42.6611C91.9001 42.6966 91.8824 42.7143 91.8646 42.7143C91.776 42.7143 91.6873 42.7143 91.6164 42.7143H86.1015C85.9419 42.7143 85.9419 42.7143 85.9065 42.537L85.4454 40.2495C85.2681 39.3274 85.073 38.4053 84.8957 37.5009C84.8603 37.3414 84.8603 37.3414 84.7184 37.3414H73.6178C73.2277 37.3414 73.3341 37.2882 73.1035 37.6251C72.0396 39.2387 70.9756 40.8524 69.9117 42.4661C69.6989 42.7853 69.7875 42.7321 69.4152 42.7321H65.0707H64.8047ZM79.7887 33.3338H83.4416C83.5303 33.3338 83.619 33.3338 83.6899 33.3338C83.7254 33.3338 83.7608 33.2983 83.7608 33.2629V33.2451C83.7431 33.1742 83.7431 33.121 83.7254 33.0501C83.4416 31.8442 83.1402 30.6384 82.8565 29.4504L81.6684 24.5739C81.6507 24.5384 81.6684 24.4675 81.5975 24.4675C81.5797 24.4675 81.5443 24.503 81.5265 24.5384C81.5088 24.5739 81.4733 24.6094 81.4556 24.6626L75.9408 33.0855C75.9053 33.1387 75.8698 33.1919 75.8344 33.2451C75.8166 33.2806 75.8344 33.2983 75.8521 33.3161H75.8698C75.9585 33.3161 76.0472 33.3161 76.1181 33.3161L79.7887 33.3338Z" fill="#E10F01"/>
<path d="M54.0237 54.9498V50.9777C54.0237 50.7117 54.0059 50.7117 54.2896 50.7117C54.8748 50.7117 55.4777 50.7117 56.0629 50.7117C56.5417 50.694 57.0205 50.7649 57.4815 50.9068C57.6588 50.96 57.8184 51.0309 57.9603 51.1196C58.4568 51.4033 58.776 51.9175 58.8115 52.5027C58.8292 52.7332 58.8292 52.946 58.776 53.1766C58.6696 53.5667 58.4391 53.9213 58.1022 54.1518C57.9603 54.2582 57.8184 54.3292 57.6766 54.4356C57.6588 54.4533 57.6411 54.471 57.6234 54.5065C57.6234 54.542 57.6588 54.5597 57.6943 54.5774C57.783 54.5952 57.8539 54.6129 57.9426 54.6484C58.6696 54.8966 59.2016 55.5173 59.308 56.2798C59.3612 56.5635 59.3612 56.8472 59.2902 57.1132C59.2548 57.2373 59.237 57.3437 59.2193 57.4678C59.1661 57.7516 59.042 57.9998 58.8292 58.2126C58.3327 58.7269 57.6766 59.0638 56.9673 59.1879C56.8786 59.2056 56.8077 59.2056 56.719 59.2056H54.2719C54.2187 59.2056 54.1655 59.2056 54.1123 59.2056C54.0591 59.2056 54.0237 59.1702 54.0237 59.117C54.0237 59.117 54.0237 59.117 54.0237 59.0992C54.0237 59.0106 54.0237 58.9219 54.0237 58.851V54.9498ZM55.2295 56.5989V57.1841C55.2295 57.4678 55.2295 57.7693 55.2295 58.053C55.2295 58.1594 55.2472 58.1771 55.3536 58.1949C55.7792 58.2303 56.2225 58.2303 56.6481 58.1771C56.8077 58.1594 56.9673 58.1239 57.1091 58.0707C57.6056 57.9289 57.9603 57.5033 58.0135 56.9891C58.0667 56.7231 58.0667 56.4394 58.0135 56.1734C57.9603 55.6769 57.6056 55.2867 57.1269 55.1449C56.9141 55.0739 56.6835 55.0385 56.4708 55.0385C56.0806 55.0385 55.7083 55.0385 55.3181 55.0385C55.3181 55.0385 55.3004 55.0385 55.2827 55.0385C55.2649 55.0385 55.2295 55.0562 55.2295 55.0917C55.2295 55.1626 55.2117 55.2158 55.2117 55.2867C55.2295 55.7301 55.2295 56.1556 55.2295 56.5989ZM55.2295 52.946V53.2652C55.2295 53.5135 55.2295 53.744 55.2295 53.9923C55.2295 54.1341 55.2472 54.1518 55.3713 54.1518C55.6551 54.1518 55.9565 54.1518 56.2402 54.1341C56.4353 54.1341 56.6303 54.0809 56.8254 54.0277C57.251 53.9213 57.5702 53.5489 57.6056 53.1056C57.6234 52.9638 57.6234 52.8219 57.6056 52.68C57.5879 52.2899 57.3042 51.9707 56.9318 51.8643C56.7899 51.8111 56.6658 51.7934 56.524 51.7757C56.1338 51.7579 55.7437 51.7579 55.3536 51.7579C55.2649 51.7579 55.2472 51.7757 55.2472 51.8821C55.2295 52.2367 55.2295 52.5914 55.2295 52.946Z" fill="#D90E04"/>
<path d="M47.7624 53.2828V50.8535C47.7624 50.7825 47.7624 50.6939 47.7624 50.6229C47.7624 50.5697 47.7979 50.5343 47.8333 50.5343C47.8333 50.5343 47.8333 50.5343 47.851 50.5343H48.7554C48.7909 50.5343 48.8263 50.5697 48.8263 50.6052C48.8263 50.6584 48.8263 50.7116 48.8263 50.7825V58.9573C48.8263 59.2232 48.8441 59.2055 48.5603 59.2055H47.851C47.7801 59.2055 47.7447 59.17 47.7447 59.0991C47.7447 59.0282 47.7447 58.975 47.7269 58.9041C47.7269 58.8686 47.6915 58.8509 47.656 58.8509H47.6383C47.6028 58.8686 47.5496 58.8863 47.5141 58.9218C47.1949 59.0991 46.8403 59.2232 46.4856 59.2587C46.131 59.2942 45.7763 59.2764 45.4217 59.2055C44.801 59.0636 44.2691 58.6913 43.9676 58.1416C43.7371 57.7692 43.5952 57.3436 43.542 56.9003C43.4002 56.0136 43.5775 55.127 44.0208 54.3468C44.1804 54.0631 44.3755 53.8148 44.606 53.602C45.1734 53.0523 45.9891 52.8218 46.7694 52.9814C47.0708 53.0168 47.3723 53.1232 47.656 53.2651C47.6737 53.2828 47.7092 53.2828 47.7624 53.2828ZM47.7092 56.191C47.7092 55.6767 47.7092 55.1625 47.7092 54.6482C47.7092 54.5418 47.6737 54.4354 47.6028 54.3468C47.4609 54.1872 47.2836 54.0631 47.0708 53.9921C46.5034 53.8148 45.8827 53.9389 45.4394 54.329C45.1912 54.5418 45.0138 54.8078 44.9074 55.1093C44.6592 55.7654 44.6414 56.5102 44.8542 57.184C44.9252 57.4322 45.0493 57.645 45.2266 57.8401C45.6699 58.2834 46.2196 58.3898 46.8048 58.3189C47.0531 58.2834 47.3013 58.1948 47.4964 58.0352C47.6383 57.9465 47.7092 57.8046 47.7092 57.645C47.7092 57.1663 47.7092 56.6875 47.7092 56.191Z" fill="#D90E04"/>
<path d="M106.742 59.2055H105.554C105.483 59.2055 105.43 59.17 105.412 59.0991C105.359 58.9395 105.323 58.7976 105.27 58.6381C105.146 58.2834 105.004 57.911 104.88 57.5564C104.862 57.4854 104.791 57.4322 104.72 57.4322H101.936C101.865 57.4322 101.812 57.4677 101.777 57.5209C101.741 57.5918 101.724 57.6628 101.688 57.7337C101.529 58.1238 101.369 58.5317 101.245 58.9395C101.227 58.975 101.209 59.0282 101.209 59.0814C101.192 59.1523 101.121 59.2055 101.05 59.2055C100.677 59.2055 100.305 59.2055 99.9149 59.2055C99.8971 59.1168 99.9149 59.0282 99.968 58.9572C100.358 57.9819 100.731 57.0067 101.121 56.0314L103.16 50.9066C103.16 50.8889 103.178 50.8712 103.178 50.8534C103.213 50.7293 103.337 50.6407 103.461 50.6584C103.479 50.6584 103.497 50.6761 103.515 50.6761C103.532 50.6761 103.568 50.6939 103.568 50.7293C103.603 50.7825 103.621 50.8534 103.639 50.9066L106.635 58.9218L106.742 59.2055ZM104.437 56.5101L104.454 56.4924C104.454 56.4924 104.454 56.4747 104.454 56.4569C104.454 56.4215 104.437 56.386 104.419 56.3506C104.082 55.2866 103.745 54.2226 103.408 53.1587C103.408 53.141 103.408 53.141 103.39 53.141C103.39 53.141 103.373 53.141 103.355 53.141C103.337 53.1587 103.32 53.1764 103.32 53.1941L102.185 56.3683C102.167 56.386 102.167 56.4215 102.167 56.4569C102.167 56.4747 102.167 56.5101 102.202 56.5101C102.256 56.5101 102.291 56.5101 102.344 56.5101H104.295C104.348 56.5279 104.401 56.5279 104.437 56.5101Z" fill="#D90E04"/>
<path d="M74.2199 55.7476C74.2908 55.7122 74.3617 55.659 74.3972 55.5881C75.0533 54.8078 75.6917 54.0453 76.3478 53.2651C76.3832 53.2296 76.4187 53.1764 76.4542 53.141C76.4896 53.1055 76.5251 53.0878 76.5783 53.07C76.667 53.07 77.6245 53.07 77.7664 53.0878C77.7486 53.1587 77.6954 53.2119 77.6422 53.2651L76.064 55.1802C75.869 55.4285 75.8867 55.3575 76.0463 55.6058C76.7201 56.7052 77.394 57.8046 78.0856 58.9041C78.1388 58.975 78.1742 59.0636 78.2274 59.1346C78.192 59.2055 78.1388 59.1878 78.1033 59.1878C77.8018 59.1878 77.5004 59.1878 77.1989 59.1878C77.1103 59.1878 77.0216 59.1523 76.9684 59.0636C76.7379 58.6913 76.5074 58.3189 76.2768 57.9465L75.3015 56.386C75.2661 56.3151 75.2129 56.2442 75.1597 56.1732C75.0887 56.1732 75.071 56.2087 75.0356 56.2442C74.805 56.4924 74.5745 56.7407 74.3263 56.9712C74.2376 57.0421 74.2021 57.1485 74.2021 57.2727C74.2021 57.8224 74.2021 58.3721 74.2021 58.9395C74.2021 59.2055 74.2021 59.1878 73.9361 59.1878H73.351C73.0672 59.1878 73.085 59.2055 73.085 58.9041V50.8535C73.085 50.4811 73.0495 50.5165 73.4042 50.5165C73.6347 50.5165 73.8475 50.5165 74.078 50.5165C74.1667 50.5165 74.2021 50.5343 74.2021 50.6407C74.2021 50.7471 74.2021 50.8003 74.2021 50.8712L74.2199 55.7476Z" fill="#D90E04"/>
<path d="M67.7475 59.2055H66.8076C66.7544 59.2055 66.719 59.17 66.719 59.1346C66.719 59.1346 66.719 59.1346 66.719 59.1168C66.719 59.0459 66.719 58.9927 66.719 58.9218V53.3538C66.719 53.07 66.7012 53.07 66.985 53.07C67.1091 53.07 67.2332 53.07 67.3573 53.07C67.4283 53.0523 67.5169 53.1055 67.5347 53.1764C67.6056 53.336 67.6765 53.4779 67.7297 53.6375C67.7475 53.6729 67.7652 53.7084 67.8007 53.7439C67.8361 53.7084 67.8716 53.6907 67.8893 53.6729C68.3326 53.1764 68.971 52.9104 69.6271 52.9636C69.8399 52.9636 70.035 52.9991 70.2478 53.0168C70.4251 53.0346 70.6024 53.1232 70.7265 53.2296C71.223 53.602 71.5422 54.1872 71.5777 54.8078C71.5777 54.8788 71.5777 54.9497 71.5777 55.0384C71.5777 56.3328 71.5777 57.6096 71.5777 58.9041C71.5777 58.975 71.5777 59.0282 71.5777 59.0991C71.5777 59.1878 71.56 59.2232 71.4713 59.2232H70.6201C70.5315 59.2232 70.496 59.2055 70.496 59.1168C70.496 59.0282 70.496 58.975 70.496 58.8863V55.3043C70.496 55.0915 70.4783 54.8965 70.4251 54.6837C70.301 54.2581 69.9286 53.9389 69.4852 53.9035C69.1661 53.8503 68.8291 53.9035 68.5277 54.0453C68.3504 54.134 68.1908 54.2227 68.0489 54.329C67.8893 54.4354 67.7829 54.6305 67.8007 54.8256C67.8007 56.1732 67.8007 57.5209 67.8007 58.8863C67.8007 58.9927 67.7829 59.0991 67.7475 59.2055Z" fill="#D90E04"/>
<path d="M24.1404 53.744C24.1936 53.6908 24.2114 53.6731 24.2291 53.6553C24.7788 53.0347 25.4704 52.8751 26.2683 52.9638C26.3038 52.9638 26.3393 52.9815 26.3747 52.9815C26.889 52.9992 27.2082 53.3184 27.5096 53.6908C27.5451 53.744 27.5806 53.7972 27.5983 53.8681C27.6515 53.9745 27.687 54.0809 27.7224 54.1873C27.8465 54.4888 27.8997 54.8257 27.8997 55.1449C27.882 56.3861 27.8997 57.6274 27.8997 58.8687C27.8997 58.9396 27.8997 59.0106 27.8997 59.0992C27.8997 59.2234 27.882 59.2234 27.7579 59.2234C27.4919 59.2234 27.2082 59.2234 26.9422 59.2234C26.8535 59.2234 26.8358 59.2056 26.8181 59.0992C26.8003 58.9928 26.8181 58.9574 26.8181 58.8687C26.8181 57.7161 26.8181 56.5635 26.8181 55.4109C26.8181 55.1094 26.7649 54.8079 26.6407 54.542C26.5166 54.1696 26.1797 53.9213 25.7896 53.9213C25.098 53.8504 24.5838 54.1341 24.1759 54.6484C24.1404 54.6838 24.1227 54.7548 24.1227 54.8079V58.8864C24.1227 58.9751 24.1227 59.0638 24.1227 59.1347C24.1227 59.1879 24.105 59.2234 24.034 59.2234H23.1297C23.0765 59.2234 23.041 59.1879 23.041 59.1347C23.041 59.0815 23.041 59.0106 23.041 58.9396C23.041 57.0954 23.041 55.2335 23.041 53.3893V53.1943C23.041 53.1234 23.0765 53.1056 23.1474 53.1056C23.3247 53.1056 23.5021 53.1056 23.6794 53.1056C23.7503 53.1056 23.8212 53.1411 23.839 53.2297C23.9631 53.3716 24.0518 53.5489 24.1404 53.744Z" fill="#D90E04"/>
<path d="M84.1127 59.2055H83.1551C83.0665 59.2055 83.0487 59.1701 83.0487 59.0814C83.0487 58.9927 83.0487 58.9395 83.0487 58.8509V54.2049C83.0487 53.939 83.0487 53.9567 82.8005 53.9567C82.6409 53.9567 82.4813 53.9567 82.3217 53.9567C82.1621 53.9567 82.1621 53.939 82.1621 53.8148C82.1621 53.5843 82.1621 53.3715 82.1621 53.141C82.1621 53.0878 82.1976 53.0523 82.233 53.0523C82.233 53.0523 82.233 53.0523 82.2508 53.0523H82.8714C83.0487 53.0523 83.031 53.0169 83.0487 52.8927C83.0665 52.6622 83.0842 52.4317 83.1374 52.2012C83.2261 51.7756 83.4211 51.3855 83.7226 51.0663C84.1482 50.6407 84.7333 50.4456 85.3185 50.5343C85.549 50.552 85.7973 50.6052 86.0278 50.6584C86.1165 50.6762 86.1342 50.7116 86.1165 50.8003C86.0987 50.8889 86.0633 50.9599 86.0278 51.0485C85.9924 51.1904 85.9392 51.3323 85.8682 51.4741C85.7264 51.4919 85.5668 51.4741 85.4249 51.4209C84.9107 51.3323 84.3432 51.7401 84.1659 52.1302C84.1127 52.2366 84.095 52.343 84.095 52.4671C84.0772 52.6445 84.0772 52.8395 84.1304 53.0169C84.29 53.0346 84.4674 53.0523 84.6269 53.0346C84.8397 53.0346 85.0525 53.0346 85.2653 53.0346C85.3185 53.0346 85.354 53.0701 85.3717 53.1233V53.141C85.3717 53.1587 85.3717 53.1764 85.3717 53.1942C85.3717 53.4247 85.3717 53.6552 85.354 53.9035C85.1235 53.9744 84.8929 53.9212 84.6624 53.939C84.5205 53.939 84.361 53.939 84.2191 53.939C84.1127 53.939 84.095 53.9567 84.095 54.0808C84.095 54.1517 84.095 54.2227 84.095 54.3113L84.1127 59.2055Z" fill="#D90E04"/>
<path d="M111.121 50.7294C111.032 50.9777 110.943 51.2082 110.837 51.4387C110.819 51.5097 110.748 51.5451 110.677 51.5274C110.571 51.5097 110.482 51.4919 110.376 51.4742C109.968 51.3855 109.542 51.5451 109.312 51.8998C109.064 52.219 108.975 52.6445 109.099 53.0347C109.17 53.0701 109.241 53.0879 109.33 53.0701H110.234C110.287 53.0701 110.34 53.1056 110.34 53.1588V53.1765V53.1943C110.323 53.4425 110.376 53.6908 110.305 53.939C110.074 53.9568 109.844 53.9745 109.613 53.9568C109.489 53.9568 109.347 53.9568 109.223 53.9568C109.152 53.9568 109.117 53.9745 109.117 54.0454C109.117 54.1164 109.117 54.2227 109.117 54.2937V58.8332C109.117 58.9219 109.117 59.0105 109.117 59.0815C109.117 59.1524 109.081 59.1701 109.01 59.1701H108.124C108.088 59.1701 108.035 59.1524 108.035 59.0992V59.0815C108.035 58.9928 108.035 58.9042 108.035 58.8332V54.2582C108.035 53.9036 108.071 53.939 107.716 53.939C107.556 53.939 107.397 53.939 107.237 53.939C107.202 53.939 107.148 53.9213 107.148 53.8681V53.8504C107.148 53.6198 107.148 53.3893 107.148 53.1411C107.148 53.0879 107.184 53.0524 107.219 53.0347H107.237H107.716C108.071 53.0347 108.017 53.0524 108.035 52.7509C108.053 52.3963 108.124 52.0594 108.248 51.7402C108.585 50.9422 109.205 50.5521 110.039 50.5166C110.181 50.5166 110.323 50.5344 110.464 50.5698C110.677 50.623 110.908 50.6585 111.121 50.7294Z" fill="#D90E04"/>
<path d="M113.108 53.7971C113.162 53.7971 113.179 53.7439 113.197 53.7084C113.516 53.2651 114.03 52.9814 114.58 52.9637C114.899 52.9459 115.236 52.9637 115.555 53.0346C115.609 53.0878 115.573 53.1233 115.555 53.1765C115.449 53.4424 115.36 53.7262 115.254 53.9922C115.218 54.0986 115.183 54.1163 115.094 54.0808L114.687 53.9567C114.456 53.8858 114.208 53.9035 113.995 54.0099C113.587 54.205 113.25 54.5419 113.091 54.9675C113.037 55.127 113.02 55.2866 113.02 55.4462C113.02 56.5811 113.02 57.716 113.02 58.8509V59.0459C113.02 59.2233 113.02 59.2233 112.825 59.241C112.559 59.241 112.275 59.241 112.009 59.241C111.92 59.241 111.902 59.2055 111.885 59.1169C111.885 59.0459 111.885 58.9928 111.885 58.9218V53.4247C111.885 53.3538 111.885 53.3006 111.885 53.2297C111.885 53.1233 111.902 53.1055 112.027 53.1055H112.878C113.002 53.1055 113.02 53.1233 113.02 53.2651C113.02 53.407 113.02 53.5488 113.037 53.6907C113.055 53.6907 113.055 53.7616 113.108 53.7971Z" fill="#D90E04"/>
<path d="M94.346 53.1056C94.3815 53.3361 94.3638 53.5667 94.417 53.8504C94.4879 53.7794 94.5411 53.7085 94.5943 53.6376C94.6475 53.5667 94.7007 53.5135 94.7716 53.4425C94.8248 53.3893 94.8958 53.3361 94.9667 53.2829C95.0376 53.2297 95.1086 53.1943 95.1795 53.1588C95.2504 53.1233 95.3391 53.0879 95.41 53.0701C95.4987 53.0347 95.5873 53.0169 95.676 52.9992C95.7647 52.9815 95.8356 52.9637 95.9243 52.9637C96.0129 52.9637 96.1016 52.9637 96.1725 52.9637C96.2612 52.9637 96.3321 52.9815 96.4208 52.9992C96.5094 53.0169 96.5803 53.0347 96.669 53.0524C96.7577 53.0701 96.8286 53.0879 96.8995 53.1411C96.935 53.1943 96.8818 53.2475 96.8641 53.3007C96.7754 53.5489 96.669 53.7794 96.5626 54.0277C96.5449 54.0809 96.4917 54.1164 96.4385 54.0986H96.4208L95.9597 53.9568C95.8001 53.9036 95.6228 53.9036 95.4632 53.9568C94.7539 54.1518 94.2929 54.8079 94.3283 55.535C94.3283 56.6521 94.3283 57.787 94.3283 58.9042C94.3283 58.9751 94.3283 59.046 94.3283 59.1347C94.3283 59.2233 94.3106 59.2233 94.2397 59.2233H93.2998C93.2466 59.2233 93.2112 59.1879 93.2112 59.1524C93.2112 59.1524 93.2112 59.1524 93.2112 59.1347C93.2112 59.0638 93.2112 59.0106 93.2112 58.9396V53.3716C93.2112 53.0701 93.1934 53.0879 93.4771 53.0879H94.1333C94.2396 53.0524 94.2928 53.0701 94.346 53.1056Z" fill="#D90E04"/>
<path d="M31.1285 56.1556V58.851C31.1285 58.9219 31.1285 58.9928 31.1285 59.0815C31.1285 59.1701 31.093 59.1879 31.0043 59.1879H30.1354C30.0291 59.1879 30.0113 59.1701 30.0113 59.0815C30.0113 58.9928 30.0113 58.9396 30.0113 58.851V54.2582C30.0113 53.9036 30.0468 53.939 29.6921 53.939H29.2666C29.2134 53.939 29.1779 53.9036 29.1602 53.8681C29.1602 53.8504 29.1602 53.8504 29.1602 53.8326C29.1602 53.6021 29.1602 53.3716 29.1602 53.1233C29.1602 53.0879 29.1956 53.0347 29.2311 53.0347H29.2488H29.3375H30.9334H31.0398C31.0753 53.0347 31.1107 53.0701 31.1107 53.1056C31.1107 53.1765 31.1107 53.2652 31.1107 53.3361L31.1285 56.1556Z" fill="#D90E04"/>
<path d="M118.003 56.1555V58.8863C118.003 58.9573 118.003 59.0282 118.003 59.1168C118.003 59.2055 117.985 59.2055 117.914 59.2055C117.613 59.2055 117.311 59.2055 117.01 59.2055C116.957 59.2055 116.921 59.17 116.921 59.1168C116.921 59.0282 116.921 58.9395 116.921 58.8686V54.1872C116.921 53.9567 116.921 53.9744 116.709 53.9744C116.549 53.9744 116.389 53.9744 116.23 53.9744C116.106 53.9744 116.088 53.9567 116.088 53.8503C116.088 53.6375 116.088 53.4247 116.088 53.2119C116.088 53.1055 116.123 53.0878 116.23 53.0878H117.897C117.95 53.0878 117.985 53.1232 118.003 53.1587V53.1764C118.003 53.2474 118.003 53.336 118.003 53.407V56.1555Z" fill="#D90E04"/>
<path d="M31.3058 51.3856C31.288 51.7757 30.9688 52.0949 30.5787 52.0949C30.2063 52.0771 29.9049 51.7757 29.9226 51.4033C29.9226 51.0309 30.2241 50.7472 30.5965 50.7472C31.0043 50.7649 31.3058 51.0132 31.3058 51.3856Z" fill="#D90E04"/>
<path d="M116.867 51.4387C116.867 51.3323 116.885 51.2081 116.92 51.1018C116.974 50.9599 117.08 50.8712 117.222 50.818C117.417 50.7471 117.63 50.7471 117.825 50.818C118.02 50.889 118.144 51.0486 118.179 51.2436C118.197 51.3855 118.197 51.5273 118.162 51.6692C118.038 52.0061 117.665 52.1834 117.328 52.077C117.257 52.0593 117.186 52.0061 117.133 51.9706C116.956 51.8288 116.867 51.6337 116.867 51.4387Z" fill="#D90E04"/>
</svg>
