<svg width="96" height="60" viewBox="0 0 96 60" fill="none" xmlns="http://www.w3.org/2000/svg">
<path d="M53.5683 33.7632C53.6086 33.6893 53.6412 33.6115 53.6768 33.5357L66.5686 5.51711C66.6742 5.28863 66.7808 5.06111 66.8844 4.83167C66.9209 4.75295 66.9574 4.68383 67.063 4.68479H67.8089C67.7494 4.82879 67.7129 4.93535 67.663 5.03807C63.0665 15.0592 58.4704 25.08 53.8745 35.1005C53.6912 35.4998 53.502 35.8982 53.3254 36.3005C53.1699 36.6557 53.1929 37.0013 53.4502 37.3027C53.5621 37.4434 53.7121 37.549 53.8823 37.6068C54.0525 37.6647 54.2357 37.6724 54.4102 37.6291C54.7942 37.5513 54.9862 37.2854 55.136 36.9571C59.7228 26.975 64.3081 16.9949 68.8918 7.01663C69.3296 6.06431 69.7558 5.10911 70.207 4.16063C70.4547 3.63455 70.254 2.89439 69.5628 2.75135V2.68799H66.1011C66.1044 2.69774 66.1057 2.70811 66.1047 2.71838C66.1037 2.72864 66.1005 2.73858 66.0953 2.74751C65.719 2.83007 65.5193 3.09599 65.3648 3.41951C64.8528 4.53439 64.3408 5.64895 63.8288 6.76319C60.1884 14.7081 56.5443 22.6512 52.8963 30.5923C52.8444 30.7065 52.7897 30.8189 52.7273 30.9513C52.5833 30.8553 52.5814 30.696 52.5036 30.5837C52.2368 30.1997 52.302 29.8454 52.495 29.4259C56.2505 21.2576 59.9945 13.0845 63.727 4.90655C63.8441 4.64927 63.9651 4.39295 64.0812 4.13855C64.3558 3.52799 64.063 2.91743 63.415 2.74175C63.4118 2.72343 63.4046 2.70604 63.3939 2.69087H60.0003C60.0055 2.71064 60.0028 2.73168 59.9926 2.74943C59.6182 2.82527 59.3964 3.07295 59.2448 3.40415C58.6598 4.68095 58.0739 5.95711 57.487 7.23263L49.7734 24.0326C49.7379 24.1085 49.7014 24.1833 49.6534 24.2813C49.4979 24.1161 49.4614 23.9049 49.3558 23.7369C49.158 23.424 49.1897 23.1446 49.3462 22.8057C52.1712 16.688 54.9872 10.5664 57.7942 4.44095C57.9142 4.17983 58.0044 3.91967 57.9382 3.62303C57.9011 3.43148 57.805 3.25634 57.6633 3.12222C57.5216 2.98809 57.3414 2.90171 57.1481 2.87519C57.0334 2.86157 56.918 2.85611 56.8025 2.85887C55.9212 2.85887 55.04 2.87519 54.1596 2.85215C53.5894 2.83679 53.2371 3.08063 53.0076 3.58751C51.4614 6.96927 49.9091 10.3494 48.3507 13.728C47.7996 14.928 47.2486 16.128 46.6976 17.328C46.6592 17.4134 46.6131 17.495 46.5497 17.6208C46.3961 17.2848 46.2617 16.9833 46.1187 16.6809C46.0659 16.5648 46.1475 16.4793 46.1888 16.3929C46.6438 15.3907 47.1011 14.3897 47.5606 13.3901C48.9481 10.3603 50.3353 7.33023 51.7222 4.29983C51.9142 3.88319 51.8576 3.46943 51.5715 3.16031C51.4927 3.06818 51.3952 2.99396 51.2854 2.94263C51.1757 2.8913 51.0562 2.86405 50.935 2.86271C49.8963 2.86271 48.8575 2.85407 47.8188 2.86271C47.3724 2.86271 47.0835 3.12671 46.903 3.51935L45.8662 5.77631C45.1193 7.40447 44.3715 9.03103 43.6227 10.656C43.5852 10.7385 43.5689 10.8384 43.4643 10.8989L42.6876 9.21599C41.8438 7.37855 40.9932 5.54303 40.1619 3.69983C39.9699 3.26687 39.7433 2.88671 39.2892 2.69087H38.8486C38.7689 2.79455 38.6355 2.81183 38.5356 2.88287C38.2102 3.11711 38.047 3.42335 38.096 3.82847C38.125 3.97231 38.1758 4.11087 38.2467 4.23935C39.5907 7.17439 40.9347 10.1085 42.2787 13.0416C42.3236 13.1223 42.348 13.2129 42.3499 13.3052C42.3517 13.3976 42.3309 13.489 42.2892 13.5715C40.6566 17.1101 39.0291 20.6502 37.4067 24.192C37.3821 24.2715 37.3382 24.3437 37.279 24.4022C37.1994 24.2977 37.1372 24.181 37.0947 24.0566C33.967 17.2483 30.8396 10.4393 27.7126 3.62975C27.6641 3.51393 27.6063 3.40221 27.5398 3.29567C27.2518 2.86559 26.7295 2.71967 26.3004 2.95007C25.8012 3.21503 25.615 3.71807 25.831 4.22687C25.8684 4.31423 25.9097 4.39871 25.9481 4.48511L36.2662 27.0067C36.3069 27.105 36.3528 27.2011 36.4035 27.2947C36.7942 27.9667 37.6707 27.984 38.0883 27.3341C38.1626 27.2078 38.2284 27.0766 38.2851 26.9414L43.3107 16.032C43.3494 15.9188 43.4065 15.8127 43.4796 15.7181C43.6265 15.9283 43.6918 16.1741 43.8166 16.3901C43.9184 16.5648 43.8944 16.7155 43.8118 16.8912C43.376 17.8214 42.9478 18.7565 42.5235 19.6896C40.9875 23.0323 39.4515 26.375 37.9155 29.7177C37.8489 29.849 37.8138 29.9939 37.813 30.141C37.8122 30.2882 37.8456 30.4335 37.9107 30.5654C37.9923 30.7363 38.07 30.9081 38.1478 31.08C38.5577 31.9872 38.9696 32.8934 39.3747 33.8025C39.511 34.1078 39.7164 34.3277 40.0467 34.4122C40.5776 34.5475 41.0172 34.3382 41.2572 33.8237C41.7564 32.7494 42.2489 31.6733 42.7443 30.5971C43.9603 27.9501 45.1782 25.3037 46.398 22.6579C46.4374 22.5725 46.4508 22.4659 46.5651 22.4102C46.6678 22.6339 46.7504 22.8509 46.8627 23.0505C46.975 23.2502 46.9529 23.4086 46.8627 23.6073C44.9331 27.8038 43.006 32.0029 41.0816 36.2045C41.0336 36.3091 40.9808 36.4128 40.9433 36.5213C40.8962 36.6473 40.8766 36.782 40.8859 36.9162C40.8953 37.0505 40.9333 37.1811 40.9974 37.2994C41.0616 37.4177 41.1504 37.5209 41.2578 37.6019C41.3652 37.683 41.4888 37.74 41.6201 37.7693C42.0857 37.8893 42.5206 37.6733 42.7433 37.1933C43.2553 36.0893 43.7628 34.9846 44.2659 33.8793C45.4742 31.2515 46.6832 28.624 47.8928 25.9968C47.9369 25.9008 47.9504 25.7769 48.079 25.7203C48.1548 25.8825 48.2259 26.0342 48.2959 26.1859C48.4409 26.4998 48.5763 26.8195 48.7337 27.1267C48.8108 27.2894 48.932 27.4272 49.0836 27.5243C49.2352 27.6214 49.411 27.6739 49.591 27.6758C49.9856 27.6902 50.263 27.4838 50.4646 27.1565C50.521 27.0559 50.572 26.9524 50.6172 26.8464L60.0579 6.33599C60.2812 5.85023 60.5052 5.36479 60.7299 4.87967C60.774 4.78367 60.8038 4.67903 60.942 4.68767C61.1705 4.69823 61.4009 4.66751 61.6342 4.70783C61.6438 4.87391 61.5478 4.99583 61.4892 5.12351C58.503 11.64 55.5148 18.1552 52.5248 24.6691C51.7728 26.3075 51.0204 27.9456 50.2678 29.5833C50.2056 29.6992 50.17 29.8275 50.1637 29.9589C50.1574 30.0903 50.1805 30.2214 50.2313 30.3427C50.7433 31.4813 51.2572 32.6176 51.7731 33.7517C51.9488 34.1357 52.2694 34.3037 52.6841 34.3065C52.8685 34.3124 53.0505 34.2641 53.2077 34.1675C53.3648 34.0709 53.4902 33.9303 53.5683 33.7632ZM44.6595 13.0867C45.0595 12.2112 45.462 11.336 45.8672 10.4611C46.6918 8.67263 47.5203 6.88607 48.3344 5.09279C48.4304 4.87583 48.5494 4.78943 48.7808 4.81631C48.9669 4.82618 49.1534 4.82618 49.3395 4.81631L45.006 14.2627C44.8486 13.9219 44.7248 13.6483 44.5971 13.3776C44.5443 13.2643 44.622 13.1779 44.6633 13.0867H44.6595ZM45.3574 20.2368C44.7814 21.4944 44.2054 22.7507 43.6294 24.0057C42.6048 26.2419 41.5795 28.48 40.5536 30.72C40.4979 30.8419 40.4403 30.9619 40.3664 31.1203C40.3455 31.0984 40.3262 31.0749 40.3088 31.0502C40.1753 30.7545 39.9632 30.4675 39.9324 30.1613C39.9036 29.8733 40.1408 29.6035 40.2665 29.3289C41.7859 26.0016 43.3078 22.6768 44.8323 19.3545C44.8715 19.2324 44.937 19.1203 45.0243 19.0262C45.1683 19.3411 45.3123 19.6416 45.4428 19.944C45.4889 20.0553 45.4083 20.1446 45.3612 20.2368H45.3574ZM48.0761 20.951C47.9225 20.6189 47.8025 20.352 47.6748 20.087C47.6076 19.9478 47.6873 19.8422 47.7382 19.7318C48.2316 18.6547 48.727 17.5789 49.2243 16.5043C50.9676 12.7155 52.7107 8.92639 54.4534 5.13695C54.4841 5.07071 54.5187 5.00543 54.5494 4.93727C54.563 4.89846 54.5895 4.86545 54.6244 4.84365C54.6593 4.82184 54.7005 4.81254 54.7414 4.81727H55.4758L48.0761 20.951Z" fill="#990D81"/>
<path d="M15.8962 46.103L13.2677 53.2685L12.4392 55.4669C12.4286 55.4966 10.7765 55.5571 10.7765 55.5571C10.7703 55.5164 10.7606 55.4762 10.7477 55.4371C9.98223 53.544 9.21551 51.6512 8.44751 49.7587C8.42543 49.704 8.41583 49.6387 8.34383 49.6224C8.33219 49.6403 8.32162 49.6589 8.31215 49.6781L5.93039 55.5571H4.29839C4.32047 55.4342 4.24847 55.3344 4.21007 55.2288C3.77551 54.0576 3.34063 52.8893 2.90543 51.7238C2.31215 50.1238 1.71855 48.5257 1.12463 46.9296L1.11695 46.9085L0.863512 46.2336L0.820312 46.1165C1.51535 46.1165 2.21231 46.1165 2.90735 46.0992C3.09071 46.0992 3.13295 46.1952 3.18383 46.3315C3.65999 47.584 4.13839 48.8361 4.61903 50.088C4.79951 50.5545 4.97903 51.0211 5.18351 51.552C5.24207 51.4195 5.27951 51.3408 5.31119 51.264C5.97231 49.6403 6.63375 48.0185 7.29551 46.3987C7.43567 46.0569 7.36175 46.1107 7.74575 46.104H9.19247C9.46991 46.104 9.47087 46.104 9.57647 46.3651C10.2082 47.9837 10.8395 49.6029 11.4706 51.2227C11.507 51.3187 11.5502 51.4147 11.6126 51.5606C11.6674 51.432 11.7086 51.3533 11.7355 51.2726L13.6728 46.3968C13.789 46.103 13.7899 46.103 14.0914 46.103H15.8962Z" fill="#990D81"/>
<path d="M37.8009 52.1011C37.8009 50.1625 37.8009 48.2236 37.8009 46.2844C37.8009 46.006 37.8009 46.0041 37.5283 46.0032C36.9523 46.0032 36.3763 46.0176 35.8003 45.9955C35.5267 45.9849 35.3741 46.0675 35.2339 46.3123C34.3536 47.8483 33.455 49.3737 32.5603 50.9011C32.5056 50.9971 32.471 51.1065 32.3529 51.1728C32.2905 51.0662 32.2358 50.9808 32.1859 50.8848C31.3219 49.3372 30.4637 47.7916 29.6121 46.2393C29.5795 46.1587 29.5214 46.0911 29.4467 46.0467C29.372 46.0023 29.2847 45.9836 29.1984 45.9936C28.5696 46.0089 27.9408 45.9936 27.312 46.0003C26.9088 46.0003 26.9462 45.9523 26.9462 46.3728C26.9462 49.2342 26.9462 52.0956 26.9462 54.9571C26.9462 55.1558 26.951 55.3555 26.9539 55.5542H28.9699V49.943C29.0717 49.9641 29.0861 50.0304 29.1139 50.0812C30.0969 51.8342 31.0794 53.5875 32.0611 55.3411C32.0841 55.3874 32.1039 55.4352 32.1206 55.4841C32.2118 55.5388 32.2493 55.4755 32.2886 55.4092L32.9136 54.3532C33.7456 52.9452 34.5792 51.5401 35.4144 50.1379C35.4587 50.0268 35.534 49.9308 35.6314 49.8614V50.1168C35.6314 51.814 35.6314 53.51 35.6314 55.2048C35.6314 55.32 35.6371 55.4352 35.64 55.5504H37.7808C37.8087 55.4384 37.8162 55.3223 37.8029 55.2076C37.8022 54.1747 37.8016 53.1392 37.8009 52.1011Z" fill="#990D81"/>
<path d="M25.1916 53.6639C23.2524 53.6639 21.3129 53.6639 19.3731 53.6639C19.0774 53.6639 19.0755 53.6639 19.0745 53.3826C19.0745 52.8795 19.0745 52.3755 19.0745 51.8725C19.0745 51.5999 19.0745 51.5989 19.3481 51.596H19.5046C20.7315 51.596 21.9583 51.596 23.1852 51.596C23.4271 51.596 23.431 51.596 23.4319 51.3589C23.4319 50.9087 23.4319 50.4575 23.4319 50.0063C23.4319 49.7115 23.4319 49.7375 23.1507 49.7355C22.4172 49.7307 21.6828 49.7355 20.9494 49.7355C20.4041 49.7355 19.8588 49.7355 19.3174 49.7355C19.0831 49.7355 19.0793 49.7298 19.0774 49.4888C19.0774 49.0693 19.0774 48.6498 19.0774 48.2303C19.0774 48.0133 19.0831 48.0085 19.3078 48.0085H21.4467C22.694 48.0085 23.942 48.0085 25.1907 48.0085C25.4297 48.0085 25.4326 48.0085 25.4345 47.7656C25.4345 47.325 25.4345 46.8843 25.4345 46.4447C25.4345 46.0904 25.4767 46.1087 25.0937 46.1087C22.4934 46.1087 19.8934 46.1087 17.2937 46.1087C16.8243 46.1087 16.8876 46.0568 16.8876 46.5023C16.8876 49.5211 16.8876 52.5407 16.8876 55.5608H25.5737C25.5737 55.0578 25.5852 54.5547 25.5852 54.0517C25.5795 53.6082 25.6256 53.6687 25.1916 53.6639Z" fill="#990D81"/>
<path d="M90.8274 49.7136C92.2789 48.4944 93.7298 47.2742 95.18 46.0531V45.9907C94.316 45.9907 93.4606 46.0061 92.6014 45.9965C92.3728 45.9881 92.1495 46.0666 91.9765 46.2163C90.66 47.2896 89.3387 48.3565 88.0126 49.417C87.9378 49.4765 87.8811 49.5859 87.7419 49.5533V49.2989C87.7419 48.2813 87.7419 47.264 87.7419 46.247C87.7419 46.008 87.7371 46.0042 87.4971 46.0032C86.9307 46.0032 86.3646 46.0032 85.7989 46.0032C85.557 46.0032 85.557 46.0032 85.5512 46.2442V46.4362V54.5213C85.5512 54.7728 85.5579 55.0253 85.5512 55.2758C85.5454 55.4362 85.5973 55.4966 85.7643 55.4947C86.3518 55.4861 86.9384 55.487 87.5259 55.4947C87.6824 55.4947 87.7669 55.4563 87.7467 55.2845C87.7427 55.2205 87.7427 55.1564 87.7467 55.0925C87.7467 54.2214 87.7467 53.351 87.7467 52.4813C87.7467 52.3853 87.7218 52.271 87.8264 52.1933C88.1797 51.9315 88.5317 51.6675 88.8824 51.4013C88.8954 51.3884 88.9112 51.3788 88.9286 51.3732C88.9461 51.3676 88.9645 51.3662 88.9826 51.3691C89.0007 51.372 89.0178 51.3791 89.0326 51.3899C89.0473 51.4006 89.0594 51.4147 89.0677 51.431C89.1061 51.481 89.1464 51.527 89.1867 51.5779C90.205 52.8176 91.2226 54.0576 92.2395 55.2979C92.2836 55.3607 92.343 55.4113 92.412 55.4449C92.481 55.4784 92.5574 55.494 92.6341 55.4899C93.3685 55.4794 94.1029 55.4899 94.8363 55.4832C94.9016 55.4832 94.9832 55.5235 95.0283 55.439C94.9874 55.3423 94.9265 55.2553 94.8498 55.1837C93.4942 53.503 92.1378 51.8224 90.7803 50.1418C90.5931 49.9104 90.547 49.9488 90.8274 49.7136Z" fill="#990D81"/>
<path d="M48.5968 54.3609C47.3392 51.7132 46.0845 49.0649 44.8326 46.4159C44.7155 46.1663 44.5821 46.0799 44.3142 46.0972C43.9376 46.1203 43.56 46.1203 43.1833 46.0972C42.9299 46.0828 42.7993 46.1644 42.6899 46.4035C41.6752 48.6211 40.6441 50.831 39.6179 53.0447C39.2339 53.8799 38.8499 54.719 38.4707 55.5561H40.5472C40.8957 54.8515 41.247 54.1497 41.5869 53.4441C41.6608 53.2915 41.7635 53.2655 41.9123 53.2665H44.6185H45.4998C45.5512 53.2606 45.6032 53.2716 45.6477 53.298C45.6923 53.3243 45.727 53.3645 45.7465 53.4124C46.0845 54.0988 46.4291 54.7814 46.7699 55.4668C46.7783 55.4981 46.7812 55.5306 46.7785 55.5628H49.1075C49.1536 55.4668 49.0845 55.4044 49.0509 55.3324C48.903 55.0079 48.7494 54.6825 48.5968 54.3609ZM42.4134 51.5769L43.7008 49.0559C44.1414 49.9324 44.5465 50.7417 44.9689 51.5827L42.4134 51.5769Z" fill="#990D81"/>
<path d="M61.4994 50.7167C61.3977 50.6485 61.2719 50.6111 61.1951 50.5103C61.2028 50.493 61.2047 50.4825 61.2114 50.4767C61.2527 50.4441 61.294 50.4124 61.3362 50.3807C61.87 49.9967 62.1849 49.4841 62.229 48.8255C62.325 47.4633 61.653 46.4533 60.3388 46.1308C59.9294 46.0385 59.5104 45.9956 59.0908 46.0031C57.2028 46.0031 55.3148 46.0031 53.4268 46.0031C53.1503 46.0031 53.1465 46.0031 53.1465 46.2748C53.1465 49.2533 53.1465 52.2322 53.1465 55.2114C53.1465 55.485 53.1465 55.485 53.422 55.4879H53.5478C55.3103 55.4879 57.0726 55.4879 58.8345 55.4879C59.212 55.4902 59.5893 55.4703 59.9644 55.4284C61.4745 55.2546 62.6034 54.2284 62.5247 52.5301C62.518 52.1665 62.4207 51.8102 62.2417 51.4936C62.0626 51.177 61.8076 50.91 61.4994 50.7167ZM55.3362 48.1583C55.3362 47.9289 55.342 47.9212 55.5551 47.9212C56.6764 47.9212 57.7983 47.9228 58.9209 47.926C59.1309 47.9233 59.34 47.9527 59.541 48.0133C59.901 48.1285 60.0585 48.3676 60.0527 48.7813C60.047 49.1721 59.8799 49.4053 59.5324 49.5129C59.2786 49.5798 59.0162 49.609 58.7538 49.5993C58.2815 49.6041 57.8102 49.5993 57.3378 49.5993C56.7513 49.5993 56.1638 49.5993 55.5762 49.5993C55.341 49.5993 55.3382 49.5935 55.3362 49.3516C55.3337 48.9548 55.3337 48.557 55.3362 48.1583ZM59.7954 53.3893C59.4239 53.5612 59.0217 53.5679 58.6242 53.5813C58.1942 53.5929 57.7602 53.5813 57.334 53.5813C56.758 53.5813 56.182 53.5813 55.606 53.5813C55.342 53.5813 55.3382 53.5813 55.3372 53.3298C55.3372 52.7941 55.3372 52.2594 55.3372 51.7247C55.3372 51.5749 55.3862 51.525 55.5359 51.526C56.6879 51.5327 57.8399 51.526 58.9919 51.5394C59.2444 51.5418 59.4946 51.5882 59.7311 51.6767C60.1074 51.8178 60.2879 52.101 60.3071 52.4965C60.3263 52.8921 60.1756 53.2146 59.7954 53.3893Z" fill="#990D81"/>
<path d="M83.9787 45.9992C83.4853 46.0079 82.9928 45.9992 82.4993 45.9992C82.1384 45.9992 82.1643 45.9695 82.1643 46.3429C82.1643 48.0203 82.1643 49.6981 82.1643 51.3762C82.1643 51.4808 82.1998 51.5979 82.0971 51.7218C82.0078 51.62 81.9349 51.5298 81.8542 51.4482C80.1422 49.7035 78.4312 47.9589 76.7211 46.2143C76.6577 46.1398 76.5779 46.0812 76.4879 46.0431C76.3979 46.0049 76.3003 45.9882 76.2027 45.9944C75.7937 46.0098 75.3848 45.9944 74.9758 45.9992C74.5918 45.9992 74.612 45.9579 74.612 46.3467V55.124V55.316C74.6053 55.4312 74.6494 55.4888 74.7733 55.4879C75.3397 55.4879 75.9061 55.4879 76.4725 55.4879C76.5896 55.4879 76.6501 55.4485 76.6462 55.3266C76.6462 55.2421 76.6462 55.1586 76.6462 55.0741C76.6462 53.3864 76.6462 51.6981 76.6462 50.0091C76.6317 49.8957 76.6399 49.7805 76.6702 49.6703C76.7777 49.6808 76.8181 49.7663 76.8738 49.8191C77.251 50.1973 77.6254 50.5794 78.0018 50.9595C79.4302 52.4072 80.8587 53.8559 82.2872 55.3055C82.3412 55.3677 82.4087 55.4166 82.4846 55.4486C82.5605 55.4805 82.6427 55.4946 82.7249 55.4898C83.1089 55.4773 83.5016 55.4898 83.8894 55.4898C84.1957 55.4898 84.1957 55.4898 84.1986 55.1807V46.4005C84.1986 46.3371 84.1938 46.2738 84.1986 46.2085C84.2139 46.0472 84.1409 45.9963 83.9787 45.9992Z" fill="#990D81"/>
<path d="M71.7018 51.408C70.8839 49.6857 70.0672 47.9635 69.2519 46.2413C69.1703 46.0675 69.0762 45.9897 68.8765 45.9974C68.4474 46.0128 68.0125 46.0147 67.5882 45.9974C67.3779 45.9888 67.2752 46.0579 67.1869 46.2499C65.8109 49.2361 64.4307 52.2205 63.0464 55.2029C63.009 55.2845 62.937 55.3603 62.9802 55.4909H64.8531C65.0077 55.4909 65.0451 55.3862 65.0922 55.2854C65.4061 54.6576 65.7267 54.0374 66.0301 53.4C66.0583 53.3234 66.1116 53.2587 66.1814 53.2163C66.2511 53.1739 66.3331 53.1565 66.4141 53.1667C67.5565 53.1753 68.6989 53.1773 69.8413 53.1667C70.0602 53.1667 70.1754 53.2281 70.2704 53.4317C70.5642 54.0566 70.8839 54.6701 71.1939 55.2873C71.2448 55.3901 71.2794 55.4928 71.433 55.4918C72.1453 55.4851 72.8576 55.4918 73.5939 55.4918C73.5867 55.3839 73.5538 55.2792 73.4979 55.1865C72.8983 53.9251 72.2995 52.6656 71.7018 51.408ZM66.9373 51.504C66.9613 51.2928 67.8973 49.4179 68.1853 49.008L69.44 51.504H66.9373Z" fill="#990D81"/>
</svg>
