<svg width="73" height="78" viewBox="0 0 73 78" fill="none" xmlns="http://www.w3.org/2000/svg">
<g clip-path="url(#clip0_580_4378)">
<path fill-rule="evenodd" clip-rule="evenodd" d="M6.30696 21.5139C7.8034 16.6589 9.75582 9.55994 12.1642 0.216919H72.4812L6.30696 54.4969L36.1077 18.0356C27.3707 18.0217 18.8727 18.0148 10.6134 18.0148C7.78483 18.4965 5.71369 23.016 6.30696 21.5139Z" fill="#868786"/>
<path fill-rule="evenodd" clip-rule="evenodd" d="M68.7537 6.51172L1.22852 61.752L63.9585 61.3928C66.5306 50.2223 68.2396 42.3349 69.0857 37.7307C69.0857 35.7014 67.6655 42.6891 63.9585 43.2635C56.5128 43.4878 48.0837 43.5999 38.6712 43.5999L68.7537 6.51172Z" fill="#E3200F"/>
<path fill-rule="evenodd" clip-rule="evenodd" d="M5.06107 75.3551L11.0168 75.3729L10.5997 77.7761H0.818359L1.12902 75.996L8.57595 67.2465L2.60243 67.2287L3.02847 64.8166H12.7832L12.4814 66.5522L5.06107 75.3551ZM20.7893 72.2843H16.0406L15.4992 75.3729H21.1177L20.7005 77.7761H12.0464L14.2832 64.8166H22.955L22.5378 67.2287H16.9105L16.4312 69.9612H21.1887L20.7893 72.2843ZM32.4878 77.7761H29.5498L26.461 69.5963L25.0409 77.7761H22.0053L24.242 64.8166H27.2066L30.2865 72.9964L31.6978 64.8166H34.7334L32.4878 77.7761ZM37.7157 77.7761H34.6801L36.9258 64.8166H39.9525L37.7157 77.7761ZM51.3048 67.2287H47.5414L45.7218 77.7761H42.6774L44.5058 67.2287H40.8046L41.2306 64.8166H51.722L51.3048 67.2287ZM61.3169 77.7761H58.2991L59.231 72.3644H54.8019L53.8611 77.7761H50.8255L53.0623 64.8166H56.1067L55.2102 69.9612H59.6482L60.5358 64.8166H63.5625L61.3169 77.7761Z" fill="#868786"/>
</g>
<defs>
<clipPath id="clip0_580_4378">
<rect width="72.5833" height="78" fill="white" transform="translate(0.0976562)"/>
</clipPath>
</defs>
</svg>
