<svg width="79" height="78" viewBox="0 0 79 78" fill="none" xmlns="http://www.w3.org/2000/svg">
<path fill-rule="evenodd" clip-rule="evenodd" d="M25.8383 69.7492C26.8387 69.7492 27.5699 69.9612 28.0316 70.3849C28.4934 70.8087 28.7245 71.4678 28.725 72.3622V77.1561H27.2243V72.565C27.2243 71.5542 26.6575 71.0487 25.5239 71.0487C25.0343 71.0447 24.5536 71.1799 24.1379 71.4387C24.2098 71.7412 24.2436 72.0514 24.2385 72.3622V77.1561H22.7378V72.565C22.7378 71.5542 22.171 71.0487 21.0374 71.0487C20.5201 71.0492 20.0071 71.1422 19.5226 71.3233V77.1561H18.0227V70.5004C18.5193 70.2535 19.045 70.07 19.5873 69.9544C20.1659 69.8195 20.7577 69.7494 21.3517 69.7453C22.2877 69.7453 22.9832 69.9273 23.4382 70.2914C24.1876 69.9334 25.0078 69.7481 25.8383 69.7492ZM33.8668 77.3761C32.7228 77.3761 31.863 77.0487 31.2873 76.3941C30.7117 75.7394 30.4236 74.7865 30.4231 73.5354C30.4231 71.0035 31.5671 69.7378 33.8551 69.7383C35.0079 69.7383 35.8748 70.0631 36.4556 70.7125C37.0365 71.362 37.3271 72.303 37.3277 73.5354C37.3277 74.7667 37.0276 75.7147 36.4275 76.3792C35.8275 77.0438 34.9739 77.3761 33.8668 77.3761ZM33.852 76.0907C35.1671 76.0907 35.8243 75.2389 35.8238 73.5354C35.8238 72.6883 35.6678 72.0555 35.3558 71.6368C35.0438 71.2182 34.5436 71.0087 33.8551 71.0082C33.1599 71.0082 32.6622 71.2224 32.3622 71.6509C32.0621 72.0794 31.9121 72.7075 31.9121 73.5354C31.9121 74.3627 32.0668 74.9955 32.3762 75.4339C32.6856 75.8722 33.1775 76.0901 33.852 76.0875V76.0907ZM42.3376 69.7524C43.4046 69.7524 44.2143 70.0748 44.7665 70.7196C45.3188 71.3644 45.5957 72.2777 45.5972 73.4597C45.5972 74.8845 45.2662 75.8928 44.6043 76.4846C43.9423 77.0763 43.101 77.3735 42.0802 77.3761C40.0319 77.3761 39.0078 76.8275 39.0078 75.7303V67.006H40.4945V70.2001C40.7934 70.0572 41.1074 69.9481 41.4305 69.8748C41.7271 69.7987 42.0314 69.7566 42.3376 69.7492V69.7524ZM41.9655 76.0618C42.7455 76.0618 43.2915 75.8356 43.6035 75.3832C43.9155 74.9308 44.0715 74.3099 44.0715 73.5206C44.0715 72.7125 43.9072 72.0965 43.5786 71.6727C43.2499 71.2489 42.7619 71.0373 42.1145 71.0378C41.8325 71.0397 41.5517 71.0759 41.2784 71.1454C41.0048 71.2115 40.7421 71.3166 40.4984 71.4575V75.3575C40.4958 75.8254 40.9848 76.0592 41.9655 76.0587V76.0618ZM47.2929 67.3843H48.8935V68.7563H47.2929V67.3843ZM47.3358 69.9544H48.8366L48.8506 77.1592H47.3358V69.9544ZM50.9628 77.1592V67.1651H52.4495V77.1561L50.9628 77.1592ZM57.4766 69.7321C58.5915 69.7321 59.4084 70.0961 59.9274 70.8241C60.4463 71.5521 60.7011 72.57 60.6918 73.8778H55.6592C55.7076 74.5902 55.9156 75.1318 56.2832 75.5025C56.6509 75.8733 57.1724 76.0584 57.8479 76.0579C58.6571 76.0587 59.4535 75.8551 60.1629 75.4659V76.8808C59.4199 77.211 58.5686 77.3761 57.6092 77.3761C56.5328 77.3761 55.6873 77.0464 55.0727 76.387C54.458 75.7277 54.151 74.7917 54.1515 73.579C54.1515 72.3373 54.4419 71.387 55.0227 70.7281C55.6036 70.0693 56.4215 69.7373 57.4766 69.7321ZM57.4337 70.9801C56.9288 70.9801 56.5336 71.115 56.2481 71.3849C55.9626 71.6548 55.7767 72.1119 55.6904 72.7561H59.163C59.0959 72.14 58.9243 71.6901 58.6482 71.4067C58.3721 71.1233 57.9672 70.9811 57.4337 70.9801ZM43.1012 11.58C41.4461 11.1707 40.1721 10.9658 39.2792 10.9653C32.6188 10.9653 27.2189 16.3473 27.2189 22.9843C27.2189 29.6214 32.6211 35.0041 39.2792 35.0041C45.9373 35.0041 51.3404 29.6221 51.3404 22.9843C51.3408 22.0147 51.224 21.0485 50.9925 20.1069L60.581 17.5243C61.3577 20.4772 61.5046 23.5604 61.0121 26.5738C60.5196 29.5871 59.3988 32.4631 57.7223 35.0151L41.8446 64.4515H27.1354L37.5874 45.1855C37.6443 45.0794 37.4766 44.8454 37.3362 44.8329C26.1674 43.8189 17.4189 34.4589 17.4189 23.0639C17.4189 10.9903 27.2391 1.20363 39.3541 1.20363C41.5718 1.20119 43.7772 1.53438 45.8952 2.19189L43.1012 11.58Z" fill="#006E53"/>
<path d="M39.2072 29.5948C42.8581 29.5948 45.8177 26.6352 45.8177 22.9843C45.8177 19.3334 42.8581 16.3738 39.2072 16.3738C35.5563 16.3738 32.5967 19.3334 32.5967 22.9843C32.5967 26.6352 35.5563 29.5948 39.2072 29.5948Z" fill="#D6E806"/>
<path d="M50.6239 18.4773C49.4787 15.6105 47.2714 13.2962 44.4619 12.0166M54.8312 16.674C53.2138 12.6979 50.1555 9.47864 46.2676 7.65952M58.888 15.3222C56.8278 10.0805 52.7765 5.86732 47.6194 3.60352" stroke="#D6E806" stroke-width="1.5" stroke-linecap="round"/>
</svg>
