<svg width="223" height="50" viewBox="0 0 223 50" fill="none" xmlns="http://www.w3.org/2000/svg">
<g clip-path="url(#clip0_1432_3107)">
<path d="M66.969 14.873C67.6112 12.9308 68.2201 11.0953 68.8156 9.27526C68.889 9.05304 69.0379 9.00193 69.2312 8.96638C72.4467 8.36638 75.6756 7.85526 78.9601 8.01748C81.2778 8.12637 83.5067 8.59971 85.5023 9.84415C88.209 11.5286 89.4467 14.0664 89.6223 17.1775C89.7245 18.9664 89.4334 20.733 89.1778 22.4842C88.6467 26.053 88.1001 29.6175 87.5867 33.1864C87.5727 33.336 87.5187 33.4792 87.4303 33.6008C87.342 33.7224 87.2225 33.8179 87.0845 33.8775C84.9912 35.0264 82.7201 35.6553 80.3867 36.0375C77.4991 36.5378 74.5538 36.6127 71.6445 36.2597C69.2201 35.9553 66.9601 35.2019 65.2001 33.4197C64.4363 32.6376 63.8434 31.7053 63.459 30.682C63.0745 29.6587 62.907 28.5666 62.967 27.4751C63.0269 26.3835 63.3131 25.3164 63.8073 24.3413C64.3015 23.3662 64.993 22.5045 65.8378 21.8108C67.6423 20.3264 69.7756 19.5886 72.0223 19.1108C75.4245 18.3908 78.8578 18.4886 82.2934 18.7508C82.7223 18.7819 82.8156 18.6508 82.8356 18.2686C82.989 15.5886 81.3801 13.6642 78.5556 13.1464C76.5956 12.7864 74.6712 13.0975 72.7467 13.413C70.7831 13.7361 68.8503 14.2245 66.969 14.873ZM78.9867 22.9575C77.7637 22.9495 76.5421 23.0394 75.3334 23.2264C74.0267 23.4486 72.7579 23.793 71.7045 24.6597C70.5134 25.6397 70.1956 26.9553 70.4312 28.4042C70.6534 29.7264 71.5778 30.4508 72.7756 30.8775C73.3246 31.0706 73.8958 31.1938 74.4756 31.2442C76.6179 31.4508 78.6978 31.0775 80.7645 30.5664C80.9047 30.5479 81.0332 30.4787 81.1258 30.3718C81.2183 30.2649 81.2685 30.1278 81.2667 29.9864C81.549 27.8864 81.829 25.7842 82.1401 23.6886C82.1934 23.3264 82.0734 23.2575 81.7712 23.1997C80.8506 23.0477 79.9197 22.9667 78.9867 22.9575Z" fill="#114185"/>
<path d="M166.176 29.5087C165.821 30.5887 165.51 31.5553 165.181 32.522C164.919 33.3153 164.639 34.102 164.39 34.902C164.366 35.0244 164.306 35.1371 164.219 35.2257C164.131 35.3143 164.019 35.3748 163.896 35.3998C160.496 36.3064 157.052 36.7976 153.541 36.3553C149.541 35.8509 146.234 34.1331 144.208 30.4642C142.961 28.1931 142.565 25.7198 142.734 23.1709C143.056 18.322 145.076 14.302 148.832 11.1887C151.114 9.29534 153.776 8.322 156.705 8.03312C158.725 7.83534 160.734 7.87312 162.705 8.422C166.719 9.53312 169.394 12.6553 169.908 16.7887C170.203 19.1642 169.908 21.4976 169.523 23.8331C169.476 24.1242 169.33 24.1331 169.108 24.1331C168.03 24.1331 166.95 24.1331 165.872 24.1331C160.687 24.1331 155.502 24.1331 150.316 24.1331C149.899 24.1331 149.776 24.2353 149.77 24.6642C149.712 28.1576 151.641 30.4642 155.074 31.0531C157.612 31.4976 160.081 31.1131 162.545 30.5753C163.778 30.2998 164.991 29.9434 166.176 29.5087ZM157.11 19.5976H162.088C163.608 19.5976 163.608 19.5976 163.659 18.0776C163.763 14.9998 161.881 12.9931 158.821 12.822C155.161 12.6153 151.71 15.2664 150.821 19.1998C150.748 19.5264 150.821 19.6064 151.154 19.6042C153.134 19.5887 155.11 19.5976 157.11 19.5976Z" fill="#114185"/>
<path d="M178.954 36.444C175.691 36.4223 172.452 35.8823 169.358 34.844C169.049 34.7374 168.967 34.6485 169.078 34.3129C169.587 32.7737 170.073 31.227 170.538 29.6729C170.654 29.2907 170.789 29.3218 171.096 29.4685C174.067 30.9219 177.423 31.3949 180.681 30.8196C181.445 30.7032 182.17 30.4061 182.796 29.9529C183.086 29.7521 183.327 29.4889 183.501 29.1827C183.676 28.8765 183.78 28.535 183.805 28.1835C183.83 27.8319 183.776 27.4792 183.647 27.1512C183.518 26.8233 183.317 26.5285 183.058 26.2885C182.494 25.7656 181.859 25.3229 181.174 24.9729C179.474 24.0218 177.745 23.1307 176.129 22.0285C171.789 19.0574 172.318 12.8729 176.592 10.1596C178.485 8.95737 180.558 8.35515 182.761 8.12626C186.432 7.74626 189.981 8.37514 193.478 9.42848C193.798 9.52403 193.881 9.6107 193.758 9.9507C193.232 11.4107 192.723 12.8796 192.245 14.3574C192.118 14.7463 191.967 14.7174 191.667 14.5796C189.479 13.5473 187.084 13.0303 184.665 13.0685C183.492 13.0974 182.347 13.2907 181.354 13.984C180.932 14.2533 180.609 14.6537 180.437 15.1238C180.264 15.5939 180.251 16.1077 180.398 16.5863C180.59 17.1229 180.951 17.5824 181.427 17.8951C182.456 18.6685 183.634 19.1907 184.761 19.8085C186.139 20.5282 187.455 21.3622 188.694 22.3018C192.356 25.2085 191.985 30.7463 188.472 33.5596C186.205 35.3707 183.552 36.0952 180.729 36.3529C180.021 36.4152 179.316 36.4263 178.954 36.444Z" fill="#114185"/>
<path d="M202.927 36.4442C199.708 36.4131 196.513 35.8785 193.458 34.8597C193.105 34.7419 193.014 34.6375 193.145 34.2642C193.647 32.7575 194.123 31.2419 194.585 29.7219C194.696 29.3531 194.807 29.2997 195.167 29.4731C198.126 30.913 201.462 31.3871 204.705 30.8286C205.4 30.7195 206.066 30.4716 206.663 30.0997C208.136 29.1597 208.316 27.4331 207.072 26.2242C206.55 25.7551 205.969 25.3555 205.345 25.0353C203.567 24.0264 201.72 23.1242 200.047 21.9242C196.187 19.1353 196.667 14.0886 199.027 11.5553C200.618 9.85083 202.627 8.93528 204.856 8.44416C207.814 7.7775 210.769 7.9375 213.723 8.48416C214.967 8.70639 216.185 9.04416 217.403 9.37305C217.807 9.48639 217.954 9.60639 217.783 10.0686C217.269 11.4619 216.803 12.8708 216.349 14.2908C216.223 14.6797 216.096 14.7353 215.714 14.5686C213.555 13.555 211.196 13.0394 208.812 13.0597C207.7 13.0797 206.627 13.2442 205.658 13.8264C204.74 14.3753 204.276 15.1731 204.414 16.2708C204.5 16.9686 204.92 17.4553 205.449 17.8553C206.56 18.6975 207.838 19.2531 209.047 19.9197C210.425 20.6819 211.785 21.4753 212.987 22.4997C216.356 25.3886 215.976 30.7442 212.596 33.4997C210.78 34.9819 208.674 35.7508 206.4 36.1486C205.252 36.3352 204.091 36.434 202.927 36.4442Z" fill="#114185"/>
<path d="M114.889 29.9019C114.776 30.5685 114.489 31.1663 114.278 31.7952C113.876 32.993 113.447 34.1797 113.049 35.3797C113.02 35.4997 112.953 35.6073 112.859 35.6871C112.765 35.767 112.648 35.8149 112.525 35.8241C109.858 36.2686 107.163 36.5508 104.454 36.3463C100.411 36.0419 96.9447 34.5685 94.5625 31.1241C92.8825 28.6974 92.2892 25.9397 92.4381 23.0352C92.687 18.1908 94.7403 14.2263 98.5247 11.1908C100.694 9.45299 103.245 8.59966 105.963 8.2441C109.327 7.76727 112.752 7.97208 116.036 8.84632C116.663 9.01743 117.267 9.25743 117.883 9.45743C118.105 9.52855 118.163 9.6241 118.08 9.86632C117.556 11.3997 117.036 12.9374 116.545 14.4819C116.436 14.8219 116.283 14.753 116.063 14.6663C114.493 14.0229 112.832 13.6336 111.14 13.513C107.48 13.3063 104.298 14.313 102.014 17.3597C99.8736 20.2152 99.5425 24.9574 101.834 27.8241C103.258 29.6019 105.138 30.5441 107.369 30.8041C109.776 31.0841 112.103 30.6197 114.4 29.9597C114.547 29.9174 114.696 29.8886 114.845 29.853L114.889 29.9019Z" fill="#114185"/>
<path d="M140.221 29.8708C139.71 31.3419 139.124 32.7975 138.704 34.2997C138.399 35.3953 137.886 35.9153 136.69 36.0353C133.357 36.3686 130.024 36.7419 126.69 35.8597C121.448 34.4664 118.024 30.2842 117.739 24.8486C117.428 18.9419 119.69 14.2219 124.448 10.7308C126.448 9.26638 128.781 8.57305 131.217 8.25527C134.58 7.78002 138.005 7.98404 141.288 8.85527C141.897 9.02194 142.481 9.27083 143.088 9.44638C143.406 9.53972 143.415 9.68416 143.31 9.96194C142.801 11.4486 142.297 12.9353 141.824 14.4331C141.71 14.7908 141.575 14.7775 141.284 14.6664C138.955 13.7775 136.572 13.2953 134.059 13.5553C129.79 14.013 126.541 16.8353 125.721 20.9886C125.13 23.9864 125.673 26.7286 128.061 28.8508C129.966 30.5397 132.284 31.0108 134.752 30.8664C136.494 30.7517 138.215 30.4233 139.877 29.8886C139.977 29.8708 140.066 29.7886 140.221 29.8708Z" fill="#114185"/>
<path d="M55.5647 23.7557L27.8825 -3.92651V0.322381L51.3158 23.7557L51.3247 23.7646L31.0269 44.0624L31.0025 44.0379L10.718 23.7557L10.7003 23.7379L20.658 13.7802H16.3358L6.36914 23.7468L6.37803 23.7557L30.9936 48.3713L31.0025 48.3624L55.5869 23.7779L55.5647 23.7557Z" fill="#FE6309"/>
<path d="M27.8728 3.24634V7.49523L44.1417 23.7641L31.035 36.8708L17.9172 23.7552L17.8995 23.7375L27.8572 13.7797H23.535L13.5684 23.7463L13.5772 23.7552L28.8639 39.0419L31.0017 41.1797L33.175 39.0086L48.4039 23.7775L27.8728 3.24634Z" fill="#FE6309"/>
<path d="M41.2282 23.7559L33.1105 15.6292L30.9505 13.4692L28.826 15.5937L20.666 23.747L28.8305 31.9115L30.9682 34.0492L33.1371 31.8781L41.2505 23.7781L41.2282 23.7559ZM31.006 29.7559L25.006 23.7559L24.9882 23.7381L30.9727 17.7537L36.9727 23.7537L31.006 29.7559Z" fill="#FE6309"/>
</g>
<defs>
<clipPath id="clip0_1432_3107">
<rect width="222.222" height="50" fill="white"/>
</clipPath>
</defs>
</svg>
