<svg width="77" height="76" viewBox="0 0 77 76" fill="none" xmlns="http://www.w3.org/2000/svg">
<path d="M10.8181 69.7596H7.8746L7.9126 68.3452V59.508C7.90834 59.1109 7.88297 58.7144 7.8366 58.3201C7.81761 58.1319 7.77602 57.9466 7.71272 57.7683C7.6365 57.6191 7.54804 57.4765 7.44824 57.342L7.60024 56.9369H10.8591L14.4509 56.8799C14.6766 57.2157 14.8126 57.6037 14.8461 58.007C14.8892 58.4167 14.8388 58.8309 14.6986 59.2184H14.251C14.1932 58.9418 13.9804 58.7062 13.6126 58.5116C13.2509 58.3184 12.8504 58.2088 12.4407 58.1909L10.7254 58.1149C10.6423 59.5984 10.601 61.0723 10.6015 62.5366H13.0403C13.2369 62.5366 13.3889 62.5335 13.4963 62.5274C13.632 62.5144 13.7653 62.4827 13.8923 62.4332C14.0403 62.381 14.1751 62.2973 14.2875 62.1877C14.3294 62.4052 14.3516 62.626 14.3536 62.8474C14.3536 63.6459 13.7598 64.0452 12.5722 64.0452C12.3305 64.0452 11.9875 64.0388 11.5431 64.0262C11.0988 64.0135 10.7781 64.0072 10.581 64.0072C10.5749 64.8432 10.5845 65.761 10.6098 66.7606L10.638 68.2692L10.6858 68.8727C10.6955 69.1724 10.7398 69.4701 10.8181 69.7596Z" fill="#11237D"/>
<path d="M19.5287 65.5546C19.5287 67.3523 19.5986 68.754 19.7385 69.7597H17.0025L17.1074 63.1789C17.1114 62.8194 17.0762 62.4606 17.0025 62.1088C16.9574 61.8673 16.877 61.6337 16.7638 61.4157C16.6849 61.2772 16.5852 61.1516 16.4682 61.0433C16.397 60.9707 16.3133 60.9115 16.2212 60.8685C16.1843 60.8543 16.1457 60.8449 16.1064 60.8403V60.4915C16.8507 60.0385 17.5532 59.8121 18.2139 59.8121C19.1543 59.8121 19.6242 60.4249 19.6237 61.6505C19.6237 61.839 19.608 62.1579 19.5766 62.6073C19.5447 63.0573 19.5287 63.4069 19.5287 63.6584V65.5546ZM16.7752 57.3421C16.7721 57.1634 16.8063 56.986 16.8755 56.8213C16.9447 56.6566 17.0475 56.508 17.1773 56.3852C17.3032 56.2586 17.4534 56.1587 17.6189 56.0914C17.7843 56.0242 17.9616 55.991 18.1402 55.9938C18.3121 55.9921 18.4824 56.026 18.6406 56.0934C18.7987 56.1608 18.9412 56.2601 19.059 56.3852C19.1848 56.5102 19.2839 56.6595 19.3503 56.824C19.4167 56.9885 19.4489 57.1647 19.4451 57.3421C19.4475 57.5125 19.4144 57.6816 19.3479 57.8386C19.2814 57.9956 19.1831 58.1371 19.059 58.2541C18.9394 58.3761 18.7963 58.4726 18.6384 58.5379C18.4805 58.6032 18.3111 58.6359 18.1402 58.6341C17.7815 58.6401 17.4352 58.5034 17.1773 58.2541C17.0494 58.1393 16.9474 57.9986 16.8781 57.8414C16.8087 57.6841 16.7737 57.5139 16.7752 57.3421Z" fill="#11237D"/>
<path d="M31.8199 69.008V69.432C31.0513 69.8212 30.3369 70.016 29.6767 70.0165C29.3433 70.0083 29.018 69.9124 28.7335 69.7383C28.416 69.5604 28.165 69.2841 28.0184 68.951C27.1743 69.6603 26.2977 70.015 25.3888 70.015C24.886 70.0181 24.387 69.9287 23.9166 69.7512C23.4467 69.5692 23.0163 69.2983 22.649 68.9532C22.2644 68.5986 21.9604 68.1147 21.737 67.5016C21.5135 66.8886 21.4023 66.1792 21.4033 65.3736C21.4043 64.8397 21.4698 64.3079 21.5986 63.7898C21.7315 63.2579 21.9361 62.7466 22.2066 62.2698C22.4699 61.7944 22.7978 61.3578 23.181 60.9725C23.5744 60.5848 24.0406 60.2788 24.5528 60.0719C25.102 59.8456 25.6908 59.7314 26.2848 59.736C26.5957 59.7421 26.9052 59.7787 27.209 59.8454C27.5636 59.9173 27.741 59.966 27.741 59.9913C27.741 59.5951 27.7377 59.229 27.7311 58.8931C27.7245 58.5572 27.7151 58.2507 27.703 57.9735C27.6931 57.7254 27.6659 57.4783 27.6216 57.234C27.5871 57.0398 27.5312 56.8499 27.4552 56.6678C27.3899 56.5122 27.2912 56.3728 27.166 56.2596C27.0409 56.1464 26.8923 56.0621 26.7309 56.0127V55.6639L26.9977 55.5225C27.2369 55.3976 27.4893 55.2994 27.7501 55.2299C28.0532 55.1388 28.3677 55.0912 28.6841 55.0886C28.9215 55.0833 29.1586 55.1089 29.3894 55.1646C29.5782 55.2182 29.7502 55.3189 29.8895 55.4572C30.0554 55.6331 30.1691 55.8518 30.2178 56.0887C30.296 56.4376 30.332 56.7945 30.325 57.152V57.3974C30.325 57.5109 30.3093 57.9383 30.2778 58.6796C30.2464 59.4208 30.2127 60.3303 30.1768 61.408C30.1418 62.4831 30.1243 63.4858 30.1243 64.416C30.1243 64.9506 30.1274 65.3888 30.1334 65.7308C30.1395 66.0728 30.1524 66.4156 30.1722 66.7591C30.1839 67.0288 30.2093 67.2976 30.2482 67.5647C30.2802 67.7611 30.3264 67.9549 30.3865 68.1446C30.4264 68.2965 30.4959 68.4391 30.591 68.5641C30.6776 68.6611 30.7789 68.7439 30.8912 68.8096C31.0154 68.8854 31.1528 68.937 31.2962 68.9616C31.4696 68.9887 31.6445 69.0042 31.8199 69.008ZM26.3988 68.6211C26.9136 68.6211 27.3359 68.5048 27.6657 68.2723L27.6855 66.0561V61.2453C26.9863 61.0756 26.4654 60.9907 26.1229 60.9907C25.7407 60.9845 25.3688 61.115 25.0741 61.3586C24.7685 61.6145 24.535 61.9459 24.397 62.32C24.2469 62.7055 24.1354 63.1049 24.0641 63.5124C23.9945 63.9109 23.9594 64.3147 23.9592 64.7193C23.9592 65.9449 24.1847 66.9017 24.6356 67.5898C25.0865 68.2779 25.6743 68.6209 26.3988 68.6188V68.6211Z" fill="#11237D"/>
<path d="M40.3768 64.3757L40.2042 64.4479C39.8805 64.5741 39.4422 64.6372 38.8894 64.6372L34.5643 64.5802C34.5764 64.7246 34.5833 64.964 34.5833 65.2968C34.6081 66.2332 34.8924 66.9678 35.436 67.5008C35.9797 68.0339 36.5846 68.3011 37.2509 68.3026C37.8513 68.2975 38.4436 68.164 38.9882 67.9113C39.576 67.6473 40.092 67.1885 40.5364 66.5349C40.6443 66.9188 40.6443 67.3251 40.5364 67.7091C40.4326 68.0756 40.2375 68.4098 39.9694 68.6804C39.6818 68.9669 39.3526 69.2082 38.9928 69.3963C38.6021 69.6045 38.1856 69.7599 37.754 69.8584C37.3137 69.9606 36.8631 70.0116 36.4111 70.0104C35.8612 70.0151 35.3147 69.9241 34.7961 69.7413C34.2962 69.5615 33.8358 69.2867 33.4402 68.9319C33.0349 68.5712 32.7127 68.0858 32.4735 67.4758C32.2344 66.8657 32.112 66.1648 32.1064 65.3728C32.1064 64.3362 32.2858 63.3966 32.6445 62.554C33.0032 61.7114 33.5218 61.0441 34.2002 60.5522C34.8721 60.0605 35.6857 59.8007 36.5182 59.8119C36.9835 59.8059 37.4472 59.8678 37.8946 59.9958C38.2538 60.0947 38.5948 60.2504 38.9046 60.4572C39.1696 60.6449 39.4009 60.8762 39.5886 61.1412C39.7631 61.377 39.91 61.632 40.0264 61.9012C40.1301 62.1579 40.2065 62.4249 40.2544 62.6976C40.2997 62.9284 40.3332 63.1612 40.3547 63.3953C40.3676 63.5686 40.3737 63.7457 40.3737 63.9273L40.3768 64.3757ZM36.3944 60.9907C36.1465 60.9869 35.9035 61.0593 35.6982 61.1982C35.4792 61.3551 35.3026 61.564 35.1844 61.8062C35.044 62.074 34.9275 62.3538 34.8364 62.6422C34.7327 62.9811 34.6484 63.3257 34.584 63.6742C34.959 63.6682 35.5242 63.6494 36.2796 63.618C37.035 63.5866 37.6195 63.5676 38.0329 63.561C38.027 63.2581 37.9919 62.9565 37.928 62.6604C37.8666 62.375 37.7706 62.0981 37.6423 61.8358C37.5252 61.5901 37.3483 61.3776 37.1278 61.2179C36.9136 61.0662 36.6568 60.9866 36.3944 60.9907Z" fill="#11237D"/>
<path d="M45.3612 69.7597H42.6252C42.6632 67.7837 42.6822 65.9546 42.6822 64.2725L42.7301 58.21C42.7301 57.5746 42.627 57.0679 42.4208 56.69C42.2145 56.312 41.9848 56.086 41.7314 56.012V55.6632L41.9982 55.5218C42.2443 55.3973 42.5029 55.2993 42.7696 55.2292C43.0792 55.1381 43.3999 55.0905 43.7226 55.0879C44.3306 55.0879 44.7499 55.2452 44.9804 55.5598C45.211 55.8745 45.3252 56.3584 45.3232 57.0115C45.3232 57.4077 45.3042 57.8604 45.2662 58.3696C45.1851 59.7467 45.1446 61.4377 45.1446 63.4426V65.9035C45.1446 66.6072 45.1606 67.2892 45.1925 67.9494C45.2181 68.5553 45.2744 69.1595 45.3612 69.7597Z" fill="#11237D"/>
<path d="M50.5846 65.5546C50.5846 67.3523 50.6545 68.754 50.7944 69.7597H48.0584L48.164 63.1789C48.1681 62.8194 48.1327 62.4605 48.0584 62.1088C48.0138 61.8672 47.9337 61.6336 47.8205 61.4157C47.7415 61.2772 47.6418 61.1516 47.5248 61.0433C47.4535 60.9705 47.3696 60.9112 47.2771 60.8685C47.2405 60.8542 47.2021 60.8448 47.1631 60.8403V60.4915C47.9069 60.0385 48.6091 59.8121 49.2698 59.8121C50.2102 59.8121 50.6801 60.4249 50.6796 61.6505C50.6796 61.839 50.6639 62.1579 50.6325 62.6073C50.6006 63.0573 50.5846 63.4069 50.5846 63.6584V65.5546ZM47.8311 57.3421C47.8277 57.1636 47.8615 56.9863 47.9303 56.8216C47.9992 56.6568 48.1015 56.5082 48.2309 56.3852C48.3567 56.2587 48.5068 56.1588 48.6721 56.0915C48.8374 56.0243 49.0146 55.991 49.193 55.9938C49.365 55.9921 49.5355 56.026 49.6938 56.0934C49.852 56.1607 49.9946 56.2601 50.1126 56.3852C50.2384 56.5102 50.3375 56.6595 50.4039 56.824C50.4703 56.9885 50.5025 57.1647 50.4987 57.3421C50.5011 57.5125 50.468 57.6816 50.4015 57.8386C50.335 57.9956 50.2367 58.1371 50.1126 58.2541C49.9929 58.3761 49.8497 58.4726 49.6916 58.5379C49.5336 58.6032 49.364 58.6359 49.193 58.6341C48.8346 58.6399 48.4885 58.5033 48.2309 58.2541C48.1034 58.1391 48.0018 57.9983 47.9329 57.8411C47.864 57.6838 47.8293 57.5137 47.8311 57.3421Z" fill="#11237D"/>
<path d="M56.5111 58.4075L56.2914 60.0103H58.1154C58.3221 60.0085 58.5279 59.9848 58.7295 59.9396C58.9494 59.8925 59.0877 59.8125 59.1445 59.6995C59.1849 59.8501 59.2041 60.0056 59.2015 60.1615C59.2015 60.9342 58.6426 61.3208 57.5249 61.3213C57.4236 61.3213 57.2123 61.3117 56.8911 61.2924C56.5699 61.2732 56.3523 61.2638 56.2383 61.2643V65.6107C56.2322 65.7931 56.2322 65.9854 56.2383 66.1861C56.2443 66.3867 56.2527 66.5866 56.2618 66.7849C56.2706 66.9766 56.3027 67.1665 56.3576 67.3504C56.4055 67.5157 56.4742 67.6743 56.562 67.8223C56.6492 67.9613 56.7727 68.0738 56.9192 68.1476C57.0892 68.2323 57.2773 68.2743 57.4672 68.27C57.8844 68.2664 58.2988 68.2011 58.6968 68.0762C59.1217 67.9477 59.3892 67.7767 59.4971 67.5624C59.579 67.7529 59.6123 67.9608 59.594 68.1673C59.5757 68.3739 59.5064 68.5726 59.3923 68.7457C59.1577 69.1323 58.7908 69.4404 58.2918 69.6699C57.788 69.9006 57.2399 70.0181 56.6859 70.0142C56.0895 70.0142 55.5958 69.945 55.2046 69.8067C54.8474 69.6928 54.5356 69.4685 54.3139 69.166C54.1087 68.8729 53.9659 68.5408 53.8944 68.1902C53.8111 67.7473 53.7729 67.2971 53.7804 66.8465C53.7804 66.3687 53.8121 65.6594 53.8754 64.7185C53.9387 63.7776 53.9704 63.0893 53.9704 62.6536C53.9704 61.9118 53.9134 61.4688 53.7994 61.3244C53.5468 61.0022 53.2074 60.7588 52.8213 60.6229L52.9163 60.0483C52.9936 60.045 53.0701 60.0322 53.1443 60.0103C53.2962 59.9637 53.4443 59.9055 53.5874 59.8363C53.8373 59.7079 54.063 59.5371 54.2546 59.3316C54.5245 59.0544 54.758 58.7438 54.9493 58.4075H56.5111Z" fill="#11237D"/>
<path d="M65.5965 69.7407L65.3685 69.6464C65.1769 69.5636 65.0038 69.4435 64.8593 69.293C64.6785 69.1246 64.5453 68.9115 64.4732 68.6751L62.767 63.308C62.6579 62.9427 62.5194 62.5869 62.3528 62.244C62.2318 61.988 62.0881 61.7433 61.9234 61.5129C61.8084 61.3569 61.6794 61.2116 61.5381 61.0789C61.4494 60.9947 61.3536 60.9184 61.2515 60.8509C61.2075 60.8223 61.1597 60.8001 61.1094 60.7848L61.0897 60.436C61.3535 60.2545 61.6403 60.1089 61.9424 60.0028C62.2447 59.8833 62.5659 59.8188 62.8909 59.812C63.4376 59.812 63.8376 59.9407 64.0909 60.1981C64.3442 60.4555 64.5469 60.8671 64.6989 61.4331C64.8256 62.1627 65.3338 63.7587 66.2235 66.2211L66.4568 66.6969C66.5997 66.9892 66.6774 67.1544 66.6901 67.1924L66.7851 66.7964C66.8359 66.5687 66.903 66.345 66.9857 66.1269L68.2147 62.6476C68.3925 62.1515 68.4814 61.7462 68.4814 61.4316C68.4814 61.1169 68.3735 60.9001 68.1577 60.781L68.1189 60.4322C68.5589 60.0543 69.1134 59.8359 69.6929 59.812C70.1489 59.812 70.3769 60.0509 70.3769 60.5287C70.3769 60.8616 70.2147 61.4273 69.8905 62.2258L66.0061 71.6923C65.8663 72.0318 65.7487 72.3069 65.6535 72.5177C65.5582 72.7285 65.4353 72.9772 65.2849 73.264C65.1599 73.5102 65.005 73.7399 64.8235 73.948C64.6539 74.1312 64.4707 74.3014 64.2756 74.4572C64.0677 74.6262 63.8278 74.7513 63.5703 74.825C63.2902 74.9024 63.0006 74.9398 62.71 74.936C62.1253 74.936 61.6662 74.7161 61.3329 74.2763C60.9995 73.8365 60.8981 73.2896 61.0289 72.6355C61.156 72.7926 61.361 72.9215 61.6437 73.0223C61.9171 73.1216 62.2056 73.173 62.4964 73.1743C62.9788 73.1743 63.3899 73.0849 63.7299 72.906C64.0538 72.7437 64.3091 72.4709 64.4496 72.1369L65.3616 70.148L65.5965 69.7407Z" fill="#11237D"/>
<path d="M59.5514 1.19849C59.0655 1.10878 58.5725 1.06375 58.0785 1.06397H12.0316C11.922 1.06417 11.817 1.10779 11.7395 1.18528C11.662 1.26277 11.6184 1.36782 11.6182 1.47741V40.0907C11.6175 41.9238 12.2377 43.7031 13.3776 45.1386C26.67 39.9934 50.0346 22.0225 60.5736 1.45385C60.2388 1.34629 59.8974 1.26098 59.5514 1.19849Z" fill="#11237D"/>
<path d="M66.2091 9.19605V47.8078C66.2089 47.9174 66.1652 48.0225 66.0877 48.1C66.0102 48.1775 65.9052 48.2211 65.7956 48.2213H19.7487C18.5262 48.2224 17.3193 47.9475 16.2178 47.4172C29.7564 41.9976 53.1956 23.7713 63.4282 3.07349C64.303 3.83544 65.004 4.77638 65.4838 5.83265C65.9636 6.88893 66.2109 8.03592 66.2091 9.19605Z" fill="#4DC247"/>
</svg>
