<svg width="78" height="78" viewBox="0 0 78 78" fill="none" xmlns="http://www.w3.org/2000/svg">
<g clip-path="url(#clip0_1432_3153)">
<path d="M0 78H78V0H0V78Z" fill="#DE4A09"/>
<path d="M16.987 56.5232C16.5965 56.6208 14.4488 57.2065 12.594 57.2065C10.2511 57.2065 7.81055 56.5232 7.81055 50.8611C7.81055 45.2966 11.0321 44.3204 13.4726 44.3204C15.2298 44.3204 16.5965 45.0038 16.5965 45.0038V46.6634C16.5965 46.6634 15.0346 46.0776 13.4726 46.0776C11.9107 46.0776 10.0559 46.761 10.0559 50.7635C10.0559 54.8636 11.5202 55.4493 12.7893 55.4493C13.6679 55.4493 14.8393 55.1565 14.8393 55.1565V50.9587H12.8869L12.6916 49.3968H16.987V56.5232ZM18.3537 44.3204H27.5302L27.2373 46.2729H24.211V57.1089H21.7705V46.3705H18.2561V44.3204H18.3537ZM29.4826 44.4181L33.778 44.3204C39.1472 44.3204 39.0496 50.0801 35.9257 50.373C39.3425 50.8611 39.1472 55.9375 35.9257 57.1089H29.5803V44.4181H29.4826ZM31.8256 46.3705V49.6896H34.0709C35.34 49.592 36.0233 46.761 34.1685 46.3705H31.8256ZM31.8256 51.4468V55.1565H34.0709C36.609 55.1565 36.0233 51.5445 34.1685 51.4468H31.8256ZM40.7092 47.9324C43.9307 46.4681 47.6403 46.761 48.2261 49.2015V57.1089H45.9808V55.8398C44.0283 57.9875 39.3425 57.597 39.9282 53.204C40.3187 51.154 42.4664 50.5682 45.7855 50.8611C46.0784 48.0301 42.4664 49.3968 40.7092 49.8849V47.9324ZM42.564 52.9112C41.0997 55.3517 44.0283 56.1327 45.7855 54.2779V52.6183C44.7117 52.2278 43.0521 52.2278 42.564 52.9112ZM52.9119 50.2754V57.2065H50.3738V47.1515H52.7167V48.3229C56.2311 46.2729 59.0621 46.8586 59.5502 49.7873V57.1089H57.0121V50.1778C56.5239 48.4206 53.4977 49.592 52.9119 50.2754ZM61.405 57.2065V44.3204H63.8456V57.1089H61.405V57.2065ZM67.2624 47.1515H70.191L66.7743 51.6421L70.4839 57.2065H67.7505L64.1385 51.5445L67.2624 47.1515ZM44.5164 30.6533H64.0408V11.2266H44.5164V30.6533Z" fill="#FEFEFE"/>
</g>
<defs>
<clipPath id="clip0_1432_3153">
<rect width="78" height="78" fill="white"/>
</clipPath>
</defs>
</svg>
