<svg width="193" height="48" viewBox="0 0 193 48" fill="none" xmlns="http://www.w3.org/2000/svg">
<path d="M8.52618 13.9659C11.1412 15.7687 13.4779 17.1127 16.8667 18.2302L19.6603 1.84106L10.1063 1.91979L8.52618 13.9659ZM6.76746 24.0958L3.19434 46.3985H12.4545L15.1175 29.587C11.8286 28.0414 9.8241 27.4788 6.76746 24.0958Z" fill="#68AC48"/>
<path d="M36.6132 2.18506L33.8369 19.8395L43.2737 18.5646L45.2379 5.54314L45.2398 5.53162L45.3339 4.90762H45.3396L45.7812 2.18506H36.6132Z" fill="url(#paint0_linear_1432_3120)"/>
<path d="M54.5927 2.18506H48.3949L47.9072 4.93066L54.1376 4.9921C54.7136 4.9537 60.0896 5.71402 59.4963 11.8523C59.3946 12.9083 58.1427 17.3934 57.5552 18.0654C60.5696 18.6299 62.7258 19.0254 64.7111 20.2139C67.0899 18.4609 68.9581 15.5636 69.4093 12.4878C70.8416 2.97034 62.6413 2.18506 54.5927 2.18506Z" fill="url(#paint1_linear_1432_3120)"/>
<path d="M58.1692 28.9922C58.7087 32.0104 59.0236 34.0629 57.5144 37.7916C56.0629 41.3723 51.4223 43.8242 49.1797 43.6917L41.6034 43.6725L41.2002 45.9131H49.7922C61.2623 46.6562 65.4652 42.4955 68.3221 35.5202C67.2028 33.3487 66.3541 30.2363 58.1692 28.9922Z" fill="url(#paint2_linear_1432_3120)"/>
<path d="M31.9784 31.3288L29.7666 45.9112H38.9941L39.4549 42.9621L39.4972 42.6894L41.3768 30.1921L31.9784 31.3288Z" fill="url(#paint3_linear_1432_3120)"/>
<path d="M2.56543 12.9409C2.56543 12.9409 14.0067 21.9937 26.6173 21.9937C39.2278 21.9937 40.9981 19.5092 52.4029 19.5092C64.1034 19.5092 69.9862 22.9403 68.9398 32.9492C68.9398 32.9492 67.0198 26.6747 54.8547 26.6747C42.6896 26.6747 40.3107 29.7064 28.3837 29.7064C16.4566 29.7064 6.35551 25.1636 2.56543 12.9409Z" fill="url(#paint4_linear_1432_3120)"/>
<path d="M87.573 1.15161H90.8697L89.8233 8.52825H98.4863L99.5289 1.15161H102.826L100.214 19.6662H96.9138L98.0658 11.5023H89.4047L88.2527 19.6662H84.958L87.573 1.15161Z" fill="#68AC48"/>
<path d="M107.303 14.4863C107.251 16.3429 108.507 17.468 110.26 17.468C111.828 17.468 112.948 16.7365 113.869 15.7688L115.883 17.4719C114.155 19.2767 112.195 19.9832 110.206 19.9832C106.412 19.9832 103.77 17.3413 104.319 13.3899C104.868 9.43858 108.271 6.79858 112.065 6.79858C115.571 6.79858 117.61 9.2581 116.982 13.6261L116.878 14.4901L107.303 14.4863ZM114.052 12.1304C114.288 10.3007 113.268 9.14866 111.306 9.14866C109.448 9.14866 108.113 10.3256 107.616 12.1304H114.052Z" fill="#68AC48"/>
<path d="M120.828 7.1037H123.967L123.706 9.09282H123.758C124.174 8.39352 124.764 7.81382 125.471 7.41008C126.177 7.00635 126.976 6.79232 127.79 6.78882C128.163 6.79446 128.533 6.85594 128.888 6.97122L128.47 10.0067C127.985 9.86451 127.485 9.78514 126.98 9.77058C124.023 9.77058 123.265 12.257 123.159 12.9367L122.218 19.6567H119.075L120.828 7.1037Z" fill="#68AC48"/>
<path d="M131.059 7.10372H134.2L132.447 19.6624H129.306L131.059 7.10372ZM133.464 0.959717C134.616 0.959717 135.402 1.77188 135.244 2.84324C135.087 3.9146 134.092 4.72676 132.94 4.72676C131.788 4.72676 131.082 3.8378 131.212 2.84324C131.31 2.31637 131.588 1.84007 131.999 1.49629C132.41 1.15252 132.929 0.962776 133.464 0.959717Z" fill="#68AC48"/>
<path d="M135.972 9.77648L136.338 7.10767H138.928L139.453 3.47119H142.592L142.068 7.10383H145.524L145.157 9.77263H141.701L140.933 15.2677C140.751 16.5234 141.012 17.3067 142.398 17.3067C142.949 17.3067 143.707 17.203 144.151 16.9227L143.796 19.5608C143.089 19.8757 141.964 19.9794 141.231 19.9794C137.909 19.9794 137.333 18.4894 137.752 15.5326L138.562 9.77263L135.972 9.77648Z" fill="#68AC48"/>
<path d="M154.313 17.9381H154.236C153.163 19.3512 151.593 19.9791 149.918 19.9791C147.591 19.9791 145.523 18.6984 145.886 16.212C146.435 12.1301 151.249 11.844 154.388 11.844H155.173L155.225 11.5023C155.434 9.96627 154.363 9.14835 152.689 9.14835C151.389 9.1717 150.135 9.63232 149.129 10.4559L147.718 8.80851C149.314 7.39539 151.354 6.79443 153.342 6.79443C158.706 6.79443 158.155 10.6652 157.921 12.445L156.899 19.6661H154.079L154.313 17.9381ZM154.68 14.0405H154.025C152.297 14.0405 149.317 14.1711 149.056 15.9759C148.899 17.1279 149.997 17.6251 151.017 17.6251C153.163 17.6251 154.34 16.5 154.576 14.7451L154.68 14.0405Z" fill="#68AC48"/>
<path d="M174.957 7.10376L173.366 18.5412C172.738 23.0666 170.123 25.9447 165.231 25.9447C162.902 25.9447 160.861 25.4474 159.292 23.8788L161.535 21.3118C162.635 22.4638 163.839 23.1166 165.59 23.1166C168.625 23.1166 169.829 21.3886 170.169 18.906L170.299 17.9902H170.248C169.149 19.219 167.448 19.8218 165.878 19.8218C162.111 19.8218 160.045 16.9418 160.542 13.3841C161.064 9.6708 163.785 6.79272 167.657 6.79272C169.41 6.79272 170.954 7.47241 171.661 8.98921H171.712L171.974 7.10569L174.957 7.10376ZM163.681 13.3572C163.393 15.3444 164.728 16.9937 166.845 16.9937C169.174 16.9937 170.824 15.3982 171.112 13.3054C171.424 11.1338 170.196 9.61512 167.919 9.61512C165.722 9.61896 163.994 11.1358 163.681 13.361V13.3572Z" fill="#68AC48"/>
<path d="M180.006 14.4863C179.952 16.3429 181.208 17.4719 182.965 17.4719C184.535 17.4719 185.653 16.7403 186.576 15.7727L188.587 17.4719C186.859 19.2767 184.898 19.9832 182.909 19.9832C179.115 19.9832 176.473 17.3413 177.022 13.3899C177.572 9.43858 180.974 6.79858 184.768 6.79858C188.274 6.79858 190.313 9.2581 189.685 13.6261L189.581 14.4901L180.006 14.4863ZM186.755 12.1304C186.991 10.3007 185.97 9.14866 184.007 9.14866C182.151 9.14866 180.816 10.3256 180.319 12.1304H186.755Z" fill="#68AC48"/>
<path d="M87.573 28.2026H94.7942C97.5935 28.2026 100.289 29.4852 99.7862 32.8606C99.4982 34.9534 98.0063 36.3396 96.0191 36.9156L95.9922 36.9674C98.2962 37.2285 99.7074 39.0602 99.3676 41.441C98.8185 45.473 95.1282 46.7249 91.6223 46.7249H84.958L87.573 28.2026ZM88.6463 43.9006H91.6818C93.381 43.9006 95.7887 43.6126 96.1286 41.1799C96.3897 39.2426 95.2396 38.5629 92.5708 38.5629H89.4047L88.6463 43.9006ZM89.7983 35.7367H92.807C95.0054 35.7367 96.2361 34.7959 96.4434 33.4097C96.6527 31.8142 95.6601 31.0289 93.1794 31.0289H90.4511L89.7983 35.7367Z" fill="#68AC48"/>
<path d="M109.708 44.9986H109.623C108.552 46.4117 106.981 47.0396 105.307 47.0396C102.978 47.0396 100.912 45.757 101.275 43.2725C101.824 39.1906 106.638 38.9026 109.777 38.9026H110.562L110.614 38.5628C110.823 37.0268 109.752 36.2089 108.076 36.2089C106.776 36.2316 105.523 36.6923 104.518 37.5164L103.105 35.869C104.702 34.4559 106.743 33.853 108.73 33.853C114.095 33.853 113.544 37.7257 113.31 39.5055L112.288 46.7247H109.473L109.708 44.9986ZM110.074 41.101H109.42C107.692 41.101 104.712 41.2316 104.451 43.0364C104.293 44.1884 105.391 44.6857 106.411 44.6857C108.558 44.6857 109.735 43.5605 109.971 41.8057L110.074 41.101Z" fill="#68AC48"/>
<path d="M117.424 34.1757H120.408L120.144 36.1898H120.198C120.93 34.9341 122.264 33.8608 124.357 33.8608C127.732 33.8608 128.596 36.2416 128.255 38.8068L127.129 46.7325H123.99L124.881 40.3754C125.09 38.9892 125.3 36.6871 123.101 36.6871C121.035 36.6871 120.014 38.2039 119.78 39.8781L118.82 46.7325H115.671L117.424 34.1757Z" fill="#68AC48"/>
<path d="M133.461 26.9468H136.6L134.847 39.3749L140.415 34.1679H144.447L138.272 39.8703L143.034 46.7247H138.877L134.772 40.3196H134.72L133.832 46.7285H130.688L133.461 26.9468Z" fill="#68AC48"/>
<defs>
<linearGradient id="paint0_linear_1432_3120" x1="37.9764" y1="8.59786" x2="47.1156" y2="20.6459" gradientUnits="userSpaceOnUse">
<stop offset="0.76" stop-color="#68AC48"/>
<stop offset="0.78" stop-color="#6EAF4F"/>
<stop offset="0.81" stop-color="#7FB863"/>
<stop offset="0.84" stop-color="#9CC784"/>
<stop offset="0.88" stop-color="#C3DBB1"/>
<stop offset="0.89" stop-color="#CFE1BF"/>
<stop offset="0.91" stop-color="#A4C6A2"/>
<stop offset="0.93" stop-color="#4E9066"/>
<stop offset="0.95" stop-color="#176D41"/>
<stop offset="0.96" stop-color="#026032"/>
</linearGradient>
<linearGradient id="paint1_linear_1432_3120" x1="57.9699" y1="5.48362" x2="70.9357" y2="22.5755" gradientUnits="userSpaceOnUse">
<stop offset="0.76" stop-color="#68AC48"/>
<stop offset="0.78" stop-color="#6EAF4F"/>
<stop offset="0.81" stop-color="#7FB863"/>
<stop offset="0.84" stop-color="#9CC784"/>
<stop offset="0.88" stop-color="#C3DBB1"/>
<stop offset="0.89" stop-color="#CFE1BF"/>
<stop offset="0.91" stop-color="#A4C6A2"/>
<stop offset="0.93" stop-color="#4E9066"/>
<stop offset="0.95" stop-color="#176D41"/>
<stop offset="0.96" stop-color="#026032"/>
</linearGradient>
<linearGradient id="paint2_linear_1432_3120" x1="51.1631" y1="50.9839" x2="58.4476" y2="29.1304" gradientUnits="userSpaceOnUse">
<stop offset="0.22" stop-color="#68AC48"/>
<stop offset="0.33" stop-color="#63A847"/>
<stop offset="0.46" stop-color="#559E44"/>
<stop offset="0.59" stop-color="#3E8C3F"/>
<stop offset="0.73" stop-color="#1D7438"/>
<stop offset="0.83" stop-color="#026032"/>
</linearGradient>
<linearGradient id="paint3_linear_1432_3120" x1="34.3516" y1="36.4437" x2="42.8399" y2="47.6334" gradientUnits="userSpaceOnUse">
<stop offset="0.76" stop-color="#68AC48"/>
<stop offset="0.78" stop-color="#6EAF4F"/>
<stop offset="0.81" stop-color="#7FB863"/>
<stop offset="0.84" stop-color="#9CC784"/>
<stop offset="0.88" stop-color="#C3DBB1"/>
<stop offset="0.89" stop-color="#CFE1BF"/>
<stop offset="0.91" stop-color="#A4C6A2"/>
<stop offset="0.93" stop-color="#4E9066"/>
<stop offset="0.95" stop-color="#176D41"/>
<stop offset="0.96" stop-color="#026032"/>
</linearGradient>
<linearGradient id="paint4_linear_1432_3120" x1="2.56543" y1="22.9403" x2="69.0589" y2="22.9403" gradientUnits="userSpaceOnUse">
<stop offset="0.76" stop-color="#68AC48"/>
<stop offset="0.78" stop-color="#6EAF4F"/>
<stop offset="0.81" stop-color="#7FB863"/>
<stop offset="0.84" stop-color="#9CC784"/>
<stop offset="0.88" stop-color="#C3DBB1"/>
<stop offset="0.89" stop-color="#CFE1BF"/>
<stop offset="0.91" stop-color="#A4C6A2"/>
<stop offset="0.93" stop-color="#4E9066"/>
<stop offset="0.95" stop-color="#176D41"/>
<stop offset="0.96" stop-color="#026032"/>
</linearGradient>
</defs>
</svg>
