<svg width="119" height="65" viewBox="0 0 119 65" fill="none" xmlns="http://www.w3.org/2000/svg">
<g clip-path="url(#clip0_1432_3526)">
<path d="M103.252 13.2073H97.7627V18.6961H103.252V13.2073Z" fill="#1A5035"/>
<path d="M96.0769 11.6784H104.94V20.2355H96.0769V11.6784ZM96.0769 23.6393H108.261V11.6784H115.425V28.5145H96.0769V23.6393ZM85.5896 3.39736H104.94V8.28107H92.7538V20.2355H85.5896V3.39736ZM82.2666 0V23.6308H92.7538V31.9118H118.746V8.28107H108.261V0H82.2666Z" fill="#C69328"/>
<path d="M59.8058 55.9057C62.6808 50.5676 65.0398 45.9004 66.9147 41.9425C68.3459 38.9252 69.9002 35.4366 71.5394 31.4723C68.7861 31.4723 66.6352 31.6237 65.0865 31.9267C63.5379 32.2296 62.3085 32.7498 61.3983 33.4873L61.9525 30.5146L62.5215 27.542H79.0837C76.5356 32.9947 74.338 37.6916 72.5629 41.6728L67.9637 51.9817H68.2333C71.119 51.9817 73.3931 51.8118 75.0408 51.4742C76.546 51.1986 77.9724 50.5963 79.2196 49.7097L78.4339 52.8098L77.6249 55.9184H59.7888L59.8058 55.9057ZM50.1997 47.6097V35.84C50.2103 34.4604 50.1238 33.0818 49.9407 31.7143C49.7237 30.3011 49.4079 28.9047 48.9958 27.5356H57.0942C56.6112 28.5405 56.2902 29.6154 56.143 30.7206C55.9315 32.4199 55.8393 34.132 55.867 35.8442V47.614C55.8387 49.329 55.9309 51.044 56.143 52.7461C56.2916 53.8463 56.6126 54.9161 57.0942 55.9163H48.9958C49.4856 54.9318 49.8051 53.8714 49.9407 52.7801C50.1406 51.0656 50.2272 49.3398 50.1997 47.614M37.6911 51.5974V43.7941H30.374C30.2063 43.7941 29.9769 44.3207 29.7073 45.3717C29.4649 46.2373 29.3301 47.1295 29.306 48.028C29.306 49.3643 29.7427 50.368 30.6161 51.0389C31.4803 51.7057 32.7904 52.0454 34.5273 52.0454C35.5797 52.0467 36.6267 51.8958 37.6359 51.5974H37.6911ZM32.1364 56.5363C29.376 56.6658 27.2357 55.9481 25.7387 54.7654C24.2418 53.5827 23.4859 51.8862 23.4859 49.6864C23.4859 48.2255 24.0117 46.8503 25.0635 45.5607C26.2091 44.2008 27.6772 43.1496 29.3336 42.5031L37.6911 39.0696V36.4897C37.6911 34.9397 37.2069 33.7082 36.2557 32.8015C35.3044 31.8948 34.0092 31.4256 32.3869 31.4256C31.354 31.4243 30.329 31.6054 29.359 31.9606C28.2202 32.4078 27.1428 32.9978 26.1528 33.7167L27.7198 28.2639C28.7621 27.8183 29.8451 27.4749 30.9537 27.2383C32.0012 27.0196 33.0686 26.9093 34.1387 26.9092C37.2048 26.9092 39.5094 27.7111 41.0523 29.3149C42.5953 30.9188 43.3647 33.3097 43.3604 36.4876V47.6076C43.3324 49.398 43.4033 51.1886 43.5728 52.9712C43.6649 53.9894 43.9336 54.9839 44.3669 55.9099H37.6911V53.1963L33.2788 56.4811L32.1364 56.5363ZM10.2298 19.4456C8.83899 19.4796 7.60957 19.5603 6.55002 19.6771C4.86589 19.8808 3.19437 20.1778 1.54316 20.5667L3.57308 15.0078H17.7995C17.411 16.0143 17.0903 17.6025 16.8313 19.7471C16.5743 21.8793 16.4439 24.0248 16.4406 26.1724V48.4994C16.4406 53.989 15.3237 58.1118 13.0899 60.8679C10.8774 63.5915 7.60037 64.9688 3.25882 65H3.01251C2.0882 64.9881 1.17025 64.8452 0.286133 64.5753L0.311613 64.5498C2.46102 63.7534 4.37404 62.4262 5.87267 60.6917C8.78166 57.3382 10.234 52.4885 10.2298 46.1425V19.4456Z" fill="#1A5035"/>
<path d="M112.879 52.9775C112.869 53.5227 112.901 54.0679 112.975 54.6082C113.024 54.9612 113.134 55.303 113.299 55.6189H110.539C110.704 55.3078 110.814 54.97 110.862 54.6209C110.931 54.0759 110.96 53.5267 110.951 52.9775V45.8366C110.957 45.3475 110.928 44.8585 110.862 44.3737C110.8 43.9882 110.699 43.6103 110.558 43.2462H112.951C112.951 45.7729 112.89 48.304 112.89 50.8329L114.516 48.4972C114.769 48.1552 114.987 47.7889 115.168 47.4037C115.281 47.1494 115.337 46.873 115.329 46.5947H118.487C118.002 46.9747 117.541 47.3853 117.109 47.8241C116.687 48.2668 116.297 48.7386 115.941 49.2361L114.879 50.7225L116.433 52.9775C116.935 53.7079 117.346 54.2671 117.667 54.6549C117.954 55.0083 118.276 55.3314 118.629 55.6189H115.782C115.788 55.437 115.748 55.2564 115.665 55.0945C115.525 54.8141 115.364 54.545 115.183 54.2897L112.883 50.8329L112.879 52.9775ZM101.201 52.9775V49.2319C101.204 48.79 101.174 48.3485 101.111 47.9112C101.037 47.4634 100.929 47.0219 100.789 46.5904H103.141V48.1617L104.613 46.5798C105.021 46.4676 105.441 46.4042 105.863 46.3908C107.861 46.3908 108.562 47.7158 108.562 49.3996V52.9775C108.552 53.5447 108.578 54.1121 108.639 54.6762C108.669 55.0024 108.761 55.32 108.908 55.6126H106.212C106.375 55.3009 106.484 54.9633 106.532 54.6146C106.601 54.0696 106.631 53.5204 106.621 52.9711V49.6481C106.621 48.6352 106.144 48.0853 105.025 48.0853C104.405 48.0853 103.708 48.4144 103.141 48.6501V52.9775C103.131 53.5226 103.162 54.0678 103.235 54.6082C103.286 54.9609 103.396 55.3026 103.56 55.6189H100.793C100.959 55.3082 101.068 54.9702 101.116 54.6209C101.184 54.0759 101.214 53.5267 101.205 52.9775M96.905 54.2515V51.7672H94.4016C94.3442 51.7672 94.2678 51.9349 94.1744 52.2683C94.0921 52.5443 94.0457 52.8298 94.0364 53.1176C94.0364 54.1283 94.8857 54.3916 95.8242 54.3916C96.1827 54.3916 96.5397 54.3445 96.8859 54.2515H96.905ZM94.994 55.8206C94.0449 55.8206 93.3166 55.6359 92.8069 55.2558C92.5547 55.0724 92.3521 54.829 92.2175 54.5476C92.083 54.2662 92.0206 53.9557 92.0362 53.6442C92.0459 53.1544 92.2392 52.6861 92.5776 52.332C92.9779 51.8944 93.4785 51.5607 94.0364 51.3595L96.8986 50.2617V49.4378C96.8986 48.4144 96.1576 47.8283 95.0853 47.8283C94.2593 47.8283 93.6138 48.1277 92.9513 48.5567L93.4885 46.8219C94.1867 46.5418 94.9319 46.3976 95.6841 46.3972C97.8435 46.3972 98.8394 47.478 98.8394 49.4442V52.9775C98.83 53.5447 98.8548 54.1119 98.9137 54.6762C98.9445 55.0029 99.0375 55.3207 99.1876 55.6126H96.8986V54.7462L95.3889 55.793L94.994 55.8206ZM84.8996 49.1937V54.3577C85.8041 54.3577 86.7427 54.2133 87.4795 53.693C87.7762 53.4969 88.0182 53.2286 88.1828 52.9133C88.3473 52.5979 88.429 52.2459 88.4201 51.8903C88.4315 51.5075 88.3486 51.1277 88.1786 50.7844C88.0086 50.4412 87.7569 50.145 87.4455 49.922C86.8156 49.4506 85.9662 49.2064 84.8975 49.1894M84.8975 43.8662V48.2509H85.0079C85.8572 48.2509 86.5452 48.0386 87.0484 47.6266C87.2974 47.4241 87.4956 47.1662 87.6272 46.8735C87.7588 46.5808 87.8202 46.2613 87.8065 45.9407C87.8153 45.6471 87.7524 45.3558 87.6233 45.092C87.4941 44.8282 87.3027 44.5999 87.0654 44.4267C86.5685 44.053 85.9039 43.8662 85.0631 43.8662H84.8975ZM82.7741 51.8478V46.3739C82.7741 45.8444 82.7593 45.3695 82.7295 44.9491V42.6028H85.3115C86.7596 42.6028 87.9077 42.9107 88.7556 43.5264C89.1594 43.8013 89.4878 44.1732 89.7104 44.608C89.933 45.0429 90.0427 45.5267 90.0296 46.015C90.0296 46.9705 89.5292 47.7491 88.5284 48.3507C88.324 48.4764 88.1112 48.5878 87.8914 48.6841C88.3235 48.8199 88.735 49.0142 89.1144 49.2616C90.1506 49.9411 90.6687 50.8612 90.6687 52.022C90.6831 52.5621 90.549 53.0959 90.2809 53.565C90.0128 54.0342 89.6211 54.4207 89.1484 54.6825C88.132 55.304 86.6853 55.6161 84.8083 55.6189H82.3027C82.4757 55.0644 82.6007 54.4961 82.6764 53.9202C82.7546 53.2309 82.79 52.5373 82.7826 51.8436" fill="#1A5035"/>
<path d="M52.8305 15.974C53.3448 15.9712 53.8532 16.0842 54.3178 16.3048C54.7824 16.5253 55.1914 16.8477 55.5144 17.248C56.2556 18.1109 56.6478 19.2195 56.6143 20.3565C56.6498 21.4913 56.2572 22.598 55.5144 23.4566C55.1856 23.85 54.7745 24.1665 54.31 24.3836C53.8455 24.6007 53.339 24.7133 52.8263 24.7133C52.3135 24.7133 51.8071 24.6007 51.3426 24.3836C50.8781 24.1665 50.4669 23.85 50.1381 23.4566C49.3963 22.5974 49.0038 21.4912 49.0382 20.3565C49.0048 19.2195 49.397 18.1109 50.1381 17.248C50.4624 16.8471 50.8729 16.5243 51.339 16.3038C51.8051 16.0832 52.3149 15.9705 52.8305 15.974Z" fill="#1D5033"/>
</g>
<defs>
<clipPath id="clip0_1432_3526">
<rect width="118.46" height="65" fill="white" transform="translate(0.286133)"/>
</clipPath>
</defs>
</svg>
