<svg width="123" height="55" viewBox="0 0 123 55" fill="none" xmlns="http://www.w3.org/2000/svg">
<path d="M117.833 2.35156H4.38761C2.36459 2.35156 0.724609 3.99154 0.724609 6.01456V48.9854C0.724609 51.0085 2.36459 52.6484 4.38761 52.6484H117.833C119.856 52.6484 121.496 51.0085 121.496 48.9854V6.01456C121.496 3.99154 119.856 2.35156 117.833 2.35156Z" fill="#133F77"/>
<path d="M15.437 19.3748H24.6832C24.6934 19.3748 24.7035 19.3771 24.7127 19.3817C24.7219 19.3862 24.7298 19.3929 24.736 19.4011C24.7422 19.4092 24.7464 19.4187 24.7482 19.4288C24.7501 19.4389 24.7496 19.4493 24.7467 19.4591L22.6017 26.8108C22.5977 26.8245 22.5894 26.8366 22.5779 26.8452C22.5664 26.8538 22.5525 26.8585 22.5382 26.8584H12.3204C12.3058 26.8587 12.2915 26.8553 12.2787 26.8484C12.2659 26.8415 12.2551 26.8314 12.2474 26.8191C12.2396 26.8068 12.2352 26.7927 12.2345 26.7782C12.2338 26.7637 12.2368 26.7492 12.2434 26.7362L15.3759 19.4102C15.3818 19.3992 15.3907 19.3901 15.4015 19.3838C15.4122 19.3776 15.4246 19.3744 15.437 19.3748Z" fill="#78C2ED" stroke="white" stroke-width="1.18823" stroke-miterlimit="10"/>
<path d="M22.6462 26.9551L24.79 19.574C24.7917 19.5686 24.7951 19.5638 24.7998 19.5604C24.8044 19.557 24.81 19.5552 24.8157 19.5552C24.8214 19.5552 24.827 19.557 24.8316 19.5604C24.8362 19.5638 24.8397 19.5686 24.8414 19.574L27.0414 27.4293C27.0425 27.4315 27.0432 27.4341 27.0432 27.4366C27.0432 27.4392 27.0425 27.4417 27.0414 27.4439L24.9025 34.8237C24.9012 34.8297 24.8979 34.8351 24.8931 34.8389C24.8883 34.8428 24.8823 34.8449 24.8762 34.8449C24.8701 34.8449 24.8641 34.8428 24.8593 34.8389C24.8545 34.8351 24.8512 34.8297 24.8499 34.8237L22.6426 26.9697C22.6425 26.9646 22.6438 26.9595 22.6462 26.9551Z" fill="#123F76" stroke="white" stroke-width="1.19456" stroke-miterlimit="10"/>
<path d="M22.5275 26.9317L12.2609 26.8877C12.2538 26.8877 12.2469 26.8894 12.2406 26.8926C12.2344 26.8958 12.229 26.9005 12.2249 26.9063C12.2208 26.912 12.2182 26.9187 12.2172 26.9256C12.2162 26.9326 12.217 26.9397 12.2193 26.9464L15.1575 35.0631C15.1608 35.0718 15.1666 35.0793 15.1743 35.0846C15.182 35.0898 15.191 35.0926 15.2003 35.0925L24.741 34.9055C24.7478 34.9053 24.7544 34.9036 24.7605 34.9005C24.7665 34.8975 24.7718 34.893 24.7759 34.8876C24.78 34.8822 24.7828 34.876 24.7842 34.8693C24.7856 34.8627 24.7854 34.8558 24.7838 34.8493L22.5666 26.9635C22.5643 26.9547 22.5593 26.9469 22.5523 26.9412C22.5452 26.9355 22.5366 26.9322 22.5275 26.9317Z" fill="#0F9CDA" stroke="white" stroke-width="1.18823" stroke-miterlimit="10"/>
<path d="M26.2088 26.9756H35.4561C35.4664 26.9758 35.4765 26.9783 35.4857 26.983C35.4948 26.9877 35.5028 26.9944 35.5089 27.0027C35.5151 27.011 35.5192 27.0205 35.5211 27.0307C35.5229 27.0408 35.5225 27.0512 35.5196 27.0611L33.3746 34.4128C33.3705 34.4265 33.3621 34.4385 33.3507 34.447C33.3392 34.4556 33.3254 34.4603 33.3111 34.4605H23.0982C23.0837 34.4606 23.0694 34.4571 23.0566 34.4502C23.0438 34.4433 23.033 34.4333 23.0252 34.421C23.0174 34.4088 23.0128 34.3948 23.0119 34.3803C23.011 34.3658 23.0138 34.3514 23.02 34.3383L26.1538 27.011C26.1592 27.001 26.1671 26.9925 26.1767 26.9863C26.1863 26.9801 26.1974 26.9764 26.2088 26.9756Z" fill="#78C2ED" stroke="white" stroke-width="1.18823" stroke-miterlimit="10"/>
<path d="M33.421 34.556L35.566 27.175C35.5673 27.169 35.5706 27.1636 35.5754 27.1598C35.5802 27.1559 35.5861 27.1538 35.5923 27.1538C35.5984 27.1538 35.6044 27.1559 35.6092 27.1598C35.6139 27.1636 35.6173 27.169 35.6186 27.175L37.8186 35.0302C37.8198 35.035 37.8198 35.0401 37.8186 35.0449L35.6784 42.4259C35.6767 42.4314 35.6733 42.4361 35.6687 42.4395C35.6641 42.4429 35.6585 42.4448 35.6528 42.4448C35.647 42.4448 35.6415 42.4429 35.6369 42.4395C35.6322 42.4361 35.6288 42.4314 35.6271 42.4259L33.4186 34.5731C33.4173 34.5673 33.4181 34.5612 33.421 34.556Z" fill="#123F76" stroke="white" stroke-width="1.19456" stroke-miterlimit="10"/>
<path d="M33.3034 34.5325L23.0367 34.4885C23.0295 34.4884 23.0224 34.4901 23.016 34.4934C23.0096 34.4967 23.0041 34.5015 23 34.5074C22.9959 34.5133 22.9933 34.5202 22.9925 34.5273C22.9916 34.5345 22.9926 34.5417 22.9952 34.5484L25.9358 42.664C25.9392 42.6726 25.9451 42.6799 25.9527 42.6852C25.9604 42.6904 25.9694 42.6932 25.9786 42.6933L35.5205 42.5063C35.5273 42.5062 35.5339 42.5045 35.5399 42.5014C35.5459 42.4983 35.5511 42.4939 35.5552 42.4885C35.5592 42.483 35.5619 42.4767 35.5631 42.4701C35.5643 42.4634 35.5639 42.4566 35.562 42.4501L33.3449 34.5643C33.3425 34.5552 33.3371 34.5471 33.3296 34.5413C33.3221 34.5356 33.3128 34.5325 33.3034 34.5325Z" fill="#0F9CDA" stroke="white" stroke-width="1.18823" stroke-miterlimit="10"/>
<path d="M26.2827 11.6953H35.5289C35.5391 11.6953 35.5492 11.6977 35.5584 11.7022C35.5676 11.7068 35.5755 11.7134 35.5817 11.7216C35.5879 11.7298 35.5921 11.7393 35.5939 11.7494C35.5958 11.7594 35.5953 11.7698 35.5924 11.7797L33.4474 19.1313C33.4433 19.145 33.4349 19.157 33.4234 19.1656C33.412 19.1741 33.3981 19.1788 33.3839 19.179H23.1661C23.1515 19.1793 23.1372 19.1758 23.1244 19.1689C23.1116 19.162 23.1008 19.1519 23.0931 19.1396C23.0853 19.1273 23.0809 19.1132 23.0802 19.0987C23.0795 19.0842 23.0825 19.0698 23.0891 19.0568L26.2216 11.7332C26.2271 11.7217 26.2357 11.7119 26.2466 11.7052C26.2574 11.6985 26.27 11.6951 26.2827 11.6953Z" fill="#78C2ED" stroke="white" stroke-width="1.18823" stroke-miterlimit="10"/>
<path d="M33.4892 19.2755L35.6318 11.8933C35.6331 11.8873 35.6364 11.8819 35.6412 11.878C35.6459 11.8742 35.6519 11.8721 35.658 11.8721C35.6642 11.8721 35.6701 11.8742 35.6749 11.878C35.6797 11.8819 35.683 11.8873 35.6843 11.8933L37.8843 19.7473C37.8855 19.7525 37.8855 19.7579 37.8843 19.7632L35.7454 27.1429C35.7441 27.1489 35.7408 27.1543 35.736 27.1582C35.7313 27.162 35.7253 27.1641 35.7192 27.1641C35.713 27.1641 35.7071 27.162 35.7023 27.1582C35.6975 27.1543 35.6942 27.1489 35.6929 27.1429L33.4892 19.2901C33.488 19.2853 33.488 19.2803 33.4892 19.2755Z" fill="#123F76" stroke="white" stroke-width="1.19456" stroke-miterlimit="10"/>
<path d="M33.3737 19.2513L23.107 19.2073C23.0998 19.2072 23.0927 19.2089 23.0863 19.2122C23.0799 19.2155 23.0745 19.2203 23.0704 19.2262C23.0662 19.2321 23.0637 19.2389 23.0628 19.2461C23.062 19.2532 23.0629 19.2605 23.0655 19.2672L26.0074 27.3839C26.0105 27.3926 26.0164 27.4 26.0241 27.4051C26.0318 27.4102 26.0409 27.4126 26.0501 27.4121L35.5908 27.2251C35.5977 27.2252 35.6044 27.2237 35.6106 27.2207C35.6167 27.2177 35.6221 27.2132 35.6262 27.2077C35.6302 27.2022 35.6329 27.1958 35.634 27.189C35.6351 27.1823 35.6345 27.1753 35.6324 27.1688L33.4165 19.2843C33.414 19.2748 33.4085 19.2664 33.4007 19.2604C33.393 19.2545 33.3835 19.2512 33.3737 19.2513Z" fill="#0F9CDA" stroke="white" stroke-width="1.18823" stroke-miterlimit="10"/>
<path d="M48.9453 28.3873C49.268 28.1367 49.4806 27.9106 49.5809 27.7077C49.6852 27.491 49.7371 27.2528 49.7324 27.0123V18.5508C49.7427 18.3123 49.7083 18.074 49.631 17.8481C49.5021 17.5874 49.3376 17.3459 49.1421 17.1306H52.4421C52.2205 17.3415 52.0304 17.5831 51.8774 17.8481C51.7712 18.0672 51.7157 18.3074 51.7149 18.5508V27.0111C51.7138 27.1266 51.7261 27.2418 51.7515 27.3545C51.7804 27.4733 51.8214 27.5888 51.8738 27.6992C51.933 27.8226 52.0082 27.9376 52.0974 28.0414C52.2086 28.1675 52.3314 28.2829 52.4641 28.3861L48.9453 28.3873ZM51.8212 22.4693L54.7338 18.5508C54.9051 18.3375 55.004 18.075 55.0161 17.8016C55.0161 17.6036 54.9012 17.3799 54.6739 17.1306H57.9861L53.8868 22.2041C54.5899 23.2633 55.1892 24.1168 55.6846 24.7646C56.1801 25.4124 56.6995 26.0264 57.243 26.6065C57.5588 26.9408 57.8913 27.259 58.2391 27.5598C58.4241 27.7261 58.6201 27.8796 58.8258 28.0194C59.0227 28.1526 59.2267 28.275 59.4369 28.3861H56.9545C56.7398 28.3794 56.53 28.3203 56.3434 28.2137C55.848 28.0157 55.1147 27.2245 54.1434 25.8402L52.3761 23.3114L51.8212 22.4693Z" fill="white"/>
<path d="M65.8171 24.5153H60.1313C60.1479 24.7942 60.1888 25.0711 60.2536 25.3428C60.3205 25.56 60.4107 25.7694 60.5225 25.9673C61.0578 26.8832 61.9133 27.3411 63.0891 27.3411C63.5779 27.3403 64.0625 27.2504 64.5191 27.0759C64.7174 27.0062 64.9113 26.9245 65.0997 26.8314C65.2798 26.7418 65.5279 26.6037 65.844 26.4171L64.6866 28.3849C64.4024 28.4899 64.109 28.5681 63.8102 28.6183C63.5051 28.6625 63.197 28.6834 62.8887 28.6807C61.4628 28.6807 60.3192 28.2904 59.4579 27.5098C58.5966 26.7292 58.166 25.6936 58.166 24.4029C58.166 23.2059 58.5522 22.2123 59.3247 21.4219C60.0971 20.6315 61.0672 20.2359 62.2348 20.2351C63.3935 20.2351 64.2824 20.5993 64.9017 21.3278C65.5209 22.0562 65.8261 23.1187 65.8171 24.5153ZM62.1419 21.4243C61.6856 21.4052 61.2403 21.5678 60.9038 21.8766C60.586 22.178 60.3774 22.6152 60.278 23.188H63.842C63.8528 22.9535 63.816 22.7192 63.7339 22.4993C63.6517 22.2794 63.526 22.0784 63.3641 21.9083C63.2047 21.7478 63.0139 21.622 62.8035 21.5387C62.5932 21.4555 62.368 21.4165 62.1419 21.4243Z" fill="white"/>
<path d="M64.8223 32.2739L66.218 30.6654C66.4542 30.8966 66.7678 31.0316 67.098 31.0443C67.2404 31.052 67.3829 31.0295 67.516 30.9783C67.6491 30.9271 67.7699 30.8484 67.8705 30.7473C67.9964 30.5962 68.1061 30.4323 68.198 30.2584C68.3208 30.0482 68.4204 29.8253 68.495 29.5936L68.8959 28.4679L66.4112 22.4888C66.1146 21.7693 65.9019 21.3158 65.7732 21.1284C65.6436 20.9402 65.3869 20.7166 65.0007 20.4562L65.7878 20.5186C65.9104 20.5171 66.0327 20.5093 66.1545 20.4953C66.2938 20.4794 66.4295 20.4611 66.5639 20.4403C66.6928 20.4205 66.8196 20.389 66.9428 20.3462C67.1506 20.2647 67.329 20.1918 67.4782 20.1274L69.8554 26.0687L71.4308 21.9559C71.5456 21.6873 71.6194 21.403 71.6496 21.1126C71.6499 20.9979 71.6218 20.8849 71.5677 20.7838C71.4838 20.6434 71.3777 20.5175 71.2536 20.411H73.9425L69.8725 30.0421C69.7289 30.3939 69.5602 30.735 69.3677 31.0627C68.7623 32.0404 67.747 32.5293 66.3219 32.5293C65.8126 32.514 65.3079 32.428 64.8223 32.2739Z" fill="white"/>
<path d="M73.3633 26.3889L73.7642 26.6334C73.9328 26.7377 74.1015 26.8314 74.2702 26.9145C74.642 27.0762 75.0267 27.2066 75.4203 27.3044C75.7913 27.4031 76.1731 27.4556 76.5569 27.4608C77.0458 27.4608 77.4272 27.3671 77.7009 27.1797C77.8309 27.0995 77.9376 26.9866 78.0105 26.8524C78.0834 26.7182 78.1199 26.5673 78.1165 26.4146C78.122 26.2557 78.085 26.0983 78.0094 25.9584C77.9337 25.8186 77.8222 25.7014 77.6863 25.6189C77.5535 25.5393 77.4141 25.4714 77.2695 25.4161C77.1118 25.3525 76.8344 25.2596 76.4384 25.1349C75.7458 24.9158 75.305 24.7646 75.116 24.6815C74.8697 24.5608 74.6401 24.4088 74.4327 24.2293C74.2093 24.0453 74.0295 23.8141 73.9063 23.5522C73.783 23.2903 73.7195 23.0044 73.7202 22.7149C73.7202 21.9449 74.0098 21.3436 74.5892 20.9109C75.1685 20.4783 75.9833 20.2624 77.0336 20.2632C77.3411 20.2588 77.6486 20.2747 77.9539 20.3108L78.7569 20.4661V22.0488C78.6347 21.9853 78.4722 21.9022 78.2595 21.8044C78.0344 21.6963 77.8005 21.6076 77.5604 21.5392C77.317 21.4681 77.0648 21.4315 76.8112 21.4304C76.394 21.4304 76.0681 21.5029 75.8334 21.6479C75.7241 21.7107 75.6338 21.8019 75.5723 21.9119C75.5107 22.0219 75.4802 22.1465 75.4838 22.2725C75.483 22.4062 75.5163 22.5378 75.5804 22.6551C75.6482 22.7781 75.7421 22.8849 75.8554 22.9679C75.9786 23.0585 76.1135 23.132 76.2563 23.1867C76.4054 23.2429 76.6523 23.3187 76.9994 23.4128C77.5341 23.5516 78.0569 23.7331 78.5626 23.9555C78.8708 24.1184 79.1433 24.3411 79.3644 24.6106C79.6512 24.9447 79.7946 25.3928 79.7946 25.9551C79.8061 26.3236 79.7369 26.6903 79.5919 27.0294C79.4468 27.3684 79.2294 27.6717 78.9549 27.9179C78.3903 28.4272 77.6569 28.6822 76.7549 28.6831C76.2675 28.6897 75.7804 28.6533 75.2993 28.5743L74.4682 28.4019L74.1015 28.3555L73.3633 26.3889Z" fill="white"/>
<path d="M79.7363 21.5488V20.8619C80.4094 20.7804 80.8946 20.5201 81.192 20.0809C81.4894 19.6417 81.6377 18.9601 81.6369 18.0361V17.8442H82.5132V20.4109H84.5482V22.0976L84.4126 21.9753C84.3259 21.8922 84.2327 21.8162 84.1339 21.748C84.0381 21.6866 83.9339 21.6392 83.8247 21.6075C83.6772 21.5685 83.525 21.5504 83.3724 21.5537H82.5169V25.8461C82.5129 26.0093 82.5182 26.1725 82.5328 26.335C82.5546 26.4359 82.5961 26.5314 82.655 26.6161C82.7929 26.8148 82.9876 26.9673 83.2136 27.0537C83.4803 27.1697 83.7684 27.2284 84.0593 27.226L84.3759 27.2101L83.315 28.5998C82.864 28.5653 82.4197 28.4707 81.9938 28.3187C81.6729 28.1834 81.3916 27.9689 81.1761 27.6953C81.0087 27.499 80.8839 27.2701 80.8094 27.0231C80.7339 26.6905 80.7015 26.3496 80.7129 26.0087V21.5488H79.7363Z" fill="white"/>
<path d="M84.4121 24.343C84.4121 23.1053 84.8379 22.0802 85.6893 21.2679C86.5408 20.4555 87.6103 20.0481 88.8977 20.0457C90.1647 20.0457 91.1897 20.4408 91.9728 21.2312C92.7558 22.0216 93.1469 23.0678 93.1461 24.3699C93.1461 25.619 92.7253 26.6493 91.8836 27.4609C91.0419 28.2724 89.9724 28.6798 88.6752 28.6831C87.3886 28.6831 86.3563 28.2851 85.5781 27.489C84.8 26.6929 84.4113 25.6442 84.4121 24.343ZM86.2992 24.2342V24.3748C86.2992 25.2385 86.5543 25.9592 87.0643 26.5369C87.2934 26.8118 87.5808 27.0323 87.9058 27.1822C88.2308 27.3321 88.585 27.4077 88.9429 27.4034C89.2682 27.4092 89.59 27.3362 89.8809 27.1906C90.1719 27.045 90.4233 26.8312 90.6137 26.5674C91.0439 26.0109 91.2594 25.2955 91.2602 24.4212C91.2602 23.5151 91.0223 22.7761 90.5464 22.2041C90.3262 21.9291 90.0453 21.7088 89.7258 21.5604C89.4063 21.412 89.0568 21.3395 88.7046 21.3485C88.3734 21.3391 88.0446 21.4059 87.7434 21.5439C87.4423 21.6819 87.1769 21.8873 86.9678 22.1442C86.5213 22.673 86.2984 23.3697 86.2992 24.2342Z" fill="white"/>
<path d="M93.6211 20.4868L94.2004 20.5027L94.913 20.4574C95.0857 20.4335 95.2567 20.3988 95.4251 20.3535C95.5693 20.3128 95.7799 20.248 96.057 20.1592V21.2519C96.343 20.9001 96.706 20.6186 97.1179 20.4292C97.5298 20.2398 97.9797 20.1474 98.433 20.1592C100.364 20.1592 101.33 21.1187 101.33 23.0375V27.2285C101.329 27.3077 101.339 27.3866 101.359 27.4632L101.404 27.6355C101.492 27.9316 101.668 28.1938 101.909 28.3872H98.8766C99.0837 28.2465 99.2482 28.0516 99.3521 27.8238C99.4474 27.515 99.4887 27.1921 99.4743 26.8692V22.754C99.3839 21.9498 98.8567 21.5481 97.8928 21.5489C97.2458 21.5489 96.7634 21.7155 96.4456 22.0488C96.297 22.1786 96.1884 22.3482 96.1328 22.5377C96.0704 22.8596 96.0454 23.1877 96.0582 23.5154V26.8643C96.0477 27.1689 96.089 27.4731 96.1804 27.7639C96.2824 28.0079 96.4463 28.2211 96.6559 28.3823H93.6663C93.7502 28.3057 93.8294 28.2241 93.9034 28.1379C93.9398 28.0961 93.9729 28.0516 94.0024 28.0047C94.0791 27.9016 94.1359 27.7851 94.1699 27.6612L94.2163 27.2554V22.0952C94.2306 21.7615 94.1956 21.4275 94.1124 21.104C94.0084 20.857 93.8384 20.6435 93.6211 20.4868Z" fill="white"/>
<path d="M110.064 24.5153H104.377C104.394 24.7942 104.435 25.0711 104.5 25.3428C104.567 25.56 104.657 25.7694 104.769 25.9673C105.304 26.8832 106.159 27.3411 107.335 27.3411C107.824 27.3403 108.309 27.2504 108.765 27.0759C108.963 27.0062 109.157 26.9245 109.346 26.8314C109.524 26.7418 109.772 26.6037 110.09 26.4171L108.933 28.3849C108.648 28.4899 108.355 28.5681 108.056 28.6183C107.751 28.6625 107.443 28.6834 107.135 28.6807C105.708 28.6807 104.564 28.2904 103.704 27.5098C102.844 26.7292 102.413 25.6936 102.412 24.4029C102.412 23.2059 102.798 22.2123 103.571 21.4219C104.343 20.6315 105.313 20.2359 106.481 20.2351C107.64 20.2351 108.529 20.5993 109.148 21.3278C109.767 22.0562 110.073 23.1187 110.064 24.5153ZM106.389 21.4243C105.933 21.4052 105.488 21.5678 105.151 21.8766C104.833 22.178 104.624 22.6152 104.524 23.188H108.089C108.1 22.9535 108.063 22.7192 107.981 22.4993C107.899 22.2794 107.773 22.0784 107.611 21.9083C107.452 21.7478 107.261 21.622 107.051 21.5387C106.841 21.4555 106.615 21.4165 106.389 21.4243Z" fill="white"/>
<path d="M48.9902 43.1273C49.1317 43.0224 49.2634 42.905 49.3838 42.7765C49.4708 42.679 49.5459 42.5715 49.6075 42.4563C49.713 42.2372 49.7662 41.9966 49.7627 41.7535V33.2762C49.7689 33.0377 49.723 32.8008 49.6282 32.5819C49.488 32.3187 49.3078 32.0787 49.0941 31.8706H52.3758C53.5247 31.8706 54.4507 32.0217 55.1539 32.324C55.5701 32.5054 55.9256 32.8023 56.1781 33.1796C56.4274 33.5654 56.5551 34.0172 56.5448 34.4764C56.5541 34.7403 56.5103 35.0034 56.4161 35.2501C56.3218 35.4968 56.179 35.722 55.996 35.9125C55.862 36.064 55.7068 36.1953 55.5352 36.3024C55.3141 36.4307 55.0802 36.5355 54.8373 36.6153C55.1505 36.6573 55.4588 36.7301 55.7577 36.8328C55.9948 36.9281 56.2155 37.0601 56.4116 37.2239C57.0944 37.765 57.4358 38.5089 57.4358 39.4557C57.4356 39.844 57.3704 40.2294 57.2427 40.5961C57.1159 40.9666 56.9307 41.3145 56.6939 41.6264C56.2559 42.172 55.6666 42.5763 54.9999 42.7887C54.3163 43.0136 53.3609 43.1256 52.1338 43.1248L48.9902 43.1273ZM51.6791 33.1197V36.4613C51.8372 36.4873 51.9969 36.5028 52.157 36.5077C53.0036 36.5077 53.6009 36.3448 53.9488 36.0188C54.1163 35.8605 54.2493 35.6692 54.3394 35.4569C54.4294 35.2447 54.4745 35.0161 54.4719 34.7856C54.4719 34.2446 54.2975 33.8229 53.9488 33.5206C53.6 33.2183 53.1026 33.0676 52.4565 33.0684L51.6791 33.1197ZM51.6791 37.6004V41.6337C51.9162 41.7001 52.157 41.7524 52.4002 41.7902C52.5999 41.8127 52.8007 41.8229 53.0016 41.8207C53.7048 41.8207 54.2841 41.617 54.7396 41.2096C55.1113 40.8631 55.348 40.396 55.4078 39.8913C55.4675 39.3867 55.3464 38.8772 55.0659 38.4535C54.8183 38.109 54.4589 37.8611 54.049 37.7519C53.568 37.6159 53.0699 37.5501 52.5701 37.5564L51.6791 37.6004Z" fill="white"/>
<path d="M58.8234 37.0331L60.0713 35.1607C60.4086 35.0776 60.6531 35.025 60.8046 35.0042C61.0388 34.9792 61.2744 34.9686 61.5099 34.9725C62.5096 34.9725 63.2719 35.1965 63.7966 35.6447C64.0085 35.8123 64.1725 36.0328 64.2721 36.2839C64.3417 36.4929 64.376 36.8669 64.376 37.4084V40.7022C64.3636 40.9519 64.3888 41.202 64.4505 41.4441C64.5111 41.5997 64.6281 41.7266 64.7781 41.7998C65.0149 41.9079 65.2747 41.9562 65.5346 41.9404H65.8622L64.9003 43.2958C64.7418 43.3448 64.5773 43.3719 64.4114 43.3765C63.9394 43.3794 63.4836 43.2049 63.1342 42.8876C62.7577 42.5559 62.5695 42.1852 62.5695 41.7754V39.1109L62.1381 39.2515L61.4402 39.4079C60.9816 39.5168 60.538 39.681 60.119 39.8968C59.7914 40.0948 59.6301 40.4113 59.6301 40.8489C59.6223 41.022 59.6559 41.1945 59.7282 41.3521C59.8005 41.5096 59.9093 41.6476 60.0456 41.7546C60.3227 41.9729 60.6987 42.0821 61.1737 42.0821C61.351 42.0827 61.5278 42.0659 61.7017 42.032C61.9455 41.9801 62.1859 41.9136 62.4216 41.8328L61.527 43.1565C61.2695 43.2298 61.0442 43.2848 60.8511 43.3215C60.6776 43.3561 60.5012 43.3745 60.3243 43.3765C59.9869 43.3772 59.6529 43.3081 59.3435 43.1735C59.0341 43.0389 58.7559 42.8417 58.5264 42.5942C58.28 42.357 58.0845 42.0722 57.9517 41.757C57.8189 41.4418 57.7517 41.1029 57.754 40.7609C57.754 39.5729 58.6095 38.8168 60.3206 38.4925L61.197 38.3055C61.6916 38.2118 62.0354 38.094 62.2285 37.9522C62.3231 37.8841 62.3992 37.7934 62.4498 37.6884C62.5003 37.5834 62.5239 37.4673 62.5182 37.3509C62.5246 37.2152 62.4976 37.08 62.4394 36.9572C62.3812 36.8344 62.2937 36.7278 62.1845 36.6469C61.9156 36.4663 61.595 36.3783 61.2715 36.3964C61.0173 36.4026 60.7639 36.4288 60.5137 36.4746C60.1373 36.5675 59.8721 36.6384 59.7193 36.6848C59.5665 36.7312 59.2695 36.851 58.8234 37.0331Z" fill="white"/>
<path d="M65.4785 35.2281L66.0566 35.2427L66.7704 35.1987C66.943 35.1738 67.114 35.1387 67.2825 35.0936C67.4255 35.0545 67.637 34.9897 67.9144 34.8993V35.9993C68.1998 35.6462 68.5624 35.3634 68.9744 35.1727C69.3863 34.982 69.8366 34.8884 70.2904 34.8993C72.2215 34.8993 73.1871 35.8587 73.1871 37.7776V41.9698C73.1866 42.049 73.1964 42.1279 73.2164 42.2045C73.236 42.2778 73.2506 42.3353 73.2604 42.3768C73.3493 42.6724 73.5257 42.9341 73.7664 43.1273H70.7353C70.9429 42.9871 71.1075 42.7921 71.2107 42.5638C71.3069 42.2552 71.3483 41.9322 71.333 41.6093V37.4941C71.2425 36.6915 70.7153 36.2898 69.7514 36.289C69.1053 36.289 68.6229 36.456 68.3043 36.7901C68.1555 36.9201 68.0466 37.0896 67.9902 37.279C67.9292 37.6011 67.9046 37.9291 67.9169 38.2567V41.6056C67.9061 41.9102 67.9474 42.2145 68.0391 42.5052C68.1403 42.7496 68.3043 42.963 68.5145 43.1236H65.5225C65.6067 43.0477 65.6855 42.966 65.7584 42.8792C65.7952 42.8379 65.8287 42.7937 65.8586 42.7472C65.9346 42.6437 65.9913 42.5273 66.0261 42.4037L66.0725 41.9967V36.8353C66.0868 36.5016 66.0518 36.1676 65.9686 35.8441C65.8652 35.5975 65.6956 35.3843 65.4785 35.2281Z" fill="white"/>
<path d="M74.373 31.8864L74.9524 31.9023C75.5758 31.8893 76.1928 31.7733 76.7784 31.5588V41.9722C76.7871 42.1093 76.8097 42.2453 76.8456 42.3779C76.8738 42.5225 76.9241 42.6618 76.9947 42.7911C77.087 42.9204 77.1997 43.0339 77.3284 43.1272H74.3877C74.5669 42.9675 74.7045 42.7666 74.7886 42.5417C74.8699 42.2391 74.9049 41.9259 74.8925 41.6128V33.3225C74.907 33.0207 74.877 32.7184 74.8033 32.4254C74.7108 32.2104 74.5622 32.0242 74.373 31.8864ZM76.8322 38.6086L78.6655 36.4612C78.9539 36.1401 79.0982 35.8549 79.0982 35.6056C79.0982 35.4834 79.0138 35.3306 78.8464 35.1534H81.6379L78.7987 38.4754L81.8433 42.2533C82.1405 42.6104 82.5036 42.907 82.9127 43.1272H80.9352C80.6562 43.1439 80.3775 43.0901 80.1248 42.9707C79.9415 42.8672 79.7309 42.6485 79.4929 42.3144L76.8322 38.6086Z" fill="white"/>
<path d="M34.8325 19.7204H44.0799C44.0902 19.7206 44.1003 19.7231 44.1095 19.7278C44.1186 19.7325 44.1266 19.7393 44.1327 19.7475C44.1389 19.7558 44.143 19.7654 44.1449 19.7755C44.1467 19.7856 44.1462 19.7961 44.1434 19.806L41.9948 27.1576C41.9906 27.1713 41.9822 27.1833 41.9708 27.1919C41.9594 27.2004 41.9455 27.2051 41.9312 27.2053H31.7134C31.6989 27.2055 31.6846 27.2019 31.6718 27.195C31.6591 27.1881 31.6483 27.1781 31.6404 27.1659C31.6326 27.1536 31.628 27.1396 31.6271 27.1252C31.6262 27.1107 31.629 27.0962 31.6352 27.0831L34.769 19.7571C34.7746 19.7453 34.7837 19.7354 34.7951 19.7289C34.8064 19.7223 34.8195 19.7194 34.8325 19.7204Z" fill="#78C2ED" stroke="white" stroke-width="1.18823" stroke-miterlimit="10"/>
<path d="M42.0439 27.3006L44.1828 19.9221C44.1841 19.9161 44.1874 19.9107 44.1922 19.9068C44.1969 19.903 44.2029 19.9009 44.209 19.9009C44.2152 19.9009 44.2211 19.903 44.2259 19.9068C44.2307 19.9107 44.234 19.9161 44.2353 19.9221L46.4353 27.7773C46.4366 27.7821 46.4366 27.7871 46.4353 27.792L44.2964 35.173C44.2951 35.179 44.2918 35.1843 44.287 35.1882C44.2822 35.192 44.2763 35.1941 44.2701 35.1941C44.264 35.1941 44.2581 35.192 44.2533 35.1882C44.2485 35.1843 44.2452 35.179 44.2439 35.173L42.0439 27.3165C42.0427 27.3113 42.0427 27.3059 42.0439 27.3006Z" fill="#123F76" stroke="white" stroke-width="1.19456" stroke-miterlimit="10"/>
<path d="M41.9225 27.2774L31.6559 27.2334C31.6487 27.2333 31.6416 27.235 31.6352 27.2383C31.6288 27.2416 31.6233 27.2464 31.6192 27.2523C31.6151 27.2582 31.6125 27.265 31.6116 27.2722C31.6108 27.2793 31.6117 27.2866 31.6143 27.2933L34.5562 35.4088C34.5591 35.4175 34.5647 35.4251 34.5721 35.4304C34.5796 35.4356 34.5886 35.4384 34.5977 35.4382L44.1396 35.2512C44.1465 35.2513 44.1533 35.2498 44.1594 35.2468C44.1656 35.2438 44.1709 35.2394 44.175 35.2338C44.1791 35.2283 44.1817 35.2219 44.1828 35.2152C44.1839 35.2084 44.1833 35.2015 44.1812 35.195L41.9653 27.3092C41.9623 27.3001 41.9566 27.2922 41.9489 27.2865C41.9413 27.2809 41.9321 27.2777 41.9225 27.2774Z" fill="#0F9CDA" stroke="white" stroke-width="1.18823" stroke-miterlimit="10"/>
</svg>
