<svg width="78" height="78" viewBox="0 0 78 78" fill="none" xmlns="http://www.w3.org/2000/svg">
<g clip-path="url(#clip0_1432_3244)">
<path d="M0 0H78V78H0V0Z" fill="#FFC403"/>
<path d="M34.6728 34.396V43.2994H32.2376V38.3055L30.611 40.7121H29.3364L27.5481 38.3055V43.2994H25.3223V34.396H27.5671L30.1354 37.887L32.4374 34.396H34.6728ZM35.3767 36.4126V34.396H43.6903V36.4126H40.7796V43.2994H38.2969V36.4126H35.3767ZM52.8506 34.396V43.2994H50.8054L46.6201 38.2104V43.2994H44.3942V34.396H46.6106L50.6152 39.3043V34.396H52.8506Z" fill="black"/>
<path d="M38.9986 52.6023C31.8074 52.6023 25.0252 51.2611 19.9077 48.8165C14.5523 46.2577 11.6035 42.7762 11.6035 38.9999C11.6035 35.2236 14.5523 31.7421 19.9077 29.1833C25.0252 26.7387 31.8074 25.3975 38.9986 25.3975C46.1899 25.3975 52.9721 26.7387 58.0896 29.1833C63.445 31.7421 66.3938 35.2236 66.3938 38.9999C66.3938 42.7762 63.445 46.2577 58.0896 48.8165C52.9721 51.2611 46.1899 52.6023 38.9986 52.6023ZM38.9986 27.4045C32.0928 27.4045 25.6245 28.6792 20.7733 31.0001C16.1599 33.207 13.6106 36.0511 13.6106 39.0094C13.6106 41.9677 16.1503 44.8119 20.7733 47.0092C25.6245 49.3301 32.1023 50.6048 38.9986 50.6048C45.895 50.6048 52.3728 49.3301 57.224 47.0092C61.8374 44.8119 64.3867 41.9582 64.3867 39.0094C64.3867 36.0606 61.8469 33.207 57.224 31.0097C52.3728 28.6792 45.9045 27.4045 38.9986 27.4045Z" fill="black"/>
</g>
<defs>
<clipPath id="clip0_1432_3244">
<rect width="78" height="78" fill="white"/>
</clipPath>
</defs>
</svg>
