<svg width="190" height="50" viewBox="0 0 190 50" fill="none" xmlns="http://www.w3.org/2000/svg">
<path fill-rule="evenodd" clip-rule="evenodd" d="M175.085 7.17188H181.676L189.777 18.2931L181.676 29.4126L175.094 29.4002L183.178 18.2881L175.085 7.17188Z" fill="#FF6666"/>
<path fill-rule="evenodd" clip-rule="evenodd" d="M137.542 12.1498V7.17712H132.473V29.4125H137.542V20.8421C137.542 14.989 140.646 12.1078 145.084 12.1078H145.378V6.75845C141.483 6.5932 138.925 8.84757 137.542 12.1498ZM161.9 7.1718L161.896 7.17477L153.807 18.2823H153.799V0.535645H148.748V29.4125H153.799V18.293L161.9 29.4125H168.491L168.483 29.4003H168.491L160.398 18.2881L168.491 7.17496L161.9 7.1718ZM124.457 18.3342C124.457 22.1384 121.859 25.3548 117.752 25.3548C113.815 25.3548 111.006 22.0965 111.006 18.2497V18.1654C111.006 14.3229 113.605 11.1453 117.668 11.1453C121.649 11.1453 124.457 14.3635 124.457 18.2497V18.3342ZM117.752 6.71612C110.966 6.71612 105.936 11.9396 105.936 18.2497V18.3344C105.936 24.6041 110.925 29.743 117.668 29.743C124.497 29.743 129.524 24.5171 129.524 18.2497V18.1654C129.524 11.8564 124.539 6.71612 117.752 6.71612ZM94.9587 22.7067L89.2111 7.18546H84.1503L78.5108 23.0015L72.6568 7.18546H67.5928L76.2278 29.4125H80.8835L86.6789 13.9418L92.4757 29.4125H97.44L105.767 7.18386H100.706L94.9587 22.7067ZM34.5234 15.9843C35.1663 12.9265 37.2552 10.8531 40.1442 10.8531C43.2624 10.8531 45.1439 13.0548 45.6622 15.9843H34.5234ZM40.1896 6.71612C33.8625 6.71612 29.3772 11.9004 29.3772 18.207V18.2929C29.3772 25.1035 34.3211 29.7428 40.732 29.7428C44.7949 29.7428 47.687 28.1114 49.7799 25.6052L46.8057 22.9721C45.0477 24.6835 43.2884 25.6052 40.8182 25.6052C37.5484 25.6052 34.9936 23.5977 34.4473 20.0059H50.7043C50.7448 19.5046 50.7885 19.0436 50.7885 18.586C50.7885 12.233 47.2264 6.71612 40.1896 6.71612ZM21.4678 21.2858L6.35795 0.536324H0.448242V29.4088H5.43984V7.39393L21.4678 29.4088H26.4601V0.536324H21.4678V21.2858ZM58.8948 22.5335V11.4023H64.7551V7.17712H58.8948V0.535645H53.8996V23.3593C53.8996 28.1334 56.4997 29.7429 60.1722 29.7429C62.0327 29.7429 63.6968 29.3298 64.9371 28.6297L64.9533 24.8512C63.9631 25.3451 62.6547 25.4724 61.5416 25.4724C59.8468 25.4724 58.8948 24.4684 58.8948 22.5335Z" fill="#003366"/>
<path fill-rule="evenodd" clip-rule="evenodd" d="M189.402 18.2822H189.394L189.398 18.2879L189.402 18.2822Z" fill="#FF6666"/>
<path fill-rule="evenodd" clip-rule="evenodd" d="M1.29649 47.7187V40.2222H0.448242V47.7187H1.29649Z" fill="#003366"/>
<path fill-rule="evenodd" clip-rule="evenodd" d="M3.3584 42.1824H4.18522V43.1467C4.54976 42.5464 5.12969 42.0645 6.08547 42.0645C7.4273 42.0645 8.21112 42.9641 8.21112 44.2811V47.7186H7.38417V44.4844C7.38417 43.4561 6.82585 42.8146 5.84901 42.8146C4.89322 42.8146 4.18522 43.5098 4.18522 44.5493V47.7186H3.3584V42.1824Z" fill="#003366"/>
<path fill-rule="evenodd" clip-rule="evenodd" d="M10.2601 46.2518V42.9105H9.4873V42.1824H10.2601V40.512H11.087V42.1824H12.8473V42.9105H11.087V46.1445C11.087 46.819 11.4629 47.0652 12.0211 47.0652C12.3001 47.0652 12.5367 47.0117 12.8262 46.8728V47.5793C12.5366 47.7295 12.2251 47.8146 11.8277 47.8146C10.9367 47.8146 10.2601 47.3759 10.2601 46.2518Z" fill="#003366"/>
<path fill-rule="evenodd" clip-rule="evenodd" d="M18.2163 44.6235C18.1195 43.6173 17.5397 42.7603 16.4446 42.7603C15.4892 42.7603 14.7588 43.553 14.6412 44.6235H18.2163ZM16.5949 47.1294C17.357 47.1294 17.894 46.8188 18.3448 46.3476L18.8601 46.8083C18.3017 47.4292 17.6259 47.8468 16.5736 47.8468C15.0487 47.8468 13.8037 46.6794 13.8037 44.956C13.8037 43.3495 14.9308 42.0645 16.466 42.0645C18.1087 42.0645 19.0532 43.3705 19.0532 44.9983C19.0532 45.0737 19.0531 45.1591 19.041 45.2871H14.6394C14.7569 46.4553 15.6177 47.1294 16.5949 47.1294Z" fill="#003366"/>
<path fill-rule="evenodd" clip-rule="evenodd" d="M20.501 42.1825H21.3279V43.6281C21.7356 42.7071 22.5411 42.0429 23.5931 42.0862V42.9753H23.5291C22.3158 42.9753 21.328 43.8423 21.328 45.5127V47.7187H20.5011L20.501 42.1825Z" fill="#003366"/>
<path fill-rule="evenodd" clip-rule="evenodd" d="M24.8486 42.1824H25.6748V43.1467C26.0398 42.5464 26.6202 42.0645 27.5757 42.0645C28.9172 42.0645 29.701 42.9641 29.701 44.2811V47.7186H28.8748V44.4844C28.8748 43.4561 28.3161 42.8146 27.3393 42.8146C26.3838 42.8146 25.6748 43.5098 25.6748 44.5493V47.7186H24.8486V42.1824Z" fill="#003366"/>
<path fill-rule="evenodd" clip-rule="evenodd" d="M35.1219 45.6841V45.1698C34.7138 45.052 34.1768 44.9346 33.5009 44.9346C32.47 44.9346 31.8796 45.3838 31.8796 46.0483V46.0686C31.8796 46.7648 32.5237 47.1721 33.2752 47.1721C34.2951 47.1721 35.1219 46.5625 35.1219 45.6841ZM31.042 46.1125V46.0922C31.042 44.9031 32.0084 44.2825 33.4147 44.2825C34.123 44.2825 34.6173 44.3794 35.1109 44.5183V44.3465C35.1109 43.3616 34.5097 42.8477 33.4681 42.8477C32.8136 42.8477 32.2983 43.0089 31.783 43.2442L31.5359 42.569C32.1481 42.2907 32.7385 42.0977 33.554 42.0977C34.3382 42.0977 34.95 42.3123 35.3474 42.7082C35.7338 43.0942 35.9275 43.6292 35.9275 44.3357V47.7198H35.111V46.8948C34.7246 47.3878 34.0913 47.8375 33.1142 47.8375C32.0729 47.8375 31.042 47.2477 31.042 46.1125Z" fill="#003366"/>
<path fill-rule="evenodd" clip-rule="evenodd" d="M37.9147 46.2518V42.9105H37.1416V42.1824H37.9147V40.512H38.7415V42.1824H40.5022V42.9105H38.7415V46.1445C38.7415 46.819 39.1174 47.0652 39.6753 47.0652C39.954 47.0652 40.1902 47.0117 40.4808 46.8728V47.5793C40.1904 47.7295 39.8794 47.8146 39.482 47.8146C38.591 47.8146 37.9147 47.3759 37.9147 46.2518Z" fill="#003366"/>
<path fill-rule="evenodd" clip-rule="evenodd" d="M42.0454 47.7187H43.005V42.1824H42.0454V47.7187ZM41.9834 41.1329H43.0799V40.2222H41.9834V41.1329Z" fill="#003366"/>
<path fill-rule="evenodd" clip-rule="evenodd" d="M49.3789 44.9767V44.9565C49.3789 43.7677 48.4879 42.793 47.3174 42.793C46.1152 42.793 45.2883 43.7677 45.2883 44.9352V44.9554C45.2883 46.1439 46.1693 47.1075 47.3391 47.1075C48.5417 47.1075 49.3789 46.1445 49.3789 44.9767ZM44.4404 44.9767V44.9565C44.4404 43.393 45.6643 42.0649 47.3391 42.0649C49.0032 42.0649 50.2272 43.371 50.2272 44.9352V44.9554C50.2272 46.5186 48.9925 47.8463 47.3174 47.8463C45.6536 47.8463 44.4404 46.5409 44.4404 44.9767Z" fill="#003366"/>
<path fill-rule="evenodd" clip-rule="evenodd" d="M51.7197 42.1824H52.546V43.1467C52.9109 42.5464 53.491 42.0645 54.4462 42.0645C55.7883 42.0645 56.5721 42.9641 56.5721 44.2811V47.7186H55.7453V44.4844C55.7453 43.4561 55.1872 42.8146 54.2104 42.8146C53.2546 42.8146 52.546 43.5098 52.546 44.5493V47.7186H51.7197V42.1824Z" fill="#003366"/>
<path fill-rule="evenodd" clip-rule="evenodd" d="M61.9927 45.6841V45.1698C61.5849 45.052 61.0476 44.9346 60.3717 44.9346C59.3408 44.9346 58.7507 45.3838 58.7507 46.0483V46.0686C58.7507 46.7648 59.3945 47.1721 60.1459 47.1721C61.1662 47.1721 61.9927 46.5625 61.9927 45.6841ZM57.9131 46.1125V46.0922C57.9131 44.9031 58.8792 44.2825 60.2855 44.2825C60.9941 44.2825 61.4881 44.3794 61.9817 44.5183V44.3465C61.9817 43.3616 61.3806 42.8477 60.3393 42.8477C59.6844 42.8477 59.1691 43.0089 58.6535 43.2442L58.4072 42.569C59.019 42.2907 59.6095 42.0977 60.4253 42.0977C61.2091 42.0977 61.8209 42.3123 62.2183 42.7082C62.6051 43.0942 62.7981 43.6292 62.7981 44.3357V47.7198H61.9819V46.8948C61.5959 47.3878 60.9623 47.8375 59.9852 47.8375C58.9439 47.8375 57.9131 47.2477 57.9131 46.1125Z" fill="#003366"/>
<path fill-rule="evenodd" clip-rule="evenodd" d="M65.4483 47.7187V40.2222H64.6221V47.7187H65.4483Z" fill="#003366"/>
<path fill-rule="evenodd" clip-rule="evenodd" d="M73.4365 44.3029C74.6818 44.3029 75.498 43.6386 75.498 42.6534V42.6332C75.498 41.5616 74.6928 41.005 73.4792 41.005H71.5793V44.3033L73.4365 44.3029ZM70.7314 40.2222H73.544C75.2401 40.2222 76.3565 41.1222 76.3565 42.6004V42.6207C76.3565 44.2385 75.004 45.0732 73.4041 45.0732H71.5793V47.7183H70.7314V40.2222Z" fill="#003366"/>
<path fill-rule="evenodd" clip-rule="evenodd" d="M81.3156 45.6841V45.1698C80.9075 45.052 80.3709 44.9346 79.6943 44.9346C78.6637 44.9346 78.0733 45.3838 78.0733 46.0483V46.0686C78.0733 46.7648 78.7178 47.1721 79.4692 47.1721C80.4888 47.1721 81.3156 46.5625 81.3156 45.6841ZM77.2354 46.1125V46.0922C77.2354 44.9031 78.2022 44.2825 79.6085 44.2825C80.3175 44.2825 80.8107 44.3794 81.3049 44.5183V44.3465C81.3049 43.3616 80.7035 42.8477 79.6622 42.8477C79.0077 42.8477 78.4921 43.0089 77.9768 43.2442L77.7301 42.569C78.3418 42.2907 78.932 42.0977 79.7482 42.0977C80.532 42.0977 81.1441 42.3123 81.5412 42.7082C81.928 43.0942 82.1209 43.6292 82.1209 44.3357V47.7198H81.3051V46.8948C80.9178 47.3878 80.2848 47.8375 79.308 47.8375C78.2667 47.8375 77.2354 47.2477 77.2354 46.1125Z" fill="#003366"/>
<path fill-rule="evenodd" clip-rule="evenodd" d="M83.3329 49.1857L83.612 48.5318C83.8805 48.6716 84.1273 48.7356 84.4813 48.7356C84.9758 48.7356 85.2867 48.4784 85.6197 47.697L83.0967 42.1824H84.009L86.0271 46.7976L87.8091 42.1824H88.6901L86.3601 47.9005C85.8876 49.0463 85.3512 49.464 84.5136 49.464C84.0521 49.464 83.7086 49.3676 83.3329 49.1857Z" fill="#003366"/>
<path fill-rule="evenodd" clip-rule="evenodd" d="M89.999 42.1824H90.8256V43.1143C91.1905 42.5677 91.6855 42.0645 92.6186 42.0645C93.5205 42.0645 94.1003 42.5464 94.4009 43.1673C94.7982 42.5567 95.3887 42.0645 96.3548 42.0645C97.6319 42.0645 98.416 42.9211 98.416 44.2918V47.7186H97.5891V44.4844C97.5891 43.4138 97.0525 42.8146 96.1508 42.8146C95.3136 42.8146 94.6153 43.4348 94.6153 44.5277V47.7186H93.7997V44.4633C93.7997 43.4248 93.2517 42.8146 92.3724 42.8146C91.4918 42.8146 90.8256 43.5417 90.8256 44.5596V47.7186H89.999V42.1824Z" fill="#003366"/>
<path fill-rule="evenodd" clip-rule="evenodd" d="M104.277 44.6235C104.18 43.6173 103.601 42.7603 102.505 42.7603C101.551 42.7603 100.82 43.553 100.702 44.6235H104.277ZM102.655 47.1294C103.418 47.1294 103.954 46.8188 104.405 46.3476L104.921 46.8083C104.363 47.4292 103.687 47.8468 102.634 47.8468C101.11 47.8468 99.8643 46.6794 99.8643 44.956C99.8643 43.3495 100.991 42.0645 102.527 42.0645C104.169 42.0645 105.115 43.3705 105.115 44.9983C105.115 45.0737 105.115 45.1591 105.103 45.2871H100.701C100.819 46.4553 101.679 47.1294 102.655 47.1294Z" fill="#003366"/>
<path fill-rule="evenodd" clip-rule="evenodd" d="M106.563 42.1824H107.39V43.1467C107.755 42.5464 108.335 42.0645 109.29 42.0645C110.632 42.0645 111.417 42.9641 111.417 44.2811V47.7186H110.589V44.4844C110.589 43.4561 110.031 42.8146 109.054 42.8146C108.098 42.8146 107.39 43.5098 107.39 44.5493V47.7186H106.563V42.1824Z" fill="#003366"/>
<path fill-rule="evenodd" clip-rule="evenodd" d="M113.465 46.2518V42.9105H112.692V42.1824H113.465V40.512H114.292V42.1824H116.052V42.9105H114.292V46.1445C114.292 46.819 114.667 47.0652 115.226 47.0652C115.505 47.0652 115.741 47.0117 116.031 46.8728V47.5793C115.741 47.7295 115.429 47.8146 115.033 47.8146C114.142 47.8146 113.465 47.3759 113.465 46.2518Z" fill="#003366"/>
<path fill-rule="evenodd" clip-rule="evenodd" d="M120.378 46.6268L120.904 46.005C121.688 46.7121 122.439 47.0652 123.48 47.0652C124.49 47.0652 125.155 46.5303 125.155 45.7908V45.7705C125.155 45.0744 124.78 44.6783 123.202 44.3459C121.473 43.9713 120.679 43.4146 120.679 42.1832V42.1629C120.679 40.9844 121.719 40.1174 123.148 40.1174C124.243 40.1174 125.027 40.4281 125.789 41.0388L125.294 41.6919C124.596 41.124 123.899 40.8778 123.126 40.8778C122.149 40.8778 121.527 41.4131 121.527 42.088V42.1082C121.527 42.8157 121.913 43.2117 123.566 43.5651C125.241 43.9289 126.014 44.5388 126.014 45.6852V45.7055C126.014 46.9902 124.941 47.826 123.448 47.826C122.256 47.826 121.28 47.4294 120.378 46.6268Z" fill="#003366"/>
<path fill-rule="evenodd" clip-rule="evenodd" d="M132.197 44.9767V44.9565C132.197 43.7677 131.306 42.793 130.136 42.793C128.933 42.793 128.106 43.7677 128.106 44.9352V44.9554C128.106 46.1439 128.987 47.1075 130.157 47.1075C131.359 47.1075 132.197 46.1445 132.197 44.9767ZM127.259 44.9767V44.9565C127.259 43.393 128.482 42.0649 130.157 42.0649C131.821 42.0649 133.045 43.371 133.045 44.9352V44.9554C133.045 46.5186 131.81 47.8463 130.136 47.8463C128.471 47.8463 127.259 46.5409 127.259 44.9767Z" fill="#003366"/>
<path fill-rule="evenodd" clip-rule="evenodd" d="M135.439 47.7187V40.2222H134.612V47.7187H135.439Z" fill="#003366"/>
<path fill-rule="evenodd" clip-rule="evenodd" d="M137.274 45.6195V42.1824H138.101V45.416C138.101 46.4446 138.66 47.0868 139.636 47.0868C140.581 47.0868 141.3 46.3909 141.3 45.352V42.1824H142.117V47.7186H141.3V46.7543C140.925 47.3542 140.355 47.8362 139.401 47.8362C138.058 47.8362 137.274 46.9369 137.274 45.6195Z" fill="#003366"/>
<path fill-rule="evenodd" clip-rule="evenodd" d="M144.263 46.2518V42.9105H143.491V42.1824H144.263V40.512H145.09V42.1824H146.851V42.9105H145.09V46.1445C145.09 46.819 145.466 47.0652 146.025 47.0652C146.304 47.0652 146.54 47.0117 146.829 46.8728V47.5793C146.539 47.7295 146.229 47.8146 145.831 47.8146C144.94 47.8146 144.263 47.3759 144.263 46.2518Z" fill="#003366"/>
<path fill-rule="evenodd" clip-rule="evenodd" d="M148.393 47.7187H149.353V42.1824H148.393V47.7187ZM148.331 41.1329H149.428V40.2222H148.331V41.1329Z" fill="#003366"/>
<path fill-rule="evenodd" clip-rule="evenodd" d="M155.729 44.9767V44.9565C155.729 43.7677 154.837 42.793 153.667 42.793C152.464 42.793 151.638 43.7677 151.638 44.9352V44.9554C151.638 46.1439 152.518 47.1075 153.689 47.1075C154.891 47.1075 155.729 46.1445 155.729 44.9767ZM150.79 44.9767V44.9565C150.79 43.393 152.014 42.0649 153.689 42.0649C155.353 42.0649 156.576 43.371 156.576 44.9352V44.9554C156.576 46.5186 155.342 47.8463 153.667 47.8463C152.003 47.8463 150.79 46.5409 150.79 44.9767Z" fill="#003366"/>
<path fill-rule="evenodd" clip-rule="evenodd" d="M158.067 42.1824H158.895V43.1467C159.259 42.5464 159.839 42.0645 160.794 42.0645C162.137 42.0645 162.92 42.9641 162.92 44.2811V47.7186H162.094V44.4844C162.094 43.4561 161.535 42.8146 160.558 42.8146C159.603 42.8146 158.895 43.5098 158.895 44.5493V47.7186H158.067V42.1824Z" fill="#003366"/>
<path fill-rule="evenodd" clip-rule="evenodd" d="M164.218 47.0116L164.637 46.4233C165.238 46.8726 165.904 47.1295 166.558 47.1295C167.224 47.1295 167.707 46.7868 167.707 46.2518V46.2315C167.707 45.6749 167.053 45.4601 166.323 45.2569C165.453 45.0111 164.486 44.7107 164.486 43.6938V43.6735C164.486 42.7205 165.281 42.0886 166.376 42.0886C167.053 42.0886 167.803 42.3244 168.373 42.6989L167.997 43.3201C167.482 42.9879 166.892 42.7845 166.354 42.7845C165.7 42.7845 165.281 43.1267 165.281 43.5875V43.6078C165.281 44.1324 165.968 44.3356 166.709 44.5608C167.568 44.818 168.491 45.149 168.491 46.1456V46.1658C168.491 47.2154 167.622 47.826 166.516 47.826C165.721 47.826 164.841 47.5157 164.218 47.0116Z" fill="#003366"/>
</svg>
