<svg width="79" height="78" viewBox="0 0 79 78" fill="none" xmlns="http://www.w3.org/2000/svg">
<g clip-path="url(#clip0_1432_3096)">
<mask id="mask0_1432_3096" style="mask-type:luminance" maskUnits="userSpaceOnUse" x="0" y="0" width="79" height="78">
<path d="M0.491211 0H78.4912V78H0.491211V0Z" fill="white"/>
</mask>
<g mask="url(#mask0_1432_3096)">
<path d="M0.491211 0H78.4912V78H0.491211V0Z" fill="#8934AD"/>
<path d="M15.4286 51.6581C15.4286 52.2176 15.2091 52.6867 14.7703 53.0652C14.3314 53.4436 13.8185 53.6328 13.2316 53.6328C12.9683 53.6328 12.7133 53.589 12.4664 53.5012C12.6035 53.5012 12.7269 53.4848 12.8367 53.4519C12.8586 53.4464 12.9793 53.3998 13.1988 53.3119C13.5169 53.1914 13.7638 53.0295 13.9392 52.8266C14.1587 52.5742 14.2683 52.2697 14.2683 51.9131C14.2683 51.7926 14.2574 51.6801 14.2355 51.5758C14.1861 51.2686 14.0353 51.0383 13.7829 50.8846C13.5361 50.7311 13.2234 50.6543 12.8449 50.6543C12.7133 50.6543 12.5734 50.6625 12.4252 50.679L12.1127 50.7201V55.5748C12.1127 55.7339 12.1209 55.8738 12.1373 55.9945C12.1537 56.1095 12.1975 56.2165 12.2689 56.3153C12.3127 56.3812 12.3649 56.4443 12.4252 56.5046C12.494 56.5614 12.5685 56.611 12.6474 56.6527H10.6151C10.7248 56.5978 10.7906 56.5622 10.8125 56.5457C10.8673 56.5073 10.9168 56.436 10.9606 56.3318C11.01 56.2275 11.043 56.1095 11.0594 55.9779C11.0758 55.8408 11.084 55.7037 11.084 55.5665V50.9504V50.8436C11.084 50.6954 11.0758 50.5802 11.0594 50.4979C11.0484 50.4102 11.0101 50.3169 10.9442 50.2182C10.9047 50.1576 10.8577 50.1023 10.8043 50.0536C10.755 50.0097 10.6863 49.9659 10.5986 49.9219H13.1247C13.7446 49.9219 14.2712 50.0673 14.7044 50.3581C15.1872 50.6817 15.4286 51.1151 15.4286 51.6581ZM26.138 53.4683C26.138 54.357 25.8226 55.1277 25.1917 55.7804C24.5115 56.4826 23.6421 56.8337 22.5834 56.8337C21.4205 56.8337 20.477 56.4991 19.7528 55.8298C19.0288 55.1551 18.6667 54.3131 18.6667 53.3037C18.6667 52.3602 18.9767 51.5485 19.5965 50.8682C20.2713 50.1276 21.1461 49.7573 22.2213 49.7573C23.5215 49.7573 24.5226 50.1469 25.2247 50.9258C25.8335 51.6061 26.138 52.4535 26.138 53.4683ZM24.9943 53.3285C24.9943 52.5495 24.7913 51.9049 24.3853 51.3948C23.9136 50.8024 23.2416 50.5061 22.3695 50.5061C21.585 50.5061 20.9569 50.8024 20.4852 51.3948C20.0573 51.9324 19.8434 52.5906 19.8434 53.3695C19.8434 54.165 20.0903 54.826 20.584 55.3527C21.0831 55.8738 21.7166 56.1343 22.4846 56.1343C23.2307 56.1343 23.8451 55.838 24.3279 55.2457C24.7721 54.6971 24.9943 54.058 24.9943 53.3285ZM34.1817 55.2785L33.6634 56.6527H29.3683C29.4285 56.6253 29.4916 56.5978 29.5576 56.5704C29.65 56.5164 29.7244 56.4362 29.7714 56.34C29.8265 56.2405 29.8628 56.1317 29.8785 56.0191C29.9003 55.9039 29.9113 55.7777 29.9113 55.6406V51.0081V50.8928C29.9113 50.7229 29.9031 50.5912 29.8867 50.4979C29.8757 50.4047 29.8373 50.3059 29.7714 50.2017C29.7275 50.1249 29.6809 50.07 29.6316 50.0372C29.5877 50.0042 29.5136 49.9659 29.4094 49.9219H31.4747C31.3759 49.9659 31.3019 50.0069 31.2525 50.0454C31.2031 50.0784 31.1538 50.1331 31.1044 50.21C31.0386 50.3196 30.9974 50.4321 30.981 50.5473C30.9646 50.6625 30.9564 50.8298 30.9564 51.0493V55.7804C31.0056 55.797 31.1812 55.8244 31.4829 55.8628C31.7901 55.9011 32.089 55.9203 32.3798 55.9203C32.7144 55.9203 32.9777 55.8847 33.1696 55.8134C33.3209 55.754 33.4717 55.6937 33.6222 55.6324C33.7759 55.5665 33.9624 55.4486 34.1817 55.2785ZM44.7692 56.6527H42.5476C42.6627 56.6417 42.7861 56.5649 42.9179 56.4222C42.9617 56.373 42.9837 56.3126 42.9837 56.2413C42.9837 56.1754 42.9644 56.0904 42.9261 55.9862L42.1855 54.1348H39.643L39.0258 55.8134C38.9823 55.932 38.9601 56.0574 38.96 56.1837C38.96 56.3153 38.9902 56.4113 39.0506 56.4716C39.1547 56.5704 39.2617 56.6308 39.3715 56.6527H37.4049C37.4786 56.6189 37.55 56.5804 37.6188 56.5374C37.6791 56.4935 37.7395 56.4443 37.7998 56.3894C37.8875 56.3016 37.9623 56.2019 38.0219 56.0931C38.0604 56.0218 38.1125 55.9066 38.1783 55.7476L40.2271 50.6378C40.2492 50.5829 40.2656 50.5364 40.2765 50.4979C40.2875 50.454 40.293 50.4075 40.293 50.3581C40.293 50.3196 40.2847 50.2703 40.2683 50.21C40.2189 50.0509 40.1037 49.9549 39.9227 49.9219H41.5849L43.8229 55.4431C43.8613 55.5529 43.9052 55.6652 43.9546 55.7804C44.004 55.8902 44.0698 56.0027 44.152 56.1179C44.2326 56.2252 44.3236 56.3244 44.4235 56.414C44.5169 56.4964 44.632 56.5759 44.7692 56.6527ZM41.9468 53.4107L40.943 50.86L39.9227 53.4107H41.9468ZM54.4266 56.6527C54.4101 56.6581 54.3195 56.6636 54.1551 56.6691C53.9959 56.6746 53.8039 56.6773 53.5791 56.6773H53.4557C53.1155 56.6773 52.8686 56.6609 52.7151 56.628C52.567 56.5896 52.3805 56.4607 52.1555 56.2413C51.9745 56.0657 51.7579 55.8161 51.5055 55.4925C51.282 55.2028 51.0598 54.912 50.839 54.6203C50.6854 54.4283 50.4852 54.1375 50.2384 53.7481C50.0518 53.4519 49.9312 53.2572 49.8763 53.1639C49.9751 53.1639 50.1013 53.1475 50.2548 53.1145C50.4123 53.0748 50.5664 53.0226 50.7155 52.9582C50.9899 52.8375 51.2038 52.6867 51.3575 52.5057C51.5495 52.2807 51.6454 52.0174 51.6454 51.7157C51.6454 51.6828 51.6426 51.6444 51.6372 51.6004C51.6317 51.5512 51.629 51.5127 51.629 51.4854C51.585 51.211 51.4424 50.9916 51.201 50.827C50.9597 50.6571 50.6608 50.5719 50.3042 50.5719C50.1561 50.5719 49.9888 50.594 49.8023 50.6378L49.646 50.679V55.7228C49.646 55.871 49.6487 55.9862 49.6542 56.0685C49.6651 56.1453 49.6925 56.2275 49.7364 56.3153C49.7804 56.4031 49.8241 56.4689 49.8681 56.5128C49.912 56.5511 49.9806 56.5978 50.0737 56.6527H48.1155C48.2087 56.6087 48.2828 56.5649 48.3376 56.521C48.398 56.4771 48.4474 56.4113 48.4857 56.3236C48.5282 56.2354 48.556 56.1408 48.5681 56.0437C48.5845 55.9451 48.5927 55.8353 48.5927 55.7146V50.9422C48.5927 50.7393 48.579 50.5912 48.5515 50.4979C48.5294 50.3988 48.4905 50.3042 48.4364 50.2182C48.3595 50.092 48.2444 49.9932 48.0908 49.9219H50.6581C51.2286 49.9219 51.7003 50.0563 52.0733 50.3251C52.4957 50.6268 52.7069 51.0547 52.7069 51.6088C52.7069 51.9653 52.5588 52.3191 52.2625 52.6701C51.9663 53.0158 51.6015 53.2461 51.1682 53.3613L51.0694 53.3861L52.7151 55.4677C52.8248 55.5994 52.9729 55.7476 53.1594 55.9121C53.3129 56.0437 53.4557 56.1507 53.5873 56.233C53.7189 56.3099 53.8588 56.3894 54.0069 56.4716C54.1276 56.5374 54.2674 56.5978 54.4266 56.6527ZM60.0059 56.6527H57.9487C58.02 56.6142 58.0749 56.5841 58.1134 56.5622C58.2011 56.5073 58.2642 56.4388 58.3026 56.3564C58.3464 56.2687 58.3794 56.1726 58.4013 56.0685C58.4288 55.9587 58.4425 55.838 58.4425 55.7064V50.9504V50.8436C58.4425 50.6899 58.4343 50.5719 58.4178 50.4897C58.4013 50.4075 58.3575 50.3087 58.286 50.1934C58.2148 50.0784 58.1024 49.9878 57.9487 49.9219H59.9975C59.9098 49.9604 59.8385 50.0015 59.7836 50.0454C59.7247 50.094 59.6746 50.1525 59.6356 50.2182C59.5971 50.2895 59.5643 50.4047 59.5368 50.5637C59.5094 50.7174 59.4956 50.8573 59.4956 50.9834V55.731C59.4956 55.8628 59.5039 55.9724 59.5204 56.0603C59.5368 56.1425 59.5752 56.2441 59.6356 56.3646C59.6739 56.436 59.7206 56.4935 59.7754 56.5374C59.8358 56.5759 59.9126 56.6142 60.0059 56.6527ZM68.3851 54.7025C68.3851 55.3663 68.0861 55.8957 67.4881 56.2906C66.9451 56.6472 66.2897 56.8255 65.5216 56.8255C65.3022 56.8255 65.1048 56.8173 64.9292 56.8007C64.7486 56.7824 64.5697 56.7494 64.3944 56.7021L63.7773 56.5457L63.5058 55.2539L63.6456 55.3527C64.3313 55.8353 64.9895 56.0767 65.6204 56.0767C66.0921 56.0767 66.4706 55.9862 66.7559 55.8052C67.0465 55.6187 67.192 55.3855 67.192 55.1058C67.192 54.7547 67.0604 54.4695 66.7971 54.25C66.5393 54.0252 66.0153 53.7426 65.2255 53.4025C64.655 53.1557 64.2435 52.8594 63.9911 52.5139C63.7882 52.234 63.6868 51.9186 63.6868 51.5676C63.6868 50.9422 63.9335 50.476 64.4273 50.1688C64.8606 49.9001 65.4586 49.7657 66.2211 49.7657C66.5063 49.7657 66.7614 49.7821 66.9863 49.8149C67.2112 49.8424 67.4471 49.8946 67.6939 49.9713L67.8008 50.0042V51.1561L67.6774 51.041C67.4909 50.8709 67.2524 50.7311 66.9616 50.6213C66.6835 50.5129 66.3878 50.4571 66.0893 50.4567C65.7548 50.4567 65.4668 50.5364 65.2255 50.6954C64.9841 50.8491 64.8634 51.0575 64.8634 51.3207C64.8634 51.6719 65.017 51.968 65.3241 52.2094C65.5436 52.385 65.9495 52.6016 66.542 52.8594C67.1399 53.1117 67.5869 53.3778 67.8832 53.6576C68.2178 53.9758 68.3851 54.324 68.3851 54.7025ZM27.1049 65.0831C27.1049 65.6372 26.8635 66.1198 26.3808 66.5313C25.8651 66.9701 25.2179 67.1895 24.439 67.1895H21.8306C21.9129 67.1565 21.976 67.1237 22.0199 67.0907C22.0693 67.0579 22.1158 67.0112 22.1597 66.9509C22.2256 66.8577 22.2695 66.7643 22.2914 66.6711C22.3133 66.5778 22.3244 66.4655 22.3244 66.3338V61.5367V61.4215V61.3228C22.3244 61.1857 22.3133 61.0732 22.2914 60.9854C22.2764 60.8956 22.2397 60.8108 22.1844 60.7385C22.1351 60.6617 22.0802 60.6041 22.0199 60.5658C21.9497 60.5226 21.8752 60.4867 21.7977 60.4588H24.4226C25.0095 60.4588 25.495 60.5932 25.879 60.8619C26.2629 61.1308 26.4549 61.4599 26.4549 61.8494C26.4549 62.2663 26.3726 62.5734 26.2081 62.7709C26.1257 62.8697 25.9255 63.0095 25.6073 63.1906L25.4923 63.2564L25.6155 63.3058C26.1202 63.5087 26.4796 63.7199 26.6935 63.9394C26.9678 64.2245 27.1049 64.6058 27.1049 65.0831ZM25.3276 62.0057C25.2728 61.6601 25.122 61.4078 24.8751 61.2486C24.6831 61.1226 24.4417 61.0595 24.1509 61.0595C23.9425 61.0595 23.778 61.0869 23.6573 61.1418L23.3857 61.257V63.1577L23.789 63.1659C24.1675 63.1659 24.5048 63.089 24.8011 62.9355C25.163 62.749 25.3441 62.4912 25.3441 62.1621C25.3441 62.1346 25.3386 62.0826 25.3276 62.0057ZM25.953 65.1241C25.953 64.6854 25.772 64.3452 25.4099 64.1039C25.0917 63.89 24.7023 63.783 24.2415 63.783C24.1208 63.783 23.9974 63.7913 23.8712 63.8077L23.3939 63.8818V66.3173L23.5585 66.3913C23.8218 66.512 24.1153 66.5723 24.439 66.5723C24.8614 66.5723 25.2097 66.46 25.4839 66.235C25.7966 65.9772 25.953 65.6069 25.953 65.1241ZM37.7028 67.1895H35.4812C35.5964 67.1786 35.7198 67.1018 35.8515 66.9591C35.8954 66.9098 35.9173 66.8495 35.9173 66.7782C35.9173 66.7122 35.8981 66.6272 35.8597 66.5231L35.1192 64.6716H32.5767L31.9595 66.3503C31.916 66.4689 31.8937 66.5942 31.8937 66.7205C31.8937 66.8522 31.924 66.9481 31.9842 67.0085C32.0885 67.1073 32.1955 67.1676 32.3052 67.1895H30.3387C30.4123 67.1557 30.4838 67.1172 30.5525 67.0743C30.6129 67.0304 30.6732 66.9811 30.7336 66.9262C30.8213 66.8385 30.896 66.7387 30.9557 66.63C30.9941 66.5587 31.0463 66.4434 31.1121 66.2844L33.1609 61.1746C33.1828 61.1197 33.1993 61.0732 33.2103 61.0348C33.2212 60.9908 33.2267 60.9443 33.2267 60.8949C33.2267 60.8565 33.2185 60.8072 33.2021 60.7468C33.1527 60.5877 33.0375 60.4918 32.8564 60.4588H34.5185L36.7567 65.98C36.795 66.0897 36.8389 66.2021 36.8883 66.3173C36.9376 66.427 37.0034 66.5395 37.0858 66.6547C37.1664 66.7621 37.2573 66.8613 37.3573 66.9509C37.4505 67.0332 37.5657 67.1127 37.7028 67.1895ZM34.8806 63.9476L33.8767 61.3968L32.8564 63.9476H34.8806ZM47.9115 60.4588C47.6921 60.5465 47.533 60.6838 47.4343 60.8703C47.3929 60.9431 47.3598 61.0204 47.3355 61.1006C47.3136 61.1828 47.3027 61.2844 47.3027 61.4051V61.5531L47.3109 67.5268C47.1518 67.4776 47.0146 67.4227 46.8994 67.3623C46.7843 67.3075 46.6554 67.2252 46.5127 67.1155C46.4188 67.049 46.3307 66.9747 46.2494 66.8932C46.2111 66.8549 46.0931 66.7095 45.8957 66.4571L42.2917 61.907L42.2999 66.1116V66.2186C42.2999 66.3503 42.3136 66.4709 42.3411 66.5806C42.3739 66.6903 42.4452 66.8192 42.555 66.9674C42.5825 67.0003 42.6372 67.0442 42.7196 67.0991C42.8018 67.1483 42.8622 67.1786 42.9006 67.1895H40.9341C41.0118 67.1588 41.0863 67.1202 41.1562 67.0743C41.255 67.0085 41.3317 66.9317 41.3866 66.844C41.4477 66.7488 41.4896 66.6425 41.51 66.5313C41.5374 66.4106 41.5511 66.3063 41.5511 66.2186V61.4955C41.5511 61.3639 41.5429 61.2459 41.5265 61.1418C41.5155 61.0375 41.4853 60.947 41.4359 60.8703C41.3591 60.7605 41.2878 60.6783 41.222 60.6234C41.1616 60.5631 41.0712 60.5082 40.9505 60.4588H42.5879C42.5989 60.541 42.6098 60.5932 42.6208 60.6152C42.6538 60.6754 42.6757 60.7139 42.6866 60.7303C42.7251 60.7906 42.7716 60.8592 42.8265 60.9361L46.5375 65.6179V61.5367C46.5375 61.3611 46.5265 61.2213 46.5045 61.117C46.4881 61.0129 46.4414 60.9004 46.3646 60.7797C46.323 60.711 46.2702 60.6498 46.2084 60.5986C46.148 60.5492 46.0711 60.5027 45.9779 60.4588H47.9115ZM53.1783 67.1895H51.1459C51.2336 67.1401 51.3022 67.0934 51.3516 67.0497C51.4065 67.0057 51.4502 66.9454 51.4832 66.8686C51.5215 66.7918 51.5518 66.6958 51.5737 66.5806C51.6012 66.4655 51.6149 66.3393 51.6149 66.2021V61.4791V61.3721C51.6149 61.2185 51.6067 61.1006 51.5902 61.0183C51.5737 60.9361 51.5326 60.8428 51.4668 60.7385C51.4229 60.6672 51.3762 60.6123 51.3268 60.574C51.283 60.5356 51.2172 60.4972 51.1293 60.4588H53.1783C53.0904 60.4918 53.0191 60.5301 52.9643 60.574C52.9094 60.6123 52.8574 60.6699 52.808 60.7468C52.7422 60.8455 52.701 60.9388 52.6846 61.0265C52.6736 61.1143 52.6681 61.2404 52.6681 61.4051V66.1198C52.6681 66.2954 52.6736 66.438 52.6846 66.5477C52.701 66.652 52.7422 66.7698 52.808 66.9015C52.8463 66.9674 52.8957 67.0249 52.9561 67.0743C53.0259 67.1203 53.1004 67.1589 53.1783 67.1895ZM57.2183 67.1895H57.0208C56.9495 67.1895 56.8589 67.1922 56.7493 67.1977C56.4806 67.1977 56.231 67.1895 56.0005 67.1731C55.7701 67.1511 55.6083 67.1155 55.515 67.0661C55.3779 67.0003 55.3011 66.9618 55.2847 66.9509C55.1804 66.8905 55.0652 66.7725 54.939 66.5971L52.7914 63.7089L54.5523 61.3886C54.5853 61.3392 54.6181 61.2707 54.6511 61.1828C54.684 61.0951 54.7005 61.0129 54.7005 60.9361C54.7005 60.8537 54.6867 60.7879 54.6593 60.7385C54.599 60.6014 54.4892 60.5082 54.3302 60.4588H56.272L53.8777 63.495L55.9841 66.2679C56.0499 66.3557 56.1157 66.4352 56.1816 66.5065C56.2654 66.5826 56.3533 66.654 56.4448 66.7205C56.6368 66.8631 56.7739 66.9591 56.8562 67.0085C56.9386 67.0579 57.0593 67.1182 57.2183 67.1895Z" fill="white"/>
<path d="M41.4755 10.9473L28.5439 24.2894H34.9071L47.9755 10.9473H41.4755ZM42.2282 18.6104L29.2966 31.9525H35.6597L48.7282 18.6104H42.2282ZM43.8703 25.3157L30.9387 38.6578H37.3018L50.3703 25.3157H43.8703Z" fill="#F2A809"/>
</g>
</g>
<defs>
<clipPath id="clip0_1432_3096">
<rect width="78" height="78" fill="white" transform="translate(0.491211)"/>
</clipPath>
</defs>
</svg>
