<svg width="150" height="60" viewBox="0 0 150 60" fill="none" xmlns="http://www.w3.org/2000/svg">
<path fill-rule="evenodd" clip-rule="evenodd" d="M29.2286 58.5082L4.86566 42.5103C4.86566 42.5103 1.82029 40.7435 1.10091 37.4277C0.117762 32.805 3.35497 28.8115 3.35497 28.8115L34.9837 49.5774C37.4295 51.1748 38.101 54.4664 36.5183 56.9351C34.9117 59.4763 31.6026 60.0572 29.2286 58.5082Z" fill="#38D200"/>
<path fill-rule="evenodd" clip-rule="evenodd" d="M6.16167 25.38C6.16167 25.38 2.4209 23.1049 2.4209 17.8529C2.4209 12.6251 6.16167 10.3743 6.16167 10.3743L19.4942 1.58871C21.9401 -0.00867337 25.2012 0.693205 26.7839 3.13768C28.3665 5.60635 27.6711 8.89792 25.2252 10.4953L14.0029 17.8771L33.1384 30.4383C33.1384 30.4383 36.5914 32.423 37.2628 35.7871C38.198 40.4825 35.0088 44.3307 35.0088 44.3307L6.16167 25.38Z" fill="#0473EA"/>
<path fill-rule="evenodd" clip-rule="evenodd" d="M31.22 12.6221C29.9731 12.6221 29.0858 13.0093 28.1986 13.5902L21.7002 17.8499L28.1986 22.1095C29.0858 22.6904 29.997 23.0776 31.22 23.0776C34.0975 23.0776 36.4235 20.73 36.4235 17.8499C36.4235 14.9697 34.0975 12.6221 31.22 12.6221Z" fill="#38D200"/>
<path fill-rule="evenodd" clip-rule="evenodd" d="M6.08925 59.3333C7.33617 59.3333 8.22341 58.946 9.11064 58.3652L15.609 54.1055L9.11064 49.8458C8.22341 49.2649 7.31219 48.8777 6.08925 48.8777C3.21173 48.8777 0.885742 51.2253 0.885742 54.1055C0.885742 57.0098 3.21173 59.3333 6.08925 59.3333Z" fill="#0473EA"/>
<path fill-rule="evenodd" clip-rule="evenodd" d="M147.135 29.0557L149.054 30.2417V44.3276H147.135V42.343C146.2 43.7226 144.714 44.5697 142.915 44.5697C139.558 44.5697 137.16 42.0526 137.16 38.6158C137.16 35.1064 139.558 32.5409 142.915 32.5409C144.714 32.5409 146.2 33.4122 147.135 34.816V29.0557ZM98.4095 29.0557L100.304 30.2417V40.4794C100.304 42.101 101.287 42.7303 102.51 42.7303C103.445 42.7303 104.38 42.464 105.196 41.8832V43.7468C104.404 44.3276 103.301 44.5697 102.342 44.5697C99.8963 44.5697 98.4095 43.4563 98.4095 40.3342V29.0557ZM130.398 32.5167C133.707 32.5167 135.865 34.9854 135.865 38.3012C135.865 38.64 135.841 38.9546 135.793 39.2693H126.729C127.017 41.3507 128.647 42.7545 130.925 42.7545C132.388 42.7545 133.827 42.343 135.026 41.4717V43.3111C133.779 44.1582 132.388 44.5455 130.925 44.5455C127.305 44.5455 124.715 42.1978 124.715 38.64C124.715 35.1548 126.921 32.5167 130.398 32.5167ZM81.8638 32.5167C83.6623 32.5167 85.125 33.3638 86.0842 34.7434V32.7103H88.0025V44.3034H86.0842V42.343C85.125 43.6984 83.6623 44.5213 81.8638 44.5213C78.5067 44.5213 76.1088 42.0042 76.1088 38.5674C76.0848 35.0822 78.5067 32.5167 81.8638 32.5167ZM58.1483 32.5167C59.5151 32.5167 60.81 32.9282 61.8411 33.7027V35.8325C60.9299 34.8402 59.683 34.3319 58.2682 34.3319C55.8223 34.3319 54.0958 36.0503 54.0958 38.519C54.0958 40.9877 55.8463 42.7303 58.2922 42.7303C59.659 42.7303 60.9539 42.343 61.961 41.4959V43.4563C60.834 44.2308 59.5151 44.5697 58.1243 44.5697C54.5994 44.5697 52.1535 42.101 52.1535 38.5432C52.1295 34.9854 54.6473 32.5167 58.1483 32.5167ZM110.951 32.5167C114.26 32.5167 116.418 34.9854 116.418 38.3012C116.418 38.64 116.394 38.9546 116.346 39.2693H107.282C107.57 41.3507 109.2 42.7545 111.478 42.7545C112.941 42.7545 114.38 42.343 115.579 41.4717V43.3111C114.332 44.1582 112.941 44.5455 111.478 44.5455C107.857 44.5455 105.268 42.1978 105.268 38.64C105.292 35.1548 107.474 32.5167 110.951 32.5167ZM64.0472 29.0557L65.9416 30.2417V34.7192C66.8048 33.388 68.1717 32.5409 69.9221 32.5409C72.8236 32.5409 74.3583 34.6708 74.3583 37.5267V44.3518H72.44V37.8655C72.44 35.6147 71.4568 34.4045 69.4665 34.4045C67.3564 34.4045 65.9416 36.2439 65.9416 38.5432V44.3518H64.0472V29.0557ZM96.9948 32.5167V34.695C94.7167 34.3561 92.7984 35.9293 92.7984 38.7852V44.3034H90.904V32.7103H92.7984V35.179C93.7096 33.4848 95.1963 32.5167 96.9948 32.5167ZM124.571 32.5167V34.695C122.293 34.3561 120.375 35.9293 120.375 38.7852V44.3034H118.48V32.7103H120.375V35.179C121.286 33.4848 122.773 32.5167 124.571 32.5167ZM143.107 34.3561C140.781 34.3561 139.126 36.1471 139.126 38.5916C139.126 40.9877 140.781 42.7545 143.107 42.7545C145.457 42.7545 147.135 40.9877 147.135 38.5916C147.135 36.1471 145.457 34.3561 143.107 34.3561ZM82.0317 34.3319C79.7057 34.3319 78.0511 36.1229 78.0511 38.5674C78.0511 40.9635 79.7057 42.7303 82.0317 42.7303C84.3817 42.7303 86.0602 40.9635 86.0602 38.5674C86.0602 36.0987 84.3817 34.3319 82.0317 34.3319ZM110.975 34.2835C108.889 34.2835 107.618 35.7599 107.306 37.7203H114.428C114.236 35.7357 112.989 34.2835 110.975 34.2835ZM130.422 34.2835C128.336 34.2835 127.065 35.7599 126.753 37.7203H133.875C133.683 35.7357 132.436 34.2835 130.422 34.2835ZM101.767 32.5651C102.246 32.2505 102.87 32.2505 103.349 32.5893L105.244 33.8721L103.373 35.0822C102.894 35.3968 102.27 35.3968 101.791 35.0822L101.743 35.058C100.879 34.4529 100.879 33.146 101.767 32.5651ZM75.1496 15.5748C76.9481 15.5748 78.4108 16.4219 79.37 17.8015V15.7684H81.2883V27.3615H79.37V25.4011C78.4108 26.7565 76.9481 27.5794 75.1496 27.5794C71.7925 27.5794 69.3946 25.0623 69.3946 21.6255C69.3706 18.1161 71.7925 15.5748 75.1496 15.5748ZM63.9033 12.0654V23.4891C63.9033 25.1107 64.8865 25.74 66.1094 25.74C67.0446 25.74 67.9798 25.4737 68.7951 24.8929V26.7565C68.0038 27.3373 66.9008 27.5794 65.9416 27.5794C63.4957 27.5794 62.009 26.466 62.009 23.3439V13.2514L63.9033 12.0654ZM143.107 12.0654V27.3615H141.189V25.3285C140.253 26.7081 138.767 27.5552 136.968 27.5552C133.611 27.5552 131.213 25.0381 131.213 21.6013C131.213 18.0919 133.611 15.5264 136.968 15.5264C138.767 15.5264 140.253 16.3977 141.189 17.8015V13.203L143.107 12.0654ZM115.962 15.5748C117.761 15.5748 119.224 16.4219 120.183 17.8015V15.7684H122.101V27.3615H120.183V25.4011C119.224 26.7565 117.761 27.5794 115.962 27.5794C112.605 27.5794 110.207 25.0623 110.207 21.6255C110.207 18.1161 112.605 15.5748 115.962 15.5748ZM56.2539 15.5748C57.5968 15.5748 58.8677 15.9621 59.7549 16.6397V18.6486C58.6998 17.7047 57.4289 17.1722 56.2779 17.1722C55.055 17.1722 54.1917 17.7289 54.1917 18.6728C54.1917 19.3746 54.5274 19.8103 55.4386 20.1491L58.1723 21.2625C59.635 21.8917 60.3065 22.7872 60.3065 24.0458C60.3065 26.2482 58.532 27.6278 56.0381 27.6278C54.5274 27.6278 53.1366 27.2163 52.1535 26.4418V24.3846C53.3764 25.5463 54.7193 26.0546 56.0621 26.0546C57.405 26.0546 58.3881 25.4737 58.3881 24.4088C58.3881 23.7795 58.0524 23.2713 57.1891 22.9324L54.4555 21.8191C53.0647 21.2141 52.2974 20.4154 52.2974 18.9148C52.3213 16.8334 53.928 15.5748 56.2539 15.5748ZM108.145 12.0654V27.3615H106.227V25.3285C105.292 26.7081 103.805 27.5552 102.006 27.5552C98.6493 27.5552 96.2514 25.0381 96.2514 21.6013C96.2514 18.0919 98.6493 15.5264 102.006 15.5264C103.805 15.5264 105.292 16.3977 106.227 17.8015V13.203L108.145 12.0654ZM131.117 15.5748V17.7531C128.839 17.4142 126.921 18.9874 126.921 21.8433V27.3615H125.027V15.7684H126.921V18.2371C127.832 16.5187 129.295 15.5748 131.117 15.5748ZM90.0887 15.5748C92.9902 15.5748 94.5249 17.7047 94.5249 20.5606V27.3857H92.6066V20.8994C92.6066 18.6486 91.6234 17.4384 89.6331 17.4384C87.5229 17.4384 86.1082 19.2778 86.1082 21.5771V27.3857H84.2138V15.7926H86.1082V17.7773C86.9474 16.4219 88.3382 15.5748 90.0887 15.5748ZM75.3175 17.3658C72.9915 17.3658 71.3369 19.1568 71.3369 21.6013C71.3369 23.9974 72.9915 25.7642 75.3175 25.7642C77.6675 25.7642 79.346 23.9974 79.346 21.6013C79.346 19.1568 77.6914 17.3658 75.3175 17.3658ZM102.198 17.3658C99.8723 17.3658 98.2177 19.1568 98.2177 21.6013C98.2177 23.9974 99.8723 25.7642 102.198 25.7642C104.548 25.7642 106.227 23.9974 106.227 21.6013C106.227 19.1568 104.548 17.3658 102.198 17.3658ZM137.16 17.3658C134.834 17.3658 133.18 19.1568 133.18 21.6013C133.18 23.9974 134.834 25.7642 137.16 25.7642C139.51 25.7642 141.189 23.9974 141.189 21.6013C141.213 19.1568 139.534 17.3658 137.16 17.3658ZM116.154 17.3658C113.828 17.3658 112.174 19.1568 112.174 21.6013C112.174 23.9974 113.828 25.7642 116.154 25.7642C118.504 25.7642 120.183 23.9974 120.183 21.6013C120.183 19.1568 118.504 17.3658 116.154 17.3658ZM66.5411 15.7442C67.0207 15.4296 67.6441 15.4296 68.1237 15.7442L68.1717 15.7684C69.0829 16.3493 69.0829 17.6805 68.1717 18.2613C67.6921 18.576 67.0686 18.576 66.589 18.2613L64.6947 16.9786L66.5411 15.7442Z" fill="#525355"/>
</svg>
