<svg width="129" height="76" viewBox="0 0 129 76" fill="none" xmlns="http://www.w3.org/2000/svg">
<path d="M10.4449 50.676C4.87182 50.676 2.13366 53.6736 2.15047 57.4859C2.17241 61.4982 4.85636 63.0163 8.9603 64.0375C13.2515 65.1064 14.8678 65.7622 14.8987 68.0718C14.9168 69.9269 13.6452 72.088 9.86398 72.0415C7.3182 72.0053 5.82458 71.1275 4.82922 69.8791C4.46646 69.3976 4.27409 68.7908 4.18374 68.2331C4.0882 67.638 4.08689 67.0829 4.05464 66.4581H2.31184V71.9447C3.56924 72.878 6.79924 73.8488 9.89625 73.8488C15.552 73.8488 18.0655 70.8796 18.4166 67.6199C18.6593 65.362 18.4334 63.4901 16.932 61.972C15.8076 60.8669 13.9783 60.1827 10.5417 59.4223C6.42614 58.5251 5.66703 57.6098 5.70062 55.6462C5.73547 53.684 7.61773 52.5415 9.9608 52.4511C11.6365 52.3775 12.9597 52.5931 14.3501 53.5484C14.7709 53.8363 15.1479 54.4392 15.286 55.1299C15.4087 55.7017 15.4242 56.4092 15.4474 56.9049H17.0611V52.0315C15.5804 51.3151 13.7924 50.676 10.4449 50.676ZM50.4971 51.0633V56.9049H46.2046V57.97H46.6242C47.8364 57.97 47.9797 58.3043 47.9797 59.0996V69.2982L41.073 56.9049H30.1967V57.97H30.6162C31.8401 57.97 31.9717 58.1817 31.9717 58.9705V67.7167C31.9717 69.6751 31.7045 72.5398 28.2602 72.4288C25.189 72.3423 25.0328 70.0469 25.0328 68.0072V58.9705C25.0328 58.1817 25.5285 57.97 26.7433 57.97V56.9049H19.288V57.97C20.5015 57.97 20.9985 58.1817 20.9985 58.9705V67.4586C20.9985 69.8029 21.4684 71.3611 22.3863 72.3319C23.9342 73.8669 26.4696 73.8488 27.647 73.8488C33.2588 73.8489 33.5532 69.8494 33.5532 66.4258V57.97C33.5532 58.2127 33.6332 57.97 34.8441 57.97H35.8123C37.0233 57.97 37.1033 58.1817 37.1033 58.9705V71.2669C37.1033 72.0428 36.9613 72.3642 35.7478 72.3642H35.3282V73.397H40.4921V72.3642H40.0725C38.859 72.3642 38.717 72.0428 38.717 71.2669V60.9392L45.6882 73.397H49.5934V59.0996C49.5934 58.3121 49.7264 57.97 50.9489 57.97H52.143V56.1303C52.1431 54.5605 52.2489 52.7416 54.5636 52.7416H57.1455V70.4278C57.1455 71.9137 56.815 72.3642 55.1123 72.3642H54.5313V73.397H64.4072V72.3642H63.8585C62.1403 72.3642 61.7607 71.9137 61.7607 70.4278V52.7416H64.3426C66.6212 52.7416 66.7309 54.5605 66.7309 56.1303V57.97H68.3446C69.5801 57.97 69.6679 58.2475 69.6679 59.035V71.2992C69.6679 72.0841 69.145 72.3642 67.8928 72.3642V73.397H75.5418V72.3642C74.3011 72.3642 73.7667 72.0841 73.7667 71.2992V58.1959H75.7677C77.3569 58.1959 78.5433 58.7678 78.5433 61.1974C78.5433 62.7233 77.9339 64.4571 75.7354 64.4571H74.509C74.509 64.4571 77.544 70.5607 78.0914 71.6865C78.8001 73.1014 79.6754 73.397 81.4156 73.397H84.4171V72.3642C83.9976 72.3642 83.1701 72.2932 82.7066 71.5574L79.1242 65.3285C81.1277 64.9089 82.5775 63.3701 82.5775 61.1651C82.5775 57.1141 78.5394 56.9049 75.8968 56.9049H68.3769V51.0633H50.4971ZM105.718 56.4208C101.916 56.6706 100.116 59.0116 100.102 61.5847C100.087 64.5255 101.544 65.8784 105.137 66.7163C108.748 67.5386 109.752 67.8626 109.785 69.75C109.804 71.0655 108.612 72.5075 106.008 72.461C103.956 72.4262 102.851 71.6671 102.265 70.9764C101.956 70.6111 101.831 70.2187 101.748 69.7823C101.658 69.2181 101.672 68.7986 101.651 68.33H100.167V72.3965C101.126 73.0859 103.614 73.8489 105.976 73.8488C110.27 73.8488 112.383 71.5238 112.625 68.8141C112.783 67.1281 112.418 65.6835 111.431 64.6507C110.491 63.6915 109.357 63.3133 106.557 62.7465C103.458 62.1114 102.834 61.5885 102.846 60.1001C102.846 58.5574 104.627 57.8602 105.976 57.8086C106.975 57.766 108.447 57.7867 109.559 58.7123C109.943 59.035 110.074 59.4791 110.107 59.9387C110.159 60.4267 110.187 60.9043 110.204 61.2942H111.656V57.4536C110.449 56.8817 109.108 56.4492 106.525 56.4208C106.253 56.4182 105.972 56.4042 105.718 56.4208ZM83.4489 56.9049V57.97C84.665 57.97 85.1594 58.1817 85.1594 58.9705V67.4586C85.1594 69.8029 85.6177 71.3611 86.5795 72.3319C88.0964 73.8669 90.6189 73.8489 91.8079 73.8488C97.4533 73.8488 97.7463 69.8688 97.7463 67.4586V59.035C97.7463 58.2462 97.8819 57.97 99.0696 57.97H99.4891V56.9049H94.3576V57.97H94.7771C95.9919 57.97 96.1326 58.2462 96.1326 59.035V67.7167C96.1326 69.6751 95.8654 72.5398 92.4211 72.4288C89.3512 72.3423 89.1937 70.0469 89.1937 68.0072V58.9705C89.1937 58.1817 89.6946 57.97 90.9042 57.97V56.9049H83.4489ZM112.947 56.9049V61.2942H114.367C114.387 60.5054 114.382 59.381 114.69 58.9382C114.972 58.5264 115.318 58.325 116.175 58.325H117.789V71.041C117.789 71.8246 117.463 72.3642 116.207 72.3642H115.658V73.397H123.921V72.3642H123.372C122.118 72.3642 121.823 71.8246 121.823 71.041V58.325H123.437C124.282 58.325 124.64 58.5264 124.921 58.9382C125.234 59.381 125.226 60.5054 125.244 61.2942H126.696V56.9049H112.947Z" fill="#003366"/>
<mask id="mask0_1432_3263" style="mask-type:luminance" maskUnits="userSpaceOnUse" x="17" y="28" width="3" height="17">
<path d="M17.6602 29.4282L17.3051 30.4144C17.0005 31.242 16.9579 32.7176 17.1851 33.5025L19.0105 42.9419C19.1525 43.7604 19.412 44.1012 19.687 44.0535C19.9839 43.9773 19.9516 43.3551 19.7774 41.9338L18.3986 29.4217C18.3031 28.6381 17.9584 28.6226 17.6602 29.4282Z" fill="white"/>
</mask>
<g mask="url(#mask0_1432_3263)">
<path d="M16.957 28.6226H19.983V44.1025H16.957V28.6226Z" fill="url(#paint0_linear_1432_3263)"/>
</g>
<mask id="mask1_1432_3263" style="mask-type:luminance" maskUnits="userSpaceOnUse" x="20" y="30" width="2" height="12">
<path d="M21.5305 39.3414C21.5641 40.156 21.6532 41.1346 21.3717 41.2017C21.1161 41.2573 20.9573 40.9371 20.8218 39.8888L20.2293 34.3158C20.1221 33.5154 20.2615 31.8229 20.5585 31.2316C20.8605 30.6391 21.1381 30.7914 21.1704 31.5853L21.5305 39.3414Z" fill="white"/>
</mask>
<g mask="url(#mask1_1432_3263)">
<path d="M20.123 30.6392H21.6528V41.2573H20.123V30.6392Z" fill="url(#paint1_linear_1432_3263)"/>
</g>
<mask id="mask2_1432_3263" style="mask-type:luminance" maskUnits="userSpaceOnUse" x="22" y="20" width="3" height="19">
<path d="M24.011 20.5902L23.301 36.8279C23.2881 37.5664 23.239 38.5075 22.9666 38.4442C22.8117 38.4081 22.6271 37.9781 22.6103 37.2397L22.2979 23.9106C22.2785 23.2457 22.5329 22.1497 22.8866 21.4874L23.3785 20.5657C23.7335 19.9202 24.0652 19.9292 24.011 20.5902Z" fill="white"/>
</mask>
<g mask="url(#mask2_1432_3263)">
<path d="M22.2793 19.9203H24.0673V38.5076H22.2793V19.9203Z" fill="url(#paint2_linear_1432_3263)"/>
</g>
<mask id="mask3_1432_3263" style="mask-type:luminance" maskUnits="userSpaceOnUse" x="24" y="23" width="3" height="16">
<path d="M26.4478 23.9117L25.3441 36.2946C25.233 37.166 25.104 38.0684 24.8458 38.0555C24.6689 38.0504 24.5166 37.5056 24.6031 36.6871L25.0613 26.0573C25.1362 25.2879 25.6565 24.135 25.9831 23.5464C26.3188 22.9693 26.5705 23.234 26.4478 23.9117Z" fill="white"/>
</mask>
<g mask="url(#mask3_1432_3263)">
<path d="M24.5156 22.9695H26.5696V38.0686H24.5156V22.9695Z" fill="url(#paint3_linear_1432_3263)"/>
</g>
<mask id="mask4_1432_3263" style="mask-type:luminance" maskUnits="userSpaceOnUse" x="26" y="13" width="5" height="23">
<path d="M26.8683 35.4155C26.654 35.3884 26.6463 34.5119 26.7057 33.9154L28.4407 16.7766C28.5363 16.144 28.9946 15.1693 29.4541 14.6039L29.622 14.3973C30.097 13.8254 30.4456 13.8784 30.3139 14.4942L27.3899 33.9322C27.235 34.7714 27.1304 35.4155 26.8683 35.4155Z" fill="white"/>
</mask>
<g mask="url(#mask4_1432_3263)">
<path d="M26.6465 13.8254H30.4471V35.4155H26.6465V13.8254Z" fill="url(#paint4_linear_1432_3263)"/>
</g>
<mask id="mask5_1432_3263" style="mask-type:luminance" maskUnits="userSpaceOnUse" x="28" y="17" width="5" height="20">
<path d="M32.0393 17.3318C32.4202 16.8981 33.0553 17.1433 32.9185 17.7604L29.1243 35.0735C28.9888 35.6945 28.7164 36.6511 28.435 36.6188C28.2026 36.5995 28.2168 35.6919 28.3872 34.9548L31.1163 19.2966C31.2506 18.6667 31.6495 17.7579 32.0393 17.3318Z" fill="white"/>
</mask>
<g mask="url(#mask5_1432_3263)">
<path d="M28.2012 16.8981H33.0539V36.6511H28.2012V16.8981Z" fill="url(#paint5_linear_1432_3263)"/>
</g>
<mask id="mask6_1432_3263" style="mask-type:luminance" maskUnits="userSpaceOnUse" x="31" y="10" width="13" height="27">
<path d="M32.4307 34.8746C32.1544 35.471 31.8149 36.3308 31.4302 36.1681C31.1539 36.0558 31.7129 34.7041 31.7129 34.7041L41.1228 11.7495C41.4274 11.0795 42.0987 10.2249 42.832 10.5812C43.4878 10.8975 42.7829 12.1923 42.5247 12.7733C36.8174 25.6054 35.1921 28.9168 32.4307 34.8746Z" fill="white"/>
</mask>
<g mask="url(#mask6_1432_3263)">
<path d="M31.1543 10.225H43.4895V36.3308H31.1543V10.225Z" fill="url(#paint6_linear_1432_3263)"/>
</g>
<mask id="mask7_1432_3263" style="mask-type:luminance" maskUnits="userSpaceOnUse" x="34" y="2" width="20" height="32">
<path d="M34.5437 33.7452C34.767 33.9168 35.2963 33.2868 35.7107 32.5729L52.9373 3.87223C53.2433 3.35455 53.4163 2.52447 52.7979 2.21463C52.3164 1.97452 51.4824 2.44442 51.0874 3.14283L35.0743 32.0514C34.6043 32.9228 34.3268 33.5696 34.5437 33.7452Z" fill="white"/>
</mask>
<g mask="url(#mask7_1432_3263)">
<path d="M34.3262 1.97446H53.4144V33.9167H34.3262V1.97446Z" fill="url(#paint7_linear_1432_3263)"/>
</g>
<mask id="mask8_1432_3263" style="mask-type:luminance" maskUnits="userSpaceOnUse" x="34" y="7" width="23" height="30">
<path d="M34.9432 36.8371C34.7185 36.6163 35.1006 35.905 35.5615 35.1911L53.9603 8.48748C54.4574 7.73226 55.556 6.89573 56.2298 7.28689C56.8366 7.63932 56.8456 8.39967 56.3357 9.11357L36.2522 35.6984C35.7526 36.4149 35.1768 37.0733 34.9432 36.8371Z" fill="white"/>
</mask>
<g mask="url(#mask8_1432_3263)">
<path d="M34.7188 6.89562H56.8471V37.0732H34.7188V6.89562Z" fill="url(#paint8_linear_1432_3263)"/>
</g>
<mask id="mask9_1432_3263" style="mask-type:luminance" maskUnits="userSpaceOnUse" x="38" y="2" width="31" height="33">
<path d="M40.3843 33.7426C40.3843 33.7426 39.1695 35.0142 38.9139 34.7314C38.6518 34.4552 39.1488 33.9221 39.6859 33.2366L40.2875 32.511L65.9996 3.01892C66.4114 2.51157 66.9821 2.48836 67.5243 2.88985L68.3014 3.84641C68.7248 4.32924 68.6964 5.16579 68.2278 5.63441L40.3843 33.7426Z" fill="white"/>
</mask>
<g mask="url(#mask9_1432_3263)">
<path d="M38.6504 2.48832H68.7247V35.0142H38.6504V2.48832Z" fill="url(#paint9_linear_1432_3263)"/>
</g>
<mask id="mask10_1432_3263" style="mask-type:luminance" maskUnits="userSpaceOnUse" x="38" y="11" width="32" height="28">
<path d="M38.3009 38.4699C38.1021 38.2711 38.5488 37.6759 39.3634 36.9569L66.6634 11.8696C67.1552 11.3661 67.8395 11.3803 68.2797 11.8063C68.8529 12.3524 69.0478 12.8597 69.1395 13.3438C69.2931 14.1352 68.8502 14.4877 68.2913 14.9898L39.8578 37.6295C39.1568 38.2453 38.5333 38.6855 38.3009 38.4699Z" fill="white"/>
</mask>
<g mask="url(#mask10_1432_3263)">
<path d="M38.1035 11.3662H69.2958V38.6855H38.1035V11.3662Z" fill="url(#paint10_linear_1432_3263)"/>
</g>
<mask id="mask11_1432_3263" style="mask-type:luminance" maskUnits="userSpaceOnUse" x="42" y="13" width="36" height="25">
<path d="M43.9606 36.2263L75.7222 13.526C76.3277 13.0484 76.8827 13.1581 77.0364 13.7571L77.7735 16.3016C77.9414 16.929 77.496 17.772 76.8505 18.2277L44.5067 36.9687C43.7127 37.476 42.8865 37.9213 42.6838 37.6425C42.4269 37.2901 43.2273 36.8189 43.9606 36.2263Z" fill="white"/>
</mask>
<g mask="url(#mask11_1432_3263)">
<path d="M42.4277 13.0484H77.9434V37.9214H42.4277V13.0484Z" fill="url(#paint11_linear_1432_3263)"/>
</g>
<mask id="mask12_1432_3263" style="mask-type:luminance" maskUnits="userSpaceOnUse" x="40" y="25" width="33" height="17">
<path d="M40.5774 40.99C40.4844 40.6182 41.3223 40.2748 42.2092 39.8152L70.631 25.4855C71.403 25.0621 72.0098 25.2777 72.0046 25.9425L72.1298 29.099C72.1195 29.7883 71.3914 30.6378 70.5097 30.9928L42.4945 40.7395C41.5146 41.123 40.6639 41.3438 40.5774 40.99Z" fill="white"/>
</mask>
<g mask="url(#mask12_1432_3263)">
<path d="M40.4844 25.0621H72.131V41.3438H40.4844V25.0621Z" fill="url(#paint12_linear_1432_3263)"/>
</g>
<mask id="mask13_1432_3263" style="mask-type:luminance" maskUnits="userSpaceOnUse" x="44" y="32" width="33" height="11">
<path d="M73.8868 38.2739L46.4396 42.1984C45.3643 42.3662 44.5755 42.5367 44.4928 42.2217C44.3999 41.8434 45.3165 41.6111 46.3222 41.2716L74.7957 32.6272C75.7135 32.3213 76.4287 32.657 76.3435 33.3644L75.9382 36.6228C75.8556 37.3754 74.9403 38.1229 73.8868 38.2739Z" fill="white"/>
</mask>
<g mask="url(#mask13_1432_3263)">
<path d="M44.4004 32.3212H76.4292V42.5366H44.4004V32.3212Z" fill="url(#paint13_linear_1432_3263)"/>
</g>
<mask id="mask14_1432_3263" style="mask-type:luminance" maskUnits="userSpaceOnUse" x="42" y="41" width="29" height="5">
<path d="M42.6593 44.8656C42.5831 44.4615 43.9477 44.233 45.0037 44.1233L69.2777 41.2767C70.3621 41.1656 71.2502 41.7453 70.8991 42.6851L70.4073 43.9657C70.1181 44.7842 69.2209 45.3548 68.0977 45.28L44.8294 45.2877C43.8096 45.3019 42.7342 45.2709 42.6593 44.8656Z" fill="white"/>
</mask>
<g mask="url(#mask14_1432_3263)">
<path d="M42.584 41.1656H71.2512V45.3547H42.584V41.1656Z" fill="url(#paint14_linear_1432_3263)"/>
</g>
<mask id="mask15_1432_3263" style="mask-type:luminance" maskUnits="userSpaceOnUse" x="30" y="6" width="10" height="28">
<path d="M39.2983 8.86828C39.2983 8.86828 32.2677 30.4687 31.8636 31.6292C31.4311 32.8763 31.0129 33.9827 30.6449 33.8884C30.41 33.8187 30.5946 33.0261 30.858 32.0695L37.5129 8.63206C37.8279 7.68836 38.8206 6.87116 39.2066 6.94862C39.9076 7.08675 39.5035 8.27057 39.2983 8.86828Z" fill="white"/>
</mask>
<g mask="url(#mask15_1432_3263)">
<path d="M30.4102 6.87117H39.9078V33.9827H30.4102V6.87117Z" fill="url(#paint15_linear_1432_3263)"/>
</g>
<defs>
<linearGradient id="paint0_linear_1432_3263" x1="62.7845" y1="-3.31462" x2="25.1431" y2="30.7678" gradientUnits="userSpaceOnUse">
<stop stop-color="#F15D22"/>
<stop offset="1" stop-color="#FDB913"/>
</linearGradient>
<linearGradient id="paint1_linear_1432_3263" x1="63.1203" y1="-1.99631" x2="26.087" y2="31.5357" gradientUnits="userSpaceOnUse">
<stop stop-color="#F15D22"/>
<stop offset="1" stop-color="#FDB913"/>
</linearGradient>
<linearGradient id="paint2_linear_1432_3263" x1="58.9686" y1="-2.9399" x2="24.0276" y2="28.6979" gradientUnits="userSpaceOnUse">
<stop stop-color="#F15D22"/>
<stop offset="1" stop-color="#FDB913"/>
</linearGradient>
<linearGradient id="paint3_linear_1432_3263" x1="61.8607" y1="-2.2155" x2="25.5661" y2="30.6477" gradientUnits="userSpaceOnUse">
<stop stop-color="#F15D22"/>
<stop offset="1" stop-color="#FDB913"/>
</linearGradient>
<linearGradient id="paint4_linear_1432_3263" x1="60.1254" y1="-3.94669" x2="24.2139" y2="28.5695" gradientUnits="userSpaceOnUse">
<stop stop-color="#F15D22"/>
<stop offset="1" stop-color="#FDB913"/>
</linearGradient>
<linearGradient id="paint5_linear_1432_3263" x1="63.0769" y1="-2.73151" x2="25.9058" y2="30.9253" gradientUnits="userSpaceOnUse">
<stop stop-color="#F15D22"/>
<stop offset="1" stop-color="#FDB913"/>
</linearGradient>
<linearGradient id="paint6_linear_1432_3263" x1="54.4334" y1="7.4514" x2="26.3305" y2="32.8974" gradientUnits="userSpaceOnUse">
<stop stop-color="#F15D22"/>
<stop offset="1" stop-color="#FDB913"/>
</linearGradient>
<linearGradient id="paint7_linear_1432_3263" x1="58.5731" y1="4.21291" x2="26.54" y2="33.2175" gradientUnits="userSpaceOnUse">
<stop stop-color="#F15D22"/>
<stop offset="1" stop-color="#FDB913"/>
</linearGradient>
<linearGradient id="paint8_linear_1432_3263" x1="61.8969" y1="6.94291" x2="29.722" y2="36.0757" gradientUnits="userSpaceOnUse">
<stop stop-color="#F15D22"/>
<stop offset="1" stop-color="#FDB913"/>
</linearGradient>
<linearGradient id="paint9_linear_1432_3263" x1="66.8398" y1="6.02468" x2="31.1797" y2="38.3132" gradientUnits="userSpaceOnUse">
<stop stop-color="#F15D22"/>
<stop offset="1" stop-color="#FDB913"/>
</linearGradient>
<linearGradient id="paint10_linear_1432_3263" x1="71.8669" y1="9.45531" x2="35.2836" y2="42.5799" gradientUnits="userSpaceOnUse">
<stop stop-color="#F15D22"/>
<stop offset="1" stop-color="#FDB913"/>
</linearGradient>
<linearGradient id="paint11_linear_1432_3263" x1="76.1756" y1="12.9016" x2="38.6961" y2="46.8375" gradientUnits="userSpaceOnUse">
<stop stop-color="#F15D22"/>
<stop offset="1" stop-color="#FDB913"/>
</linearGradient>
<linearGradient id="paint12_linear_1432_3263" x1="77.6933" y1="15.9548" x2="40.9476" y2="49.2263" gradientUnits="userSpaceOnUse">
<stop stop-color="#F15D22"/>
<stop offset="1" stop-color="#FDB913"/>
</linearGradient>
<linearGradient id="paint13_linear_1432_3263" x1="81.506" y1="20.2911" x2="45.0511" y2="53.2992" gradientUnits="userSpaceOnUse">
<stop stop-color="#F15D22"/>
<stop offset="1" stop-color="#FDB913"/>
</linearGradient>
<linearGradient id="paint14_linear_1432_3263" x1="82.4996" y1="20.9876" x2="45.6677" y2="54.3373" gradientUnits="userSpaceOnUse">
<stop stop-color="#F15D22"/>
<stop offset="1" stop-color="#FDB913"/>
</linearGradient>
<linearGradient id="paint15_linear_1432_3263" x1="51.9938" y1="4.86096" x2="23.5914" y2="30.578" gradientUnits="userSpaceOnUse">
<stop stop-color="#F15D22"/>
<stop offset="1" stop-color="#FDB913"/>
</linearGradient>
</defs>
</svg>
