<svg width="150" height="61" viewBox="0 0 150 61" fill="none" xmlns="http://www.w3.org/2000/svg">
<path d="M137.96 1.17032C137.978 1.25898 137.96 1.34765 137.942 1.41858C137.339 4.25579 136.719 7.09301 136.116 9.91249C135.548 12.5901 134.963 15.2677 134.396 17.9454C133.775 20.8358 133.155 23.7262 132.534 26.6166C132.055 28.8509 131.576 31.0852 131.098 33.3195C130.903 34.2239 130.707 35.1105 130.53 36.0149C130.53 36.0503 130.512 36.0681 130.512 36.1035C130.512 36.139 130.495 36.139 130.477 36.139C130.459 36.139 130.441 36.139 130.424 36.1213C130.388 36.0503 130.335 35.9794 130.3 35.8907C128.438 32.2378 126.576 28.5849 124.714 24.932C123.402 22.3608 122.125 19.7895 120.813 17.2183C120.245 16.0834 119.66 14.9663 119.075 13.8314C118.685 13.0512 118.383 12.2532 118.135 11.4198C117.905 10.675 117.709 9.93022 117.568 9.14999C117.514 8.86626 117.479 8.56481 117.479 8.26336C117.479 8.05056 117.479 7.85551 117.479 7.64271C117.461 6.20638 118.011 4.82323 119.004 3.79474C119.554 3.2273 120.192 2.76625 120.901 2.44706C121.717 2.05695 122.568 1.77323 123.455 1.61363C124.288 1.43631 125.139 1.32991 125.991 1.25898C126.239 1.24125 126.469 1.22352 126.718 1.18805C126.753 1.18805 126.789 1.17032 126.824 1.15259L137.96 1.17032Z" fill="#E81300"/>
<path d="M13.0687 35.4298C13.1041 35.4121 13.1396 35.3589 13.1573 35.3234C13.1751 35.288 13.1751 35.2525 13.1751 35.217C13.1751 34.5432 13.3701 33.9048 13.4943 33.2487C13.778 31.8301 14.0794 30.4115 14.3631 29.0106C14.6823 27.5034 14.9838 25.9961 15.303 24.4888C15.569 23.1766 15.8527 21.8644 16.1187 20.5522C16.4024 19.1513 16.7039 17.7504 16.9876 16.3318C16.9876 16.3141 16.9876 16.3141 16.9876 16.2964C17.0053 16.1545 17.0408 16.0126 17.1117 15.8708C17.2536 15.853 17.4132 15.8353 17.555 15.853H22.4315C22.5911 15.853 22.5911 15.8708 22.5733 16.0126C22.2896 17.4135 22.0059 18.8144 21.7222 20.2153C21.403 21.8112 21.0661 23.3894 20.7291 24.9853C20.4809 26.2266 20.2504 27.4856 20.0021 28.7269C19.8248 29.5958 19.6475 30.447 19.4701 31.3159C19.2573 32.3089 19.1332 33.3197 19.0623 34.3304C18.9914 35.1993 19.0446 36.0682 19.2041 36.9016C19.2751 37.2918 19.3992 37.6819 19.5765 38.0543C20.0198 39.0473 20.8887 39.792 21.9527 40.0403C22.6088 40.1999 23.2649 40.2531 23.9387 40.1999C24.8608 40.1467 25.7829 39.8984 26.6164 39.5083C28.0172 38.8522 29.1699 37.7883 29.9678 36.476C30.553 35.5362 30.9609 34.49 31.2091 33.4083C31.812 30.8371 32.3795 28.2659 32.9114 25.6946C33.408 23.3539 33.8867 21.0132 34.3655 18.6725C34.5428 17.8036 34.7379 16.9347 34.9152 16.0481C34.9152 16.0126 34.933 15.9772 34.933 15.9417C34.933 15.8885 34.9862 15.8353 35.0571 15.853H35.2344C36.7239 15.853 38.2135 15.853 39.703 15.853C40.0399 15.853 40.0222 15.853 39.9513 16.1545C39.7208 17.2185 39.4902 18.2824 39.2597 19.3464C38.9051 20.96 38.5504 22.5914 38.2135 24.2051C37.7702 26.2443 37.3269 28.2836 36.8835 30.3406C36.5466 31.8833 36.192 33.4083 35.8551 34.9511C35.8196 35.1461 35.7487 35.3412 35.6777 35.5185C35.5536 35.8022 35.4472 36.0682 35.3231 36.3519C35.0571 36.9726 34.7024 37.5577 34.2946 38.0897C33.9577 38.5153 33.6562 38.9409 33.3016 39.3487C31.7234 41.1752 29.6309 42.5051 27.3079 43.1435C26.439 43.3918 25.5524 43.5514 24.6658 43.6578C24.5239 43.6755 24.3643 43.6932 24.2225 43.711C23.9033 43.7642 23.5664 43.7819 23.2472 43.7641C22.6443 43.7641 22.0414 43.7464 21.4385 43.7641C20.8887 43.7641 20.3568 43.711 19.8071 43.6223C19.0977 43.4982 18.3884 43.3386 17.6969 43.1435C16.3492 42.7889 15.1788 41.9554 14.3986 40.8028C13.778 39.9162 13.3701 38.8877 13.2105 37.8237C13.1751 37.6641 13.1751 37.4868 13.1396 37.3272C13.1219 37.2386 13.1219 37.1499 13.0332 37.1144L13.0687 35.4298Z" fill="#E21001"/>
<path d="M17.8026 59.812C17.6252 59.7766 17.4479 59.7411 17.2883 59.6879C16.7386 59.5638 16.2421 59.2446 15.9052 58.7835C15.7633 58.5885 15.6569 58.358 15.586 58.1274C15.5151 57.8614 15.4796 57.5955 15.4796 57.3295C15.4796 55.4321 15.4796 53.517 15.4796 51.6196C15.4796 51.2827 15.4441 51.3181 15.781 51.3181H16.4017C16.5967 51.3181 16.5967 51.3181 16.5967 51.5309C16.5967 51.6018 16.5967 51.655 16.5967 51.726C16.5967 53.4106 16.5967 55.0952 16.5967 56.7975C16.5967 57.1699 16.6854 57.5423 16.845 57.8792C17.0933 58.4466 17.643 58.819 18.2636 58.819C18.5119 58.8367 18.7601 58.8013 18.9906 58.7303C19.4694 58.5707 19.8418 58.2338 20.0546 57.7728C20.1433 57.5955 20.1965 57.4004 20.1965 57.2053C20.1965 55.3611 20.1965 53.4992 20.1965 51.655C20.1965 51.2649 20.161 51.3181 20.5511 51.3181H21.1363C21.3668 51.3181 21.3668 51.3181 21.3668 51.5486V57.294C21.4023 58.3934 20.693 59.3687 19.6467 59.6524C19.5049 59.7056 19.363 59.7234 19.2034 59.7588C19.168 59.7588 19.1325 59.7766 19.1148 59.812H17.8026Z" fill="#D90E04"/>
<path d="M39.2592 59.812C39.2415 59.7943 39.2238 59.7766 39.1883 59.7766C38.2662 59.5993 37.5037 58.9432 37.2023 58.0388C36.7767 56.9926 36.8654 55.8222 37.4328 54.8469C37.7697 54.2085 38.3549 53.7298 39.0642 53.5524C39.7735 53.3574 40.5183 53.4106 41.1921 53.712C41.8659 53.9958 42.3625 54.5809 42.522 55.2902C42.6107 55.7336 42.6462 56.1769 42.593 56.6379C42.593 56.7266 42.5575 56.7443 42.4688 56.7443C42.3802 56.7443 42.3093 56.7443 42.2383 56.7443H38.479C38.4081 56.7443 38.3372 56.7443 38.2485 56.7443C38.1421 56.7443 38.1244 56.762 38.1244 56.8862C38.1066 57.1344 38.1421 57.3827 38.213 57.6132C38.4081 58.287 38.9755 58.7658 39.6494 58.89C40.2168 58.9964 40.7843 58.89 41.263 58.5885C41.3517 58.5353 41.4404 58.4112 41.5468 58.4466C41.6532 58.4821 41.7063 58.624 41.7773 58.7126C41.8659 58.8545 41.9546 58.9964 42.0433 59.1382C41.9546 59.2801 41.8127 59.3865 41.6531 59.4397C41.3694 59.5638 41.0857 59.6702 40.7843 59.7411C40.6779 59.7589 40.5715 59.7766 40.4473 59.812C40.4296 59.8298 40.3941 59.8475 40.3764 59.8653L39.2592 59.812ZM39.8622 55.8754H41.2453C41.5113 55.8754 41.529 55.84 41.4936 55.5917C41.4758 55.4853 41.4404 55.3966 41.3872 55.308C41.2276 55.042 41.0148 54.8115 40.7665 54.6341C40.6779 54.5632 40.5715 54.51 40.4651 54.4923C40.0749 54.4036 39.6848 54.4213 39.2947 54.5455C38.6918 54.7583 38.3904 55.2016 38.2308 55.7868C38.213 55.8577 38.2485 55.8931 38.3194 55.8931L39.8622 55.8754Z" fill="#D90E04"/>
<path d="M126.471 59.812C126.453 59.7588 126.4 59.7588 126.364 59.7411C125.673 59.5106 125.212 58.8722 125.176 58.1452C125.087 57.4181 125.424 56.7266 126.027 56.3364C126.417 56.0705 126.843 55.8931 127.286 55.8222C127.676 55.7335 128.084 55.7335 128.492 55.8222C128.563 55.8399 128.616 55.8577 128.687 55.8577C128.723 55.8754 128.776 55.8399 128.776 55.8045V55.7867C128.865 55.2902 128.616 54.7937 128.155 54.5632C127.925 54.4568 127.676 54.4036 127.41 54.4036C127.056 54.4036 126.701 54.4745 126.382 54.6341C126.258 54.6873 126.134 54.776 126.027 54.8646C125.956 54.9178 125.939 54.9178 125.885 54.8646C125.726 54.6341 125.584 54.4036 125.478 54.1553C125.442 54.0667 125.442 54.0135 125.531 53.9603C125.619 53.9071 125.708 53.8361 125.797 53.8007C126.453 53.4815 127.18 53.3574 127.907 53.4815C128.226 53.5347 128.528 53.6056 128.829 53.712C129.042 53.7829 129.219 53.9071 129.343 54.0844C129.698 54.5455 129.893 55.0952 129.911 55.6803C129.911 56.5492 129.911 57.4181 129.911 58.3048C129.911 58.4821 129.946 58.6417 129.999 58.8013C130.053 58.9609 130.159 59.1027 130.301 59.1914C130.372 59.2446 130.407 59.3155 130.407 59.4042C130.407 59.546 130.407 59.6879 130.407 59.8298H129.84C129.769 59.7588 129.662 59.7588 129.592 59.7234C129.343 59.617 129.131 59.4574 128.953 59.2446C128.918 59.2091 128.918 59.1382 128.847 59.1382C128.634 59.3687 128.386 59.5283 128.084 59.6347C127.907 59.7056 127.712 59.7588 127.517 59.7943C127.464 59.7943 127.41 59.812 127.357 59.8475L126.471 59.812ZM128.74 57.4536C128.74 57.2408 128.74 57.028 128.74 56.7975C128.74 56.7088 128.723 56.6911 128.616 56.6734C128.421 56.6556 128.226 56.6379 128.031 56.6379C127.641 56.6202 127.251 56.7266 126.896 56.9216C126.435 57.1521 126.187 57.6664 126.293 58.1629C126.311 58.4821 126.542 58.7481 126.861 58.819C127.304 58.9431 127.765 58.8899 128.155 58.6417C128.333 58.5175 128.492 58.3934 128.652 58.2516C128.723 58.1984 128.758 58.1097 128.758 58.0388C128.74 57.8614 128.74 57.6487 128.74 57.4536Z" fill="#D90E04"/>
<path d="M61.4624 59.8121C61.4447 59.7589 61.3915 59.7589 61.356 59.7411C60.363 59.351 59.8842 58.2339 60.2744 57.2409C60.3807 56.9571 60.5758 56.6911 60.8063 56.4961C61.1255 56.2301 61.5156 56.0173 61.9235 55.9109C62.1895 55.84 62.4555 55.7868 62.7215 55.7513C63.0052 55.7336 63.2889 55.769 63.5549 55.84C63.6081 55.84 63.6613 55.8577 63.7145 55.8754C63.7677 55.8932 63.8031 55.8577 63.8209 55.8045C63.8209 55.8045 63.8209 55.8045 63.8209 55.7868C63.8918 55.2903 63.6435 54.8292 63.2002 54.581C63.0584 54.51 62.8988 54.4568 62.7392 54.4391C62.154 54.3327 61.5688 54.4746 61.1078 54.847C61.0723 54.8647 61.0546 54.9001 61.0191 54.9179L61.0014 54.9356C60.9127 54.9001 60.8241 54.8115 60.7886 54.7228C60.6822 54.5455 60.5758 54.3504 60.5049 54.1554C60.4694 54.1022 60.4871 54.049 60.5403 54.0135C60.5935 53.9781 60.6467 53.9426 60.6999 53.9071C61.5688 53.4106 62.5973 53.3219 63.5549 53.6234C63.7499 53.6766 63.9273 53.7653 64.0869 53.8717C64.3883 54.049 64.6011 54.3504 64.6898 54.6874C64.7075 54.7583 64.7252 54.8115 64.743 54.8824C64.8671 55.1839 64.9203 55.5031 64.9026 55.8045C64.9026 56.5493 64.9026 57.294 64.9026 58.0211C64.9026 58.2693 64.9558 58.5176 65.0267 58.7659C65.0622 58.9254 65.1508 59.0673 65.2749 59.156C65.3636 59.2092 65.3991 59.3156 65.3991 59.422C65.3813 59.5461 65.3813 59.6879 65.4168 59.8121H64.9026C64.8848 59.7943 64.8494 59.7943 64.8316 59.7766C64.4415 59.7057 64.1046 59.4574 63.9095 59.085C63.6613 59.3333 63.3598 59.5284 63.0229 59.617C62.8456 59.6702 62.686 59.7057 62.5087 59.7589C62.4555 59.7589 62.42 59.7766 62.3845 59.8121H61.4624ZM63.7677 56.7443C63.7677 56.7443 63.7499 56.7266 63.7322 56.7266C63.3244 56.6202 62.9165 56.6202 62.5087 56.7089C62.2604 56.7621 62.0121 56.8685 61.7994 57.0103C61.3915 57.3118 61.2142 57.826 61.3383 58.3048C61.3915 58.5531 61.5866 58.7659 61.8348 58.8368C62.0476 58.9077 62.2604 58.9255 62.4732 58.89C62.9342 58.8368 63.3776 58.6063 63.6967 58.2516C63.7677 58.1807 63.8031 58.092 63.7854 58.0034C63.7854 57.6132 63.7854 57.2409 63.7854 56.8507C63.7854 56.8153 63.7677 56.7798 63.7677 56.7443Z" fill="#D90E04"/>
<path d="M88.5581 59.8119C88.5404 59.7942 88.5227 59.7764 88.4872 59.7764C87.6538 59.6168 86.9622 59.0139 86.6608 58.216C86.2706 57.2761 86.2352 56.2299 86.5721 55.2723C86.6962 54.8822 86.9267 54.5276 87.2105 54.2261C87.6538 53.7651 88.2744 53.4814 88.9128 53.4636C89.2674 53.4282 89.6044 53.4636 89.9413 53.5345C90.6683 53.6941 91.2712 54.2084 91.5727 54.8822C91.7145 55.1837 91.8032 55.5206 91.8564 55.8575C91.9628 56.5136 91.9273 57.1697 91.7677 57.8081C91.6968 58.1273 91.5727 58.411 91.3954 58.6947C91.0939 59.1912 90.6151 59.5636 90.0477 59.741C89.959 59.7587 89.8526 59.741 89.7994 59.8296L88.5581 59.8119ZM87.5651 56.7264C87.5828 56.9215 87.5828 57.0811 87.6006 57.2229C87.6183 57.5066 87.6892 57.7726 87.8134 58.0386C87.9907 58.4819 88.4163 58.7834 88.8773 58.8366C89.0192 58.8543 89.161 58.8543 89.3029 58.8366C89.7462 58.8011 90.1541 58.5529 90.3846 58.1628C90.4733 58.0209 90.5442 57.8613 90.5974 57.7017C90.7924 57.0456 90.8102 56.3718 90.6683 55.6979C90.6151 55.4674 90.5442 55.2546 90.4201 55.0418C90.2605 54.7404 89.959 54.5098 89.6221 54.4212C88.8951 54.2439 88.2212 54.4389 87.8488 55.2191C87.8134 55.3078 87.7779 55.3965 87.7424 55.4851C87.6183 55.893 87.5651 56.3186 87.5651 56.7264Z" fill="#D90E04"/>
<path d="M121.555 59.8121C121.538 59.7766 121.502 59.7766 121.467 59.7589C120.35 59.4752 119.658 58.7482 119.321 57.6487C119.268 57.4537 119.232 57.2586 119.232 57.0636C119.232 56.833 119.232 56.5848 119.232 56.3543C119.232 55.7868 119.41 55.2194 119.711 54.7229C120.013 54.2263 120.474 53.854 121.023 53.6589C122.123 53.2333 123.151 53.3929 124.144 53.9781C124.233 54.0313 124.251 54.0667 124.18 54.1554C124.056 54.3505 123.932 54.5278 123.807 54.7229C123.79 54.7761 123.736 54.7938 123.683 54.7761H123.666C123.541 54.7051 123.435 54.6519 123.311 54.5987C122.814 54.3682 122.247 54.315 121.715 54.4569C121.272 54.5633 120.917 54.847 120.704 55.2371C120.562 55.4854 120.474 55.7691 120.42 56.0528C120.35 56.5138 120.35 56.9926 120.456 57.4537C120.491 57.6487 120.58 57.8261 120.669 58.0034C120.917 58.4644 121.378 58.7836 121.892 58.8545C122.3 58.9255 122.708 58.8723 123.08 58.7127C123.329 58.6063 123.577 58.4822 123.79 58.3403C123.861 58.358 123.878 58.4112 123.896 58.4644C124.002 58.6595 124.109 58.8723 124.198 59.0673C124.268 59.2092 124.268 59.2269 124.109 59.3156C124.002 59.3688 123.878 59.4397 123.754 59.4752C123.435 59.5993 123.098 59.688 122.743 59.7589C122.708 59.7589 122.655 59.7589 122.619 59.8121H121.555Z" fill="#D90E04"/>
<path d="M34.418 59.8119C34.4003 59.7232 34.3116 59.7409 34.2584 59.7232C33.8328 59.5459 33.4959 59.2267 33.2831 58.8188C33.159 58.5706 33.1058 58.3046 33.1058 58.0386C33.1058 56.9569 33.1058 55.8752 33.1058 54.7936C33.1058 54.7049 33.1058 54.6162 33.1058 54.5453C33.1058 54.4744 33.0881 54.4212 32.9639 54.4212C32.8043 54.4212 32.6625 54.4212 32.5206 54.4212C32.4142 54.4212 32.3965 54.4034 32.3965 54.3148C32.3965 54.102 32.3965 53.9069 32.3965 53.6941C32.3965 53.6055 32.4142 53.57 32.5029 53.57C32.6625 53.57 32.8221 53.57 32.9817 53.57C33.0703 53.57 33.1058 53.5523 33.1058 53.4636C33.1058 53.1799 33.1058 52.8784 33.1058 52.5947C33.1058 52.5238 33.1058 52.4351 33.1058 52.3642C33.1058 52.3287 33.1235 52.2933 33.159 52.2755C33.4604 52.1337 33.7796 52.0273 34.1165 51.9209C34.1697 51.9031 34.2052 51.9386 34.2052 51.9918C34.2052 52.1691 34.2052 52.3287 34.2052 52.5061C34.2052 52.8252 34.2052 53.1267 34.2052 53.4281C34.2052 53.5345 34.2229 53.57 34.3293 53.57H35.7657C35.8543 53.57 35.8898 53.5877 35.8898 53.6764C35.9075 53.9069 35.8898 54.1374 35.8721 54.3857C35.6593 54.4744 35.4288 54.4034 35.216 54.4212C34.9322 54.4389 34.6308 54.4212 34.3471 54.4212C34.2407 54.4212 34.2229 54.4389 34.2052 54.5453C34.2052 54.5985 34.2052 54.6517 34.2052 54.7226C34.2052 55.6979 34.2052 56.6555 34.2052 57.6308C34.2052 57.95 34.3116 58.2691 34.4889 58.5351C34.684 58.8366 35.0386 58.9784 35.3756 58.8898C35.6238 58.8543 35.8898 58.7657 36.1381 58.7125C36.209 58.7657 36.1913 58.8543 36.209 58.9252C36.2445 59.138 36.2977 59.3508 36.3331 59.5636C36.3509 59.6523 36.3154 59.6877 36.2445 59.7055C36.0849 59.7409 35.9253 59.7587 35.7657 59.7764C35.5706 59.7941 35.3578 59.8119 35.145 59.8473L34.418 59.8119Z" fill="#D90E04"/>
<path d="M101.359 43.3029C101.341 43.2675 101.341 43.2143 101.359 43.1611C103.824 31.5817 106.289 20.0023 108.771 8.42292C108.771 8.40519 108.807 8.40518 108.824 8.38745C108.878 8.47611 108.913 8.54705 108.966 8.63571C110.491 11.6502 112.034 14.6471 113.559 17.6616C115.19 20.8889 116.822 24.0985 118.435 27.3259C118.985 28.4076 119.517 29.507 120.085 30.5887C120.404 31.1916 120.67 31.8299 120.883 32.4683C121.202 33.3195 121.45 34.2061 121.61 35.0927C121.787 36.0148 121.805 36.9369 121.645 37.859C121.432 39.189 120.705 40.377 119.624 41.1927C118.914 41.7247 118.116 42.1326 117.283 42.3986C116.308 42.7355 115.315 42.966 114.304 43.0901C113.79 43.1611 113.258 43.232 112.743 43.2852C112.601 43.3029 112.442 43.3029 112.3 43.3029H101.607C101.519 43.3384 101.43 43.3207 101.359 43.3029Z" fill="#E20F00"/>
<path d="M46.7628 15.8884C46.8514 15.8529 46.9401 15.8352 47.0288 15.8529C50.8413 15.8529 54.6715 15.8529 58.484 15.8529C58.8741 15.8706 59.2465 15.9061 59.6366 15.9948C60.3637 16.1189 61.073 16.3494 61.7468 16.6509C62.2433 16.8814 62.7044 17.1828 63.0945 17.5552C63.7683 18.1759 64.2117 18.9916 64.3712 19.8782C64.8146 22.2544 64.2117 24.2936 62.4561 25.9959C61.8355 26.5811 61.1439 27.0776 60.3814 27.4855C59.7608 27.8224 59.1047 28.0884 58.4486 28.3189L58.289 28.3721C58.2712 28.3721 58.2712 28.3898 58.2535 28.4253C58.555 28.4785 58.8387 28.5317 59.1401 28.6026C59.8494 28.7622 60.5233 29.0282 61.1262 29.4006C61.871 29.8262 62.4739 30.4291 62.8994 31.1739C63.1832 31.6881 63.3605 32.2733 63.4137 32.8585C63.4846 33.9047 63.3782 34.9509 63.0945 35.9439C62.4739 38.2137 61.1439 39.9515 59.1756 41.2282C58.0584 41.9553 56.8172 42.4873 55.5227 42.8064C54.8488 42.9838 54.1573 43.0724 53.4834 43.1966C52.8983 43.2852 52.2954 43.3384 51.7102 43.3207C48.2701 43.3207 44.8299 43.3207 41.3721 43.3207C41.2657 43.3384 41.1416 43.3207 41.0352 43.303C41.0352 43.2675 41.0352 43.232 41.0352 43.1788C42.968 34.082 44.8654 24.9852 46.7628 15.8884ZM47.2948 39.916C47.4012 39.9515 47.5076 39.9515 47.6139 39.9515C48.9439 39.9515 50.2561 39.9515 51.586 39.9515C52.0471 39.9515 52.5259 39.8806 52.9692 39.7387C54.0154 39.4018 54.9907 38.8698 55.8419 38.1782C56.4625 37.6817 56.9945 37.1143 57.4378 36.4582C57.6861 36.1035 57.8634 35.6779 57.952 35.2524C57.9698 35.1282 57.9875 35.0041 58.0052 34.8977C58.0762 34.3835 58.0762 33.8515 57.9698 33.3195C57.8457 32.6279 57.5087 31.9718 57.0122 31.4753C56.7285 31.1916 56.4093 30.9611 56.0724 30.766C55.5582 30.4823 54.9907 30.2695 54.4233 30.1631C53.7494 30.0212 53.0579 29.9503 52.3663 29.968C51.4797 30.0035 50.593 30.0212 49.6887 30.039H49.5113C49.4404 30.039 49.3695 30.0922 49.3517 30.1631C49.334 30.1986 49.334 30.234 49.334 30.2695C49.0148 31.8122 48.6956 33.355 48.3764 34.8977C48.075 36.3163 47.7913 37.7349 47.4898 39.1358C47.4012 39.3841 47.348 39.65 47.2948 39.916ZM51.9584 27.9288C52.5436 27.9288 53.1288 27.9288 53.6962 27.9288C53.8381 27.9288 53.9977 27.8933 54.1395 27.8401C54.2105 27.8047 54.2991 27.7692 54.3701 27.7337C55.0439 27.3968 55.6823 27.0244 56.3384 26.6343C57.1364 26.1555 57.7925 25.464 58.218 24.6305C58.3954 24.3113 58.5195 23.9567 58.5727 23.602C58.6259 23.1587 58.7146 22.7331 58.7855 22.2898C58.8032 22.2012 58.8032 22.0948 58.8032 22.0061C58.7677 21.4919 58.5727 20.9776 58.2358 20.5875C57.9343 20.2506 57.5797 19.9846 57.1718 19.8073C56.5157 19.4881 55.7709 19.3462 55.0439 19.364L51.7456 19.4349C51.6924 19.4349 51.657 19.4349 51.6038 19.4349C51.5151 19.4349 51.4442 19.5058 51.4265 19.5945C51.4087 19.7009 51.391 19.7895 51.3733 19.8959C51.2846 20.7471 51.125 21.5983 50.9654 22.4494C50.9299 22.609 50.8945 22.7863 50.859 22.9459C50.7349 23.602 50.6285 24.2582 50.4866 24.9143C50.3093 25.7122 50.1674 26.5279 50.0078 27.3436C49.9724 27.4855 49.9547 27.6451 49.9369 27.7869C49.9192 27.8756 49.9547 27.8933 50.0433 27.8933C50.1142 27.8933 50.1674 27.8933 50.2384 27.8933L51.9584 27.9288Z" fill="#E21001"/>
<path d="M64.707 43.2321C64.7248 43.1435 64.778 43.0371 64.8489 42.9661C65.6823 41.7249 66.5158 40.5013 67.3492 39.26L82.28 17.2184C82.546 16.8283 82.8297 16.4204 83.078 16.0303C83.1489 15.9062 83.2908 15.8175 83.4504 15.8353C83.9469 15.853 84.4434 15.8353 84.9399 15.8353C85.1882 15.8353 85.1704 15.8353 85.2236 16.0481C85.3478 16.5268 85.4542 17.0234 85.5783 17.5021L87.2097 24.3115C87.7771 26.6699 88.3623 29.0283 88.9298 31.3868C89.4795 33.6565 90.0292 35.944 90.5966 38.2138C90.9867 39.792 91.3591 41.3702 91.7492 42.9484C91.767 43.0193 91.7847 43.0903 91.8024 43.1612C91.8024 43.1967 91.7847 43.2144 91.767 43.2144C91.6783 43.2144 91.5896 43.2144 91.5187 43.2144H86.0039C85.8443 43.2144 85.8443 43.2144 85.8088 43.0371L85.3478 40.7496C85.1704 39.8275 84.9754 38.9054 84.7981 38.001C84.7626 37.8414 84.7626 37.8414 84.6207 37.8414H73.5201C73.13 37.8414 73.2364 37.7882 73.0059 38.1251C71.9419 39.7388 70.878 41.3525 69.814 42.9661C69.6012 43.2853 69.6899 43.2321 69.3175 43.2321H64.973H64.707ZM79.6911 33.8338H83.344C83.4326 33.8338 83.5213 33.8338 83.5922 33.8338C83.6277 33.8338 83.6632 33.7984 83.6632 33.7629V33.7452C83.6454 33.6743 83.6454 33.6211 83.6277 33.5501C83.344 32.3443 83.0425 31.1385 82.7588 29.9504L81.5707 25.0739C81.553 25.0385 81.5707 24.9676 81.4998 24.9676C81.4821 24.9676 81.4466 25.003 81.4289 25.0385C81.4111 25.0739 81.3757 25.1094 81.3579 25.1626L75.8431 33.5856C75.8076 33.6388 75.7722 33.692 75.7367 33.7452C75.719 33.7807 75.7367 33.7984 75.7544 33.8161H75.7722C75.8608 33.8161 75.9495 33.8161 76.0204 33.8161L79.6911 33.8338Z" fill="#E10F01"/>
<path d="M53.926 55.4498V51.4777C53.926 51.2117 53.9083 51.2117 54.192 51.2117C54.7772 51.2117 55.3801 51.2117 55.9652 51.2117C56.444 51.1939 56.9228 51.2649 57.3839 51.4067C57.5612 51.4599 57.7208 51.5309 57.8626 51.6195C58.3591 51.9032 58.6783 52.4175 58.7138 53.0027C58.7315 53.2332 58.7315 53.446 58.6783 53.6765C58.5719 54.0666 58.3414 54.4213 58.0045 54.6518C57.8626 54.7582 57.7208 54.8291 57.5789 54.9355C57.5612 54.9532 57.5434 54.971 57.5257 55.0064C57.5257 55.0419 57.5612 55.0596 57.5966 55.0774C57.6853 55.0951 57.7562 55.1128 57.8449 55.1483C58.5719 55.3966 59.1039 56.0172 59.2103 56.7797C59.2635 57.0634 59.2635 57.3471 59.1926 57.6131C59.1571 57.7373 59.1394 57.8437 59.1216 57.9678C59.0684 58.2515 58.9443 58.4998 58.7315 58.7126C58.235 59.2268 57.5789 59.5637 56.8696 59.6878C56.7809 59.7056 56.71 59.7056 56.6214 59.7056H54.1743C54.1211 59.7056 54.0679 59.7056 54.0147 59.7056C53.9615 59.7056 53.926 59.6701 53.926 59.6169C53.926 59.6169 53.926 59.6169 53.926 59.5992C53.926 59.5105 53.926 59.4219 53.926 59.3509V55.4498ZM55.1318 57.0989V57.6841C55.1318 57.9678 55.1318 58.2692 55.1318 58.553C55.1318 58.6593 55.1495 58.6771 55.2559 58.6948C55.6815 58.7303 56.1248 58.7303 56.5504 58.6771C56.71 58.6594 56.8696 58.6239 57.0115 58.5707C57.508 58.4288 57.8626 58.0032 57.9158 57.489C57.969 57.223 57.969 56.9393 57.9158 56.6733C57.8626 56.1768 57.508 55.7867 57.0292 55.6448C56.8164 55.5739 56.5859 55.5384 56.3731 55.5384C55.983 55.5384 55.6106 55.5384 55.2205 55.5384C55.2205 55.5384 55.2027 55.5384 55.185 55.5384C55.1673 55.5384 55.1318 55.5561 55.1318 55.5916C55.1318 55.6625 55.1141 55.7157 55.1141 55.7867C55.1318 56.23 55.1318 56.6556 55.1318 57.0989ZM55.1318 53.446V53.7652C55.1318 54.0134 55.1318 54.2439 55.1318 54.4922C55.1318 54.6341 55.1496 54.6518 55.2737 54.6518C55.5574 54.6518 55.8589 54.6518 56.1426 54.6341C56.3376 54.6341 56.5327 54.5809 56.7277 54.5277C57.1533 54.4213 57.4725 54.0489 57.508 53.6056C57.5257 53.4637 57.5257 53.3218 57.508 53.18C57.4902 52.7899 57.2065 52.4707 56.8341 52.3643C56.6923 52.3111 56.5682 52.2934 56.4263 52.2756C56.0362 52.2579 55.6461 52.2579 55.2559 52.2579C55.1673 52.2579 55.1495 52.2756 55.1495 52.382C55.1318 52.7367 55.1318 53.0913 55.1318 53.446Z" fill="#D90E04"/>
<path d="M47.6647 53.7827V51.3534C47.6647 51.2824 47.6647 51.1938 47.6647 51.1228C47.6647 51.0696 47.7002 51.0342 47.7357 51.0342C47.7357 51.0342 47.7357 51.0342 47.7534 51.0342H48.6578C48.6932 51.0342 48.7287 51.0696 48.7287 51.1051C48.7287 51.1583 48.7287 51.2115 48.7287 51.2824V59.4572C48.7287 59.7231 48.7464 59.7054 48.4627 59.7054H47.7534C47.6825 59.7054 47.647 59.67 47.647 59.599C47.647 59.5281 47.647 59.4749 47.6293 59.404C47.6293 59.3685 47.5938 59.3508 47.5583 59.3508H47.5406C47.5051 59.3685 47.4519 59.3862 47.4165 59.4217C47.0973 59.599 46.7426 59.7232 46.388 59.7586C46.0333 59.7941 45.6787 59.7763 45.324 59.7054C44.7034 59.5636 44.1714 59.1912 43.87 58.6415C43.6394 58.2691 43.4976 57.8435 43.4444 57.4002C43.3025 56.5135 43.4798 55.6269 43.9232 54.8467C44.0827 54.563 44.2778 54.3147 44.5083 54.1019C45.0758 53.5522 45.8915 53.3217 46.6717 53.4813C46.9732 53.5167 47.2746 53.6231 47.5583 53.765C47.5761 53.7827 47.6115 53.7827 47.6647 53.7827ZM47.6115 56.6909C47.6115 56.1766 47.6115 55.6624 47.6115 55.1481C47.6115 55.0417 47.5761 54.9353 47.5051 54.8467C47.3633 54.6871 47.1859 54.563 46.9732 54.492C46.4057 54.3147 45.7851 54.4388 45.3418 54.829C45.0935 55.0417 44.9162 55.3077 44.8098 55.6092C44.5615 56.2653 44.5438 57.0101 44.7566 57.6839C44.8275 57.9322 44.9516 58.145 45.129 58.34C45.5723 58.7833 46.122 58.8897 46.7072 58.8188C46.9554 58.7833 47.2037 58.6947 47.3987 58.5351C47.5406 58.4464 47.6115 58.3045 47.6115 58.1449C47.6115 57.6662 47.6115 57.1874 47.6115 56.6909Z" fill="#D90E04"/>
<path d="M106.644 59.7056H105.456C105.385 59.7056 105.332 59.6702 105.314 59.5992C105.261 59.4396 105.226 59.2978 105.172 59.1382C105.048 58.7835 104.906 58.4111 104.782 58.0565C104.765 57.9856 104.694 57.9324 104.623 57.9324H101.839C101.768 57.9324 101.715 57.9678 101.679 58.021C101.644 58.0919 101.626 58.1629 101.59 58.2338C101.431 58.6239 101.271 59.0318 101.147 59.4396C101.129 59.4751 101.112 59.5283 101.112 59.5815C101.094 59.6524 101.023 59.7056 100.952 59.7056C100.58 59.7056 100.207 59.7056 99.8172 59.7056C99.7995 59.617 99.8172 59.5283 99.8704 59.4574C100.261 58.4821 100.633 57.5068 101.023 56.5315L103.062 51.4068C103.062 51.389 103.08 51.3713 103.08 51.3536C103.115 51.2294 103.24 51.1408 103.364 51.1585C103.381 51.1585 103.399 51.1762 103.417 51.1762C103.435 51.1762 103.47 51.194 103.47 51.2294C103.506 51.2826 103.523 51.3536 103.541 51.4068L106.538 59.4219L106.644 59.7056ZM104.339 57.0103L104.357 56.9925C104.357 56.9925 104.357 56.9748 104.357 56.9571C104.357 56.9216 104.339 56.8861 104.321 56.8507C103.984 55.7867 103.647 54.7228 103.311 53.6588C103.311 53.6411 103.311 53.6411 103.293 53.6411C103.293 53.6411 103.275 53.6411 103.257 53.6411C103.24 53.6588 103.222 53.6765 103.222 53.6943L102.087 56.8684C102.069 56.8861 102.069 56.9216 102.069 56.9571C102.069 56.9748 102.069 57.0103 102.105 57.0103C102.158 57.0103 102.193 57.0103 102.247 57.0103H104.197C104.25 57.028 104.304 57.028 104.339 57.0103Z" fill="#D90E04"/>
<path d="M74.1222 56.2476C74.1931 56.2122 74.2641 56.159 74.2995 56.0881C74.9556 55.3078 75.594 54.5453 76.2501 53.7651C76.2856 53.7296 76.321 53.6764 76.3565 53.641C76.392 53.6055 76.4274 53.5878 76.4806 53.57C76.5693 53.57 77.5269 53.57 77.6687 53.5878C77.651 53.6587 77.5978 53.7119 77.5446 53.7651L75.9664 55.6802C75.7713 55.9285 75.7891 55.8575 75.9487 56.1058C76.6225 57.2052 77.2963 58.3046 77.9879 59.4041C78.0411 59.475 78.0766 59.5636 78.1298 59.6346C78.0943 59.7055 78.0411 59.6878 78.0056 59.6878C77.7042 59.6878 77.4027 59.6878 77.1013 59.6878C77.0126 59.6878 76.9239 59.6523 76.8708 59.5636C76.6402 59.1913 76.4097 58.8189 76.1792 58.4465L75.2039 56.886C75.1684 56.8151 75.1152 56.7442 75.062 56.6732C74.9911 56.6732 74.9734 56.7087 74.9379 56.7442C74.7074 56.9924 74.4769 57.2407 74.2286 57.4712C74.1399 57.5421 74.1045 57.6485 74.1045 57.7727C74.1045 58.3224 74.1045 58.8721 74.1045 59.4395C74.1045 59.7055 74.1045 59.6878 73.8385 59.6878H73.2533C72.9696 59.6878 72.9873 59.7055 72.9873 59.4041V51.3535C72.9873 50.9811 72.9518 51.0165 73.3065 51.0165C73.537 51.0165 73.7498 51.0165 73.9803 51.0165C74.069 51.0165 74.1045 51.0343 74.1045 51.1407C74.1045 51.2471 74.1045 51.3003 74.1045 51.3712L74.1222 56.2476Z" fill="#D90E04"/>
<path d="M67.6498 59.7056H66.71C66.6568 59.7056 66.6213 59.6701 66.6213 59.6347C66.6213 59.6347 66.6213 59.6347 66.6213 59.6169C66.6213 59.546 66.6213 59.4928 66.6213 59.4219V53.8538C66.6213 53.5701 66.6036 53.5701 66.8873 53.5701C67.0114 53.5701 67.1356 53.5701 67.2597 53.5701C67.3306 53.5524 67.4193 53.6056 67.437 53.6765C67.5079 53.8361 67.5789 53.978 67.6321 54.1376C67.6498 54.173 67.6675 54.2085 67.703 54.244C67.7385 54.2085 67.7739 54.1908 67.7917 54.173C68.235 53.6765 68.8734 53.4105 69.5295 53.4637C69.7422 53.4637 69.9373 53.4992 70.1501 53.5169C70.3274 53.5347 70.5047 53.6233 70.6289 53.7297C71.1254 54.1021 71.4446 54.6873 71.48 55.3079C71.48 55.3789 71.48 55.4498 71.48 55.5384C71.48 56.8329 71.48 58.1097 71.48 59.4042C71.48 59.4751 71.48 59.5283 71.48 59.5992C71.48 59.6879 71.4623 59.7233 71.3736 59.7233H70.5225C70.4338 59.7233 70.3984 59.7056 70.3984 59.6169C70.3984 59.5283 70.3984 59.4751 70.3984 59.3864V55.8044C70.3984 55.5916 70.3806 55.3966 70.3274 55.1838C70.2033 54.7582 69.8309 54.439 69.3876 54.4036C69.0684 54.3504 68.7315 54.4036 68.43 54.5454C68.2527 54.6341 68.0931 54.7227 67.9513 54.8291C67.7917 54.9355 67.6853 55.1306 67.703 55.3257C67.703 56.6733 67.703 58.021 67.703 59.3864C67.703 59.4928 67.6853 59.5992 67.6498 59.7056Z" fill="#D90E04"/>
<path d="M24.0428 54.2441C24.096 54.1909 24.1137 54.1731 24.1314 54.1554C24.6812 53.5347 25.3727 53.3752 26.1707 53.4638C26.2062 53.4638 26.2416 53.4816 26.2771 53.4816C26.7913 53.4993 27.1105 53.8185 27.412 54.1909C27.4474 54.2441 27.4829 54.2973 27.5006 54.3682C27.5538 54.4746 27.5893 54.581 27.6248 54.6874C27.7489 54.9888 27.8021 55.3257 27.8021 55.6449C27.7844 56.8862 27.8021 58.1275 27.8021 59.3688C27.8021 59.4397 27.8021 59.5106 27.8021 59.5993C27.8021 59.7234 27.7844 59.7234 27.6602 59.7234C27.3942 59.7234 27.1105 59.7234 26.8445 59.7234C26.7559 59.7234 26.7381 59.7057 26.7204 59.5993C26.7027 59.4929 26.7204 59.4574 26.7204 59.3688C26.7204 58.2162 26.7204 57.0635 26.7204 55.9109C26.7204 55.6095 26.6672 55.308 26.5431 55.042C26.4189 54.6696 26.082 54.4214 25.6919 54.4214C25.0003 54.3504 24.4861 54.6342 24.0782 55.1484C24.0428 55.1839 24.025 55.2548 24.025 55.308V59.3865C24.025 59.4752 24.025 59.5638 24.025 59.6348C24.025 59.688 24.0073 59.7234 23.9364 59.7234H23.032C22.9788 59.7234 22.9434 59.688 22.9434 59.6348C22.9434 59.5816 22.9434 59.5106 22.9434 59.4397C22.9434 57.5955 22.9434 55.7336 22.9434 53.8894V53.6943C22.9434 53.6234 22.9788 53.6057 23.0498 53.6057C23.2271 53.6057 23.4044 53.6057 23.5817 53.6057C23.6527 53.6057 23.7236 53.6411 23.7413 53.7298C23.8655 53.8717 23.9541 54.049 24.0428 54.2441Z" fill="#D90E04"/>
<path d="M84.015 59.7054H83.0575C82.9688 59.7054 82.9511 59.6699 82.9511 59.5813C82.9511 59.4926 82.9511 59.4394 82.9511 59.3508V54.7048C82.9511 54.4388 82.9511 54.4566 82.7028 54.4566C82.5432 54.4566 82.3836 54.4566 82.2241 54.4566C82.0645 54.4566 82.0645 54.4388 82.0645 54.3147C82.0645 54.0842 82.0645 53.8714 82.0645 53.6409C82.0645 53.5877 82.0999 53.5522 82.1354 53.5522C82.1354 53.5522 82.1354 53.5522 82.1531 53.5522H82.7738C82.9511 53.5522 82.9334 53.5167 82.9511 53.3926C82.9688 53.1621 82.9865 52.9316 83.0397 52.701C83.1284 52.2755 83.3235 51.8853 83.6249 51.5661C84.0505 51.1406 84.6357 50.9455 85.2209 51.0342C85.4514 51.0519 85.6996 51.1051 85.9302 51.1583C86.0188 51.176 86.0366 51.2115 86.0188 51.3002C86.0011 51.3888 85.9656 51.4598 85.9302 51.5484C85.8947 51.6903 85.8415 51.8321 85.7706 51.974C85.6287 51.9917 85.4691 51.974 85.3273 51.9208C84.813 51.8321 84.2456 52.24 84.0682 52.6301C84.015 52.7365 83.9973 52.8429 83.9973 52.967C83.9796 53.1443 83.9796 53.3394 84.0328 53.5167C84.1924 53.5345 84.3697 53.5522 84.5293 53.5345C84.7421 53.5345 84.9549 53.5345 85.1677 53.5345C85.2209 53.5345 85.2563 53.5699 85.2741 53.6231V53.6409C85.2741 53.6586 85.2741 53.6763 85.2741 53.6941C85.2741 53.9246 85.2741 54.1551 85.2563 54.4034C85.0258 54.4743 84.7953 54.4211 84.5647 54.4388C84.4229 54.4388 84.2633 54.4388 84.1214 54.4388C84.015 54.4388 83.9973 54.4566 83.9973 54.5807C83.9973 54.6516 83.9973 54.7226 83.9973 54.8112L84.015 59.7054Z" fill="#D90E04"/>
<path d="M111.023 51.2294C110.934 51.4777 110.846 51.7082 110.739 51.9387C110.721 52.0096 110.65 52.0451 110.58 52.0274C110.473 52.0096 110.385 51.9919 110.278 51.9742C109.87 51.8855 109.445 52.0451 109.214 52.3997C108.966 52.7189 108.877 53.1445 109.001 53.5346C109.072 53.5701 109.143 53.5878 109.232 53.5701H110.136C110.189 53.5701 110.243 53.6056 110.243 53.6588V53.6765V53.6942C110.225 53.9425 110.278 54.1907 110.207 54.439C109.977 54.4567 109.746 54.4745 109.516 54.4567C109.391 54.4567 109.25 54.4567 109.125 54.4567C109.055 54.4567 109.019 54.4745 109.019 54.5454C109.019 54.6163 109.019 54.7227 109.019 54.7936V59.3332C109.019 59.4219 109.019 59.5105 109.019 59.5814C109.019 59.6524 108.984 59.6701 108.913 59.6701H108.026C107.991 59.6701 107.937 59.6524 107.937 59.5992V59.5814C107.937 59.4928 107.937 59.4041 107.937 59.3332V54.7582C107.937 54.4035 107.973 54.439 107.618 54.439C107.459 54.439 107.299 54.439 107.139 54.439C107.104 54.439 107.051 54.4213 107.051 54.3681V54.3503C107.051 54.1198 107.051 53.8893 107.051 53.641C107.051 53.5878 107.086 53.5524 107.122 53.5346H107.139H107.618C107.973 53.5346 107.92 53.5524 107.937 53.2509C107.955 52.8963 108.026 52.5593 108.15 52.2402C108.487 51.4422 109.108 51.0521 109.941 51.0166C110.083 51.0166 110.225 51.0343 110.367 51.0698C110.58 51.123 110.81 51.1585 111.023 51.2294Z" fill="#D90E04"/>
<path d="M113.011 54.2971C113.064 54.2971 113.082 54.2439 113.099 54.2084C113.419 53.7651 113.933 53.4814 114.482 53.4637C114.802 53.4459 115.139 53.4637 115.458 53.5346C115.511 53.5878 115.475 53.6233 115.458 53.6765C115.351 53.9424 115.263 54.2262 115.156 54.4922C115.121 54.5986 115.085 54.6163 114.997 54.5808L114.589 54.4567C114.358 54.3858 114.11 54.4035 113.897 54.5099C113.489 54.705 113.153 55.0419 112.993 55.4675C112.94 55.627 112.922 55.7866 112.922 55.9462C112.922 57.0811 112.922 58.216 112.922 59.3509V59.5459C112.922 59.7233 112.922 59.7233 112.727 59.741C112.461 59.741 112.177 59.741 111.911 59.741C111.823 59.741 111.805 59.7055 111.787 59.6169C111.787 59.5459 111.787 59.4928 111.787 59.4218V53.9247C111.787 53.8538 111.787 53.8006 111.787 53.7297C111.787 53.6233 111.805 53.6055 111.929 53.6055H112.78C112.904 53.6055 112.922 53.6233 112.922 53.7651C112.922 53.907 112.922 54.0488 112.94 54.1907C112.957 54.1907 112.957 54.2616 113.011 54.2971Z" fill="#D90E04"/>
<path d="M94.2484 53.6057C94.2839 53.8362 94.2661 54.0668 94.3193 54.3505C94.3903 54.2796 94.4435 54.2086 94.4967 54.1377C94.5498 54.0668 94.603 54.0136 94.674 53.9426C94.7272 53.8894 94.7981 53.8362 94.869 53.7831C94.94 53.7299 95.0109 53.6944 95.0818 53.6589C95.1528 53.6235 95.2414 53.588 95.3123 53.5703C95.401 53.5348 95.4897 53.5171 95.5783 53.4993C95.667 53.4816 95.7379 53.4639 95.8266 53.4639C95.9153 53.4639 96.0039 53.4639 96.0748 53.4639C96.1635 53.4639 96.2344 53.4816 96.3231 53.4993C96.4118 53.5171 96.4827 53.5348 96.5714 53.5525C96.66 53.5703 96.731 53.588 96.8019 53.6412C96.8374 53.6944 96.7842 53.7476 96.7664 53.8008C96.6778 54.049 96.5714 54.2796 96.465 54.5278C96.4472 54.581 96.394 54.6165 96.3408 54.5988H96.3231L95.8621 54.4569C95.7025 54.4037 95.5251 54.4037 95.3655 54.4569C94.6562 54.652 94.1952 55.3081 94.2307 56.0351C94.2307 57.1522 94.2307 58.2871 94.2307 59.4043C94.2307 59.4752 94.2307 59.5461 94.2307 59.6348C94.2307 59.7235 94.2129 59.7235 94.142 59.7235H93.2022C93.149 59.7235 93.1135 59.688 93.1135 59.6525C93.1135 59.6525 93.1135 59.6525 93.1135 59.6348C93.1135 59.5639 93.1135 59.5107 93.1135 59.4397V53.8717C93.1135 53.5703 93.0958 53.588 93.3795 53.588H94.0356C94.142 53.5525 94.1952 53.5703 94.2484 53.6057Z" fill="#D90E04"/>
<path d="M31.0308 56.6556V59.351C31.0308 59.4219 31.0308 59.4928 31.0308 59.5815C31.0308 59.6701 30.9954 59.6879 30.9067 59.6879H30.0378C29.9314 59.6879 29.9137 59.6701 29.9137 59.5815C29.9137 59.4928 29.9137 59.4396 29.9137 59.351V54.7582C29.9137 54.4036 29.9491 54.439 29.5945 54.439H29.1689C29.1157 54.439 29.0802 54.4036 29.0625 54.3681C29.0625 54.3504 29.0625 54.3504 29.0625 54.3326C29.0625 54.1021 29.0625 53.8716 29.0625 53.6233C29.0625 53.5879 29.098 53.5347 29.1334 53.5347H29.1512H29.2398H30.8358H30.9422C30.9776 53.5347 31.0131 53.5701 31.0131 53.6056C31.0131 53.6765 31.0131 53.7652 31.0131 53.8361L31.0308 56.6556Z" fill="#D90E04"/>
<path d="M117.905 56.6556V59.3865C117.905 59.4574 117.905 59.5283 117.905 59.617C117.905 59.7056 117.888 59.7056 117.817 59.7056C117.515 59.7056 117.214 59.7056 116.912 59.7056C116.859 59.7056 116.824 59.6702 116.824 59.617C116.824 59.5283 116.824 59.4396 116.824 59.3687V54.6873C116.824 54.4568 116.824 54.4745 116.611 54.4745C116.451 54.4745 116.292 54.4745 116.132 54.4745C116.008 54.4745 115.99 54.4568 115.99 54.3504C115.99 54.1376 115.99 53.9248 115.99 53.712C115.99 53.6056 116.026 53.5879 116.132 53.5879H117.799C117.852 53.5879 117.888 53.6234 117.905 53.6588V53.6766C117.905 53.7475 117.905 53.8362 117.905 53.9071V56.6556Z" fill="#D90E04"/>
<path d="M31.2081 51.8854C31.1904 52.2756 30.8712 52.5947 30.4811 52.5947C30.1087 52.577 29.8072 52.2756 29.825 51.9032C29.825 51.5308 30.1264 51.2471 30.4988 51.2471C30.9067 51.2648 31.2081 51.5131 31.2081 51.8854Z" fill="#D90E04"/>
<path d="M116.77 51.9387C116.77 51.8323 116.787 51.7082 116.823 51.6018C116.876 51.46 116.982 51.3713 117.124 51.3181C117.319 51.2472 117.532 51.2472 117.727 51.3181C117.922 51.389 118.046 51.5486 118.082 51.7437C118.099 51.8855 118.099 52.0274 118.064 52.1693C117.94 52.5062 117.567 52.6835 117.231 52.5771C117.16 52.5594 117.089 52.5062 117.036 52.4707C116.858 52.3288 116.77 52.1338 116.77 51.9387Z" fill="#D90E04"/>
</svg>
