<svg width="95" height="54" viewBox="0 0 95 54" fill="none" xmlns="http://www.w3.org/2000/svg">
<path d="M52.7528 31.7632C52.7932 31.6893 52.8258 31.6115 52.8613 31.5357L65.7532 3.51711C65.8588 3.28863 65.9653 3.06111 66.069 2.83167C66.1055 2.75295 66.142 2.68383 66.2476 2.68479H66.9935C66.934 2.82879 66.8975 2.93535 66.8476 3.03807C62.2511 13.0592 57.6549 23.08 53.0591 33.1005C52.8757 33.4998 52.6866 33.8982 52.51 34.3005C52.3544 34.6557 52.3775 35.0013 52.6348 35.3027C52.7467 35.4434 52.8967 35.549 53.0669 35.6068C53.2371 35.6647 53.4203 35.6724 53.5948 35.6291C53.9788 35.5513 54.1708 35.2854 54.3205 34.9571C58.9074 24.975 63.4927 14.9949 68.0764 5.01663C68.5141 4.06431 68.9404 3.10911 69.3916 2.16063C69.6392 1.63455 69.4386 0.894389 68.7474 0.751349V0.687988H65.2856C65.289 0.697743 65.2902 0.708106 65.2892 0.718375C65.2882 0.728644 65.2851 0.738579 65.2799 0.747508C64.9036 0.830068 64.7039 1.09599 64.5493 1.41951C64.0373 2.53439 63.5253 3.64895 63.0133 4.76319C59.373 12.7081 55.7288 20.6512 52.0808 28.5923C52.029 28.7065 51.9743 28.8189 51.9119 28.9513C51.7679 28.8553 51.766 28.696 51.6882 28.5837C51.4213 28.1997 51.4866 27.8454 51.6796 27.4259C55.4351 19.2576 59.1791 11.0845 62.9116 2.90655C63.0287 2.64927 63.1496 2.39295 63.2658 2.13855C63.5404 1.52799 63.2476 0.917428 62.5996 0.741748C62.5964 0.723427 62.5892 0.706043 62.5784 0.690868H59.1848C59.1901 0.710639 59.1873 0.731678 59.1772 0.749428C58.8028 0.825268 58.581 1.07295 58.4293 1.40415C57.8444 2.68095 57.2584 3.95711 56.6716 5.23263L48.958 22.0326C48.9224 22.1085 48.886 22.1833 48.838 22.2813C48.6824 22.1161 48.646 21.9049 48.5404 21.7369C48.3426 21.424 48.3743 21.1446 48.5308 20.8057C51.3557 14.688 54.1717 8.56639 56.9788 2.44095C57.0988 2.17983 57.189 1.91967 57.1228 1.62303C57.0857 1.43148 56.9895 1.25634 56.8478 1.12222C56.7061 0.988094 56.526 0.901709 56.3327 0.875188C56.218 0.861568 56.1025 0.856115 55.9871 0.858868C55.1058 0.858868 54.2245 0.875189 53.3442 0.852149C52.774 0.836789 52.4216 1.08063 52.1922 1.58751C50.646 4.96927 49.0936 8.34943 47.5352 11.728C46.9842 12.928 46.4332 14.128 45.8821 15.328C45.8437 15.4134 45.7976 15.495 45.7343 15.6208C45.5807 15.2848 45.4463 14.9833 45.3032 14.6809C45.2504 14.5648 45.332 14.4793 45.3733 14.3929C45.8284 13.3907 46.2856 12.3897 46.7452 11.3901C48.1327 8.36031 49.5199 5.33023 50.9068 2.29983C51.0988 1.88319 51.0421 1.46943 50.756 1.16031C50.6773 1.06818 50.5798 0.993959 50.47 0.942629C50.3602 0.8913 50.2407 0.864051 50.1196 0.862709C49.0808 0.862709 48.0421 0.854069 47.0034 0.862709C46.557 0.862709 46.268 1.12671 46.0876 1.51935L45.0508 3.77631C44.3039 5.40447 43.556 7.03103 42.8072 8.65599C42.7698 8.73855 42.7535 8.83839 42.6488 8.89887L41.8722 7.21599C41.0284 5.37855 40.1778 3.54303 39.3464 1.69983C39.1544 1.26687 38.9279 0.886708 38.4738 0.690868H38.0332C37.9535 0.794548 37.82 0.811828 37.7202 0.882868C37.3948 1.11711 37.2316 1.42335 37.2805 1.82847C37.3095 1.97231 37.3604 2.11087 37.4312 2.23935C38.7752 5.17439 40.1192 8.10847 41.4632 11.0416C41.5082 11.1223 41.5326 11.2129 41.5345 11.3052C41.5363 11.3976 41.5155 11.489 41.4738 11.5715C39.8412 15.1101 38.2136 18.6502 36.5912 22.192C36.5666 22.2715 36.5228 22.3437 36.4636 22.4022C36.384 22.2977 36.3218 22.181 36.2792 22.0566C33.1516 15.2483 30.0242 8.43935 26.8972 1.62975C26.8486 1.51393 26.7908 1.40221 26.7244 1.29567C26.4364 0.865588 25.9141 0.719668 25.485 0.950068C24.9858 1.21503 24.7996 1.71807 25.0156 2.22687C25.053 2.31423 25.0943 2.39871 25.1327 2.48511L35.4508 25.0067C35.4915 25.105 35.5373 25.2011 35.588 25.2947C35.9788 25.9667 36.8552 25.984 37.2728 25.3341C37.3472 25.2078 37.4129 25.0766 37.4696 24.9414L42.4952 14.032C42.534 13.9188 42.591 13.8127 42.6642 13.7181C42.8111 13.9283 42.8764 14.1741 43.0012 14.3901C43.1029 14.5648 43.0789 14.7155 42.9964 14.8912C42.5605 15.8214 42.1324 16.7565 41.708 17.6896C40.172 21.0323 38.636 24.375 37.1 27.7177C37.0335 27.849 36.9984 27.9939 36.9976 28.141C36.9967 28.2882 37.0302 28.4335 37.0952 28.5654C37.1768 28.7363 37.2546 28.9081 37.3324 29.08C37.7423 29.9872 38.1541 30.8934 38.5592 31.8025C38.6956 32.1078 38.901 32.3277 39.2312 32.4122C39.7621 32.5475 40.2018 32.3382 40.4418 31.8237C40.941 30.7494 41.4335 29.6733 41.9288 28.5971C43.1448 25.9501 44.3628 23.3037 45.5826 20.6579C45.622 20.5725 45.6354 20.4659 45.7496 20.4102C45.8524 20.6339 45.9349 20.8509 46.0472 21.0505C46.1596 21.2502 46.1375 21.4086 46.0472 21.6073C44.1176 25.8038 42.1906 30.0029 40.2661 34.2045C40.2181 34.3091 40.1653 34.4128 40.1279 34.5213C40.0807 34.6473 40.0612 34.782 40.0705 34.9162C40.0798 35.0505 40.1179 35.1811 40.182 35.2994C40.2462 35.4177 40.3349 35.5209 40.4424 35.6019C40.5498 35.683 40.6733 35.74 40.8047 35.7693C41.2703 35.8893 41.7052 35.6733 41.9279 35.1933C42.4399 34.0893 42.9474 32.9846 43.4504 31.8793C44.6588 29.2515 45.8677 26.624 47.0773 23.9968C47.1215 23.9008 47.1349 23.7769 47.2636 23.7203C47.3394 23.8825 47.4104 24.0342 47.4805 24.1859C47.6255 24.4998 47.7608 24.8195 47.9183 25.1267C47.9953 25.2894 48.1165 25.4272 48.2681 25.5243C48.4197 25.6214 48.5956 25.6739 48.7756 25.6758C49.1701 25.6902 49.4476 25.4838 49.6492 25.1565C49.7056 25.0559 49.7565 24.9524 49.8018 24.8464L59.2424 4.33599C59.4658 3.85023 59.6898 3.36479 59.9144 2.87967C59.9586 2.78367 59.9884 2.67903 60.1266 2.68767C60.3551 2.69823 60.5855 2.66751 60.8188 2.70783C60.8284 2.87391 60.7324 2.99583 60.6738 3.12351C57.6876 9.63999 54.6994 16.1552 51.7093 22.6691C50.9573 24.3075 50.205 25.9456 49.4524 27.5833C49.3901 27.6992 49.3545 27.8275 49.3482 27.9589C49.3419 28.0903 49.365 28.2214 49.4159 28.3427C49.9279 29.4813 50.4418 30.6176 50.9576 31.7517C51.1333 32.1357 51.454 32.3037 51.8687 32.3065C52.0531 32.3124 52.2351 32.2641 52.3923 32.1675C52.5494 32.0709 52.6748 31.9303 52.7528 31.7632ZM43.844 11.0867C44.244 10.2112 44.6466 9.33599 45.0517 8.46111C45.8764 6.67263 46.7048 4.88607 47.5189 3.09279C47.6149 2.87583 47.734 2.78943 47.9653 2.81631C48.1514 2.82618 48.3379 2.82618 48.524 2.81631L44.1906 12.2627C44.0332 11.9219 43.9093 11.6483 43.7816 11.3776C43.7288 11.2643 43.8066 11.1779 43.8479 11.0867H43.844ZM44.542 18.2368C43.966 19.4944 43.39 20.7507 42.814 22.0057C41.7893 24.2419 40.764 26.48 39.7381 28.72C39.6824 28.8419 39.6248 28.9619 39.5509 29.1203C39.5301 29.0984 39.5108 29.0749 39.4933 29.0502C39.3599 28.7545 39.1477 28.4675 39.117 28.1613C39.0882 27.8733 39.3253 27.6035 39.4511 27.3289C40.9704 24.0016 42.4924 20.6768 44.0168 17.3545C44.0561 17.2324 44.1216 17.1203 44.2088 17.0262C44.3528 17.3411 44.4968 17.6416 44.6274 17.944C44.6735 18.0553 44.5928 18.1446 44.5458 18.2368H44.542ZM47.2607 18.951C47.1071 18.6189 46.9871 18.352 46.8594 18.087C46.7922 17.9478 46.8719 17.8422 46.9228 17.7318C47.4162 16.6547 47.9116 15.5789 48.4088 14.5043C50.1522 10.7155 51.8952 6.92639 53.638 3.13695C53.6687 3.07071 53.7032 3.00543 53.734 2.93727C53.7476 2.89846 53.7741 2.86545 53.809 2.84365C53.8438 2.82184 53.8851 2.81254 53.926 2.81727H54.6604L47.2607 18.951Z" fill="#990D81"/>
<path d="M15.0807 44.103L12.4522 51.2684L11.6238 53.4668C11.6132 53.4966 9.96104 53.557 9.96104 53.557C9.95485 53.5163 9.94522 53.4762 9.93224 53.437C9.1668 51.5439 8.40008 49.6511 7.63208 47.7586C7.61 47.7039 7.6004 47.6386 7.5284 47.6223C7.51676 47.6402 7.50619 47.6588 7.49672 47.678L5.11496 53.557H3.48296C3.50504 53.4342 3.43304 53.3343 3.39464 53.2287C2.96008 52.0575 2.5252 50.8892 2.09 49.7238C1.49672 48.1238 0.903123 46.5257 0.309203 44.9295L0.301523 44.9084L0.0480828 44.2335L0.00488281 44.1164C0.699923 44.1164 1.39688 44.1164 2.09192 44.0991C2.27528 44.0991 2.31752 44.1951 2.3684 44.3314C2.84456 45.5839 3.32296 46.8361 3.8036 48.0879C3.98408 48.5545 4.1636 49.021 4.36808 49.5519C4.42664 49.4194 4.46408 49.3407 4.49576 49.2639C5.15688 47.6402 5.81832 46.0185 6.48008 44.3986C6.62024 44.0569 6.54632 44.1106 6.93032 44.1039H8.37704C8.65448 44.1039 8.65544 44.1039 8.76104 44.365C9.39272 45.9836 10.0241 47.6028 10.6551 49.2226C10.6916 49.3186 10.7348 49.4146 10.7972 49.5606C10.8519 49.4319 10.8932 49.3532 10.9201 49.2726L12.8574 44.3967C12.9735 44.103 12.9745 44.103 13.2759 44.103H15.0807Z" fill="#990D81"/>
<path d="M36.9855 50.1011C36.9855 48.1625 36.9855 46.2236 36.9855 44.2844C36.9855 44.006 36.9855 44.0041 36.7129 44.0032C36.1369 44.0032 35.5609 44.0176 34.9849 43.9955C34.7113 43.9849 34.5586 44.0675 34.4185 44.3123C33.5382 45.8483 32.6396 47.3737 31.7449 48.9011C31.6902 48.9971 31.6556 49.1065 31.5375 49.1728C31.4751 49.0662 31.4204 48.9808 31.3705 48.8848C30.5065 47.3372 29.6482 45.7916 28.7967 44.2393C28.7641 44.1587 28.706 44.0911 28.6313 44.0467C28.5565 44.0023 28.4693 43.9836 28.383 43.9936C27.7542 44.0089 27.1254 43.9936 26.4966 44.0003C26.0934 44.0003 26.1308 43.9523 26.1308 44.3728C26.1308 47.2342 26.1308 50.0956 26.1308 52.9571C26.1308 53.1558 26.1356 53.3555 26.1385 53.5542H28.1545V47.943C28.2562 47.9641 28.2706 48.0304 28.2985 48.0812C29.2815 49.8342 30.2639 51.5875 31.2457 53.3411C31.2686 53.3874 31.2885 53.4352 31.3052 53.4841C31.3964 53.5388 31.4338 53.4755 31.4732 53.4092L32.0982 52.3532C32.9302 50.9452 33.7638 49.5401 34.599 48.1379C34.6433 48.0268 34.7186 47.9308 34.8159 47.8614V48.1168C34.8159 49.814 34.8159 51.51 34.8159 53.2048C34.8159 53.32 34.8217 53.4352 34.8246 53.5504H36.9654C36.9933 53.4384 37.0007 53.3223 36.9874 53.2076C36.9868 52.1747 36.9862 51.1392 36.9855 50.1011Z" fill="#990D81"/>
<path d="M24.3762 51.664C22.437 51.664 20.4975 51.664 18.5576 51.664C18.262 51.664 18.26 51.664 18.2591 51.3827C18.2591 50.8797 18.2591 50.3757 18.2591 49.8726C18.2591 49.6 18.2591 49.599 18.5327 49.5961H18.6892C19.916 49.5961 21.1429 49.5961 22.3698 49.5961C22.6117 49.5961 22.6156 49.5961 22.6165 49.359C22.6165 48.9088 22.6165 48.4576 22.6165 48.0064C22.6165 47.7117 22.6165 47.7376 22.3352 47.7357C21.6018 47.7309 20.8674 47.7357 20.134 47.7357C19.5887 47.7357 19.0434 47.7357 18.502 47.7357C18.2677 47.7357 18.2639 47.7299 18.262 47.4889C18.262 47.0694 18.262 46.6499 18.262 46.2304C18.262 46.0134 18.2677 46.0086 18.4924 46.0086H20.6312C21.8786 46.0086 23.1266 46.0086 24.3752 46.0086C24.6143 46.0086 24.6172 46.0086 24.6191 45.7657C24.6191 45.3251 24.6191 44.8845 24.6191 44.4448C24.6191 44.0905 24.6613 44.1088 24.2783 44.1088C21.678 44.1088 19.078 44.1088 16.4783 44.1088C16.0088 44.1088 16.0722 44.0569 16.0722 44.5024C16.0722 47.5213 16.0722 50.5408 16.0722 53.5609H24.7583C24.7583 53.0579 24.7698 52.5549 24.7698 52.0518C24.764 51.6083 24.8101 51.6688 24.3762 51.664Z" fill="#990D81"/>
<path d="M90.0119 47.7136C91.4635 46.4944 92.9143 45.2742 94.3646 44.0531V43.9907C93.5006 43.9907 92.6452 44.0061 91.786 43.9965C91.5574 43.9881 91.3341 44.0666 91.1611 44.2163C89.8446 45.2896 88.5233 46.3565 87.1972 47.417C87.1223 47.4765 87.0657 47.5859 86.9265 47.5533V47.2989C86.9265 46.2813 86.9265 45.264 86.9265 44.247C86.9265 44.008 86.9217 44.0042 86.6817 44.0032C86.1153 44.0032 85.5492 44.0032 84.9835 44.0032C84.7415 44.0032 84.7415 44.0032 84.7358 44.2442V44.4362V52.5213C84.7358 52.7728 84.7425 53.0253 84.7358 53.2758C84.73 53.4362 84.7819 53.4966 84.9489 53.4947C85.5364 53.4861 86.123 53.487 86.7105 53.4947C86.867 53.4947 86.9515 53.4563 86.9313 53.2845C86.9273 53.2205 86.9273 53.1564 86.9313 53.0925C86.9313 52.2214 86.9313 51.351 86.9313 50.4813C86.9313 50.3853 86.9063 50.271 87.011 50.1933C87.3643 49.9315 87.7163 49.6675 88.067 49.4013C88.08 49.3884 88.0958 49.3788 88.1132 49.3732C88.1306 49.3676 88.1491 49.3662 88.1672 49.3691C88.1852 49.372 88.2024 49.3791 88.2171 49.3899C88.2319 49.4006 88.244 49.4147 88.2523 49.431C88.2907 49.481 88.331 49.527 88.3713 49.5779C89.3895 50.8176 90.4071 52.0576 91.4241 53.2979C91.4682 53.3607 91.5276 53.4113 91.5966 53.4449C91.6656 53.4784 91.742 53.494 91.8187 53.4899C92.5531 53.4794 93.2875 53.4899 94.0209 53.4832C94.0862 53.4832 94.1678 53.5235 94.2129 53.439C94.1719 53.3423 94.1111 53.2553 94.0343 53.1837C92.6788 51.503 91.3223 49.8224 89.9649 48.1418C89.7777 47.9104 89.7316 47.9488 90.0119 47.7136Z" fill="#990D81"/>
<path d="M47.7814 52.361C46.5238 49.7133 45.269 47.065 44.0172 44.4161C43.9001 44.1665 43.7666 44.0801 43.4988 44.0973C43.1222 44.1204 42.7445 44.1204 42.3679 44.0973C42.1145 44.0829 41.9839 44.1645 41.8745 44.4036C40.8598 46.6212 39.8287 48.8311 38.8025 51.0449C38.4185 51.8801 38.0345 52.7191 37.6553 53.5562H39.7318C40.0802 52.8516 40.4316 52.1498 40.7714 51.4442C40.8454 51.2916 40.9481 51.2657 41.0969 51.2666H43.8031H44.6844C44.7358 51.2607 44.7877 51.2717 44.8323 51.2981C44.8768 51.3244 44.9115 51.3646 44.9311 51.4125C45.269 52.0989 45.6137 52.7815 45.9545 53.4669C45.9629 53.4982 45.9658 53.5307 45.9631 53.5629H48.2921C48.3382 53.4669 48.269 53.4045 48.2354 53.3325C48.0876 53.0081 47.934 52.6826 47.7814 52.361ZM41.598 49.577L42.8854 47.0561C43.326 47.9325 43.7311 48.7418 44.1535 49.5828L41.598 49.577Z" fill="#990D81"/>
<path d="M60.684 48.7166C60.5823 48.6485 60.4565 48.611 60.3797 48.5102C60.3874 48.493 60.3893 48.4824 60.396 48.4766C60.4373 48.444 60.4786 48.4123 60.5208 48.3806C61.0546 47.9966 61.3695 47.484 61.4136 46.8254C61.5096 45.4632 60.8376 44.4533 59.5234 44.1307C59.114 44.0384 58.695 43.9955 58.2754 44.003C56.3874 44.003 54.4994 44.003 52.6114 44.003C52.3349 44.003 52.3311 44.003 52.3311 44.2747C52.3311 47.2533 52.3311 50.2322 52.3311 53.2114C52.3311 53.485 52.3311 53.485 52.6066 53.4878H52.7323C54.4949 53.4878 56.2571 53.4878 58.0191 53.4878C58.3965 53.4901 58.7738 53.4702 59.149 53.4283C60.6591 53.2546 61.788 52.2283 61.7093 50.5301C61.7025 50.1664 61.6052 49.8102 61.4262 49.4936C61.2472 49.1769 60.9921 48.9099 60.684 48.7166ZM54.5208 46.1582C54.5208 45.9288 54.5266 45.9211 54.7397 45.9211C55.861 45.9211 56.9829 45.9227 58.1055 45.9259C58.3154 45.9232 58.5246 45.9527 58.7256 46.0133C59.0856 46.1285 59.2431 46.3675 59.2373 46.7813C59.2315 47.172 59.0645 47.4053 58.717 47.5128C58.4631 47.5798 58.2008 47.6089 57.9384 47.5992C57.4661 47.604 56.9947 47.5992 56.5224 47.5992C55.9359 47.5992 55.3483 47.5992 54.7608 47.5992C54.5256 47.5992 54.5227 47.5934 54.5208 47.3515C54.5183 46.9547 54.5183 46.557 54.5208 46.1582ZM58.98 51.3893C58.6085 51.5611 58.2063 51.5678 57.8088 51.5813C57.3787 51.5928 56.9448 51.5813 56.5186 51.5813C55.9426 51.5813 55.3666 51.5813 54.7906 51.5813C54.5266 51.5813 54.5227 51.5813 54.5218 51.3298C54.5218 50.7941 54.5218 50.2594 54.5218 49.7246C54.5218 49.5749 54.5707 49.525 54.7205 49.5259C55.8725 49.5326 57.0245 49.5259 58.1765 49.5394C58.429 49.5417 58.6792 49.5882 58.9157 49.6766C59.292 49.8178 59.4725 50.101 59.4917 50.4965C59.5109 50.892 59.3602 51.2146 58.98 51.3893Z" fill="#990D81"/>
<path d="M83.1633 43.9992C82.6698 44.0079 82.1774 43.9992 81.6839 43.9992C81.323 43.9992 81.3489 43.9695 81.3489 44.3429C81.3489 46.0203 81.3489 47.6981 81.3489 49.3762C81.3489 49.4808 81.3844 49.5979 81.2817 49.7218C81.1924 49.62 81.1194 49.5298 81.0388 49.4482C79.3268 47.7035 77.6158 45.9589 75.9057 44.2143C75.8423 44.1398 75.7625 44.0812 75.6725 44.0431C75.5825 44.0049 75.4848 43.9882 75.3873 43.9944C74.9783 44.0098 74.5694 43.9944 74.1604 43.9992C73.7764 43.9992 73.7966 43.9579 73.7966 44.3467V53.124V53.316C73.7898 53.4312 73.834 53.4888 73.9578 53.4879C74.5242 53.4879 75.0906 53.4879 75.657 53.4879C75.7742 53.4879 75.8346 53.4485 75.8308 53.3266C75.8308 53.2421 75.8308 53.1586 75.8308 53.0741C75.8308 51.3864 75.8308 49.6981 75.8308 48.0091C75.8163 47.8957 75.8244 47.7805 75.8548 47.6703C75.9623 47.6808 76.0026 47.7663 76.0583 47.8191C76.4356 48.1973 76.81 48.5794 77.1863 48.9595C78.6148 50.4072 80.0433 51.8559 81.4718 53.3055C81.5257 53.3677 81.5933 53.4166 81.6692 53.4486C81.7451 53.4805 81.8273 53.4946 81.9095 53.4898C82.2935 53.4773 82.6862 53.4898 83.074 53.4898C83.3802 53.4898 83.3802 53.4898 83.3831 53.1807V44.4005C83.3831 44.3371 83.3783 44.2738 83.3831 44.2085C83.3985 44.0472 83.3255 43.9963 83.1633 43.9992Z" fill="#990D81"/>
<path d="M70.8863 49.4079C70.0684 47.6856 69.2518 45.9634 68.4364 44.2411C68.3548 44.0674 68.2607 43.9896 68.0611 43.9973C67.6319 44.0127 67.1971 44.0146 66.7727 43.9973C66.5625 43.9887 66.4598 44.0578 66.3715 44.2498C64.9955 47.236 63.6153 50.2203 62.231 53.2027C62.1935 53.2843 62.1215 53.3602 62.1647 53.4907H64.0377C64.1923 53.4907 64.2297 53.3861 64.2767 53.2853C64.5907 52.6575 64.9113 52.0373 65.2147 51.3999C65.2429 51.3233 65.2962 51.2585 65.3659 51.2162C65.4357 51.1738 65.5177 51.1563 65.5987 51.1666C66.7411 51.1752 67.8835 51.1771 69.0259 51.1666C69.2447 51.1666 69.3599 51.228 69.455 51.4315C69.7487 52.0565 70.0684 52.6699 70.3785 53.2872C70.4294 53.3899 70.4639 53.4927 70.6175 53.4917C71.3299 53.485 72.0422 53.4917 72.7785 53.4917C72.7713 53.3837 72.7383 53.2791 72.6825 53.1864C72.0828 51.925 71.4841 50.6655 70.8863 49.4079ZM66.1219 49.5039C66.1459 49.2927 67.0819 47.4178 67.3699 47.0079L68.6246 49.5039H66.1219Z" fill="#990D81"/>
</svg>
