<svg width="100" height="78" viewBox="0 0 100 78" fill="none" xmlns="http://www.w3.org/2000/svg">
<g clip-path="url(#clip0_1432_3159)">
<path d="M90.0146 30.6212C90.5671 32.7257 92.7242 33.9885 94.8551 33.4097C96.9597 32.8573 98.2224 30.7001 97.6436 28.5692C97.0912 26.4647 94.934 25.202 92.8032 25.7807C90.7249 26.3595 89.4622 28.5166 90.0146 30.6212Z" fill="#2A4C87"/>
<path d="M84.6748 34.8303C86.0953 34.4357 86.9635 32.9626 86.5689 31.542C86.1743 30.1214 84.7011 29.2533 83.2805 29.6479C81.8599 30.0425 80.9918 31.5157 81.3864 32.9362C81.7547 34.3568 83.2279 35.1986 84.6748 34.8303Z" fill="#2A4C87"/>
<path d="M76.7825 36.1983C77.8348 35.9089 78.4662 34.8303 78.1768 33.778C77.8874 32.7258 76.8088 32.0944 75.7565 32.3838C74.7043 32.6731 74.0729 33.7517 74.3623 34.804C74.6517 35.8563 75.7302 36.4876 76.7825 36.1983Z" fill="#2A4C87"/>
<path d="M70.6533 37.119C71.311 36.9349 71.7056 36.2509 71.5477 35.5932C71.3899 34.9355 70.6796 34.5409 70.0219 34.6988C69.3643 34.8829 68.9697 35.5669 69.1275 36.2246C69.2853 36.8823 69.9693 37.2769 70.6533 37.119Z" fill="#2E4E88"/>
<path d="M87.0947 22.624C88.0944 24.334 90.2778 24.939 91.9878 23.9394C93.6977 22.9397 94.3028 20.7562 93.3031 19.0463C92.3035 17.3363 90.12 16.7313 88.4101 17.7309C86.7001 18.7306 86.095 20.9141 87.0947 22.624Z" fill="#1F3D70"/>
<path d="M79.1771 27.175C79.8611 28.3851 81.3869 28.7797 82.597 28.0958C83.8072 27.4118 84.2018 25.886 83.5178 24.6759C82.8338 23.4657 81.308 23.0711 80.0979 23.7551C78.9141 24.4391 78.4932 25.9649 79.1771 27.175Z" fill="#1F3D70"/>
<path d="M73.5468 28.3588C72.6786 28.8586 72.3893 29.9372 72.8891 30.8053C73.3889 31.6734 74.4675 31.9628 75.3356 31.463C76.2038 30.9631 76.4931 29.8846 75.9933 29.0164C75.5198 28.1746 74.4149 27.8852 73.5468 28.3588Z" fill="#1F3D70"/>
<path d="M68.5224 31.9893C67.97 32.3049 67.7595 33.0152 68.0752 33.5677C68.3909 34.1201 69.1012 34.3306 69.6536 34.0149C70.2061 33.6992 70.4165 32.9889 70.1008 32.4365C69.7851 31.884 69.0749 31.6736 68.5224 31.9893Z" fill="#1F3D70"/>
<path d="M86.7003 15.6C87.963 14.3372 87.963 12.3116 86.7003 11.0489C85.4376 9.78612 83.4119 9.78612 82.1492 11.0489C80.8865 12.3116 80.8865 14.3372 82.1492 15.6C83.3856 16.8627 85.4376 16.8627 86.7003 15.6Z" fill="#194C88"/>
<path d="M78.8344 18.8883C77.9136 17.9676 76.4405 17.9676 75.546 18.8883C74.6253 19.8091 74.6253 21.2822 75.546 22.1767C76.4668 23.0974 77.94 23.0974 78.8344 22.1767C79.7551 21.2559 79.7551 19.7827 78.8344 18.8883Z" fill="#194C88"/>
<path d="M70.4169 25.0179C69.7855 25.6493 69.7855 26.6752 70.4169 27.3066C71.0482 27.938 72.0742 27.938 72.7056 27.3066C73.3369 26.6752 73.3369 25.6493 72.7056 25.0442C72.0742 24.3865 71.0482 24.3865 70.4169 25.0179Z" fill="#194C88"/>
<path d="M66.4446 31.279C66.8655 31.6999 67.5495 31.6999 67.9704 31.279C68.3913 30.8581 68.3913 30.1741 67.9704 29.7532C67.5495 29.3323 66.8655 29.3323 66.4446 29.7532C66.0237 30.1741 66.0237 30.8581 66.4446 31.279Z" fill="#194C88"/>
<path d="M75.3617 10.1809C76.8086 11.0227 78.6764 10.5229 79.5182 9.07601C80.36 7.62913 79.8602 5.76134 78.4133 4.91952C76.9664 4.0777 75.0987 4.57753 74.2568 6.02441C73.3887 7.47129 73.8885 9.33908 75.3617 10.1809Z" fill="#3468A3"/>
<path d="M69.9164 15.3106C69.3113 16.3365 69.6796 17.6519 70.7056 18.257C71.7316 18.862 73.0469 18.4937 73.652 17.4677C74.257 16.4418 73.8887 15.1264 72.8628 14.5214C71.8105 13.9163 70.4951 14.2846 69.9164 15.3106Z" fill="#3468A3"/>
<path d="M68.4961 22.0453C67.8121 21.6507 66.944 21.8874 66.5494 22.5714C66.1548 23.2554 66.3916 24.1235 67.0756 24.5181C67.7595 24.9127 68.6277 24.676 69.0223 23.992C69.4169 23.308 69.1801 22.4399 68.4961 22.0453Z" fill="#3468A3"/>
<path d="M65.1813 27.78C64.7077 27.517 64.1027 27.6748 63.8396 28.1483C63.5766 28.6219 63.7344 29.2269 64.2079 29.49C64.6814 29.7531 65.2865 29.5952 65.5496 29.1217C65.8126 28.6482 65.6548 28.0431 65.1813 27.78Z" fill="#3468A3"/>
<path d="M67.365 6.68201C68.8908 7.10292 70.4692 6.18218 70.8638 4.65638C71.2847 3.13058 70.364 1.55216 68.8382 1.15756C67.3124 0.762956 65.734 1.65739 65.3394 3.18319C64.9185 4.70899 65.8392 6.28741 67.365 6.68201Z" fill="#4C8DCB"/>
<path d="M64.9449 15.679C65.9971 15.9684 67.0757 15.337 67.3651 14.2847C67.6545 13.2324 67.0231 12.1539 65.9708 11.8645C64.9186 11.5751 63.84 12.2065 63.5506 13.2587C63.2875 14.311 63.8926 15.3896 64.9449 15.679Z" fill="#4C8DCB"/>
<path d="M63.0508 22.7819C63.7611 22.9661 64.4977 22.5452 64.6818 21.8349C64.866 21.1246 64.4451 20.388 63.7348 20.2039C63.0245 20.0197 62.2879 20.4406 62.1038 21.1509C61.9196 21.8349 62.3405 22.5715 63.0508 22.7819Z" fill="#4C8DCB"/>
<path d="M60.9459 27.2012C60.8143 27.6748 61.1037 28.1746 61.5772 28.3061C62.0507 28.4377 62.5506 28.1483 62.6821 27.6748C62.8136 27.2012 62.5243 26.7014 62.0507 26.5699C61.5509 26.4383 61.0511 26.7277 60.9459 27.2012Z" fill="#4C8DCB"/>
<path d="M58.6833 5.36661C60.1565 5.36661 61.3666 4.15649 61.3666 2.68331C61.3666 1.21012 60.1565 0 58.6833 0C57.2101 0 56 1.21012 56 2.68331C56 4.1828 57.2101 5.36661 58.6833 5.36661Z" fill="#3498B3"/>
<path d="M58.6834 11.1016C57.6837 11.1016 56.8945 11.8908 56.8945 12.8904C56.8945 13.8901 57.6837 14.6793 58.6834 14.6793C59.6831 14.6793 60.4723 13.8901 60.4723 12.8904C60.4723 11.9171 59.6831 11.1016 58.6834 11.1016Z" fill="#3498B3"/>
<path d="M59.9464 20.8614C59.9464 20.1774 59.3939 19.5986 58.6836 19.5986C57.9733 19.5986 57.4209 20.1511 57.4209 20.8614C57.4209 21.5717 57.9733 22.1241 58.6836 22.1241C59.3939 22.1241 59.9464 21.5453 59.9464 20.8614Z" fill="#3498B3"/>
<path d="M58.6837 26.228C58.2365 26.228 57.8682 26.5963 57.8682 27.0435C57.8682 27.4908 58.2365 27.8591 58.6837 27.8591C59.1309 27.8591 59.4992 27.4908 59.4992 27.0435C59.4992 26.5963 59.1309 26.228 58.6837 26.228Z" fill="#3498B3"/>
<path d="M49.9233 6.36627C51.2649 5.99797 52.0541 4.63001 51.6858 3.28836C51.3175 1.9467 49.9496 1.1575 48.6079 1.52579C47.2663 1.89409 46.4771 3.26205 46.8454 4.6037C47.2137 5.91905 48.6079 6.70826 49.9233 6.36627Z" fill="#0AA496"/>
<path d="M50.3704 14.2058C50.6071 15.0739 51.4753 15.5738 52.3434 15.337C53.2115 15.1002 53.7114 14.2321 53.4746 13.364C53.2378 12.4958 52.3697 11.996 51.5016 12.2328C50.6598 12.4695 50.1336 13.364 50.3704 14.2058Z" fill="#0AA496"/>
<path d="M52.8693 21.8084C53.0272 22.4397 53.6848 22.808 54.2899 22.6239C54.9213 22.4661 55.2895 21.8084 55.1054 21.2033C54.9476 20.572 54.2899 20.2037 53.6848 20.3878C53.0535 20.5456 52.7115 21.177 52.8693 21.8084Z" fill="#0AA496"/>
<path d="M54.8952 27.6485C55.0005 28.0431 55.3951 28.2536 55.7634 28.1483C56.158 28.0431 56.3684 27.6485 56.2632 27.2802C56.158 26.8856 55.7634 26.6751 55.3951 26.7804C55.0268 26.8856 54.79 27.2539 54.8952 27.6485Z" fill="#0AA496"/>
<path d="M41.6886 9.60209C42.7934 8.97073 43.188 7.52385 42.5567 6.41896C41.9253 5.31407 40.4784 4.91946 39.3735 5.55083C38.2687 6.1822 37.8741 7.62908 38.5054 8.73397C39.1631 9.86516 40.5837 10.2335 41.6886 9.60209Z" fill="#00AA75"/>
<path d="M46.3457 17.6519C47.0297 17.2573 47.2665 16.3892 46.8719 15.7052C46.4773 15.0212 45.6091 14.7844 44.9252 15.1791C44.2412 15.5737 44.0044 16.4418 44.399 17.1258C44.7673 17.8097 45.6618 18.0465 46.3457 17.6519Z" fill="#00AA75"/>
<path d="M50.134 24.2549C50.6601 23.9655 50.818 23.3079 50.5286 22.7817C50.2392 22.2556 49.5815 22.0977 49.0554 22.3871C48.5293 22.6765 48.3714 23.3342 48.6608 23.8603C48.9765 24.3601 49.6342 24.5443 50.134 24.2549Z" fill="#00AA75"/>
<path d="M53.2378 28.3589C53.0536 28.0695 52.6853 27.9643 52.3696 28.1221C52.0803 28.3063 51.975 28.6746 52.1329 28.9903C52.317 29.2796 52.6853 29.3849 52.9747 29.227C53.3167 29.0429 53.4219 28.6483 53.2378 28.3589Z" fill="#00AA75"/>
<path d="M34.5082 14.8898C35.35 14.0479 35.35 12.68 34.5082 11.8382C33.6663 10.9963 32.2984 10.9963 31.4566 11.8382C30.6147 12.68 30.6147 14.0479 31.4566 14.8898C32.3247 15.7316 33.6927 15.7316 34.5082 14.8898Z" fill="#4FBA6A"/>
<path d="M41.1111 19.704C40.6112 19.2041 39.822 19.2041 39.3485 19.704C38.8487 20.2038 38.8487 20.993 39.3485 21.4665C39.8483 21.9664 40.6375 21.9664 41.1111 21.4665C41.5846 20.9667 41.5846 20.1775 41.1111 19.704Z" fill="#4FBA6A"/>
<path d="M46.5564 25.5176C46.1618 25.123 45.5568 25.123 45.1622 25.5176C44.7676 25.9122 44.7676 26.5173 45.1622 26.9119C45.5568 27.3065 46.1618 27.3065 46.5564 26.9119C46.9247 26.5173 46.9247 25.9122 46.5564 25.5176Z" fill="#4FBA6A"/>
<path d="M50.6075 30.2002C50.397 29.9898 50.055 30.0161 49.8709 30.2265C49.6604 30.437 49.6867 30.779 49.8972 30.9631C50.1077 31.1473 50.4233 31.1473 50.6338 30.9631C50.8179 30.7527 50.8179 30.4107 50.6075 30.2002Z" fill="#4FBA6A"/>
<path d="M26.194 22.5449C27.1411 23.0974 28.3512 22.7554 28.8773 21.8346C29.4298 20.8876 29.0878 19.6775 28.1671 19.1513C27.22 18.5989 26.0099 18.9409 25.4838 19.8616C24.9313 20.7823 25.247 21.9925 26.194 22.5449Z" fill="#7EC45F"/>
<path d="M36.6117 25.0706C36.0855 24.7812 35.4542 24.9654 35.1385 25.4652C34.8491 25.9914 35.0333 26.6227 35.5331 26.9384C36.0592 27.2278 36.6906 27.0699 37.0063 26.5438C37.2957 26.0177 37.1115 25.36 36.6117 25.0706Z" fill="#7EC45F"/>
<path d="M43.4257 29.2007C43.0048 28.9639 42.4523 29.0955 42.2156 29.5427C41.9788 29.9636 42.1103 30.516 42.5576 30.7528C42.9785 30.9896 43.5309 30.858 43.7677 30.4371C44.0044 30.0162 43.8466 29.4637 43.4257 29.2007Z" fill="#7EC45F"/>
<path d="M95.0927 34.6987C92.725 34.6987 90.7783 36.6191 90.7783 39.0131C90.7783 41.3807 92.6987 43.3274 95.0927 43.3274C97.4603 43.3274 99.3807 41.407 99.407 39.0394C99.3807 36.6454 97.4603 34.6987 95.0927 34.6987Z" fill="#4C609B"/>
<path d="M87.9634 39.0132C87.9634 37.3033 86.5955 35.9353 84.8855 35.9353C83.1756 35.9353 81.8076 37.3033 81.8076 39.0132C81.8076 40.7232 83.1756 42.0911 84.8855 42.0911C86.5692 42.0911 87.9634 40.7232 87.9634 39.0132Z" fill="#4C609B"/>
<path d="M76.9141 36.9087C75.7566 36.9087 74.8096 37.8557 74.8096 39.0132C74.8096 40.1707 75.7566 41.1178 76.9141 41.1178C78.0716 41.1178 79.0187 40.1707 79.0187 39.0132C79.0187 37.8557 78.0716 36.9087 76.9141 36.9087Z" fill="#4C609B"/>
<path d="M72.1002 39.0132C72.1002 38.2503 71.4951 37.6453 70.7322 37.6453C69.9693 37.6453 69.3643 38.2503 69.3643 39.0132C69.3643 39.7761 69.9693 40.3812 70.7322 40.3812C71.4951 40.3812 72.1002 39.7761 72.1002 39.0132Z" fill="#54669F"/>
<path d="M94.856 44.5903C92.7515 44.0115 90.5943 45.2743 90.0156 47.3788C89.4368 49.4834 90.6996 51.6405 92.8041 52.2193C94.9087 52.798 97.0658 51.5353 97.6446 49.4307V49.4044C98.197 47.3262 96.9343 45.169 94.856 44.5903Z" fill="#746FA7"/>
<path d="M83.2804 48.3521C84.7009 48.7467 86.1741 47.8785 86.5687 46.458C86.9633 45.0374 86.0952 43.5642 84.6746 43.1696C83.254 42.775 81.7809 43.6431 81.3863 45.0637C80.9916 46.4843 81.8335 47.9575 83.2804 48.3521Z" fill="#746FA7"/>
<path d="M75.7564 45.6162C76.8087 45.9056 77.8872 45.2742 78.1766 44.222C78.466 43.1697 77.8346 42.0911 76.7824 41.8017C75.7301 41.5124 74.6515 42.1437 74.3621 43.196C74.0991 44.2483 74.7041 45.3269 75.7564 45.6162Z" fill="#746FA7"/>
<path d="M69.9953 43.3275C70.653 43.5116 71.3369 43.117 71.5211 42.433C71.7052 41.7754 71.3106 41.0914 70.6266 40.9072C69.969 40.7231 69.285 41.1177 69.1008 41.8017C68.9167 42.433 69.3113 43.1433 69.9953 43.3275Z" fill="#746FA7"/>
<path d="M91.9878 54.0608C90.2778 53.0611 88.0944 53.6662 87.0947 55.3761C86.095 57.0861 86.7001 59.2695 88.4101 60.2692C90.12 61.2689 92.3035 60.6638 93.3031 58.9539C94.2765 57.2439 93.6977 55.0604 91.9878 54.0608Z" fill="#99558E"/>
<path d="M83.544 53.3242C84.228 52.1141 83.8334 50.5883 82.6233 49.9043C81.4131 49.2203 79.8873 49.6149 79.2034 50.825C78.5194 52.0351 78.914 53.561 80.1241 54.2449C81.3079 54.9289 82.8337 54.508 83.544 53.3242Z" fill="#99558E"/>
<path d="M75.9933 48.9836C76.4931 48.1155 76.2038 47.0369 75.3356 46.537C74.4675 46.0372 73.3889 46.3266 72.8891 47.1947C72.3893 48.0628 72.6786 49.1414 73.5468 49.6413C74.4149 50.1148 75.4935 49.8254 75.9933 48.9836Z" fill="#99558E"/>
<path d="M70.1268 45.5636C70.4425 45.0112 70.2584 44.3009 69.7059 43.9589C69.1535 43.6432 68.4432 43.8274 68.1012 44.3798C67.7592 44.9322 67.9697 45.6425 68.5221 45.9845H68.5484C69.1009 46.3002 69.8111 46.1161 70.1268 45.5636Z" fill="#99558E"/>
<path d="M82.1228 62.4C80.8601 63.6627 80.8601 65.6883 82.1228 66.9511C83.3856 68.2138 85.4112 68.2138 86.6739 66.9511C87.9367 65.6883 87.9367 63.6627 86.6739 62.4C85.4375 61.1636 83.3856 61.1636 82.1228 62.4Z" fill="#AF3379"/>
<path d="M78.8344 59.1117C79.7551 58.191 79.7551 56.7178 78.8344 55.8234C77.9136 54.9026 76.4405 54.9026 75.546 55.8234C74.6253 56.7441 74.6253 58.2173 75.546 59.1117C76.4405 60.0325 77.9136 60.0325 78.8344 59.1117Z" fill="#AF3379"/>
<path d="M72.7056 52.9822C73.3369 52.3508 73.3369 51.3249 72.7056 50.6935C72.0742 50.0621 71.0482 50.0621 70.4169 50.6935C69.7855 51.3249 69.7855 52.3508 70.4169 52.9559C71.0482 53.6136 72.0742 53.6136 72.7056 52.9822Z" fill="#AF3379"/>
<path d="M66.4446 48.2206C66.8655 48.6415 67.5495 48.6415 67.9704 48.2206C68.3913 47.7997 68.3913 47.1157 67.9704 46.6948C67.5495 46.2739 66.8655 46.2739 66.4446 46.6948C66.0237 47.1157 66.0237 47.7997 66.4446 48.2206Z" fill="#AF3379"/>
<path d="M75.3618 67.8192C73.9149 68.661 73.4151 70.5288 74.2569 71.9757C75.0987 73.4226 76.9665 73.9224 78.4134 73.0806C79.8603 72.2387 80.3601 70.371 79.5183 68.9241C78.6765 67.4772 76.8087 66.9774 75.3618 67.8192Z" fill="#BE266A"/>
<path d="M73.6256 60.5586C73.0205 59.5327 71.7315 59.1644 70.6792 59.7694C69.6533 60.3745 69.285 61.6635 69.89 62.7158C70.4951 63.7418 71.7841 64.1101 72.8364 63.505C73.8624 62.8999 74.2307 61.5846 73.6256 60.5586Z" fill="#BE266A"/>
<path d="M68.4961 55.9549C69.1801 55.5603 69.4169 54.6921 69.0223 54.0082C68.6277 53.3242 67.7595 53.0874 67.0756 53.482C66.3916 53.8766 66.1548 54.7448 66.5494 55.4287C66.944 56.1127 67.8121 56.3495 68.4961 55.9549Z" fill="#BE266A"/>
<path d="M64.2079 48.51C63.7344 48.7731 63.5766 49.3782 63.8396 49.8517C64.1027 50.3252 64.7077 50.483 65.1813 50.22C65.6548 49.9569 65.8126 49.3519 65.5496 48.8783C65.2865 48.4048 64.6814 48.247 64.2079 48.51Z" fill="#BE266A"/>
<path d="M67.365 71.3181C65.8392 71.7391 64.9185 73.2912 65.3394 74.817C65.7603 76.3428 67.3124 77.2635 68.8382 76.8426C70.364 76.4217 71.2847 74.8696 70.8638 73.3438C70.4692 71.818 68.8908 70.8972 67.365 71.3181Z" fill="#D4525C"/>
<path d="M65.9708 66.1094C67.0231 65.82 67.6545 64.7414 67.3651 63.6892C67.0757 62.6369 65.9971 62.0055 64.9449 62.2949C63.8926 62.5843 63.2875 63.6629 63.5506 64.7151C63.84 65.7937 64.9186 66.3988 65.9708 66.1094Z" fill="#D4525C"/>
<path d="M64.6818 56.1653C64.4977 55.455 63.7611 55.0341 63.0508 55.2183C62.3405 55.4024 61.9196 56.139 62.1038 56.8493C62.2879 57.5596 63.0245 57.9805 63.7348 57.7963C64.4714 57.6385 64.8923 56.9019 64.6818 56.1653Z" fill="#D4525C"/>
<path d="M62.6558 50.325C62.5242 49.8515 62.0244 49.5621 61.5509 49.6937C61.0773 49.8252 60.788 50.325 60.9195 50.7986C61.051 51.2721 61.5246 51.5615 62.0244 51.4299C62.4979 51.2984 62.7873 50.7986 62.6558 50.325Z" fill="#D4525C"/>
<path d="M58.6833 72.6333C57.2101 72.6333 56 73.8434 56 75.3166C56 76.7898 57.2101 77.9999 58.6833 77.9999C60.1565 77.9999 61.3666 76.8161 61.3666 75.3166C61.3666 73.8434 60.1828 72.6333 58.6833 72.6333Z" fill="#E0654F"/>
<path d="M56.8945 65.1097C56.8945 66.1093 57.6837 66.8985 58.6834 66.8985C59.6831 66.8985 60.4723 66.1093 60.4723 65.1097C60.4723 64.11 59.6831 63.3208 58.6834 63.3208C57.71 63.3208 56.8945 64.11 56.8945 65.1097Z" fill="#E0654F"/>
<path d="M58.6836 58.3751C59.3676 58.3751 59.9464 57.8226 59.9464 57.1123C59.9464 56.4021 59.3939 55.8496 58.6836 55.8496C57.9997 55.8496 57.4209 56.4021 57.4209 57.1123C57.4472 57.8226 57.9997 58.3751 58.6836 58.3751Z" fill="#E0654F"/>
<path d="M58.6837 50.1409C58.2365 50.1409 57.8682 50.5092 57.8682 50.9564C57.8682 51.4036 58.2365 51.7719 58.6837 51.7719C59.1309 51.7719 59.4992 51.4036 59.4992 50.9564C59.4992 50.5092 59.1309 50.1409 58.6837 50.1409Z" fill="#E0654F"/>
<path d="M49.9234 71.6336C48.5818 71.2653 47.2138 72.0808 46.8455 73.3962C46.4772 74.7378 47.2928 76.1058 48.6081 76.4741C49.9498 76.8424 51.3177 76.0269 51.686 74.7115C52.0543 73.3699 51.2651 72.0019 49.9234 71.6336Z" fill="#F57F2A"/>
<path d="M52.3434 62.6367C51.4753 62.4 50.6071 62.9261 50.3704 63.7679C50.1336 64.6361 50.6598 65.5042 51.5016 65.741C52.3697 65.9777 53.2378 65.4516 53.4746 64.6098C53.7114 63.7679 53.2115 62.8735 52.3434 62.6367Z" fill="#F57F2A"/>
<path d="M54.2901 55.3762C53.6588 55.2183 53.0274 55.5866 52.8696 56.1917C52.7117 56.823 53.08 57.4544 53.6851 57.6122C54.3164 57.7701 54.9478 57.4018 55.1057 56.7967C55.2898 56.1917 54.9215 55.5603 54.2901 55.3762Z" fill="#F57F2A"/>
<path d="M56.2897 50.7198C56.395 50.3252 56.1582 49.9306 55.7899 49.8517C55.4216 49.7728 55.0007 49.9832 54.9218 50.3515C54.8428 50.7198 55.0533 51.1407 55.4216 51.2197C55.7899 51.3249 56.1845 51.1144 56.2897 50.7198Z" fill="#F57F2A"/>
<path d="M41.6893 68.398C40.5844 67.7666 39.1638 68.1349 38.5062 69.2398C37.8748 70.3447 38.2431 71.7653 39.348 72.423C40.4529 73.0543 41.8734 72.686 42.5311 71.5811C43.1888 70.4763 42.7942 69.0557 41.6893 68.398Z" fill="#F89828"/>
<path d="M46.3457 60.348C45.6618 59.9534 44.7936 60.1902 44.399 60.8741C44.0044 61.5581 44.2412 62.4262 44.9252 62.8208C45.6091 63.2155 46.4773 62.9787 46.8719 62.2947C47.2665 61.6107 47.0297 60.7426 46.3457 60.348Z" fill="#F89828"/>
<path d="M49.0818 55.6128C49.6079 55.9022 50.2656 55.7444 50.555 55.2182C50.8443 54.6921 50.6865 54.0344 50.1604 53.745C49.6342 53.4557 48.9765 53.6135 48.6872 54.1396C48.3978 54.6658 48.5556 55.3234 49.0818 55.6128Z" fill="#F89828"/>
<path d="M53.0272 48.773C52.7378 48.5888 52.3432 48.6941 52.1853 49.0097C52.0012 49.2991 52.1064 49.6937 52.4221 49.8516C52.7115 50.0357 53.1061 49.9305 53.2639 49.6148C53.4218 49.3517 53.3165 48.9571 53.0272 48.773Z" fill="#F89828"/>
<path d="M31.482 63.1104C30.6401 63.9522 30.6401 65.3202 31.482 66.162C32.3238 67.0038 33.6917 67.0038 34.5336 66.162C35.3754 65.3202 35.3754 63.9522 34.5336 63.1104C33.6917 62.2685 32.3238 62.2685 31.482 63.1104Z" fill="#FEC127"/>
<path d="M39.3485 56.5336C38.8487 57.0334 38.8487 57.8226 39.3485 58.2961C39.8483 58.796 40.6375 58.796 41.1111 58.2961C41.5846 57.7963 41.6109 57.0071 41.1111 56.5336C40.6375 56.0337 39.822 56.0337 39.3485 56.5336Z" fill="#FEC127"/>
<path d="M45.1622 51.0879C44.7676 51.4825 44.7676 52.0876 45.1622 52.4822C45.5568 52.8768 46.1618 52.8768 46.5564 52.4822C46.951 52.0876 46.951 51.4825 46.5564 51.0879C46.1618 50.6933 45.5305 50.6933 45.1622 51.0879Z" fill="#FEC127"/>
<path d="M50.6075 47.0367C50.397 46.8262 50.055 46.8525 49.8709 47.063C49.6604 47.2734 49.6867 47.6154 49.8972 47.7996C50.1077 47.9837 50.4233 47.9837 50.6338 47.7996C50.8179 47.5891 50.8179 47.2471 50.6075 47.0367Z" fill="#FEC127"/>
<path d="M26.2468 55.4022C25.2997 55.9547 24.984 57.1385 25.5365 58.0855C26.0889 59.0326 27.2727 59.3482 28.2198 58.7958C29.1668 58.2434 29.4825 57.0595 28.9301 56.1125C28.4039 55.1654 27.1938 54.8498 26.2468 55.4022Z" fill="#FED627"/>
<path d="M35.5331 51.0618C35.0333 51.3512 34.8491 52.0089 35.1385 52.535C35.4279 53.0349 36.0855 53.219 36.6117 52.9296C37.1115 52.6402 37.2957 51.9826 37.0063 51.4564C36.7169 50.9566 36.0592 50.7725 35.5331 51.0618Z" fill="#FED627"/>
<path d="M42.5312 47.2473C42.1103 47.484 41.9525 48.0365 42.2155 48.4574C42.4523 48.8783 43.0047 49.0361 43.4256 48.7731C43.8466 48.5363 44.0044 47.9839 43.7413 47.5629C43.5046 47.142 42.9521 46.9842 42.5312 47.2473Z" fill="#FED627"/>
<path d="M22.2485 32.752H25.4053V44.9058H22.2485V32.752ZM24.1689 27.3328C23.1955 27.0697 22.1959 27.6484 21.9328 28.6218C21.6697 29.5952 22.2485 30.5948 23.2219 30.8579C24.1952 31.121 25.1949 30.5422 25.4579 29.5689C25.721 28.5955 25.1423 27.5695 24.1689 27.3328ZM35.1652 45.1689C34.4023 45.1689 33.6394 45.0373 32.9291 44.7216C32.2977 44.4323 31.7453 43.985 31.3244 43.4326V50.9827H28.2465V32.752H31.2981V34.4356C31.6927 33.8306 32.2451 33.357 32.9028 33.0151C33.5868 32.6731 34.3497 32.4889 35.1389 32.4889C35.9018 32.4889 36.6384 32.6468 37.3487 32.9361C38.059 33.2255 38.6903 33.6727 39.2165 34.1989C39.7689 34.7776 40.2161 35.4616 40.5055 36.1982C40.8475 37.04 41.0053 37.9081 40.979 38.8026C41.0053 39.697 40.8212 40.5914 40.4792 41.4333C40.1635 42.1699 39.7163 42.8538 39.1638 43.4326C38.1379 44.5375 36.6647 45.1689 35.1652 45.1689ZM34.5338 42.2225C34.981 42.2225 35.4283 42.1436 35.8492 41.9594C36.2438 41.7753 36.6121 41.5385 36.9278 41.2228C37.2434 40.9071 37.4802 40.5388 37.638 40.1442C37.98 39.2761 37.98 38.3291 37.638 37.4609C37.4802 37.0663 37.2171 36.698 36.9278 36.3823C36.6121 36.0667 36.2438 35.8299 35.8492 35.6458C35.4283 35.4616 34.981 35.3827 34.5338 35.3827C33.6394 35.3827 32.7713 35.751 32.1136 36.3823C31.7979 36.698 31.5611 37.0663 31.4033 37.4609C31.0613 38.3291 31.0613 39.2761 31.4033 40.1179C31.5611 40.5125 31.7979 40.8808 32.1136 41.1965C32.7713 41.8805 33.6394 42.2488 34.5338 42.2225ZM43.2414 32.752H46.293V34.6198C46.5561 33.9621 47.0033 33.4097 47.6084 33.0414C48.2397 32.6994 48.9237 32.5152 49.6603 32.5415C50.0549 32.5415 50.4232 32.5941 50.7915 32.6731C51.1072 32.752 51.4229 32.8572 51.7122 33.0151L50.581 36.0667C50.3706 35.9351 50.1338 35.8299 49.8971 35.751C49.5814 35.6721 49.2657 35.6194 48.95 35.6194C48.2397 35.5931 47.5557 35.8299 47.0296 36.2771C46.5561 36.7243 46.3193 37.4609 46.3193 38.4606V44.8795H43.2414V32.752ZM58.5783 45.1689C57.7102 45.1689 56.8421 45.011 56.0266 44.669C55.2637 44.3533 54.5797 43.8798 53.9746 43.3011C52.7908 42.1173 52.1332 40.5125 52.1332 38.8289C52.1332 37.9871 52.291 37.1452 52.6067 36.356C52.9224 35.5931 53.3696 34.9092 53.9483 34.3304C56.5001 31.8576 60.5514 31.8576 63.1031 34.3304C64.2869 35.5142 64.9709 37.1189 64.9709 38.8026C64.9709 39.6444 64.8131 40.4862 64.4711 41.2491C64.1554 42.012 63.6819 42.696 63.1294 43.2748C62.5507 43.8535 61.8667 44.327 61.0775 44.6427C60.3146 44.9847 59.4465 45.1689 58.5783 45.1689ZM58.6046 42.2225C59.0519 42.2225 59.4991 42.1436 59.92 41.9594C60.3146 41.7753 60.6566 41.5385 60.9723 41.2491C61.288 40.9334 61.5247 40.5651 61.6826 40.1705C62.0245 39.3024 62.0245 38.3554 61.6826 37.5135C61.5247 37.1189 61.288 36.7506 60.9723 36.435C60.6566 36.1193 60.3146 35.8825 59.92 35.7247C59.0782 35.3564 58.1311 35.3564 57.3156 35.7247C56.921 35.9088 56.579 36.1456 56.2633 36.435C55.9477 36.7506 55.7109 37.1189 55.5531 37.5135C55.2111 38.3817 55.2111 39.3287 55.5531 40.1705C55.7109 40.5651 55.9477 40.9334 56.2633 41.2491C56.579 41.5648 56.921 41.8016 57.3156 41.9594C57.7102 42.1173 58.1574 42.2225 58.6046 42.2225ZM0.282227 32.752H3.43906L5.8856 40.5125L8.77936 32.752H11.5153L14.3564 40.5125L16.9082 32.752H20.065L15.9348 44.9058H13.0148L10.121 36.9874L7.20094 44.9058H4.22826L0.282227 32.752Z" fill="#351A55"/>
</g>
<defs>
<clipPath id="clip0_1432_3159">
<rect width="99.1244" height="78" fill="white" transform="translate(0.282227)"/>
</clipPath>
</defs>
</svg>
