<svg width="73" height="78" viewBox="0 0 73 78" fill="none" xmlns="http://www.w3.org/2000/svg">
<path fill-rule="evenodd" clip-rule="evenodd" d="M6.2093 21.5138C7.70574 16.6588 9.65816 9.55982 12.0666 0.216797H72.3835L6.2093 54.4968L36.01 18.0354C27.2731 18.0216 18.775 18.0147 10.5157 18.0147C7.68717 18.4964 5.61603 23.0158 6.2093 21.5138Z" fill="#868786"/>
<path fill-rule="evenodd" clip-rule="evenodd" d="M68.656 6.51172L1.13086 61.752L63.8608 61.3928C66.4329 50.2223 68.142 42.3349 68.988 37.7307C68.988 35.7014 67.5678 42.6891 63.8608 43.2635C56.4151 43.4878 47.986 43.5999 38.5736 43.5999L68.656 6.51172Z" fill="#E3200F"/>
<path fill-rule="evenodd" clip-rule="evenodd" d="M4.96341 75.3549L10.9192 75.3727L10.502 77.7759H0.720703L1.03136 75.9958L8.47829 67.2463L2.50477 67.2285L2.93082 64.8164H12.6855L12.3837 66.5521L4.96341 75.3549ZM20.6916 72.2842H15.943L15.4015 75.3727H21.02L20.6028 77.7759H11.9488L14.1855 64.8164H22.8573L22.4402 67.2285H16.8128L16.3335 69.961H21.091L20.6916 72.2842ZM32.3901 77.7759H29.4522L26.3633 69.5961L24.9432 77.7759H21.9076L24.1444 64.8164H27.1089L30.1889 72.9962L31.6002 64.8164H34.6357L32.3901 77.7759ZM37.6181 77.7759H34.5825L36.8281 64.8164H39.8548L37.6181 77.7759ZM51.2072 67.2285H47.4438L45.6242 77.7759H42.5797L44.4082 67.2285H40.7069L41.1329 64.8164H51.6243L51.2072 67.2285ZM61.2192 77.7759H58.2014L59.1334 72.3643H54.7043L53.7634 77.7759H50.7279L52.9646 64.8164H56.0091L55.1126 69.961H59.5506L60.4382 64.8164H63.4649L61.2192 77.7759Z" fill="#868786"/>
</svg>
