<svg width="181" height="49" viewBox="0 0 181 49" fill="none" xmlns="http://www.w3.org/2000/svg">
<path d="M42.7399 0.974121H6.06584C3.08526 0.974121 0.623047 3.56593 0.623047 6.6761V42.5726C0.623047 45.6828 3.08526 48.2746 6.06584 48.2746H42.7399C45.7205 48.2746 48.1827 45.6828 48.1827 42.5726V6.6761C48.1827 3.56593 45.7205 0.974121 42.7399 0.974121ZM47.0164 28.1881C47.0164 28.3177 46.8868 28.4473 46.8868 28.5769C46.2389 30.132 45.2021 31.5575 43.9062 32.4646C42.6103 33.5013 41.1848 34.1493 39.5002 34.2789C38.7226 34.2789 37.8155 34.2789 37.0379 34.0197C35.8716 33.7605 34.0574 32.7238 31.9839 31.2983C30.1697 30.0024 27.9666 28.4473 25.7636 26.633C25.634 26.2442 25.7636 26.2442 26.1524 26.3738L30.4288 28.8361L31.9839 29.7432C35.3533 31.5575 37.9451 32.4646 39.8889 31.2983C41.8328 30.2615 42.8695 27.9289 42.9991 25.4667C43.1287 23.1341 41.9624 21.3198 39.6298 19.8943C38.593 19.2464 37.4267 19.1168 36.0012 19.2464C35.2237 19.376 34.4461 19.5055 33.6686 19.7647C33.4094 19.8943 33.0206 20.0239 32.7615 20.1535C31.8543 20.6719 30.9472 21.1902 30.0401 21.8382C27.9666 23.3933 25.8932 25.2075 23.6901 27.1514C20.58 30.0024 17.4698 32.335 14.23 33.6309C12.2862 34.4084 10.3423 34.538 8.52806 34.1493C5.67707 33.6309 3.34444 31.687 2.04854 29.0952C1.78936 28.7065 1.53018 27.7993 1.40059 27.4106C1.40059 27.4106 1.40059 27.4106 1.40059 27.281C1.271 26.5034 1.14141 25.7259 1.14141 24.9483C1.14141 24.0412 1.271 23.0045 1.53018 22.2269C2.43731 18.9872 5.15871 16.3954 8.39847 15.7474C8.91683 15.6178 9.43519 15.6178 9.82397 15.6178H9.95356C11.6382 15.6178 13.3229 16.1362 14.6188 17.0433C17.729 18.728 20.7096 21.4494 23.3014 23.5228C23.3014 23.782 23.1718 23.9116 22.9126 23.9116L20.58 22.3565C19.6728 21.8382 18.7657 21.1902 17.729 20.6719C13.9709 18.5984 9.56478 16.9137 6.84339 21.0606C4.89953 24.6892 6.58421 28.5769 9.56478 30.2616C9.82397 30.3911 10.0831 30.5207 10.3423 30.6503C10.9903 30.6503 11.379 30.6503 11.6382 30.7799C12.675 30.9095 13.7117 30.9095 14.7484 30.5207C15.9147 30.132 17.081 29.484 18.3769 28.7065C19.2841 28.1881 20.1912 27.5402 21.0983 26.7626C24.5973 23.6524 28.0962 20.4127 31.4656 18.0801C32.7615 17.3025 34.0574 16.6546 35.2237 16.2658C36.0012 16.0066 36.6492 15.7474 37.5563 15.7474C38.9818 15.4882 40.4073 15.6178 41.7032 16.1362C43.3879 16.9137 45.0726 18.0801 46.2389 20.1535C46.498 20.6719 46.7572 21.1902 47.0164 21.8382C47.4052 22.8749 47.5348 23.9116 47.5348 25.0779C47.5348 26.1147 47.2756 27.281 47.0164 28.1881Z" fill="#019DD9"/>
<path d="M76.1725 31.8168L74.747 28.8362H63.4726L62.0471 31.8168H56.0859L65.1573 14.0629H73.1919L82.1336 31.8168H76.1725ZM72.9327 24.9485L69.6929 18.2098H68.6562L65.4164 24.9485H72.9327ZM82.7816 14.0629H92.2417L97.4253 23.2638L102.479 14.0629H111.81V31.8168H106.756L106.885 18.5986H106.108L97.5549 31.428L89.0019 18.5986H87.8356L87.9652 31.8168H82.9111V14.0629H82.7816ZM114.142 14.0629H133.063V18.2098H119.196V20.8016H132.285V24.6893H119.196V27.5403H133.063V31.8168H114.142V14.0629ZM133.711 14.0629H140.579L146.151 21.1904L151.464 14.0629H158.203L148.873 25.4668V31.6872H143.559V25.5964L133.711 14.0629ZM168.959 13.8037C172.588 13.8037 175.18 13.9333 176.475 14.0629C178.419 14.3221 179.715 15.3588 180.104 17.0435C180.363 18.2098 180.622 20.1536 180.622 22.875C180.622 25.5964 180.493 27.6699 180.104 28.7066C179.715 30.3913 178.419 31.428 176.475 31.6872C175.05 31.8168 172.588 31.9464 168.959 31.9464C165.201 31.9464 162.739 31.8168 161.313 31.6872C159.369 31.428 158.074 30.3913 157.685 28.7066C157.426 27.5403 157.166 25.5964 157.166 22.7454C157.166 20.024 157.296 18.0802 157.685 16.9139C158.074 15.2292 159.369 14.1925 161.313 13.9333C162.868 13.9333 165.331 13.8037 168.959 13.8037ZM169.089 18.469C166.367 18.469 164.683 18.5986 164.164 18.7281C163.516 18.8577 163.128 19.2465 162.868 19.8945C162.739 20.5424 162.609 21.7087 162.609 23.523C162.609 24.5597 162.609 25.3373 162.739 25.8556C162.998 26.7628 163.516 27.2811 164.683 27.4107C165.46 27.5403 167.015 27.5403 169.218 27.5403C171.292 27.5403 172.717 27.5403 173.365 27.4107C174.013 27.2811 174.532 27.1515 174.92 26.8923C175.18 26.6332 175.439 26.2444 175.568 25.8556C175.698 25.3373 175.698 24.5597 175.698 23.523C175.698 22.2271 175.698 21.32 175.568 20.672C175.439 20.0241 175.309 19.6353 175.05 19.3761C174.791 18.9873 174.272 18.7281 173.754 18.7281C172.976 18.469 171.421 18.469 169.089 18.469Z" fill="#019DD9"/>
<mask id="mask0_1432_3595" style="mask-type:luminance" maskUnits="userSpaceOnUse" x="56" y="13" width="125" height="19">
<path d="M76.1705 31.8168L74.745 28.8362H63.4706L62.0451 31.8168H56.084L65.1553 14.0629H73.1899L82.1317 31.8168H76.1705ZM72.9307 24.9485L69.691 18.2098H68.6543L65.4145 24.9485H72.9307ZM82.7796 14.0629H92.2397L97.4233 23.2638L102.477 14.0629H111.808V31.8168H106.754L106.883 18.5986H106.106L97.5529 31.428L89 18.5986H87.8336L87.9632 31.8168H82.9092V14.0629H82.7796ZM114.14 14.0629H133.061V18.2098H119.195V20.8016H132.283V24.6893H119.195V27.5403H133.061V31.8168H114.14V14.0629ZM133.709 14.0629H140.577L146.149 21.1904L151.463 14.0629H158.201L148.871 25.4668V31.6872H143.558V25.5964L133.709 14.0629ZM168.957 13.8037C172.586 13.8037 175.178 13.9333 176.473 14.0629C178.417 14.3221 179.713 15.3588 180.102 17.0435C180.361 18.2098 180.62 20.1536 180.62 22.875C180.62 25.5964 180.491 27.6699 180.102 28.7066C179.713 30.3913 178.417 31.428 176.473 31.6872C175.048 31.8168 172.586 31.9464 168.957 31.9464C165.199 31.9464 162.737 31.8168 161.311 31.6872C159.368 31.428 158.072 30.3913 157.683 28.7066C157.424 27.5403 157.164 25.5964 157.164 22.7454C157.164 20.024 157.294 18.0802 157.683 16.9139C158.072 15.2292 159.368 14.1925 161.311 13.9333C162.866 13.9333 165.329 13.8037 168.957 13.8037ZM169.087 18.469C166.365 18.469 164.681 18.5986 164.162 18.7281C163.514 18.8577 163.126 19.2465 162.866 19.8945C162.737 20.5424 162.607 21.7087 162.607 23.523C162.607 24.5597 162.607 25.3373 162.737 25.8556C162.996 26.7628 163.514 27.2811 164.681 27.4107C165.458 27.5403 167.013 27.5403 169.216 27.5403C171.29 27.5403 172.715 27.5403 173.363 27.4107C174.011 27.2811 174.53 27.1515 174.918 26.8923C175.178 26.6332 175.437 26.2444 175.566 25.8556C175.696 25.3373 175.696 24.5597 175.696 23.523C175.696 22.2271 175.696 21.32 175.566 20.672C175.437 20.0241 175.307 19.6353 175.048 19.3761C174.789 18.9873 174.27 18.7281 173.752 18.7281C172.975 18.469 171.419 18.469 169.087 18.469Z" fill="white"/>
</mask>
<g mask="url(#mask0_1432_3595)">
<path d="M180.75 13.8037H56.084V32.076H180.75V13.8037Z" fill="#019DD9"/>
</g>
</svg>
