<svg width="115" height="61" viewBox="0 0 115 61" fill="none" xmlns="http://www.w3.org/2000/svg">
<path d="M37.7466 40.3867H32.748V60.1958H37.7466V40.3867Z" fill="#C4122E"/>
<path d="M78.0519 46.0634C77.8508 45.9589 76.2437 45.0057 73.8529 45.0057C70.615 45.0057 68.3746 47.2556 68.3746 50.2893C68.3746 53.2327 70.5215 55.5776 73.8529 55.5776C76.2025 55.5776 77.8365 54.645 78.0519 54.5263V59.8431C77.4312 60.0189 75.726 60.5477 73.4935 60.5477C67.8742 60.5477 62.9453 56.6717 62.9453 50.2893C62.9453 44.374 67.4103 40.0356 73.4935 40.0356C75.8463 40.0356 77.5816 40.6072 78.0519 40.7466V46.0634Z" fill="#C4122E"/>
<path d="M25.8751 46.0634C25.674 45.9589 24.0669 45.0057 21.6761 45.0057C18.4382 45.0057 16.1978 47.2556 16.1978 50.2893C16.1978 53.2327 18.3448 55.5776 21.6761 55.5776C24.0258 55.5776 25.6598 54.645 25.8751 54.5263V59.8431C25.2544 60.0189 23.5492 60.5477 21.3167 60.5477C15.6975 60.5477 10.7686 56.6717 10.7686 50.2893C10.7686 44.374 15.2335 40.0356 21.3167 40.0356C23.6695 40.0356 25.4049 40.6072 25.8751 40.7466V46.0634Z" fill="#C4122E"/>
<path d="M93.7775 45.0796C90.8119 45.0796 88.6095 47.4135 88.6095 50.2888C88.6095 53.1705 90.8119 55.5027 93.7775 55.5027C96.7399 55.5027 98.9486 53.1705 98.9486 50.2888C98.9486 47.4135 96.7399 45.0796 93.7775 45.0796ZM104.245 50.2888C104.245 55.9555 99.8701 60.5472 93.7775 60.5472C87.6848 60.5472 83.3164 55.9555 83.3164 50.2888C83.3164 44.6316 87.6848 40.0352 93.7775 40.0352C99.8701 40.0352 104.245 44.6316 104.245 50.2888Z" fill="#C4122E"/>
<path d="M56.7026 44.8895C56.6282 44.8658 54.5239 44.2847 52.7949 44.2847C50.792 44.2847 49.7027 44.956 49.7027 45.9076C49.7027 47.1141 51.172 47.5353 51.9938 47.7949L53.3729 48.2335C56.6171 49.2658 58.0959 51.4873 58.0959 53.9002C58.0959 58.8767 53.7196 60.5486 49.8943 60.5486C47.2359 60.5486 44.7453 60.0594 44.4999 60.0072V55.4487C44.9401 55.5596 47.0364 56.185 49.2198 56.185C51.7072 56.185 52.8504 55.4582 52.8504 54.3357C52.8504 53.3318 51.8608 52.7523 50.621 52.3628C50.3186 52.2615 49.8642 52.119 49.5539 52.0177C46.7704 51.1373 44.4492 49.5018 44.4492 46.2227C44.4492 42.5177 47.2232 40.0303 51.8307 40.0303C54.2643 40.0303 56.5538 40.6209 56.7026 40.6604V44.8895Z" fill="#C4122E"/>
<path d="M5.46765 19.0985C5.46765 17.7337 4.35298 16.627 2.98657 16.627C1.62015 16.627 0.503906 17.7337 0.503906 19.0985V24.2982C0.503906 25.6709 1.62015 26.7793 2.98657 26.7793C4.35298 26.7793 5.46765 25.6709 5.46765 24.2982V19.0985Z" fill="#15495D"/>
<path d="M19.0985 12.2736C19.0985 10.9087 17.9838 9.79883 16.6174 9.79883C15.2494 9.79883 14.1348 10.9087 14.1348 12.2736V24.299C14.1348 25.6717 15.2494 26.7785 16.6174 26.7785C17.9838 26.7785 19.0985 25.6717 19.0985 24.299V12.2736Z" fill="#15495D"/>
<path d="M32.7313 2.93605C32.7313 1.57122 31.6167 0.462891 30.2502 0.462891C28.8822 0.462891 27.7676 1.57122 27.7676 2.93605V29.2399C27.7676 30.6127 28.8822 31.721 30.2502 31.721C31.6167 31.721 32.7313 30.6127 32.7313 29.2399V2.93605Z" fill="#15495D"/>
<path d="M46.3612 12.2736C46.3612 10.9087 45.2465 9.79883 43.8801 9.79883C42.5121 9.79883 41.3975 10.9087 41.3975 12.2736V24.299C41.3975 25.6717 42.5121 26.7785 43.8801 26.7785C45.2465 26.7785 46.3612 25.6717 46.3612 24.299V12.2736Z" fill="#15495D"/>
<path d="M59.9772 19.0985C59.9772 17.7337 58.8705 16.627 57.5104 16.627C56.144 16.627 55.0293 17.7337 55.0293 19.0985V24.2982C55.0293 25.6709 56.144 26.7793 57.5104 26.7793C58.8705 26.7793 59.9772 25.6709 59.9772 24.2982V19.0985Z" fill="#15495D"/>
<path d="M59.9872 19.0985C59.9872 17.7337 58.8725 16.627 57.5061 16.627C56.1397 16.627 55.0234 17.7337 55.0234 19.0985V24.2982C55.0234 25.6709 56.1397 26.7793 57.5061 26.7793C58.8725 26.7793 59.9872 25.6709 59.9872 24.2982V19.0985Z" fill="#15495D"/>
<path d="M73.62 12.2736C73.62 10.9087 72.5053 9.79883 71.1389 9.79883C69.7709 9.79883 68.6562 10.9087 68.6562 12.2736V24.299C68.6562 25.6717 69.7709 26.7785 71.1389 26.7785C72.5053 26.7785 73.62 25.6717 73.62 24.299V12.2736Z" fill="#15495D"/>
<path d="M87.2499 2.93605C87.2499 1.57122 86.1352 0.462891 84.7688 0.462891C83.4008 0.462891 82.2861 1.57122 82.2861 2.93605V29.2399C82.2861 30.6127 83.4008 31.721 84.7688 31.721C86.1352 31.721 87.2499 30.6127 87.2499 29.2399V2.93605Z" fill="#15495D"/>
<path d="M100.881 12.2736C100.881 10.9087 99.7661 9.79883 98.3997 9.79883C97.0317 9.79883 95.917 10.9087 95.917 12.2736V24.299C95.917 25.6717 97.0317 26.7785 98.3997 26.7785C99.7661 26.7785 100.881 25.6717 100.881 24.299V12.2736Z" fill="#15495D"/>
<path d="M114.498 19.0985C114.498 17.7337 113.391 16.627 112.031 16.627C110.664 16.627 109.55 17.7337 109.55 19.0985V24.2982C109.55 25.6709 110.664 26.7793 112.031 26.7793C113.391 26.7793 114.498 25.6709 114.498 24.2982V19.0985Z" fill="#15495D"/>
<path d="M111.644 57.5874V57.8977H110.761V60.1951H110.398V57.8977H109.51V57.5874H111.644Z" fill="#C4122E"/>
<path d="M111.83 57.5874H112.398L113.179 59.7265H113.192L113.947 57.5874H114.504V60.1951H114.132V58.0577H114.12L113.328 60.1951H112.984L112.212 58.0577H112.194V60.1951H111.83V57.5874Z" fill="#C4122E"/>
</svg>
