<svg width="245" height="43" viewBox="0 0 245 43" fill="none" xmlns="http://www.w3.org/2000/svg">
<path d="M55.1808 0.0830078L33.7505 16.5712C31.5524 8.32828 24.4104 2.27837 15.6174 2.27837H0.230469V40.1955H15.6174C24.4097 40.1955 32.1018 34.1521 33.7501 25.9095L55.1791 42.3909L76.6149 25.9095V40.1955H100.79V32.5021H84.8588V2.27837H76.0645V16.5644L55.7306 33.0607L51.3331 29.214L61.2283 21.5137L71.6669 13.2766L65.6259 8.33541L45.292 24.2663L40.8945 20.4196L61.2294 5.03268L55.1808 0.0914972V0.0830078ZM8.4754 9.97183H15.0679C16.4417 9.97183 17.7843 10.2806 19.021 10.8473C20.2574 11.414 21.3887 12.2378 22.3504 13.2681C23.3121 14.2984 24.1023 15.5315 24.6518 16.9226C25.2014 18.3136 25.5074 19.8635 25.5074 21.5124C25.5074 23.0235 25.2314 24.4982 24.7248 25.863C24.2174 27.2281 23.4834 28.486 22.556 29.5505C21.6286 30.6154 20.5086 31.4878 19.2464 32.0973C17.9842 32.7072 16.5795 33.0457 15.0679 33.0457H8.4754V9.97183ZM128.268 32.5038V40.1972H104.089V2.28007H112.882V32.5024L128.268 32.5038Z" fill="#007DB8"/>
<path d="M230.08 40.8932C237.519 40.8932 243.563 37.1738 244.725 29.0383L244.26 28.5734H242.168L241.703 29.0383C240.541 34.8494 236.822 38.1039 230.313 38.1039C222.177 38.1039 216.366 32.0602 216.366 21.3672C216.366 10.6743 222.41 4.63082 230.313 4.63082C236.822 4.63082 240.541 7.88513 241.703 13.2316L242.168 13.6966H244.26L244.725 13.2324C243.564 5.79394 237.75 1.84229 230.079 1.84229C221.014 1.84229 212.878 8.35096 212.878 21.1357C212.878 34.3856 221.015 40.8932 230.08 40.8932ZM206.37 39.731V3.00235L205.905 2.53747H202.186L201.721 3.00235L187.774 35.7783H187.309L172.897 3.00235L172.432 2.53747H168.713L168.248 3.00235V39.731L168.713 40.1959H170.805L171.27 39.731V8.58228H171.734L185.217 39.731L185.682 40.1959H188.471L188.936 39.731L202.418 8.58228H203.116V39.731L203.58 40.1959H205.673L206.37 39.731ZM161.043 39.731V38.1038L160.578 37.6389H140.588L140.123 37.174V23.2269L140.588 22.762H159.416L159.881 22.2971V20.4375L159.416 19.9726H140.588L140.123 19.5077V5.79282L140.588 5.32794H160.578L161.043 4.86306V3.00343L160.578 2.53855H137.333L136.868 3.00343V39.7321L137.333 40.197H160.578L161.043 39.731Z" fill="#808080"/>
</svg>
