<svg width="86" height="79" viewBox="0 0 86 79" fill="none" xmlns="http://www.w3.org/2000/svg">
<path d="M39.736 78.7367C61.4028 78.7367 78.9672 61.1723 78.9672 39.5056C78.9672 17.8388 61.4028 0.274414 39.736 0.274414C18.0693 0.274414 0.504883 17.8388 0.504883 39.5056C0.504883 61.1723 18.0693 78.7367 39.736 78.7367Z" fill="#E21D38"/>
<path d="M38.8386 43.3746C58.0938 44.9632 65.5223 50.2588 65.1692 57.5107C64.8162 61.3941 61.1093 65.1157 56.3286 65.4688C50.68 65.8218 48.0176 63.5271 46.4289 61.0558C45.0168 58.7611 43.4281 56.4663 41.8394 53.9951C41.4864 53.289 40.7803 53.8186 40.2508 54.1716C39.0151 55.2307 37.956 56.4663 36.8969 57.5254C36.1909 58.2315 36.3674 58.7611 36.5439 59.2906C37.603 61.7619 38.6621 64.2331 39.7212 66.5279C41.4864 67.587 49.4444 68.9991 55.2695 68.4696C59.3294 68.1165 64.2866 66.5279 68.5231 63.5271C72.583 60.3497 75.5838 56.0986 76.1281 49.2144C76.3046 44.9779 75.5985 40.5503 71.8916 36.4904C68.1848 32.4304 61.8154 29.0619 48.9149 28.1793C49.6209 26.0611 50.1505 24.1194 50.8566 22.1777C58.6381 22.5307 65.5223 23.0603 71.3474 23.7664C71.8769 21.4716 72.0534 19.3534 72.583 17.2352L70.9943 15.2935C67.9935 14.9404 65.1692 14.2344 61.9772 13.8813C57.9173 13.3518 53.6661 12.9987 49.0767 12.8222C46.0759 21.2951 42.5455 32.0627 38.8386 43.3746ZM33.7049 10.3363C32.2927 10.3363 30.351 10.6893 27.1737 11.3954C20.2895 13.3371 11.8019 18.1031 10.9193 26.0611C10.7428 27.2967 10.7428 28.7089 10.5663 29.9445C8.62461 30.121 6.85943 30.2975 5.09425 30.474C4.91773 32.0627 4.91773 33.4748 4.74121 35.0635C6.50639 34.887 8.27157 34.887 10.2133 34.7105C9.86024 43.0215 10.2133 51.3179 10.9193 59.0994C11.0959 60.335 11.0959 61.3941 11.0959 62.1002C10.9193 62.8063 9.68372 63.1593 7.91854 63.1593L10.2133 65.9836C16.921 67.2192 25.4085 68.1018 34.4257 68.2783V65.6306C29.1301 65.2775 26.6442 64.5715 26.2911 63.5123C25.9381 62.6298 25.9381 61.3941 25.7616 60.1585C25.4085 52.024 25.232 43.1981 25.4085 34.1809C28.4093 34.1809 31.4102 34.1809 34.4257 34.0044C36.0143 33.2983 37.4265 32.5923 38.8386 31.8862V28.8854C34.2492 28.8854 29.8215 29.0619 25.4085 29.0619C25.5851 25.355 25.7616 21.8247 25.9381 18.4561C26.1146 16.1614 27.7033 14.5727 29.1154 14.5727C31.5867 14.3962 33.8814 15.4553 36.1761 16.5144C37.4118 17.044 38.6474 17.75 39.883 18.2796C40.4126 18.4561 41.1186 18.6326 41.6482 18.1031C42.3543 17.2205 43.0603 16.3379 43.7664 15.6318C44.1195 15.1023 43.9429 14.7492 43.7664 14.5727C42.1778 13.3371 40.7656 12.278 39.1769 11.0423C38.2944 10.3363 36.7057 10.3363 35.2935 10.3363C34.764 10.1597 34.2344 10.3363 33.7049 10.3363Z" fill="white"/>
<path fill-rule="evenodd" clip-rule="evenodd" d="M75.7233 64.3519C75.7233 61.8382 77.761 59.8004 80.2748 59.8004C82.7885 59.8004 84.8263 61.8382 84.8263 64.3519C84.8263 66.8656 82.7885 68.9034 80.2748 68.9034C77.761 68.9034 75.7233 66.8656 75.7233 64.3519ZM80.2748 59.1211C77.3859 59.1211 75.0439 61.463 75.0439 64.3519C75.0439 67.2408 77.3859 69.5827 80.2748 69.5827C83.1637 69.5827 85.5056 67.2408 85.5056 64.3519C85.5056 61.463 83.1637 59.1211 80.2748 59.1211ZM78.033 61.8384V66.9786H78.7132V64.696H79.5021C79.6774 64.696 79.8037 64.7042 79.8808 64.7206C79.986 64.7463 80.0888 64.7919 80.1894 64.8573C80.2922 64.9228 80.4079 65.0373 80.5365 65.2009C80.665 65.3646 80.8287 65.6006 81.0274 65.9092L81.7076 66.9786H82.5631L81.669 65.5796C81.4914 65.3061 81.3032 65.0782 81.1045 64.8959C81.011 64.8117 80.8742 64.7264 80.6943 64.6399C81.1875 64.5721 81.5521 64.4132 81.7882 64.1631C82.0243 63.913 82.1424 63.6056 82.1424 63.2409C82.1424 62.9581 82.0711 62.6998 81.9285 62.466C81.7859 62.2323 81.5954 62.0698 81.3569 61.9787C81.1185 61.8852 80.7702 61.8384 80.3121 61.8384H78.033ZM80.1753 64.107H78.7132V62.4064H80.3401C80.7211 62.4064 80.9993 62.4847 81.1746 62.6413C81.3523 62.798 81.4411 62.9978 81.4411 63.2409C81.4411 63.4069 81.3955 63.5612 81.3043 63.7037C81.2132 63.844 81.0799 63.9468 80.9046 64.0123C80.7293 64.0754 80.4862 64.107 80.1753 64.107Z" fill="#E21D38"/>
</svg>
