<svg width="205" height="33" viewBox="0 0 205 33" fill="none" xmlns="http://www.w3.org/2000/svg">
<path fill-rule="evenodd" clip-rule="evenodd" d="M116.161 16.8136C116.161 19.1665 116.55 21.4012 117.285 23.522C118.684 27.4983 122.202 30.4251 126.267 31.7024C128.92 32.5386 131.775 33 134.716 33C138.522 33 142.127 32.1955 145.428 30.8158C148.312 29.6061 150.489 26.9908 151.253 23.8781C151.469 22.9323 151.613 21.9202 151.671 20.8923H142.891C142.891 22.1062 142.66 23.2423 142.213 24.2674C141.521 25.8115 140.195 27.0125 138.565 27.5372C137.34 27.9294 136.057 28.1312 134.716 28.1312C133.145 28.1312 131.631 27.827 130.247 27.308C128.055 26.4675 126.325 24.6235 125.691 22.3354C125.215 20.5924 124.898 18.7397 124.898 16.8136C124.898 14.4924 125.301 12.2591 126.037 10.1974C126.801 8.06221 128.459 6.33068 130.593 5.58098C131.876 5.11674 133.274 4.87308 134.716 4.87308C135.97 4.87308 137.21 5.06051 138.364 5.42239C140.151 5.95871 141.608 7.31827 142.271 9.05701C142.559 9.80239 142.689 10.6271 142.718 11.4748H151.455C151.411 10.8001 151.31 10.1239 151.166 9.478C150.489 6.20958 148.225 3.50631 145.226 2.21307C141.982 0.817467 138.45 0 134.716 0C131.458 0 128.358 0.59544 125.489 1.67963C122.461 2.8013 119.953 4.91201 118.323 7.64699C116.738 10.3113 116.161 13.5106 116.161 16.8136ZM8.33326 13.3562C8.31884 13.4485 8.33326 0.779929 8.33326 0.779929H0C0.0432522 0.779929 0 32.2243 0 32.2243H8.33323C8.31971 32.2148 8.33166 20.0187 8.33312 18.5314V18.5313L8.33326 18.3836C8.33326 18.3836 25.1584 18.4268 25.1584 18.3836V32.2243H33.4916C33.5205 32.1882 33.4916 0.779929 33.4916 0.779929L33.2869 0.779867L33.2864 0.779866H33.286C31.9993 0.779462 25.1321 0.777302 25.1584 0.779929C25.1295 0.777045 25.1584 13.3995 25.1584 13.3562H8.33326ZM164.257 0.779929V13.3562H181.082C181.082 13.3995 181.068 0.777045 181.082 0.779929C181.069 0.777301 187.928 0.779462 189.211 0.779867H189.211L189.416 0.779929C189.416 0.779929 189.445 32.1882 189.416 32.2243H181.082V18.3836C181.082 18.4268 164.257 18.3836 164.257 18.3836C164.272 18.4412 164.257 32.2344 164.257 32.2243H155.938C155.938 32.2243 155.982 0.779929 155.938 0.779929H164.257ZM85.2066 0.779931V6.1259H72.4616V32.2243H64.1428V6.1259H51.3978C51.3978 6.1259 51.4122 0.791465 51.3978 0.779931C51.4122 0.791465 85.2066 0.779931 85.2066 0.779931ZM91.9829 20.4323L97.7787 6.12595L103.575 20.4323H91.9829ZM108.303 32.2243H117.574L102.883 0.77998C102.883 0.77998 92.675 0.794398 92.675 0.77998L77.9692 32.2243C77.9692 32.2243 87.254 32.2344 87.254 32.2243C87.2829 32.2344 89.9645 25.4669 89.9645 25.4669H105.579C105.579 25.4669 108.318 32.2243 108.303 32.2243ZM196.019 32.2239H204.352V0.779583H196.019V32.2239ZM40.0948 32.2239H48.4137V0.779583H40.0948V32.2239Z" fill="white"/>
</svg>
