<svg width="205" height="34" viewBox="0 0 205 34" fill="none" xmlns="http://www.w3.org/2000/svg">
<path fill-rule="evenodd" clip-rule="evenodd" d="M116.783 16.9381C116.783 19.291 117.172 21.5257 117.907 23.6465C119.306 27.6228 122.824 30.5496 126.89 31.8269C129.542 32.6632 132.397 33.1245 135.338 33.1245C139.144 33.1245 142.749 32.32 146.05 30.9403C148.934 29.7307 151.111 27.1153 151.875 24.0026C152.091 23.0568 152.235 22.0447 152.293 21.0168H143.513C143.513 22.2307 143.282 23.3668 142.835 24.3919C142.143 25.936 140.817 27.137 139.188 27.6618C137.962 28.0539 136.679 28.2558 135.338 28.2558C133.767 28.2558 132.253 27.9515 130.869 27.4325C128.677 26.592 126.947 24.748 126.313 22.46C125.837 20.7169 125.52 18.8643 125.52 16.9381C125.52 14.6169 125.924 12.3836 126.659 10.3219C127.423 8.18672 129.081 6.45519 131.215 5.70549C132.498 5.24125 133.896 4.99759 135.338 4.99759C136.592 4.99759 137.832 5.18502 138.986 5.5469C140.773 6.08322 142.23 7.44279 142.893 9.18153C143.181 9.9269 143.311 10.7516 143.34 11.5993H152.077C152.033 10.9246 151.933 10.2484 151.788 9.60251C151.111 6.33409 148.847 3.63082 145.848 2.33758C142.604 0.941978 139.072 0.124512 135.338 0.124512C132.08 0.124512 128.98 0.719952 126.111 1.80414C123.083 2.92581 120.575 5.03652 118.946 7.7715C117.36 10.4358 116.783 13.6351 116.783 16.9381ZM8.95533 13.4807C8.94091 13.573 8.95533 0.90444 8.95533 0.90444H0.62207C0.665323 0.90444 0.62207 32.3488 0.62207 32.3488H8.9553C8.94178 32.3393 8.95373 20.1432 8.95519 18.6559V18.6558L8.95533 18.5081C8.95533 18.5081 25.7804 18.5513 25.7804 18.5081V32.3488H34.1137C34.1425 32.3128 34.1137 0.90444 34.1137 0.90444L33.909 0.904378L33.9084 0.904378H33.908C32.6213 0.903973 25.7542 0.901813 25.7804 0.90444C25.7516 0.901557 25.7804 13.524 25.7804 13.4807H8.95533ZM164.879 0.90444V13.4807H181.704C181.704 13.524 181.69 0.901557 181.704 0.90444C181.691 0.901813 188.55 0.903974 189.833 0.904378H189.833L190.038 0.90444C190.038 0.90444 190.067 32.3128 190.038 32.3488H181.704V18.5081C181.704 18.5513 164.879 18.5081 164.879 18.5081C164.894 18.5658 164.879 32.3589 164.879 32.3488H156.561C156.561 32.3488 156.604 0.90444 156.561 0.90444H164.879ZM85.8287 0.904442V6.25042H73.0837V32.3488H64.7649V6.25042H52.0199C52.0199 6.25042 52.0343 0.915976 52.0199 0.904442C52.0343 0.915976 85.8287 0.904442 85.8287 0.904442ZM92.605 20.5569L98.4008 6.25047L104.197 20.5569H92.605ZM108.926 32.3489H118.196L103.505 0.904492C103.505 0.904492 93.2971 0.91891 93.2971 0.904492L78.5913 32.3489C78.5913 32.3489 87.8761 32.3589 87.8761 32.3489C87.9049 32.3589 90.5866 25.5914 90.5866 25.5914H106.201C106.201 25.5914 108.94 32.3489 108.926 32.3489ZM196.641 32.3484H204.974V0.904095H196.641V32.3484ZM40.7169 32.3484H49.0357V0.904095H40.7169V32.3484Z" fill="black"/>
</svg>
