<svg width="107" height="43" viewBox="0 0 107 43" fill="none" xmlns="http://www.w3.org/2000/svg">
<mask id="mask0_1432_3607" style="mask-type:luminance" maskUnits="userSpaceOnUse" x="0" y="0" width="107" height="43">
<path d="M0.974609 0.412109V9.191H6.88718V34.1527H1.13326V42.8258H21.7584V34.1527H15.8458V9.191H21.5997V0.412109H0.974609ZM46.7867 0.507343L24.4555 0.517879V9.191H30.3681V20.4026V22.9411V34.1527H24.4555V42.8258L46.7867 42.8363C50.7637 42.8363 53.7568 39.9382 53.7568 39.9382L56.1156 37.1989C56.7819 36.5431 57.1648 34.3113 57.1648 34.3113L57.4081 31.5718C57.4081 30.2074 56.8421 28.6737 56.8421 28.6737L55.6258 25.9344C55.0123 24.5171 53.1086 23.0363 53.1086 23.0363V22.9411V20.4026V20.3074C53.1086 20.3074 55.0123 18.8265 55.6258 17.4092L56.8421 14.67C56.8421 14.67 57.4081 13.1362 57.4081 11.7718L57.1648 9.03234C57.1648 9.03234 56.7819 6.80052 56.1156 6.14475L53.7568 3.40548C53.7568 3.40548 50.7637 0.507343 46.7867 0.507343ZM59.571 0.517879V9.191H65.4836V34.1527H59.7297V42.8258H74.4317V18.7103L83.1788 42.8258L83.3566 42.8299L91.9451 18.7144V42.8299H106.753V34.1568H100.84V9.19513H106.594V0.522011H90.0941L83.2509 19.8779L76.3229 0.522011L59.571 0.517879ZM39.2633 9.191H47.9364V17.2295H39.2633V9.191ZM39.2633 26.1142H47.9364V34.1527H39.2633V26.1142Z" fill="white"/>
</mask>
<g mask="url(#mask0_1432_3607)">
<path d="M-3.42871 1.52393H116.454V4.40743H-3.42871M-3.42871 7.29094H116.454V10.1744H-3.42871V13.0579H116.454V15.9415H-3.42871M-3.42871 18.825H116.454V21.7085M116.454 21.7085H-3.42871M116.454 21.7085V24.592H-3.42871M-3.42871 27.4755H116.454V30.359H-3.42871V33.2425H116.454V36.126H-3.42871M-3.42871 39.0095H116.454V41.893H-3.42871" stroke="#1F70C1" stroke-width="16.063"/>
</g>
</svg>
