<svg width="116" height="43" viewBox="0 0 116 43" fill="none" xmlns="http://www.w3.org/2000/svg">
<path fill-rule="evenodd" clip-rule="evenodd" d="M112.141 0.470215C110.251 0.470215 108.693 2.01082 108.693 3.91829C108.693 5.84232 110.251 7.40085 112.141 7.40085C114.049 7.40085 115.623 5.84232 115.623 3.91829C115.623 2.01082 114.049 0.470215 112.141 0.470215ZM112.141 0.987426C113.763 0.987426 115.106 2.2977 115.106 3.91829C115.106 5.53889 113.763 6.88364 112.141 6.88364C110.52 6.88364 109.21 5.53889 109.21 3.91829C109.21 2.2977 110.52 0.987426 112.141 0.987426ZM39.8689 1.22879C35.5809 1.22879 32.4473 4.0769 32.0073 9.09041H28.6971V11.573H31.9728V35.4337H35.6967V11.573H44.0066C40.9171 14.0708 38.9379 18.1519 38.9379 22.7103C38.9379 30.2726 44.3914 36.384 51.1441 36.4681C51.1772 36.4847 51.231 36.5026 51.282 36.5026C58.1023 36.5026 63.5917 30.3237 63.5917 22.7103C63.5917 21.8152 63.502 20.9173 63.3503 20.0553C64.582 22.0138 66.9349 22.9972 70.0741 24.3654C73.8049 25.9349 75.8668 27.2935 75.8668 29.6409C75.8668 32.4601 73.2339 33.8986 70.2465 33.8821C67.3252 33.8821 65.0206 32.6959 62.4883 30.3995V34.8131C64.0413 35.8102 66.4398 36.3992 69.0396 36.3992C71.0312 36.3812 74.329 35.9275 76.5909 34.02C78.0253 32.8214 79.0391 31.0147 79.0391 28.3652C79.0211 26.1873 78.0598 24.6854 76.5909 23.5034C75.3082 22.4745 73.6573 21.6773 71.936 20.9518C67.4452 18.7229 65.7474 18.2595 65.7984 15.7107C65.7984 12.3164 68.7265 11.2972 71.0395 11.2972C72.0353 11.2972 72.8835 11.4585 73.6945 11.7454C75.2131 12.3026 75.7055 13.4102 76.2461 14.6418C76.4144 15.0142 76.5233 15.2487 76.5909 15.4004C76.624 15.4514 76.6433 15.5052 76.6599 15.5383C76.6847 15.6045 76.6737 15.6086 76.6599 15.5728L83.6595 32.3994C82.4775 35.0834 81.1576 37.9191 80.2459 39.7093L80.2114 39.7438C80.0762 40.0141 79.9507 40.2652 79.8321 40.4679C79.6804 40.7548 79.5549 40.9892 79.4528 41.1575L78.5908 42.7781H82.2113C83.7988 39.2666 90.5515 22.8427 92.0038 19.3312C92.9486 21.8635 95.2685 22.8993 98.831 24.4343C102.545 26.0053 104.658 27.3638 104.658 29.7099C104.658 32.5125 101.992 33.9855 99.0034 33.951C95.9815 33.951 93.6368 32.6918 90.9694 30.2271L90.728 30.0202V34.5027C92.2135 35.7509 94.8754 36.4681 97.7966 36.4681C101.054 36.4681 107.796 35.2889 107.796 28.4686C107.779 24.3833 104.373 22.5903 100.693 21.0207C96.2022 18.7933 94.6768 18.3464 94.7278 15.8142C94.7278 12.4212 97.5001 11.4006 99.7965 11.4006C102.429 11.4006 104.069 12.3675 106.382 14.0556V10.0903C104.509 9.43108 102.925 9.19385 100.796 9.19385C96.5429 9.19385 92.7072 10.7358 91.728 14.3315L86.4524 27.3652L85.9007 29.0203L85.418 27.3652L78.315 10.0559C77.8253 9.9207 77.2323 9.74278 76.5909 9.60762C75.2738 9.32074 73.7566 9.10834 72.5911 9.12489C72.4229 9.10834 72.2601 9.09041 72.0739 9.09041C67.146 9.09041 62.3848 11.1593 62.3848 16.0555C62.3848 16.3424 62.4014 16.6307 62.4193 16.8831C60.4443 12.1895 56.228 8.95248 51.282 8.95248H51.1441C50.5869 8.97041 50.0462 9.00627 49.5235 9.09041H35.6278C35.0706 5.59681 36.6801 3.57348 39.1448 3.57348C42.2343 3.57348 43.5694 4.51274 44.9031 5.74577H45.041C45.041 5.74577 45.059 5.58578 45.0755 5.332V1.95289C44.1804 1.54739 42.6701 1.22879 39.8689 1.22879ZM0.974609 1.33223V35.4337H5.07782V1.33223H0.974609ZM110.865 2.02185V5.67681H111.52V4.19414H112.279L112.865 5.67681H113.623L112.934 4.09069C113.169 3.97208 113.554 3.85209 113.554 3.1942C113.554 2.18046 112.816 2.02185 112.141 2.02185H110.865ZM111.52 2.6425H112.244C112.632 2.6425 112.865 2.80387 112.865 3.12523C112.865 3.44521 112.616 3.60796 112.313 3.60796H111.52V2.6425ZM20.9045 8.98696C16.3972 8.98696 14.5104 10.6076 13.0084 12.2282C12.9408 12.2957 12.887 12.4033 12.836 12.5385H12.767L12.7325 9.33177H9.11207V12.7798V35.4337H12.836V16.3658C12.9367 14.0363 16.2689 11.7109 18.8356 11.7109C21.9251 11.7109 24.456 13.806 24.456 16.6762V35.4337H28.1454V14.9866C28.0448 12.6736 25.227 8.98696 20.9045 8.98696ZM50.9372 11.6765H51.1441C55.7025 11.7275 59.4223 16.6169 59.5229 22.7103C59.625 28.9058 55.9756 34.0048 51.3165 34.089H51.1441C46.5692 34.0379 42.8149 29.132 42.6963 23.0206C42.5943 16.8417 46.2947 11.7606 50.9372 11.6765Z" fill="#2A7CC9"/>
</svg>
