<svg width="199" height="44" viewBox="0 0 199 44" fill="none" xmlns="http://www.w3.org/2000/svg">
<path d="M83.0546 9.19822V34.583H78.6476V14.663H78.5888L70.7149 34.583H67.7768L59.7265 14.663H59.6678V34.583H55.6133V9.19822H61.9595L69.2458 28.0017H69.3633L77.061 9.19822H83.0546ZM86.6978 11.1373C86.6978 10.4322 86.9329 9.84459 87.4617 9.3745C87.9906 8.90442 88.5782 8.66937 89.2833 8.66937C90.0472 8.66937 90.6936 8.90442 91.1637 9.3745C91.6338 9.84459 91.9276 10.4322 91.9276 11.1373C91.9276 11.8425 91.6925 12.4301 91.1637 12.9002C90.6348 13.3703 90.0472 13.6053 89.2833 13.6053C88.5194 13.6053 87.9318 13.3703 87.4617 12.9002C86.9916 12.3713 86.6978 11.7837 86.6978 11.1373ZM91.4575 16.3671V34.583H87.1679V16.3671H91.4575ZM104.444 31.4686C105.09 31.4686 105.795 31.3511 106.559 30.9985C107.323 30.7047 108.028 30.2934 108.674 29.8233V33.8191C107.969 34.2304 107.205 34.5242 106.324 34.7005C105.443 34.8768 104.502 34.9943 103.445 34.9943C100.742 34.9943 98.5675 34.1716 96.9222 32.4676C95.2182 30.7635 94.3955 28.5893 94.3955 26.0039C94.3955 23.0658 95.2769 20.6566 96.981 18.7763C98.6851 16.8959 101.094 15.9557 104.267 15.9557C105.09 15.9557 105.913 16.0733 106.677 16.2495C107.499 16.4258 108.146 16.7196 108.616 16.9547V21.0679C107.969 20.5978 107.264 20.1865 106.618 19.9515C105.913 19.7164 105.208 19.5402 104.502 19.5402C102.798 19.5402 101.447 20.069 100.389 21.1855C99.3314 22.3019 98.8614 23.7709 98.8614 25.6513C98.8614 27.4729 99.3902 28.9419 100.389 29.9408C101.388 30.9398 102.74 31.4686 104.444 31.4686ZM120.838 16.0733C121.191 16.0733 121.484 16.0733 121.778 16.132C122.072 16.1908 122.307 16.2495 122.483 16.3083V20.6566C122.248 20.4803 121.954 20.304 121.484 20.1865C121.014 20.069 120.544 19.9515 119.898 19.9515C118.84 19.9515 117.959 20.4216 117.254 21.303C116.548 22.1844 116.137 23.5359 116.137 25.4162V34.583H111.848V16.3671H116.137V19.2463H116.196C116.607 18.2474 117.195 17.4835 117.959 16.8959C118.781 16.3671 119.721 16.0733 120.838 16.0733ZM122.718 25.7688C122.718 22.772 123.6 20.3628 125.245 18.6C126.949 16.8371 129.3 15.9557 132.296 15.9557C135.117 15.9557 137.35 16.7784 138.936 18.4825C140.523 20.1865 141.346 22.4782 141.346 25.3575C141.346 28.2955 140.464 30.646 138.819 32.4088C137.115 34.1716 134.823 35.053 131.885 35.053C129.064 35.053 126.832 34.2304 125.186 32.5851C123.541 30.881 122.718 28.5893 122.718 25.7688ZM127.184 25.5925C127.184 27.4729 127.595 28.9419 128.477 29.9408C129.358 30.9398 130.592 31.4686 132.179 31.4686C133.707 31.4686 134.941 30.9985 135.763 29.9408C136.586 28.9419 136.997 27.4729 136.997 25.475C136.997 23.5359 136.586 22.0669 135.763 21.0092C134.941 20.0102 133.707 19.4814 132.238 19.4814C130.651 19.4814 129.476 20.0102 128.594 21.0679C127.595 22.1844 127.184 23.6534 127.184 25.5925ZM147.75 21.1855C147.75 21.7731 147.927 22.3019 148.338 22.6545C148.749 23.007 149.572 23.4184 150.924 23.9472C152.628 24.6524 153.862 25.4162 154.508 26.2389C155.213 27.1203 155.566 28.1193 155.566 29.3532C155.566 31.0573 154.919 32.4088 153.568 33.4665C152.275 34.5242 150.453 34.9943 148.221 34.9943C147.457 34.9943 146.634 34.8768 145.694 34.7005C144.754 34.5242 143.99 34.2892 143.343 33.9953V29.7646C144.107 30.2934 144.989 30.7635 145.87 31.0573C146.752 31.3511 147.574 31.5274 148.338 31.5274C149.278 31.5274 150.042 31.4099 150.453 31.1161C150.924 30.8223 151.159 30.4109 151.159 29.7646C151.159 29.177 150.924 28.7069 150.453 28.2368C149.983 27.8254 149.043 27.3554 147.75 26.8265C146.164 26.1801 145.047 25.4162 144.401 24.5936C143.755 23.7709 143.402 22.7132 143.402 21.4205C143.402 19.7752 144.049 18.4237 145.341 17.366C146.634 16.3083 148.338 15.7795 150.395 15.7795C151.041 15.7795 151.746 15.8382 152.51 16.0145C153.274 16.1908 153.979 16.3671 154.508 16.5433V20.7154C153.92 20.3628 153.274 20.0102 152.51 19.7164C151.746 19.4226 150.982 19.3051 150.277 19.3051C149.455 19.3051 148.808 19.4814 148.397 19.7752C147.986 20.1865 147.75 20.5978 147.75 21.1855ZM157.387 25.7688C157.387 22.772 158.269 20.3628 159.914 18.6C161.618 16.8371 163.969 15.9557 166.965 15.9557C169.786 15.9557 172.019 16.7784 173.605 18.4825C175.192 20.1865 176.015 22.4782 176.015 25.3575C176.015 28.2955 175.133 30.646 173.488 32.4088C171.784 34.1716 169.492 35.053 166.554 35.053C163.733 35.053 161.501 34.2304 159.855 32.5851C158.269 30.881 157.387 28.5893 157.387 25.7688ZM161.853 25.5925C161.853 27.4729 162.264 28.9419 163.146 29.9408C164.027 30.9398 165.261 31.4686 166.848 31.4686C168.376 31.4686 169.61 30.9985 170.432 29.9408C171.255 28.9419 171.666 27.4729 171.666 25.475C171.666 23.5359 171.255 22.0669 170.432 21.0092C169.61 20.0102 168.376 19.4814 166.907 19.4814C165.32 19.4814 164.145 20.0102 163.263 21.0679C162.323 22.1844 161.853 23.6534 161.853 25.5925ZM190.293 19.8927H183.888V34.583H179.54V19.8927H176.485V16.3671H179.54V13.8403C179.54 11.96 180.187 10.3734 181.421 9.13946C182.654 7.90548 184.241 7.31787 186.18 7.31787C186.709 7.31787 187.179 7.37663 187.59 7.37663C188.002 7.37663 188.354 7.49415 188.648 7.61168V11.3136C188.531 11.2549 188.237 11.1373 187.884 11.0198C187.532 10.9023 187.12 10.8435 186.65 10.8435C185.769 10.8435 185.064 11.1373 184.594 11.6662C184.124 12.195 183.888 13.0764 183.888 14.1341V16.3083H190.293V12.195L194.583 10.9023V16.3083H198.931V19.834H194.583V28.3543C194.583 29.4708 194.818 30.2346 195.171 30.7047C195.582 31.1748 196.228 31.4099 197.11 31.4099C197.345 31.4099 197.639 31.3511 197.991 31.2336C198.344 31.1161 198.637 30.9985 198.873 30.8223V34.3479C198.579 34.5242 198.167 34.6417 197.521 34.7592C196.875 34.8768 196.287 34.9355 195.641 34.9355C193.819 34.9355 192.468 34.4654 191.586 33.5253C190.705 32.5851 190.235 31.1161 190.235 29.177L190.293 19.8927Z" fill="#737373"/>
<path d="M20.65 0.736816H0.553711V20.8331H20.65V0.736816Z" fill="#F25022"/>
<path d="M42.8619 0.736816H22.7656V20.8331H42.8619V0.736816Z" fill="#7FBA00"/>
<path d="M20.65 22.9482H0.553711V43.0445H20.65V22.9482Z" fill="#00A4EF"/>
<path d="M42.8619 22.9482H22.7656V43.0445H42.8619V22.9482Z" fill="#FFB900"/>
</svg>
