<svg width="204" height="37" viewBox="0 0 204 37" fill="none" xmlns="http://www.w3.org/2000/svg">
<path d="M0 0V29.9478H13.9768V11.9783H21.9631V29.9478H35.9371V0H0Z" fill="#0067C5"/>
<path d="M51.9106 0.00401227H57.948L71.8752 18.518V0.00401227H78.3307V29.9435H72.7699L58.3687 11.0406V29.9452H51.9102L51.9106 0.00401227ZM81.4714 18.6892C81.4714 25.6571 86.5255 30.4554 93.3686 30.4554C97.484 30.4554 100.542 28.8406 102.659 26.2046L98.97 22.9341C97.1871 24.5934 95.6164 25.274 93.4521 25.274C90.5581 25.274 88.5258 23.7442 87.8873 20.8142H103.727C103.776 20.222 103.814 19.6205 103.814 19.1188C103.814 12.6605 100.331 6.75784 92.7349 6.75784C86.1072 6.75784 81.4743 12.1084 81.4743 18.6003V18.6892M87.798 16.7757C88.3054 13.8507 90.0487 11.9323 92.7319 11.9323C95.444 11.9323 97.1462 13.883 97.5263 16.7757H87.798ZM107.843 23.4844C107.843 28.7517 110.517 30.3234 114.459 30.3234C116.626 30.3234 118.206 29.8138 119.564 29.0059V23.8207C118.627 24.3386 117.567 24.6385 116.374 24.6385C114.936 24.6385 114.296 23.9108 114.296 22.4239V12.6977H119.65V7.1788H114.296V1.36097H107.842V7.179H105.125V12.6979H107.842L107.843 23.4844ZM153.556 36.7391H160.005V26.9722C161.535 28.7952 163.659 30.3687 167.098 30.3687C172.497 30.3687 177.465 26.207 177.465 18.5995V18.5186C177.465 10.9159 172.414 6.75683 167.098 6.75683C163.746 6.75683 161.579 8.32285 160.005 10.4472V7.17961H153.556V36.7391ZM171 18.5999C171 22.4227 168.455 24.8911 165.441 24.8911C162.426 24.8911 159.922 22.3812 159.922 18.5999V18.5186C159.922 14.7383 162.429 12.2347 165.441 12.2347C168.455 12.2347 171 14.7383 171 18.5186V18.5999ZM180.089 36.7391H186.544V26.9722C188.071 28.7952 190.196 30.3687 193.641 30.3687C199.03 30.3687 204 26.207 204 18.5995V18.5186C204 10.9159 198.948 6.75683 193.641 6.75683C190.285 6.75683 188.117 8.32285 186.544 10.4472V7.17961H180.089V36.7391ZM197.548 18.5999C197.548 22.4227 194.994 24.8911 191.978 24.8911C188.972 24.8911 186.459 22.3812 186.459 18.5999V18.5186C186.459 14.7383 188.971 12.2347 191.978 12.2347C194.993 12.2347 197.548 14.7383 197.548 18.5186V18.5999ZM121.217 29.9445H127.883L130.602 23.2711H142.389L145.126 29.9445H151.939L139.517 0.000976562H133.637L121.217 29.9445ZM132.543 17.5065L136.496 7.85272L140.445 17.5065H132.543Z" fill="white"/>
</svg>
