<svg width="205" height="38" viewBox="0 0 205 38" fill="none" xmlns="http://www.w3.org/2000/svg">
<path d="M0.725586 0.867188V30.815H14.7024V12.8455H22.6887V30.815H36.6626V0.867188H0.725586Z" fill="#0067C5"/>
<path d="M52.6361 0.8712H58.6736L72.6008 19.3851V0.8712H79.0563V30.8107H73.4955L59.0943 11.9078V30.8123H52.6357L52.6361 0.8712ZM82.197 19.5564C82.197 26.5243 87.2511 31.3225 94.0941 31.3225C98.2095 31.3225 101.268 29.7078 103.385 27.0717L99.6956 23.8013C97.9127 25.4606 96.342 26.1412 94.1777 26.1412C91.2837 26.1412 89.2514 24.6114 88.6129 21.6814H104.452C104.502 21.0892 104.539 20.4877 104.539 19.986C104.539 13.5277 101.057 7.62503 93.4605 7.62503C86.8327 7.62503 82.1999 12.9756 82.1999 19.4675V19.5564M88.5236 17.6429C89.031 14.7179 90.7743 12.7995 93.4575 12.7995C96.1696 12.7995 97.8718 14.7502 98.2518 17.6429H88.5236ZM108.568 24.3516C108.568 29.6189 111.243 31.1906 115.185 31.1906C117.352 31.1906 118.931 30.681 120.29 29.8731V24.6879C119.353 25.2058 118.293 25.5057 117.099 25.5057C115.661 25.5057 115.021 24.778 115.021 23.2911V13.5649H120.375V8.04598H115.021V2.22816H108.568V8.04619H105.85V13.5651H108.568L108.568 24.3516ZM154.282 37.6062H160.731V27.8394C162.26 29.6624 164.384 31.2359 167.823 31.2359C173.222 31.2359 178.191 27.0742 178.191 19.4667V19.3858C178.191 11.7831 173.139 7.62402 167.823 7.62402C164.471 7.62402 162.304 9.19004 160.731 11.3144V8.04679H154.282V37.6062ZM171.726 19.4671C171.726 23.2899 169.18 25.7583 166.166 25.7583C163.152 25.7583 160.647 23.2484 160.647 19.4671V19.3858C160.647 15.6055 163.154 13.1018 166.166 13.1018C169.18 13.1018 171.726 15.6055 171.726 19.3858V19.4671ZM180.815 37.6062H187.27V27.8394C188.796 29.6624 190.922 31.2359 194.366 31.2359C199.755 31.2359 204.725 27.0742 204.725 19.4667V19.3858C204.725 11.7831 199.674 7.62402 194.366 7.62402C191.01 7.62402 188.842 9.19004 187.27 11.3144V8.04679H180.815V37.6062ZM198.273 19.4671C198.273 23.2899 195.719 25.7583 192.704 25.7583C189.697 25.7583 187.185 23.2484 187.185 19.4671V19.3858C187.185 15.6055 189.697 13.1018 192.704 13.1018C195.719 13.1018 198.273 15.6055 198.273 19.3858V19.4671ZM121.942 30.8117H128.608L131.328 24.1382H143.114L145.851 30.8117H152.665L140.242 0.868164H134.363L121.942 30.8117ZM133.269 18.3736L137.222 8.71991L141.171 18.3736H133.269Z" fill="#010101"/>
</svg>
