<svg width="112" height="69" viewBox="0 0 112 69" fill="none" xmlns="http://www.w3.org/2000/svg">
<path d="M11.704 62.0784L6.20031 51.4252H0.24707V68.0997H5.16496V57.1605L11.091 68.0997H16.5674V51.4252H11.7721L11.704 62.0784ZM106.384 62.0784L100.88 51.4252H94.9267V68.0997H99.8446V57.1605L105.771 68.0997H111.247V51.4252H106.452L106.384 62.0784ZM33.5689 51.4116H19.6734V68.1133H33.6915V64.8166H24.8229V61.5062H33.0784V58.1004H24.8229V54.5721H33.5689V51.4116ZM38.5549 68.127H43.9632L46.1292 56.67L48.6904 68.127H53.8671L57.6815 51.4252H52.9271L50.9518 63.6586L48.2953 51.4252H44.0313L41.6064 63.6586L39.5902 51.4252H34.577L38.5549 68.127ZM68.3211 61.9285H71.0865C70.8822 65.3751 69.0567 65.3751 68.144 65.5795C65.5556 65.5795 64.2069 64.3806 64.2069 59.8851C64.2069 55.5802 64.8063 53.8637 67.5446 53.8637C69.8468 53.8637 70.419 55.9616 70.6506 56.6155H75.9227C75.7865 54.1225 74.2062 50.6214 67.8851 50.7849C61.3734 50.5669 58.8531 54.8037 58.8531 59.8169C58.9212 66.3832 62.8855 68.5629 67.3266 68.5629C71.2636 68.5629 71.6996 67.7183 73.0619 66.465L73.4297 68.1133H76.0181V59.1085H68.3211V61.9285ZM92.5291 51.4116H78.6337V68.1133H92.6517V64.8166H83.7831V61.5062H92.0387V58.1004H83.7831V54.5721H92.5291V51.4116Z" fill="#2D7654"/>
<path d="M55.7465 0.448242C68.4567 0.448242 78.7421 10.7608 78.7421 23.4574C78.7421 36.1677 68.4295 46.453 55.7329 46.453C43.0226 46.453 32.7373 36.1541 32.7373 23.4438C32.7646 10.7608 43.0499 0.475488 55.7465 0.448242Z" fill="#E47825"/>
<path d="M60.3381 16.3054C61.7004 16.2101 62.8856 17.2318 62.9946 18.5941C63.09 19.9564 62.0682 21.1416 60.7059 21.2506C59.3436 21.3459 58.1584 20.3242 58.0495 18.9619C57.9541 17.5996 58.9758 16.4144 60.3381 16.3054ZM64.0436 12.9814C65.147 12.8997 66.1143 13.7307 66.196 14.8478C66.2777 15.9512 65.4467 16.9185 64.3296 17.0002C63.2262 17.0819 62.259 16.2509 62.1772 15.1338C62.1091 14.0304 62.9401 13.0631 64.0436 12.9814ZM67.3267 10.1615C68.1849 10.107 68.9206 10.7472 68.9887 11.6055C69.0432 12.4637 68.4029 13.1994 67.5447 13.2675C66.6864 13.322 65.9508 12.6817 65.8827 11.8235C65.8282 10.9652 66.4685 10.2296 67.3267 10.1615ZM69.6154 8.58119C70.1194 8.55394 70.5553 8.93539 70.5826 9.43944C70.6098 9.94349 70.2284 10.3794 69.7243 10.4067C69.2203 10.4339 68.798 10.0525 68.7571 9.56204C68.7162 9.05799 69.0977 8.62206 69.6154 8.58119ZM71.3319 7.42324C71.5362 7.40961 71.7133 7.55947 71.7269 7.76381C71.7405 7.96816 71.5907 8.14525 71.3863 8.15888C71.182 8.1725 71.0049 8.02265 70.9913 7.8183C70.9777 7.61396 71.1275 7.43686 71.3319 7.42324ZM48.4589 28.1847C48.4044 29.5469 49.4534 30.7049 50.8157 30.7594C52.1779 30.8139 53.3359 29.7649 53.3904 28.4026C53.4449 27.0403 52.3959 25.8824 51.0336 25.8279C49.6849 25.7598 48.527 26.8224 48.4589 28.1847ZM45.0395 32.04C44.985 33.157 45.8433 34.097 46.9604 34.1379C48.0774 34.1924 49.0174 33.3341 49.0583 32.217C49.1128 31.1136 48.2545 30.1736 47.1511 30.1191C46.034 30.0646 45.094 30.9229 45.0395 32.04ZM42.4648 35.2414C42.4239 36.0996 43.0914 36.8352 43.9497 36.8625C44.8079 36.9034 45.5436 36.2358 45.5708 35.3776C45.6117 34.5193 44.9442 33.7837 44.0859 33.7564C43.2277 33.7292 42.5056 34.3831 42.4648 35.2414ZM40.7891 37.6254C40.7619 38.1294 41.1433 38.5654 41.6474 38.5926C42.1514 38.6199 42.5874 38.2384 42.6146 37.7344C42.6419 37.2303 42.2604 36.7944 41.7564 36.7671H41.7428C41.2523 36.7535 40.8164 37.1349 40.7891 37.6254ZM39.7674 39.2193C39.7538 39.4236 39.9173 39.5871 40.1216 39.6007C40.326 39.6143 40.4894 39.4508 40.5031 39.2465C40.5167 39.0422 40.3532 38.8787 40.1489 38.8651C39.9581 38.8651 39.781 39.0149 39.7674 39.2193ZM55.5428 12.0278C56.7008 11.9461 57.6953 12.8179 57.777 13.9759C57.8587 15.1338 56.9869 16.1283 55.8289 16.2101C54.671 16.2918 53.6765 15.4199 53.5947 14.2756C53.5266 13.1176 54.3849 12.1095 55.5428 12.0278ZM59.5071 8.70379C60.3245 8.6493 61.0329 9.26234 61.0874 10.0797C61.1419 10.8971 60.5288 11.6055 59.7115 11.66C58.8941 11.7145 58.1857 11.1014 58.1312 10.2841C58.0767 9.48031 58.6897 8.77191 59.5071 8.70379ZM68.8252 18.1309C69.6426 18.0628 70.351 18.6758 70.4191 19.4932C70.4872 20.3106 69.8742 21.019 69.0568 21.0871C68.2394 21.1552 67.531 20.5422 67.4629 19.7248C67.3948 18.8938 68.0078 18.1854 68.8252 18.1309ZM62.4905 6.07456C63.0627 6.03369 63.5668 6.45601 63.6076 7.02817C63.6485 7.60034 63.2262 8.10439 62.654 8.14525C62.0819 8.18612 61.5778 7.76381 61.5369 7.19165C61.5369 7.19165 61.5369 7.19165 61.5369 7.17802C61.4961 6.61948 61.9184 6.12905 62.4905 6.07456ZM58.7987 23.4711C58.9213 25.1876 57.6135 26.6725 55.897 26.7951C54.1805 26.9177 52.6956 25.6099 52.573 23.8934C52.4504 22.1769 53.7582 20.692 55.4747 20.5694C57.2048 20.4604 58.6897 21.7546 58.7987 23.4711ZM56.6463 6.37427C56.6735 6.87832 56.2921 7.31425 55.788 7.3415C55.284 7.36874 54.8481 6.9873 54.8208 6.48325C54.7936 5.9792 55.175 5.55689 55.6791 5.52964C56.1831 5.47515 56.619 5.85659 56.6463 6.37427ZM73.6478 23.5665C73.675 24.0705 73.2936 24.4928 72.7895 24.5201C72.2855 24.5473 71.8631 24.1659 71.8359 23.6618C71.8087 23.1714 72.1901 22.7491 72.6805 22.7082C73.1846 22.6673 73.6069 23.0488 73.6478 23.5392C73.6478 23.5528 73.6478 23.5665 73.6478 23.5665ZM72.9394 16.5098C72.9666 17.0138 72.5852 17.4361 72.0811 17.4634C71.5771 17.4906 71.1548 17.1092 71.1275 16.6051C71.1003 16.1147 71.4817 15.6924 71.9721 15.6515C72.4762 15.6243 72.9121 15.9921 72.9394 16.4961C72.9394 16.4961 72.9394 16.4961 72.9394 16.5098ZM53.2678 10.107C53.3223 10.8971 52.7229 11.5919 51.9191 11.6464C51.129 11.7009 50.4342 11.1014 50.3797 10.2977C50.3252 9.50755 50.9246 8.81278 51.7284 8.75829C52.5322 8.71742 53.2133 9.31683 53.2678 10.107ZM43.9905 19.6158C44.045 20.4059 43.4456 21.1007 42.6419 21.1552C41.8517 21.2097 41.157 20.6103 41.1025 19.8065C41.048 19.0164 41.6474 18.3216 42.4511 18.2671C43.2413 18.2263 43.9361 18.8257 43.9905 19.6158ZM49.8757 7.20527C49.9165 7.73656 49.5078 8.21337 48.9766 8.25424C48.4453 8.29511 47.9685 7.88642 47.9276 7.35512C47.8867 6.82383 48.2954 6.34702 48.8267 6.30615C49.3716 6.26528 49.8348 6.67397 49.8757 7.20527ZM40.4622 16.4961C40.5031 17.0411 40.0944 17.5042 39.5495 17.5315C39.0045 17.5724 38.5414 17.1637 38.5141 16.6187C38.4732 16.0738 38.8819 15.6106 39.4268 15.5834C39.9581 15.5425 40.4213 15.9512 40.4622 16.4961ZM39.7129 23.5665C39.7538 24.1114 39.3451 24.5746 38.8002 24.6018C38.2553 24.6291 37.7921 24.234 37.7648 23.6891C37.724 23.1441 38.1327 22.681 38.6776 22.6537C39.1953 22.6129 39.6721 23.0215 39.7129 23.5665C39.7129 23.5528 39.7129 23.5528 39.7129 23.5665ZM46.8786 4.794C46.9059 5.09371 46.6743 5.35254 46.3746 5.37979C46.0749 5.40704 45.816 5.17544 45.7888 4.87574C45.7615 4.57603 45.9931 4.3172 46.2792 4.28995C46.5789 4.27633 46.8514 4.4943 46.8786 4.794C46.865 4.794 46.865 4.794 46.8786 4.794ZM53.1724 3.25461C53.1861 3.55431 52.9681 3.81315 52.6684 3.82677C52.3687 3.85402 52.1098 3.62243 52.0826 3.32272C52.0553 3.02301 52.2869 2.76418 52.5866 2.73693C52.8863 2.72331 53.1452 2.94128 53.1724 3.25461ZM76.3587 26.618C76.386 26.9177 76.1544 27.1765 75.8547 27.2038C75.555 27.2174 75.2961 26.9994 75.2689 26.6997C75.2553 26.4 75.4869 26.1412 75.7866 26.1276C76.0726 26.114 76.3315 26.3319 76.3587 26.618ZM76.4132 20.4877C76.4405 20.7874 76.2089 21.0462 75.9228 21.0598C75.6231 21.0735 75.3643 20.8555 75.3506 20.5558C75.337 20.2561 75.555 19.9972 75.8547 19.9836C76.1271 19.97 76.386 20.188 76.4132 20.4877ZM74.9692 14.1802C74.9964 14.4799 74.7648 14.7388 74.4651 14.766C74.1654 14.7796 73.9066 14.5617 73.8793 14.262C73.8657 13.9623 74.0837 13.7034 74.3834 13.6898C74.6967 13.6489 74.9556 13.8805 74.9692 14.1802ZM37.5605 14.1802C37.5741 14.4799 37.3562 14.7388 37.0565 14.766C36.7567 14.7796 36.4979 14.5617 36.4707 14.262C36.4707 13.9623 36.7159 13.7171 37.0156 13.7171C37.288 13.7034 37.5196 13.9078 37.5605 14.1802ZM36.0075 20.4059C36.0211 20.7056 35.8031 20.9645 35.5034 20.9781C35.2037 20.9917 34.9449 20.7738 34.9313 20.474C34.9176 20.1743 35.1356 19.9155 35.4353 19.9019C35.7214 19.8746 35.9802 20.1062 36.0075 20.4059ZM36.0484 26.618C36.0756 26.9177 35.844 27.1765 35.5443 27.2038H35.5307C35.2446 27.2174 34.9858 26.9994 34.9585 26.6997C34.9449 26.4 35.1629 26.1412 35.4626 26.1276C35.7623 26.1003 36.0211 26.3319 36.0484 26.618ZM59.3981 3.29547C59.4254 3.59518 59.1938 3.85402 58.8941 3.88126C58.5944 3.90851 58.3355 3.67692 58.3083 3.37721C58.281 3.07751 58.5126 2.81867 58.8123 2.79142C59.112 2.76418 59.3709 2.99577 59.3981 3.29547ZM65.474 4.71226C65.5012 5.01197 65.2696 5.27081 64.9699 5.29805C64.6702 5.3253 64.4114 5.09371 64.3841 4.794C64.3569 4.4943 64.5885 4.23546 64.8882 4.20821C65.2015 4.19459 65.4604 4.41256 65.474 4.71226ZM62.7221 28.1847C62.8175 29.5469 61.7821 30.7321 60.4198 30.8139C59.0576 30.9092 57.8724 29.8739 57.7906 28.5116C57.6953 27.1493 58.7306 25.9641 60.0929 25.8824C61.4552 25.787 62.6268 26.8224 62.7221 28.1847ZM57.8315 32.9663C57.9132 34.1379 57.0277 35.146 55.8562 35.2277C54.6846 35.3095 53.6765 34.424 53.5947 33.2524C53.513 32.0808 54.3985 31.0727 55.5701 30.991C56.7416 30.9092 57.7497 31.7811 57.8315 32.9663C57.8315 32.9527 57.8315 32.9527 57.8315 32.9663ZM56.7008 40.6497C56.7416 41.1946 56.333 41.6714 55.7744 41.7123C55.7608 41.7123 55.7608 41.7123 55.7472 41.7123C55.2023 41.7804 54.6982 41.3989 54.6301 40.854C54.562 40.3091 54.9434 39.805 55.4883 39.7369C55.5292 39.7369 55.5701 39.7233 55.6109 39.7233C56.1559 39.6824 56.6327 40.1048 56.6735 40.6497M60.992 36.7399C61.0465 37.5436 60.4335 38.2384 59.6297 38.2929C58.826 38.3474 58.1312 37.7344 58.0767 36.9306C58.0222 36.1268 58.6352 35.4321 59.4254 35.3776C60.2428 35.3367 60.9375 35.9361 60.992 36.7399ZM63.4986 39.9413C63.5395 40.459 63.1444 40.9085 62.6131 40.9494C62.0819 40.9902 61.6459 40.5952 61.605 40.0639C61.5642 39.5462 61.9592 39.0967 62.4905 39.0558C63.0082 39.0285 63.4578 39.4236 63.4986 39.9413ZM65.3377 42.3253C65.3514 42.5978 65.147 42.8157 64.8882 42.843C64.6157 42.8566 64.3841 42.6659 64.3705 42.3934C64.3569 42.121 64.5476 41.8894 64.8201 41.8757C65.0925 41.8485 65.3241 42.0528 65.3377 42.3253ZM59.3028 43.7012C59.3164 43.9737 59.1257 44.1916 58.8532 44.2189C58.5807 44.2325 58.3628 44.0418 58.3355 43.7693C58.3219 43.5105 58.5126 43.2789 58.7715 43.2517C59.0303 43.238 59.2619 43.4288 59.2891 43.6876M52.9681 43.7421C52.9953 44.0145 52.8046 44.2461 52.5458 44.2734C52.2733 44.3006 52.0417 44.1099 52.0145 43.8511C51.9872 43.5786 52.178 43.347 52.4368 43.3198C52.4504 43.3198 52.4504 43.3198 52.464 43.3198C52.7229 43.2925 52.9545 43.4832 52.9681 43.7421ZM46.8377 42.2708C46.8514 42.5433 46.6606 42.7612 46.3882 42.7885C46.1157 42.8157 45.8978 42.6114 45.8705 42.3389C45.8569 42.0665 46.0476 41.8485 46.3201 41.8212C46.5925 41.794 46.8241 41.9983 46.8377 42.2708ZM49.6986 39.9413C49.7258 40.459 49.3308 40.9085 48.8131 40.9358C48.2954 40.963 47.8458 40.5679 47.8186 40.0503C47.7914 39.5326 48.1728 39.083 48.6905 39.0558C49.2081 39.0285 49.6577 39.4236 49.6986 39.9413ZM53.0771 36.7944C53.1316 37.5436 52.573 38.1839 51.8238 38.2384C51.0745 38.2929 50.4342 37.7344 50.3797 36.9851C50.3252 36.2358 50.8838 35.5956 51.633 35.5411C52.3687 35.4866 53.0226 36.0451 53.0771 36.7944ZM66.1824 31.9582C66.2641 33.0753 65.4195 34.0289 64.3024 34.1106C63.1853 34.1924 62.2317 33.3478 62.15 32.2307C62.0682 31.1136 62.9129 30.16 64.0299 30.0782C65.147 30.0101 66.1143 30.8548 66.1824 31.9582ZM68.7707 35.0779C68.8252 35.9225 68.1986 36.6445 67.3539 36.7126C66.5093 36.7671 65.7873 36.1405 65.7192 35.2958C65.6647 34.4512 66.2914 33.7292 67.136 33.6611C67.9806 33.6066 68.7162 34.2332 68.7707 35.0779ZM70.5553 37.5028C70.5826 38.0068 70.2011 38.4291 69.6971 38.4564C69.193 38.4836 68.7707 38.1022 68.7435 37.5981C68.7162 37.1077 69.0977 36.6718 69.5881 36.6445C70.0922 36.6173 70.5281 36.9987 70.5553 37.5028ZM71.7133 39.1784C71.7269 39.3827 71.5771 39.5462 71.3727 39.5735C71.1684 39.5871 70.9913 39.4372 70.9777 39.2329C70.964 39.0285 71.1139 38.8514 71.3182 38.8378C71.5226 38.8242 71.6997 38.9877 71.7133 39.1784ZM74.724 32.8846C74.7376 33.0889 74.5877 33.2524 74.3834 33.266C74.1791 33.2933 74.002 33.157 73.9611 32.9663C73.9338 32.762 74.0701 32.5849 74.2608 32.544C74.2744 32.544 74.3017 32.544 74.3153 32.544C74.5332 32.5304 74.7103 32.6802 74.724 32.8846ZM72.9666 30.5006C72.9939 31.0046 72.6124 31.4269 72.1084 31.4542C71.6043 31.4814 71.182 31.1 71.1548 30.5959C71.1275 30.1055 71.5089 29.6832 71.9994 29.6423C72.5034 29.6151 72.9394 29.9829 72.9666 30.4869V30.5006ZM70.1875 27.3536C70.242 28.0893 69.6835 28.7296 68.9478 28.7841C68.2122 28.8386 67.5719 28.28 67.5174 27.5444C67.4629 26.8087 68.0215 26.1684 68.7571 26.114H68.7707C69.4928 26.0595 70.133 26.618 70.1875 27.3536ZM66.809 23.5937C66.8771 24.5609 66.1551 25.3919 65.1879 25.4737C64.2207 25.5418 63.3897 24.8198 63.3079 23.8525C63.2398 22.8853 63.9618 22.0543 64.9291 21.9726H64.9427C65.9099 21.9045 66.7409 22.6401 66.809 23.5937ZM51.0609 16.4144C49.6986 16.3463 48.527 17.3953 48.4589 18.7576C48.3908 20.1199 49.4397 21.2914 50.802 21.3595C52.1643 21.4277 53.3359 20.3787 53.404 19.0164V19.0028C53.4585 17.6405 52.4232 16.4825 51.0609 16.4144ZM47.2192 13.0087C46.1021 12.9542 45.1621 13.8124 45.1076 14.9295C45.0531 16.0466 45.9114 16.9866 47.0285 17.0411C48.1456 17.0955 49.0855 16.2373 49.14 15.1202C49.1945 14.0168 48.3363 13.0768 47.2192 13.0087ZM44.0314 10.2704C43.1732 10.2296 42.4375 10.8835 42.3967 11.7417C42.3558 12.6 43.0097 13.3356 43.8679 13.3765C44.7262 13.4173 45.4618 12.7634 45.5027 11.9052C45.5436 11.0333 44.8897 10.3113 44.0314 10.2704ZM41.6065 8.48583C41.1025 8.45858 40.6665 8.84002 40.6393 9.34407C40.612 9.84812 40.9935 10.2841 41.4975 10.3113C42.0016 10.3386 42.4375 9.95711 42.4648 9.45306V9.43944C42.4784 8.94901 42.097 8.51307 41.6065 8.48583ZM40.0126 7.4641C39.8083 7.45048 39.6448 7.61396 39.6312 7.8183C39.6176 8.02265 39.781 8.18612 39.9854 8.19975C40.1897 8.21337 40.3532 8.04989 40.3668 7.84555C40.3668 7.6412 40.217 7.4641 40.0126 7.4641ZM46.4836 25.678C45.3256 25.7598 44.3175 24.8879 44.2494 23.7299C44.1676 22.572 45.0395 21.5639 46.1975 21.4958C47.3554 21.414 48.3499 22.2859 48.4316 23.4439C48.5134 24.5882 47.6551 25.5963 46.4836 25.678ZM42.4784 28.9339C41.661 28.9884 40.939 28.3754 40.8845 27.558C40.83 26.7406 41.4431 26.0186 42.2604 25.9641C43.0778 25.9096 43.7998 26.5226 43.8543 27.34C43.9224 28.1574 43.3094 28.8794 42.4784 28.9339ZM39.4541 31.6313C38.8819 31.6721 38.3779 31.2498 38.337 30.6777C38.2961 30.1055 38.7185 29.6014 39.2906 29.5606C39.8628 29.5197 40.3668 29.942 40.4077 30.5142V30.5278C40.4486 31.0863 40.0263 31.5768 39.4541 31.6313ZM36.9747 33.3478C36.7159 33.375 36.4843 33.1707 36.4707 32.9118C36.4434 32.653 36.6478 32.4214 36.9066 32.4078C37.1654 32.3805 37.397 32.5849 37.4106 32.8437C37.4243 33.1025 37.2336 33.3341 36.9747 33.3478Z" fill="white"/>
</svg>
