<svg width="260" height="34" viewBox="0 0 260 34" fill="none" xmlns="http://www.w3.org/2000/svg">
<path fill-rule="evenodd" clip-rule="evenodd" d="M221.584 32.7277C221.451 32.8419 221.279 32.9035 221.103 32.9035H211.698C211.4 32.9035 211.11 32.7461 210.988 32.4746C210.846 32.162 210.928 31.7974 211.184 31.5861L228.347 17.1319C228.729 16.8091 228.73 16.2201 228.349 15.8966L211.21 1.34463C211.002 1.16748 210.881 0.896616 210.928 0.627806C210.992 0.257765 211.31 0.00537109 211.668 0.00537109H220.719C220.893 0.00537109 221.062 0.0669306 221.2 0.180474L239.878 15.8918L240.046 16.0362C240.334 16.281 240.341 16.7222 240.063 16.9773L239.878 17.1463L221.584 32.7277Z" fill="#A8CB3A"/>
<path fill-rule="evenodd" clip-rule="evenodd" d="M38.1909 0.235181H32.4522C31.7641 0.235181 31.2005 0.798793 31.2005 1.48758V20.0361C31.2005 20.4718 30.6875 20.7058 30.3585 20.4192L9.11774 1.92738C7.66973 0.667466 6.09585 0.0258789 4.43512 0.0258789C2.96932 0.0258789 0.504883 0.624374 0.504883 4.62711V31.4623C0.504883 32.1538 1.06507 32.714 1.75659 32.714H7.49189C8.18272 32.714 8.74291 32.1538 8.74291 31.463V12.8371C8.74291 12.4007 9.25659 12.1675 9.5856 12.4547L31.0507 31.2263C32.3811 32.4069 33.8277 33.0054 35.351 33.0054C36.879 33.0054 39.4413 32.3802 39.4413 28.1935V1.48621C39.4413 0.798109 38.8783 0.235181 38.1909 0.235181Z" fill="#174489"/>
<path fill-rule="evenodd" clip-rule="evenodd" d="M80.1703 0.235352H73.4999C73.0923 0.235352 72.7571 0.567773 72.7571 0.97817V22.7012C72.7571 24.4905 70.5355 25.3981 66.1504 25.3981H57.0786C52.6114 25.3981 50.3433 24.4905 50.3433 22.7012V0.97817C50.3433 0.567773 50.0109 0.235352 49.5998 0.235352H42.8474C42.4356 0.235352 42.1025 0.567773 42.1025 0.97817V23.0349C42.1025 24.565 42.3618 25.8851 42.8652 26.9604C43.3666 28.0233 44.0492 28.9378 44.8967 29.6786C45.7263 30.4022 46.701 30.9775 47.7872 31.3845C48.8413 31.7832 49.9521 32.0828 51.0827 32.2805C52.2079 32.4836 53.3789 32.6054 54.5635 32.6505C55.7174 32.6929 56.8023 32.7141 57.8187 32.7141H65.2004C70.619 32.7141 74.4753 31.9645 76.9931 30.4248C79.595 28.8325 80.9151 26.3482 80.9151 23.0349V0.97817C80.9151 0.567773 80.58 0.235352 80.1703 0.235352Z" fill="#174489"/>
<path fill-rule="evenodd" clip-rule="evenodd" d="M119.168 5.96774V1.69277C119.168 0.865139 118.498 0.194824 117.67 0.194824H85.0455C84.2179 0.194824 83.5469 0.865823 83.5469 1.69346V5.96774C83.5469 6.79537 84.2179 7.46705 85.0462 7.46705H96.4586C96.8759 7.46705 97.2145 7.80495 97.2145 8.22219V31.2153C97.2145 32.043 97.8855 32.714 98.7131 32.714H103.956C104.784 32.714 105.456 32.0423 105.456 31.2147V8.22219C105.456 7.80495 105.794 7.46705 106.211 7.46705H117.669C118.497 7.46705 119.168 6.79606 119.168 5.96774Z" fill="#174489"/>
<path fill-rule="evenodd" clip-rule="evenodd" d="M127.718 16.3945L131.897 10.3877C132.088 10.112 132.495 10.1107 132.688 10.3843L136.918 16.3487C137.115 16.6257 136.916 17.0094 136.576 17.0094H128.039C127.723 17.0094 127.537 16.6538 127.718 16.3945ZM136.914 2.43283C135.79 0.863748 134.303 0.0668945 132.492 0.0668945C130.706 0.0668945 129.233 0.878796 128.106 2.48482L107.982 31.5443C107.79 31.8207 107.803 32.1969 108.036 32.4622C108.187 32.6339 108.418 32.714 108.646 32.714H116.557C116.809 32.714 117.046 32.5854 117.182 32.374L122.236 24.5984C122.347 24.428 122.536 24.3254 122.739 24.3254C122.739 24.3254 139.589 24.3213 142.14 24.3248C142.342 24.3248 142.529 24.426 142.641 24.5949L147.809 32.3802C147.946 32.5888 148.179 32.714 148.429 32.714H156.021C156.294 32.714 156.548 32.5621 156.675 32.3166C156.805 32.0737 156.79 31.7803 156.636 31.5525L136.914 2.43283Z" fill="#174489"/>
<path fill-rule="evenodd" clip-rule="evenodd" d="M196.281 0.235181H190.384C189.738 0.235181 189.213 0.759805 189.213 1.40686V20.2106C189.213 20.5785 188.78 20.7755 188.503 20.5341L167.131 1.92738C165.684 0.667466 164.107 0.0258789 162.444 0.0258789C160.979 0.0258789 158.516 0.624374 158.516 4.62711V31.5416C158.516 32.1866 159.043 32.714 159.688 32.714H165.583C166.23 32.714 166.756 32.1887 166.756 31.5409V12.662C166.756 12.2933 167.189 12.097 167.467 12.3391L189.063 31.2263C190.392 32.4069 191.841 33.0054 193.364 33.0054C194.89 33.0054 197.454 32.3802 197.454 28.1935V1.40823C197.454 0.760489 196.929 0.235181 196.281 0.235181Z" fill="#174489"/>
<path fill-rule="evenodd" clip-rule="evenodd" d="M207.573 0.235352H200.824C200.413 0.235352 200.08 0.567773 200.08 0.97817V31.9706C200.08 32.3804 200.413 32.7141 200.824 32.7141H207.573C207.984 32.7141 208.318 32.3804 208.318 31.9706V0.97817C208.318 0.567773 207.984 0.235352 207.573 0.235352Z" fill="#174489"/>
<path fill-rule="evenodd" clip-rule="evenodd" d="M242.761 13.794C243.06 14.0491 243.502 14.0491 243.801 13.7947L258.782 1.34463C258.99 1.16748 259.11 0.896616 259.064 0.627806C259 0.257765 258.682 0.00537109 258.324 0.00537109H249.273C249.099 0.00537109 248.93 0.0669306 248.792 0.180474L238.279 8.75024C237.899 9.07035 237.898 9.65517 238.276 9.97733L242.761 13.794Z" fill="#174489"/>
<path fill-rule="evenodd" clip-rule="evenodd" d="M242.71 19.2371C243.01 18.982 243.451 18.9813 243.751 19.2364L258.955 31.6537C259.163 31.8301 259.283 32.1017 259.236 32.3705C259.172 32.7398 258.854 32.9929 258.496 32.9929H249.445C249.272 32.9929 249.103 32.9314 248.964 32.8178L238.518 24.1195C238.137 23.7993 238.136 23.2145 238.514 22.8924L242.71 19.2371Z" fill="#174489"/>
</svg>
