<svg width="193" height="46" viewBox="0 0 193 46" fill="none" xmlns="http://www.w3.org/2000/svg">
<path d="M40.6098 26.6712C44.5191 26.6712 50.1754 25.8649 50.1754 21.2149C50.1871 20.8561 50.1545 20.4971 50.0785 20.1462L47.7504 10.0337C47.2129 7.80869 46.741 6.79932 42.8348 4.84619C39.8035 3.29619 33.2004 0.736816 31.2473 0.736816C29.4285 0.736816 28.9004 3.08057 26.7316 3.08057C24.6441 3.08057 23.0941 1.33057 21.141 1.33057C19.266 1.33057 18.0441 2.60869 17.1004 5.23682C17.1004 5.23682 14.4723 12.6493 14.1348 13.7243C14.0811 13.9217 14.0579 14.1262 14.066 14.3306C14.066 17.2118 25.4098 26.6587 40.6098 26.6587M50.7754 23.1024C51.316 25.6618 51.316 25.9306 51.316 26.2681C51.316 30.6431 46.3973 33.0712 39.9316 33.0712C25.3191 33.0806 12.5191 24.5181 12.5191 18.8587C12.5183 18.0709 12.6789 17.2914 12.991 16.5681C7.73477 16.8306 0.931641 17.7681 0.931641 23.7743C0.931641 33.6118 24.241 45.7368 42.6973 45.7368C56.8473 45.7368 60.416 39.3368 60.416 34.2837C60.416 30.3087 56.9785 25.7962 50.7816 23.1024" fill="#EE0000"/>
<path d="M50.7748 23.1026C51.3154 25.662 51.3154 25.9308 51.3154 26.2683C51.3154 30.6433 46.3967 33.0714 39.9311 33.0714C25.3186 33.0808 12.5186 24.5183 12.5186 18.8589C12.5177 18.0711 12.6783 17.2916 12.9904 16.5683L14.1342 13.737C14.0818 13.9304 14.0586 14.1305 14.0654 14.3308C14.0654 17.212 25.4092 26.6589 40.6092 26.6589C44.5186 26.6589 50.1748 25.8526 50.1748 21.2026C50.1865 20.8438 50.154 20.4848 50.0779 20.1339L50.7748 23.1026ZM181.944 29.5808C181.944 33.2964 184.178 35.1026 188.253 35.1026C189.508 35.0714 190.754 34.8952 191.969 34.5776V30.2683C191.193 30.5142 190.383 30.6365 189.569 30.6308C187.89 30.6308 187.269 30.1058 187.269 28.5276V21.9245H192.131V17.487H187.269V11.862L181.956 13.012V17.487H178.428V21.9245H181.944V29.5808ZM165.381 29.6808C165.381 28.5308 166.534 27.9714 168.275 27.9714C169.339 27.9776 170.398 28.1097 171.431 28.3651V30.5995C170.413 31.1555 169.269 31.4386 168.109 31.4214C166.403 31.4214 165.381 30.7651 165.381 29.6808ZM167.006 35.1683C168.881 35.1683 170.394 34.7745 171.806 33.8214V34.8745H177.062V23.7308C177.062 19.4933 174.206 17.1683 169.44 17.1683C166.778 17.1683 164.147 17.7933 161.315 19.0745L163.222 22.987C165.259 22.1308 166.972 21.6058 168.481 21.6058C170.669 21.6058 171.8 22.4589 171.8 24.2026V25.0558C170.512 24.7224 169.186 24.5564 167.856 24.562C163.384 24.562 160.69 26.437 160.69 29.7901C160.69 32.8464 163.122 35.1776 167 35.1776L167.006 35.1683ZM138.112 34.8839H143.765V25.8683H153.231V34.8745H158.9V11.8683H153.253V20.7089H143.787V11.8683H138.134L138.112 34.8839ZM116.594 26.1651C116.594 23.6651 118.565 21.7589 121.162 21.7589C122.513 21.7315 123.825 22.2134 124.837 23.1089V29.187C124.347 29.6503 123.77 30.012 123.139 30.2512C122.508 30.4904 121.837 30.6024 121.162 30.5808C118.6 30.5808 116.594 28.6745 116.594 26.1776V26.1651ZM124.909 34.887H130.169V10.7183L124.856 11.8683V18.4089C123.504 17.6422 121.973 17.2455 120.419 17.2589C115.359 17.2589 111.381 21.1683 111.381 26.1651C111.367 27.3376 111.586 28.5012 112.026 29.588C112.466 30.6748 113.118 31.6631 113.944 32.4951C114.77 33.3271 115.754 33.9862 116.838 34.4339C117.921 34.8816 119.084 35.109 120.256 35.1026C121.933 35.1106 123.568 34.5817 124.922 33.5933L124.909 34.887ZM100.775 21.5183C102.45 21.5183 103.862 22.6026 104.422 24.2776H97.1717C97.6967 22.5495 99.0123 21.5183 100.775 21.5183ZM91.8154 26.2058C91.8154 31.2683 95.9561 35.212 101.278 35.212C104.203 35.212 106.34 34.4214 108.544 32.5808L105.025 29.4558C104.203 30.312 102.987 30.7714 101.544 30.7714C100.636 30.797 99.7413 30.547 98.9783 30.0545C98.2152 29.5619 97.6191 28.8499 97.2686 28.012H109.659V26.6901C109.659 21.1683 105.947 17.1933 100.884 17.1933C99.6941 17.1753 98.5125 17.3955 97.4088 17.8408C96.305 18.2862 95.3015 18.9477 94.4571 19.7865C93.6128 20.6253 92.9447 21.6245 92.4921 22.7253C92.0395 23.8261 91.8116 25.0062 91.8217 26.1964L91.8154 26.2058ZM82.6498 16.6995C84.5248 16.6995 85.5748 17.8808 85.5748 19.2964C85.5748 20.712 84.5248 21.8933 82.6498 21.8933H77.0592V16.6995H82.6498ZM71.3998 34.8745H77.0529V26.4933H81.3561L85.6967 34.8745H92.0248L86.9623 25.6714C88.2489 25.1481 89.3494 24.2519 90.1224 23.098C90.8954 21.9441 91.3055 20.5853 91.2998 19.1964C91.2998 15.0558 88.0467 11.8683 83.1748 11.8683H71.3998V34.8745Z" fill="black"/>
</svg>
