<svg width="192" height="45" viewBox="0 0 192 45" fill="none" xmlns="http://www.w3.org/2000/svg">
<path d="M39.6781 25.9344C43.5875 25.9344 49.2438 25.1281 49.2438 20.4781C49.2554 20.1192 49.2229 19.7603 49.1469 19.4094L46.8188 9.29688C46.2813 7.07188 45.8094 6.0625 41.9031 4.10937C38.8719 2.55937 32.2688 0 30.3156 0C28.4969 0 27.9687 2.34375 25.8 2.34375C23.7125 2.34375 22.1625 0.59375 20.2094 0.59375C18.3344 0.59375 17.1125 1.87187 16.1688 4.5C16.1688 4.5 13.5406 11.9125 13.2031 12.9875C13.1495 13.1849 13.1263 13.3893 13.1344 13.5938C13.1344 16.475 24.4781 25.9219 39.6781 25.9219M49.8438 22.3656C50.3844 24.925 50.3844 25.1937 50.3844 25.5312C50.3844 29.9062 45.4656 32.3344 39 32.3344C24.3875 32.3438 11.5875 23.7813 11.5875 18.1219C11.5867 17.3341 11.7473 16.5545 12.0594 15.8312C6.80313 16.0937 0 17.0313 0 23.0375C0 32.875 23.3094 45 41.7656 45C55.9156 45 59.4844 38.6 59.4844 33.5469C59.4844 29.5719 56.0469 25.0594 49.85 22.3656" fill="#EE0000"/>
<path d="M49.8432 22.3658C50.3838 24.9252 50.3838 25.1939 50.3838 25.5314C50.3838 29.9064 45.465 32.3346 38.9994 32.3346C24.3869 32.3439 11.5869 23.7814 11.5869 18.1221C11.5861 17.3343 11.7467 16.5547 12.0588 15.8314L13.2025 13.0002C13.1502 13.1936 13.127 13.3937 13.1338 13.5939C13.1338 16.4752 24.4775 25.9221 39.6775 25.9221C43.5869 25.9221 49.2432 25.1158 49.2432 20.4658C49.2549 20.1069 49.2223 19.748 49.1463 19.3971L49.8432 22.3658ZM181.012 28.8439C181.012 32.5596 183.246 34.3658 187.321 34.3658C188.576 34.3346 189.823 34.1584 191.037 33.8408V29.5314C190.261 29.7774 189.451 29.8997 188.637 29.8939C186.959 29.8939 186.337 29.3689 186.337 27.7908V21.1877H191.199V16.7502H186.337V11.1252L181.024 12.2752V16.7502H177.496V21.1877H181.012V28.8439ZM164.449 28.9439C164.449 27.7939 165.603 27.2346 167.343 27.2346C168.407 27.2408 169.467 27.3729 170.499 27.6283V29.8627C169.482 30.4186 168.337 30.7018 167.178 30.6846C165.471 30.6846 164.449 30.0283 164.449 28.9439ZM166.074 34.4314C167.949 34.4314 169.462 34.0377 170.874 33.0846V34.1377H176.131V22.9939C176.131 18.7564 173.274 16.4314 168.509 16.4314C165.846 16.4314 163.215 17.0564 160.384 18.3377L162.29 22.2502C164.328 21.3939 166.04 20.8689 167.549 20.8689C169.737 20.8689 170.868 21.7221 170.868 23.4658V24.3189C169.58 23.9856 168.255 23.8196 166.924 23.8252C162.453 23.8252 159.759 25.7002 159.759 29.0533C159.759 32.1096 162.19 34.4408 166.068 34.4408L166.074 34.4314ZM137.181 34.1471H142.834V25.1314H152.299V34.1377H157.968V11.1314H152.321V19.9721H142.856V11.1314H137.203L137.181 34.1471ZM115.662 25.4283C115.662 22.9283 117.634 21.0221 120.231 21.0221C121.582 20.9947 122.894 21.4766 123.906 22.3721V28.4502C123.415 28.9135 122.838 29.2751 122.207 29.5143C121.577 29.7535 120.905 29.8656 120.231 29.8439C117.668 29.8439 115.662 27.9377 115.662 25.4408V25.4283ZM123.978 34.1502H129.237V9.98145L123.924 11.1314V17.6721C122.572 16.9054 121.041 16.5087 119.487 16.5221C114.428 16.5221 110.449 20.4314 110.449 25.4283C110.435 26.6008 110.654 27.7644 111.094 28.8512C111.534 29.938 112.186 30.9263 113.013 31.7583C113.839 32.5903 114.822 33.2494 115.906 33.6971C116.99 34.1448 118.152 34.3721 119.324 34.3658C121.001 34.3738 122.636 33.8449 123.99 32.8564L123.978 34.1502ZM99.8432 20.7814C101.518 20.7814 102.931 21.8658 103.49 23.5408H96.24C96.765 21.8127 98.0807 20.7814 99.8432 20.7814ZM90.8838 25.4689C90.8838 30.5314 95.0244 34.4752 100.346 34.4752C103.271 34.4752 105.409 33.6846 107.612 31.8439L104.093 28.7189C103.271 29.5752 102.056 30.0346 100.612 30.0346C99.704 30.0601 98.8097 29.8102 98.0466 29.3177C97.2835 28.8251 96.6875 28.1131 96.3369 27.2752H108.728V25.9533C108.728 20.4314 105.015 16.4564 99.9525 16.4564C98.7625 16.4385 97.5808 16.6587 96.4771 17.104C95.3734 17.5493 94.3698 18.2109 93.5255 19.0497C92.6811 19.8885 92.013 20.8877 91.5604 21.9885C91.1078 23.0893 90.8799 24.2694 90.89 25.4596L90.8838 25.4689ZM81.7182 15.9627C83.5932 15.9627 84.6432 17.1439 84.6432 18.5596C84.6432 19.9752 83.5932 21.1564 81.7182 21.1564H76.1275V15.9627H81.7182ZM70.4682 34.1377H76.1213V25.7564H80.4244L84.765 34.1377H91.0932L86.0307 24.9346C87.3172 24.4113 88.4178 23.5151 89.1908 22.3612C89.9638 21.2073 90.3738 19.8485 90.3682 18.4596C90.3682 14.3189 87.115 11.1314 82.2432 11.1314H70.4682V34.1377Z" fill="white"/>
</svg>
