<svg width="180" height="36" viewBox="0 0 180 36" fill="none" xmlns="http://www.w3.org/2000/svg">
<path d="M64.3211 9.60928C64.3211 8.28207 65.3967 7.20856 66.724 7.20856H77.1299C78.7402 7.20856 80.2561 8.18353 80.8683 9.77493C81.6609 11.8402 80.6293 14.1549 78.5662 14.9475L70.5022 17.9185C67.5752 18.9291 66.0216 22.1161 67.028 25.0431C67.5543 26.5737 68.6781 27.729 70.0472 28.3392L85.1351 35.187V29.9327L71.9364 24.0954C71.7015 23.9927 71.5086 23.7935 71.4185 23.5314C71.2466 23.0303 71.5128 22.4831 72.014 22.3111L80.2855 19.4324C84.8248 17.69 87.0914 12.5971 85.3511 8.05772C84.005 4.55622 80.6692 2.405 77.1299 2.405H66.724C62.7444 2.405 59.5176 5.62973 59.5176 9.60928V34.4259H64.3211V9.60928Z" fill="#B1181E"/>
<path d="M90.7881 34.4274H95.5916V2.4043H90.7881V34.4274Z" fill="#B1181E"/>
<path d="M24.5212 2.40522L15.9226 29.069C15.8136 29.4087 15.5012 29.6226 15.1615 29.6226C14.8218 29.6226 14.5262 29.4192 14.4004 29.069L5.8018 2.40522H0.75293L9.83167 30.5535C10.597 32.9123 12.7817 34.4282 15.1615 34.4282C17.5434 34.4282 19.7218 32.9228 20.4913 30.5535L29.5722 2.40522H24.5212Z" fill="#B1181E"/>
<path d="M124.458 34.4277L133.057 7.76391C133.166 7.42425 133.476 7.21038 133.818 7.21038C134.158 7.21038 134.453 7.41376 134.579 7.76182L143.178 34.4277H148.229L139.148 6.27735C138.382 3.92065 136.198 2.40473 133.818 2.40473C131.436 2.40473 129.258 3.91017 128.488 6.27944L119.407 34.4277H124.458Z" fill="#B1181E"/>
<path d="M39.3861 7.20877H54.5956V2.40522H39.3861C34.9641 2.40522 31.3809 5.99059 31.3809 10.4104V26.423C31.3809 30.8429 34.9641 34.4282 39.3861 34.4282H54.5956V29.6247H39.3861C37.6186 29.6247 36.1844 28.1905 36.1844 26.423V20.7787H51.3939V16.0548H36.1844V10.4104C36.1844 8.64292 37.6186 7.20877 39.3861 7.20877Z" fill="#B1181E"/>
<path d="M122.972 2.40473H99.5957V7.20828H108.882V34.4277H113.686V7.20828H122.972V2.40473Z" fill="#B1181E"/>
<path d="M166.066 34.4272C171.151 34.4272 175.273 30.3051 175.273 25.2206C175.273 20.1361 171.151 16.014 166.066 16.014H158.061C155.629 16.014 153.656 14.0431 153.656 11.6109C153.656 9.1787 155.629 7.2078 158.061 7.2078H173.671V2.40424H158.061C152.977 2.40424 148.854 6.52637 148.854 11.6109C148.854 16.6954 152.977 20.8175 158.061 20.8175L166.066 20.8196C168.499 20.8196 170.469 22.7905 170.469 25.2206C170.469 27.6528 168.499 29.6237 166.066 29.6237H150.454V34.4272H166.066Z" fill="#B1181E"/>
<path d="M178.588 1.8319L178.735 1.41675L179.266 0.0622752H179.752V2.4043H179.352V1.25949L179.36 0.859024L179.23 1.1903L178.762 2.4043H178.414L177.947 1.1903L177.817 0.859024L177.825 1.25949V2.4043H177.425V0.0622752H177.911L178.439 1.41675L178.588 1.8319ZM176.385 2.4043H175.967V0.452263H175.273V0.0622752H177.087V0.452263H176.385V2.4043Z" fill="#B1181E"/>
</svg>
