<svg width="217" height="34" viewBox="0 0 217 34" fill="none" xmlns="http://www.w3.org/2000/svg">
<path d="M92.9383 30.4732L83.4742 4.15623C83.3496 3.78265 83.1836 3.32604 83.1836 2.86944C83.1836 1.74868 84.1383 0.62793 85.5496 0.62793C86.7534 0.62793 87.5421 1.41661 87.9157 2.53737L95.761 25.243L103.648 2.49585C104.021 1.41661 104.727 0.62793 105.931 0.62793H106.18C107.467 0.62793 108.214 1.41661 108.587 2.49585L116.433 25.243L124.402 2.45434C124.693 1.49963 125.357 0.62793 126.644 0.62793C127.972 0.62793 128.927 1.66566 128.927 2.78642C128.927 3.20151 128.761 3.69963 128.636 4.07321L119.131 30.4732C118.633 31.843 117.678 32.5902 116.599 32.5902H116.433C115.229 32.5902 114.316 31.8845 113.901 30.4732L106.138 8.09963L98.293 30.4732C97.8779 31.843 96.9647 32.5902 95.761 32.5902H95.6364C94.3911 32.5487 93.3949 31.843 92.9383 30.4732Z" fill="#6A6667"/>
<path d="M161.843 2.95247C161.843 1.66568 162.881 0.586426 164.126 0.586426C165.455 0.586426 166.492 1.62417 166.492 2.95247V8.30718C168.775 3.1185 173.881 0.66945 177.243 0.66945C178.655 0.66945 179.526 1.70719 179.526 3.03549C179.526 4.32228 178.696 5.19397 177.451 5.40152C171.432 6.10718 166.451 10.6732 166.451 19.6393V30.2242C166.451 31.511 165.496 32.5902 164.168 32.5902C162.839 32.5902 161.802 31.5525 161.802 30.2242L161.843 2.95247Z" fill="#6A6667"/>
<path d="M194.511 32.8808C186.126 32.8808 179.277 26.3638 179.277 16.8166V16.6921C179.277 7.80906 185.504 0.62793 193.93 0.62793C202.979 0.62793 208.126 8.09962 208.126 16.277C208.126 17.5223 207.13 18.4355 206.009 18.4355H183.926C184.591 25.1185 189.24 28.8959 194.677 28.8959C198.455 28.8959 201.236 27.4015 203.477 25.326C203.851 25.0355 204.266 24.7864 204.764 24.7864C205.885 24.7864 206.757 25.6996 206.757 26.7789C206.757 27.3185 206.508 27.8581 206.051 28.2732C203.145 31.0543 199.741 32.8808 194.511 32.8808ZM203.56 15.0317C203.104 9.42793 199.908 4.52982 193.806 4.52982C188.492 4.52982 184.466 9.01283 183.885 15.0317H203.56Z" fill="#6A6667"/>
<path d="M129.053 23.2505V23.126C129.053 16.5675 134.449 13.0807 142.336 13.0807C146.321 13.0807 149.143 13.6204 151.924 14.409V13.3298C151.924 7.72603 148.479 4.86187 142.668 4.86187C139.555 4.86187 137.728 5.27697 135.445 6.2732C135.155 6.39772 134.864 6.43923 134.615 6.43923C133.536 6.43923 132.581 5.52602 132.581 4.44678C132.581 3.49206 132.996 2.91093 133.868 2.53735C136.94 1.20905 139.223 0.752441 143.207 0.752441C147.607 0.752441 150.97 1.8732 153.253 4.19773C155.37 6.31471 156.449 9.30338 156.449 13.2883V30.4732C156.449 31.8015 155.494 32.7562 154.207 32.7562C152.879 32.7562 152.007 31.8015 152.007 30.5977V27.6506C149.849 30.4732 146.238 33.0053 140.758 33.0053C134.906 32.9638 129.053 29.643 129.053 23.2505ZM151.966 20.843V17.8543C149.683 17.1902 146.611 16.526 142.834 16.526C137.023 16.526 133.743 19.0581 133.743 22.96V23.0845C133.743 26.9864 137.355 29.2694 141.547 29.2694C147.275 29.2694 151.966 25.7826 151.966 20.843Z" fill="#6A6667"/>
<path d="M8.75784 2.66197C7.72011 0.420463 5.22954 -0.575771 2.8635 0.461965C0.497463 1.4997 -0.37424 4.1148 0.705005 6.35631L10.5843 27.8167C12.1201 31.1789 13.7805 32.9223 16.8522 32.9223C20.1314 32.9223 21.5842 31.0129 23.1201 27.8167C23.1201 27.8167 31.7126 9.05442 31.8371 8.84687C31.9201 8.63933 32.2107 8.0582 33.0824 8.0582C33.8295 8.0582 34.4522 8.63932 34.4522 9.428V27.7752C34.4522 30.5978 36.0295 32.9223 39.0182 32.9223C42.0484 32.9223 43.6673 30.5978 43.6673 27.7752V12.7488C43.6673 9.8431 45.7427 7.97517 48.5654 7.97517C51.388 7.97517 53.2559 9.92612 53.2559 12.7488V27.7752C53.2559 30.5978 54.8333 32.9223 57.822 32.9223C60.8522 32.9223 62.471 30.5978 62.471 27.7752V12.7488C62.471 9.8431 64.5465 7.97517 67.3691 7.97517C70.1918 7.97517 72.0597 9.92612 72.0597 12.7488V27.7752C72.0597 30.5978 73.6371 32.9223 76.6258 32.9223C79.6559 32.9223 81.2748 30.5978 81.2748 27.7752V10.6733C81.2748 4.40536 76.2107 0.00537109 70.1503 0.00537109C64.0899 0.00537109 60.271 4.19781 60.271 4.19781C58.2371 1.58272 55.4559 0.00537109 50.7654 0.00537109C45.7842 0.00537109 41.4258 4.19781 41.4258 4.19781C39.3918 1.58272 35.9465 0.00537109 33.1239 0.00537109C28.7239 0.00537109 25.2371 1.95631 23.0786 6.81291L16.7692 21.6733L8.75784 2.66197Z" fill="#6A6667"/>
<path d="M208.501 4.57132C208.501 2.45434 210.203 0.669434 212.361 0.669434C214.52 0.669434 216.222 2.41282 216.222 4.52981C216.222 6.64679 214.52 8.39018 212.361 8.39018C210.161 8.39018 208.501 6.64679 208.501 4.57132ZM215.433 4.52981C215.433 2.78641 214.105 1.37509 212.32 1.37509C210.576 1.37509 209.207 2.82792 209.207 4.52981C209.207 6.23169 210.535 7.68452 212.32 7.68452C214.105 7.68452 215.433 6.23169 215.433 4.52981Z" fill="#6A6667"/>
<path d="M210.908 2.95269C210.908 2.70364 211.074 2.5376 211.323 2.5376H212.61C213.108 2.5376 213.482 2.66212 213.689 2.91118C213.897 3.11873 214.021 3.40929 214.021 3.74137C214.021 4.3225 213.731 4.69609 213.274 4.86213L213.855 5.56778C213.938 5.6508 213.98 5.77534 213.98 5.89986C213.98 6.10741 213.772 6.27345 213.606 6.27345C213.44 6.27345 213.316 6.19043 213.191 6.0659L212.403 5.06968H211.738V5.89986C211.738 6.14892 211.572 6.31496 211.323 6.31496C211.074 6.31496 210.908 6.14892 210.908 5.89986V2.95269ZM212.569 4.36401C212.984 4.36401 213.191 4.15647 213.191 3.82439C213.191 3.49232 212.942 3.28476 212.569 3.28476H211.738V4.36401H212.569Z" fill="#6A6667"/>
</svg>
