<svg width="136" height="32" viewBox="0 0 136 32" fill="none" xmlns="http://www.w3.org/2000/svg">
<path d="M104.802 10.2766C103.575 10.8897 102.545 11.7972 101.76 12.9254V10.9633C101.76 10.9633 101.76 10.9388 101.76 10.9142V9.22192H98.6455V14.7158V26.3413V31.8352H101.76V30.1919V30.1674V19.0815C101.76 16.0157 106.028 10.8897 110.811 12.4594L111.473 9.78603C110.811 9.49171 109.903 9.34456 108.75 9.34456C107.401 9.34456 106.028 9.6634 104.802 10.2766Z" fill="white"/>
<path d="M0 9.34448V12.5084H14.0781C13.9309 12.6801 0.588632 28.8674 0.515053 28.9655C-0.416947 30.1673 0.171684 31.1729 0.539579 31.4427C1.00558 31.7861 1.49611 31.8106 2.10926 31.8596H13.1952H18.6891V28.6957H4.83168C4.95432 28.5486 18.3212 12.3367 18.3947 12.2386C19.3267 11.0368 18.7381 10.0557 18.3702 9.76143C17.9042 9.41806 17.3646 9.36901 16.8251 9.34448H0Z" fill="white"/>
<path d="M37.3294 10.8161C33.7731 8.85396 29.4565 8.85396 25.9002 10.8161C24.2078 11.7726 22.8098 13.1706 21.8533 14.8874C20.8723 16.6288 20.3572 18.6154 20.3817 20.6266C20.3572 22.6132 20.8477 24.5999 21.8043 26.3412C23.6928 29.7994 27.3472 31.9087 31.2959 31.8596C32.9637 31.8842 34.607 31.4917 36.1031 30.756C37.5256 30.0447 38.7519 28.9901 39.6839 27.7147V31.8842H42.8478V20.6266C42.8724 18.6154 42.3573 16.6288 41.3763 14.8874C40.4197 13.1951 39.0217 11.7971 37.3294 10.8161ZM38.7029 24.9432C38.0162 26.1941 37.0106 27.2242 35.7843 27.96C34.5089 28.6957 33.0864 29.0636 31.6148 29.0391C30.1432 29.0636 28.6962 28.6712 27.4208 27.96C26.1945 27.2487 25.1644 26.1941 24.4776 24.9432C23.0551 22.2453 23.0551 19.0324 24.4776 16.3345C25.1644 15.0836 26.1945 14.029 27.4208 13.2932C28.6962 12.5574 30.1432 12.165 31.6148 12.1895C34.5579 12.165 37.3049 13.7592 38.7029 16.3345C40.1254 19.0324 40.1254 22.2453 38.7029 24.9432Z" fill="white"/>
<path d="M133.57 14.8874C132.613 13.1951 131.215 11.7971 129.523 10.8161C125.966 8.85396 121.65 8.85396 118.094 10.8161C116.401 11.7726 115.003 13.1706 114.047 14.8874C113.066 16.6288 112.551 18.6154 112.575 20.6266C112.551 22.6132 113.041 24.5999 114.022 26.3412C115.911 29.7994 119.565 31.9087 123.489 31.8596C125.157 31.8842 126.8 31.4917 128.296 30.756C129.719 30.0447 130.945 28.9901 131.877 27.7147V31.8842H135.041V20.6266C135.066 18.5909 134.551 16.6288 133.57 14.8874ZM130.896 24.9432C130.21 26.1941 129.179 27.2242 127.953 27.96C126.678 28.6957 125.255 29.0636 123.784 29.0391C122.312 29.0636 120.865 28.6712 119.614 27.96C118.388 27.2487 117.358 26.1941 116.671 24.9432C115.248 22.2453 115.248 19.0324 116.671 16.3345C118.854 12.4103 123.808 10.9877 127.732 13.1706C129.057 13.9064 130.16 15.0101 130.896 16.3345C132.319 19.0324 132.319 22.2453 130.896 24.9432Z" fill="white"/>
<path d="M89.1771 10.8161C85.6208 8.85396 81.3041 8.85396 77.7478 10.8161C76.0555 11.7726 74.6575 13.1706 73.701 14.8874C72.7199 16.6288 72.2049 18.6154 72.2294 20.6266C72.2049 22.6132 72.6954 24.5999 73.6764 26.3412C75.565 29.7994 79.2194 31.9087 83.1436 31.8596C84.8114 31.8842 86.4547 31.4917 87.9508 30.756C89.3733 30.0447 90.5996 28.9901 91.5316 27.7147V31.8842H94.6955V20.6266C94.72 18.6154 94.205 16.6288 93.1994 14.8874C92.2674 13.1951 90.8694 11.7971 89.1771 10.8161ZM90.5751 24.9432C89.8883 26.1941 88.8582 27.2487 87.6319 27.96C86.3565 28.6957 84.934 29.0636 83.4624 29.0391C81.9909 29.0636 80.5438 28.6712 79.293 27.96C78.0667 27.2487 77.0365 26.1941 76.3498 24.9432C74.9273 22.2453 74.9273 19.0324 76.3498 16.3345C77.0365 15.0836 78.0667 14.029 79.293 13.2932C80.5683 12.5329 82.0154 12.165 83.487 12.1895C86.4301 12.165 89.1771 13.7592 90.5751 16.3345C91.9976 19.0324 91.9976 22.2453 90.5751 24.9432Z" fill="white"/>
<path d="M68.7472 1.66779V0H65.5833V5.51842V13.5385C64.6513 12.2632 63.425 11.2085 62.0025 10.4973C60.5064 9.73695 58.8631 9.36905 57.1953 9.39358C53.2711 9.34453 49.6167 11.4538 47.7282 14.912C46.7716 16.6534 46.2566 18.64 46.2811 20.6266C46.2566 22.6378 46.7716 24.6244 47.7527 26.3658C48.7092 28.0581 50.1072 29.4561 51.7995 30.4372C55.3558 32.3993 59.6725 32.3993 63.2288 30.4372C64.9211 29.4806 66.3191 28.0826 67.2756 26.3658C68.2567 24.6244 68.7717 22.6378 68.7472 20.6266V1.66779ZM64.6268 24.8942C63.9401 26.1451 62.9345 27.1997 61.6836 27.9355C60.4328 28.6713 58.9857 29.0637 57.5142 29.0392C54.5465 29.0882 51.8241 27.494 50.377 24.8942C48.9545 22.1963 48.9545 18.9834 50.377 16.2855C51.0637 15.0346 52.0938 13.98 53.3202 13.2687C54.5955 12.5329 56.0181 12.1651 57.4896 12.1651C58.9612 12.1405 60.3837 12.5329 61.6591 13.2687C62.91 13.98 63.9155 15.0346 64.6023 16.2855C66.0493 18.9588 66.0493 22.1963 64.6268 24.8942Z" fill="white"/>
</svg>
