<svg width="136" height="33" viewBox="0 0 136 33" fill="none" xmlns="http://www.w3.org/2000/svg">
<path d="M104.932 11.0135C103.706 11.6267 102.676 12.5341 101.891 13.6623V11.7002C101.891 11.7002 101.891 11.6757 101.891 11.6512V9.95886H98.7764V15.4528V27.0782V32.5721H101.891V30.9289V30.9043V19.8184C101.891 16.7527 106.159 11.6267 110.941 13.1963L111.604 10.523C110.941 10.2287 110.034 10.0815 108.881 10.0815C107.532 10.0815 106.159 10.4003 104.932 11.0135Z" fill="#202021"/>
<path d="M0.130859 10.0815V13.2454H14.209C14.0618 13.4171 0.719491 29.6044 0.645912 29.7025C-0.286088 30.9043 0.302544 31.9099 0.670439 32.1797C1.13644 32.5231 1.62696 32.5476 2.24012 32.5966H13.326H18.8199V29.4327H4.96254C5.08518 29.2856 18.452 13.0737 18.5256 12.9756C19.4576 11.7738 18.869 10.7927 18.5011 10.4984C18.0351 10.1551 17.4955 10.106 16.9559 10.0815H0.130859Z" fill="#202021"/>
<path d="M37.4603 11.5531C33.904 9.59096 29.5873 9.59096 26.031 11.5531C24.3387 12.5096 22.9407 13.9076 21.9842 15.6244C21.0031 17.3658 20.4881 19.3524 20.5126 21.3636C20.4881 23.3502 20.9786 25.3369 21.9351 27.0782C23.8236 30.5364 27.4781 32.6457 31.4268 32.5966C33.0946 32.6212 34.7379 32.2287 36.234 31.493C37.6565 30.7817 38.8828 29.7271 39.8148 28.4517V32.6212H42.9787V21.3636C43.0032 19.3524 42.4882 17.3658 41.5071 15.6244C40.5506 13.9321 39.1526 12.5341 37.4603 11.5531ZM38.8338 25.6802C38.147 26.9311 37.1414 27.9612 35.9151 28.697C34.6398 29.4327 33.2172 29.8006 31.7456 29.7761C30.2741 29.8006 28.827 29.4082 27.5516 28.697C26.3253 27.9857 25.2952 26.9311 24.6085 25.6802C23.186 22.9823 23.186 19.7694 24.6085 17.0715C25.2952 15.8206 26.3253 14.766 27.5516 14.0302C28.827 13.2944 30.2741 12.902 31.7456 12.9265C34.6888 12.902 37.4358 14.4962 38.8338 17.0715C40.2563 19.7694 40.2563 22.9823 38.8338 25.6802Z" fill="#202021"/>
<path d="M133.7 15.6244C132.744 13.9321 131.346 12.5341 129.654 11.5531C126.097 9.59096 121.781 9.59096 118.224 11.5531C116.532 12.5096 115.134 13.9076 114.178 15.6244C113.196 17.3658 112.681 19.3524 112.706 21.3636C112.681 23.3502 113.172 25.3369 114.153 27.0782C116.042 30.5364 119.696 32.6457 123.62 32.5966C125.288 32.6212 126.931 32.2287 128.427 31.493C129.85 30.7817 131.076 29.7271 132.008 28.4517V32.6212H135.172V21.3636C135.197 19.3279 134.682 17.3658 133.7 15.6244ZM131.027 25.6802C130.34 26.9311 129.31 27.9612 128.084 28.697C126.809 29.4327 125.386 29.8006 123.914 29.7761C122.443 29.8006 120.996 29.4082 119.745 28.697C118.519 27.9857 117.489 26.9311 116.802 25.6802C115.379 22.9823 115.379 19.7694 116.802 17.0715C118.985 13.1473 123.939 11.7247 127.863 13.9076C129.188 14.6434 130.291 15.7471 131.027 17.0715C132.45 19.7694 132.45 22.9823 131.027 25.6802Z" fill="#202021"/>
<path d="M89.3079 11.5531C85.7516 9.59096 81.435 9.59096 77.8787 11.5531C76.1864 12.5096 74.7884 13.9076 73.8318 15.6244C72.8508 17.3658 72.3357 19.3524 72.3603 21.3636C72.3357 23.3502 72.8262 25.3369 73.8073 27.0782C75.6958 30.5364 79.3503 32.6457 83.2745 32.5966C84.9423 32.6212 86.5855 32.2287 88.0816 31.493C89.5041 30.7817 90.7305 29.7271 91.6625 28.4517V32.6212H94.8264V21.3636C94.8509 19.3524 94.3358 17.3658 93.3303 15.6244C92.3983 13.9321 91.0003 12.5341 89.3079 11.5531ZM90.7059 25.6802C90.0192 26.9311 88.9891 27.9857 87.7628 28.697C86.4874 29.4327 85.0649 29.8006 83.5933 29.7761C82.1217 29.8006 80.6747 29.4082 79.4238 28.697C78.1975 27.9857 77.1674 26.9311 76.4807 25.6802C75.0581 22.9823 75.0581 19.7694 76.4807 17.0715C77.1674 15.8206 78.1975 14.766 79.4238 14.0302C80.6992 13.2699 82.1462 12.902 83.6178 12.9265C86.561 12.902 89.3079 14.4962 90.7059 17.0715C92.1285 19.7694 92.1285 22.9823 90.7059 25.6802Z" fill="#202021"/>
<path d="M68.8781 2.40473V0.736938H65.7142V6.25536V14.2755C64.7822 13.0001 63.5559 11.9455 62.1333 11.2342C60.6372 10.4739 58.994 10.106 57.3262 10.1305C53.402 10.0815 49.7476 12.1907 47.859 15.6489C46.9025 17.3903 46.3874 19.3769 46.412 21.3636C46.3874 23.3747 46.9025 25.3614 47.8835 27.1027C48.8401 28.795 50.2381 30.193 51.9304 31.1741C55.4867 33.1362 59.8033 33.1362 63.3597 31.1741C65.052 30.2176 66.45 28.8196 67.4065 27.1027C68.3875 25.3614 68.9026 23.3747 68.8781 21.3636V2.40473ZM64.7577 25.6311C64.0709 26.882 63.0653 27.9366 61.8145 28.6724C60.5637 29.4082 59.1166 29.8006 57.645 29.7761C54.6773 29.8251 51.9549 28.2309 50.5079 25.6311C49.0853 22.9333 49.0853 19.7203 50.5079 17.0224C51.1946 15.7716 52.2247 14.7169 53.451 14.0057C54.7264 13.2699 56.1489 12.902 57.6205 12.902C59.0921 12.8775 60.5146 13.2699 61.79 14.0057C63.0408 14.7169 64.0464 15.7716 64.7331 17.0224C66.1802 19.6958 66.1802 22.9333 64.7577 25.6311Z" fill="#202021"/>
</svg>
